<?xml version="1.0" encoding="utf-8"?>
<!-- Generator: Adobe Illustrator 21.0.0, SVG Export Plug-In . SVG Version: 6.00 Build 0)  -->
<svg version="1.1" id="Layer_1" xmlns="http://www.w3.org/2000/svg" xmlns:xlink="http://www.w3.org/1999/xlink" x="0px" y="0px"
	 viewBox="0 0 68.1 68.2" style="enable-background:new 0 0 68.1 68.2;" xml:space="preserve">
<style type="text/css">
	.st0{fill:#173D4B;}
	.st1{fill:#00A551;}
</style>
<g>
	<g>
		<g>
			<path class="st0" d="M39.9,30.9l0,4.1l-0.1,3.5l0,1.6c-0.1,4.2,0.7,8,5.1,8.1c1.8,0,3-0.7,3.9-1.6c0.8-0.8,1.2-2.2,1.2-4.1
				c-0.1-1.9,0.9-4.9,4.5-5.5c0.3-0.1,0.7-0.1,1-0.1c1.6,0,3.2,0.6,4.2,1.7c0.6,0.6,1.3,1.7,1.4,3.4l0,0.1c0,0.1,0,0.2,0,0.2l0,0.1
				c0,5.3-1.5,9.2-4.6,11.8c-2.5,2.1-5.7,3.2-8.9,3.6c-3.6,0.4-7.7,0.5-11-1c-2.6-1.2-4.3-3.4-5.8-5.7c-2-3.2-2.2-6.5-2.2-10.2
				c0-2.7,0-5.3,0-8c0-3.2,0-6.4-0.1-9.6c-0.2-3.6,1.5-7.2,4.1-9.7c4.1-4,11.1-4.8,16.5-3.8c3.6,0.6,7,2.4,9.2,5.4
				c2.1,2.7,3,6.7,2.8,10.1c-0.2,2.5-1.8,4.6-4.4,5.1c-2.8,0.5-5.8-0.9-6.6-3.8c-0.3-1.4-0.1-3-0.6-4.4c-0.3-0.7-0.8-1.4-1.5-1.8
				c-1.6-1-4.4-1.1-6.1-0.3c-1.8,0.8-2.2,2.9-2.2,4.7C39.9,30.2,39.9,30.9,39.9,30.9z"/>
		</g>
		<path class="st1" d="M39.8,40.2c0,1.3,0.1,2.6,0.4,3.9c0.3,1.4,1,2.8,2.2,3.6c0.5,0.3,1,0.5,1.4,0.8c1.8,1.3,2.1,4,1.4,6
			c-0.5,1.4-1.6,2.8-3,3.3c-1.8,0.6-3.7,0-5.3-0.7c-0.8-0.3-1.5-0.8-2.2-1.3c0,0-0.8-0.6-0.8-0.6c-2.8,1.9-6.3,2.8-10.4,2.8
			c-4.8,0-8.7-1.3-11.6-3.8c-3-2.6-4.6-6.6-4.6-11.8V25.1c0-5.2,1.5-9.2,4.6-11.8c2.9-2.5,6.8-3.8,11.6-3.8c4.8,0,8.7,1.3,11.7,3.8
			c0.2,0.2,0.5,0.4,0.7,0.6c0,0,3.8,3.1,3.9,11.3c0,3,0,5.9,0,8.9C39.9,36.1,39.8,38.2,39.8,40.2z M28.8,25.1c0-1.9-0.4-3.3-1.2-4.2
			c-0.8-0.8-2.1-1.2-3.9-1.2c-3.7,0-5.1,1.5-5.1,5.4v17.3c0,3.9,1.4,5.4,5.1,5.4c1.8,0,3-0.4,3.9-1.2c0.8-0.8,1.2-2.2,1.2-4.1
			L28.8,25.1z"/>
	</g>
</g>
</svg>
