<?xml version="1.0" encoding="utf-8"?>
<!-- Generator: Adobe Illustrator 19.0.0, SVG Export Plug-In . SVG Version: 6.00 Build 0)  -->
<svg version="1.1" id="Layer_1" xmlns="http://www.w3.org/2000/svg" xmlns:xlink="http://www.w3.org/1999/xlink" x="0px" y="0px"
	 viewBox="0 0 182 182" style="enable-background:new 0 0 182 182;" xml:space="preserve">
<style type="text/css">
	.st0{display:none;}
	.st1{display:inline;fill:#C52E5C;}
	.st2{display:inline;fill:#FCDB70;}
	.st3{display:inline;fill:#BBBFC2;}
	.st4{display:inline;fill:#2D434E;}
	.st5{display:inline;fill:#7ED1E8;}
	.st6{display:inline;fill:#D7D182;}
	.st7{display:inline;fill:#F8C943;}
	.st8{display:inline;fill:#3DB879;}
	.st9{display:inline;fill:#82D2E6;}
	.st10{display:inline;fill:#856EB1;}
	.st11{display:inline;}
	.st12{fill:#BBBFC2;}
	.st13{display:inline;fill:#C52B5D;}
	.st14{display:inline;fill:#EE6A54;}
	.st15{display:inline;fill:#F1B461;}
	.st16{display:inline;fill:#FFFFFF;}
	.st17{display:inline;fill:#4AC4DE;}
	.st18{display:inline;fill:#9FDBED;}
	.st19{display:inline;fill:#37C2D9;}
	.st20{display:inline;fill:#535258;}
	.st21{display:inline;fill:#009EB9;}
	.st22{display:inline;fill:#3D3C43;}
	.st23{display:inline;fill:#87D3E9;}
	.st24{fill:#FAE54D;}
	.st25{fill:#EE4931;}
	.st26{fill:#EF634E;}
	.st27{fill:#7294CD;}
	.st28{fill:#87D3E9;}
	.st29{fill:#4AC4DE;}
	.st30{fill:#FDC946;}
	.st31{fill:#F26D84;}
	.st32{fill:#C2DCF3;}
	.st33{fill:#74797F;}
	.st34{fill:#9EC1E3;}
	.st35{fill:#FFFFFF;}
	.st36{fill:#6D7277;}
	.st37{fill:#FBD577;}
	.st38{fill:#3D93C5;}
	.st39{fill-rule:evenodd;clip-rule:evenodd;fill:#49C5DF;}
	.st40{fill-rule:evenodd;clip-rule:evenodd;fill:#F7F7F5;}
	.st41{fill-rule:evenodd;clip-rule:evenodd;fill:#41416A;}
	.st42{fill:#F7F7F5;}
	.st43{fill:#FBC94C;}
	.st44{fill:#F27086;}
	.st45{fill:#4798C7;}
	.st46{fill:#F5F5F7;}
	.st47{fill:#E9EFF9;}
	.st48{fill:#49C5DF;}
	.st49{fill-rule:evenodd;clip-rule:evenodd;fill:#C2DCF3;}
</style>
<g id="XMLID_1_" class="st0">
	<path id="XMLID_44_" class="st1" d="M-44.5,248.7c0.8,0,1.5-0.7,1.5-1.6c0-0.9-0.7-1.6-1.5-1.6h-4.6c-0.8,0-1.5,0.7-1.5,1.6
		c0,0.9,0.7,1.6,1.5,1.6H-44.5z"/>
	<path id="XMLID_110_" class="st2" d="M-55.3,247.1c0-0.9-0.7-1.6-1.5-1.6h-16.9c-0.8,0-1.5,0.7-1.5,1.6c0,0.9,0.7,1.6,1.5,1.6h16.9
		C-56,248.7-55.3,248-55.3,247.1z"/>
	<path id="XMLID_111_" class="st2" d="M-6.9,248.7c0.8,0,1.5-0.7,1.5-1.6c0-0.9-0.7-1.6-1.5-1.6h-26.9c-0.8,0-1.5,0.7-1.5,1.6
		c0,0.9,0.7,1.6,1.5,1.6H-6.9z"/>
	<path id="XMLID_112_" class="st2" d="M-73.7,275.7c-0.8,0-1.5,0.7-1.5,1.6c0,0.9,0.7,1.6,1.5,1.6h16.9c0.8,0,1.5-0.7,1.5-1.6
		c0-0.9-0.7-1.6-1.5-1.6H-73.7z"/>
	<path id="XMLID_113_" class="st2" d="M-34.6,294.2h11.5c0.8,0,1.5-0.7,1.5-1.6s-0.7-1.6-1.5-1.6h-11.5c-0.8,0-1.5,0.7-1.5,1.6
		S-35.4,294.2-34.6,294.2z"/>
	<path id="XMLID_114_" class="st3" d="M-98.3,233.4h26.6c0.8,0,1.5-0.7,1.5-1.6c0-0.9-0.7-1.6-1.5-1.6h-26.6c-0.8,0-1.5,0.7-1.5,1.6
		C-99.8,232.7-99.1,233.4-98.3,233.4z"/>
	<path id="XMLID_115_" class="st1" d="M-98.3,248.7h4.6c0.8,0,1.5-0.7,1.5-1.6c0-0.9-0.7-1.6-1.5-1.6h-4.6c-0.8,0-1.5,0.7-1.5,1.6
		C-99.8,248-99.1,248.7-98.3,248.7z"/>
	<path id="XMLID_116_" class="st4" d="M-60.7,233.4h34.5c0.8,0,1.5-0.7,1.5-1.6c0-0.9-0.7-1.6-1.5-1.6h-34.5c-0.8,0-1.5,0.7-1.5,1.6
		C-62.2,232.7-61.5,233.4-60.7,233.4z"/>
	<path id="XMLID_117_" class="st1" d="M-49.1,275.7c-0.8,0-1.5,0.7-1.5,1.6c0,0.9,0.7,1.6,1.5,1.6h4.6c0.8,0,1.5-0.7,1.5-1.6
		c0-0.9-0.7-1.6-1.5-1.6H-49.1z"/>
	<path id="XMLID_118_" class="st5" d="M-2.5,262.5c0-0.9-0.7-1.6-1.5-1.6h-11.5c-0.8,0-1.5,0.7-1.5,1.6s0.7,1.6,1.5,1.6H-4
		C-3.2,264.1-2.5,263.4-2.5,262.5z"/>
	<path id="XMLID_119_" class="st1" d="M-86.7,245.6c-0.8,0-1.5,0.7-1.5,1.6c0,0.9,0.7,1.6,1.5,1.6h4.6c0.8,0,1.5-0.7,1.5-1.6
		c0-0.9-0.7-1.6-1.5-1.6H-86.7z"/>
	<path id="XMLID_120_" class="st6" d="M9.9,233.4h11.5c0.8,0,1.5-0.7,1.5-1.6c0-0.9-0.7-1.6-1.5-1.6H9.9c-0.8,0-1.5,0.7-1.5,1.6
		C8.4,232.7,9.1,233.4,9.9,233.4z"/>
	<path id="XMLID_121_" class="st5" d="M34.3,233.3h6.4c0.8,0,1.5-0.7,1.5-1.5c0-0.8-0.7-1.5-1.5-1.5h-6.4c-0.8,0-1.5,0.7-1.5,1.5
		C32.8,232.6,33.5,233.3,34.3,233.3z"/>
	<path id="XMLID_122_" class="st7" d="M40.9,245.6h-31c-0.8,0-1.5,0.7-1.5,1.6c0,0.9,0.7,1.6,1.5,1.6h31c0.8,0,1.5-0.7,1.5-1.6
		C42.5,246.3,41.8,245.6,40.9,245.6z"/>
	<path id="XMLID_123_" class="st5" d="M9.8,264.1h11.5c0.8,0,1.5-0.7,1.5-1.6s-0.7-1.6-1.5-1.6H9.8c-0.8,0-1.5,0.7-1.5,1.6
		S8.9,264.1,9.8,264.1z"/>
	<path id="XMLID_124_" class="st2" d="M40.7,260.9h-6.4c-0.8,0-1.5,0.7-1.5,1.6s0.7,1.6,1.5,1.6h6.4c0.8,0,1.5-0.7,1.5-1.6
		S41.5,260.9,40.7,260.9z"/>
	<path id="XMLID_125_" class="st5" d="M-15.4,233.4h11.5c0.8,0,1.5-0.7,1.5-1.6c0-0.9-0.7-1.6-1.5-1.6h-11.5c-0.8,0-1.5,0.7-1.5,1.6
		C-16.9,232.7-16.3,233.4-15.4,233.4z"/>
	<path id="XMLID_126_" class="st2" d="M-16.2,291.1c-0.8,0-1.5,0.7-1.5,1.6s0.7,1.6,1.5,1.6h3.8c0.8,0,1.5-0.7,1.5-1.6
		s-0.7-1.6-1.5-1.6H-16.2z"/>
	<path id="XMLID_127_" class="st7" d="M-5.4,277.3c0-0.9-0.7-1.6-1.5-1.6h-26.9c-0.8,0-1.5,0.7-1.5,1.6c0,0.9,0.7,1.6,1.5,1.6h26.9
		C-6.1,278.9-5.4,278.2-5.4,277.3z"/>
	<path id="XMLID_128_" class="st8" d="M-24.7,262.5c0-0.9-0.7-1.6-1.5-1.6h-34.5c-0.8,0-1.5,0.7-1.5,1.6s0.7,1.6,1.5,1.6h34.5
		C-25.4,264.1-24.7,263.4-24.7,262.5z"/>
	<path id="XMLID_129_" class="st8" d="M9.1,294.2h19.2c0.8,0,1.5-0.7,1.5-1.6s-0.7-1.6-1.5-1.6H9.1c-0.8,0-1.5,0.7-1.5,1.6
		S8.3,294.2,9.1,294.2z"/>
	<path id="XMLID_130_" class="st5" d="M-43.8,318.5H-76c-0.8,0-1.5,0.7-1.5,1.6s0.7,1.6,1.5,1.6h32.2c0.8,0,1.5-0.7,1.5-1.6
		S-42.9,318.5-43.8,318.5z"/>
	<path id="XMLID_131_" class="st1" d="M-0.8,318.5h-3.8c-0.8,0-1.5,0.7-1.5,1.6s0.7,1.6,1.5,1.6h3.8c0.8,0,1.5-0.7,1.5-1.6
		S0,318.5-0.8,318.5z"/>
	<path id="XMLID_132_" class="st8" d="M28.3,318.5H9.1c-0.8,0-1.5,0.7-1.5,1.6s0.7,1.6,1.5,1.6h19.2c0.8,0,1.5-0.7,1.5-1.6
		S29.2,318.5,28.3,318.5z"/>
	<path id="XMLID_133_" class="st5" d="M-0.8,291.1h-3.8c-0.8,0-1.5,0.7-1.5,1.6s0.7,1.6,1.5,1.6h3.8c0.8,0,1.5-0.7,1.5-1.6
		S0,291.1-0.8,291.1z"/>
	<path id="XMLID_134_" class="st1" d="M-12.3,318.5h-3.8c-0.8,0-1.5,0.7-1.5,1.6s0.7,1.6,1.5,1.6h3.8c0.8,0,1.5-0.7,1.5-1.6
		S-11.5,318.5-12.3,318.5z"/>
	<path id="XMLID_135_" class="st8" d="M-5.4,304.7c0-0.9-0.7-1.6-1.5-1.6h-26.9c-0.8,0-1.5,0.7-1.5,1.6c0,0.9,0.7,1.6,1.5,1.6h26.9
		C-6.1,306.3-5.4,305.6-5.4,304.7z"/>
	<path id="XMLID_136_" class="st2" d="M40.9,275.7h-31c-0.8,0-1.5,0.7-1.5,1.6c0,0.9,0.7,1.6,1.5,1.6h31c0.8,0,1.5-0.7,1.5-1.6
		C42.5,276.4,41.8,275.7,40.9,275.7z"/>
	<path id="XMLID_137_" class="st8" d="M-23.1,318.5h-11.5c-0.8,0-1.5,0.7-1.5,1.6s0.7,1.6,1.5,1.6h11.5c0.8,0,1.5-0.7,1.5-1.6
		S-22.2,318.5-23.1,318.5z"/>
	<path id="XMLID_138_" class="st2" d="M39.4,294.2c0.8,0,1.5-0.7,1.5-1.6s-0.7-1.6-1.5-1.6h-3.8c-0.8,0-1.5,0.7-1.5,1.6
		s0.7,1.6,1.5,1.6H39.4z"/>
	<path id="XMLID_139_" class="st5" d="M40.9,303.2h-31c-0.8,0-1.5,0.7-1.5,1.6c0,0.9,0.7,1.6,1.5,1.6h31c0.8,0,1.5-0.7,1.5-1.6
		C42.5,303.9,41.8,303.2,40.9,303.2z"/>
	<path id="XMLID_140_" class="st1" d="M39.4,318.5h-3.8c-0.8,0-1.5,0.7-1.5,1.6s0.7,1.6,1.5,1.6h3.8c0.8,0,1.5-0.7,1.5-1.6
		S40.3,318.5,39.4,318.5z"/>
	<path id="XMLID_141_" class="st7" d="M-43.8,291.1H-76c-0.8,0-1.5,0.7-1.5,1.6s0.7,1.6,1.5,1.6h32.2c0.8,0,1.5-0.7,1.5-1.6
		S-42.9,291.1-43.8,291.1z"/>
	<path id="XMLID_142_" class="st5" d="M-86.7,318.5h-11.5c-0.8,0-1.5,0.7-1.5,1.6s0.7,1.6,1.5,1.6h11.5c0.8,0,1.5-0.7,1.5-1.6
		S-85.9,318.5-86.7,318.5z"/>
	<path id="XMLID_143_" class="st1" d="M-98.3,294.2h11.5c0.8,0,1.5-0.7,1.5-1.6s-0.7-1.6-1.5-1.6h-11.5c-0.8,0-1.5,0.7-1.5,1.6
		S-99.1,294.2-98.3,294.2z"/>
	<path id="XMLID_144_" class="st8" d="M-98.3,306.3h4.6c0.8,0,1.5-0.7,1.5-1.6c0-0.9-0.7-1.6-1.5-1.6h-4.6c-0.8,0-1.5,0.7-1.5,1.6
		C-99.8,305.6-99.1,306.3-98.3,306.3z"/>
	<path id="XMLID_145_" class="st2" d="M-98.3,278.9h4.6c0.8,0,1.5-0.7,1.5-1.6c0-0.9-0.7-1.6-1.5-1.6h-4.6c-0.8,0-1.5,0.7-1.5,1.6
		C-99.8,278.2-99.1,278.9-98.3,278.9z"/>
	<path id="XMLID_146_" class="st8" d="M-56.8,306.3c0.8,0,1.5-0.7,1.5-1.6c0-0.9-0.7-1.6-1.5-1.6h-16.9c-0.8,0-1.5,0.7-1.5,1.6
		c0,0.9,0.7,1.6,1.5,1.6H-56.8z"/>
	<path id="XMLID_147_" class="st1" d="M-44.5,306.3c0.8,0,1.5-0.7,1.5-1.6c0-0.9-0.7-1.6-1.5-1.6h-4.6c-0.8,0-1.5,0.7-1.5,1.6
		c0,0.9,0.7,1.6,1.5,1.6H-44.5z"/>
	<path id="XMLID_148_" class="st7" d="M-98.3,264.1h26.8c0.8,0,1.5-0.7,1.5-1.6s-0.7-1.6-1.5-1.6h-26.8c-0.8,0-1.5,0.7-1.5,1.6
		S-99.1,264.1-98.3,264.1z"/>
	<path id="XMLID_149_" class="st8" d="M-82.1,275.7h-4.6c-0.8,0-1.5,0.7-1.5,1.6c0,0.9,0.7,1.6,1.5,1.6h4.6c0.8,0,1.5-0.7,1.5-1.6
		C-80.6,276.4-81.3,275.7-82.1,275.7z"/>
	<path id="XMLID_150_" class="st2" d="M-82.1,303.2h-4.6c-0.8,0-1.5,0.7-1.5,1.6c0,0.9,0.7,1.6,1.5,1.6h4.6c0.8,0,1.5-0.7,1.5-1.6
		C-80.6,303.9-81.3,303.2-82.1,303.2z"/>
</g>
<g id="XMLID_185_" class="st0">
	<rect id="XMLID_2_" x="323.7" y="199.7" class="st5" width="39.5" height="4.6"/>
	<rect id="XMLID_155_" x="342.8" y="209.9" class="st5" width="29.6" height="4.6"/>
	<rect id="XMLID_157_" x="343.5" y="225.5" class="st5" width="8.4" height="4.6"/>
	<rect id="XMLID_153_" x="367" y="199.7" class="st5" width="33.4" height="4.6"/>
	<rect id="XMLID_161_" x="390.5" y="235.3" class="st9" width="23.2" height="4.6"/>
	<rect id="XMLID_164_" x="400" y="244.7" class="st9" width="29.5" height="4.6"/>
	<rect id="XMLID_177_" x="400" y="300.3" class="st9" width="29.5" height="4.6"/>
	<rect id="XMLID_181_" x="363.6" y="310" class="st9" width="16.3" height="4.6"/>
	<rect id="XMLID_182_" x="384.2" y="310" class="st10" width="21.4" height="4.6"/>
	<rect id="XMLID_183_" x="409.5" y="310" class="st6" width="13.8" height="4.6"/>
	<rect id="XMLID_170_" x="363.6" y="254.8" class="st9" width="26.8" height="4.6"/>
	<rect id="XMLID_171_" x="363.6" y="264" class="st9" width="26.8" height="4.6"/>
	<rect id="XMLID_162_" x="418.5" y="235.3" class="st6" width="54.2" height="4.6"/>
	<rect id="XMLID_165_" x="433.8" y="244.8" class="st6" width="31.6" height="4.6"/>
	<rect id="XMLID_166_" x="438.8" y="254.8" class="st6" width="23.3" height="4.6"/>
	<rect id="XMLID_180_" x="433.9" y="300.3" class="st6" width="31.5" height="4.6"/>
	<rect id="XMLID_167_" x="412.9" y="254.4" class="st10" width="21" height="4.6"/>
	<rect id="XMLID_160_" x="391.3" y="244.9" class="st1" width="4.3" height="4.6"/>
	<rect id="XMLID_173_" x="381.7" y="235.3" class="st1" width="4.3" height="4.6"/>
	<g id="XMLID_152_" class="st11">
		<rect id="XMLID_154_" x="404.7" y="199.7" class="st12" width="61.5" height="4.6"/>
		<rect id="XMLID_156_" x="376.9" y="209.9" class="st12" width="61.5" height="4.6"/>
		<rect id="XMLID_158_" x="356.2" y="225.5" class="st12" width="61.5" height="4.6"/>
		<rect id="XMLID_159_" x="363.6" y="235.3" class="st12" width="13.8" height="4.6"/>
		<rect id="XMLID_168_" x="395.2" y="254.4" class="st12" width="13.8" height="4.6"/>
		<rect id="XMLID_169_" x="395.2" y="264" class="st12" width="13.8" height="4.6"/>
		<rect id="XMLID_163_" x="363.6" y="244.7" class="st12" width="23.2" height="4.6"/>
		<rect id="XMLID_174_" x="356.8" y="290.6" class="st12" width="37.6" height="4.6"/>
		<rect id="XMLID_176_" x="363.6" y="300.3" class="st12" width="23" height="4.6"/>
		<rect id="XMLID_172_" x="343.9" y="273.9" class="st12" width="3.7" height="4.1"/>
		<rect id="XMLID_178_" x="343.9" y="318.7" class="st12" width="3.7" height="4.1"/>
		<rect id="XMLID_184_" x="324.5" y="330.6" class="st12" width="3.7" height="4.1"/>
	</g>
	<rect id="XMLID_179_" x="391.5" y="300.6" class="st13" width="3.7" height="4.1"/>
	<rect id="XMLID_175_" x="343" y="290.8" class="st13" width="9.3" height="4.1"/>
</g>
<g id="XMLID_258_" class="st0">
	<polygon id="XMLID_256_" class="st14" points="655.3,82.8 654.3,87 651.5,86 653.9,87.9 651.5,90.8 654.8,88.3 657.9,91.5 
		655.9,87.9 658.8,86.4 655.5,86.9 	"/>
	<circle id="XMLID_255_" class="st15" cx="591" cy="-20.7" r="1.1"/>
	<circle id="XMLID_254_" class="st15" cx="611.1" cy="8.3" r="1.1"/>
	<circle id="XMLID_253_" class="st15" cx="639" cy="8.3" r="1.4"/>
	<circle id="XMLID_252_" class="st16" cx="639" cy="113.9" r="1.1"/>
	<circle id="XMLID_251_" class="st14" cx="514.2" cy="38.6" r="1.9"/>
	<path id="XMLID_248_" class="st17" d="M554.1,130.6l-15.5-15.5c-1.1-1.1-1.7-2.5-1.7-4V36.3c0-5,4.1-9.1,9.1-9.1h66.3
		c5,0,9.1,4.1,9.1,9.1v86.9c0,5-4.1,9.1-9.1,9.1h-54.2C556.6,132.3,555.1,131.7,554.1,130.6L554.1,130.6z M554.1,130.6"/>
	<path id="XMLID_245_" class="st18" d="M554.1,130.6l-15.5-15.5c-1.1-1.1-1.7-2.5-1.7-4v-6.2h18.3c5,0,9.1,4.1,9.1,9.1v18.3h-6.2
		C556.6,132.3,555.1,131.7,554.1,130.6L554.1,130.6z M554.1,130.6"/>
	<path id="XMLID_242_" class="st19" d="M621.4,57.2v23.6L539,71.2c-1.3-0.4-2.2-1.6-2.2-2.9V57.2H621.4z M621.4,57.2"/>
	<path id="XMLID_239_" class="st20" d="M618,55.7v-16c0-0.6,0.5-1.1,1.1-1.1h3.4c5,0,9.1,4.1,9.1,9.1s-4.1,9.1-9.1,9.1h-3.4
		C618.5,56.8,618,56.3,618,55.7L618,55.7z M618,55.7"/>
	<path id="XMLID_236_" class="st17" d="M531.1,59.1V36.3c0-5,4.1-9.1,9.1-9.1H618c5,0,9.1,4.1,9.1,9.1v22.9c0,5-4.1,9.1-9.1,9.1
		h-77.7C535.2,68.3,531.1,64.2,531.1,59.1L531.1,59.1z M531.1,59.1"/>
	<path id="XMLID_233_" class="st19" d="M531.1,61.4V34c0-3.8,3.1-6.9,6.9-6.9c3.8,0,6.9,3.1,6.9,6.9v27.4c0,3.8-3.1,6.9-6.9,6.9
		C534.2,68.3,531.1,65.2,531.1,61.4L531.1,61.4z M531.1,61.4"/>
	<path id="XMLID_230_" class="st18" d="M611.1,56.8h-50.3c-5,0-9.1-4.1-9.1-9.1s4.1-9.1,9.1-9.1h50.3c5,0,9.1,4.1,9.1,9.1
		S616.2,56.8,611.1,56.8L611.1,56.8z M611.1,56.8"/>
	<path id="XMLID_227_" class="st21" d="M531.1,59.1V36.3c0-2.5,2-4.6,4.6-4.6s4.6,2,4.6,4.6v22.9c0,2.5-2,4.6-4.6,4.6
		S531.1,61.7,531.1,59.1L531.1,59.1z M531.1,59.1"/>
	<path id="XMLID_224_" class="st20" d="M535.7,56.8c-5,0-9.1-4.1-9.1-9.1s4.1-9.1,9.1-9.1h4.6v18.3H535.7z M535.7,56.8"/>
	<path id="XMLID_221_" class="st22" d="M535.7,38.6h4.6v18.3c-1.3,0-2.4-1-2.6-2.3L535.7,38.6z M535.7,38.6"/>
	<path id="XMLID_218_" class="st23" d="M581.7,80.5h-13c-0.8,0-1.4-0.6-1.4-1.4c0-0.8,0.6-1.4,1.4-1.4h13c0.8,0,1.4,0.6,1.4,1.4
		C583.2,79.9,582.5,80.5,581.7,80.5L581.7,80.5z M581.7,80.5"/>
	<path id="XMLID_215_" class="st23" d="M577.4,84.8c0-0.8-0.6-1.4-1.4-1.4h-7.2c-0.8,0-1.4,0.6-1.4,1.4s0.6,1.4,1.4,1.4h7.2
		C576.8,86.3,577.4,85.6,577.4,84.8L577.4,84.8z M577.4,84.8"/>
	<path id="XMLID_212_" class="st23" d="M610.7,95.1c0-0.8-0.6-1.4-1.4-1.4h-40.5c-0.8,0-1.4,0.6-1.4,1.4s0.6,1.4,1.4,1.4h40.5
		C610,96.5,610.7,95.9,610.7,95.1L610.7,95.1z M610.7,95.1"/>
	<path id="XMLID_209_" class="st23" d="M610.7,100.8c0-0.8-0.6-1.4-1.4-1.4h-40.5c-0.8,0-1.4,0.6-1.4,1.4s0.6,1.4,1.4,1.4h40.5
		C610,102.3,610.7,101.6,610.7,100.8L610.7,100.8z M610.7,100.8"/>
	<path id="XMLID_206_" class="st23" d="M610.7,106.6c0-0.8-0.6-1.4-1.4-1.4h-40.5c-0.8,0-1.4,0.6-1.4,1.4s0.6,1.4,1.4,1.4h40.5
		C610,108.1,610.7,107.4,610.7,106.6L610.7,106.6z M610.7,106.6"/>
	<path id="XMLID_203_" class="st23" d="M610.7,112.4c0-0.8-0.6-1.4-1.4-1.4h-40.5c-0.8,0-1.4,0.6-1.4,1.4c0,0.8,0.6,1.4,1.4,1.4
		h40.5C610,113.9,610.7,113.2,610.7,112.4L610.7,112.4z M610.7,112.4"/>
	<path id="XMLID_200_" class="st23" d="M610.7,124c0-0.8-0.6-1.4-1.4-1.4H602c-0.8,0-1.4,0.6-1.4,1.4s0.6,1.4,1.4,1.4h7.2
		C610,125.4,610.7,124.8,610.7,124L610.7,124z M610.7,124"/>
	<g id="XMLID_196_" class="st11">
		<path id="XMLID_197_" class="st24" d="M528,8.8l2.2,0l0-2.2c0-0.5,0.5-1,1-1c0.5,0,1,0.4,1,1l0,2.2l2.2,0c0.5,0,1,0.5,1,1
			c0,0.5-0.4,1-1,1l-2.2,0l0,2.2c0,0.5-0.5,1-1,1c-0.5,0-1-0.4-1-1l0-2.2l-2.2,0c-0.5,0-1-0.5-1-1C527,9.2,527.4,8.8,528,8.8
			L528,8.8z M528,8.8"/>
	</g>
	<g id="XMLID_192_" class="st11">
		<path id="XMLID_193_" class="st25" d="M573.6,6.5l1.1,0l0-1.1c0-0.3,0.2-0.5,0.5-0.5c0.3,0,0.5,0.2,0.5,0.5l0,1.1l1.1,0
			c0.3,0,0.5,0.2,0.5,0.5c0,0.3-0.2,0.5-0.5,0.5l-1.1,0l0,1.1c0,0.3-0.2,0.5-0.5,0.5c-0.3,0-0.5-0.2-0.5-0.5l0-1.1l-1.1,0
			c-0.3,0-0.5-0.2-0.5-0.5C573.1,6.7,573.3,6.5,573.6,6.5L573.6,6.5z M573.6,6.5"/>
	</g>
	<g id="XMLID_188_" class="st11">
		<path id="XMLID_189_" class="st26" d="M647.7,24.8l1.9,0l0-1.9c0-0.5,0.4-0.9,0.9-0.9c0.5,0,0.9,0.4,0.9,0.9l0,1.9l1.9,0
			c0.5,0,0.9,0.4,0.9,0.9c0,0.5-0.4,0.9-0.9,0.9l-1.9,0l0,1.9c0,0.5-0.4,0.9-0.9,0.9c-0.5,0-0.9-0.4-0.9-0.9l0-1.9l-1.9,0
			c-0.5,0-0.9-0.4-0.9-0.9C646.8,25.2,647.2,24.8,647.7,24.8L647.7,24.8z M647.7,24.8"/>
	</g>
	<g id="XMLID_101_" class="st11">
		<path id="XMLID_102_" class="st24" d="M637.8,62.2c-1.6,0-2.9-1.3-2.9-2.9c0-1.6,1.3-2.9,2.9-2.9c1.6,0,2.9,1.3,2.9,2.9
			C640.7,60.9,639.4,62.2,637.8,62.2z M637.8,57.4c-1.1,0-1.9,0.9-1.9,1.9c0,1.1,0.9,1.9,1.9,1.9c1.1,0,1.9-0.9,1.9-1.9
			C639.8,58.3,638.9,57.4,637.8,57.4z"/>
	</g>
	<g id="XMLID_97_" class="st11">
		<path id="XMLID_98_" class="st24" d="M501.9,28.1c-2,0-3.5-1.6-3.5-3.5s1.6-3.5,3.5-3.5s3.5,1.6,3.5,3.5S503.8,28.1,501.9,28.1z
			 M501.9,22.4c-1.2,0-2.1,1-2.1,2.1c0,1.2,1,2.1,2.1,2.1c1.2,0,2.1-1,2.1-2.1C504,23.3,503,22.4,501.9,22.4z"/>
	</g>
	<g id="XMLID_93_" class="st11">
		<path id="XMLID_94_" class="st27" d="M557.8-13c-1.5,0-2.8-1.2-2.8-2.8c0-1.5,1.2-2.8,2.8-2.8s2.8,1.2,2.8,2.8
			C560.6-14.2,559.3-13,557.8-13z M557.8-17.5c-1,0-1.8,0.8-1.8,1.8s0.8,1.8,1.8,1.8s1.8-0.8,1.8-1.8S558.8-17.5,557.8-17.5z"/>
	</g>
	<g id="XMLID_89_" class="st11">
		<path id="XMLID_90_" class="st25" d="M516.5,88.7c-1.5,0-2.8-1.2-2.8-2.8c0-1.5,1.2-2.8,2.8-2.8c1.5,0,2.8,1.2,2.8,2.8
			C519.2,87.5,518,88.7,516.5,88.7z M516.5,84.2c-0.9,0-1.7,0.8-1.7,1.7c0,0.9,0.8,1.7,1.7,1.7c0.9,0,1.7-0.8,1.7-1.7
			C518.2,85,517.4,84.2,516.5,84.2z"/>
	</g>
	<g id="XMLID_27_" class="st11">
		<g id="XMLID_83_">
			<g id="XMLID_84_">
				<path id="XMLID_88_" class="st27" d="M623-12.1c-0.1,0-0.2,0-0.3-0.1l-1.8-1.8c-0.2-0.2-0.2-0.4,0-0.6c0.2-0.2,0.4-0.2,0.6,0
					l1.8,1.8c0.2,0.2,0.2,0.4,0,0.6C623.2-12.2,623.1-12.1,623-12.1z"/>
				<path id="XMLID_85_" class="st27" d="M623-11.9c-0.2,0-0.3-0.1-0.5-0.2l-1.8-1.8c-0.3-0.3-0.3-0.7,0-0.9c0.3-0.3,0.7-0.3,0.9,0
					l1.8,1.8c0.3,0.3,0.3,0.7,0,0.9C623.3-12,623.2-11.9,623-11.9z M621.2-14.6c0,0-0.1,0-0.1,0.1c-0.1,0.1-0.1,0.2,0,0.3l1.8,1.8
					c0.1,0.1,0.2,0.1,0.3,0c0.1-0.1,0.1-0.2,0-0.3l-1.8-1.8C621.3-14.6,621.2-14.6,621.2-14.6z"/>
			</g>
		</g>
		<g id="XMLID_40_">
			<g id="XMLID_79_">
				<path id="XMLID_151_" class="st27" d="M623.4-9c0,0.1,0,0.2-0.1,0.3l-1.9,1.8c-0.2,0.2-0.4,0.2-0.6,0s-0.2-0.4,0-0.6l1.9-1.8
					c0.2-0.2,0.4-0.2,0.6,0C623.4-9.3,623.4-9.2,623.4-9z"/>
				<path id="XMLID_80_" class="st27" d="M621.2-6.6c-0.2,0-0.3-0.1-0.5-0.2c-0.3-0.3-0.2-0.7,0-0.9l1.9-1.8c0.3-0.3,0.7-0.2,0.9,0
					c0.1,0.1,0.2,0.3,0.2,0.5l0,0c0,0.2-0.1,0.3-0.2,0.5l-1.9,1.8C621.5-6.6,621.3-6.6,621.2-6.6z M623-9.2c0,0-0.1,0-0.1,0.1
					L621-7.4c-0.1,0.1-0.1,0.2,0,0.3c0,0,0.1,0.1,0.1,0.1c0.1,0,0.1,0,0.1-0.1l1.9-1.8c0,0,0.1-0.1,0.1-0.1v0c0,0,0-0.1-0.1-0.1
					C623.1-9.2,623.1-9.2,623-9.2z"/>
			</g>
		</g>
		<g id="XMLID_34_">
			<g id="XMLID_35_">
				<path id="XMLID_39_" class="st27" d="M628.8-14.5c0,0.1,0,0.2-0.1,0.3l-1.9,1.8c-0.2,0.2-0.4,0.2-0.6,0c-0.2-0.2-0.2-0.4,0-0.6
					l1.9-1.8c0.2-0.2,0.4-0.2,0.6,0C628.8-14.7,628.8-14.6,628.8-14.5z"/>
				<path id="XMLID_36_" class="st27" d="M626.6-12c-0.2,0-0.3-0.1-0.5-0.2c-0.3-0.3-0.2-0.7,0-0.9l1.9-1.8c0.3-0.2,0.7-0.2,0.9,0
					c0.1,0.1,0.2,0.3,0.2,0.5l0,0c0,0.2-0.1,0.3-0.2,0.5l-1.9,1.8C626.9-12,626.7-12,626.6-12z M628.4-14.6c0,0-0.1,0-0.1,0.1
					l-1.9,1.8c-0.1,0.1-0.1,0.2,0,0.3c0,0,0.1,0.1,0.1,0.1c0.1,0,0.1,0,0.1-0.1l1.9-1.8c0,0,0.1-0.1,0.1-0.1v0c0,0,0-0.1-0.1-0.1
					C628.5-14.6,628.5-14.6,628.4-14.6z"/>
			</g>
		</g>
		<g id="XMLID_28_">
			<g id="XMLID_29_">
				<path id="XMLID_33_" class="st27" d="M628.5-6.8c-0.1,0-0.2,0-0.3-0.1l-1.8-1.8c-0.2-0.2-0.2-0.4,0-0.6c0.2-0.2,0.4-0.2,0.6,0
					l1.8,1.8c0.2,0.2,0.2,0.4,0,0.6C628.7-6.8,628.6-6.8,628.5-6.8z"/>
				<path id="XMLID_30_" class="st27" d="M628.5-6.6c-0.2,0-0.3-0.1-0.5-0.2l-1.8-1.8c-0.1-0.1-0.2-0.3-0.2-0.5
					c0-0.2,0.1-0.3,0.2-0.5c0.2-0.2,0.7-0.2,0.9,0l1.8,1.8c0.1,0.1,0.2,0.3,0.2,0.5c0,0.2-0.1,0.3-0.2,0.5
					C628.8-6.6,628.6-6.6,628.5-6.6z M626.6-9.2c0,0-0.1,0-0.1,0.1c0,0-0.1,0.1-0.1,0.1c0,0,0,0.1,0.1,0.1l1.8,1.8
					c0.1,0.1,0.2,0.1,0.3,0c0,0,0.1-0.1,0.1-0.1c0,0,0-0.1-0.1-0.1l-1.8-1.8C626.7-9.2,626.7-9.2,626.6-9.2z"/>
			</g>
		</g>
	</g>
	<g id="XMLID_21_" class="st11">
		<g id="XMLID_22_">
			<path id="XMLID_26_" class="st24" d="M506.5,63.1c-0.1-0.1-0.1-0.1-0.1-0.2l0-2.1c0-0.2,0.1-0.3,0.3-0.3s0.3,0.1,0.3,0.3l0,2.1
				c0,0.2-0.1,0.3-0.3,0.3C506.7,63.2,506.6,63.1,506.5,63.1z"/>
			<path id="XMLID_23_" class="st24" d="M506.8,63.5c-0.2,0-0.3-0.1-0.4-0.2l0,0c-0.1-0.1-0.2-0.3-0.2-0.4l0-2.1
				c0-0.3,0.3-0.6,0.6-0.6c0.3,0,0.6,0.3,0.6,0.6l0,2.1C507.4,63.2,507.1,63.5,506.8,63.5z M506.7,62.9
				C506.8,62.9,506.8,62.9,506.7,62.9l0.1-2.1c0,0-0.1,0-0.1,0L506.7,62.9C506.7,62.9,506.7,62.9,506.7,62.9z"/>
		</g>
	</g>
	<g id="XMLID_15_" class="st11">
		<g id="XMLID_16_">
			<path id="XMLID_20_" class="st24" d="M505,65.1c-0.1,0.1-0.1,0.1-0.2,0.1l-2.1,0c-0.2,0-0.3-0.2-0.3-0.3c0-0.2,0.2-0.3,0.3-0.3
				l2.1,0c0.2,0,0.3,0.2,0.3,0.3C505.1,64.9,505.1,65,505,65.1z"/>
			<path id="XMLID_17_" class="st24" d="M504.8,65.5C504.8,65.5,504.8,65.5,504.8,65.5l-2.1,0c-0.3,0-0.6-0.3-0.6-0.6
				c0-0.3,0.3-0.6,0.6-0.6c0,0,0,0,0,0l2.1,0c0.2,0,0.3,0.1,0.4,0.2c0.1,0.1,0.2,0.3,0.2,0.4c0,0.2-0.1,0.3-0.2,0.4l0,0
				C505.1,65.4,504.9,65.5,504.8,65.5z M502.7,64.8C502.7,64.8,502.7,64.8,502.7,64.8C502.7,64.9,502.7,64.9,502.7,64.8l2.1,0.1
				c0,0,0,0,0,0c0,0,0,0,0,0c0,0,0,0,0,0L502.7,64.8C502.7,64.8,502.7,64.8,502.7,64.8z"/>
		</g>
	</g>
	<g id="XMLID_9_" class="st11">
		<g id="XMLID_10_">
			<path id="XMLID_14_" class="st24" d="M511.1,65.1c-0.1,0.1-0.1,0.1-0.2,0.1l-2.1,0c-0.2,0-0.3-0.2-0.3-0.3c0-0.2,0.2-0.3,0.3-0.3
				l2.1,0c0.2,0,0.3,0.2,0.3,0.3C511.2,64.9,511.2,65,511.1,65.1z"/>
			<path id="XMLID_11_" class="st24" d="M510.9,65.5C510.9,65.5,510.9,65.5,510.9,65.5l-2.1,0c-0.2,0-0.3-0.1-0.4-0.2
				c-0.1-0.1-0.2-0.3-0.2-0.4c0-0.3,0.3-0.6,0.6-0.6c0,0,0,0,0,0l2.1,0c0.3,0,0.6,0.3,0.6,0.6c0,0.2-0.1,0.3-0.2,0.4l0,0
				C511.2,65.4,511.1,65.5,510.9,65.5z M508.8,64.8C508.8,64.8,508.8,64.8,508.8,64.8C508.8,64.9,508.8,64.9,508.8,64.8l2.1,0.1
				c0,0,0,0,0,0c0,0,0,0,0,0c0,0,0,0,0,0L508.8,64.8C508.8,64.8,508.8,64.8,508.8,64.8z"/>
		</g>
	</g>
	<g id="XMLID_109_" class="st11">
		<g id="XMLID_4_">
			<path id="XMLID_8_" class="st24" d="M506.6,69.2c-0.1-0.1-0.1-0.1-0.1-0.2l0-2.1c0-0.2,0.1-0.3,0.3-0.3s0.3,0.1,0.3,0.3l0,2.1
				c0,0.2-0.1,0.3-0.3,0.3C506.7,69.3,506.7,69.3,506.6,69.2z"/>
			<path id="XMLID_5_" class="st24" d="M506.8,69.6c-0.2,0-0.3-0.1-0.4-0.2l0,0c-0.1-0.1-0.2-0.3-0.2-0.4l0-2.1
				c0-0.3,0.3-0.6,0.6-0.6s0.6,0.3,0.6,0.6l0,2.1C507.5,69.3,507.2,69.6,506.8,69.6z M506.8,69C506.8,69,506.9,69,506.8,69l0.1-2.1
				c0,0-0.1,0-0.1,0L506.8,69C506.8,69,506.8,69,506.8,69L506.8,69z"/>
		</g>
	</g>
	<g id="XMLID_63_" class="st11">
		<path id="XMLID_106_" class="st28" d="M551,101.9c0.1,0,0.2,0.1,0.2,0.2c0,0.1-0.1,0.2-0.1,0.3c0,0,0,0-0.1,0
			c-0.1,0-0.1,0-0.2-0.1c-0.1,0-0.1,0-0.2-0.1c-0.1,0-0.2-0.1-0.3-0.1c-0.1-0.1-0.3-0.1-0.4-0.2c-0.1-0.1-0.3-0.1-0.4-0.2
			c-0.2-0.1-0.3-0.2-0.5-0.2c0,0,0,0-0.1,0c-0.3-0.2-0.7-0.3-1-0.5c-0.3-0.1-0.5-0.2-0.8-0.3c-0.2-0.1-0.3-0.1-0.5-0.1
			c-0.1,0-0.2,0.1-0.3,0.2c-0.2,0.1-0.2-0.4-0.2-0.5c0-0.2,0-0.3,0-0.5c0-0.1,0-0.3,0-0.4c0-0.1,0-0.3,0.1-0.3
			c0.1-0.1,0.3-0.1,0.4-0.1c0.2,0,0.4-0.1,0.6-0.1c0.1,0,0.2,0,0.3,0c0.4,0,0.7,0,1.1,0c0.2,0,0.5,0,0.7,0c0.6,0,1-0.1,1.2-0.2
			c0.1,0,0.1-0.1,0.1-0.1c0-0.1,0-0.2-0.1-0.2c0,0-0.1-0.1-0.1-0.1c0,0,0-0.1,0-0.1c0,0,0.1,0,0.1-0.1c0,0,0.1-0.1,0.1,0
			c0,0,0.1,0.1,0.1,0.1c0,0,0.1,0.1,0.1,0.1c0.1,0.1,0.1,0.2,0.2,0.3c0,0,0.1,0.1,0.1,0.1c0.1,0.2,0.2,0.4,0.2,0.6
			c0,0.1,0,0.2-0.1,0.3c0,0.1-0.1,0.2-0.2,0.2c-0.2,0.2-0.5,0.2-0.8,0.2c-0.1,0-0.2,0-0.3,0c-0.1,0-0.1,0-0.2,0c-0.1,0-0.1,0-0.2,0
			c0,0-0.1,0.1-0.1,0.1c0,0.3,0,0.6,0,1c0,0.1,0,0.3,0.1,0.4c0.1,0.1,0.2,0.1,0.3,0.1c0.1,0.1,0.2,0.1,0.4,0.1
			c0.1,0,0.1,0.1,0.2,0.1c0.1,0,0.2,0.1,0.3,0.1C550.9,101.8,551,101.9,551,101.9z M549,99.9l-0.8,0c-0.7,0-1.2,0-1.5,0.1
			c0,0,0,0.1,0,0.1c0.4,0.1,0.7,0.3,0.9,0.4c0.3,0.1,0.5,0.2,0.8,0.4c0.3,0.1,0.5,0.2,0.5,0.3V99.9z"/>
		<path id="XMLID_104_" class="st28" d="M548,97.8C548,97.8,548,97.7,548,97.8c0-0.2,0-0.2-0.1-0.3c0-0.2,0-0.3,0-0.5
			c0-0.1,0-0.2,0-0.3c0,0,0-0.1,0-0.1c0,0,0.1,0,0.1,0c0,0,0.1,0,0.1,0c0,0,0.1,0,0.1,0c0,0,0,0,0.1,0c0,0,0,0,0.1,0
			c-0.3-0.4-0.5-0.7-0.5-0.9c0-0.2,0.1-0.4,0.3-0.6c0.2-0.2,0.5-0.2,0.9-0.2c0.7,0,1.2,0.1,1.6,0.4c0.3,0.2,0.5,0.6,0.5,1
			c0,0.1,0,0.3-0.1,0.4c0,0.1,0,0.1-0.1,0.1c0,0-0.1,0-0.1,0c0,0,0-0.1,0-0.1c0,0,0-0.1-0.1-0.1c0-0.1-0.1-0.1-0.2-0.2
			c-0.1-0.1-0.3-0.2-0.5-0.3c-0.4-0.2-0.9-0.3-1.3-0.1c-0.1,0-0.3,0.1-0.3,0.2c0,0.1,0,0.2,0.1,0.3c0.2,0.2,0.5,0.3,0.8,0.3
			c0.4,0.1,0.8,0.1,1.2,0.2c0.3,0.1,0.5,0.1,0.8,0.1c0.2,0,0.5,0.1,0.7,0.1c0.1,0,0.1,0,0.2,0c0,0,0.1,0,0.1,0c0,0.1,0,0.1,0.1,0.2
			c0,0.1,0,0.2,0.1,0.3c0,0.1,0,0.1,0,0.2c0,0.1,0,0.1,0,0.2c0,0,0,0.1,0,0.1c0,0,0,0,0,0c0,0-0.1,0-0.1,0c-0.1,0-0.1,0-0.2,0
			c-0.1,0-0.2,0-0.4,0c-0.1,0-0.2,0-0.3-0.1c-0.1,0-0.3-0.1-0.4-0.1c-0.2,0-0.3-0.1-0.5-0.1c0,0,0,0-0.1,0c-0.9-0.2-1.5-0.3-2-0.3
			c-0.1,0-0.2,0-0.3,0.1c-0.1,0-0.1,0.1-0.2,0.1c0,0-0.1,0-0.1,0.1C548.2,97.9,548.1,97.9,548,97.8C548.1,97.9,548.1,97.8,548,97.8z
			"/>
		<path id="XMLID_77_" class="st28" d="M550.2,88.8c0.3,0,0.6,0.1,0.7,0.4c0.1,0.1,0.1,0.2,0.2,0.3c0,0.1,0,0.1,0.1,0.2
			c0,0.1,0.1,0.3,0.1,0.4c0,0.3,0,0.6-0.2,0.9c-0.1,0.2-0.4,0.3-0.6,0.2c-0.2-0.1-0.4-0.4-0.3-0.6c0-0.3,0.3-0.4,0.5-0.5
			c0,0,0.1,0,0.1-0.1c0.1,0,0.1-0.1,0.1-0.1c0-0.1-0.1-0.1-0.2-0.2c0,0-0.1,0-0.1,0c-0.2,0-0.5,0.2-0.9,0.6c-0.4,0.4-0.7,0.6-1,0.6
			c-0.2,0-0.4-0.1-0.6-0.3c-0.1-0.2-0.2-0.5-0.2-0.8c0-0.3,0.1-0.5,0.2-0.7c0.1-0.2,0.3-0.2,0.4-0.2c0.2,0,0.4,0.1,0.8,0.4
			c0,0,0.1-0.1,0.1-0.1c0.1-0.1,0.2-0.1,0.3-0.2C549.9,88.8,550.1,88.8,550.2,88.8z M548.5,89.1c-0.2,0-0.3,0.1-0.3,0.3
			c0,0.1,0,0.2,0.1,0.3c0,0.1,0.1,0.1,0.2,0.1c0.1,0,0.3-0.1,0.4-0.3l0.1-0.1C548.9,89.3,548.7,89.1,548.5,89.1z"/>
		<path id="XMLID_75_" class="st28" d="M551.2,86.7c0,0.4-0.2,0.8-0.5,1.1c-0.4,0.3-0.8,0.4-1.4,0.4c-0.6,0-1.1-0.1-1.6-0.3
			c-0.5-0.2-0.9-0.5-1.2-0.9c-0.3-0.4-0.5-0.8-0.5-1.2c0-0.4,0.1-0.8,0.3-1c0.2-0.3,0.4-0.4,0.7-0.4c0.1,0,0.3,0,0.4,0.1
			c0.1,0,0.2,0.1,0.2,0.1c0.1,0.1,0.1,0.2,0,0.3c0,0.1,0,0.2-0.1,0.3c0,0.1-0.1,0.3-0.2,0.4c-0.1,0.1-0.2,0.1-0.3,0
			c-0.1,0-0.1,0-0.2,0c-0.1,0-0.1,0-0.2,0c-0.1,0-0.2,0-0.2,0.1c0,0.1,0,0.2,0,0.3c0,0.3,0.3,0.6,0.8,0.8c0.5,0.2,1.1,0.3,1.9,0.3
			c0.5,0,0.8-0.1,1.1-0.2c0.2-0.2,0.3-0.4,0.3-0.6c0-0.1,0-0.3-0.1-0.4c-0.1-0.2-0.1-0.3-0.3-0.4c0,0-0.1-0.1-0.1-0.1
			c0,0-0.1,0-0.1-0.1c0,0,0-0.1,0-0.1c0,0,0.1-0.1,0.1-0.1c0,0,0.1-0.1,0.1,0c0,0,0.1,0.1,0.1,0.1c0.1,0.1,0.1,0.1,0.2,0.2
			c0.1,0.1,0.2,0.3,0.3,0.4c0.1,0.1,0.2,0.3,0.2,0.5C551.2,86.3,551.2,86.5,551.2,86.7z"/>
		<path id="XMLID_72_" class="st28" d="M551.2,83.5c0,0.3-0.1,0.6-0.4,0.8c-0.2,0.2-0.6,0.3-1,0.3c-0.5,0-1-0.1-1.4-0.4
			c-0.4-0.3-0.6-0.7-0.6-1.2l0-0.3c0-0.1-0.1-0.2-0.1-0.3c0-0.4,0.4-0.6,1.1-0.6c0-0.2,0-0.4-0.1-0.6l0-0.1l0.3,0
			c0.1,0.2,0.1,0.4,0.2,0.6l0,0.1c0.5,0.1,0.9,0.3,1.3,0.6C551,82.7,551.2,83,551.2,83.5z M550.6,83.1c0-0.2-0.1-0.4-0.4-0.5
			c-0.3-0.2-0.5-0.3-0.8-0.3c0,0.5-0.2,0.8-0.6,0.8c-0.2,0-0.3,0-0.4-0.1l-0.1,0c0,0,0,0,0,0.1s0,0.1,0,0.1c0.1,0.1,0.3,0.2,0.5,0.3
			s0.6,0.2,1,0.2C550.3,83.5,550.6,83.4,550.6,83.1z"/>
		<path id="XMLID_69_" class="st28" d="M550.7,78.1C550.7,78.1,550.7,78.1,550.7,78.1c0.1,0.1,0.1,0.1,0.2,0.2
			c0.1,0.1,0.1,0.2,0.2,0.3c0.1,0.1,0.1,0.3,0.2,0.4c0,0.1,0,0.1,0,0.2c0,0.3-0.2,0.5-0.5,0.5c0.1,0.1,0.3,0.3,0.3,0.5
			c0.1,0.2,0.1,0.3,0.1,0.5c0,0.2-0.1,0.4-0.3,0.6c-0.2,0.2-0.5,0.2-0.9,0.2c-0.6,0-1.1-0.1-1.5-0.4c-0.4-0.3-0.5-0.6-0.5-0.9
			c0-0.3,0.1-0.6,0.2-0.9c-0.3-0.1-0.6-0.1-0.9-0.1c-0.2,0-0.5-0.1-0.7-0.1c-0.2,0-0.3,0-0.5,0c-0.1,0-0.1,0-0.2-0.1
			c0,0,0-0.1,0-0.1c0-0.1-0.1-0.2-0.1-0.4c0-0.1,0-0.1,0-0.2c0-0.1-0.1-0.3,0.1-0.3c0.2,0,0.4,0,0.7,0c0.1,0,0.3,0,0.4,0.1
			c0.2,0,0.4,0.1,0.5,0.1c0.2,0,0.4,0.1,0.6,0.1c0,0,0.1,0,0.1,0c1.1,0.2,1.8,0.3,2.2,0.3c0.1,0,0.2,0,0.2-0.1c0,0,0-0.1,0-0.1
			c0,0,0-0.1-0.1-0.1c0,0-0.1-0.1-0.1-0.1c0,0,0-0.1,0-0.1c0,0,0.1,0,0.1-0.1C550.6,78.1,550.7,78.1,550.7,78.1z M548.4,79.8
			c0,0.2,0.2,0.3,0.5,0.4c0.3,0.1,0.7,0.2,1,0.2c0.3,0,0.5,0,0.6-0.1c0.1,0,0.1-0.1,0.1-0.2c0-0.2-0.1-0.3-0.2-0.5
			c-0.2,0-0.8-0.1-1.9-0.3C548.4,79.5,548.4,79.7,548.4,79.8z"/>
		<path id="XMLID_66_" class="st28" d="M549.9,77.9c-0.6,0-1.1-0.2-1.4-0.5c-0.4-0.4-0.5-0.8-0.5-1.2c0-0.3,0.1-0.5,0.2-0.7
			c0.1-0.2,0.3-0.3,0.6-0.3c0.2,0,0.4,0.1,0.6,0.2c0.2,0.1,0.3,0.3,0.4,0.4c0.2,0.3,0.3,0.7,0.3,0.9l0,0.2c0.5,0,0.7-0.2,0.7-0.6
			c0-0.1,0-0.2-0.1-0.4c0-0.1,0-0.1-0.1-0.2c0-0.1-0.1-0.1-0.1-0.2c0,0-0.1-0.1,0-0.1c0,0,0.1-0.1,0.1-0.1c0,0,0.1-0.1,0.1,0
			c0,0,0.1,0,0.1,0.1c0,0,0.1,0.1,0.1,0.2c0.1,0.1,0.2,0.2,0.2,0.3c0.2,0.3,0.2,0.6,0.2,0.9s-0.1,0.6-0.4,0.8
			C550.6,77.8,550.3,77.9,549.9,77.9z M549.3,76.3c-0.2-0.1-0.4-0.2-0.6-0.2c-0.3,0-0.4,0.1-0.4,0.2c0,0.2,0.2,0.3,0.5,0.4
			c0.3,0.1,0.6,0.1,0.9,0.1C549.6,76.6,549.5,76.4,549.3,76.3z"/>
		<path id="XMLID_64_" class="st28" d="M548,94.3C548,94.3,548,94.3,548,94.3c0-0.2,0-0.2-0.1-0.3c0-0.2,0-0.3,0-0.5
			c0-0.1,0-0.2,0-0.3c0,0,0-0.1,0-0.1c0,0,0.1,0,0.1,0c0,0,0.1,0,0.1,0c0,0,0.1,0,0.1,0c0,0,0,0,0.1,0c0,0,0,0,0.1,0
			c-0.3-0.4-0.5-0.7-0.5-0.9c0-0.2,0.1-0.4,0.3-0.6c0.2-0.2,0.5-0.2,0.9-0.2c0.7,0,1.2,0.1,1.6,0.4c0.3,0.2,0.5,0.6,0.5,1
			c0,0.1,0,0.3-0.1,0.4c0,0.1,0,0.1-0.1,0.1c0,0-0.1,0-0.1,0c0,0,0-0.1,0-0.1c0,0,0-0.1-0.1-0.1c0-0.1-0.1-0.1-0.2-0.2
			c-0.1-0.1-0.3-0.2-0.5-0.3c-0.4-0.2-0.9-0.3-1.3-0.1c-0.1,0-0.3,0.1-0.3,0.2c0,0.1,0,0.2,0.1,0.3c0.2,0.2,0.5,0.3,0.8,0.3
			c0.4,0.1,0.8,0.1,1.2,0.2c0.3,0.1,0.5,0.1,0.8,0.1c0.2,0,0.5,0.1,0.7,0.1c0.1,0,0.1,0,0.2,0c0,0,0.1,0,0.1,0c0,0.1,0,0.1,0.1,0.2
			c0,0.1,0,0.2,0.1,0.3c0,0.1,0,0.1,0,0.2c0,0.1,0,0.1,0,0.2c0,0,0,0.1,0,0.1c0,0,0,0,0,0c0,0-0.1,0-0.1,0c-0.1,0-0.1,0-0.2,0
			c-0.1,0-0.2,0-0.4,0c-0.1,0-0.2,0-0.3-0.1c-0.1,0-0.3-0.1-0.4-0.1c-0.2,0-0.3-0.1-0.5-0.1c0,0,0,0-0.1,0c-0.9-0.2-1.5-0.3-2-0.3
			c-0.1,0-0.2,0-0.3,0.1c-0.1,0-0.1,0.1-0.2,0.1c0,0-0.1,0-0.1,0.1C548.2,94.4,548.1,94.4,548,94.3C548.1,94.4,548.1,94.4,548,94.3z
			"/>
	</g>
	<g id="XMLID_41_" class="st11">
		<path id="XMLID_60_" class="st29" d="M566.5,50.6c0,0.1-0.2,0.2-0.3,0.2c-0.2,0-0.3-0.1-0.5-0.2c0,0-0.1-0.1-0.1-0.1
			c0-0.1,0-0.1,0.1-0.2c0-0.1,0.1-0.1,0.1-0.2c0.1-0.2,0.1-0.3,0.2-0.5c0.1-0.2,0.2-0.4,0.2-0.5c0.1-0.2,0.2-0.4,0.3-0.6
			c0.1-0.2,0.2-0.5,0.3-0.7c0,0,0-0.1,0-0.1c0.2-0.5,0.5-0.9,0.7-1.4c0.2-0.4,0.3-0.7,0.4-1.1c0.1-0.2,0.2-0.5,0.2-0.7
			c0-0.2-0.2-0.3-0.2-0.4c-0.1-0.3,0.6-0.3,0.7-0.3c0.2,0,0.5-0.1,0.7-0.1c0.2,0,0.4,0,0.6,0c0.2,0,0.3,0,0.5,0.1
			c0.2,0.1,0.2,0.4,0.2,0.5c0,0.3,0.1,0.6,0.1,0.8c0,0.2,0,0.3,0,0.5c0,0.5,0,1,0,1.5c0,0.3,0,0.7,0,1c0,0.8,0.1,1.4,0.2,1.7
			c0.1,0.1,0.1,0.2,0.2,0.2c0.1,0,0.2,0,0.3-0.1c0.1,0,0.1-0.1,0.2-0.1c0.1,0,0.1-0.1,0.2,0c0,0,0.1,0.1,0.1,0.2
			c0,0,0.1,0.1,0.1,0.1c0,0.1-0.1,0.1-0.1,0.1c-0.1,0-0.1,0.1-0.2,0.1c-0.1,0.1-0.2,0.2-0.3,0.2c-0.1,0-0.1,0.1-0.2,0.1
			c-0.3,0.1-0.6,0.2-0.9,0.2c-0.1,0-0.3,0-0.4-0.1c-0.1,0-0.2-0.1-0.3-0.2c-0.2-0.3-0.3-0.7-0.3-1.1c0-0.1,0-0.3,0-0.4
			c0-0.1,0-0.2,0-0.3c0-0.1,0.1-0.2,0-0.3c0-0.1-0.1-0.1-0.2-0.1c-0.4,0-0.9,0-1.3,0c-0.2,0-0.4,0-0.5,0.1c-0.1,0.1-0.1,0.3-0.2,0.4
			c-0.1,0.2-0.1,0.3-0.2,0.5c0,0.1-0.1,0.2-0.1,0.3c0,0.1-0.1,0.2-0.1,0.4C566.5,50.3,566.5,50.5,566.5,50.6z M569.2,47.8l0-1.2
			c0-1,0-1.7-0.1-2.1c-0.1,0-0.1,0-0.1,0c-0.2,0.5-0.4,0.9-0.5,1.3c-0.2,0.4-0.3,0.7-0.5,1.1c-0.2,0.4-0.3,0.7-0.4,0.8H569.2z"/>
		<path id="XMLID_58_" class="st29" d="M572.1,46.5c0,0,0.1,0,0.1,0c0.1,0,0.2,0,0.2,0c0.2,0,0.4,0,0.7,0c0.1,0,0.3,0,0.4,0
			c0,0,0.1,0,0.1,0c0,0,0,0.1,0,0.1c0,0,0,0.1,0,0.1c0,0,0,0.1,0,0.1c0,0,0,0.1,0,0.1c0,0,0,0.1,0,0.1c0.5-0.4,0.9-0.6,1.3-0.6
			c0.3,0,0.6,0.1,0.8,0.4c0.2,0.3,0.3,0.7,0.3,1.3c0,1-0.2,1.7-0.5,2.2c-0.3,0.5-0.8,0.7-1.4,0.7c-0.2,0-0.4,0-0.6-0.1
			c-0.1,0-0.2-0.1-0.2-0.1c0-0.1,0-0.1,0.1-0.2c0,0,0.1,0,0.1-0.1c0,0,0.1-0.1,0.1-0.1c0.1-0.1,0.2-0.1,0.3-0.2
			c0.2-0.2,0.3-0.4,0.5-0.7c0.2-0.5,0.4-1.2,0.2-1.8c-0.1-0.2-0.2-0.3-0.3-0.4c-0.1,0-0.3,0-0.4,0.1c-0.3,0.3-0.4,0.7-0.4,1.1
			c-0.1,0.6-0.2,1.1-0.3,1.7c-0.1,0.4-0.1,0.7-0.2,1.1c0,0.3-0.1,0.7-0.1,1c0,0.1,0,0.2,0,0.3c0,0.1,0,0.1-0.1,0.2
			c-0.1,0.1-0.2,0.1-0.2,0.1c-0.1,0-0.3,0.1-0.4,0.1c-0.1,0-0.2,0-0.2,0c-0.1,0-0.2,0-0.3,0c-0.1,0-0.1,0-0.2,0c0,0,0,0,0,0
			c-0.1,0-0.1-0.1-0.1-0.2c0-0.1,0-0.2,0-0.3c0-0.2,0-0.3,0.1-0.5c0-0.1,0-0.3,0.1-0.4c0-0.2,0.1-0.4,0.1-0.6c0-0.2,0.1-0.4,0.1-0.7
			c0,0,0-0.1,0-0.1c0.3-1.2,0.4-2.1,0.4-2.8c0-0.1,0-0.3-0.1-0.4c0-0.1-0.1-0.2-0.1-0.3c0,0-0.1-0.1-0.1-0.1
			C572,46.6,572,46.6,572.1,46.5C572,46.5,572,46.5,572.1,46.5z"/>
		<path id="XMLID_55_" class="st29" d="M584.6,49.4c0,0.4-0.2,0.8-0.6,1c-0.1,0.1-0.3,0.2-0.4,0.2c-0.1,0-0.2,0.1-0.3,0.1
			c-0.2,0.1-0.4,0.1-0.6,0.1c-0.4,0-0.9,0-1.2-0.3c-0.3-0.2-0.4-0.5-0.2-0.8c0.2-0.3,0.5-0.5,0.8-0.4c0.3,0.1,0.5,0.4,0.6,0.7
			c0,0.1,0,0.1,0.1,0.2c0,0.1,0.1,0.2,0.2,0.1c0.1,0,0.2-0.1,0.2-0.2c0,0,0-0.1,0-0.1c0-0.3-0.3-0.7-0.8-1.3c-0.5-0.6-0.8-1-0.8-1.3
			c0-0.3,0.1-0.6,0.5-0.8c0.3-0.2,0.7-0.3,1.1-0.3c0.4,0,0.7,0.1,1,0.2c0.2,0.2,0.3,0.4,0.3,0.6c0,0.3-0.2,0.6-0.6,1.1
			c0,0,0.1,0.1,0.2,0.2c0.1,0.1,0.2,0.2,0.3,0.4S584.6,49.2,584.6,49.4z M584,47.1c0-0.2-0.2-0.4-0.5-0.4c-0.2,0-0.3,0-0.4,0.1
			c-0.1,0.1-0.2,0.1-0.2,0.2c0,0.1,0.1,0.4,0.4,0.6l0.2,0.1C583.9,47.6,584,47.4,584,47.1z"/>
		<path id="XMLID_53_" class="st29" d="M587.4,50.8c-0.6,0-1.1-0.3-1.5-0.8c-0.4-0.5-0.6-1.2-0.6-2c0-0.8,0.1-1.6,0.4-2.2
			c0.3-0.7,0.7-1.2,1.2-1.6c0.5-0.4,1.1-0.6,1.7-0.6c0.6,0,1.1,0.1,1.4,0.4c0.4,0.3,0.5,0.6,0.5,1c0,0.2,0,0.4-0.1,0.5
			c0,0.1-0.1,0.2-0.2,0.3c-0.1,0.1-0.2,0.1-0.4,0.1c-0.1,0-0.3-0.1-0.4-0.1c-0.2-0.1-0.3-0.1-0.5-0.2c-0.1-0.1-0.1-0.2-0.1-0.3
			c0-0.1,0-0.2,0.1-0.3c0-0.1,0-0.2,0.1-0.3c0-0.2,0-0.2-0.2-0.3c-0.1,0-0.3-0.1-0.4-0.1c-0.4,0-0.8,0.3-1.1,1
			c-0.3,0.7-0.5,1.6-0.5,2.6c0,0.7,0.1,1.2,0.3,1.5c0.2,0.3,0.5,0.5,0.8,0.5c0.2,0,0.4,0,0.6-0.1c0.2-0.1,0.4-0.2,0.6-0.3
			c0.1-0.1,0.1-0.1,0.2-0.2c0,0,0.1-0.1,0.1-0.1c0,0,0.1,0,0.1,0.1c0.1,0.1,0.1,0.1,0.2,0.2c0.1,0,0.1,0.1,0.1,0.2
			c0,0.1-0.1,0.1-0.1,0.1c-0.1,0.1-0.1,0.1-0.2,0.2c-0.2,0.2-0.4,0.3-0.6,0.5c-0.2,0.1-0.4,0.2-0.7,0.3
			C588,50.8,587.7,50.8,587.4,50.8z"/>
		<path id="XMLID_50_" class="st29" d="M591.9,50.8c-0.5,0-0.8-0.2-1.1-0.5c-0.3-0.3-0.4-0.8-0.4-1.4c0-0.7,0.2-1.4,0.6-1.9
			c0.4-0.5,0.9-0.8,1.6-0.8l0.4,0c0.1-0.1,0.2-0.1,0.4-0.1c0.5,0,0.8,0.5,0.8,1.5c0.3,0,0.6-0.1,0.8-0.1l0.2,0l0.1,0.4
			c-0.2,0.1-0.5,0.2-0.9,0.3l-0.2,0c-0.1,0.7-0.4,1.3-0.8,1.8C593,50.6,592.5,50.8,591.9,50.8z M592.4,50c0.3,0,0.5-0.2,0.8-0.5
			c0.2-0.4,0.4-0.7,0.5-1.1c-0.7,0-1.1-0.3-1.1-0.8c0-0.2,0-0.4,0.1-0.6l0-0.1c0,0-0.1,0-0.1,0s-0.1,0-0.1,0
			c-0.2,0.1-0.3,0.4-0.5,0.8c-0.1,0.4-0.2,0.8-0.2,1.4C591.8,49.6,592,50,592.4,50z"/>
		<path id="XMLID_47_" class="st29" d="M599.3,50.1C599.3,50.1,599.3,50.1,599.3,50.1c-0.1,0.1-0.2,0.2-0.3,0.2
			c-0.1,0.1-0.2,0.2-0.4,0.2c-0.2,0.1-0.4,0.2-0.6,0.2c-0.1,0-0.2,0-0.3,0c-0.4,0-0.7-0.2-0.7-0.6c-0.2,0.2-0.4,0.4-0.7,0.5
			c-0.2,0.1-0.5,0.2-0.7,0.2c-0.3,0-0.6-0.1-0.8-0.4c-0.2-0.3-0.3-0.7-0.3-1.3c0-0.9,0.2-1.6,0.6-2.1c0.4-0.5,0.8-0.8,1.3-0.8
			c0.5,0,0.9,0.1,1.2,0.3c0.1-0.4,0.1-0.8,0.2-1.2c0-0.3,0.1-0.6,0.1-1c0-0.2,0-0.4,0-0.7c0-0.1,0-0.2,0.1-0.2c0.1,0,0.1,0,0.2-0.1
			c0.2,0,0.3-0.1,0.5-0.1c0.1,0,0.2,0,0.3,0c0.1,0,0.3-0.1,0.4,0.1c0,0.3,0,0.6,0,0.9c0,0.2-0.1,0.4-0.1,0.6c0,0.2-0.1,0.5-0.1,0.7
			c-0.1,0.3-0.1,0.6-0.2,0.9c0,0,0,0.1,0,0.1c-0.3,1.5-0.4,2.5-0.4,3c0,0.2,0,0.2,0.1,0.2c0.1,0,0.1,0,0.2-0.1c0,0,0.1,0,0.1-0.1
			c0,0,0.1-0.1,0.1-0.1c0,0,0.1,0,0.1,0c0,0,0.1,0.1,0.1,0.1C599.3,50,599.3,50.1,599.3,50.1z M596.9,46.9c-0.2,0-0.4,0.2-0.6,0.7
			c-0.2,0.5-0.3,0.9-0.3,1.4c0,0.5,0,0.7,0.1,0.9c0.1,0.1,0.2,0.2,0.3,0.2c0.2,0,0.4-0.1,0.7-0.3c0-0.3,0.2-1.2,0.5-2.7
			C597.3,46.9,597.1,46.9,596.9,46.9z"/>
		<path id="XMLID_3_" class="st29" d="M599.5,49c0-0.8,0.3-1.5,0.8-2c0.5-0.5,1.1-0.7,1.7-0.7c0.4,0,0.7,0.1,1,0.3
			c0.3,0.2,0.4,0.5,0.4,0.8c0,0.3-0.1,0.6-0.2,0.8c-0.2,0.2-0.4,0.4-0.6,0.5c-0.5,0.2-0.9,0.4-1.3,0.4l-0.2,0c0,0.6,0.3,0.9,0.8,0.9
			c0.2,0,0.3,0,0.5-0.1c0.1,0,0.2-0.1,0.2-0.1c0.1,0,0.1-0.1,0.2-0.2c0.1,0,0.1-0.1,0.2,0c0,0,0.1,0.1,0.1,0.1c0,0,0.1,0.1,0.1,0.1
			c0,0-0.1,0.1-0.1,0.1c-0.1,0.1-0.1,0.1-0.2,0.2c-0.2,0.1-0.3,0.2-0.5,0.3c-0.4,0.2-0.8,0.3-1.3,0.3s-0.8-0.2-1.1-0.5
			C599.7,50,599.5,49.6,599.5,49z M601.8,48.2c0.2-0.2,0.3-0.5,0.3-0.9s-0.1-0.5-0.3-0.5c-0.3,0-0.4,0.2-0.6,0.6s-0.2,0.8-0.2,1.2
			C601.3,48.6,601.6,48.5,601.8,48.2z"/>
		<path id="XMLID_42_" class="st29" d="M576.9,46.5c0,0,0.1,0,0.1,0c0.1,0,0.2,0,0.2,0c0.2,0,0.4,0,0.7,0c0.1,0,0.3,0,0.4,0
			c0,0,0.1,0,0.1,0c0,0,0,0.1,0,0.1c0,0,0,0.1,0,0.1c0,0,0,0.1,0,0.1c0,0,0,0.1,0,0.1c0,0,0,0.1,0,0.1c0.5-0.4,0.9-0.6,1.3-0.6
			c0.3,0,0.6,0.1,0.8,0.4c0.2,0.3,0.3,0.7,0.3,1.3c0,1-0.2,1.7-0.5,2.2c-0.3,0.5-0.8,0.7-1.4,0.7c-0.2,0-0.4,0-0.6-0.1
			c-0.1,0-0.2-0.1-0.2-0.1c0-0.1,0-0.1,0.1-0.2c0,0,0.1,0,0.1-0.1c0,0,0.1-0.1,0.1-0.1c0.1-0.1,0.2-0.1,0.3-0.2
			c0.2-0.2,0.3-0.4,0.5-0.7c0.2-0.5,0.4-1.2,0.2-1.8c-0.1-0.2-0.2-0.3-0.3-0.4c-0.1,0-0.3,0-0.4,0.1c-0.3,0.3-0.4,0.7-0.4,1.1
			c-0.1,0.6-0.2,1.1-0.3,1.7c-0.1,0.4-0.1,0.7-0.2,1.1c0,0.3-0.1,0.7-0.1,1c0,0.1,0,0.2,0,0.3c0,0.1,0,0.1-0.1,0.2
			c-0.1,0.1-0.2,0.1-0.2,0.1c-0.1,0-0.3,0.1-0.4,0.1c-0.1,0-0.2,0-0.2,0c-0.1,0-0.2,0-0.3,0c-0.1,0-0.1,0-0.2,0c0,0,0,0,0,0
			c-0.1,0-0.1-0.1-0.1-0.2c0-0.1,0-0.2,0-0.3c0-0.2,0-0.3,0.1-0.5c0-0.1,0-0.3,0.1-0.4c0-0.2,0.1-0.4,0.1-0.6c0-0.2,0.1-0.4,0.1-0.7
			c0,0,0-0.1,0-0.1c0.3-1.2,0.4-2.1,0.4-2.8c0-0.1,0-0.3-0.1-0.4c0-0.1-0.1-0.2-0.1-0.3c0,0-0.1-0.1-0.1-0.1
			C576.8,46.6,576.8,46.6,576.9,46.5C576.8,46.5,576.8,46.5,576.9,46.5z"/>
	</g>
</g>
<g id="XMLID_296_" class="st0">
	<g id="XMLID_342_" class="st11">
		<path id="XMLID_294_" class="st30" d="M-180.6-108.5L-180.6-108.5c-0.6,0-1.1-0.5-1.1-1.1v-4c0-0.6,0.5-1.1,1.1-1.1l0,0
			c0.6,0,1.1,0.5,1.1,1.1v4C-179.5-109-180-108.5-180.6-108.5z"/>
		<path id="XMLID_293_" class="st30" d="M-183.7-111.7L-183.7-111.7c0-0.6,0.5-1.1,1.1-1.1h4c0.6,0,1.1,0.5,1.1,1.1l0,0
			c0,0.6-0.5,1.1-1.1,1.1h-4C-183.2-110.5-183.7-111-183.7-111.7z"/>
	</g>
	<g id="XMLID_339_" class="st11">
		<path id="XMLID_292_" class="st31" d="M-135.1-143L-135.1-143c-0.6,0-1.1-0.5-1.1-1.1v-4c0-0.6,0.5-1.1,1.1-1.1h0
			c0.6,0,1.1,0.5,1.1,1.1v4C-133.9-143.6-134.4-143-135.1-143z"/>
		<path id="XMLID_291_" class="st31" d="M-138.2-146.2L-138.2-146.2c0-0.6,0.5-1.1,1.1-1.1h4c0.6,0,1.1,0.5,1.1,1.1l0,0
			c0,0.6-0.5,1.1-1.1,1.1h-4C-137.7-145-138.2-145.6-138.2-146.2z"/>
	</g>
	<g id="XMLID_300_" class="st11">
		<g id="XMLID_319_">
			<g id="XMLID_275_">
				<path id="XMLID_276_" class="st32" d="M-136.4-59.3c-35.5-6.1-39.9-20.6-40.1-26.6c-0.3-8.4,6.3-16.1,15.6-18.4l1.1,4.3
					c-7.3,1.8-12.5,7.6-12.2,13.9c0.4,10.1,13.9,18.5,36.4,22.4L-136.4-59.3L-136.4-59.3z"/>
			</g>
			<path id="XMLID_274_" class="st33" d="M-137.2-62.2c-0.1,2.4-2.1,4.3-4.5,4.2c-2.4-0.1-4.3-2.1-4.2-4.5c0.1-2.4,2.1-4.3,4.5-4.2
				C-139-66.6-137.1-64.6-137.2-62.2z"/>
			<g id="XMLID_272_">
				<path id="XMLID_273_" class="st33" d="M-69.9-107.1l-7.8-4.4c3.3-5.8,5.1-12.2,5.3-19c0.8-22.7-17.1-41.9-39.9-42.6
					c-22.7-0.8-41.8,17.1-42.6,39.9c-0.2,6.5,1,12.7,3.7,18.5l-8.1,3.7c-3.3-7.1-4.8-14.7-4.5-22.5c0.9-27.7,24.2-49.4,51.8-48.5
					c27.7,0.9,49.4,24.2,48.5,51.8C-63.7-122.1-65.9-114.1-69.9-107.1L-69.9-107.1z"/>
			</g>
			<g id="XMLID_270_">
				<polygon id="XMLID_271_" class="st34" points="-160.2,-89.3 -167.9,-111 -157.9,-122.7 -145.7,-88.5 				"/>
			</g>
			<g id="XMLID_268_">
				<polygon id="XMLID_269_" class="st34" points="-70.2,-86.3 -61,-107.5 -70.3,-119.8 -84.7,-86.5 				"/>
			</g>
			<path id="XMLID_267_" class="st35" d="M-140.3-83.8c-2-0.1-3.9-1.4-4.6-3.4l-13-38.3c-0.9-2.6,0.5-5.5,3.2-6.4
				c2.6-0.9,5.5,0.5,6.4,3.2l13,38.3c0.9,2.6-0.5,5.5-3.2,6.4C-139.1-83.9-139.7-83.8-140.3-83.8L-140.3-83.8z"/>
			<path id="XMLID_264_" class="st36" d="M-140.4-81.6c-3-0.1-5.7-2.1-6.6-4.9l-13-38.3c-0.6-1.8-0.5-3.8,0.4-5.6
				c0.9-1.7,2.3-3.1,4.2-3.7c3.7-1.3,8,0.9,9.2,4.5l13,38.3c0.6,1.8,0.5,3.8-0.4,5.6c-0.9,1.7-2.4,3-4.2,3.7
				C-138.6-81.7-139.5-81.6-140.4-81.6L-140.4-81.6z M-153.1-130c-0.3,0-0.7,0-1,0.1c-0.7,0.2-1.3,0.7-1.6,1.4
				c-0.3,0.7-0.4,1.4-0.1,2.1l13,38.3c0.5,1.4,2.2,2.3,3.6,1.8c0.7-0.2,1.3-0.8,1.6-1.4c0.3-0.7,0.4-1.4,0.1-2.2l-13-38.3
				C-150.9-129.2-151.9-130-153.1-130L-153.1-130z"/>
			<path id="XMLID_263_" class="st35" d="M-90-82.2c2,0.1,4-1.1,4.8-3.1l15.6-37.4c1.1-2.6-0.1-5.5-2.7-6.6
				c-2.6-1.1-5.5,0.1-6.6,2.7l-15.6,37.4c-1.1,2.6,0.1,5.5,2.7,6.6C-91.2-82.3-90.6-82.2-90-82.2L-90-82.2z"/>
			<path id="XMLID_260_" class="st36" d="M-90.1-79.9c-0.9,0-1.8-0.2-2.6-0.6c-1.8-0.7-3.2-2.1-3.9-3.9c-0.7-1.8-0.7-3.8,0-5.6
				l15.5-37.4c1.5-3.6,5.9-5.4,9.5-3.9c1.8,0.8,3.2,2.2,3.9,4c0.7,1.8,0.7,3.8,0,5.6l-15.5,37.4C-84.3-81.6-87.1-79.8-90.1-79.9
				L-90.1-79.9z M-74.2-127.4c-1.2,0-2.2,0.6-2.7,1.7l-15.5,37.4c-0.3,0.7-0.3,1.5,0,2.2c0.3,0.7,0.8,1.2,1.5,1.5
				c1.4,0.6,3.1-0.1,3.7-1.5l15.5-37.4c0.3-0.7,0.3-1.5,0-2.2c-0.3-0.7-0.8-1.2-1.5-1.5C-73.5-127.3-73.9-127.4-74.2-127.4
				L-74.2-127.4z"/>
			<g id="XMLID_257_">
				<path id="XMLID_259_" class="st36" d="M-122.5-53.6c-0.1,0-0.3,0-0.4,0l-16.3-2.4c-2.5-0.4-4.3-3.2-4-6.2
					c0.3-3.1,2.7-5.3,5.2-4.9l16.3,2.4c2.5,0.4,4.3,3.2,4,6.2C-118-55.6-120.1-53.5-122.5-53.6L-122.5-53.6z"/>
			</g>
		</g>
		<g id="XMLID_316_">
			<path id="XMLID_290_" class="st31" d="M-47-125.1L-47-125.1c-0.6,0-1.1-0.5-1.1-1.1v-4c0-0.6,0.5-1.1,1.1-1.1l0,0
				c0.6,0,1.1,0.5,1.1,1.1v4C-45.9-125.6-46.4-125.1-47-125.1z"/>
			<path id="XMLID_289_" class="st31" d="M-50.1-128.2L-50.1-128.2c0-0.6,0.5-1.1,1.1-1.1h4c0.6,0,1.1,0.5,1.1,1.1l0,0
				c0,0.6-0.5,1.1-1.1,1.1h-4C-49.6-127.1-50.1-127.6-50.1-128.2z"/>
		</g>
		<g id="XMLID_313_">
			<path id="XMLID_288_" class="st37" d="M-195.2-132.2L-195.2-132.2c-0.6,0-1.1-0.5-1.1-1.1v-4c0-0.6,0.5-1.1,1.1-1.1h0
				c0.6,0,1.1,0.5,1.1,1.1v4C-194.1-132.8-194.6-132.2-195.2-132.2z"/>
			<path id="XMLID_287_" class="st37" d="M-198.3-135.4L-198.3-135.4c0-0.6,0.5-1.1,1.1-1.1h4c0.6,0,1.1,0.5,1.1,1.1l0,0
				c0,0.6-0.5,1.1-1.1,1.1h-4C-197.8-134.2-198.3-134.7-198.3-135.4z"/>
		</g>
		<g id="XMLID_310_">
			<path id="XMLID_286_" class="st38" d="M-178.9-141.7L-178.9-141.7c-0.6,0-1.1-0.5-1.1-1.1v-4c0-0.6,0.5-1.1,1.1-1.1l0,0
				c0.6,0,1.1,0.5,1.1,1.1v4C-177.8-142.2-178.3-141.7-178.9-141.7z"/>
			<path id="XMLID_285_" class="st38" d="M-182-144.8L-182-144.8c0-0.6,0.5-1.1,1.1-1.1h4c0.6,0,1.1,0.5,1.1,1.1l0,0
				c0,0.6-0.5,1.1-1.1,1.1h-4C-181.5-143.7-182-144.2-182-144.8z"/>
		</g>
		<g id="XMLID_307_">
			<path id="XMLID_284_" class="st30" d="M-54.6-144.4L-54.6-144.4c-0.6,0-1.1-0.5-1.1-1.1v-4c0-0.6,0.5-1.1,1.1-1.1h0
				c0.6,0,1.1,0.5,1.1,1.1v4C-53.5-144.9-54-144.4-54.6-144.4z"/>
			<path id="XMLID_283_" class="st30" d="M-57.7-147.6L-57.7-147.6c0-0.6,0.5-1.1,1.1-1.1h4c0.6,0,1.1,0.5,1.1,1.1l0,0
				c0,0.6-0.5,1.1-1.1,1.1h-4C-57.2-146.4-57.7-146.9-57.7-147.6z"/>
		</g>
		<g id="XMLID_304_">
			<path id="XMLID_282_" class="st38" d="M-37-139.6L-37-139.6c-0.6,0-1.1-0.5-1.1-1.1v-4c0-0.6,0.5-1.1,1.1-1.1l0,0
				c0.6,0,1.1,0.5,1.1,1.1v4C-35.9-140.1-36.4-139.6-37-139.6z"/>
			<path id="XMLID_281_" class="st38" d="M-40.1-142.7L-40.1-142.7c0-0.6,0.5-1.1,1.1-1.1h4c0.6,0,1.1,0.5,1.1,1.1l0,0
				c0,0.6-0.5,1.1-1.1,1.1h-4C-39.6-141.6-40.1-142.1-40.1-142.7z"/>
		</g>
		<g id="XMLID_301_">
			<path id="XMLID_280_" class="st30" d="M-181.4-121L-181.4-121c-0.8,0-1.5-0.7-1.5-1.5v-5.2c0-0.8,0.7-1.5,1.5-1.5l0,0
				c0.8,0,1.5,0.7,1.5,1.5v5.2C-179.9-121.7-180.5-121-181.4-121z"/>
			<path id="XMLID_279_" class="st30" d="M-185.5-125.1L-185.5-125.1c0-0.8,0.7-1.5,1.5-1.5h5.2c0.8,0,1.5,0.7,1.5,1.5l0,0
				c0,0.8-0.7,1.5-1.5,1.5h-5.2C-184.8-123.6-185.5-124.3-185.5-125.1z"/>
		</g>
	</g>
	<g id="XMLID_297_" class="st11">
		<path id="XMLID_278_" class="st30" d="M-129.7-72L-129.7-72c-0.7,0-1.4-0.6-1.4-1.4v-4.7c0-0.7,0.6-1.4,1.4-1.4l0,0
			c0.7,0,1.4,0.6,1.4,1.4v4.7C-128.4-72.6-129-72-129.7-72z"/>
		<path id="XMLID_277_" class="st30" d="M-133.4-75.7L-133.4-75.7c0-0.7,0.6-1.4,1.4-1.4h4.7c0.7,0,1.4,0.6,1.4,1.4v0
			c0,0.7-0.6,1.4-1.4,1.4h-4.7C-132.8-74.4-133.4-75-133.4-75.7z"/>
	</g>
</g>
<g id="XMLID_347_">
	<g id="XMLID_428_">
		<path id="XMLID_429_" class="st39" d="M70.1,116.2v-14.8V98v-3.3l63.7-0.1h8.9c2.8,0,5.4,1.1,7.3,3l0.1,0.1
			c1.9,1.9,3.1,4.5,3.1,7.5v35.4c0,2.9-1.2,5.6-3.1,7.5v0v0c-1.5,1.5-3.5,2.6-5.8,3v7.3h0c0,0.4-0.1,0.8-0.4,1.1
			c-0.6,0.8-1.7,0.9-2.4,0.3l-10.6-8.5H80.7c-2.8,0-5.4-1.2-7.3-3l-0.1-0.1c-1.9-1.9-3.1-4.6-3.1-7.5V116.2 M70.1,116.2"/>
	</g>
	<g id="XMLID_423_">
		<g id="XMLID_426_">
			<path id="XMLID_343_" class="st31" d="M59.1,36.1h-0.3c-0.5,0-0.9-0.4-0.9-0.9V31c0-0.5,0.4-0.9,0.9-0.9h0.3
				c0.5,0,0.9,0.4,0.9,0.9v4.2C60.1,35.7,59.6,36.1,59.1,36.1z"/>
		</g>
		<g id="XMLID_424_">
			<path id="XMLID_341_" class="st31" d="M55.9,33.3v-0.3c0-0.5,0.4-0.9,0.9-0.9h4.2c0.5,0,0.9,0.4,0.9,0.9v0.3
				c0,0.5-0.4,0.9-0.9,0.9h-4.2C56.4,34.2,55.9,33.8,55.9,33.3z"/>
		</g>
	</g>
	<g id="XMLID_418_">
		<g id="XMLID_421_">
			<path id="XMLID_340_" class="st37" d="M34.1,34.7h-0.3c-0.5,0-0.9-0.4-0.9-0.9v-4.2c0-0.5,0.4-0.9,0.9-0.9h0.3
				c0.5,0,0.9,0.4,0.9,0.9v4.2C35.1,34.2,34.7,34.7,34.1,34.7z"/>
		</g>
		<g id="XMLID_419_">
			<path id="XMLID_338_" class="st37" d="M30.9,31.8v-0.3c0-0.5,0.4-0.9,0.9-0.9h4.2c0.5,0,0.9,0.4,0.9,0.9v0.3
				c0,0.5-0.4,0.9-0.9,0.9h-4.2C31.4,32.7,30.9,32.3,30.9,31.8z"/>
		</g>
	</g>
	<g id="XMLID_413_">
		<g id="XMLID_416_">
			<path id="XMLID_337_" class="st38" d="M8.8,123.9H8.5c-0.5,0-0.9-0.4-0.9-0.9v-4.2c0-0.5,0.4-0.9,0.9-0.9h0.3
				c0.5,0,0.9,0.4,0.9,0.9v4.2C9.7,123.4,9.3,123.9,8.8,123.9z"/>
		</g>
		<g id="XMLID_414_">
			<path id="XMLID_336_" class="st38" d="M5.6,121v-0.3c0-0.5,0.4-0.9,0.9-0.9h4.2c0.5,0,0.9,0.4,0.9,0.9v0.3c0,0.5-0.4,0.9-0.9,0.9
				H6.5C6,121.9,5.6,121.5,5.6,121z"/>
		</g>
	</g>
	<g id="XMLID_408_">
		<g id="XMLID_411_">
			<path id="XMLID_335_" class="st30" d="M107.4,33.4h-0.3c-0.5,0-0.9-0.4-0.9-0.9v-4.2c0-0.5,0.4-0.9,0.9-0.9h0.3
				c0.5,0,0.9,0.4,0.9,0.9v4.2C108.3,32.9,107.9,33.4,107.4,33.4z"/>
		</g>
		<g id="XMLID_409_">
			<path id="XMLID_334_" class="st30" d="M104.2,30.5v-0.3c0-0.5,0.4-0.9,0.9-0.9h4.2c0.5,0,0.9,0.4,0.9,0.9v0.3
				c0,0.5-0.4,0.9-0.9,0.9h-4.2C104.6,31.4,104.2,31,104.2,30.5z"/>
		</g>
	</g>
	<g id="XMLID_403_">
		<g id="XMLID_406_">
			<path id="XMLID_333_" class="st30" d="M154.6,70.4h-0.3c-0.5,0-0.9-0.4-0.9-0.9v-4.2c0-0.5,0.4-0.9,0.9-0.9h0.3
				c0.5,0,0.9,0.4,0.9,0.9v4.2C155.6,70,155.1,70.4,154.6,70.4z"/>
		</g>
		<g id="XMLID_404_">
			<path id="XMLID_332_" class="st30" d="M151.4,67.6v-0.3c0-0.5,0.4-0.9,0.9-0.9h4.2c0.5,0,0.9,0.4,0.9,0.9v0.3
				c0,0.5-0.4,0.9-0.9,0.9h-4.2C151.8,68.5,151.4,68.1,151.4,67.6z"/>
		</g>
	</g>
	<g id="XMLID_398_">
		<g id="XMLID_401_">
			<path id="XMLID_331_" class="st38" d="M172.7,91.3h-0.3c-0.5,0-0.9-0.4-0.9-0.9v-4.2c0-0.5,0.4-0.9,0.9-0.9h0.3
				c0.5,0,0.9,0.4,0.9,0.9v4.2C173.6,90.9,173.2,91.3,172.7,91.3z"/>
		</g>
		<g id="XMLID_399_">
			<path id="XMLID_330_" class="st38" d="M169.5,88.4v-0.3c0-0.5,0.4-0.9,0.9-0.9h4.2c0.5,0,0.9,0.4,0.9,0.9v0.3
				c0,0.5-0.4,0.9-0.9,0.9h-4.2C169.9,89.4,169.5,89,169.5,88.4z"/>
		</g>
	</g>
	<g id="XMLID_393_">
		<g id="XMLID_396_">
			<path id="XMLID_329_" class="st31" d="M29.1,144.9h-0.3c-0.5,0-0.9-0.4-0.9-0.9v-4.2c0-0.5,0.4-0.9,0.9-0.9h0.3
				c0.5,0,0.9,0.4,0.9,0.9v4.2C30,144.5,29.6,144.9,29.1,144.9z"/>
		</g>
		<g id="XMLID_394_">
			<path id="XMLID_328_" class="st31" d="M25.9,142.1v-0.3c0-0.5,0.4-0.9,0.9-0.9H31c0.5,0,0.9,0.4,0.9,0.9v0.3
				c0,0.5-0.4,0.9-0.9,0.9h-4.2C26.3,143,25.9,142.6,25.9,142.1z"/>
		</g>
	</g>
	<g id="XMLID_388_">
		<g id="XMLID_391_">
			<path id="XMLID_327_" class="st30" d="M60.6,146.5h-0.5c-0.7,0-1.2-0.5-1.2-1.2v-5.5c0-0.7,0.5-1.2,1.2-1.2h0.5
				c0.7,0,1.2,0.5,1.2,1.2v5.5C61.8,146,61.3,146.5,60.6,146.5z"/>
		</g>
		<g id="XMLID_389_">
			<path id="XMLID_326_" class="st30" d="M56.4,142.8v-0.5c0-0.7,0.5-1.2,1.2-1.2h5.5c0.7,0,1.2,0.5,1.2,1.2v0.5
				c0,0.7-0.5,1.2-1.2,1.2h-5.5C57,144,56.4,143.4,56.4,142.8z"/>
		</g>
	</g>
	<g id="XMLID_383_">
		<g id="XMLID_386_">
			<path id="XMLID_325_" class="st30" d="M37.8,53.7h-0.4c-0.6,0-1.1-0.5-1.1-1.1v-5c0-0.6,0.5-1.1,1.1-1.1h0.4
				c0.6,0,1.1,0.5,1.1,1.1v5C38.9,53.2,38.4,53.7,37.8,53.7z"/>
		</g>
		<g id="XMLID_384_">
			<path id="XMLID_324_" class="st30" d="M34,50.3v-0.4c0-0.6,0.5-1.1,1.1-1.1h5c0.6,0,1.1,0.5,1.1,1.1v0.4c0,0.6-0.5,1.1-1.1,1.1
				h-5C34.5,51.5,34,51,34,50.3z"/>
		</g>
	</g>
	<g id="XMLID_376_">
		<path id="XMLID_295_" class="st40" d="M65.8,109.1l-10.6,8.5c-0.7,0.6-1.8,0.5-2.4-0.3c-0.3-0.3-0.4-0.7-0.4-1.1h0V109
			c-2.2-0.4-4.2-1.4-5.8-3c-1.9-1.9-3.1-4.5-3.1-7.5V60.9c0-2.9,1.2-5.5,3.1-7.5l0.1-0.1c1.9-1.8,4.5-3,7.3-3h62
			c2.9,0,5.5,1.2,7.5,3.1c1.9,1.9,3.1,4.5,3.1,7.5v37.6c0,2.9-1.2,5.5-3.1,7.5l-0.1,0.1c-1.9,1.8-4.5,3-7.3,3H65.8z M46.8,53.3
			L46.8,53.3"/>
		<path id="XMLID_302_" class="st32" d="M54.1,119.9c-0.1,0-0.3,0-0.4,0c-1-0.1-1.8-0.6-2.4-1.3c-0.1-0.1-0.2-0.2-0.3-0.3h-0.5
			l0-1.9v-5.8c-1.9-0.6-3.7-1.7-5.2-3.1c-2.4-2.4-3.7-5.5-3.7-8.8V60.9c0-3.3,1.3-6.5,3.7-8.8l0.2-0.2c2.3-2.3,5.4-3.5,8.6-3.5h62
			c3.3,0,6.5,1.3,8.8,3.7c2.4,2.4,3.7,5.5,3.7,8.8v37.6c0,3.3-1.3,6.5-3.7,8.8l-0.2,0.2c-2.3,2.3-5.4,3.5-8.6,3.5H66.5l-10.1,8.1
			C55.7,119.6,55,119.9,54.1,119.9z M54.3,114.3l0,1.5l10.8-8.6h51c2.2,0,4.4-0.9,6-2.4l0.2-0.1c1.6-1.6,2.5-3.8,2.5-6.1V60.9
			c0-2.3-0.9-4.5-2.5-6.1c-1.6-1.6-3.8-2.5-6.1-2.5h-62c-2.2,0-4.4,0.9-6,2.5L48,54.8c-1.6,1.6-2.5,3.8-2.5,6.1v37.6
			c0,2.3,0.9,4.5,2.5,6.1c1.3,1.3,3,2.1,4.7,2.4l1.6,0.3V114.3z"/>
	</g>
	<g id="XMLID_372_">
		<path id="XMLID_373_" class="st41" d="M58.5,67.1c-0.9,0-1.7-0.8-1.7-1.7c0-0.9,0.8-1.7,1.7-1.7h53.2c0.9,0,1.7,0.8,1.7,1.7
			c0,0.9-0.8,1.7-1.7,1.7H58.5z M58.5,67.1"/>
	</g>
	<g id="XMLID_368_">
		<path id="XMLID_369_" class="st41" d="M58.5,77.6c-0.9,0-1.7-0.8-1.7-1.7c0-1,0.8-1.7,1.7-1.7h53.2c0.9,0,1.7,0.8,1.7,1.7
			c0,0.9-0.8,1.7-1.7,1.7H58.5z M58.5,77.6"/>
	</g>
	<g id="XMLID_352_">
		<g id="XMLID_365_">
			<path id="XMLID_366_" class="st40" d="M131.6,109.1c-1,0-1.7-0.8-1.7-1.7c0-1,0.8-1.7,1.7-1.7h6.6c0.9,0,1.7,0.8,1.7,1.7
				c0,0.9-0.8,1.7-1.7,1.7H131.6z"/>
		</g>
		<g id="XMLID_361_">
			<path id="XMLID_362_" class="st40" d="M85.1,119.7c-0.9,0-1.7-0.8-1.7-1.7s0.8-1.7,1.7-1.7h53.2c0.9,0,1.7,0.8,1.7,1.7
				s-0.8,1.7-1.7,1.7H85.1z M85.1,119.7"/>
		</g>
		<g id="XMLID_357_">
			<path id="XMLID_358_" class="st40" d="M85.1,130.3c-0.9,0-1.7-0.8-1.7-1.7c0-0.9,0.8-1.7,1.7-1.7h53.2c0.9,0,1.7,0.8,1.7,1.7
				c0,1-0.8,1.7-1.7,1.7H85.1z M85.1,130.3"/>
		</g>
		<g id="XMLID_353_">
			<path id="XMLID_354_" class="st40" d="M85.1,140.8c-0.9,0-1.7-0.8-1.7-1.7c0-1,0.8-1.7,1.7-1.7h37.7c0.9,0,1.7,0.8,1.7,1.7
				c0,0.9-0.8,1.7-1.7,1.7H85.1z M85.1,140.8"/>
		</g>
	</g>
	<g id="XMLID_348_">
		<path id="XMLID_349_" class="st41" d="M58.5,88.2c-0.9,0-1.7-0.8-1.7-1.7s0.8-1.7,1.7-1.7h37.7c0.9,0,1.7,0.8,1.7,1.7
			s-0.8,1.7-1.7,1.7H58.5z M58.5,88.2"/>
	</g>
</g>
<g id="XMLID_436_" class="st0">
	<g id="XMLID_497_" class="st11">
		<path id="XMLID_346_" class="st42" d="M103.8,49.1c8.8,0,17.6,0,26.4,0c6.8,0,11.6,4.8,11.6,11.6c0,12,0,24,0,35.9
			c0,5.8-3.3,10-9,11.3c-0.9,0.2-1.1,0.6-1.1,1.5c0.1,3,0,6,0,9.1c0,0.7,0.1,1.4-0.7,1.7c-0.7,0.3-1.1-0.3-1.6-0.7
			c-4.1-3.5-8.3-7-12.4-10.5c-0.7-0.6-1.3-0.9-2.2-0.8c-5.4,0-10.9,0-16.3,0c-1.1,0-1.4,0.3-1.4,1.4c-1.1,21-21.3,34.8-41.3,28.2
			c-1-0.3-1.5-0.1-2.1,0.7c-1.3,1.7-2.3,3.5-3.2,5.5c-0.9,2-1.4,2.1-3,0.6c-4.2-4.1-5.9-9.3-5.8-15c0-1-0.3-1.8-0.8-2.6
			c-7-9.9-8.4-20.6-3.3-31.6c5.1-11.2,14.2-17.2,26.5-18.2c1.6-0.1,2-0.6,1.9-2.1c-0.1-4.9-0.1-9.7,0-14.6c0-6.4,4.9-11.2,11.3-11.2
			C86,49.1,94.9,49.1,103.8,49.1z M47.7,141.6c0.6,1.2,1.1,1.3,1.7,0c1.2-2.5,2.6-4.7,4.8-6.4c0.4,0.1,0.9,0.2,1.3,0.4
			c12.1,4.1,22.8,1.8,31.6-7.3c6.9-7.1,9.3-15.8,7.3-25.6c0-0.4-0.1-0.8-0.2-1.2c-2.9-12.1-12.8-20.8-25.8-22.2
			c-11.5-1.2-22.9,4.7-28.5,15.6c-4.5,8.8-4.6,17.8-0.1,26.7c0.6,1.6,1.5,3,2.6,4.3c0.9,1.1,1.2,2.2,1.2,3.6
			C43.6,133.9,44.6,138.1,47.7,141.6z"/>
		<path id="XMLID_355_" class="st32" d="M49.1,146.6c-0.9,0-1.6-0.7-2.3-1.3c-4.2-4.1-6.2-9.2-6.1-15.8c0-0.8-0.2-1.3-0.7-2
			c-7.4-10.4-8.5-21.4-3.4-32.6c5.2-11.4,14.4-17.8,27.3-18.8c0.8-0.1,0.9-0.2,0.9-0.2c0,0,0.1-0.1,0.1-0.9
			c-0.1-3.9-0.1-7.8-0.1-11.5c0-1,0-2.1,0-3.1c0-7,5.3-12.2,12.3-12.2c6.2,0,12.5,0,18.7,0l8,0l7.9,0c6.2,0,12.3,0,18.5,0
			c7.4,0,12.6,5.2,12.6,12.6c0,12,0,24,0,35.9c0,6.3-3.7,10.9-9.8,12.3c-0.2,0-0.3,0.1-0.3,0.1c0,0,0,0.1,0,0.4c0,2.3,0,4.6,0,6.9
			c0,0.7,0,1.5,0,2.2c0,0.1,0,0.2,0,0.2c0,0.6,0.1,1.9-1.3,2.4c-1.2,0.5-2-0.3-2.5-0.7c-0.1-0.1-0.1-0.1-0.2-0.2l-1.9-1.6
			c-3.5-2.9-7-5.9-10.5-8.9c-0.5-0.4-0.9-0.6-1.6-0.6c-6.2,0-11.4,0-16.3,0c-0.2,0-0.3,0-0.4,0c0,0.1,0,0.2,0,0.4
			c-0.5,10.3-5.6,19.5-14,25.2c-8.3,5.7-18.8,7.1-28.6,3.9c-0.5-0.2-0.6-0.1-1,0.3c-1.2,1.5-2.2,3.3-3.1,5.3c-0.4,1-1,2-2,2.2
			C49.3,146.6,49.2,146.6,49.1,146.6z M47.6,143.2c0.2,0.2,0.4,0.4,0.5,0.5c0.4,0.4,0.7,0.6,0.8,0.7c0.1-0.1,0.3-0.4,0.5-1
			c0.2-0.4,0.3-0.8,0.5-1.1c-0.3,0.5-0.8,1.1-1.6,1.1c0,0,0,0,0,0C48.1,143.5,47.9,143.4,47.6,143.2z M43.3,135.4
			c0.7,2.7,1.9,5.1,3.7,7.1c-0.1-0.2-0.2-0.3-0.2-0.4C45.1,140.2,44,137.9,43.3,135.4z M54.4,136.2c-1.6,1.4-2.9,3.2-4,5.6
			c0.8-1.5,1.6-2.8,2.5-4c0.6-0.8,1.5-1.6,3.2-1c2.1,0.7,4.3,1.2,6.4,1.4c-2.4-0.3-4.9-0.9-7.4-1.8
			C54.8,136.4,54.6,136.3,54.4,136.2z M65.4,80c-10.3,0-19.7,5.8-24.6,15.2c-4.4,8.6-4.4,17.3-0.1,25.8l0.1,0.1
			c0.4,1.3,1.2,2.5,2.4,4c1,1.2,1.5,2.6,1.4,4.3c-0.1,4.7,1.1,8.5,3.7,11.6l0.1,0.1c1.4-2.9,3-5.1,5-6.7l0.4-0.3l0.5,0.1
			c0.1,0,0.3,0.1,0.4,0.1c0.3,0.1,0.6,0.2,1,0.3c11.8,4.1,22.1,1.7,30.6-7.1c6.6-6.8,9-15.2,7.1-24.8l0-0.1c0-0.1,0-0.3,0-0.4
			c0-0.2,0-0.5-0.1-0.6c-1.4-5.8-4.4-10.8-8.8-14.6c-4.4-3.8-10-6.2-16.1-6.8C67.3,80,66.4,80,65.4,80z M91.2,124.7
			c-1,1.4-2.1,2.8-3.4,4.2c-2.3,2.3-4.6,4.2-7.1,5.7c0.8-0.4,1.5-0.9,2.3-1.4C86.3,130.9,89,128,91.2,124.7z M41.2,125.8
			c0.1,0.2,0.2,0.4,0.4,0.5c0.7,1,1,2,1,3.2c0,1,0,2,0.2,3c-0.1-1-0.1-2.1-0.1-3.2c0-1.2-0.3-2.1-1-3
			C41.5,126.2,41.4,126,41.2,125.8z M36.7,100.1c-2.3,7.6-1.4,15.1,2.5,22.3c-0.1-0.2-0.2-0.4-0.2-0.6
			C35.3,114.7,34.5,107.4,36.7,100.1z M114.7,107.2c1.1,0,2,0.3,2.9,1.1c3.5,3,7.1,6,10.5,8.9l1.9,1.6c0.1,0.1,0.2,0.1,0.2,0.2
			c0.1,0.1,0.3,0.2,0.3,0.3c0,0,0,0,0,0c0-0.1,0-0.3,0-0.5c0-0.1,0-0.2,0-0.3c0-0.7,0-1.5,0-2.2c0-2.2,0-4.6,0-6.8
			c0-1.4,0.6-2.1,1.9-2.4c5.2-1.2,8.2-5,8.2-10.3c0-12,0-24,0-35.9c0-6.4-4.2-10.6-10.6-10.6c-6.2,0-12.3,0-18.5,0l-7.9,0l-8,0
			c-6.2,0-12.5,0-18.7,0c-5.8,0-10.3,4.4-10.3,10.2c0,1,0,2.1,0,3.1c0,3.8,0,7.7,0.1,11.5c0,1.9-0.5,2.7-2.1,3c1.3,0,2.5,0,3.8,0.2
			c6.5,0.7,12.5,3.2,17.2,7.3c4.7,4.1,8,9.5,9.5,15.7c0.1,0.3,0.1,0.6,0.1,0.9c0,0.1,0,0.2,0,0.3c0.5,2.4,0.7,4.6,0.7,6.9
			c0.2-1.4,0.9-2,2.4-2c0,0,0,0,0.1,0C103.4,107.2,108.5,107.2,114.7,107.2C114.7,107.2,114.7,107.2,114.7,107.2z M53.5,80.5
			c-6.2,2.6-10.9,7.1-14.3,13.4c2.8-5.3,7-9.6,12.2-12.4C52.1,81.2,52.8,80.8,53.5,80.5z"/>
	</g>
	<g id="XMLID_495_" class="st11">
		<path id="XMLID_434_" class="st43" d="M110.8,116.9c0,0.6-0.3,0.9-0.9,1c-1,0.1-1.6,0.7-1.8,1.7c-0.1,0.7-0.4,1-1.1,1
			c-0.6,0-0.9-0.4-1-1c-0.1-1-0.7-1.6-1.8-1.7c-0.6-0.1-0.9-0.4-0.9-1c0-0.6,0.3-0.9,0.9-1c1.1-0.1,1.7-0.8,1.8-1.9
			c0.1-0.5,0.4-0.8,0.9-0.8c0.5,0,1,0.1,1,0.6c0.2,1.3,0.9,2,2.2,2.1C110.6,116.1,110.8,116.5,110.8,116.9z"/>
	</g>
	<g id="XMLID_493_" class="st11">
		<path id="XMLID_433_" class="st43" d="M55.7,56.2c0,0.5-0.3,0.9-0.8,0.9c-1.1,0.1-1.7,0.7-1.9,1.8c-0.1,0.6-0.4,0.9-1,0.9
			c-0.6,0-0.9-0.3-1-0.9c-0.1-1.1-0.8-1.7-1.9-1.8c-0.6-0.1-0.8-0.5-0.8-1.1c0-0.5,0.3-0.9,0.8-0.9c1.2-0.1,1.8-0.8,1.9-2
			c0.1-0.5,0.5-0.7,1-0.7c0.5,0,0.9,0.2,1,0.7c0.2,1.2,0.8,1.9,2.1,2C55.6,55.3,55.7,55.7,55.7,56.2z"/>
	</g>
	<g id="XMLID_489_" class="st11">
		<path id="XMLID_490_" class="st44" d="M148.2,112.6c-1.8,0-3.1-1.3-3.1-3c0-1.7,1.3-3,3-3c1.8,0,3.1,1.3,3.1,3
			C151.1,111.3,149.8,112.6,148.2,112.6z M148.2,108.6c-0.6,0-1,0.3-1,0.9c-0.1,0.6,0.3,1,0.8,1.1c0.6,0.1,1.1-0.3,1.1-0.9
			C149.1,109,148.7,108.7,148.2,108.6z"/>
	</g>
	<g id="XMLID_485_" class="st11">
		<path id="XMLID_486_" class="st45" d="M95.7,138.1c0,1.7-1.3,3.1-3.1,3.1c-1.7,0-3-1.3-3-3c0-1.7,1.3-3.1,3.1-3.1
			C94.4,135.1,95.7,136.4,95.7,138.1z M92.7,137.1c-0.5,0.1-0.9,0.3-1,0.9c-0.1,0.6,0.3,1,0.8,1.1c0.6,0.1,1.1-0.3,1.1-0.9
			C93.7,137.6,93.3,137.2,92.7,137.1z"/>
	</g>
	<g id="XMLID_481_" class="st11">
		<path id="XMLID_482_" class="st45" d="M33.2,81.7c0,1.7-1.3,3.1-3.1,3.1c-1.7,0-3-1.3-3-3c0-1.7,1.3-3.1,3.1-3.1
			C31.9,78.7,33.2,80,33.2,81.7z M31.2,81.7c-0.1-0.6-0.4-0.9-1-1c-0.6,0-1,0.3-1,0.9c0,0.7,0.4,1.1,1,1
			C30.8,82.6,31.1,82.2,31.2,81.7z"/>
	</g>
	<g id="XMLID_479_" class="st11">
		<path id="XMLID_420_" class="st44" d="M70.6,38.7c0.4,0,2.6,2.4,2.6,2.8c0,0.4-2.4,2.6-2.8,2.6c-0.4,0-2.6-2.4-2.6-2.8
			C67.9,40.9,70.2,38.7,70.6,38.7z"/>
	</g>
	<g id="XMLID_477_" class="st11">
		<path id="XMLID_417_" class="st45" d="M172.3,89.4c0,0.4-2.3,2.7-2.6,2.7c-0.4,0-2.7-2.2-2.7-2.6c0-0.5,2.2-2.8,2.7-2.8
			C170,86.7,172.3,89,172.3,89.4z"/>
	</g>
	<g id="XMLID_475_" class="st11">
		<path id="XMLID_415_" class="st44" d="M119.6,147.8c-0.4,0-2.7-2.3-2.7-2.7c0-0.4,2.3-2.7,2.7-2.7c0.4,0,2.7,2.3,2.7,2.7
			C122.2,145.5,120,147.8,119.6,147.8z"/>
	</g>
	<g id="XMLID_473_" class="st11">
		<path id="XMLID_412_" class="st43" d="M13.7,101.6c0,0.4-2.4,2.6-2.8,2.6c-0.4,0-2.6-2.4-2.6-2.8c0-0.4,2.4-2.6,2.8-2.6
			C11.6,98.9,13.8,101.2,13.7,101.6z"/>
	</g>
	<g id="XMLID_471_" class="st11">
		<path id="XMLID_410_" class="st45" d="M29.5,117.9c0,0.4-2.2,2.7-2.6,2.7c-0.5,0-2.8-2.2-2.7-2.7c0-0.4,2.3-2.6,2.7-2.6
			C27.2,115.3,29.5,117.6,29.5,117.9z"/>
	</g>
	<g id="XMLID_469_" class="st11">
		<path id="XMLID_407_" class="st43" d="M154,73.9c-0.5,0-0.8-0.1-1-0.4c-0.1-0.1-0.1-0.2-0.2-0.3c-0.4-0.7-0.3-3.2,0-3.9
			c0.2-0.6,0.6-1,1.1-0.8c1.1,0.5,1.4,1.8,2.5,2.3c0.2,0.1,0.2,0.9-0.2,1c-0.9,0.3-1.4,0.9-1.8,1.8C154.4,73.9,154.1,73.9,154,73.9z
			"/>
	</g>
	<g id="XMLID_467_" class="st11">
		<path id="XMLID_405_" class="st43" d="M115.2,39.1c0,0.4-2.3,2.6-2.7,2.6c-0.4,0-2.6-2.3-2.6-2.7c0-0.4,2.3-2.6,2.7-2.6
			C113,36.4,115.2,38.7,115.2,39.1z"/>
	</g>
	<g id="XMLID_465_" class="st11">
		<path id="XMLID_402_" class="st46" d="M148.2,108.6c0.5,0.1,0.9,0.4,0.9,1c0,0.6-0.5,1-1.1,0.9c-0.5-0.1-0.9-0.5-0.8-1.1
			C147.2,108.9,147.6,108.6,148.2,108.6z"/>
	</g>
	<g id="XMLID_463_" class="st11">
		<path id="XMLID_400_" class="st47" d="M92.7,137.1c0.6,0.1,1,0.5,1,1c0,0.6-0.5,1-1.1,0.9c-0.5-0.1-0.9-0.5-0.8-1.1
			C91.8,137.4,92.2,137.2,92.7,137.1z"/>
	</g>
	<g id="XMLID_461_" class="st11">
		<path id="XMLID_397_" class="st47" d="M31.2,81.7c-0.1,0.6-0.4,1-0.9,1c-0.7,0-1.1-0.4-1-1c0-0.6,0.4-0.9,1-0.9
			C30.8,80.7,31.1,81.1,31.2,81.7z"/>
	</g>
	<g id="XMLID_457_" class="st11">
		<path id="XMLID_458_" class="st48" d="M70,112.6c-0.7,1.4-4.2,3-5.8,2.6c-1.5-0.4-2.4-2-2.4-4.3c0-0.3,0-0.7,0-1
			c0.7-1.8,1.6-3.4,2.5-5.1c0.2-0.4,0.5-0.9,0.6-1.4c0.1-0.8-0.1-1.7-1-1.9c-0.9-0.3-1.8,0.2-1.9,1.2c-0.1,2.3-1.7,2.8-3.5,3.2
			c-0.4,0.1-0.9,0.2-1.3,0.3c-2.8,0.7-4.1-0.4-3.8-3.3c0.8-8.9,10.7-11.3,15.8-8.4c4.3,2.5,5.4,8.5,2.3,12.9
			C70.5,109,69.6,110.6,70,112.6z M64.4,95.4c-4.8,0-8.5,3.1-8.9,7.4c0,0.5-0.3,1.2,0.3,1.5c0.8,0.4,3.9-1.2,4.2-2.1
			c0.7-2.3,2.8-3.4,4.8-2.6c1.8,0.7,2.7,3.3,1.7,5.3c-0.6,1.3-1.4,2.6-2.1,3.8c-0.4,0.8-0.8,1.7-0.7,2.7c0.1,0.7,0.2,1.8,1.1,1.6
			c1.1-0.3,2.8,0.2,3-1.5c0.2-2.1,1-3.7,2.1-5.4c1.6-2.4,1.9-5,0.4-7.6C69.1,96.3,67,95.4,64.4,95.4z"/>
	</g>
	<g id="XMLID_453_" class="st11">
		<path id="XMLID_454_" class="st31" d="M68.2,116.2c2.3,0,4,1.8,4,4.1c0,2.2-1.8,4-4.1,4c-2.2,0-4-1.8-4-4.1
			C64.1,117.9,65.9,116.2,68.2,116.2z M66.1,120.3c0.2,1.2,0.9,1.9,2.1,1.9c1.1,0,1.9-0.8,1.9-2c0-1.2-0.7-2-2-2
			C66.9,118.3,66.3,119.1,66.1,120.3z"/>
	</g>
	<g id="XMLID_437_" class="st11">
		<g id="XMLID_450_">
			<path id="XMLID_451_" class="st49" d="M121.2,62c-1,0-1.8-0.4-1.8-1c0-0.5,0.8-1,1.8-1h7c1,0,1.8,0.4,1.8,1c0,0.5-0.8,1-1.8,1
				H121.2z"/>
		</g>
		<g id="XMLID_446_">
			<path id="XMLID_447_" class="st49" d="M89.9,71.8c-0.7,0-1.2-0.4-1.2-1c0-0.5,0.6-1,1.2-1h38.7c0.7,0,1.2,0.4,1.2,1
				c0,0.5-0.6,1-1.2,1H89.9z M89.9,71.8"/>
		</g>
		<g id="XMLID_442_">
			<path id="XMLID_443_" class="st49" d="M89.9,81.5c-0.7,0-1.2-0.4-1.2-1c0-0.5,0.6-1,1.2-1h38.7c0.7,0,1.2,0.4,1.2,1
				c0,0.5-0.6,1-1.2,1H89.9z M89.9,81.5"/>
		</g>
		<g id="XMLID_438_">
			<path id="XMLID_439_" class="st49" d="M101.2,91.3c-0.7,0-1.2-0.4-1.2-1c0-0.5,0.6-1,1.2-1h27.4c0.7,0,1.2,0.4,1.2,1
				c0,0.5-0.6,1-1.2,1H101.2z M101.2,91.3"/>
		</g>
	</g>
</g>
</svg>
