<?xml version="1.0" encoding="utf-8"?>
<!-- Generator: Adobe Illustrator 19.0.0, SVG Export Plug-In . SVG Version: 6.00 Build 0)  -->
<svg version="1.1" id="Layer_1" xmlns="http://www.w3.org/2000/svg" xmlns:xlink="http://www.w3.org/1999/xlink" x="0px" y="0px"
	 viewBox="0 0 182 182" style="enable-background:new 0 0 182 182;" xml:space="preserve">
<style type="text/css">
	.st0{fill:#FDC946;}
	.st1{fill:#F26D84;}
	.st2{fill:#C2DCF3;}
	.st3{fill:#74797F;}
	.st4{fill:#9EC1E3;}
	.st5{fill:#FFFFFF;}
	.st6{fill:#6D7277;}
	.st7{fill:#FBD577;}
	.st8{fill:#3D93C5;}
</style>
<g id="XMLID_296_">
	<g id="XMLID_342_">
		<path id="XMLID_294_" class="st0" d="M26.5,100.3L26.5,100.3c-0.6,0-1.1-0.5-1.1-1.1v-4c0-0.6,0.5-1.1,1.1-1.1h0
			c0.6,0,1.1,0.5,1.1,1.1v4C27.6,99.8,27.1,100.3,26.5,100.3z"/>
		<path id="XMLID_293_" class="st0" d="M23.4,97.1L23.4,97.1c0-0.6,0.5-1.1,1.1-1.1h4c0.6,0,1.1,0.5,1.1,1.1l0,0
			c0,0.6-0.5,1.1-1.1,1.1h-4C23.9,98.3,23.4,97.8,23.4,97.1z"/>
	</g>
	<g id="XMLID_339_">
		<path id="XMLID_292_" class="st1" d="M72.1,65.7L72.1,65.7c-0.6,0-1.1-0.5-1.1-1.1v-4c0-0.6,0.5-1.1,1.1-1.1l0,0
			c0.6,0,1.1,0.5,1.1,1.1v4C73.2,65.2,72.7,65.7,72.1,65.7z"/>
		<path id="XMLID_291_" class="st1" d="M68.9,62.6L68.9,62.6c0-0.6,0.5-1.1,1.1-1.1h4c0.6,0,1.1,0.5,1.1,1.1l0,0
			c0,0.6-0.5,1.1-1.1,1.1h-4C69.4,63.8,68.9,63.2,68.9,62.6z"/>
	</g>
	<g id="XMLID_300_">
		<g id="XMLID_319_">
			<g id="XMLID_275_">
				<path id="XMLID_276_" class="st2" d="M70.7,149.5c-35.5-6.1-39.9-20.6-40.1-26.6c-0.3-8.4,6.3-16.1,15.6-18.4l1.1,4.3
					c-7.3,1.8-12.5,7.6-12.2,13.9c0.4,10.1,13.9,18.5,36.4,22.4L70.7,149.5L70.7,149.5z"/>
			</g>
			<path id="XMLID_274_" class="st3" d="M69.9,146.6c-0.1,2.4-2.1,4.3-4.5,4.2c-2.4-0.1-4.3-2.1-4.2-4.5c0.1-2.4,2.1-4.3,4.5-4.2
				C68.1,142.2,70,144.2,69.9,146.6z"/>
			<g id="XMLID_272_">
				<path id="XMLID_273_" class="st3" d="M137.2,101.7l-7.8-4.4c3.3-5.8,5.1-12.2,5.3-19c0.8-22.7-17.1-41.9-39.9-42.6
					C72.2,35,53.1,52.9,52.3,75.6c-0.2,6.5,1,12.7,3.7,18.5l-8.1,3.7c-3.3-7.1-4.8-14.7-4.5-22.5c0.9-27.7,24.2-49.4,51.8-48.5
					c27.7,0.9,49.4,24.2,48.5,51.8C143.4,86.7,141.2,94.7,137.2,101.7L137.2,101.7z"/>
			</g>
			<g id="XMLID_270_">
				<polygon id="XMLID_271_" class="st4" points="46.9,119.5 39.2,97.8 49.2,86.1 61.4,120.3 				"/>
			</g>
			<g id="XMLID_268_">
				<polygon id="XMLID_269_" class="st4" points="136.9,122.5 146.1,101.3 136.8,89 122.4,122.3 				"/>
			</g>
			<path id="XMLID_267_" class="st5" d="M66.8,125c-2-0.1-3.9-1.4-4.6-3.4l-13-38.3c-0.9-2.6,0.5-5.5,3.2-6.4
				c2.6-0.9,5.5,0.5,6.4,3.2l13,38.3c0.9,2.6-0.5,5.5-3.2,6.4C68,124.9,67.4,125,66.8,125L66.8,125z"/>
			<path id="XMLID_264_" class="st6" d="M66.7,127.2c-3-0.1-5.7-2.1-6.6-4.9L47,83.9c-0.6-1.8-0.5-3.8,0.4-5.6
				c0.9-1.7,2.3-3.1,4.2-3.7c3.7-1.3,8,0.9,9.2,4.5l13,38.3c0.6,1.8,0.5,3.8-0.4,5.6c-0.9,1.7-2.4,3-4.2,3.7
				C68.5,127.1,67.6,127.2,66.7,127.2L66.7,127.2z M54,78.8c-0.3,0-0.7,0-1,0.1c-0.7,0.2-1.3,0.7-1.6,1.4c-0.3,0.7-0.4,1.4-0.1,2.1
				l13,38.3c0.5,1.4,2.2,2.3,3.6,1.8c0.7-0.2,1.3-0.8,1.6-1.4c0.3-0.7,0.4-1.4,0.1-2.2l-13-38.3C56.2,79.6,55.2,78.8,54,78.8
				L54,78.8z"/>
			<path id="XMLID_263_" class="st5" d="M117.1,126.6c2,0.1,4-1.1,4.8-3.1l15.6-37.4c1.1-2.6-0.1-5.5-2.7-6.6
				c-2.6-1.1-5.5,0.1-6.6,2.7l-15.6,37.4c-1.1,2.6,0.1,5.5,2.7,6.6C115.9,126.5,116.5,126.6,117.1,126.6L117.1,126.6z"/>
			<path id="XMLID_260_" class="st6" d="M117,128.9c-0.9,0-1.8-0.2-2.6-0.6c-1.8-0.7-3.2-2.1-3.9-3.9c-0.7-1.8-0.7-3.8,0-5.6
				l15.5-37.4c1.5-3.6,5.9-5.4,9.5-3.9c1.8,0.8,3.2,2.2,3.9,4c0.7,1.8,0.7,3.8,0,5.6L124,124.4C122.8,127.2,120,129,117,128.9
				L117,128.9z M132.9,81.4c-1.2,0-2.2,0.6-2.7,1.7l-15.5,37.4c-0.3,0.7-0.3,1.5,0,2.2c0.3,0.7,0.8,1.2,1.5,1.5
				c1.4,0.6,3.1-0.1,3.7-1.5l15.5-37.4c0.3-0.7,0.3-1.5,0-2.2c-0.3-0.7-0.8-1.2-1.5-1.5C133.6,81.5,133.2,81.4,132.9,81.4
				L132.9,81.4z"/>
			<g id="XMLID_257_">
				<path id="XMLID_259_" class="st6" d="M84.6,155.2c-0.1,0-0.3,0-0.4,0l-16.3-2.4c-2.5-0.4-4.3-3.2-4-6.2c0.3-3.1,2.7-5.3,5.2-4.9
					l16.3,2.4c2.5,0.4,4.3,3.2,4,6.2C89.1,153.2,87,155.3,84.6,155.2L84.6,155.2z"/>
			</g>
		</g>
		<g id="XMLID_316_">
			<path id="XMLID_290_" class="st1" d="M160.1,83.7L160.1,83.7c-0.6,0-1.1-0.5-1.1-1.1v-4c0-0.6,0.5-1.1,1.1-1.1l0,0
				c0.6,0,1.1,0.5,1.1,1.1v4C161.2,83.2,160.7,83.7,160.1,83.7z"/>
			<path id="XMLID_289_" class="st1" d="M157,80.6L157,80.6c0-0.6,0.5-1.1,1.1-1.1h4c0.6,0,1.1,0.5,1.1,1.1v0c0,0.6-0.5,1.1-1.1,1.1
				h-4C157.5,81.7,157,81.2,157,80.6z"/>
		</g>
		<g id="XMLID_313_">
			<path id="XMLID_288_" class="st7" d="M11.9,76.5L11.9,76.5c-0.6,0-1.1-0.5-1.1-1.1v-4c0-0.6,0.5-1.1,1.1-1.1h0
				c0.6,0,1.1,0.5,1.1,1.1v4C13,76,12.5,76.5,11.9,76.5z"/>
			<path id="XMLID_287_" class="st7" d="M8.8,73.4L8.8,73.4c0-0.6,0.5-1.1,1.1-1.1h4c0.6,0,1.1,0.5,1.1,1.1l0,0
				c0,0.6-0.5,1.1-1.1,1.1h-4C9.3,74.6,8.8,74,8.8,73.4z"/>
		</g>
		<g id="XMLID_310_">
			<path id="XMLID_286_" class="st8" d="M28.2,67.1L28.2,67.1c-0.6,0-1.1-0.5-1.1-1.1v-4c0-0.6,0.5-1.1,1.1-1.1h0
				c0.6,0,1.1,0.5,1.1,1.1v4C29.3,66.6,28.8,67.1,28.2,67.1z"/>
			<path id="XMLID_285_" class="st8" d="M25.1,64L25.1,64c0-0.6,0.5-1.1,1.1-1.1h4c0.6,0,1.1,0.5,1.1,1.1l0,0c0,0.6-0.5,1.1-1.1,1.1
				h-4C25.6,65.1,25.1,64.6,25.1,64z"/>
		</g>
		<g id="XMLID_307_">
			<path id="XMLID_284_" class="st0" d="M152.5,64.4L152.5,64.4c-0.6,0-1.1-0.5-1.1-1.1v-4c0-0.6,0.5-1.1,1.1-1.1l0,0
				c0.6,0,1.1,0.5,1.1,1.1v4C153.6,63.9,153.1,64.4,152.5,64.4z"/>
			<path id="XMLID_283_" class="st0" d="M149.4,61.2L149.4,61.2c0-0.6,0.5-1.1,1.1-1.1h4c0.6,0,1.1,0.5,1.1,1.1v0
				c0,0.6-0.5,1.1-1.1,1.1h-4C149.9,62.4,149.4,61.9,149.4,61.2z"/>
		</g>
		<g id="XMLID_304_">
			<path id="XMLID_282_" class="st8" d="M170.1,69.2L170.1,69.2c-0.6,0-1.1-0.5-1.1-1.1v-4c0-0.6,0.5-1.1,1.1-1.1l0,0
				c0.6,0,1.1,0.5,1.1,1.1v4C171.2,68.7,170.7,69.2,170.1,69.2z"/>
			<path id="XMLID_281_" class="st8" d="M167,66.1L167,66.1c0-0.6,0.5-1.1,1.1-1.1h4c0.6,0,1.1,0.5,1.1,1.1l0,0
				c0,0.6-0.5,1.1-1.1,1.1h-4C167.5,67.2,167,66.7,167,66.1z"/>
		</g>
		<g id="XMLID_301_">
			<path id="XMLID_280_" class="st0" d="M25.7,87.8L25.7,87.8c-0.8,0-1.5-0.7-1.5-1.5v-5.2c0-0.8,0.7-1.5,1.5-1.5h0
				c0.8,0,1.5,0.7,1.5,1.5v5.2C27.2,87.1,26.6,87.8,25.7,87.8z"/>
			<path id="XMLID_279_" class="st0" d="M21.7,83.7L21.7,83.7c0-0.8,0.7-1.5,1.5-1.5h5.2c0.8,0,1.5,0.7,1.5,1.5l0,0
				c0,0.8-0.7,1.5-1.5,1.5h-5.2C22.3,85.2,21.7,84.5,21.7,83.7z"/>
		</g>
	</g>
	<g id="XMLID_297_">
		<path id="XMLID_278_" class="st0" d="M77.4,136.8L77.4,136.8c-0.7,0-1.4-0.6-1.4-1.4v-4.7c0-0.7,0.6-1.4,1.4-1.4l0,0
			c0.7,0,1.4,0.6,1.4,1.4v4.7C78.8,136.2,78.1,136.8,77.4,136.8z"/>
		<path id="XMLID_277_" class="st0" d="M73.7,133.1L73.7,133.1c0-0.7,0.6-1.4,1.4-1.4h4.7c0.7,0,1.4,0.6,1.4,1.4l0,0
			c0,0.7-0.6,1.4-1.4,1.4H75C74.3,134.4,73.7,133.8,73.7,133.1z"/>
	</g>
</g>
</svg>
