<?xml version="1.0" encoding="utf-8"?>
<!-- Generator: Adobe Illustrator 21.0.0, SVG Export Plug-In . SVG Version: 6.00 Build 0)  -->
<svg version="1.1" id="Layer_1" xmlns="http://www.w3.org/2000/svg" xmlns:xlink="http://www.w3.org/1999/xlink" x="0px" y="0px"
	 viewBox="0 0 152 133" style="enable-background:new 0 0 152 133;" xml:space="preserve">
<style type="text/css">
	.st0{opacity:0.5;fill:#D7F0FF;enable-background:new    ;}
	.st1{fill:#EBECF0;}
	.st2{fill:#FFFFFF;}
	.st3{fill:#F6F6F6;enable-background:new    ;}
	.st4{fill:#231F20;}
	.st5{font-family:'HelveticaNeue';}
	.st6{font-size:2.5555px;}
	.st7{fill:#66C189;}
	.st8{fill:#E5BB45;}
	.st9{fill:#DF7065;}
	.st10{fill:#E6E7E8;}
	.st11{fill:#C52E5C;}
	.st12{fill:#FCDB70;}
	.st13{fill:#BBBFC2;}
	.st14{fill:#2D434E;}
	.st15{fill:#7ED1E8;}
	.st16{fill:#D7D182;}
	.st17{fill:#F8C943;}
	.st18{fill:#3DB879;}
</style>
<path class="st0" d="M6.7,63.9L6.7,63.9c0,5.6,4.5,10.1,10.1,10.1h19.1c0.6,0,1.1,0.5,1.1,1.1l0,0c0,0.6-0.5,1.1-1.1,1.1h-2.5
	c-4.2,0-7.6,3.4-7.6,7.6l0,0c0,4.2,3.4,7.6,7.6,7.6h52.9c4.2,0,7.6-3.4,7.6-7.6l0,0c0-4.2-3.4-7.6-7.6-7.6h-18
	c-0.6,0-1.1-0.5-1.1-1.1l0,0c0-0.6,0.5-1.1,1.1-1.1h44.9c4.4,0,7.9-3.5,7.9-7.9l0,0c0-4.4-3.5-7.9-7.9-7.9H80.2
	c-1.7,0-3.1-1.4-3.1-3.1l0,0c0-1.7,1.4-3.1,3.1-3.1h21.6c2.9,0,5.2-2.3,5.2-5.2l0,0c0-2.9-2.3-5.2-5.2-5.2h-3.4
	c-2.8,0-5.1-2.3-5.1-5.1l0,0c0-2.8,2.3-5.1,5.1-5.1h6.8c4.2,0,7.6-3.4,7.6-7.6l0,0c0-4.2-3.4-7.6-7.6-7.6H12.5
	c-1.6,0-2.8,1.3-2.8,2.8l0,0c0,1.6,1.3,2.8,2.8,2.8h10.9c3.3,0,5.9,2.7,5.9,5.9l0,0c0,3.3-2.7,5.9-5.9,5.9h-0.7c-3.9,0-7,3.1-7,7
	l0,0c0,3.9,3.1,7,7,7h1.2c1.7,0,3.1,1.4,3.1,3.1l0,0c0,1.7-1.4,3.1-3.1,3.1h-7.1C11.2,53.8,6.7,58.3,6.7,63.9z"/>
<path class="st0" d="M23.5,95.1L23.5,95.1c0,6,4.9,10.9,10.9,10.9h20.7c0.7,0,1.2,0.5,1.2,1.2l0,0c0,0.7-0.5,1.2-1.2,1.2h-2.7
	c-4.6,0-8.3,3.7-8.3,8.3l0,0c0,4.6,3.7,8.3,8.3,8.3h57.4c4.6,0,8.3-3.7,8.3-8.3l0,0c0-4.6-3.7-8.3-8.3-8.3H90.3
	c-0.7,0-1.2-0.5-1.2-1.2l0,0c0-0.7,0.5-1.2,1.2-1.2H139c4.7,0,8.6-3.8,8.6-8.6l0,0c0-4.7-3.8-8.6-8.6-8.6h-35.9
	c-1.9,0-3.4-1.5-3.4-3.4l0,0c0-1.9,1.5-3.4,3.4-3.4h23.4c3.1,0,5.7-2.5,5.7-5.7l0,0c0-3.1-2.5-5.7-5.7-5.7h-3.7
	c-3,0-5.5-2.5-5.5-5.5l0,0c0-3,2.5-5.5,5.5-5.5h7.4c4.6,0,8.3-3.7,8.3-8.3l0,0c0-4.6-3.7-8.3-8.3-8.3H29.7c-1.7,0-3.1,1.4-3.1,3.1
	l0,0c0,1.7,1.4,3.1,3.1,3.1h11.8c3.5,0,6.4,2.9,6.4,6.4l0,0c0,3.5-2.9,6.4-6.4,6.4h-0.8c-4.2,0-7.6,3.4-7.6,7.6l0,0
	c0,4.2,3.4,7.6,7.6,7.6h1.3c1.9,0,3.4,1.5,3.4,3.4l0,0c0,1.9-1.5,3.4-3.4,3.4h-7.7C28.4,84.2,23.5,89.1,23.5,95.1z"/>
<circle class="st1" cx="28.6" cy="76" r="2.9"/>
<ellipse transform="matrix(0.9975 -7.132336e-02 7.132336e-02 0.9975 -5.6807 2.6127)" class="st1" cx="33.7" cy="80.9" rx="1.2" ry="1.2"/>
<circle class="st1" cx="4.1" cy="51.3" r="2.9"/>
<ellipse transform="matrix(0.9975 -7.132336e-02 7.132336e-02 0.9975 -3.9793 0.7953)" class="st1" cx="9.1" cy="56.1" rx="1.2" ry="1.2"/>
<circle class="st1" cx="92.3" cy="29.4" r="2.9"/>
<ellipse transform="matrix(0.9975 -7.132336e-02 7.132336e-02 0.9975 -2.193 7.0355)" class="st1" cx="97.4" cy="34.2" rx="1.2" ry="1.2"/>
<ellipse transform="matrix(0.9896 -0.1437 0.1437 0.9896 -0.2975 10.8151)" class="st1" cx="74.7" cy="7.5" rx="2.9" ry="2.9"/>
<ellipse transform="matrix(0.9769 -0.2139 0.2139 0.9769 -1.1875 15.43)" class="st1" cx="70.7" cy="13.2" rx="1.2" ry="1.2"/>
<ellipse transform="matrix(0.9901 -0.14 0.14 0.9901 -7.8911 11.2838)" class="st1" cx="76.2" cy="61.7" rx="2.9" ry="2.9"/>
<ellipse transform="matrix(0.9769 -0.2139 0.2139 0.9769 -12.6868 17.0498)" class="st1" cx="72.4" cy="67.2" rx="1.2" ry="1.2"/>
<ellipse transform="matrix(0.6289 -0.7775 0.7775 0.6289 5.981 128.0589)" class="st1" cx="137.1" cy="57.8" rx="2.9" ry="2.9"/>
<ellipse transform="matrix(0.5719 -0.8204 0.8204 0.5719 6.0339 140.9776)" class="st1" cx="138.1" cy="64.7" rx="1.2" ry="1.2"/>
<ellipse transform="matrix(0.5719 -0.8204 0.8204 0.5719 48.2925 118.9202)" class="st1" cx="138.1" cy="13.2" rx="1.2" ry="1.2"/>
<ellipse transform="matrix(0.5719 -0.8204 0.8204 0.5719 -6.7167 146.3428)" class="st1" cx="136.8" cy="79.6" rx="1.2" ry="1.2"/>
<ellipse transform="matrix(0.2215 -0.9751 0.9751 0.2215 58.6011 156.2115)" class="st1" cx="127.1" cy="41.4" rx="2.9" ry="2.9"/>
<ellipse transform="matrix(0.2215 -0.9751 0.9751 0.2215 97.3792 134.7207)" class="st1" cx="133.1" cy="6.4" rx="2.9" ry="2.9"/>
<ellipse transform="matrix(0.1514 -0.9885 0.9885 0.1514 58.1643 158.3693)" class="st1" cx="121.3" cy="45.3" rx="1.2" ry="1.2"/>
<ellipse transform="matrix(0.1514 -0.9885 0.9885 0.1514 44.7342 142.7224)" class="st1" cx="105.5" cy="45.3" rx="1.2" ry="1.2"/>
<ellipse transform="matrix(0.9769 -0.2139 0.2139 0.9769 -0.4565 19.7146)" class="st1" cx="90.9" cy="12" rx="1.2" ry="1.2"/>
<ellipse transform="matrix(0.1113 -0.9938 0.9938 0.1113 -0.245 88.6712)" class="st1" cx="49.5" cy="44.5" rx="2.9" ry="2.9"/>
<ellipse transform="matrix(0.1113 -0.9938 0.9938 0.1113 12.3385 101.0657)" class="st1" cx="62.7" cy="43.6" rx="1.2" ry="1.2"/>
<ellipse transform="matrix(0.1113 -0.9938 0.9938 0.1113 -4.0153 79.6549)" class="st1" cx="42.5" cy="42.1" rx="1.2" ry="1.2"/>
<g>
	<path id="XMLID_504_" class="st2" d="M128.2,104.1H33.6c-1.1,0-2.1-1-2.1-2.1V34.7c0-1.1,1-2.1,2.1-2.1h94.6c1.2,0,2.1,1,2.1,2.1
		v67.4C130.3,103.2,129.4,104.1,128.2,104.1z"/>
	<path id="XMLID_380_" class="st3" d="M31.5,43V33c0-0.2,0.1-0.3,0.3-0.3H130c0.2,0,0.3,0.1,0.3,0.3v10C130.3,43,31.5,43,31.5,43z"
		/>
	<text id="XMLID_505_" transform="matrix(1 0 0 1 47.7261 38.033)" class="st4 st5 st6">https://appscode.com/api/</text>
	<circle id="XMLID_506_" class="st7" cx="44.1" cy="37.4" r="1.4"/>
	<circle id="XMLID_508_" class="st8" cx="40.5" cy="37.4" r="1.4"/>
	<circle id="XMLID_509_" class="st9" cx="36.8" cy="37.4" r="1.4"/>
	<g id="XMLID_515_">
		<g id="XMLID_27_">
			<path id="XMLID_28_" class="st10" d="M125.3,35.6l0.8,0.7l-0.7,0.6l0.6,0.6l0.7-0.6l0.8,0.7v-2H125.3z M125.3,38.2l-0.7-0.6
				l-0.7,0.6l-0.8-0.8v2.1h2.2l-0.8-0.7L125.3,38.2z"/>
		</g>
	</g>
	<g id="XMLID_2_">
		<path id="XMLID_47_" class="st11" d="M73.9,58.4c0.4,0,0.7-0.3,0.7-0.8c0-0.4-0.3-0.8-0.7-0.8h-2.2c-0.4,0-0.7,0.3-0.7,0.8
			c0,0.4,0.3,0.8,0.7,0.8H73.9z"/>
		<path id="XMLID_46_" class="st12" d="M68.8,57.7c0-0.4-0.3-0.8-0.7-0.8h-8c-0.4,0-0.7,0.3-0.7,0.8c0,0.4,0.3,0.8,0.7,0.8h8
			C68.5,58.4,68.8,58.1,68.8,57.7z"/>
		<path id="XMLID_45_" class="st12" d="M91.7,58.4c0.4,0,0.7-0.3,0.7-0.8c0-0.4-0.3-0.8-0.7-0.8H79c-0.4,0-0.7,0.3-0.7,0.8
			c0,0.4,0.3,0.8,0.7,0.8H91.7z"/>
		<path id="XMLID_43_" class="st12" d="M60.1,71.2c-0.4,0-0.7,0.3-0.7,0.8c0,0.4,0.3,0.8,0.7,0.8h8c0.4,0,0.7-0.3,0.7-0.8
			c0-0.4-0.3-0.8-0.7-0.8H60.1z"/>
		<path id="XMLID_42_" class="st12" d="M78.6,79.9H84c0.4,0,0.7-0.3,0.7-0.8c0-0.4-0.3-0.8-0.7-0.8h-5.4c-0.4,0-0.7,0.3-0.7,0.8
			C77.9,79.6,78.2,79.9,78.6,79.9z"/>
		<path id="XMLID_41_" class="st13" d="M48.4,51.2H61c0.4,0,0.7-0.3,0.7-0.8s-0.3-0.8-0.7-0.8H48.4c-0.4,0-0.7,0.3-0.7,0.8
			S48.1,51.2,48.4,51.2z"/>
		<path id="XMLID_40_" class="st11" d="M48.4,58.4h2.2c0.4,0,0.7-0.3,0.7-0.8c0-0.4-0.3-0.8-0.7-0.8h-2.2c-0.4,0-0.7,0.3-0.7,0.8
			S48.1,58.4,48.4,58.4z"/>
		<path id="XMLID_39_" class="st14" d="M66.2,51.2h16.3c0.4,0,0.7-0.3,0.7-0.8s-0.3-0.8-0.7-0.8H66.2c-0.4,0-0.7,0.3-0.7,0.8
			S65.9,51.2,66.2,51.2z"/>
		<path id="XMLID_38_" class="st11" d="M71.7,71.2c-0.4,0-0.7,0.3-0.7,0.8c0,0.4,0.3,0.8,0.7,0.8h2.2c0.4,0,0.7-0.3,0.7-0.8
			c0-0.4-0.3-0.8-0.7-0.8H71.7z"/>
		<path id="XMLID_37_" class="st15" d="M93.8,64.9c0-0.4-0.3-0.8-0.7-0.8h-5.4c-0.4,0-0.7,0.3-0.7,0.8c0,0.4,0.3,0.8,0.7,0.8h5.4
			C93.4,65.7,93.8,65.4,93.8,64.9z"/>
		<path id="XMLID_36_" class="st11" d="M53.9,56.9c-0.4,0-0.7,0.3-0.7,0.8s0.3,0.8,0.7,0.8h2.2c0.4,0,0.7-0.3,0.7-0.8
			c0-0.4-0.3-0.8-0.7-0.8H53.9z"/>
		<path id="XMLID_35_" class="st16" d="M99.6,51.2h5.4c0.4,0,0.7-0.3,0.7-0.8s-0.3-0.8-0.7-0.8h-5.4c-0.4,0-0.7,0.3-0.7,0.8
			S99.3,51.2,99.6,51.2z"/>
		<path id="XMLID_34_" class="st15" d="M111.2,51.1h3c0.4,0,0.7-0.3,0.7-0.7s-0.3-0.7-0.7-0.7h-3c-0.4,0-0.7,0.3-0.7,0.7
			S110.8,51.1,111.2,51.1z"/>
		<path id="XMLID_33_" class="st17" d="M114.3,56.9H99.6c-0.4,0-0.7,0.3-0.7,0.8s0.3,0.8,0.7,0.8h14.7c0.4,0,0.7-0.3,0.7-0.8
			C115.1,57.3,114.7,56.9,114.3,56.9z"/>
		<path id="XMLID_32_" class="st15" d="M99.6,65.7h5.4c0.4,0,0.7-0.3,0.7-0.8c0-0.4-0.3-0.8-0.7-0.8h-5.4c-0.4,0-0.7,0.3-0.7,0.8
			C98.9,65.4,99.2,65.7,99.6,65.7z"/>
		<path id="XMLID_31_" class="st12" d="M114.2,64.2h-3c-0.4,0-0.7,0.3-0.7,0.8c0,0.4,0.3,0.8,0.7,0.8h3c0.4,0,0.7-0.3,0.7-0.8
			C114.9,64.5,114.6,64.2,114.2,64.2z"/>
		<path id="XMLID_30_" class="st15" d="M87.7,51.2h5.4c0.4,0,0.7-0.3,0.7-0.8s-0.3-0.8-0.7-0.8h-5.4c-0.4,0-0.7,0.3-0.7,0.8
			S87.2,51.2,87.7,51.2z"/>
		<path id="XMLID_29_" class="st12" d="M87.3,78.5c-0.4,0-0.7,0.3-0.7,0.8c0,0.4,0.3,0.8,0.7,0.8h1.8c0.4,0,0.7-0.3,0.7-0.8
			c0-0.4-0.3-0.8-0.7-0.8H87.3z"/>
		<path id="XMLID_26_" class="st17" d="M92.4,71.9c0-0.4-0.3-0.8-0.7-0.8H79c-0.4,0-0.7,0.3-0.7,0.8c0,0.4,0.3,0.8,0.7,0.8h12.7
			C92.1,72.7,92.4,72.4,92.4,71.9z"/>
		<path id="XMLID_25_" class="st18" d="M83.3,64.9c0-0.4-0.3-0.8-0.7-0.8H66.2c-0.4,0-0.7,0.3-0.7,0.8c0,0.4,0.3,0.8,0.7,0.8h16.3
			C82.9,65.7,83.3,65.4,83.3,64.9z"/>
		<path id="XMLID_24_" class="st18" d="M99.3,79.9h9.1c0.4,0,0.7-0.3,0.7-0.8c0-0.4-0.3-0.8-0.7-0.8h-9.1c-0.4,0-0.7,0.3-0.7,0.8
			C98.5,79.6,98.9,79.9,99.3,79.9z"/>
		<path id="XMLID_23_" class="st15" d="M74.2,91.4H59c-0.4,0-0.7,0.3-0.7,0.8c0,0.4,0.3,0.8,0.7,0.8h15.2c0.4,0,0.7-0.3,0.7-0.8
			C74.9,91.8,74.7,91.4,74.2,91.4z"/>
		<path id="XMLID_22_" class="st11" d="M94.6,91.4h-1.8c-0.4,0-0.7,0.3-0.7,0.8c0,0.4,0.3,0.8,0.7,0.8h1.8c0.4,0,0.7-0.3,0.7-0.8
			C95.3,91.8,95,91.4,94.6,91.4z"/>
		<path id="XMLID_21_" class="st18" d="M108.3,91.4h-9.1c-0.4,0-0.7,0.3-0.7,0.8c0,0.4,0.3,0.8,0.7,0.8h9.1c0.4,0,0.7-0.3,0.7-0.8
			C109,91.8,108.8,91.4,108.3,91.4z"/>
		<path id="XMLID_20_" class="st15" d="M94.6,78.5h-1.8c-0.4,0-0.7,0.3-0.7,0.8c0,0.4,0.3,0.8,0.7,0.8h1.8c0.4,0,0.7-0.3,0.7-0.8
			C95.3,78.8,95,78.5,94.6,78.5z"/>
		<path id="XMLID_19_" class="st11" d="M89.1,91.4h-1.8c-0.4,0-0.7,0.3-0.7,0.8c0,0.4,0.3,0.8,0.7,0.8h1.8c0.4,0,0.7-0.3,0.7-0.8
			C89.8,91.8,89.5,91.4,89.1,91.4z"/>
		<path id="XMLID_18_" class="st18" d="M92.4,84.9c0-0.4-0.3-0.8-0.7-0.8H79c-0.4,0-0.7,0.3-0.7,0.8c0,0.4,0.3,0.8,0.7,0.8h12.7
			C92.1,85.7,92.4,85.3,92.4,84.9z"/>
		<path id="XMLID_17_" class="st12" d="M114.3,71.2H99.6c-0.4,0-0.7,0.3-0.7,0.8c0,0.4,0.3,0.8,0.7,0.8h14.7c0.4,0,0.7-0.3,0.7-0.8
			C115.1,71.5,114.7,71.2,114.3,71.2z"/>
		<path id="XMLID_16_" class="st18" d="M84,91.4h-5.4c-0.4,0-0.7,0.3-0.7,0.8c0,0.4,0.3,0.8,0.7,0.8H84c0.4,0,0.7-0.3,0.7-0.8
			C84.7,91.8,84.4,91.4,84,91.4z"/>
		<path id="XMLID_15_" class="st12" d="M113.6,79.9c0.4,0,0.7-0.3,0.7-0.8c0-0.4-0.3-0.8-0.7-0.8h-1.8c-0.4,0-0.7,0.3-0.7,0.8
			c0,0.4,0.3,0.8,0.7,0.8H113.6z"/>
		<path id="XMLID_14_" class="st15" d="M114.3,84.2H99.6c-0.4,0-0.7,0.3-0.7,0.8s0.3,0.8,0.7,0.8h14.7c0.4,0,0.7-0.3,0.7-0.8
			C115.1,84.5,114.7,84.2,114.3,84.2z"/>
		<path id="XMLID_13_" class="st11" d="M113.6,91.4h-1.8c-0.4,0-0.7,0.3-0.7,0.8c0,0.4,0.3,0.8,0.7,0.8h1.8c0.4,0,0.7-0.3,0.7-0.8
			C114.3,91.8,114,91.4,113.6,91.4z"/>
		<path id="XMLID_12_" class="st17" d="M74.2,78.5H59c-0.4,0-0.7,0.3-0.7,0.8c0,0.4,0.3,0.8,0.7,0.8h15.2c0.4,0,0.7-0.3,0.7-0.8
			C74.9,78.8,74.7,78.5,74.2,78.5z"/>
		<path id="XMLID_11_" class="st15" d="M53.9,91.4h-5.5c-0.4,0-0.7,0.3-0.7,0.8c0,0.4,0.3,0.8,0.7,0.8h5.4c0.4,0,0.7-0.3,0.7-0.8
			C54.6,91.8,54.3,91.4,53.9,91.4z"/>
		<path id="XMLID_10_" class="st11" d="M48.4,79.9h5.4c0.4,0,0.7-0.3,0.7-0.8c0-0.4-0.3-0.8-0.7-0.8h-5.4c-0.4,0-0.7,0.3-0.7,0.8
			C47.7,79.6,48.1,79.9,48.4,79.9z"/>
		<path id="XMLID_9_" class="st18" d="M48.4,85.7h2.2c0.4,0,0.7-0.3,0.7-0.8c0-0.4-0.3-0.8-0.7-0.8h-2.2c-0.4,0-0.7,0.3-0.7,0.8
			C47.7,85.3,48.1,85.7,48.4,85.7z"/>
		<path id="XMLID_8_" class="st12" d="M48.4,72.7h2.2c0.4,0,0.7-0.3,0.7-0.8c0-0.4-0.3-0.8-0.7-0.8h-2.2c-0.4,0-0.7,0.3-0.7,0.8
			C47.7,72.4,48.1,72.7,48.4,72.7z"/>
		<path id="XMLID_7_" class="st18" d="M68.1,85.7c0.4,0,0.7-0.3,0.7-0.8c0-0.4-0.3-0.8-0.7-0.8h-8c-0.4,0-0.7,0.3-0.7,0.8
			c0,0.4,0.3,0.8,0.7,0.8H68.1z"/>
		<path id="XMLID_6_" class="st11" d="M73.9,85.7c0.4,0,0.7-0.3,0.7-0.8c0-0.4-0.3-0.8-0.7-0.8h-2.2c-0.4,0-0.7,0.3-0.7,0.8
			c0,0.4,0.3,0.8,0.7,0.8H73.9z"/>
		<path id="XMLID_5_" class="st17" d="M48.4,65.7h12.7c0.4,0,0.7-0.3,0.7-0.8c0-0.4-0.3-0.8-0.7-0.8H48.4c-0.4,0-0.7,0.3-0.7,0.8
			C47.7,65.4,48.1,65.7,48.4,65.7z"/>
		<path id="XMLID_4_" class="st18" d="M56.1,71.2h-2.2c-0.4,0-0.7,0.3-0.7,0.8c0,0.4,0.3,0.8,0.7,0.8h2.2c0.4,0,0.7-0.3,0.7-0.8
			C56.8,71.5,56.5,71.2,56.1,71.2z"/>
		<path id="XMLID_3_" class="st12" d="M56.1,84.2h-2.2c-0.4,0-0.7,0.3-0.7,0.8s0.3,0.8,0.7,0.8h2.2c0.4,0,0.7-0.3,0.7-0.8
			S56.5,84.2,56.1,84.2z"/>
	</g>
</g>
</svg>
