<?xml version="1.0" encoding="utf-8"?>
<!-- Generator: Adobe Illustrator 21.0.0, SVG Export Plug-In . SVG Version: 6.00 Build 0)  -->
<svg version="1.1" id="Layer_1" xmlns="http://www.w3.org/2000/svg" xmlns:xlink="http://www.w3.org/1999/xlink" x="0px" y="0px"
	 viewBox="0 0 152 124.9" style="enable-background:new 0 0 152 124.9;" xml:space="preserve">
<style type="text/css">
	.st0{opacity:0.5;fill:#D7F0FF;enable-background:new    ;}
	.st1{fill:#EBECF0;}
	.st2{fill:#282829;}
	.st3{fill:#7ED1E8;}
	.st4{fill:#82D2E6;}
	.st5{fill:#856EB1;}
	.st6{fill:#D7D182;}
	.st7{fill:#C52E5C;}
	.st8{fill:#BBBFC2;}
	.st9{fill:#C52B5D;}
	.st10{fill:#FFFFFF;}
	.st11{font-family:'HelveticaNeue';}
	.st12{font-size:2.5555px;}
	.st13{fill:#66C189;}
	.st14{fill:#E5BB45;}
	.st15{fill:#DF7065;}
</style>
<path class="st0" d="M2.6,64.6L2.6,64.6c0,5.6,4.5,10.1,10.1,10.1h19.1c0.6,0,1.1,0.5,1.1,1.1l0,0c0,0.6-0.5,1.1-1.1,1.1h-2.5
	c-4.2,0-7.6,3.4-7.6,7.6l0,0c0,4.2,3.4,7.6,7.6,7.6h52.9c4.2,0,7.6-3.4,7.6-7.6l0,0c0-4.2-3.4-7.6-7.6-7.6h-18
	c-0.6,0-1.1-0.5-1.1-1.1l0,0c0-0.6,0.5-1.1,1.1-1.1h44.9c4.4,0,7.9-3.5,7.9-7.9l0,0c0-4.4-3.5-7.9-7.9-7.9H76.1
	c-1.7,0-3.1-1.4-3.1-3.1l0,0c0-1.7,1.4-3.1,3.1-3.1h21.6c2.9,0,5.2-2.3,5.2-5.2l0,0c0-2.9-2.3-5.2-5.2-5.2h-3.4
	c-2.8,0-5.1-2.3-5.1-5.1l0,0c0-2.8,2.3-5.1,5.1-5.1h6.8c4.2,0,7.6-3.4,7.6-7.6l0,0c0-4.2-3.4-7.6-7.6-7.6H8.4
	c-1.6,0-2.8,1.3-2.8,2.8l0,0c0,1.6,1.3,2.8,2.8,2.8h10.9c3.3,0,5.9,2.7,5.9,5.9l0,0c0,3.3-2.7,5.9-5.9,5.9h-0.7c-3.9,0-7,3.1-7,7
	l0,0c0,3.9,3.1,7,7,7h1.2c1.7,0,3.1,1.4,3.1,3.1l0,0c0,1.7-1.4,3.1-3.1,3.1h-7.1C7.1,54.5,2.6,59,2.6,64.6z"/>
<path class="st0" d="M35.5,82L35.5,82c0,5.6,4.5,10.1,10.1,10.1h19.1c0.6,0,1.1,0.5,1.1,1.1l0,0c0,0.6-0.5,1.1-1.1,1.1h-2.5
	c-4.2,0-7.6,3.4-7.6,7.6l0,0c0,4.2,3.4,7.6,7.6,7.6h52.9c4.2,0,7.6-3.4,7.6-7.6l0,0c0-4.2-3.4-7.6-7.6-7.6h-18
	c-0.6,0-1.1-0.5-1.1-1.1l0,0c0-0.6,0.5-1.1,1.1-1.1h44.9c4.4,0,7.9-3.5,7.9-7.9l0,0c0-4.4-3.5-7.9-7.9-7.9h-33.1
	c-1.7,0-3.1-1.4-3.1-3.1l0,0c0-1.7,1.4-3.1,3.1-3.1h21.6c2.9,0,5.2-2.3,5.2-5.2l0,0c0-2.9-2.3-5.2-5.2-5.2h-3.4
	c-2.8,0-5.1-2.3-5.1-5.1l0,0c0-2.8,2.3-5.1,5.1-5.1h6.8c4.2,0,7.6-3.4,7.6-7.6l0,0c0-4.2-3.4-7.6-7.6-7.6H41.3
	c-1.6,0-2.8,1.3-2.8,2.8l0,0c0,1.6,1.3,2.8,2.8,2.8h10.9c3.3,0,5.9,2.7,5.9,5.9l0,0c0,3.3-2.7,5.9-5.9,5.9h-0.7c-3.9,0-7,3.1-7,7
	l0,0c0,3.9,3.1,7,7,7h1.2c1.7,0,3.1,1.4,3.1,3.1l0,0c0,1.7-1.4,3.1-3.1,3.1h-7.1C40.1,71.9,35.5,76.4,35.5,82z"/>
<circle class="st1" cx="27.9" cy="86.1" r="2.9"/>
<ellipse transform="matrix(0.9975 -7.132336e-02 7.132336e-02 0.9975 -6.3979 2.5816)" class="st1" cx="33" cy="90.9" rx="1.2" ry="1.2"/>
<circle class="st1" cx="3.3" cy="61.3" r="2.9"/>
<ellipse transform="matrix(0.9975 -7.132336e-02 7.132336e-02 0.9975 -4.6966 0.7643)" class="st1" cx="8.4" cy="66.1" rx="1.2" ry="1.2"/>
<circle class="st1" cx="91.5" cy="39.4" r="2.9"/>
<ellipse transform="matrix(0.9975 -7.132336e-02 7.132336e-02 0.9975 -2.9103 7.0044)" class="st1" cx="96.6" cy="44.3" rx="1.2" ry="1.2"/>
<ellipse transform="matrix(0.9896 -0.1437 0.1437 0.9896 -1.7464 10.8052)" class="st1" cx="73.9" cy="17.5" rx="2.9" ry="2.9"/>
<ellipse transform="matrix(0.9769 -0.2139 0.2139 0.9769 -3.3507 15.4925)" class="st1" cx="69.9" cy="23.2" rx="1.2" ry="1.2"/>
<ellipse transform="matrix(0.9901 -0.14 0.14 0.9901 -9.3031 11.2715)" class="st1" cx="75.5" cy="71.7" rx="2.9" ry="2.9"/>
<ellipse transform="matrix(0.9769 -0.2139 0.2139 0.9769 -14.8501 17.1122)" class="st1" cx="71.7" cy="77.2" rx="1.2" ry="1.2"/>
<ellipse transform="matrix(0.6289 -0.7775 0.7775 0.6289 -2.1102 131.1637)" class="st1" cx="136.3" cy="67.8" rx="2.9" ry="2.9"/>
<ellipse transform="matrix(0.5719 -0.8204 0.8204 0.5719 -2.5326 144.6206)" class="st1" cx="137.3" cy="74.7" rx="1.2" ry="1.2"/>
<ellipse transform="matrix(0.5719 -0.8204 0.8204 0.5719 39.7261 122.5632)" class="st1" cx="137.3" cy="23.2" rx="1.2" ry="1.2"/>
<ellipse transform="matrix(0.5719 -0.8204 0.8204 0.5719 -15.2831 149.9858)" class="st1" cx="136.1" cy="89.6" rx="1.2" ry="1.2"/>
<ellipse transform="matrix(0.2215 -0.9751 0.9751 0.2215 48.2044 163.2447)" class="st1" cx="126.3" cy="51.4" rx="2.9" ry="2.9"/>
<ellipse transform="matrix(0.2215 -0.9751 0.9751 0.2215 86.9825 141.7539)" class="st1" cx="132.3" cy="16.4" rx="2.9" ry="2.9"/>
<ellipse transform="matrix(0.1514 -0.9885 0.9885 0.1514 47.5784 166.0951)" class="st1" cx="120.5" cy="55.3" rx="1.2" ry="1.2"/>
<ellipse transform="matrix(0.1514 -0.9885 0.9885 0.1514 34.1483 150.4482)" class="st1" cx="104.7" cy="55.3" rx="1.2" ry="1.2"/>
<ellipse transform="matrix(0.9769 -0.2139 0.2139 0.9769 -2.6198 19.777)" class="st1" cx="90.1" cy="22" rx="1.2" ry="1.2"/>
<ellipse transform="matrix(0.1113 -0.9938 0.9938 0.1113 -10.9161 96.7953)" class="st1" cx="48.7" cy="54.5" rx="2.9" ry="2.9"/>
<ellipse transform="matrix(0.1113 -0.9938 0.9938 0.1113 1.6674 109.1899)" class="st1" cx="61.9" cy="53.7" rx="1.2" ry="1.2"/>
<ellipse transform="matrix(0.1113 -0.9938 0.9938 0.1113 -14.6864 87.7791)" class="st1" cx="41.7" cy="52.1" rx="1.2" ry="1.2"/>
<g id="XMLID_514_">
	<path id="XMLID_504_" d="M122.7,112.9H28.1c-1.1,0-2.1-1-2.1-2.1V43.5c0-1.1,1-2.1,2.1-2.1h94.6c1.2,0,2.1,1,2.1,2.1v67.4
		C124.8,112,123.9,112.9,122.7,112.9z"/>
	<path id="XMLID_380_" class="st2" d="M26,51.8v-10c0-0.2,0.1-0.3,0.3-0.3h98.1c0.2,0,0.3,0.1,0.3,0.3v10
		C124.8,51.8,26,51.8,26,51.8z"/>
	<g id="XMLID_440_">
		<rect id="XMLID_503_" x="36.3" y="58.6" class="st3" width="14.1" height="1.6"/>
		<rect id="XMLID_502_" x="43.1" y="62.2" class="st3" width="10.6" height="1.6"/>
		<rect id="XMLID_501_" x="43.3" y="67.9" class="st3" width="3" height="1.6"/>
		<rect id="XMLID_500_" x="51.8" y="58.6" class="st3" width="11.9" height="1.6"/>
		<rect id="XMLID_499_" x="60.2" y="71.4" class="st4" width="8.3" height="1.6"/>
		<rect id="XMLID_498_" x="63.6" y="74.7" class="st4" width="10.6" height="1.6"/>
		<rect id="XMLID_496_" x="63.6" y="94.7" class="st4" width="10.6" height="1.6"/>
		<rect id="XMLID_494_" x="50.6" y="98.1" class="st4" width="5.8" height="1.6"/>
		<rect id="XMLID_492_" x="57.9" y="98.1" class="st5" width="7.7" height="1.6"/>
		<rect id="XMLID_491_" x="67" y="98.1" class="st6" width="4.9" height="1.6"/>
		<rect id="XMLID_488_" x="50.6" y="78.3" class="st4" width="9.6" height="1.6"/>
		<rect id="XMLID_487_" x="50.6" y="81.7" class="st4" width="9.6" height="1.6"/>
		<rect id="XMLID_484_" x="70.2" y="71.4" class="st6" width="19.4" height="1.6"/>
		<rect id="XMLID_483_" x="75.7" y="74.7" class="st6" width="11.3" height="1.6"/>
		<rect id="XMLID_480_" x="77.5" y="78.3" class="st6" width="8.4" height="1.6"/>
		<rect id="XMLID_478_" x="75.8" y="94.7" class="st6" width="11.3" height="1.6"/>
		<rect id="XMLID_476_" x="68.2" y="78.2" class="st5" width="7.5" height="1.6"/>
		<rect id="XMLID_474_" x="60.5" y="74.8" class="st7" width="1.6" height="1.6"/>
		<rect id="XMLID_472_" x="57" y="71.4" class="st7" width="1.6" height="1.6"/>
		<g id="XMLID_445_">
			<rect id="XMLID_470_" x="65.3" y="58.6" class="st8" width="22" height="1.6"/>
			<rect id="XMLID_468_" x="55.3" y="62.2" class="st8" width="22" height="1.6"/>
			<rect id="XMLID_466_" x="47.9" y="67.9" class="st8" width="22" height="1.6"/>
			<rect id="XMLID_464_" x="50.6" y="71.4" class="st8" width="4.9" height="1.6"/>
			<rect id="XMLID_462_" x="61.9" y="78.2" class="st8" width="4.9" height="1.6"/>
			<rect id="XMLID_460_" x="61.9" y="81.7" class="st8" width="4.9" height="1.6"/>
			<rect id="XMLID_459_" x="50.6" y="74.7" class="st8" width="8.3" height="1.6"/>
			<rect id="XMLID_456_" x="48.1" y="91.2" class="st8" width="13.5" height="1.6"/>
			<rect id="XMLID_455_" x="50.6" y="94.7" class="st8" width="8.2" height="1.6"/>
			<rect id="XMLID_452_" x="43.5" y="85.2" class="st8" width="1.3" height="1.5"/>
			<rect id="XMLID_449_" x="43.5" y="101.3" class="st8" width="1.3" height="1.5"/>
			<rect id="XMLID_448_" x="36.5" y="105.5" class="st8" width="1.3" height="1.5"/>
		</g>
		<rect id="XMLID_444_" x="60.5" y="94.7" class="st9" width="1.3" height="1.5"/>
		<rect id="XMLID_441_" x="43.2" y="91.3" class="st9" width="3.4" height="1.5"/>
	</g>
	<text id="XMLID_505_" transform="matrix(1 0 0 1 42.2375 46.8248)" class="st10 st11 st12">https://appscode.com/cli/</text>
	<circle id="XMLID_506_" class="st13" cx="38.6" cy="46.2" r="1.4"/>
	<circle id="XMLID_508_" class="st14" cx="35" cy="46.2" r="1.4"/>
	<circle id="XMLID_509_" class="st15" cx="31.3" cy="46.2" r="1.4"/>
	<g id="XMLID_515_">
		<g id="XMLID_27_">
			<path id="XMLID_28_" d="M119.8,44.4l0.8,0.7l-0.7,0.6l0.6,0.6l0.7-0.6l0.8,0.7v-2H119.8z M119.8,47l-0.7-0.6l-0.7,0.6l-0.8-0.8
				v2.1h2.2l-0.8-0.7L119.8,47z"/>
		</g>
	</g>
</g>
</svg>
