<?xml version="1.0" encoding="utf-8"?>
<!-- Generator: Adobe Illustrator 19.0.0, SVG Export Plug-In . SVG Version: 6.00 Build 0)  -->
<svg version="1.1" id="Layer_1" xmlns="http://www.w3.org/2000/svg" xmlns:xlink="http://www.w3.org/1999/xlink" x="0px" y="0px"
	 viewBox="0 0 182 182" style="enable-background:new 0 0 182 182;" xml:space="preserve">
<style type="text/css">
	.st0{display:none;}
	.st1{display:inline;fill:#C52E5C;}
	.st2{display:inline;fill:#FCDB70;}
	.st3{display:inline;fill:#BBBFC2;}
	.st4{display:inline;fill:#2D434E;}
	.st5{display:inline;fill:#7ED1E8;}
	.st6{display:inline;fill:#D7D182;}
	.st7{display:inline;fill:#F8C943;}
	.st8{display:inline;fill:#3DB879;}
	.st9{display:inline;fill:#82D2E6;}
	.st10{display:inline;fill:#856EB1;}
	.st11{display:inline;}
	.st12{fill:#BBBFC2;}
	.st13{display:inline;fill:#C52B5D;}
	.st14{fill:#EE6A54;}
	.st15{fill:#F1B461;}
	.st16{fill:#FFFFFF;}
	.st17{fill:#4AC4DE;}
	.st18{fill:#9FDBED;}
	.st19{fill:#37C2D9;}
	.st20{fill:#535258;}
	.st21{fill:#009EB9;}
	.st22{fill:#3D3C43;}
	.st23{fill:#87D3E9;}
	.st24{fill:#FAE54D;}
	.st25{fill:#EE4931;}
	.st26{fill:#EF634E;}
	.st27{fill:#7294CD;}
</style>
<g id="XMLID_1_" class="st0">
	<path id="XMLID_44_" class="st1" d="M75.5,63.6c0.8,0,1.5-0.7,1.5-1.6c0-0.9-0.7-1.6-1.5-1.6h-4.6c-0.8,0-1.5,0.7-1.5,1.6
		c0,0.9,0.7,1.6,1.5,1.6H75.5z"/>
	<path id="XMLID_110_" class="st2" d="M64.7,62c0-0.9-0.7-1.6-1.5-1.6H46.3c-0.8,0-1.5,0.7-1.5,1.6c0,0.9,0.7,1.6,1.5,1.6h16.9
		C64,63.6,64.7,62.9,64.7,62z"/>
	<path id="XMLID_111_" class="st2" d="M113.1,63.6c0.8,0,1.5-0.7,1.5-1.6c0-0.9-0.7-1.6-1.5-1.6H86.2c-0.8,0-1.5,0.7-1.5,1.6
		c0,0.9,0.7,1.6,1.5,1.6H113.1z"/>
	<path id="XMLID_112_" class="st2" d="M46.3,90.6c-0.8,0-1.5,0.7-1.5,1.6c0,0.9,0.7,1.6,1.5,1.6h16.9c0.8,0,1.5-0.7,1.5-1.6
		c0-0.9-0.7-1.6-1.5-1.6H46.3z"/>
	<path id="XMLID_113_" class="st2" d="M85.4,109.1h11.5c0.8,0,1.5-0.7,1.5-1.6c0-0.9-0.7-1.6-1.5-1.6H85.4c-0.8,0-1.5,0.7-1.5,1.6
		C83.9,108.4,84.6,109.1,85.4,109.1z"/>
	<path id="XMLID_114_" class="st3" d="M21.8,48.3h26.6c0.8,0,1.5-0.7,1.5-1.6c0-0.9-0.7-1.6-1.5-1.6H21.8c-0.8,0-1.5,0.7-1.5,1.6
		C20.2,47.5,20.9,48.3,21.8,48.3z"/>
	<path id="XMLID_115_" class="st1" d="M21.8,63.6h4.6c0.8,0,1.5-0.7,1.5-1.6c0-0.9-0.7-1.6-1.5-1.6h-4.6c-0.8,0-1.5,0.7-1.5,1.6
		C20.2,62.9,20.9,63.6,21.8,63.6z"/>
	<path id="XMLID_116_" class="st4" d="M59.3,48.3h34.5c0.8,0,1.5-0.7,1.5-1.6c0-0.9-0.7-1.6-1.5-1.6H59.3c-0.8,0-1.5,0.7-1.5,1.6
		C57.8,47.5,58.5,48.3,59.3,48.3z"/>
	<path id="XMLID_117_" class="st1" d="M70.9,90.6c-0.8,0-1.5,0.7-1.5,1.6c0,0.9,0.7,1.6,1.5,1.6h4.6c0.8,0,1.5-0.7,1.5-1.6
		c0-0.9-0.7-1.6-1.5-1.6H70.9z"/>
	<path id="XMLID_118_" class="st5" d="M117.5,77.4c0-0.9-0.7-1.6-1.5-1.6h-11.5c-0.8,0-1.5,0.7-1.5,1.6c0,0.9,0.7,1.6,1.5,1.6H116
		C116.9,78.9,117.5,78.2,117.5,77.4z"/>
	<path id="XMLID_119_" class="st1" d="M33.3,60.4c-0.8,0-1.5,0.7-1.5,1.6c0,0.9,0.7,1.6,1.5,1.6h4.6c0.8,0,1.5-0.7,1.5-1.6
		c0-0.9-0.7-1.6-1.5-1.6H33.3z"/>
	<path id="XMLID_120_" class="st6" d="M129.9,48.3h11.5c0.8,0,1.5-0.7,1.5-1.6c0-0.9-0.7-1.6-1.5-1.6h-11.5c-0.8,0-1.5,0.7-1.5,1.6
		C128.4,47.5,129.1,48.3,129.9,48.3z"/>
	<path id="XMLID_121_" class="st5" d="M154.3,48.2h6.4c0.8,0,1.5-0.7,1.5-1.5c0-0.8-0.7-1.5-1.5-1.5h-6.4c-0.8,0-1.5,0.7-1.5,1.5
		C152.8,47.5,153.5,48.2,154.3,48.2z"/>
	<path id="XMLID_122_" class="st7" d="M161,60.4h-31c-0.8,0-1.5,0.7-1.5,1.6c0,0.9,0.7,1.6,1.5,1.6h31c0.8,0,1.5-0.7,1.5-1.6
		C162.5,61.1,161.8,60.4,161,60.4z"/>
	<path id="XMLID_123_" class="st5" d="M129.8,78.9h11.5c0.8,0,1.5-0.7,1.5-1.6c0-0.9-0.7-1.6-1.5-1.6h-11.5c-0.8,0-1.5,0.7-1.5,1.6
		C128.3,78.2,129,78.9,129.8,78.9z"/>
	<path id="XMLID_124_" class="st2" d="M160.7,75.8h-6.4c-0.8,0-1.5,0.7-1.5,1.6c0,0.9,0.7,1.6,1.5,1.6h6.4c0.8,0,1.5-0.7,1.5-1.6
		C162.2,76.5,161.5,75.8,160.7,75.8z"/>
	<path id="XMLID_125_" class="st5" d="M104.6,48.3h11.5c0.8,0,1.5-0.7,1.5-1.6c0-0.9-0.7-1.6-1.5-1.6h-11.5c-0.8,0-1.5,0.7-1.5,1.6
		C103.1,47.5,103.8,48.3,104.6,48.3z"/>
	<path id="XMLID_126_" class="st2" d="M103.8,105.9c-0.8,0-1.5,0.7-1.5,1.6c0,0.9,0.7,1.6,1.5,1.6h3.8c0.8,0,1.5-0.7,1.5-1.6
		c0-0.9-0.7-1.6-1.5-1.6H103.8z"/>
	<path id="XMLID_127_" class="st7" d="M114.6,92.2c0-0.9-0.7-1.6-1.5-1.6H86.2c-0.8,0-1.5,0.7-1.5,1.6c0,0.9,0.7,1.6,1.5,1.6h26.9
		C113.9,93.8,114.6,93,114.6,92.2z"/>
	<path id="XMLID_128_" class="st8" d="M95.3,77.4c0-0.9-0.7-1.6-1.5-1.6H59.3c-0.8,0-1.5,0.7-1.5,1.6c0,0.9,0.7,1.6,1.5,1.6h34.5
		C94.6,78.9,95.3,78.2,95.3,77.4z"/>
	<path id="XMLID_129_" class="st8" d="M129.2,109.1h19.2c0.8,0,1.5-0.7,1.5-1.6c0-0.9-0.7-1.6-1.5-1.6h-19.2c-0.8,0-1.5,0.7-1.5,1.6
		C127.6,108.4,128.3,109.1,129.2,109.1z"/>
	<path id="XMLID_130_" class="st5" d="M76.2,133.4H44c-0.8,0-1.5,0.7-1.5,1.6c0,0.9,0.7,1.6,1.5,1.6h32.2c0.8,0,1.5-0.7,1.5-1.6
		C77.8,134.1,77.1,133.4,76.2,133.4z"/>
	<path id="XMLID_131_" class="st1" d="M119.2,133.4h-3.8c-0.8,0-1.5,0.7-1.5,1.6c0,0.9,0.7,1.6,1.5,1.6h3.8c0.8,0,1.5-0.7,1.5-1.6
		C120.7,134.1,120,133.4,119.2,133.4z"/>
	<path id="XMLID_132_" class="st8" d="M148.3,133.4h-19.2c-0.8,0-1.5,0.7-1.5,1.6c0,0.9,0.7,1.6,1.5,1.6h19.2c0.8,0,1.5-0.7,1.5-1.6
		C149.9,134.1,149.2,133.4,148.3,133.4z"/>
	<path id="XMLID_133_" class="st5" d="M119.2,105.9h-3.8c-0.8,0-1.5,0.7-1.5,1.6c0,0.9,0.7,1.6,1.5,1.6h3.8c0.8,0,1.5-0.7,1.5-1.6
		C120.7,106.6,120,105.9,119.2,105.9z"/>
	<path id="XMLID_134_" class="st1" d="M107.7,133.4h-3.8c-0.8,0-1.5,0.7-1.5,1.6c0,0.9,0.7,1.6,1.5,1.6h3.8c0.8,0,1.5-0.7,1.5-1.6
		C109.2,134.1,108.5,133.4,107.7,133.4z"/>
	<path id="XMLID_135_" class="st8" d="M114.6,119.6c0-0.9-0.7-1.6-1.5-1.6H86.2c-0.8,0-1.5,0.7-1.5,1.6c0,0.9,0.7,1.6,1.5,1.6h26.9
		C113.9,121.2,114.6,120.5,114.6,119.6z"/>
	<path id="XMLID_136_" class="st2" d="M161,90.6h-31c-0.8,0-1.5,0.7-1.5,1.6c0,0.9,0.7,1.6,1.5,1.6h31c0.8,0,1.5-0.7,1.5-1.6
		C162.5,91.3,161.8,90.6,161,90.6z"/>
	<path id="XMLID_137_" class="st8" d="M96.9,133.4H85.4c-0.8,0-1.5,0.7-1.5,1.6c0,0.9,0.7,1.6,1.5,1.6h11.5c0.8,0,1.5-0.7,1.5-1.6
		C98.5,134.1,97.8,133.4,96.9,133.4z"/>
	<path id="XMLID_138_" class="st2" d="M159.4,109.1c0.8,0,1.5-0.7,1.5-1.6c0-0.9-0.7-1.6-1.5-1.6h-3.8c-0.8,0-1.5,0.7-1.5,1.6
		c0,0.9,0.7,1.6,1.5,1.6H159.4z"/>
	<path id="XMLID_139_" class="st5" d="M161,118h-31c-0.8,0-1.5,0.7-1.5,1.6c0,0.9,0.7,1.6,1.5,1.6h31c0.8,0,1.5-0.7,1.5-1.6
		C162.5,118.7,161.8,118,161,118z"/>
	<path id="XMLID_140_" class="st1" d="M159.4,133.4h-3.8c-0.8,0-1.5,0.7-1.5,1.6c0,0.9,0.7,1.6,1.5,1.6h3.8c0.8,0,1.5-0.7,1.5-1.6
		C161,134.1,160.3,133.4,159.4,133.4z"/>
	<path id="XMLID_141_" class="st7" d="M76.2,105.9H44c-0.8,0-1.5,0.7-1.5,1.6c0,0.9,0.7,1.6,1.5,1.6h32.2c0.8,0,1.5-0.7,1.5-1.6
		C77.8,106.6,77.1,105.9,76.2,105.9z"/>
	<path id="XMLID_142_" class="st5" d="M33.3,133.4H21.8c-0.8,0-1.5,0.7-1.5,1.6c0,0.9,0.7,1.6,1.5,1.6h11.5c0.8,0,1.5-0.7,1.5-1.6
		C34.8,134.1,34.1,133.4,33.3,133.4z"/>
	<path id="XMLID_143_" class="st1" d="M21.8,109.1h11.5c0.8,0,1.5-0.7,1.5-1.6c0-0.9-0.7-1.6-1.5-1.6H21.8c-0.8,0-1.5,0.7-1.5,1.6
		C20.2,108.4,20.9,109.1,21.8,109.1z"/>
	<path id="XMLID_144_" class="st8" d="M21.8,121.2h4.6c0.8,0,1.5-0.7,1.5-1.6c0-0.9-0.7-1.6-1.5-1.6h-4.6c-0.8,0-1.5,0.7-1.5,1.6
		C20.2,120.5,20.9,121.2,21.8,121.2z"/>
	<path id="XMLID_145_" class="st2" d="M21.8,93.8h4.6c0.8,0,1.5-0.7,1.5-1.6c0-0.9-0.7-1.6-1.5-1.6h-4.6c-0.8,0-1.5,0.7-1.5,1.6
		C20.2,93,20.9,93.8,21.8,93.8z"/>
	<path id="XMLID_146_" class="st8" d="M63.2,121.2c0.8,0,1.5-0.7,1.5-1.6c0-0.9-0.7-1.6-1.5-1.6H46.3c-0.8,0-1.5,0.7-1.5,1.6
		c0,0.9,0.7,1.6,1.5,1.6H63.2z"/>
	<path id="XMLID_147_" class="st1" d="M75.5,121.2c0.8,0,1.5-0.7,1.5-1.6c0-0.9-0.7-1.6-1.5-1.6h-4.6c-0.8,0-1.5,0.7-1.5,1.6
		c0,0.9,0.7,1.6,1.5,1.6H75.5z"/>
	<path id="XMLID_148_" class="st7" d="M21.8,78.9h26.8c0.8,0,1.5-0.7,1.5-1.6c0-0.9-0.7-1.6-1.5-1.6H21.8c-0.8,0-1.5,0.7-1.5,1.6
		C20.2,78.2,20.9,78.9,21.8,78.9z"/>
	<path id="XMLID_149_" class="st8" d="M37.9,90.6h-4.6c-0.8,0-1.5,0.7-1.5,1.6c0,0.9,0.7,1.6,1.5,1.6h4.6c0.8,0,1.5-0.7,1.5-1.6
		C39.4,91.3,38.7,90.6,37.9,90.6z"/>
	<path id="XMLID_150_" class="st2" d="M37.9,118h-4.6c-0.8,0-1.5,0.7-1.5,1.6c0,0.9,0.7,1.6,1.5,1.6h4.6c0.8,0,1.5-0.7,1.5-1.6
		C39.4,118.7,38.7,118,37.9,118z"/>
</g>
<g id="XMLID_185_" class="st0">
	<rect id="XMLID_2_" x="19.2" y="26.6" class="st5" width="39.5" height="4.6"/>
	<rect id="XMLID_155_" x="38.3" y="36.8" class="st5" width="29.6" height="4.6"/>
	<rect id="XMLID_157_" x="39" y="52.4" class="st5" width="8.4" height="4.6"/>
	<rect id="XMLID_153_" x="62.5" y="26.6" class="st5" width="33.4" height="4.6"/>
	<rect id="XMLID_161_" x="86" y="62.2" class="st9" width="23.2" height="4.6"/>
	<rect id="XMLID_164_" x="95.5" y="71.5" class="st9" width="29.5" height="4.6"/>
	<rect id="XMLID_177_" x="95.5" y="127.2" class="st9" width="29.5" height="4.6"/>
	<rect id="XMLID_181_" x="59.1" y="136.9" class="st9" width="16.3" height="4.6"/>
	<rect id="XMLID_182_" x="79.7" y="136.9" class="st10" width="21.4" height="4.6"/>
	<rect id="XMLID_183_" x="105" y="136.9" class="st6" width="13.8" height="4.6"/>
	<rect id="XMLID_170_" x="59.1" y="81.6" class="st9" width="26.8" height="4.6"/>
	<rect id="XMLID_171_" x="59.1" y="90.9" class="st9" width="26.8" height="4.6"/>
	<rect id="XMLID_162_" x="114" y="62.2" class="st6" width="54.2" height="4.6"/>
	<rect id="XMLID_165_" x="129.3" y="71.7" class="st6" width="31.6" height="4.6"/>
	<rect id="XMLID_166_" x="134.3" y="81.6" class="st6" width="23.3" height="4.6"/>
	<rect id="XMLID_180_" x="129.4" y="127.2" class="st6" width="31.5" height="4.6"/>
	<rect id="XMLID_167_" x="108.4" y="81.2" class="st10" width="21" height="4.6"/>
	<rect id="XMLID_160_" x="86.8" y="71.8" class="st1" width="4.3" height="4.6"/>
	<rect id="XMLID_173_" x="77.2" y="62.2" class="st1" width="4.3" height="4.6"/>
	<g id="XMLID_152_" class="st11">
		<rect id="XMLID_154_" x="100.2" y="26.6" class="st12" width="61.5" height="4.6"/>
		<rect id="XMLID_156_" x="72.4" y="36.8" class="st12" width="61.5" height="4.6"/>
		<rect id="XMLID_158_" x="51.7" y="52.4" class="st12" width="61.5" height="4.6"/>
		<rect id="XMLID_159_" x="59.1" y="62.2" class="st12" width="13.8" height="4.6"/>
		<rect id="XMLID_168_" x="90.7" y="81.2" class="st12" width="13.8" height="4.6"/>
		<rect id="XMLID_169_" x="90.7" y="90.9" class="st12" width="13.8" height="4.6"/>
		<rect id="XMLID_163_" x="59.1" y="71.5" class="st12" width="23.2" height="4.6"/>
		<rect id="XMLID_174_" x="52.3" y="117.4" class="st12" width="37.6" height="4.6"/>
		<rect id="XMLID_176_" x="59.1" y="127.2" class="st12" width="23" height="4.6"/>
		<rect id="XMLID_172_" x="39.4" y="100.7" class="st12" width="3.7" height="4.1"/>
		<rect id="XMLID_178_" x="39.4" y="145.6" class="st12" width="3.7" height="4.1"/>
		<rect id="XMLID_184_" x="20" y="157.5" class="st12" width="3.7" height="4.1"/>
	</g>
	<rect id="XMLID_179_" x="87" y="127.4" class="st13" width="3.7" height="4.1"/>
	<rect id="XMLID_175_" x="38.5" y="117.7" class="st13" width="9.3" height="4.1"/>
</g>
<g id="XMLID_258_">
	<polygon id="XMLID_256_" class="st14" points="168.1,117.1 167.1,121.2 164.3,120.3 166.6,122.2 164.3,125 167.6,122.5 
		170.6,125.8 168.7,122.1 171.6,120.7 168.2,121.2 	"/>
	<circle id="XMLID_255_" class="st15" cx="103.7" cy="13.5" r="1.1"/>
	<circle id="XMLID_254_" class="st15" cx="123.9" cy="42.5" r="1.1"/>
	<circle id="XMLID_253_" class="st15" cx="151.7" cy="42.5" r="1.4"/>
	<circle id="XMLID_252_" class="st16" cx="151.7" cy="148.1" r="1.1"/>
	<circle id="XMLID_251_" class="st14" cx="26.9" cy="72.8" r="1.9"/>
	<path id="XMLID_248_" class="st17" d="M66.8,164.9l-15.5-15.5c-1.1-1.1-1.7-2.5-1.7-4V70.5c0-5,4.1-9.1,9.1-9.1h66.3
		c5,0,9.1,4.1,9.1,9.1v86.9c0,5-4.1,9.1-9.1,9.1H70.9C69.4,166.5,67.9,165.9,66.8,164.9L66.8,164.9z M66.8,164.9"/>
	<path id="XMLID_245_" class="st18" d="M66.8,164.9l-15.5-15.5c-1.1-1.1-1.7-2.5-1.7-4v-6.2h18.3c5,0,9.1,4.1,9.1,9.1v18.3h-6.2
		C69.4,166.5,67.9,165.9,66.8,164.9L66.8,164.9z M66.8,164.9"/>
	<path id="XMLID_242_" class="st19" d="M134.2,91.5v23.6l-82.4-9.6c-1.3-0.4-2.2-1.6-2.2-2.9V91.5H134.2z M134.2,91.5"/>
	<path id="XMLID_239_" class="st20" d="M130.8,90V74c0-0.6,0.5-1.1,1.1-1.1h3.4c5,0,9.1,4.1,9.1,9.1c0,5-4.1,9.1-9.1,9.1h-3.4
		C131.3,91.1,130.8,90.6,130.8,90L130.8,90z M130.8,90"/>
	<path id="XMLID_236_" class="st17" d="M43.9,93.4V70.5c0-5,4.1-9.1,9.1-9.1h77.7c5,0,9.1,4.1,9.1,9.1v22.9c0,5-4.1,9.1-9.1,9.1
		H53.1C48,102.5,43.9,98.4,43.9,93.4L43.9,93.4z M43.9,93.4"/>
	<path id="XMLID_233_" class="st19" d="M43.9,95.7V68.3c0-3.8,3.1-6.9,6.9-6.9c3.8,0,6.9,3.1,6.9,6.9v27.4c0,3.8-3.1,6.9-6.9,6.9
		C47,102.5,43.9,99.5,43.9,95.7L43.9,95.7z M43.9,95.7"/>
	<path id="XMLID_230_" class="st18" d="M123.9,91.1H73.6c-5,0-9.1-4.1-9.1-9.1c0-5,4.1-9.1,9.1-9.1h50.3c5,0,9.1,4.1,9.1,9.1
		C133.1,87,129,91.1,123.9,91.1L123.9,91.1z M123.9,91.1"/>
	<path id="XMLID_227_" class="st21" d="M43.9,93.4V70.5c0-2.5,2-4.6,4.6-4.6c2.5,0,4.6,2,4.6,4.6v22.9c0,2.5-2,4.6-4.6,4.6
		C46,98,43.9,95.9,43.9,93.4L43.9,93.4z M43.9,93.4"/>
	<path id="XMLID_224_" class="st20" d="M48.5,91.1c-5,0-9.1-4.1-9.1-9.1c0-5,4.1-9.1,9.1-9.1h4.6v18.3H48.5z M48.5,91.1"/>
	<path id="XMLID_221_" class="st22" d="M48.5,72.8h4.6v18.3c-1.3,0-2.4-1-2.6-2.3L48.5,72.8z M48.5,72.8"/>
	<path id="XMLID_218_" class="st23" d="M94.5,114.8h-13c-0.8,0-1.4-0.6-1.4-1.4s0.6-1.4,1.4-1.4h13c0.8,0,1.4,0.6,1.4,1.4
		S95.3,114.8,94.5,114.8L94.5,114.8z M94.5,114.8"/>
	<path id="XMLID_215_" class="st23" d="M90.2,119.1c0-0.8-0.6-1.4-1.4-1.4h-7.2c-0.8,0-1.4,0.6-1.4,1.4s0.6,1.4,1.4,1.4h7.2
		C89.5,120.6,90.2,119.9,90.2,119.1L90.2,119.1z M90.2,119.1"/>
	<path id="XMLID_212_" class="st23" d="M123.4,129.3c0-0.8-0.6-1.4-1.4-1.4H81.5c-0.8,0-1.4,0.6-1.4,1.4c0,0.8,0.6,1.4,1.4,1.4H122
		C122.8,130.8,123.4,130.1,123.4,129.3L123.4,129.3z M123.4,129.3"/>
	<path id="XMLID_209_" class="st23" d="M123.4,135.1c0-0.8-0.6-1.4-1.4-1.4H81.5c-0.8,0-1.4,0.6-1.4,1.4c0,0.8,0.6,1.4,1.4,1.4H122
		C122.8,136.6,123.4,135.9,123.4,135.1L123.4,135.1z M123.4,135.1"/>
	<path id="XMLID_206_" class="st23" d="M123.4,140.9c0-0.8-0.6-1.4-1.4-1.4H81.5c-0.8,0-1.4,0.6-1.4,1.4c0,0.8,0.6,1.4,1.4,1.4H122
		C122.8,142.3,123.4,141.7,123.4,140.9L123.4,140.9z M123.4,140.9"/>
	<path id="XMLID_203_" class="st23" d="M123.4,146.7c0-0.8-0.6-1.4-1.4-1.4H81.5c-0.8,0-1.4,0.6-1.4,1.4c0,0.8,0.6,1.4,1.4,1.4H122
		C122.8,148.1,123.4,147.5,123.4,146.7L123.4,146.7z M123.4,146.7"/>
	<path id="XMLID_200_" class="st23" d="M123.4,158.3c0-0.8-0.6-1.4-1.4-1.4h-7.2c-0.8,0-1.4,0.6-1.4,1.4c0,0.8,0.6,1.4,1.4,1.4h7.2
		C122.8,159.7,123.4,159.1,123.4,158.3L123.4,158.3z M123.4,158.3"/>
	<g id="XMLID_196_">
		<path id="XMLID_197_" class="st24" d="M40.7,43l2.2,0l0-2.2c0-0.5,0.5-1,1-1c0.5,0,1,0.4,1,1l0,2.2l2.2,0c0.5,0,1,0.5,1,1
			c0,0.5-0.4,1-1,1l-2.2,0l0,2.2c0,0.5-0.5,1-1,1c-0.5,0-1-0.4-1-1l0-2.2l-2.2,0c-0.5,0-1-0.5-1-1C39.8,43.5,40.2,43,40.7,43
			L40.7,43z M40.7,43"/>
	</g>
	<g id="XMLID_192_">
		<path id="XMLID_193_" class="st25" d="M86.3,40.8l1.1,0l0-1.1c0-0.3,0.2-0.5,0.5-0.5c0.3,0,0.5,0.2,0.5,0.5l0,1.1l1.1,0
			c0.3,0,0.5,0.2,0.5,0.5c0,0.3-0.2,0.5-0.5,0.5l-1.1,0l0,1.1c0,0.3-0.2,0.5-0.5,0.5c-0.3,0-0.5-0.2-0.5-0.5l0-1.1l-1.1,0
			c-0.3,0-0.5-0.2-0.5-0.5C85.8,41,86.1,40.8,86.3,40.8L86.3,40.8z M86.3,40.8"/>
	</g>
	<g id="XMLID_188_">
		<path id="XMLID_189_" class="st26" d="M160.4,59.1l1.9,0l0-1.9c0-0.5,0.4-0.9,0.9-0.9c0.5,0,0.9,0.4,0.9,0.9l0,1.9l1.9,0
			c0.5,0,0.9,0.4,0.9,0.9c0,0.5-0.4,0.9-0.9,0.9l-1.9,0l0,1.9c0,0.5-0.4,0.9-0.9,0.9c-0.5,0-0.9-0.4-0.9-0.9l0-1.9l-1.9,0
			c-0.5,0-0.9-0.4-0.9-0.9C159.6,59.5,160,59.1,160.4,59.1L160.4,59.1z M160.4,59.1"/>
	</g>
	<g id="XMLID_101_">
		<path id="XMLID_102_" class="st24" d="M150.6,96.5c-1.6,0-2.9-1.3-2.9-2.9s1.3-2.9,2.9-2.9c1.6,0,2.9,1.3,2.9,2.9
			S152.2,96.5,150.6,96.5z M150.6,91.7c-1.1,0-1.9,0.9-1.9,1.9s0.9,1.9,1.9,1.9s1.9-0.9,1.9-1.9S151.7,91.7,150.6,91.7z"/>
	</g>
	<g id="XMLID_97_">
		<path id="XMLID_98_" class="st24" d="M14.6,62.3c-2,0-3.5-1.6-3.5-3.5c0-2,1.6-3.5,3.5-3.5s3.5,1.6,3.5,3.5
			C18.2,60.7,16.6,62.3,14.6,62.3z M14.6,56.7c-1.2,0-2.1,1-2.1,2.1c0,1.2,1,2.1,2.1,2.1s2.1-1,2.1-2.1
			C16.7,57.6,15.8,56.7,14.6,56.7z"/>
	</g>
	<g id="XMLID_93_">
		<path id="XMLID_94_" class="st27" d="M70.6,21.3c-1.5,0-2.8-1.2-2.8-2.8c0-1.5,1.2-2.8,2.8-2.8c1.5,0,2.8,1.2,2.8,2.8
			C73.4,20,72.1,21.3,70.6,21.3z M70.6,16.8c-1,0-1.8,0.8-1.8,1.8s0.8,1.8,1.8,1.8c1,0,1.8-0.8,1.8-1.8S71.5,16.8,70.6,16.8z"/>
	</g>
	<g id="XMLID_89_">
		<path id="XMLID_90_" class="st25" d="M29.2,123c-1.5,0-2.8-1.2-2.8-2.8c0-1.5,1.2-2.8,2.8-2.8c1.5,0,2.8,1.2,2.8,2.8
			C32,121.7,30.8,123,29.2,123z M29.2,118.5c-0.9,0-1.7,0.8-1.7,1.7c0,0.9,0.8,1.7,1.7,1.7c0.9,0,1.7-0.8,1.7-1.7
			C30.9,119.3,30.2,118.5,29.2,118.5z"/>
	</g>
	<g id="XMLID_27_">
		<g id="XMLID_83_">
			<g id="XMLID_84_">
				<path id="XMLID_88_" class="st27" d="M135.8,22.1c-0.1,0-0.2,0-0.3-0.1l-1.8-1.8c-0.2-0.2-0.2-0.4,0-0.6c0.2-0.2,0.4-0.2,0.6,0
					l1.8,1.8c0.2,0.2,0.2,0.4,0,0.6C136,22.1,135.9,22.1,135.8,22.1z"/>
				<path id="XMLID_85_" class="st27" d="M135.8,22.4c-0.2,0-0.3-0.1-0.5-0.2l-1.8-1.8c-0.3-0.3-0.3-0.7,0-0.9
					c0.3-0.3,0.7-0.3,0.9,0l1.8,1.8c0.3,0.3,0.3,0.7,0,0.9C136.1,22.3,135.9,22.4,135.8,22.4z M133.9,19.7c0,0-0.1,0-0.1,0.1
					c-0.1,0.1-0.1,0.2,0,0.3l1.8,1.8c0.1,0.1,0.2,0.1,0.3,0c0.1-0.1,0.1-0.2,0-0.3l-1.8-1.8C134,19.7,134,19.7,133.9,19.7z"/>
			</g>
		</g>
		<g id="XMLID_40_">
			<g id="XMLID_79_">
				<path id="XMLID_151_" class="st27" d="M136.2,25.2c0,0.1,0,0.2-0.1,0.3l-1.9,1.8c-0.2,0.2-0.4,0.2-0.6,0c-0.2-0.2-0.2-0.4,0-0.6
					l1.9-1.8c0.2-0.2,0.4-0.2,0.6,0C136.1,25,136.2,25.1,136.2,25.2z"/>
				<path id="XMLID_80_" class="st27" d="M133.9,27.7c-0.2,0-0.3-0.1-0.5-0.2c-0.3-0.3-0.2-0.7,0-0.9l1.9-1.8c0.3-0.3,0.7-0.2,0.9,0
					c0.1,0.1,0.2,0.3,0.2,0.5l0,0c0,0.2-0.1,0.3-0.2,0.5l-1.9,1.8C134.3,27.6,134.1,27.7,133.9,27.7z M135.8,25c0,0-0.1,0-0.1,0.1
					l-1.9,1.8c-0.1,0.1-0.1,0.2,0,0.3c0,0,0.1,0.1,0.1,0.1c0.1,0,0.1,0,0.1-0.1l1.9-1.8c0,0,0.1-0.1,0.1-0.1v0c0,0,0-0.1-0.1-0.1
					C135.9,25.1,135.8,25,135.8,25z"/>
			</g>
		</g>
		<g id="XMLID_34_">
			<g id="XMLID_35_">
				<path id="XMLID_39_" class="st27" d="M141.6,19.8c0,0.1,0,0.2-0.1,0.3l-1.9,1.8c-0.2,0.2-0.4,0.2-0.6,0c-0.2-0.2-0.2-0.4,0-0.6
					l1.9-1.8c0.2-0.2,0.4-0.2,0.6,0C141.6,19.6,141.6,19.7,141.6,19.8z"/>
				<path id="XMLID_36_" class="st27" d="M139.3,22.3c-0.2,0-0.3-0.1-0.5-0.2c-0.3-0.3-0.2-0.7,0-0.9l1.9-1.8c0.3-0.2,0.7-0.2,0.9,0
					c0.1,0.1,0.2,0.3,0.2,0.5l0,0c0,0.2-0.1,0.3-0.2,0.5l-1.9,1.8C139.7,22.2,139.5,22.3,139.3,22.3z M141.2,19.6c0,0-0.1,0-0.1,0.1
					l-1.9,1.8c-0.1,0.1-0.1,0.2,0,0.3c0,0,0.1,0.1,0.1,0.1c0.1,0,0.1,0,0.1-0.1l1.9-1.8c0,0,0.1-0.1,0.1-0.1v0c0,0,0-0.1-0.1-0.1
					C141.3,19.7,141.2,19.6,141.2,19.6z"/>
			</g>
		</g>
		<g id="XMLID_28_">
			<g id="XMLID_29_">
				<path id="XMLID_33_" class="st27" d="M141.2,27.5c-0.1,0-0.2,0-0.3-0.1l-1.8-1.8c-0.2-0.2-0.2-0.4,0-0.6c0.2-0.2,0.4-0.2,0.6,0
					l1.8,1.8c0.2,0.2,0.2,0.4,0,0.6C141.4,27.4,141.3,27.5,141.2,27.5z"/>
				<path id="XMLID_30_" class="st27" d="M141.2,27.7c-0.2,0-0.3-0.1-0.5-0.2l-1.8-1.8c-0.1-0.1-0.2-0.3-0.2-0.5
					c0-0.2,0.1-0.3,0.2-0.5c0.2-0.2,0.7-0.2,0.9,0l1.8,1.8c0.1,0.1,0.2,0.3,0.2,0.5c0,0.2-0.1,0.3-0.2,0.5
					C141.6,27.6,141.4,27.7,141.2,27.7z M139.4,25c0,0-0.1,0-0.1,0.1c0,0-0.1,0.1-0.1,0.1c0,0,0,0.1,0.1,0.1l1.8,1.8
					c0.1,0.1,0.2,0.1,0.3,0c0,0,0.1-0.1,0.1-0.1c0,0,0-0.1-0.1-0.1l-1.8-1.8C139.5,25.1,139.4,25,139.4,25z"/>
			</g>
		</g>
	</g>
	<g id="XMLID_21_">
		<g id="XMLID_22_">
			<path id="XMLID_26_" class="st24" d="M19.3,97.4c-0.1-0.1-0.1-0.1-0.1-0.2l0-2.1c0-0.2,0.1-0.3,0.3-0.3c0.2,0,0.3,0.1,0.3,0.3
				l0,2.1c0,0.2-0.1,0.3-0.3,0.3C19.4,97.5,19.4,97.4,19.3,97.4z"/>
			<path id="XMLID_23_" class="st24" d="M19.5,97.7c-0.2,0-0.3-0.1-0.4-0.2l0,0c-0.1-0.1-0.2-0.3-0.2-0.4l0-2.1
				c0-0.3,0.3-0.6,0.6-0.6c0.3,0,0.6,0.3,0.6,0.6l0,2.1C20.1,97.5,19.9,97.7,19.5,97.7z M19.5,97.2C19.5,97.2,19.6,97.2,19.5,97.2
				l0.1-2.1c0,0-0.1,0-0.1,0L19.5,97.2C19.5,97.1,19.5,97.1,19.5,97.2z"/>
		</g>
	</g>
	<g id="XMLID_15_">
		<g id="XMLID_16_">
			<path id="XMLID_20_" class="st24" d="M17.8,99.3c-0.1,0.1-0.1,0.1-0.2,0.1l-2.1,0c-0.2,0-0.3-0.2-0.3-0.3c0-0.2,0.2-0.3,0.3-0.3
				l2.1,0c0.2,0,0.3,0.2,0.3,0.3C17.9,99.2,17.8,99.3,17.8,99.3z"/>
			<path id="XMLID_17_" class="st24" d="M17.5,99.7C17.5,99.7,17.5,99.7,17.5,99.7l-2.1,0c-0.3,0-0.6-0.3-0.6-0.6
				c0-0.3,0.3-0.6,0.6-0.6c0,0,0,0,0,0l2.1,0c0.2,0,0.3,0.1,0.4,0.2c0.1,0.1,0.2,0.3,0.2,0.4c0,0.2-0.1,0.3-0.2,0.4l0,0
				C17.9,99.7,17.7,99.7,17.5,99.7z M15.5,99.1C15.4,99.1,15.4,99.1,15.5,99.1C15.4,99.1,15.4,99.1,15.5,99.1l2.1,0.1c0,0,0,0,0,0
				c0,0,0,0,0,0c0,0,0,0,0,0L15.5,99.1C15.5,99.1,15.5,99.1,15.5,99.1z"/>
		</g>
	</g>
	<g id="XMLID_9_">
		<g id="XMLID_10_">
			<path id="XMLID_14_" class="st24" d="M23.9,99.3c-0.1,0.1-0.1,0.1-0.2,0.1l-2.1,0c-0.2,0-0.3-0.2-0.3-0.3c0-0.2,0.2-0.3,0.3-0.3
				l2.1,0c0.2,0,0.3,0.2,0.3,0.3C24,99.2,24,99.3,23.9,99.3z"/>
			<path id="XMLID_11_" class="st24" d="M23.7,99.7C23.7,99.7,23.7,99.7,23.7,99.7l-2.1,0c-0.2,0-0.3-0.1-0.4-0.2
				C21,99.4,21,99.3,21,99.1c0-0.3,0.3-0.6,0.6-0.6c0,0,0,0,0,0l2.1,0c0.3,0,0.6,0.3,0.6,0.6c0,0.2-0.1,0.3-0.2,0.4l0,0
				C24,99.7,23.8,99.7,23.7,99.7z M21.6,99.1C21.6,99.1,21.5,99.1,21.6,99.1C21.5,99.1,21.6,99.1,21.6,99.1l2.1,0.1c0,0,0,0,0,0
				c0,0,0,0,0,0c0,0,0,0,0,0L21.6,99.1C21.6,99.1,21.6,99.1,21.6,99.1z"/>
		</g>
	</g>
	<g id="XMLID_109_">
		<g id="XMLID_4_">
			<path id="XMLID_8_" class="st24" d="M19.4,103.5c-0.1-0.1-0.1-0.1-0.1-0.2l0-2.1c0-0.2,0.1-0.3,0.3-0.3s0.3,0.1,0.3,0.3l0,2.1
				c0,0.2-0.1,0.3-0.3,0.3C19.5,103.6,19.4,103.5,19.4,103.5z"/>
			<path id="XMLID_5_" class="st24" d="M19.6,103.9c-0.2,0-0.3-0.1-0.4-0.2l0,0c-0.1-0.1-0.2-0.3-0.2-0.4l0-2.1
				c0-0.3,0.3-0.6,0.6-0.6c0.3,0,0.6,0.3,0.6,0.6l0,2.1C20.2,103.6,19.9,103.9,19.6,103.9z M19.6,103.3
				C19.6,103.3,19.6,103.3,19.6,103.3l0.1-2.1c0,0-0.1,0-0.1,0L19.6,103.3C19.6,103.3,19.6,103.3,19.6,103.3L19.6,103.3z"/>
		</g>
	</g>
	<g id="XMLID_63_">
		<path id="XMLID_106_" class="st23" d="M63.8,136.1c0.1,0,0.2,0.1,0.2,0.2c0,0.1-0.1,0.2-0.1,0.3c0,0,0,0-0.1,0
			c-0.1,0-0.1,0-0.2-0.1c-0.1,0-0.1,0-0.2-0.1c-0.1,0-0.2-0.1-0.3-0.1c-0.1-0.1-0.3-0.1-0.4-0.2c-0.1-0.1-0.3-0.1-0.4-0.2
			c-0.2-0.1-0.3-0.2-0.5-0.2c0,0,0,0-0.1,0c-0.3-0.2-0.7-0.3-1-0.5c-0.3-0.1-0.5-0.2-0.8-0.3c-0.2-0.1-0.3-0.1-0.5-0.1
			c-0.1,0-0.2,0.1-0.3,0.2c-0.2,0.1-0.2-0.4-0.2-0.5c0-0.2,0-0.3,0-0.5c0-0.1,0-0.3,0-0.4c0-0.1,0-0.3,0.1-0.3
			c0.1-0.1,0.3-0.1,0.4-0.1c0.2,0,0.4-0.1,0.6-0.1c0.1,0,0.2,0,0.3,0c0.4,0,0.7,0,1.1,0c0.2,0,0.5,0,0.7,0c0.6,0,1-0.1,1.2-0.2
			c0.1,0,0.1-0.1,0.1-0.1c0-0.1,0-0.2-0.1-0.2c0,0-0.1-0.1-0.1-0.1c0,0,0-0.1,0-0.1c0,0,0.1,0,0.1-0.1c0,0,0.1-0.1,0.1,0
			c0,0,0.1,0.1,0.1,0.1c0,0,0.1,0.1,0.1,0.1c0.1,0.1,0.1,0.2,0.2,0.3c0,0,0.1,0.1,0.1,0.1c0.1,0.2,0.2,0.4,0.2,0.6
			c0,0.1,0,0.2-0.1,0.3c0,0.1-0.1,0.2-0.2,0.2c-0.2,0.2-0.5,0.2-0.8,0.2c-0.1,0-0.2,0-0.3,0c-0.1,0-0.1,0-0.2,0c-0.1,0-0.1,0-0.2,0
			c0,0-0.1,0.1-0.1,0.1c0,0.3,0,0.6,0,1c0,0.1,0,0.3,0.1,0.4c0.1,0.1,0.2,0.1,0.3,0.1c0.1,0.1,0.2,0.1,0.4,0.1
			c0.1,0,0.1,0.1,0.2,0.1c0.1,0,0.2,0.1,0.3,0.1C63.6,136.1,63.7,136.1,63.8,136.1z M61.8,134.2l-0.8,0c-0.7,0-1.2,0-1.5,0.1
			c0,0,0,0.1,0,0.1c0.4,0.1,0.7,0.3,0.9,0.4c0.3,0.1,0.5,0.2,0.8,0.4c0.3,0.1,0.5,0.2,0.5,0.3V134.2z"/>
		<path id="XMLID_104_" class="st23" d="M60.8,132.1C60.8,132,60.8,132,60.8,132.1c0-0.2,0-0.2-0.1-0.3c0-0.2,0-0.3,0-0.5
			c0-0.1,0-0.2,0-0.3c0,0,0-0.1,0-0.1c0,0,0.1,0,0.1,0c0,0,0.1,0,0.1,0c0,0,0.1,0,0.1,0c0,0,0,0,0.1,0c0,0,0,0,0.1,0
			c-0.3-0.4-0.5-0.7-0.5-0.9c0-0.2,0.1-0.4,0.3-0.6c0.2-0.2,0.5-0.2,0.9-0.2c0.7,0,1.2,0.1,1.6,0.4c0.3,0.2,0.5,0.6,0.5,1
			c0,0.1,0,0.3-0.1,0.4c0,0.1,0,0.1-0.1,0.1c0,0-0.1,0-0.1,0c0,0,0-0.1,0-0.1c0,0,0-0.1-0.1-0.1c0-0.1-0.1-0.1-0.2-0.2
			c-0.1-0.1-0.3-0.2-0.5-0.3c-0.4-0.2-0.9-0.3-1.3-0.1c-0.1,0-0.3,0.1-0.3,0.2c0,0.1,0,0.2,0.1,0.3c0.2,0.2,0.5,0.3,0.8,0.3
			c0.4,0.1,0.8,0.1,1.2,0.2c0.3,0.1,0.5,0.1,0.8,0.1c0.2,0,0.5,0.1,0.7,0.1c0.1,0,0.1,0,0.2,0c0,0,0.1,0,0.1,0c0,0.1,0,0.1,0.1,0.2
			c0,0.1,0,0.2,0.1,0.3c0,0.1,0,0.1,0,0.2c0,0.1,0,0.1,0,0.2c0,0,0,0.1,0,0.1c0,0,0,0,0,0c0,0-0.1,0-0.1,0c-0.1,0-0.1,0-0.2,0
			c-0.1,0-0.2,0-0.4,0c-0.1,0-0.2,0-0.3-0.1c-0.1,0-0.3-0.1-0.4-0.1c-0.2,0-0.3-0.1-0.5-0.1c0,0,0,0-0.1,0c-0.9-0.2-1.5-0.3-2-0.3
			c-0.1,0-0.2,0-0.3,0.1c-0.1,0-0.1,0.1-0.2,0.1c0,0-0.1,0-0.1,0.1C60.9,132.1,60.9,132.1,60.8,132.1
			C60.8,132.1,60.8,132.1,60.8,132.1z"/>
		<path id="XMLID_77_" class="st23" d="M63,123c0.3,0,0.6,0.1,0.7,0.4c0.1,0.1,0.1,0.2,0.2,0.3c0,0.1,0,0.1,0.1,0.2
			c0,0.1,0.1,0.3,0.1,0.4c0,0.3,0,0.6-0.2,0.9c-0.1,0.2-0.4,0.3-0.6,0.2c-0.2-0.1-0.4-0.4-0.3-0.6c0-0.3,0.3-0.4,0.5-0.5
			c0,0,0.1,0,0.1-0.1c0.1,0,0.1-0.1,0.1-0.1c0-0.1-0.1-0.1-0.2-0.2c0,0-0.1,0-0.1,0c-0.2,0-0.5,0.2-0.9,0.6c-0.4,0.4-0.7,0.6-1,0.6
			c-0.2,0-0.4-0.1-0.6-0.3c-0.1-0.2-0.2-0.5-0.2-0.8c0-0.3,0.1-0.5,0.2-0.7c0.1-0.2,0.3-0.2,0.4-0.2c0.2,0,0.4,0.1,0.8,0.4
			c0,0,0.1-0.1,0.1-0.1c0.1-0.1,0.2-0.1,0.3-0.2S62.8,123,63,123z M61.3,123.4c-0.2,0-0.3,0.1-0.3,0.3c0,0.1,0,0.2,0.1,0.3
			c0,0.1,0.1,0.1,0.2,0.1c0.1,0,0.3-0.1,0.4-0.3l0.1-0.1C61.6,123.5,61.5,123.4,61.3,123.4z"/>
		<path id="XMLID_75_" class="st23" d="M64,121c0,0.4-0.2,0.8-0.5,1.1c-0.4,0.3-0.8,0.4-1.4,0.4c-0.6,0-1.1-0.1-1.6-0.3
			c-0.5-0.2-0.9-0.5-1.2-0.9c-0.3-0.4-0.5-0.8-0.5-1.2c0-0.4,0.1-0.8,0.3-1c0.2-0.3,0.4-0.4,0.7-0.4c0.1,0,0.3,0,0.4,0.1
			c0.1,0,0.2,0.1,0.2,0.1c0.1,0.1,0.1,0.2,0,0.3c0,0.1,0,0.2-0.1,0.3c0,0.1-0.1,0.3-0.2,0.4c-0.1,0.1-0.2,0.1-0.3,0
			c-0.1,0-0.1,0-0.2,0c-0.1,0-0.1,0-0.2,0c-0.1,0-0.2,0-0.2,0.1c0,0.1,0,0.2,0,0.3c0,0.3,0.3,0.6,0.8,0.8c0.5,0.2,1.1,0.3,1.9,0.3
			c0.5,0,0.8-0.1,1.1-0.2c0.2-0.2,0.3-0.4,0.3-0.6c0-0.1,0-0.3-0.1-0.4c-0.1-0.2-0.1-0.3-0.3-0.4c0,0-0.1-0.1-0.1-0.1
			c0,0-0.1,0-0.1-0.1c0,0,0-0.1,0-0.1c0,0,0.1-0.1,0.1-0.1c0,0,0.1-0.1,0.1,0c0,0,0.1,0.1,0.1,0.1c0.1,0.1,0.1,0.1,0.2,0.2
			c0.1,0.1,0.2,0.3,0.3,0.4c0.1,0.1,0.2,0.3,0.2,0.5C64,120.6,64,120.8,64,121z"/>
		<path id="XMLID_72_" class="st23" d="M64,117.7c0,0.3-0.1,0.6-0.4,0.8c-0.2,0.2-0.6,0.3-1,0.3c-0.5,0-1-0.1-1.4-0.4
			c-0.4-0.3-0.6-0.7-0.6-1.2l0-0.3c0-0.1-0.1-0.2-0.1-0.3c0-0.4,0.4-0.6,1.1-0.6c0-0.2,0-0.4-0.1-0.6l0-0.1l0.3,0
			c0.1,0.2,0.1,0.4,0.2,0.6l0,0.1c0.5,0.1,0.9,0.3,1.3,0.6C63.8,116.9,64,117.3,64,117.7z M63.4,117.4c0-0.2-0.1-0.4-0.4-0.5
			c-0.3-0.2-0.5-0.3-0.8-0.3c0,0.5-0.2,0.8-0.6,0.8c-0.2,0-0.3,0-0.4-0.1l-0.1,0c0,0,0,0,0,0.1c0,0,0,0.1,0,0.1
			c0.1,0.1,0.3,0.2,0.5,0.3s0.6,0.2,1,0.2C63.1,117.8,63.4,117.6,63.4,117.4z"/>
		<path id="XMLID_69_" class="st23" d="M63.5,112.4C63.5,112.4,63.5,112.4,63.5,112.4c0.1,0.1,0.1,0.1,0.2,0.2
			c0.1,0.1,0.1,0.2,0.2,0.3c0.1,0.1,0.1,0.3,0.2,0.4c0,0.1,0,0.1,0,0.2c0,0.3-0.2,0.5-0.5,0.5c0.1,0.1,0.3,0.3,0.3,0.5
			c0.1,0.2,0.1,0.3,0.1,0.5c0,0.2-0.1,0.4-0.3,0.6c-0.2,0.2-0.5,0.2-0.9,0.2c-0.6,0-1.1-0.1-1.5-0.4c-0.4-0.3-0.5-0.6-0.5-0.9
			c0-0.3,0.1-0.6,0.2-0.9c-0.3-0.1-0.6-0.1-0.9-0.1c-0.2,0-0.5-0.1-0.7-0.1c-0.2,0-0.3,0-0.5,0c-0.1,0-0.1,0-0.2-0.1
			c0,0,0-0.1,0-0.1c0-0.1-0.1-0.2-0.1-0.4c0-0.1,0-0.1,0-0.2c0-0.1-0.1-0.3,0.1-0.3c0.2,0,0.4,0,0.7,0c0.1,0,0.3,0,0.4,0.1
			c0.2,0,0.4,0.1,0.5,0.1c0.2,0,0.4,0.1,0.6,0.1c0,0,0.1,0,0.1,0c1.1,0.2,1.8,0.3,2.2,0.3c0.1,0,0.2,0,0.2-0.1c0,0,0-0.1,0-0.1
			c0,0,0-0.1-0.1-0.1c0,0-0.1-0.1-0.1-0.1c0,0,0-0.1,0-0.1c0,0,0.1,0,0.1-0.1C63.4,112.4,63.4,112.4,63.5,112.4z M61.1,114.1
			c0,0.2,0.2,0.3,0.5,0.4s0.7,0.2,1,0.2c0.3,0,0.5,0,0.6-0.1c0.1,0,0.1-0.1,0.1-0.2c0-0.2-0.1-0.3-0.2-0.5c-0.2,0-0.8-0.1-1.9-0.3
			C61.2,113.8,61.1,114,61.1,114.1z"/>
		<path id="XMLID_66_" class="st23" d="M62.6,112.2c-0.6,0-1.1-0.2-1.4-0.5c-0.4-0.4-0.5-0.8-0.5-1.2c0-0.3,0.1-0.5,0.2-0.7
			c0.1-0.2,0.3-0.3,0.6-0.3c0.2,0,0.4,0.1,0.6,0.2c0.2,0.1,0.3,0.3,0.4,0.4c0.2,0.3,0.3,0.7,0.3,0.9l0,0.2c0.5,0,0.7-0.2,0.7-0.6
			c0-0.1,0-0.2-0.1-0.4c0-0.1,0-0.1-0.1-0.2c0-0.1-0.1-0.1-0.1-0.2c0,0-0.1-0.1,0-0.1c0,0,0.1-0.1,0.1-0.1c0,0,0.1-0.1,0.1,0
			c0,0,0.1,0,0.1,0.1c0,0,0.1,0.1,0.1,0.2c0.1,0.1,0.2,0.2,0.2,0.3c0.2,0.3,0.2,0.6,0.2,0.9s-0.1,0.6-0.4,0.8
			C63.4,112.1,63.1,112.2,62.6,112.2z M62.1,110.6c-0.2-0.1-0.4-0.2-0.6-0.2c-0.3,0-0.4,0.1-0.4,0.2c0,0.2,0.2,0.3,0.5,0.4
			c0.3,0.1,0.6,0.1,0.9,0.1C62.4,110.9,62.3,110.7,62.1,110.6z"/>
		<path id="XMLID_64_" class="st23" d="M60.8,128.6C60.8,128.6,60.8,128.6,60.8,128.6c0-0.2,0-0.2-0.1-0.3c0-0.2,0-0.3,0-0.5
			c0-0.1,0-0.2,0-0.3c0,0,0-0.1,0-0.1c0,0,0.1,0,0.1,0c0,0,0.1,0,0.1,0c0,0,0.1,0,0.1,0c0,0,0,0,0.1,0c0,0,0,0,0.1,0
			c-0.3-0.4-0.5-0.7-0.5-0.9s0.1-0.4,0.3-0.6c0.2-0.2,0.5-0.2,0.9-0.2c0.7,0,1.2,0.1,1.6,0.4c0.3,0.2,0.5,0.6,0.5,1
			c0,0.1,0,0.3-0.1,0.4c0,0.1,0,0.1-0.1,0.1c0,0-0.1,0-0.1,0c0,0,0-0.1,0-0.1c0,0,0-0.1-0.1-0.1c0-0.1-0.1-0.1-0.2-0.2
			c-0.1-0.1-0.3-0.2-0.5-0.3c-0.4-0.2-0.9-0.3-1.3-0.1c-0.1,0-0.3,0.1-0.3,0.2c0,0.1,0,0.2,0.1,0.3c0.2,0.2,0.5,0.3,0.8,0.3
			c0.4,0.1,0.8,0.1,1.2,0.2c0.3,0.1,0.5,0.1,0.8,0.1c0.2,0,0.5,0.1,0.7,0.1c0.1,0,0.1,0,0.2,0c0,0,0.1,0,0.1,0c0,0.1,0,0.1,0.1,0.2
			c0,0.1,0,0.2,0.1,0.3c0,0.1,0,0.1,0,0.2c0,0.1,0,0.1,0,0.2c0,0,0,0.1,0,0.1c0,0,0,0,0,0c0,0-0.1,0-0.1,0c-0.1,0-0.1,0-0.2,0
			c-0.1,0-0.2,0-0.4,0c-0.1,0-0.2,0-0.3-0.1c-0.1,0-0.3-0.1-0.4-0.1c-0.2,0-0.3-0.1-0.5-0.1c0,0,0,0-0.1,0c-0.9-0.2-1.5-0.3-2-0.3
			c-0.1,0-0.2,0-0.3,0.1c-0.1,0-0.1,0.1-0.2,0.1c0,0-0.1,0-0.1,0.1C60.9,128.7,60.9,128.7,60.8,128.6
			C60.8,128.7,60.8,128.6,60.8,128.6z"/>
	</g>
	<g id="XMLID_41_">
		<path id="XMLID_60_" class="st17" d="M79.2,84.9c0,0.1-0.2,0.2-0.3,0.2c-0.2,0-0.3-0.1-0.5-0.2c0,0-0.1-0.1-0.1-0.1
			c0-0.1,0-0.1,0.1-0.2c0-0.1,0.1-0.1,0.1-0.2c0.1-0.2,0.1-0.3,0.2-0.5c0.1-0.2,0.2-0.4,0.2-0.5c0.1-0.2,0.2-0.4,0.3-0.6
			c0.1-0.2,0.2-0.5,0.3-0.7c0,0,0-0.1,0-0.1c0.2-0.5,0.5-0.9,0.7-1.4c0.2-0.4,0.3-0.7,0.4-1.1c0.1-0.2,0.2-0.5,0.2-0.7
			c0-0.2-0.2-0.3-0.2-0.4C80.6,78,81.2,78,81.4,78c0.2,0,0.5-0.1,0.7-0.1c0.2,0,0.4,0,0.6,0c0.2,0,0.3,0,0.5,0.1
			c0.2,0.1,0.2,0.4,0.2,0.5c0,0.3,0.1,0.6,0.1,0.8c0,0.2,0,0.3,0,0.5c0,0.5,0,1,0,1.5c0,0.3,0,0.7,0,1c0,0.8,0.1,1.4,0.2,1.7
			c0.1,0.1,0.1,0.2,0.2,0.2c0.1,0,0.2,0,0.3-0.1c0.1,0,0.1-0.1,0.2-0.1c0.1,0,0.1-0.1,0.2,0c0,0,0.1,0.1,0.1,0.2
			c0,0,0.1,0.1,0.1,0.1c0,0.1-0.1,0.1-0.1,0.1c-0.1,0-0.1,0.1-0.2,0.1c-0.1,0.1-0.2,0.2-0.3,0.2c-0.1,0-0.1,0.1-0.2,0.1
			c-0.3,0.1-0.6,0.2-0.9,0.2c-0.1,0-0.3,0-0.4-0.1c-0.1,0-0.2-0.1-0.3-0.2c-0.2-0.3-0.3-0.7-0.3-1.1c0-0.1,0-0.3,0-0.4
			c0-0.1,0-0.2,0-0.3c0-0.1,0.1-0.2,0-0.3c0-0.1-0.1-0.1-0.2-0.1c-0.4,0-0.9,0-1.3,0c-0.2,0-0.4,0-0.5,0.1c-0.1,0.1-0.1,0.3-0.2,0.4
			c-0.1,0.2-0.1,0.3-0.2,0.5c0,0.1-0.1,0.2-0.1,0.3c0,0.1-0.1,0.2-0.1,0.4C79.3,84.6,79.3,84.7,79.2,84.9z M82,82.1l0-1.2
			c0-1,0-1.7-0.1-2.1c-0.1,0-0.1,0-0.1,0c-0.2,0.5-0.4,0.9-0.5,1.3c-0.2,0.4-0.3,0.7-0.5,1.1c-0.2,0.4-0.3,0.7-0.4,0.8H82z"/>
		<path id="XMLID_58_" class="st17" d="M84.8,80.7c0,0,0.1,0,0.1,0c0.1,0,0.2,0,0.2,0c0.2,0,0.4,0,0.7,0c0.1,0,0.3,0,0.4,0
			c0,0,0.1,0,0.1,0c0,0,0,0.1,0,0.1c0,0,0,0.1,0,0.1c0,0,0,0.1,0,0.1c0,0,0,0.1,0,0.1c0,0,0,0.1,0,0.1c0.5-0.4,0.9-0.6,1.3-0.6
			c0.3,0,0.6,0.1,0.8,0.4c0.2,0.3,0.3,0.7,0.3,1.3c0,1-0.2,1.7-0.5,2.2c-0.3,0.5-0.8,0.7-1.4,0.7c-0.2,0-0.4,0-0.6-0.1
			c-0.1,0-0.2-0.1-0.2-0.1c0-0.1,0-0.1,0.1-0.2c0,0,0.1,0,0.1-0.1c0,0,0.1-0.1,0.1-0.1c0.1-0.1,0.2-0.1,0.3-0.2
			c0.2-0.2,0.3-0.4,0.5-0.7c0.2-0.5,0.4-1.2,0.2-1.8c-0.1-0.2-0.2-0.3-0.3-0.4c-0.1,0-0.3,0-0.4,0.1c-0.3,0.3-0.4,0.7-0.4,1.1
			c-0.1,0.6-0.2,1.1-0.3,1.7c-0.1,0.4-0.1,0.7-0.2,1.1c0,0.3-0.1,0.7-0.1,1c0,0.1,0,0.2,0,0.3c0,0.1,0,0.1-0.1,0.2
			c-0.1,0.1-0.2,0.1-0.2,0.1c-0.1,0-0.3,0.1-0.4,0.1c-0.1,0-0.2,0-0.2,0c-0.1,0-0.2,0-0.3,0c-0.1,0-0.1,0-0.2,0c0,0,0,0,0,0
			c-0.1,0-0.1-0.1-0.1-0.2c0-0.1,0-0.2,0-0.3c0-0.2,0-0.3,0.1-0.5c0-0.1,0-0.3,0.1-0.4c0-0.2,0.1-0.4,0.1-0.6c0-0.2,0.1-0.4,0.1-0.7
			c0,0,0-0.1,0-0.1c0.3-1.2,0.4-2.1,0.4-2.8c0-0.1,0-0.3-0.1-0.4c0-0.1-0.1-0.2-0.1-0.3c0,0-0.1-0.1-0.1-0.1
			C84.8,80.9,84.8,80.9,84.8,80.7C84.8,80.8,84.8,80.7,84.8,80.7z"/>
		<path id="XMLID_55_" class="st17" d="M97.3,83.7c0,0.4-0.2,0.8-0.6,1c-0.1,0.1-0.3,0.2-0.4,0.2c-0.1,0-0.2,0.1-0.3,0.1
			c-0.2,0.1-0.4,0.1-0.6,0.1c-0.4,0-0.9,0-1.2-0.3c-0.3-0.2-0.4-0.5-0.2-0.8c0.2-0.3,0.5-0.5,0.8-0.4c0.3,0.1,0.5,0.4,0.6,0.7
			c0,0.1,0,0.1,0.1,0.2c0,0.1,0.1,0.2,0.2,0.1c0.1,0,0.2-0.1,0.2-0.2c0,0,0-0.1,0-0.1c0-0.3-0.3-0.7-0.8-1.3c-0.5-0.6-0.8-1-0.8-1.3
			c0-0.3,0.1-0.6,0.5-0.8c0.3-0.2,0.7-0.3,1.1-0.3c0.4,0,0.7,0.1,1,0.2c0.2,0.2,0.3,0.4,0.3,0.6c0,0.3-0.2,0.6-0.6,1.1
			c0,0,0.1,0.1,0.2,0.2c0.1,0.1,0.2,0.2,0.3,0.4C97.3,83.3,97.3,83.5,97.3,83.7z M96.8,81.4c0-0.2-0.2-0.4-0.5-0.4
			c-0.2,0-0.3,0-0.4,0.1c-0.1,0.1-0.2,0.1-0.2,0.2c0,0.1,0.1,0.4,0.4,0.6l0.2,0.1C96.7,81.9,96.8,81.6,96.8,81.4z"/>
		<path id="XMLID_53_" class="st17" d="M100.2,85.1c-0.6,0-1.1-0.3-1.5-0.8c-0.4-0.5-0.6-1.2-0.6-2c0-0.8,0.1-1.6,0.4-2.2
			c0.3-0.7,0.7-1.2,1.2-1.6c0.5-0.4,1.1-0.6,1.7-0.6c0.6,0,1.1,0.1,1.4,0.4c0.4,0.3,0.5,0.6,0.5,1c0,0.2,0,0.4-0.1,0.5
			c0,0.1-0.1,0.2-0.2,0.3c-0.1,0.1-0.2,0.1-0.4,0.1c-0.1,0-0.3-0.1-0.4-0.1c-0.2-0.1-0.3-0.1-0.5-0.2c-0.1-0.1-0.1-0.2-0.1-0.3
			c0-0.1,0-0.2,0.1-0.3c0-0.1,0-0.2,0.1-0.3c0-0.2,0-0.2-0.2-0.3c-0.1,0-0.3-0.1-0.4-0.1c-0.4,0-0.8,0.3-1.1,1
			c-0.3,0.7-0.5,1.6-0.5,2.6c0,0.7,0.1,1.2,0.3,1.5c0.2,0.3,0.5,0.5,0.8,0.5c0.2,0,0.4,0,0.6-0.1c0.2-0.1,0.4-0.2,0.6-0.3
			c0.1-0.1,0.1-0.1,0.2-0.2c0,0,0.1-0.1,0.1-0.1c0,0,0.1,0,0.1,0.1c0.1,0.1,0.1,0.1,0.2,0.2c0.1,0,0.1,0.1,0.1,0.2
			c0,0.1-0.1,0.1-0.1,0.1c-0.1,0.1-0.1,0.1-0.2,0.2c-0.2,0.2-0.4,0.3-0.6,0.5c-0.2,0.1-0.4,0.2-0.7,0.3
			C100.7,85.1,100.4,85.1,100.2,85.1z"/>
		<path id="XMLID_50_" class="st17" d="M104.6,85.1c-0.5,0-0.8-0.2-1.1-0.5c-0.3-0.3-0.4-0.8-0.4-1.4c0-0.7,0.2-1.4,0.6-1.9
			c0.4-0.5,0.9-0.8,1.6-0.8l0.4,0c0.1-0.1,0.2-0.1,0.4-0.1c0.5,0,0.8,0.5,0.8,1.5c0.3,0,0.6-0.1,0.8-0.1l0.2,0l0.1,0.4
			c-0.2,0.1-0.5,0.2-0.9,0.3l-0.2,0c-0.1,0.7-0.4,1.3-0.8,1.8C105.7,84.9,105.2,85.1,104.6,85.1z M105.2,84.2c0.3,0,0.5-0.2,0.8-0.5
			c0.2-0.4,0.4-0.7,0.5-1.1c-0.7,0-1.1-0.3-1.1-0.8c0-0.2,0-0.4,0.1-0.6l0-0.1c0,0-0.1,0-0.1,0c0,0-0.1,0-0.1,0
			c-0.2,0.1-0.3,0.4-0.5,0.8c-0.1,0.4-0.2,0.8-0.2,1.4C104.6,83.9,104.8,84.2,105.2,84.2z"/>
		<path id="XMLID_47_" class="st17" d="M112,84.4C112,84.4,112,84.4,112,84.4c-0.1,0.1-0.2,0.2-0.3,0.2c-0.1,0.1-0.2,0.2-0.4,0.2
			c-0.2,0.1-0.4,0.2-0.6,0.2c-0.1,0-0.2,0-0.3,0c-0.4,0-0.7-0.2-0.7-0.6c-0.2,0.2-0.4,0.4-0.7,0.5c-0.2,0.1-0.5,0.2-0.7,0.2
			c-0.3,0-0.6-0.1-0.8-0.4c-0.2-0.3-0.3-0.7-0.3-1.3c0-0.9,0.2-1.6,0.6-2.1c0.4-0.5,0.8-0.8,1.3-0.8c0.5,0,0.9,0.1,1.2,0.3
			c0.1-0.4,0.1-0.8,0.2-1.2c0-0.3,0.1-0.6,0.1-1c0-0.2,0-0.4,0-0.7c0-0.1,0-0.2,0.1-0.2c0.1,0,0.1,0,0.2-0.1c0.2,0,0.3-0.1,0.5-0.1
			c0.1,0,0.2,0,0.3,0c0.1,0,0.3-0.1,0.4,0.1c0,0.3,0,0.6,0,0.9c0,0.2-0.1,0.4-0.1,0.6c0,0.2-0.1,0.5-0.1,0.7
			c-0.1,0.3-0.1,0.6-0.2,0.9c0,0,0,0.1,0,0.1c-0.3,1.5-0.4,2.5-0.4,3c0,0.2,0,0.2,0.1,0.2c0.1,0,0.1,0,0.2-0.1c0,0,0.1,0,0.1-0.1
			c0,0,0.1-0.1,0.1-0.1c0,0,0.1,0,0.1,0c0,0,0.1,0.1,0.1,0.1C112,84.3,112.1,84.3,112,84.4z M109.6,81.1c-0.2,0-0.4,0.2-0.6,0.7
			c-0.2,0.5-0.3,0.9-0.3,1.4c0,0.5,0,0.7,0.1,0.9c0.1,0.1,0.2,0.2,0.3,0.2c0.2,0,0.4-0.1,0.7-0.3c0-0.3,0.2-1.2,0.5-2.7
			C110,81.2,109.8,81.1,109.6,81.1z"/>
		<path id="XMLID_3_" class="st17" d="M112.3,83.3c0-0.8,0.3-1.5,0.8-2c0.5-0.5,1.1-0.7,1.7-0.7c0.4,0,0.7,0.1,1,0.3
			c0.3,0.2,0.4,0.5,0.4,0.8c0,0.3-0.1,0.6-0.2,0.8c-0.2,0.2-0.4,0.4-0.6,0.5c-0.5,0.2-0.9,0.4-1.3,0.4l-0.2,0c0,0.6,0.3,0.9,0.8,0.9
			c0.2,0,0.3,0,0.5-0.1c0.1,0,0.2-0.1,0.2-0.1c0.1,0,0.1-0.1,0.2-0.2c0.1,0,0.1-0.1,0.2,0c0,0,0.1,0.1,0.1,0.1c0,0,0.1,0.1,0.1,0.1
			c0,0-0.1,0.1-0.1,0.1c-0.1,0.1-0.1,0.1-0.2,0.2c-0.2,0.1-0.3,0.2-0.5,0.3c-0.4,0.2-0.8,0.3-1.3,0.3s-0.8-0.2-1.1-0.5
			C112.4,84.3,112.3,83.8,112.3,83.3z M114.5,82.5c0.2-0.2,0.3-0.5,0.3-0.9c0-0.4-0.1-0.5-0.3-0.5c-0.3,0-0.4,0.2-0.6,0.6
			s-0.2,0.8-0.2,1.2C114.1,82.9,114.3,82.7,114.5,82.5z"/>
		<path id="XMLID_42_" class="st17" d="M89.6,80.7c0,0,0.1,0,0.1,0c0.1,0,0.2,0,0.2,0c0.2,0,0.4,0,0.7,0c0.1,0,0.3,0,0.4,0
			c0,0,0.1,0,0.1,0c0,0,0,0.1,0,0.1c0,0,0,0.1,0,0.1c0,0,0,0.1,0,0.1c0,0,0,0.1,0,0.1c0,0,0,0.1,0,0.1c0.5-0.4,0.9-0.6,1.3-0.6
			c0.3,0,0.6,0.1,0.8,0.4c0.2,0.3,0.3,0.7,0.3,1.3c0,1-0.2,1.7-0.5,2.2c-0.3,0.5-0.8,0.7-1.4,0.7c-0.2,0-0.4,0-0.6-0.1
			c-0.1,0-0.2-0.1-0.2-0.1c0-0.1,0-0.1,0.1-0.2c0,0,0.1,0,0.1-0.1c0,0,0.1-0.1,0.1-0.1c0.1-0.1,0.2-0.1,0.3-0.2
			c0.2-0.2,0.3-0.4,0.5-0.7c0.2-0.5,0.4-1.2,0.2-1.8c-0.1-0.2-0.2-0.3-0.3-0.4c-0.1,0-0.3,0-0.4,0.1c-0.3,0.3-0.4,0.7-0.4,1.1
			c-0.1,0.6-0.2,1.1-0.3,1.7c-0.1,0.4-0.1,0.7-0.2,1.1c0,0.3-0.1,0.7-0.1,1c0,0.1,0,0.2,0,0.3c0,0.1,0,0.1-0.1,0.2
			c-0.1,0.1-0.2,0.1-0.2,0.1c-0.1,0-0.3,0.1-0.4,0.1c-0.1,0-0.2,0-0.2,0c-0.1,0-0.2,0-0.3,0c-0.1,0-0.1,0-0.2,0c0,0,0,0,0,0
			c-0.1,0-0.1-0.1-0.1-0.2c0-0.1,0-0.2,0-0.3c0-0.2,0-0.3,0.1-0.5c0-0.1,0-0.3,0.1-0.4c0-0.2,0.1-0.4,0.1-0.6c0-0.2,0.1-0.4,0.1-0.7
			c0,0,0-0.1,0-0.1c0.3-1.2,0.4-2.1,0.4-2.8c0-0.1,0-0.3-0.1-0.4c0-0.1-0.1-0.2-0.1-0.3c0,0-0.1-0.1-0.1-0.1
			C89.6,80.9,89.5,80.9,89.6,80.7C89.6,80.8,89.6,80.7,89.6,80.7z"/>
	</g>
</g>
</svg>
