<?xml version="1.0" encoding="utf-8"?>
<!-- Generator: Adobe Illustrator 21.0.0, SVG Export Plug-In . SVG Version: 6.00 Build 0)  -->
<svg version="1.1" id="Layer_1" xmlns="http://www.w3.org/2000/svg" xmlns:xlink="http://www.w3.org/1999/xlink" x="0px" y="0px"
	 viewBox="0 0 370.5 190" style="enable-background:new 0 0 370.5 190;" xml:space="preserve">
<style type="text/css">
	.st0{opacity:0.5;}
	.st1{fill:#FE6966;}
	.st2{opacity:0.5;fill:#FE6966;}
	.st3{fill:#FE726F;}
</style>
<g>
	<g class="st0">
		<path class="st1" d="M38.6,12L38.6,12c-0.5,0-1-0.4-1-1V7c0-0.5,0.5-1,1-1l0,0c0.5,0,1,0.4,1,1v4C39.6,11.6,39.1,12,38.6,12z"/>
		<path class="st1" d="M41.6,9L41.6,9c0,0.6-0.5,1-1,1h-4c-0.5,0-1-0.4-1-1v0c0-0.5,0.5-1,1-1h4C41.1,8,41.6,8.4,41.6,9z"/>
	</g>
	<g class="st0">
		<path class="st1" d="M12.6,33L12.6,33c-0.6,0-1-0.5-1-1v-4c0-0.5,0.4-1,1-1h0c0.5,0,1,0.4,1,1v4C13.6,32.5,13.1,33,12.6,33z"/>
		<path class="st1" d="M15.6,30L15.6,30c0,0.6-0.4,1-1,1h-4c-0.5,0-1-0.4-1-1v0c0-0.5,0.4-1,1-1h4C15.1,29,15.6,29.4,15.6,30z"/>
	</g>
	<g class="st0">
		<path class="st1" d="M41.6,68L41.6,68c-0.5,0-1-0.4-1-1v-4c0-0.5,0.5-1,1-1l0,0c0.5,0,1,0.5,1,1v4C42.6,67.6,42.1,68,41.6,68z"/>
		<path class="st1" d="M44.6,65L44.6,65c0,0.6-0.5,1-1,1h-4c-0.5,0-1-0.4-1-1l0,0c0-0.6,0.5-1,1-1h4C44.1,64,44.6,64.4,44.6,65z"/>
	</g>
	<g class="st0">
		<path class="st1" d="M57.6,153L57.6,153c-0.5,0-1-0.4-1-1v-4c0-0.6,0.5-1,1-1l0,0c0.5,0,1,0.4,1,1v4C58.6,152.6,58.1,153,57.6,153
			z"/>
		<path class="st1" d="M60.6,150L60.6,150c0,0.6-0.5,1-1,1h-4c-0.5,0-1-0.4-1-1l0,0c0-0.6,0.5-1,1-1h4C60.1,149,60.6,149.4,60.6,150
			z"/>
	</g>
	<g class="st0">
		<path class="st1" d="M32.6,182L32.6,182c-0.5,0-1-0.4-1-1v-4c0-0.6,0.5-1,1-1l0,0c0.5,0,1,0.4,1,1v4C33.6,181.6,33.1,182,32.6,182
			z"/>
		<path class="st1" d="M35.6,179L35.6,179c0,0.6-0.5,1-1,1h-4c-0.5,0-1-0.4-1-1l0,0c0-0.6,0.4-1,1-1h4C35.1,178,35.6,178.4,35.6,179
			z"/>
	</g>
	<g class="st0">
		<path class="st1" d="M60.6,185L60.6,185c-0.5,0-1-0.4-1-1v-4c0-0.6,0.5-1,1-1l0,0c0.5,0,1,0.4,1,1v4C61.6,184.6,61.1,185,60.6,185
			z"/>
		<path class="st1" d="M63.6,182L63.6,182c0,0.6-0.5,1-1,1h-4c-0.5,0-1-0.4-1-1l0,0c0-0.6,0.5-1,1-1h4C63.1,181,63.6,181.4,63.6,182
			z"/>
	</g>
	<g class="st0">
		<path class="st1" d="M268.6,179L268.6,179c-0.5,0-1-0.4-1-1v-4c0-0.6,0.5-1,1-1l0,0c0.5,0,1,0.4,1,1v4
			C269.6,178.6,269.1,179,268.6,179z"/>
		<path class="st1" d="M271.6,176L271.6,176c0,0.6-0.5,1-1,1h-4c-0.5,0-1-0.4-1-1l0,0c0-0.6,0.5-1,1-1h4
			C271.1,175,271.6,175.4,271.6,176z"/>
	</g>
	<g class="st0">
		<path class="st1" d="M309.6,164L309.6,164c-0.5,0-1-0.4-1-1v-4c0-0.6,0.5-1,1-1l0,0c0.5,0,1,0.4,1,1v4
			C310.6,163.6,310.1,164,309.6,164z"/>
		<path class="st1" d="M312.6,161L312.6,161c0,0.6-0.5,1-1,1h-4c-0.5,0-1-0.4-1-1l0,0c0-0.6,0.5-1,1-1h4
			C312.1,160,312.6,160.4,312.6,161z"/>
	</g>
	<g>
		<path class="st2" d="M349.6,108L349.6,108c-0.5,0-1-0.4-1-1v-4c0-0.6,0.5-1,1-1l0,0c0.5,0,1,0.4,1,1v4
			C350.6,107.6,350.1,108,349.6,108z"/>
		<path class="st2" d="M352.6,105L352.6,105c0,0.6-0.5,1-1,1h-4c-0.5,0-1-0.4-1-1l0,0c0-0.6,0.5-1,1-1h4
			C352.1,104,352.6,104.4,352.6,105z"/>
	</g>
	<g class="st0">
		<path class="st1" d="M321.6,75L321.6,75c-0.5,0-1-0.4-1-1v-4c0-0.6,0.5-1,1-1l0,0c0.5,0,1,0.4,1,1v4C322.6,74.6,322.1,75,321.6,75
			z"/>
		<path class="st1" d="M324.6,72L324.6,72c0,0.6-0.5,1-1,1h-4c-0.5,0-1-0.4-1-1l0,0c0-0.6,0.5-1,1-1h4C324.1,71,324.6,71.4,324.6,72
			z"/>
	</g>
	<g class="st0">
		<path class="st1" d="M336.6,35L336.6,35c-0.5,0-1-0.5-1-1v-4c0-0.5,0.5-1,1-1l0,0c0.5,0,1,0.4,1,1v4C337.6,34.5,337.1,35,336.6,35
			z"/>
		<path class="st1" d="M339.6,32L339.6,32c0,0.6-0.5,1-1,1h-4c-0.5,0-1-0.5-1-1v0c0-0.5,0.5-1,1-1h4C339.1,31,339.6,31.4,339.6,32z"
			/>
	</g>
	<g>
		<path class="st2" d="M283.6,8L283.6,8c-0.5,0-1-0.4-1-1V3c0-0.5,0.5-1,1-1l0,0c0.5,0,1,0.4,1,1v4C284.6,7.6,284.1,8,283.6,8z"/>
		<path class="st2" d="M286.6,5L286.6,5c0,0.6-0.5,1-1,1h-4c-0.5,0-1-0.4-1-1v0c0-0.5,0.5-1,1-1h4C286.1,4,286.6,4.4,286.6,5z"/>
	</g>
	<g class="st0">
		<path class="st1" d="M71.6,81L71.6,81c-0.6,0-1-0.4-1-1v-4c0-0.6,0.4-1,1-1l0,0c0.6,0,1,0.4,1,1v4C72.6,80.6,72.1,81,71.6,81z"/>
		<path class="st1" d="M74.6,78L74.6,78c0,0.6-0.4,1-1,1h-4c-0.6,0-1-0.4-1-1l0,0c0-0.6,0.4-1,1-1h4C74.1,77,74.6,77.4,74.6,78z"/>
	</g>
	<g class="st0">
		<path class="st1" d="M85.6,33L85.6,33c-0.6,0-1-0.5-1-1v-4c0-0.5,0.4-1,1-1l0,0c0.6,0,1,0.4,1,1v4C86.6,32.5,86.1,33,85.6,33z"/>
		<path class="st1" d="M88.6,30L88.6,30c0,0.6-0.4,1-1,1h-4c-0.6,0-1-0.4-1-1v0c0-0.5,0.4-1,1-1h4C88.1,29,88.6,29.4,88.6,30z"/>
	</g>
	<g>
		<path class="st1" d="M357.6,55c-5.5,0-10,4.5-10,10c0,5.5,4.5,10,10,10s10-4.5,10-10C367.6,59.5,363.1,55,357.6,55z M357.6,71
			c-3.3,0-6-2.7-6-6s2.7-6,6-6s6,2.7,6,6S360.9,71,357.6,71z"/>
		<circle class="st1" cx="357.6" cy="65" r="3"/>
	</g>
	<circle class="st2" cx="343.6" cy="143" r="3"/>
	<circle class="st1" cx="19.6" cy="140" r="3"/>
	<g>
		<path class="st1" d="M322.9,118.8L322.9,118.8c-0.6,0.6-1.5,0.6-2.1,0l-13.4-13.4c-0.6-0.6-0.6-1.5,0-2.1l0,0
			c0.6-0.6,1.5-0.6,2.1,0l13.4,13.4C323.5,117.2,323.5,118.2,322.9,118.8z"/>
		<path class="st1" d="M322.9,103.2L322.9,103.2c0.6,0.6,0.6,1.5,0,2.1l-13.4,13.4c-0.6,0.6-1.5,0.6-2.1,0l0,0
			c-0.6-0.6-0.6-1.5,0-2.1l13.4-13.4C321.3,102.6,322.3,102.6,322.9,103.2z"/>
	</g>
	<g>
		<g>
			<path class="st1" d="M53.9,121.8L53.9,121.8c-0.6,0.6-1.5,0.6-2.1,0l-13.4-13.4c-0.6-0.6-0.6-1.5,0-2.1l0,0
				c0.6-0.6,1.5-0.6,2.1,0l13.4,13.4C54.5,120.2,54.5,121.2,53.9,121.8z"/>
			<path class="st1" d="M53.9,106.2L53.9,106.2c0.6,0.6,0.6,1.5,0,2.1l-13.4,13.4c-0.6,0.6-1.5,0.6-2.1,0l0,0
				c-0.6-0.6-0.6-1.5,0-2.1l13.4-13.4C52.3,105.6,53.3,105.6,53.9,106.2z"/>
		</g>
		<g>
			<path class="st1" d="M46.1,125L46.1,125c-0.8,0-1.5-0.7-1.5-1.5v-19c0-0.8,0.7-1.5,1.5-1.5l0,0c0.8,0,1.5,0.7,1.5,1.5v19
				C47.6,124.3,46.9,125,46.1,125z"/>
			<path class="st1" d="M57.1,114L57.1,114c0,0.8-0.7,1.5-1.5,1.5h-19c-0.8,0-1.5-0.7-1.5-1.5l0,0c0-0.8,0.7-1.5,1.5-1.5h19
				C56.4,112.5,57.1,113.2,57.1,114z"/>
		</g>
	</g>
	<g>
		<path class="st1" d="M293.6,53.5c-0.4,0-0.8-0.1-1.1-0.4c-0.6-0.6-0.6-1.5,0-2.1l6.4-6.4l-4.4-4.4c-0.6-0.6-0.6-1.4-0.1-2l6-7
			c0.5-0.6,1.5-0.7,2.1-0.2c0.6,0.5,0.7,1.5,0.2,2.1l-5.1,5.9l4.5,4.5c0.6,0.6,0.6,1.5,0,2.1l-7.5,7.5
			C294.4,53.4,294,53.5,293.6,53.5z"/>
	</g>
	<polygon class="st1" points="66.9,38.1 62.5,39.4 61.1,43.7 58.5,40 54,40 56.7,36.4 55.3,32.1 59.6,33.6 63.3,30.9 63.2,35.4 	"/>
	<g>
		<path class="st1" d="M11.1,71.9L11.1,71.9c-0.5,0-0.8-0.4-0.8-0.8v-2.2c0-0.5,0.4-0.8,0.8-0.8h0c0.5,0,0.8,0.4,0.8,0.8v2.2
			C11.9,71.6,11.6,71.9,11.1,71.9z"/>
		<path class="st1" d="M11.1,86L11.1,86c-0.5,0-0.8-0.4-0.8-0.8v-2.2c0-0.5,0.4-0.8,0.8-0.8h0c0.5,0,0.8,0.4,0.8,0.8v2.2
			C11.9,85.6,11.6,86,11.1,86z"/>
		<path class="st1" d="M14.7,73.4L14.7,73.4c-0.3-0.3-0.4-0.9,0-1.2l1.5-1.7c0.3-0.3,0.9-0.4,1.2,0l0,0c0.3,0.3,0.4,0.9,0,1.2
			l-1.5,1.7C15.6,73.6,15.1,73.7,14.7,73.4z"/>
		<path class="st1" d="M14.9,80.4L14.9,80.4c0.3-0.3,0.9-0.3,1.2,0l1.6,1.6c0.3,0.3,0.3,0.9,0,1.2l0,0c-0.3,0.3-0.9,0.3-1.2,0
			l-1.6-1.6C14.6,81.3,14.6,80.7,14.9,80.4z"/>
		<path class="st1" d="M7.8,80.3L7.8,80.3c0.3,0.3,0.4,0.9,0,1.2l-1.5,1.7c-0.3,0.3-0.9,0.4-1.2,0h0c-0.3-0.3-0.4-0.9,0-1.2l1.5-1.7
			C7,80,7.5,79.9,7.8,80.3z"/>
		<path class="st1" d="M6.3,76.7L6.3,76.7c0,0.5-0.4,0.8-0.8,0.8H3.2c-0.5,0-0.8-0.4-0.8-0.8l0,0c0-0.5,0.4-0.8,0.8-0.8h2.2
			C5.9,75.9,6.3,76.3,6.3,76.7z"/>
		<path class="st1" d="M19.8,76.7L19.8,76.7c0,0.5-0.4,0.8-0.8,0.8h-2.3c-0.5,0-0.8-0.4-0.8-0.8l0,0c0-0.5,0.4-0.8,0.8-0.8H19
			C19.4,75.9,19.8,76.3,19.8,76.7z"/>
		<path class="st1" d="M7.8,73.5L7.8,73.5c-0.3,0.3-0.9,0.3-1.2,0L5,71.9c-0.3-0.3-0.3-0.9,0-1.2l0,0c0.3-0.3,0.9-0.3,1.2,0l1.6,1.6
			C8.1,72.6,8.1,73.1,7.8,73.5z"/>
	</g>
	<g>
		<path class="st3" d="M176.5,45c33.3,0,60.1,26.7,60.2,59.9c0,33.3-26.7,60.1-59.9,60.2c-33.3,0-60.1-26.7-60.2-59.9
			C116.5,71.9,143.2,45,176.5,45z M232.9,105c0-31.3-24.8-56.2-56.1-56.3c-31.6-0.1-56.5,24.8-56.5,56.3c0,31.3,24.8,56.2,56.1,56.3
			C207.9,161.4,232.9,136.5,232.9,105z"/>
		<path class="st1" d="M198.4,124.3c0,1.2-0.5,1.8-1.3,2.2c-1.4,0.7-2.1-0.5-2.9-1.3c-5-4.9-10-9.8-14.8-14.9
			c-2.2-2.3-3.4-2.1-5.5,0.1c-4.7,5-9.6,9.7-14.5,14.5c-1,1-1.9,2.8-3.7,1.3c-2-1.8-0.1-2.9,1-4c4.9-5,9.8-10,14.9-14.8
			c1.9-1.8,1.8-3,0-4.8c-5.1-4.8-10-9.8-14.9-14.8c-1-1-2.8-1.9-1.3-3.7c1.8-2.1,2.9-0.1,4,1c5,4.9,10,9.8,14.8,14.9
			c1.8,1.9,3,1.8,4.8,0c4.8-5.1,9.8-10,14.8-14.9c1-1,1.9-2.8,3.7-1.3c2,1.8,0.1,2.9-1,4c-4.9,5-9.8,10-14.9,14.8
			c-1.9,1.8-1.8,3,0,4.8c4.9,4.7,9.7,9.6,14.5,14.5C197,122.7,197.7,123.6,198.4,124.3z"/>
	</g>
</g>
</svg>
