<?xml version="1.0" encoding="utf-8"?>
<!-- Generator: Adobe Illustrator 21.0.0, SVG Export Plug-In . SVG Version: 6.00 Build 0)  -->
<svg version="1.1" id="Layer_1" xmlns="http://www.w3.org/2000/svg" xmlns:xlink="http://www.w3.org/1999/xlink" x="0px" y="0px"
	 viewBox="0 0 409.1 230" style="enable-background:new 0 0 409.1 230;" xml:space="preserve">
<style type="text/css">
	.st0{fill:#A4ECC2;}
	.st1{fill:#1ACE64;}
	.st2{fill:#FFFFFF;}
	.st3{fill:#3CDC9D;}
</style>
<g>
	<g>
		<path class="st0" d="M61.9,34L61.9,34c-0.6,0-1-0.5-1-1v-4c0-0.5,0.4-1,1-1h0c0.5,0,1,0.4,1,1v4C62.9,33.5,62.4,34,61.9,34z"/>
		<path class="st0" d="M64.9,31L64.9,31c0,0.6-0.4,1-1,1h-4c-0.5,0-1-0.4-1-1v0c0-0.5,0.4-1,1-1h4C64.4,30,64.9,30.4,64.9,31z"/>
	</g>
	<g>
		<path class="st0" d="M35.9,55L35.9,55c-0.6,0-1-0.5-1-1v-4c0-0.5,0.4-1,1-1h0c0.5,0,1,0.5,1,1v4C36.9,54.5,36.4,55,35.9,55z"/>
		<path class="st0" d="M38.9,52L38.9,52c0,0.5-0.5,1-1,1h-4c-0.5,0-1-0.5-1-1l0,0c0-0.5,0.4-1,1-1h4C38.4,51,38.9,51.5,38.9,52z"/>
	</g>
	<g>
		<path class="st0" d="M64.9,90L64.9,90c-0.5,0-1-0.4-1-1v-4c0-0.6,0.5-1,1-1l0,0c0.6,0,1,0.4,1,1v4C65.9,89.6,65.4,90,64.9,90z"/>
		<path class="st0" d="M67.9,87L67.9,87c0,0.6-0.4,1-1,1h-4c-0.5,0-1-0.4-1-1l0,0c0-0.6,0.4-1,1-1h4C67.4,86,67.9,86.4,67.9,87z"/>
	</g>
	<g>
		<path class="st0" d="M80.9,175L80.9,175c-0.5,0-1-0.4-1-1v-4c0-0.6,0.5-1,1-1l0,0c0.6,0,1,0.4,1,1v4C81.9,174.6,81.4,175,80.9,175
			z"/>
		<path class="st0" d="M83.9,172L83.9,172c0,0.6-0.4,1-1,1h-4c-0.5,0-1-0.4-1-1l0,0c0-0.6,0.5-1,1-1h4C83.4,171,83.9,171.4,83.9,172
			z"/>
	</g>
	<g>
		<path class="st0" d="M55.9,204L55.9,204c-0.6,0-1-0.4-1-1v-4c0-0.6,0.4-1,1-1h0c0.5,0,1,0.4,1,1v4C56.9,203.6,56.4,204,55.9,204z"
			/>
		<path class="st0" d="M58.9,201L58.9,201c0,0.6-0.5,1-1,1h-4c-0.5,0-1-0.4-1-1l0,0c0-0.6,0.4-1,1-1h4C58.4,200,58.9,200.4,58.9,201
			z"/>
	</g>
	<g>
		<path class="st0" d="M83.9,207L83.9,207c-0.5,0-1-0.4-1-1v-4c0-0.6,0.5-1,1-1l0,0c0.6,0,1,0.4,1,1v4C84.9,206.6,84.4,207,83.9,207
			z"/>
		<path class="st0" d="M86.9,204L86.9,204c0,0.6-0.4,1-1,1h-4c-0.5,0-1-0.4-1-1l0,0c0-0.6,0.5-1,1-1h4C86.4,203,86.9,203.4,86.9,204
			z"/>
	</g>
	<g>
		<path class="st0" d="M291.9,201L291.9,201c-0.5,0-1-0.4-1-1v-4c0-0.6,0.5-1,1-1l0,0c0.6,0,1,0.4,1,1v4
			C292.9,200.6,292.4,201,291.9,201z"/>
		<path class="st0" d="M294.9,198L294.9,198c0,0.6-0.4,1-1,1h-4c-0.5,0-1-0.4-1-1l0,0c0-0.6,0.5-1,1-1h4
			C294.4,197,294.9,197.4,294.9,198z"/>
	</g>
	<g>
		<path class="st0" d="M332.9,186L332.9,186c-0.5,0-1-0.4-1-1v-4c0-0.6,0.5-1,1-1l0,0c0.6,0,1,0.4,1,1v4
			C333.9,185.6,333.4,186,332.9,186z"/>
		<path class="st0" d="M335.9,183L335.9,183c0,0.6-0.4,1-1,1h-4c-0.5,0-1-0.4-1-1l0,0c0-0.6,0.5-1,1-1h4
			C335.4,182,335.9,182.4,335.9,183z"/>
	</g>
	<g>
		<path class="st0" d="M372.9,130L372.9,130c-0.5,0-1-0.4-1-1v-4c0-0.6,0.5-1,1-1l0,0c0.6,0,1,0.4,1,1v4
			C373.9,129.6,373.4,130,372.9,130z"/>
		<path class="st0" d="M375.9,127L375.9,127c0,0.6-0.4,1-1,1h-4c-0.5,0-1-0.4-1-1l0,0c0-0.6,0.5-1,1-1h4
			C375.4,126,375.9,126.4,375.9,127z"/>
	</g>
	<g>
		<path class="st0" d="M344.9,97L344.9,97c-0.5,0-1-0.4-1-1v-4c0-0.6,0.5-1,1-1l0,0c0.6,0,1,0.4,1,1v4C345.9,96.6,345.4,97,344.9,97
			z"/>
		<path class="st0" d="M347.9,94L347.9,94c0,0.6-0.4,1-1,1h-4c-0.5,0-1-0.4-1-1l0,0c0-0.6,0.5-1,1-1h4C347.4,93,347.9,93.4,347.9,94
			z"/>
	</g>
	<g>
		<path class="st0" d="M359.9,57L359.9,57c-0.5,0-1-0.5-1-1v-4c0-0.5,0.5-1,1-1l0,0c0.6,0,1,0.5,1,1v4C360.9,56.5,360.4,57,359.9,57
			z"/>
		<path class="st0" d="M362.9,54L362.9,54c0,0.5-0.4,1-1,1h-4c-0.5,0-1-0.5-1-1l0,0c0-0.5,0.5-1,1-1h4C362.4,53,362.9,53.5,362.9,54
			z"/>
	</g>
	<g>
		<path class="st0" d="M306.9,30L306.9,30c-0.5,0-1-0.4-1-1v-4c0-0.5,0.5-1,1-1l0,0c0.6,0,1,0.4,1,1v4C307.9,29.6,307.4,30,306.9,30
			z"/>
		<path class="st0" d="M309.9,27L309.9,27c0,0.6-0.4,1-1,1h-4c-0.5,0-1-0.4-1-1v0c0-0.5,0.5-1,1-1h4C309.4,26,309.9,26.4,309.9,27z"
			/>
	</g>
	<g>
		<path class="st0" d="M94.9,103L94.9,103c-0.5,0-1-0.4-1-1v-4c0-0.6,0.5-1,1-1l0,0c0.6,0,1,0.4,1,1v4C95.9,102.6,95.4,103,94.9,103
			z"/>
		<path class="st0" d="M97.9,100L97.9,100c0,0.6-0.4,1-1,1h-4c-0.5,0-1-0.4-1-1l0,0c0-0.6,0.5-1,1-1h4C97.4,99,97.9,99.4,97.9,100z"
			/>
	</g>
	<g>
		<path class="st0" d="M108.9,55L108.9,55c-0.5,0-1-0.5-1-1v-4c0-0.5,0.5-1,1-1l0,0c0.6,0,1,0.5,1,1v4C109.9,54.5,109.4,55,108.9,55
			z"/>
		<path class="st0" d="M111.9,52L111.9,52c0,0.5-0.4,1-1,1h-4c-0.5,0-1-0.5-1-1l0,0c0-0.5,0.5-1,1-1h4C111.4,51,111.9,51.5,111.9,52
			z"/>
	</g>
	<g>
		<circle class="st1" cx="380.9" cy="87" r="10"/>
		<circle class="st2" cx="380.9" cy="87" r="6"/>
		<circle class="st1" cx="380.9" cy="87" r="3"/>
	</g>
	<circle class="st0" cx="366.9" cy="165" r="3"/>
	<circle class="st1" cx="42.9" cy="162" r="3"/>
	<g>
		<path class="st1" d="M346.1,140.8L346.1,140.8c-0.6,0.6-1.5,0.6-2.1,0l-13.4-13.4c-0.6-0.6-0.6-1.5,0-2.1l0,0
			c0.6-0.6,1.5-0.6,2.1,0l13.4,13.4C346.7,139.2,346.7,140.2,346.1,140.8z"/>
		<path class="st1" d="M346.1,125.2L346.1,125.2c0.6,0.6,0.6,1.5,0,2.1l-13.4,13.4c-0.6,0.6-1.5,0.6-2.1,0v0c-0.6-0.6-0.6-1.5,0-2.1
			l13.4-13.4C344.6,124.6,345.6,124.6,346.1,125.2z"/>
	</g>
	<g>
		<path class="st1" d="M77.1,143.8L77.1,143.8c-0.6,0.6-1.5,0.6-2.1,0l-13.4-13.4c-0.6-0.6-0.6-1.5,0-2.1v0c0.6-0.6,1.5-0.6,2.1,0
			l13.4,13.4C77.7,142.2,77.7,143.2,77.1,143.8z"/>
		<path class="st1" d="M77.1,128.2L77.1,128.2c0.6,0.6,0.6,1.5,0,2.1l-13.4,13.4c-0.6,0.6-1.5,0.6-2.1,0v0c-0.6-0.6-0.6-1.5,0-2.1
			L75,128.2C75.6,127.6,76.6,127.6,77.1,128.2z"/>
	</g>
	<g>
		<path class="st1" d="M69.4,147L69.4,147c-0.8,0-1.5-0.7-1.5-1.5v-19c0-0.8,0.7-1.5,1.5-1.5h0c0.8,0,1.5,0.7,1.5,1.5v19
			C70.9,146.3,70.2,147,69.4,147z"/>
		<path class="st1" d="M80.4,136L80.4,136c0,0.8-0.7,1.5-1.5,1.5h-19c-0.8,0-1.5-0.7-1.5-1.5l0,0c0-0.8,0.7-1.5,1.5-1.5h19
			C79.7,134.5,80.4,135.2,80.4,136z"/>
	</g>
	<g>
		<path class="st1" d="M316.9,75.5c-0.4,0-0.8-0.1-1.1-0.4c-0.6-0.6-0.6-1.5,0-2.1l6.4-6.4l-4.4-4.4c-0.6-0.6-0.6-1.4-0.1-2l6-7
			c0.5-0.6,1.5-0.7,2.1-0.2c0.6,0.5,0.7,1.5,0.2,2.1l-5.1,5.9l4.5,4.5c0.6,0.6,0.6,1.5,0,2.1l-7.5,7.5
			C317.6,75.4,317.3,75.5,316.9,75.5z"/>
	</g>
	<polygon class="st1" points="90.1,60.1 85.8,61.4 84.4,65.7 81.8,62 77.2,62 80,58.4 78.6,54.1 82.9,55.6 86.6,52.9 86.4,57.4 	"/>
	<path class="st1" d="M34.4,90L34.4,90c-0.8,0-1.5-0.7-1.5-1.5v-4c0-0.8,0.7-1.5,1.5-1.5h0c0.8,0,1.5,0.7,1.5,1.5v4
		C35.9,89.3,35.2,90,34.4,90z"/>
	<path class="st1" d="M34.4,115L34.4,115c-0.8,0-1.5-0.7-1.5-1.5v-4c0-0.8,0.7-1.5,1.5-1.5h0c0.8,0,1.5,0.7,1.5,1.5v4
		C35.9,114.3,35.2,115,34.4,115z"/>
	<path class="st1" d="M40.8,92.5L40.8,92.5c-0.6-0.6-0.6-1.5-0.1-2.1l2.7-2.9c0.6-0.6,1.5-0.6,2.1-0.1h0c0.6,0.6,0.6,1.5,0.1,2.1
		l-2.7,2.9C42.4,93,41.4,93.1,40.8,92.5z"/>
	<path class="st1" d="M41.1,105L41.1,105c0.6-0.6,1.5-0.6,2.1,0l2.8,2.8c0.6,0.6,0.6,1.5,0,2.1l0,0c-0.6,0.6-1.5,0.6-2.1,0l-2.8-2.8
		C40.5,106.6,40.5,105.6,41.1,105z"/>
	<path class="st1" d="M28.6,104.8L28.6,104.8c0.6,0.6,0.6,1.5,0.1,2.1l-2.7,2.9c-0.6,0.6-1.5,0.6-2.1,0.1l0,0
		c-0.6-0.6-0.6-1.5-0.1-2.1l2.7-2.9C27,104.3,28,104.2,28.6,104.8z"/>
	<path class="st1" d="M25.9,98.5L25.9,98.5c0,0.8-0.7,1.5-1.5,1.5l-4,0c-0.8,0-1.5-0.7-1.5-1.5l0,0c0-0.8,0.7-1.5,1.5-1.5l4,0
		C25.2,97,25.9,97.7,25.9,98.5z"/>
	<path class="st1" d="M49.9,98.5L49.9,98.5c0,0.8-0.7,1.5-1.5,1.5l-4,0c-0.8,0-1.5-0.7-1.5-1.5l0,0c0-0.8,0.7-1.5,1.5-1.5l4,0
		C49.2,97,49.9,97.7,49.9,98.5z"/>
	<path class="st1" d="M28.4,92.7L28.4,92.7c-0.6,0.6-1.5,0.6-2.1,0l-2.8-2.8c-0.6-0.6-0.6-1.5,0-2.1h0c0.6-0.6,1.5-0.6,2.1,0
		l2.8,2.8C29,91.2,29,92.1,28.4,92.7z"/>
	<g>
		<path class="st3" d="M259.9,127.2c-0.1,33.1-27,59.9-60.2,59.8c-33.2-0.1-59.9-27-59.8-60.2c0.1-33.1,27-59.9,60.2-59.8
			C233.2,67,260,94,259.9,127.2z M256.2,127.1c0.1-31.3-24.7-56.3-56-56.4c-31.5-0.2-56.6,24.8-56.7,56.2
			c-0.1,31.3,24.8,56.3,56,56.5C231,183.5,256.1,158.6,256.2,127.1z"/>
		<path class="st3" d="M232.7,112.1c-0.4,0.5-1,1.3-1.7,2c-12.1,12.1-24.3,24.2-36.3,36.4c-2.1,2.1-3.7,2.2-5.8,0
			c-6.4-6.6-12.9-13-19.4-19.4c-1-1-2.6-2.3-1.2-3.8c1.6-1.7,3-0.2,4.2,1c5.4,5.4,11,10.7,16.2,16.3c2.5,2.7,3.9,2.3,6.3-0.1
			c10.8-11.1,21.8-21.9,32.8-32.9c1-1,1.9-2.5,3.7-1.8C232.4,110.1,232.8,110.8,232.7,112.1z"/>
	</g>
</g>
</svg>
