<?xml version="1.0" encoding="utf-8"?>
<!-- Generator: Adobe Illustrator 19.0.0, SVG Export Plug-In . SVG Version: 6.00 Build 0)  -->
<svg version="1.1" id="Layer_1" xmlns="http://www.w3.org/2000/svg" xmlns:xlink="http://www.w3.org/1999/xlink" x="0px" y="0px"
	 viewBox="0 0 355.9 219.6" style="enable-background:new 0 0 355.9 219.6;" xml:space="preserve">
<style type="text/css">
	.st0{opacity:0.1;fill:#1FB2A7;}
	.st1{fill:#138EA4;}
	.st2{fill:#F05234;}
	.st3{fill:url(#XMLID_16_);}
	.st4{fill:#D3DCE7;}
	.st5{clip-path:url(#XMLID_18_);fill:#BBE5F2;}
	.st6{clip-path:url(#XMLID_18_);fill:#6ACEF0;}
	.st7{fill:#5DBE81;}
	.st8{fill:#19BCBD;}
	.st9{fill:#5D556B;}
	.st10{fill:#FFFFFF;}
	.st11{fill:#4BBEED;}
	.st12{fill:#F68627;}
	.st13{fill:#A4DDEE;}
	.st14{fill:#424A53;}
	.st15{clip-path:url(#XMLID_19_);fill:#424A53;}
	.st16{fill:#4FC8EA;}
	.st17{fill:#3B5975;}
	.st18{fill:#545383;}
	.st19{fill:#F15A46;}
	.st20{fill:#3DB879;}
	.st21{fill:#8C8E90;}
	.st22{font-family:'Roboto-Bold';}
	.st23{font-size:6px;}
	.st24{fill:#193D4B;}
	.st25{fill:#00A651;}
	.st26{fill:none;stroke:#26BBB0;stroke-width:1.5;stroke-linecap:round;stroke-miterlimit:10;}
	.st27{fill:#0FB5DB;}
	.st28{opacity:0.5;}
	.st29{fill:#DC9727;}
	.st30{fill:#EEB04B;}
	.st31{fill:#FBD490;}
	.st32{fill:#F2ECBF;}
	.st33{font-size:5.2188px;}
	.st34{fill:#F18621;}
	.st35{fill:#EF7F22;}
	.st36{fill:#F18721;}
	.st37{fill:none;stroke:#26BBB0;stroke-width:0.25;stroke-linecap:round;stroke-miterlimit:10;}
	.st38{fill:#D94638;}
	.st39{fill:#7CA0D4;}
	.st40{fill:#C04639;}
	.st41{fill:#EFEEEE;}
	.st42{fill:#D04538;}
	.st43{fill:#F4B939;}
	.st44{fill:#EDAF38;}
	.st45{fill:#FFCF45;}
	.st46{fill:#5479BC;}
	.st47{fill:#4C6FB5;}
	.st48{fill:#F8C23D;}
	.st49{fill:#5E85C3;}
	.st50{fill:#6389C6;}
	.st51{fill:#5881C1;}
	.st52{fill:#D89D3C;}
	.st53{fill:#FFFFFE;}
	.st54{fill-rule:evenodd;clip-rule:evenodd;fill:none;stroke:#ECEEF1;stroke-width:10;stroke-miterlimit:10;}
	.st55{fill:#4761AC;}
	.st56{fill:#26BBB0;}
</style>
<g id="XMLID_12_">
	<circle id="XMLID_1088_" class="st0" cx="190.9" cy="96.4" r="20.6"/>
	<g id="XMLID_1_">
		<g id="XMLID_1741_">
			<g id="XMLID_1742_">
				<path id="XMLID_735_" class="st1" d="M16.1,63.9c0.4,0.4,0.6,0.7,1,1.1c-0.2,0.3-0.7,0.4-0.8,1c-0.4-0.5-0.6-0.8-1.1-1
					C15.5,64.5,16,64.4,16.1,63.9z"/>
				<path id="XMLID_732_" class="st1" d="M32.5,48.8c-0.3,0-0.5-0.2-0.5-0.5c0-0.3,0.2-0.5,0.5-0.5c0.3,0,0.5,0.2,0.5,0.5
					C33,48.5,32.7,48.8,32.5,48.8z M32.7,48.2c0-0.1-0.1-0.2-0.3-0.2c-0.1,0-0.2,0.1-0.2,0.3c0,0.1,0.1,0.2,0.2,0.2
					C32.6,48.5,32.6,48.4,32.7,48.2z"/>
				<path id="XMLID_731_" class="st1" d="M29.5,46.5c-0.2,0.1-0.3,0.3-0.5,0.5c-0.2-0.2-0.3-0.4-0.6-0.6c0.2-0.2,0.4-0.4,0.6-0.5
					C29.2,46,29.3,46.2,29.5,46.5z"/>
				<path id="XMLID_727_" class="st1" d="M8.7,60.8c0,0.2-0.2,0.4-0.4,0.4c-0.2,0-0.4-0.2-0.4-0.4c0-0.2,0.2-0.3,0.4-0.3
					C8.5,60.4,8.7,60.6,8.7,60.8z"/>
				<g id="XMLID_1814_">
					<path id="XMLID_726_" class="st1" d="M19.4,44.6c-0.1,0.3,0.2,0.6,0,1c-0.2,0.3-0.4,0.4-0.8,0.2c-0.4-0.1-0.5-0.4-0.4-0.7
						c0.2-0.6,0.3-0.6,0.9-0.5C19.2,44.7,19.3,44.7,19.4,44.6C19.4,44.7,19.4,44.6,19.4,44.6z"/>
				</g>
				<path id="XMLID_475_" class="st1" d="M32.7,48.2c0,0.2-0.1,0.2-0.2,0.3c-0.1,0-0.2-0.1-0.2-0.2c0-0.1,0.1-0.2,0.2-0.3
					C32.5,48,32.6,48.1,32.7,48.2z"/>
			</g>
		</g>
		<g id="XMLID_1738_">
			<path id="XMLID_1009_" class="st2" d="M14,57.8c0-0.3,0-0.5,0-0.8c0.2-0.2,0.2-0.4,0.4-0.6c2.1-2.1,4.3-4.3,6.4-6.4
				c0.1-0.1,0.2-0.1,0.3,0c0.7,0.7,1.5,1.5,2.2,2.2c0.1,0.1,0.1,0.2,0.1,0.3c-0.2,0.8,0.1,1.5,0.8,1.9c0.2,0.1,0.2,0.2,0.2,0.4
				c0,1.8,0,3.7,0,5.5c0,0.2-0.1,0.3-0.2,0.4c-0.7,0.4-0.9,1.1-0.7,1.9c0.2,0.7,0.8,1.2,1.5,1.2c0.8,0,1.5-0.4,1.7-1.1
				c0.2-0.7,0-1.5-0.6-1.9c-0.2-0.1-0.2-0.2-0.2-0.4c0-1.8,0-3.6,0-5.5c0-0.1,0-0.2,0-0.2c0.1,0,0.2,0.1,0.2,0.2
				c0.6,0.6,1.2,1.2,1.8,1.8C28,56.8,28,57,28,57.2c-0.2,0.9,0.4,1.9,1.4,2c0.9,0.1,1.8-0.6,1.9-1.5c0.1-1.1-0.9-2-2-1.8
				c-0.1,0-0.3,0-0.4-0.1c-0.7-0.7-1.4-1.4-2.1-2.2c-0.1-0.1-0.1-0.2-0.1-0.3c0.3-1.3-0.7-2.3-2-2c-0.1,0-0.2,0-0.3-0.1
				c-0.8-0.8-1.5-1.5-2.3-2.3c-0.1-0.1-0.1-0.1,0-0.2c0.8-0.8,1.5-1.7,2.5-2.3c0.2,0,0.5,0,0.7,0c0.3,0.1,0.6,0.3,0.8,0.5
				c3.1,3.1,6.2,6.2,9.3,9.4c0.7,0.7,0.7,1.5,0,2.3c-3.1,3.1-6.2,6.2-9.3,9.3C26.1,68,26,68,26,68.1c-0.6,0.5-1.4,0.5-2,0
				c-0.5-0.5-1-0.9-1.4-1.4c-2.5-2.5-5-5-7.5-7.5C14.7,58.7,14.3,58.4,14,57.8z"/>
		</g>
		<g id="XMLID_1706_">
			<linearGradient id="XMLID_16_" gradientUnits="userSpaceOnUse" x1="38.4391" y1="49.98" x2="44.1243" y2="49.98">
				<stop  offset="0" style="stop-color:#72C27B"/>
				<stop  offset="0.2532" style="stop-color:#5EBEA8"/>
				<stop  offset="1" style="stop-color:#A4519F"/>
			</linearGradient>
			<path id="XMLID_375_" class="st3" d="M44.1,48.1c0,0.1,0,0.2,0,0.3c0,0,0,0,0,0c-0.1,0.3-0.2,0.6-0.5,0.8c0,0,0,0.1,0,0.1
				c0,0.4-0.1,0.7-0.2,1c-0.2,0.6-0.6,1-1.2,1.2c-0.3,0.1-0.6,0.1-0.9,0.1c-0.3,0-0.6,0.1-0.8,0.4c0,0,0,0,0.1,0.1
				c0.3,0.4,0.3,0.9,0.1,1.3c-0.2,0.4-0.7,0.6-1.1,0.6c-0.5-0.1-0.9-0.4-1-0.8c0-0.1,0-0.1,0-0.2c0-0.1,0-0.2,0-0.3c0,0,0,0,0,0
				c0.1-0.3,0.2-0.6,0.5-0.8c0,0,0-0.1,0-0.1c0-1.2,0-2.4,0-3.6c0-0.1,0-0.1-0.1-0.1c-0.2-0.2-0.4-0.4-0.5-0.6c0-0.1,0-0.1,0-0.2
				c0-0.1,0-0.2,0-0.3c0,0,0,0,0-0.1c0.1-0.5,0.5-0.9,1-0.9c0.5,0,1,0.3,1.2,0.8c0.2,0.5,0,1-0.4,1.3c0,0-0.1,0.1-0.1,0.1
				c0,0.8,0,1.7,0,2.5c0,0,0,0,0,0.1c0,0,0.1,0,0.1-0.1c0.3-0.1,0.7-0.2,1.1-0.2c0.5,0,0.9-0.3,1-0.8c0-0.1,0-0.3,0.1-0.4
				c0-0.1,0-0.1-0.1-0.1c-0.4-0.3-0.6-0.8-0.4-1.3c0.2-0.5,0.6-0.8,1.1-0.8c0.5,0,0.9,0.3,1.1,0.8C44.1,48,44.1,48.1,44.1,48.1z
				 M39,52.8c0,0.3,0.3,0.6,0.6,0.6c0.3,0,0.6-0.3,0.6-0.6c0-0.3-0.2-0.6-0.6-0.6C39.3,52.3,39,52.5,39,52.8z M43.6,48.3
				c0-0.3-0.3-0.6-0.6-0.6c-0.3,0-0.6,0.3-0.6,0.6c0,0.3,0.3,0.6,0.6,0.6C43.3,48.8,43.6,48.6,43.6,48.3z M39,47.1
				c0,0.3,0.3,0.6,0.6,0.6c0.3,0,0.6-0.2,0.6-0.6c0-0.3-0.2-0.6-0.6-0.6C39.3,46.6,39,46.8,39,47.1z"/>
		</g>
		<g id="XMLID_1049_">
			<path id="XMLID_1058_" class="st4" d="M41,58c-0.3,0-0.5,0.1-0.7,0.3c-0.2,0.2-0.3,0.4-0.3,0.7c0,0.3,0.1,0.5,0.3,0.7
				c0.2,0.2,0.4,0.3,0.7,0.3c0.3,0,0.5-0.1,0.7-0.3c0.2-0.2,0.3-0.4,0.3-0.7c0-0.3-0.1-0.5-0.3-0.7C41.4,58.1,41.2,58,41,58L41,58z
				 M41,58"/>
			<path id="XMLID_1055_" class="st4" d="M45,66c-0.4,0-0.6-0.3-0.6-0.9v-2.4h1.3v-1.5h-1.3c0-0.2,0-0.7,0-0.9h-1.5v0.9h-0.8v1.5
				h0.8V65c0,0.8,0.1,1.3,0.3,1.7c0.3,0.5,0.7,0.7,1.4,0.7c0.5,0,0.9-0.1,1.2-0.3v-1.4C45.5,65.9,45.3,66,45,66L45,66z M45,66"/>
			<path id="XMLID_1050_" class="st4" d="M40.1,61.1c-0.5,0.2-1,0.3-1.5,0.3c-0.4-0.2-0.8-0.3-1.2-0.3c-0.6,0-1.2,0.2-1.6,0.6
				c-0.5,0.4-0.7,1-0.7,1.7c0,0.4,0.1,0.9,0.4,1.2c0.2,0.4,0.5,0.6,0.8,0.7v0c-0.3,0.1-0.5,0.5-0.5,1c0,0.4,0.1,0.7,0.5,0.9v0
				c-0.9,0.3-1.3,0.8-1.3,1.6c0,0.7,0.3,1.2,0.9,1.5c0.5,0.2,1,0.4,1.7,0.4c1.7,0,2.6-0.7,2.6-2.1c0-0.9-0.7-1.4-2-1.7
				c-0.3,0-0.5-0.2-0.7-0.3c-0.1-0.1-0.2-0.2-0.2-0.4c0-0.3,0.2-0.5,0.6-0.6c0.6-0.1,1-0.3,1.4-0.8c0.4-0.4,0.5-1,0.5-1.5
				c0-0.2-0.1-0.4-0.1-0.6c0.2,0,0.4-0.1,0.5-0.1v4.9h1.7v-6.6h-1.7V61.1z M37.5,68c0.8,0,1.2,0.2,1.2,0.7c0,0.5-0.4,0.7-1.1,0.7
				c-0.8,0-1.2-0.2-1.2-0.7C36.4,68.3,36.7,68,37.5,68L37.5,68z M37.4,64.4c-0.6,0-0.9-0.3-0.9-1c0-0.7,0.3-1,0.9-1
				c0.3,0,0.5,0.1,0.7,0.3c0.1,0.2,0.2,0.4,0.2,0.7C38.2,64,38,64.4,37.4,64.4L37.4,64.4z M37.4,64.4"/>
		</g>
	</g>
	<g id="XMLID_5_">
		<path id="XMLID_13_" class="st4" d="M18.1,139.1C18.1,139.1,18.1,139.1,18.1,139.1c0.2,0,0.3,0.1,0.4,0c0.1,0,0.1,0,0.1,0.1
			c0,0.1-0.1,0.2,0,0.3c0,0.1,0,0.1-0.1,0.1c-0.1-0.1-0.2-0.1-0.3,0c-0.1,0-0.1,0-0.1-0.1C18.1,139.4,18.1,139.3,18.1,139.1
			C18.1,139.2,18.1,139.2,18.1,139.1z"/>
		<path id="XMLID_5360_" class="st4" d="M13.6,151.5c0.2,0.2,0.1,0.6-0.1,0.8c-0.2,0.2-0.6,0.1-0.8-0.1c-0.2-0.2-0.1-0.6,0.1-0.8
			C13,151.2,13.4,151.3,13.6,151.5z M13.3,152c0.1-0.1,0.1-0.2,0-0.3c-0.1-0.1-0.2-0.1-0.3,0c-0.1,0.1-0.1,0.3,0,0.3
			C13.1,152.1,13.2,152.1,13.3,152z"/>
		<path id="XMLID_4469_" class="st4" d="M30,135.9c0.2-0.2,0.7-0.2,0.9,0.1c0.2,0.2,0.1,0.6-0.1,0.8c-0.2,0.2-0.6,0.2-0.8-0.1
			C29.8,136.5,29.8,136.1,30,135.9z"/>
		<g id="XMLID_1112_">
			<g id="XMLID_1146_">
				<defs>
					<rect id="XMLID_885_" x="14.3" y="155.7" width="4.9" height="6"/>
				</defs>
				<clipPath id="XMLID_18_">
					<use xlink:href="#XMLID_885_"  style="overflow:visible;"/>
				</clipPath>
				<path id="XMLID_1151_" class="st5" d="M19.1,160.8l-1.8-3.1v-1.7c0-0.1,0-0.1-0.1-0.1c-0.1,0-0.1,0-0.1,0.1h-0.8
					c0-0.1,0-0.1-0.1-0.1c-0.1,0-0.1,0-0.1,0.1v1.7l-1.8,3.1c-0.1,0.2-0.1,0.4,0,0.6c0.1,0.2,0.3,0.3,0.5,0.3h3.8
					c0.2,0,0.4-0.1,0.5-0.3C19.2,161.2,19.2,161,19.1,160.8L19.1,160.8z M19.1,160.8"/>
				<path id="XMLID_1148_" class="st6" d="M16.7,156.1h-0.4c0-0.1,0-0.1-0.1-0.1c-0.1,0-0.1,0-0.1,0.1v1.7l-1.8,3.1
					c-0.1,0.2-0.1,0.4,0,0.6c0.1,0.2,0.3,0.3,0.5,0.3h1.9V156.1z M16.7,156.1"/>
			</g>
			<path id="XMLID_1143_" class="st7" d="M18.8,161l-0.5-0.9c0,0,0,0-0.1,0h-2.9c0,0-0.1,0-0.1,0l-0.5,0.9c0,0.1,0,0.1,0,0.2
				c0,0.1,0.1,0.1,0.2,0.1h3.8c0.1,0,0.1,0,0.2-0.1C18.8,161.2,18.8,161.1,18.8,161L18.8,161z M18.8,161"/>
			<path id="XMLID_1140_" class="st8" d="M16.7,160.1h-1.5c0,0-0.1,0-0.1,0l-0.5,0.9c0,0.1,0,0.1,0,0.2c0,0.1,0.1,0.1,0.2,0.1h1.9
				V160.1z M16.7,160.1"/>
			<path id="XMLID_1137_" class="st9" d="M17,158.8h-0.6c-0.1,0-0.1,0-0.1-0.1s0-0.1,0.1-0.1H17C17.1,158.6,17.1,158.6,17,158.8
				C17.1,158.7,17.1,158.8,17,158.8L17,158.8z M17,158.8"/>
			<path id="XMLID_1134_" class="st9" d="M17,159.2h-0.6c-0.1,0-0.1,0-0.1-0.1c0-0.1,0-0.1,0.1-0.1H17
				C17.1,159.1,17.1,159.1,17,159.2C17.1,159.2,17.1,159.2,17,159.2L17,159.2z M17,159.2"/>
			<path id="XMLID_1131_" class="st9" d="M17,159.7h-0.6c-0.1,0-0.1,0-0.1-0.1c0-0.1,0-0.1,0.1-0.1H17
				C17.1,159.5,17.1,159.6,17,159.7C17.1,159.7,17.1,159.7,17,159.7L17,159.7z M17,159.7"/>
			<path id="XMLID_1128_" class="st10" d="M17.3,160.7c0,0.1-0.1,0.2-0.2,0.2c-0.1,0-0.2-0.1-0.2-0.2c0-0.1,0.1-0.2,0.2-0.2
				C17.2,160.6,17.3,160.6,17.3,160.7L17.3,160.7z M17.3,160.7"/>
			<path id="XMLID_1125_" class="st7" d="M16.3,160.5c0,0.1-0.1,0.2-0.2,0.2c-0.1,0-0.2-0.1-0.2-0.2c0-0.1,0.1-0.2,0.2-0.2
				C16.2,160.3,16.3,160.4,16.3,160.5L16.3,160.5z M16.3,160.5"/>
			<path id="XMLID_1122_" class="st10" d="M17.9,160.6C17.9,160.6,17.8,160.7,17.9,160.6c-0.1,0.1-0.2,0.1-0.2,0
				S17.7,160.5,17.9,160.6C17.8,160.5,17.9,160.5,17.9,160.6L17.9,160.6z M17.9,160.6"/>
			<path id="XMLID_1119_" class="st7" d="M16.5,160.8C16.5,160.9,16.4,160.9,16.5,160.8c-0.1,0.1-0.2,0.1-0.2,0
				S16.3,160.7,16.5,160.8C16.4,160.7,16.5,160.8,16.5,160.8L16.5,160.8z M16.5,160.8"/>
			<path id="XMLID_1116_" class="st7" d="M15.6,160.7C15.6,160.7,15.6,160.7,15.6,160.7c-0.1,0.1-0.2,0.1-0.2,0
				S15.5,160.6,15.6,160.7C15.6,160.6,15.6,160.6,15.6,160.7L15.6,160.7z M15.6,160.7"/>
			<path id="XMLID_1113_" class="st11" d="M17.3,155.7h-1.1c-0.1,0-0.2,0.1-0.2,0.2c0,0.1,0.1,0.2,0.2,0.2h1.1
				c0.1,0,0.2-0.1,0.2-0.2C17.5,155.8,17.4,155.7,17.3,155.7L17.3,155.7z M17.3,155.7"/>
		</g>
		<g id="XMLID_1154_">
			<path id="XMLID_1211_" class="st12" d="M38.8,160.7l0.5,0.7h4.5l0.5-0.7l-0.9-2.4h-3.7L38.8,160.7z M42.6,160h0.7v0.7h-0.7V160z
				 M41.2,160h0.7v0.7h-0.7V160z M39.8,160h0.7v0.7h-0.7V160z M39.8,160"/>
			<path id="XMLID_1208_" class="st13" d="M32.9,152.7c0,1.1-0.9,2.1-2.1,2.1c-1.1,0-2.1-0.9-2.1-2.1c0-1.1,0.9-2.1,2.1-2.1
				C32,150.7,32.9,151.6,32.9,152.7L32.9,152.7z M32.9,152.7"/>
			<path id="XMLID_1204_" class="st13" d="M30.8,156.2c1.9,0,3.5-1.6,3.5-3.5c0-1.9-1.6-3.5-3.5-3.5c-1.9,0-3.5,1.6-3.5,3.5
				C27.4,154.7,28.9,156.2,30.8,156.2L30.8,156.2z M30.8,150c1.5,0,2.8,1.2,2.8,2.8c0,1.5-1.2,2.8-2.8,2.8c-1.5,0-2.8-1.2-2.8-2.8
				C28.1,151.2,29.3,150,30.8,150L30.8,150z M30.8,150"/>
			<path id="XMLID_1201_" class="st13" d="M25.5,158.6l2.6-2.6c-0.2-0.2-0.4-0.4-0.6-0.6L25,158c-0.2,0.2-0.2,0.4,0,0.5l0,0
				C25.2,158.7,25.4,158.7,25.5,158.6L25.5,158.6z M25.5,158.6"/>
			<path id="XMLID_1189_" class="st13" d="M24.6,161.4h10.8c0.6,0,1-0.5,1-1v-12.5h-3.5c-0.2,0-0.3-0.2-0.3-0.3v-3.5h-8
				c-0.6,0-1,0.5-1,1v15.3C23.5,161,24,161.4,24.6,161.4L24.6,161.4z M31.5,159.3h-4.2v-0.7h4.2V159.3z M35.7,159.3h-3.5v-0.7h3.5
				V159.3z M35.7,157.9h-2.4v-0.7h2.4V157.9z M35.7,156.6h-1v-0.7h1V156.6z M24.2,145.8h7.6v0.7h-7.6V145.8z M28.1,147.2v0.7h-1.7
				v-0.7H28.1z M24.2,147.2h1.4v0.7h-1.4V147.2z M24.2,148.6H26v0.7h-1.7V148.6z M24.5,157.5l2.7-2.7c-1.1-2-0.5-4.5,1.5-5.7
				c2-1.1,4.5-0.5,5.7,1.5c1.1,2,0.5,4.5-1.5,5.7c-1.3,0.7-2.9,0.7-4.2,0l-2.7,2.7c-0.4,0.4-1.1,0.5-1.5,0.1
				C24.1,158.7,24,158.1,24.5,157.5C24.4,157.6,24.5,157.6,24.5,157.5L24.5,157.5z M24.5,157.5"/>
			<path id="XMLID_1186_" class="st13" d="M33.3,144.6v2.6h2.6L33.3,144.6z M33.3,144.6"/>
			<rect id="XMLID_916_" x="24.2" y="145.8" class="st14" width="7.6" height="0.7"/>
			<path id="XMLID_1180_" class="st14" d="M26.7,152.7c0,0.7,0.2,1.4,0.6,2.1l-2.7,2.7c-0.4,0.4-0.4,1.1,0,1.5
				c0.4,0.4,1.1,0.4,1.5,0l2.7-2.7c2,1.1,4.5,0.5,5.7-1.5c1.1-2,0.5-4.5-1.5-5.7c-2-1.1-4.5-0.5-5.7,1.5
				C26.9,151.3,26.7,152,26.7,152.7L26.7,152.7z M25.5,158.6c-0.2,0.2-0.4,0.2-0.6,0c-0.2-0.2-0.2-0.4,0-0.5l2.6-2.6
				c0.2,0.2,0.4,0.4,0.6,0.6L25.5,158.6z M34.3,152.7c0,1.9-1.6,3.5-3.5,3.5c-1.9,0-3.5-1.6-3.5-3.5c0-1.9,1.6-3.5,3.5-3.5
				C32.7,149.3,34.3,150.8,34.3,152.7L34.3,152.7z M34.3,152.7"/>
			<path id="XMLID_1176_" class="st14" d="M28.1,152.7c0,1.5,1.2,2.8,2.8,2.8c1.5,0,2.8-1.2,2.8-2.8c0-1.5-1.2-2.8-2.8-2.8
				C29.3,150,28.1,151.2,28.1,152.7L28.1,152.7z M32.9,152.7c0,1.1-0.9,2.1-2.1,2.1c-1.1,0-2.1-0.9-2.1-2.1s0.9-2.1,2.1-2.1
				C32,150.7,32.9,151.6,32.9,152.7L32.9,152.7z M32.9,152.7"/>
			<rect id="XMLID_908_" x="24.2" y="147.2" class="st14" width="1.4" height="0.7"/>
			<rect id="XMLID_907_" x="26.3" y="147.2" class="st14" width="1.7" height="0.7"/>
			<rect id="XMLID_906_" x="33.3" y="157.3" class="st14" width="2.4" height="0.7"/>
			<rect id="XMLID_905_" x="34.6" y="155.9" class="st14" width="1" height="0.7"/>
			<rect id="XMLID_904_" x="27.4" y="158.6" class="st14" width="4.2" height="0.7"/>
			<rect id="XMLID_903_" x="32.2" y="158.6" class="st14" width="3.5" height="0.7"/>
			<g id="XMLID_1158_">
				<defs>
					<rect id="XMLID_893_" x="22.8" y="139.9" width="22.2" height="22.3"/>
				</defs>
				<clipPath id="XMLID_19_">
					<use xlink:href="#XMLID_893_"  style="overflow:visible;"/>
				</clipPath>
				<rect id="XMLID_902_" x="24.2" y="148.6" class="st15" width="1.7" height="0.7"/>
				<path id="XMLID_1160_" class="st15" d="M45,160.6l-2.1-5.5v-3.1c0-0.2-0.2-0.3-0.3-0.3h-0.7V142c0-0.6-0.2-1.1-0.6-1.5l-0.2,0.2
					l0.2-0.2c-0.7-0.7-1.9-0.8-2.7-0.2c-0.7-0.5-1.7-0.5-2.4,0c-0.4-0.3-0.8-0.4-1.2-0.4c-1,0-1.9,0.7-2.1,1.7h-2.5
					c-1,0-1.7,0.8-1.7,1.7h-4.2c-1,0-1.7,0.8-1.7,1.7v15.3c0,1,0.8,1.7,1.7,1.7h10.8c1,0,1.7-0.8,1.7-1.7v-12.9c0,0,0-0.1,0-0.1v0
					c0,0,0-0.1-0.1-0.1l-3.8-3.8c0,0-0.1-0.1-0.1-0.1h0c0,0-0.1,0-0.1,0h-3.5c0-0.6,0.5-1,1-1h2.8c0.2,0,0.3-0.2,0.3-0.3
					c0-0.8,0.6-1.4,1.4-1.4c0.3,0,0.5,0.1,0.7,0.2c-0.1,0.1-0.1,0.2-0.1,0.2l0,0.1c0,0.1-0.1,0.2-0.1,0.2v0c0,0.1,0,0.2-0.1,0.3v0.1
					c0,0.1,0,0.2,0,0.3c0,0.6,0.2,1.1,0.6,1.5c0.1,0.1,0.4,0.1,0.5,0c0.4-0.4,0.6-0.9,0.6-1.5c0-0.1,0-0.2,0-0.3v-0.1
					c0-0.1,0-0.2-0.1-0.3v0c0-0.1-0.1-0.2-0.1-0.2l0-0.1c0-0.1-0.1-0.2-0.1-0.2c0.4-0.3,1-0.3,1.4,0c-0.1,0.1-0.1,0.2-0.1,0.2l0,0.1
					c0,0.1-0.1,0.2-0.1,0.2v0c0,0.1,0,0.2-0.1,0.3v0.1c0,0.1,0,0.2-0.1,0.3c0,0.6,0.2,1.1,0.6,1.5c0.1,0.1,0.4,0.1,0.5,0
					c0.4-0.4,0.6-0.9,0.6-1.5c0-0.1,0-0.2,0-0.3v-0.1c0-0.1,0-0.2-0.1-0.3v0c0-0.1-0.1-0.2-0.1-0.2l0-0.1c0-0.1-0.1-0.2-0.1-0.2
					c0.5-0.3,1.2-0.2,1.7,0.2c0.3,0.3,0.4,0.6,0.4,1v9.7h-0.7c-0.2,0-0.3,0.2-0.3,0.3v3.1l-2.1,5.5c0,0.1,0,0.2,0,0.3l0.7,1
					c0.1,0.1,0.2,0.2,0.3,0.2H44c0.1,0,0.2-0.1,0.3-0.2l0.7-1C45.1,160.8,45.1,160.7,45,160.6L45,160.6z M35.9,147.2h-2.6v-2.6
					L35.9,147.2z M32.6,144.1v3.5c0,0.2,0.2,0.3,0.3,0.3h3.5v12.5c0,0.6-0.5,1-1,1H24.6c-0.6,0-1-0.5-1-1v-15.3c0-0.6,0.5-1,1-1
					H32.6z M36.4,142.2L36.4,142.2c0,0.1,0,0.2-0.1,0.3v0c0,0,0,0.1-0.1,0.1c0,0,0-0.1-0.1-0.1v0c0-0.1-0.1-0.2-0.1-0.2v-0.1
					c0-0.2,0-0.3,0-0.5v-0.1c0-0.1,0-0.2,0.1-0.2v0c0,0,0-0.1,0.1-0.1c0,0,0,0.1,0.1,0.1v0c0,0.1,0.1,0.2,0.1,0.2v0.1
					C36.4,141.9,36.4,142.1,36.4,142.2L36.4,142.2z M38.8,142.2L38.8,142.2c0,0.1,0,0.2-0.1,0.3v0c0,0,0,0.1-0.1,0.1
					c0,0,0-0.1-0.1-0.1v0c0-0.1-0.1-0.2-0.1-0.2v-0.1c0-0.2,0-0.3,0-0.5v-0.1c0-0.1,0-0.2,0.1-0.2v0c0,0,0-0.1,0.1-0.1
					c0,0,0,0.1,0.1,0.1v0c0,0.1,0.1,0.2,0.1,0.2v0.1C38.8,141.9,38.8,142.1,38.8,142.2L38.8,142.2z M40.9,155.3c0,0,0-0.1,0-0.1
					v-2.8h1.4v2.8c0,0,0,0.1,0,0.1l0.9,2.3H40L40.9,155.3z M43.8,161.4h-4.5l-0.5-0.7l0.9-2.4h3.7l0.9,2.4L43.8,161.4z M43.8,161.4"
					/>
			</g>
			<rect id="XMLID_892_" x="39.8" y="160" class="st14" width="0.7" height="0.7"/>
			<rect id="XMLID_891_" x="41.2" y="160" class="st14" width="0.7" height="0.7"/>
			<rect id="XMLID_890_" x="42.6" y="160" class="st14" width="0.7" height="0.7"/>
		</g>
	</g>
	<g id="XMLID_14_">
		<g id="XMLID_1479_">
			<path id="XMLID_122_" class="st1" d="M109.5,180.8c0.4,0.5,0.7,0.8,1.1,1.2c-0.2,0.3-0.8,0.4-0.9,1.1c-0.5-0.5-0.7-0.9-1.2-1.2
				C108.8,181.5,109.5,181.4,109.5,180.8z"/>
			<path id="XMLID_4327_" class="st1" d="M128.7,163.4c-0.2,0.1-0.4,0.3-0.5,0.6c-0.2-0.2-0.4-0.5-0.7-0.6c0.3-0.2,0.5-0.4,0.7-0.6
				C128.3,162.9,128.5,163.1,128.7,163.4z"/>
			<path id="XMLID_4310_" class="st1" d="M141.9,170.6c-0.3,0-0.5-0.3-0.5-0.5c0-0.3,0.3-0.5,0.5-0.5c0.3,0,0.5,0.3,0.5,0.6
				C142.4,170.4,142.2,170.6,141.9,170.6z M141.9,169.9c-0.1,0-0.2,0.1-0.2,0.2c0,0.1,0.1,0.2,0.2,0.2c0.1,0,0.2-0.1,0.2-0.2
				C142.1,170,142,169.9,141.9,169.9z"/>
			<g id="XMLID_1608_">
				<path id="XMLID_4227_" class="st1" d="M126.7,157.5c0,0.1-0.1,0.2-0.2,0.2c-0.1,0-0.2-0.1-0.2-0.2c0-0.1,0.1-0.2,0.2-0.2
					C126.6,157.4,126.7,157.4,126.7,157.5z"/>
			</g>
			<path id="XMLID_4032_" class="st1" d="M141.9,169.9c0.1,0,0.2,0.1,0.2,0.2c0,0.1-0.1,0.2-0.2,0.2c-0.1,0-0.2-0.1-0.2-0.2
				C141.8,170,141.8,169.9,141.9,169.9z"/>
		</g>
		<g id="XMLID_1061_">
			<path id="XMLID_1098_" d="M137.3,183.3v6.4c0,0.3-0.2,0.5-0.5,0.5h-23.6c-0.3,0-0.5-0.2-0.5-0.5v-6.4c0-0.3,0.2-0.5,0.5-0.5h1.4
				v-1h-1.4c-0.3,0-0.5-0.2-0.5-0.5V175c0-0.3,0.2-0.5,0.5-0.5h1.4v-1h-1.4c-0.3,0-0.5-0.2-0.5-0.5v-6.4c0-0.3,0.2-0.5,0.5-0.5h23.6
				c0.3,0,0.5,0.2,0.5,0.5v6.4c0,0.3-0.2,0.5-0.5,0.5h-1.4v1h1.4c0.3,0,0.5,0.2,0.5,0.5v6.4c0,0.3-0.2,0.5-0.5,0.5h-1.4v1h1.4
				C137.1,182.8,137.3,183,137.3,183.3L137.3,183.3z M136.4,189.2v-5.5H134v5.5H136.4z M136.4,180.9v-5.5H134v5.5H136.4z
				 M136.4,172.7v-5.5H134v5.5H136.4z M134.6,182.8v-1h-19v1H134.6z M134.6,174.6v-1h-19v1H134.6z M133,189.2v-5.5h-2.4v5.5H133z
				 M133,180.9v-5.5h-2.4v5.5H133z M133,172.7v-5.5h-2.4v5.5H133z M129.7,189.2v-5.5h-15.9v5.5H129.7z M129.7,180.9v-5.5h-15.9v5.5
				H129.7z M129.7,172.7v-5.5h-15.9v5.5H129.7z"/>
			<path id="XMLID_850_" d="M129.7,172.7"/>
			<rect id="XMLID_849_" x="134" y="183.8" class="st16" width="2.4" height="5.5"/>
			<rect id="XMLID_848_" x="134" y="175.5" class="st16" width="2.4" height="5.5"/>
			<rect id="XMLID_847_" x="134" y="167.2" class="st16" width="2.4" height="5.5"/>
			<path id="XMLID_1090_" class="st16" d="M129.7,183.8v5.5h-15.9v-5.5H129.7z M117.5,186.5c0-0.1,0-0.2-0.1-0.3
				c-0.1-0.1-0.2-0.1-0.3-0.1c-0.1,0-0.2,0-0.3,0.1c-0.1,0.1-0.1,0.2-0.1,0.3c0,0.1,0,0.2,0.1,0.3c0.1,0.1,0.2,0.1,0.3,0.1
				c0.1,0,0.2,0,0.3-0.1C117.4,186.7,117.5,186.6,117.5,186.5L117.5,186.5z M116,186.5c0-0.1,0-0.2-0.1-0.3
				c-0.1-0.1-0.2-0.1-0.3-0.1c-0.1,0-0.2,0-0.3,0.1c-0.1,0.1-0.1,0.2-0.1,0.3c0,0.1,0,0.2,0.1,0.3c0.1,0.1,0.2,0.1,0.3,0.1
				c0.1,0,0.2,0,0.3-0.1C116,186.7,116,186.6,116,186.5L116,186.5z M116,186.5"/>
			<path id="XMLID_1085_" class="st16" d="M129.7,175.5v5.5h-15.9v-5.5H129.7z M117.5,178.2c0-0.1,0-0.2-0.1-0.3
				c-0.1-0.1-0.2-0.1-0.3-0.1c-0.1,0-0.2,0-0.3,0.1c-0.1,0.1-0.1,0.2-0.1,0.3c0,0.1,0,0.2,0.1,0.3c0.1,0.1,0.2,0.1,0.3,0.1
				c0.1,0,0.2,0,0.3-0.1C117.4,178.5,117.5,178.3,117.5,178.2L117.5,178.2z M116,178.2c0-0.1,0-0.2-0.1-0.3
				c-0.1-0.1-0.2-0.1-0.3-0.1c-0.1,0-0.2,0-0.3,0.1c-0.1,0.1-0.1,0.2-0.1,0.3c0,0.1,0,0.2,0.1,0.3c0.1,0.1,0.2,0.1,0.3,0.1
				c0.1,0,0.2,0,0.3-0.1C116,178.5,116,178.3,116,178.2L116,178.2z M116,178.2"/>
			<path id="XMLID_1080_" class="st16" d="M129.7,167.2v5.5h-15.9v-5.5H129.7z M117.5,169.9c0-0.1,0-0.2-0.1-0.3
				c-0.1-0.1-0.2-0.1-0.3-0.1c-0.1,0-0.2,0-0.3,0.1c-0.1,0.1-0.1,0.2-0.1,0.3c0,0.1,0,0.2,0.1,0.3c0.1,0.1,0.2,0.1,0.3,0.1
				c0.1,0,0.2,0,0.3-0.1C117.4,170.2,117.5,170.1,117.5,169.9L117.5,169.9z M116,169.9c0-0.1,0-0.2-0.1-0.3
				c-0.1-0.1-0.2-0.1-0.3-0.1c-0.1,0-0.2,0-0.3,0.1c-0.1,0.1-0.1,0.2-0.1,0.3c0,0.1,0,0.2,0.1,0.3c0.1,0.1,0.2,0.1,0.3,0.1
				c0.1,0,0.2,0,0.3-0.1C116,170.2,116,170.1,116,169.9L116,169.9z M116,169.9"/>
			<path id="XMLID_1077_" d="M117.4,169.6c0.1,0.1,0.1,0.2,0.1,0.3c0,0.1,0,0.2-0.1,0.3c-0.1,0.1-0.2,0.1-0.3,0.1
				c-0.1,0-0.2,0-0.3-0.1c-0.1-0.1-0.1-0.2-0.1-0.3c0-0.1,0-0.2,0.1-0.3c0.1-0.1,0.2-0.1,0.3-0.1
				C117.1,169.5,117.3,169.5,117.4,169.6L117.4,169.6z M117.4,169.6"/>
			<path id="XMLID_1074_" d="M117.4,177.9c0.1,0.1,0.1,0.2,0.1,0.3c0,0.1,0,0.2-0.1,0.3c-0.1,0.1-0.2,0.1-0.3,0.1
				c-0.1,0-0.2,0-0.3-0.1c-0.1-0.1-0.1-0.2-0.1-0.3c0-0.1,0-0.2,0.1-0.3c0.1-0.1,0.2-0.1,0.3-0.1
				C117.1,177.7,117.3,177.8,117.4,177.9L117.4,177.9z M117.4,177.9"/>
			<path id="XMLID_1071_" d="M117.4,186.2c0.1,0.1,0.1,0.2,0.1,0.3c0,0.1,0,0.2-0.1,0.3c-0.1,0.1-0.2,0.1-0.3,0.1
				c-0.1,0-0.2,0-0.3-0.1c-0.1-0.1-0.1-0.2-0.1-0.3c0-0.1,0-0.2,0.1-0.3c0.1-0.1,0.2-0.1,0.3-0.1C117.1,186,117.3,186.1,117.4,186.2
				L117.4,186.2z M117.4,186.2"/>
			<path id="XMLID_1068_" d="M115.9,169.6c0.1,0.1,0.1,0.2,0.1,0.3c0,0.1,0,0.2-0.1,0.3c-0.1,0.1-0.2,0.1-0.3,0.1
				c-0.1,0-0.2,0-0.3-0.1c-0.1-0.1-0.1-0.2-0.1-0.3c0-0.1,0-0.2,0.1-0.3c0.1-0.1,0.2-0.1,0.3-0.1
				C115.7,169.5,115.8,169.5,115.9,169.6L115.9,169.6z M115.9,169.6"/>
			<path id="XMLID_1065_" d="M115.9,177.9c0.1,0.1,0.1,0.2,0.1,0.3c0,0.1,0,0.2-0.1,0.3c-0.1,0.1-0.2,0.1-0.3,0.1
				c-0.1,0-0.2,0-0.3-0.1c-0.1-0.1-0.1-0.2-0.1-0.3c0-0.1,0-0.2,0.1-0.3c0.1-0.1,0.2-0.1,0.3-0.1
				C115.7,177.7,115.8,177.8,115.9,177.9L115.9,177.9z M115.9,177.9"/>
			<path id="XMLID_1062_" d="M115.9,186.2c0.1,0.1,0.1,0.2,0.1,0.3c0,0.1,0,0.2-0.1,0.3c-0.1,0.1-0.2,0.1-0.3,0.1
				c-0.1,0-0.2,0-0.3-0.1c-0.1-0.1-0.1-0.2-0.1-0.3c0-0.1,0-0.2,0.1-0.3c0.1-0.1,0.2-0.1,0.3-0.1C115.7,186,115.8,186.1,115.9,186.2
				L115.9,186.2z M115.9,186.2"/>
		</g>
		<g id="XMLID_4_">
			<path id="XMLID_6_" class="st10" d="M141.3,164.7c0,0,0.2-1.8-0.7-2.5c-0.9-0.6-3.5-2-3.5-2l-0.5-0.1l-1.5,0.4l-2.9,1.8l-0.4,0.8
				l-0.1,1.1l0.1,2.6c0,0,0.1,0.8,0.3,1c0.2,0.2,0.4,0.6,0.4,0.6c0.1,0,1.2,0.7,1.2,0.7l2.4,1.3c0,0,0.8,0.1,0.9,0
				c0.1,0,1.2-0.5,1.2-0.5l2.8-1.8c0,0,0.4-0.8,0.4-1.4C141.3,166.5,141.3,164.7,141.3,164.7z"/>
			<g id="XMLID_1469_">
				<g id="XMLID_558_">
					<path id="XMLID_560_" class="st17" d="M131.5,165.4c0-0.6,0-1.1,0-1.7c0-0.8,0.4-1.4,1-1.8c0.9-0.6,1.9-1.1,2.9-1.7
						c0.7-0.4,1.4-0.4,2.1,0c1,0.5,1.9,1.1,2.9,1.7c0.7,0.4,1,1,1,1.8c0,1.1,0,2.2,0,3.3c0,0.8-0.3,1.4-1,1.8
						c-1,0.6-1.9,1.1-2.9,1.7c-0.7,0.4-1.4,0.4-2.1,0c-0.9-0.5-1.9-1.1-2.8-1.6c-0.6-0.4-1-0.9-1-1.7
						C131.5,166.6,131.5,166,131.5,165.4C131.5,165.4,131.5,165.4,131.5,165.4z M141.1,163.9c0-0.8-0.3-1.4-1-1.8
						c-0.9-0.5-1.8-1-2.7-1.6c-0.7-0.4-1.3-0.4-2,0c-0.9,0.5-1.8,1-2.7,1.5c-0.7,0.4-1,1-1,1.8c0,1,0,2,0,3c0,0.8,0.3,1.4,1,1.8
						c0.9,0.5,1.8,1,2.7,1.6c0.6,0.4,1.3,0.4,1.9,0c0.9-0.5,1.9-1.1,2.8-1.6c0.6-0.4,0.9-0.9,0.9-1.7"/>
				</g>
				<path id="XMLID_555_" class="st18" d="M136.4,168.5c-0.4,0-0.9,0-1.3,0c-0.4,0-0.4-0.2-0.4-0.5c0-0.3,0.2-0.4,0.4-0.4
					c0.9,0,1.7,0,2.6,0c0.3,0,0.4,0.1,0.4,0.4c0,0.3-0.1,0.5-0.4,0.5C137.3,168.5,136.9,168.5,136.4,168.5
					C136.4,168.5,136.4,168.5,136.4,168.5z"/>
				<g id="XMLID_510_">
					<path id="XMLID_518_" class="st19" d="M136.4,166.8c-0.8,0-1.4-0.4-1.6-1.2c-0.1-0.4-0.1-1,0.1-1.7c0.1-0.4,0.5-0.8,0.9-1
						c0.4-0.2,0.9-0.2,1.3,0c0.6,0.3,0.9,0.9,1,1.5c0,0.1,0,0.3,0,0.4c0,0,0,0.1,0,0.1c0,1.3-0.7,1.7-1.2,1.8
						C136.7,166.7,136.6,166.8,136.4,166.8z M136.4,163.4c-0.1,0-0.2,0-0.3,0.1c-0.2,0.1-0.4,0.4-0.5,0.6c-0.2,0.7-0.2,1.1-0.1,1.3
						c0.2,0.7,0.9,0.7,1.2,0.6c0.3-0.1,0.6-0.3,0.6-1l0,0c0-0.1,0-0.1,0-0.2c0-0.1,0-0.2,0-0.3c0-0.4-0.2-0.7-0.6-0.9
						C136.7,163.5,136.6,163.4,136.4,163.4z"/>
				</g>
			</g>
		</g>
		<g id="XMLID_1458_">
			<g id="XMLID_1464_">
				<path id="XMLID_28_" class="st20" d="M144.7,191.9c-0.1-0.6-0.6-1.2-1.3-1.2c-0.4,0-0.8,0.2-1,0.5c0,0-0.1,0-0.1,0
					c-0.4,0-0.7,0.2-0.8,0.6c-0.3,0.2-0.5,0.5-0.5,0.9c0,0.6,0.4,1,1,1h1.7c0,0,0,0,0,0c0,0,0,0,0,0h0.7c0.5,0,0.9-0.4,0.9-0.9
					C145.3,192.4,145.1,192.1,144.7,191.9L144.7,191.9z M144.4,193.5l-0.7,0l0,0l-1.7,0c-0.4,0-0.7-0.3-0.7-0.7
					c0-0.3,0.1-0.5,0.4-0.6l0.1,0l0-0.1c0.1-0.2,0.3-0.4,0.5-0.4c0.1,0,0.1,0,0.2,0l0.1,0l0.1-0.1c0.2-0.3,0.5-0.5,0.8-0.5
					c0.5,0,0.9,0.4,0.9,1l0,0.1l0.1,0c0.3,0.1,0.5,0.3,0.5,0.6C145,193.2,144.8,193.5,144.4,193.5L144.4,193.5z M144.4,193.5"/>
			</g>
			<path id="XMLID_1459_" class="st18" d="M140.6,191.4c-0.1,0-0.3,0-0.4,0c-0.1,0-0.2,0-0.2,0c0,0-0.1,0-0.1,0c-0.1,0-0.2,0-0.3,0
				c0,0,0,0-0.1,0c-0.1,0-0.2,0-0.3,0c0,0,0,0,0,0c-0.5-0.1-1-0.2-1.3-0.3c0,0,0,0,0,0c-0.1,0-0.1-0.1-0.2-0.1c0,0,0,0,0,0
				c-0.1,0-0.1-0.1-0.1-0.1c0,0,0,0,0,0c0,0-0.1,0-0.1-0.1c0,0,0,0,0,0c0,0-0.1,0-0.1-0.1c0,0,0,0,0,0c0,0,0,0-0.1-0.1c0,0,0,0,0,0
				c0,0,0,0,0-0.1c0,0,0,0,0,0c0,0,0,0,0-0.1c0,0,0-0.1,0-0.1v-1.3c0,0,0,0,0,0c0,0,0.1,0.1,0.1,0.1c0.6,0.4,1.8,0.8,3.5,0.8
				c1.7,0,2.9-0.3,3.5-0.8c0,0,0.1-0.1,0.1-0.1v1.4c0,0.1,0.1,0.2,0.2,0.2c0.1,0,0.2-0.1,0.2-0.2v-3.9c0,0,0-0.1,0-0.1
				c-0.2-0.7-1.5-1.3-3.9-1.3c-2.4,0-3.7,0.7-3.9,1.3c0,0,0,0,0,0.1v5.8c0,0,0,0,0,0.1c0.2,0.8,1.7,1.2,3.1,1.3c0,0,0,0,0,0
				c0.1,0,0.2-0.1,0.2-0.1c0-0.1-0.1-0.2-0.1-0.2c-1.7-0.1-2.8-0.7-2.8-1.1c0,0,0,0,0,0v-1.3c0,0,0,0,0,0c0,0,0.1,0.1,0.1,0.1
				c0.6,0.4,1.8,0.8,3.5,0.8c0.1,0,0.2-0.1,0.2-0.2C140.8,191.5,140.7,191.4,140.6,191.4L140.6,191.4z M140.6,185.3
				c2.1,0,3.6,0.6,3.6,1.2c0,0.6-1.5,1.2-3.6,1.2c-2.1,0-3.6-0.6-3.6-1.2C137,185.9,138.5,185.3,140.6,185.3L140.6,185.3z"/>
			<path id="XMLID_1003_" class="st18" d="M137.1,187.1c0,0,0.1,0.1,0.2,0.1c0,0,0,0,0,0c0,0,0.1,0.1,0.1,0.1c0,0,0,0,0.1,0
				c0.1,0,0.1,0.1,0.2,0.1c0,0,0,0,0,0c0.1,0,0.2,0.1,0.2,0.1c0,0,0,0,0.1,0c0.1,0,0.1,0,0.2,0.1c0,0,0,0,0.1,0c0.1,0,0.2,0,0.3,0.1
				c0,0,0,0,0,0c0.1,0,0.2,0,0.3,0.1c0,0,0.1,0,0.1,0c0.1,0,0.2,0,0.3,0c0,0,0,0,0.1,0c0.1,0,0.2,0,0.4,0c0,0,0.1,0,0.1,0
				c0.1,0,0.2,0,0.3,0c0,0,0.1,0,0.1,0c0.1,0,0.3,0,0.4,0s0.3,0,0.4,0c0,0,0.1,0,0.1,0c0.1,0,0.2,0,0.3,0c0,0,0.1,0,0.1,0
				c0.1,0,0.2,0,0.4,0c0,0,0,0,0.1,0c0.1,0,0.2,0,0.3,0c0,0,0.1,0,0.1,0c0.1,0,0.2,0,0.3-0.1c0,0,0,0,0,0c0.1,0,0.2,0,0.3-0.1
				c0,0,0,0,0.1,0c0.1,0,0.1,0,0.2-0.1c0,0,0,0,0.1,0c0.1,0,0.2-0.1,0.2-0.1c0,0,0,0,0,0c0.1,0,0.1-0.1,0.2-0.1c0,0,0,0,0.1,0
				c0.1,0,0.1-0.1,0.1-0.1c0,0,0,0,0,0c0.1,0,0.1-0.1,0.2-0.1c0,0,0,0,0,0c0,0,0,0,0.1-0.1v1.3c0,0,0,0.1,0,0.1c0,0,0,0,0,0.1
				c0,0,0,0,0,0c0,0,0,0,0,0.1c0,0,0,0,0,0c0,0,0,0-0.1,0.1c0,0,0,0,0,0c0,0-0.1,0-0.1,0.1c0,0,0,0,0,0c0,0-0.1,0-0.1,0.1
				c0,0,0,0,0,0c0,0-0.1,0.1-0.1,0.1c0,0,0,0,0,0c-0.1,0-0.1,0.1-0.2,0.1c0,0,0,0,0,0c-0.4,0.1-0.8,0.3-1.3,0.3c0,0,0,0,0,0
				c-0.1,0-0.2,0-0.3,0c0,0,0,0-0.1,0c-0.1,0-0.2,0-0.3,0c0,0-0.1,0-0.1,0c-0.1,0-0.1,0-0.2,0c-0.1,0-0.3,0-0.4,0
				c-0.1,0-0.3,0-0.4,0c-0.1,0-0.2,0-0.2,0c0,0-0.1,0-0.1,0c-0.1,0-0.2,0-0.3,0c0,0,0,0-0.1,0c-0.1,0-0.2,0-0.3,0c0,0,0,0,0,0
				c-0.5-0.1-1-0.2-1.3-0.3c0,0,0,0,0,0c-0.1,0-0.1-0.1-0.2-0.1c0,0,0,0,0,0c-0.1,0-0.1-0.1-0.1-0.1c0,0,0,0,0,0c0,0-0.1,0-0.1-0.1
				c0,0,0,0,0,0c0,0-0.1,0-0.1-0.1c0,0,0,0,0,0c0,0,0,0-0.1-0.1c0,0,0,0,0,0c0,0,0,0,0-0.1c0,0,0,0,0,0c0,0,0,0,0-0.1
				c0,0,0-0.1,0-0.1L137.1,187.1C137,187.1,137.1,187.1,137.1,187.1C137.1,187.1,137.1,187.1,137.1,187.1L137.1,187.1z"/>
			<path id="XMLID_1001_" class="st18" d="M140.6,185.3"/>
		</g>
	</g>
	<g id="XMLID_194_">
		<text id="XMLID_186_" transform="matrix(1 0 0 1 99.4865 199.655)" class="st21 st22 st23">Attic</text>
	</g>
	<g id="XMLID_191_">
		<text id="XMLID_185_" transform="matrix(1 0 0 1 49.7004 151.3418)" class="st21 st22 st23">Testing</text>
	</g>
	<g id="XMLID_164_">
		<text id="XMLID_180_" transform="matrix(1 0 0 1 27.4025 78.7262)" class="st21 st22 st23">Git-Hosting</text>
	</g>
	<g id="XMLID_62_">
		<path id="XMLID_170_" class="st24" d="M114.4,35.1c0,0.2-0.2,0.2-0.3,0.2c-0.2,0-0.3-0.1-0.5-0.2c0,0-0.1-0.1-0.1-0.1
			c0-0.1,0-0.1,0.1-0.2c0-0.1,0.1-0.2,0.1-0.2c0.1-0.2,0.1-0.3,0.2-0.5c0.1-0.2,0.2-0.4,0.2-0.6c0.1-0.2,0.2-0.4,0.3-0.6
			c0.1-0.2,0.2-0.5,0.3-0.7c0,0,0-0.1,0-0.1c0.2-0.5,0.5-1,0.7-1.5c0.2-0.4,0.3-0.7,0.5-1.1c0.1-0.2,0.2-0.5,0.2-0.8
			c0-0.2-0.2-0.3-0.2-0.5c-0.1-0.3,0.6-0.3,0.7-0.3c0.2,0,0.5-0.1,0.7-0.1c0.2,0,0.4,0,0.6,0c0.2,0,0.4,0,0.5,0.1
			c0.2,0.1,0.2,0.4,0.2,0.5c0.1,0.3,0.1,0.6,0.1,0.9c0,0.2,0,0.3,0,0.5c0,0.5,0,1,0,1.5c0,0.4,0,0.7,0,1.1c0,0.8,0.1,1.4,0.2,1.8
			c0.1,0.1,0.1,0.2,0.2,0.2c0.1,0,0.2,0,0.3-0.1c0.1,0,0.1-0.1,0.2-0.1c0.1,0,0.1-0.1,0.2,0c0,0.1,0.1,0.1,0.1,0.2
			c0,0,0.1,0.1,0.1,0.2c0,0.1-0.1,0.1-0.1,0.1c-0.1,0-0.1,0.1-0.2,0.1c-0.1,0.1-0.2,0.2-0.4,0.2c-0.1,0-0.1,0.1-0.2,0.1
			c-0.3,0.1-0.6,0.2-0.9,0.2c-0.1,0-0.3,0-0.4-0.1c-0.1-0.1-0.2-0.1-0.3-0.2c-0.2-0.3-0.3-0.7-0.3-1.1c0-0.1,0-0.3,0-0.4
			c0-0.1,0-0.2,0-0.3c0-0.1,0.1-0.2,0-0.3c0-0.1-0.1-0.1-0.2-0.1c-0.5,0-0.9,0-1.4,0c-0.2,0-0.4,0-0.5,0.2c-0.1,0.1-0.1,0.3-0.2,0.4
			c-0.1,0.2-0.1,0.4-0.2,0.5c0,0.1-0.1,0.2-0.1,0.3c0,0.1-0.1,0.2-0.1,0.4C114.4,34.9,114.4,35,114.4,35.1z M117.2,32.3l0-1.2
			c0-1,0-1.8-0.1-2.1c-0.1,0-0.1,0-0.1,0c-0.2,0.5-0.4,1-0.5,1.3c-0.2,0.4-0.4,0.8-0.5,1.2c-0.2,0.4-0.3,0.7-0.4,0.8H117.2z"/>
		<path id="XMLID_168_" class="st24" d="M120.2,30.9c0,0,0.1,0,0.1,0c0.1,0,0.2,0,0.3,0c0.2,0,0.5,0,0.7-0.1c0.2,0,0.3,0,0.5,0
			c0,0,0.1,0,0.1,0c0,0,0,0.1,0,0.1c0,0,0,0.1,0,0.1c0,0.1,0,0.1,0,0.2c0,0,0,0.1,0,0.1c0,0,0,0.1,0,0.1c0.5-0.4,1-0.6,1.3-0.6
			c0.4,0,0.6,0.1,0.9,0.4c0.2,0.3,0.3,0.7,0.3,1.3c0,1-0.2,1.7-0.5,2.2c-0.3,0.5-0.9,0.8-1.5,0.7c-0.2,0-0.4,0-0.6-0.1
			c-0.1,0-0.2-0.1-0.2-0.2c0-0.1,0-0.1,0.1-0.2c0,0,0.1,0,0.1-0.1c0,0,0.1-0.1,0.1-0.1c0.1-0.1,0.2-0.1,0.3-0.2
			c0.2-0.2,0.4-0.4,0.5-0.7c0.2-0.5,0.4-1.3,0.2-1.8c-0.1-0.2-0.2-0.4-0.3-0.4c-0.1-0.1-0.3,0-0.4,0.1c-0.3,0.3-0.4,0.7-0.4,1.1
			c-0.1,0.6-0.2,1.2-0.3,1.8c-0.1,0.4-0.2,0.8-0.2,1.2c0,0.3-0.1,0.7-0.1,1c0,0.1,0,0.2,0,0.3c0,0.1,0,0.1-0.1,0.2
			c-0.1,0.1-0.2,0.1-0.3,0.1c-0.1,0-0.3,0.1-0.4,0.1c-0.1,0-0.2,0-0.2,0c-0.1,0-0.2,0-0.3,0c-0.1,0-0.1,0-0.2,0c0,0,0,0,0,0
			c-0.1-0.1-0.1-0.1-0.1-0.2c0-0.1,0-0.2,0-0.3c0-0.2,0-0.4,0.1-0.5c0-0.1,0-0.3,0.1-0.4c0-0.2,0.1-0.4,0.1-0.6
			c0-0.2,0.1-0.5,0.1-0.7c0,0,0-0.1,0-0.1c0.3-1.2,0.4-2.2,0.4-2.9c0-0.1,0-0.3-0.1-0.4c0-0.1-0.1-0.2-0.1-0.3c0,0-0.1-0.1-0.1-0.1
			C120.1,31.1,120.1,31,120.2,30.9C120.1,30.9,120.1,30.9,120.2,30.9z"/>
		<path id="XMLID_165_" class="st24" d="M133,33.9c0,0.4-0.2,0.8-0.6,1.1c-0.1,0.1-0.3,0.2-0.4,0.2c-0.1,0-0.2,0.1-0.3,0.1
			c-0.2,0.1-0.4,0.1-0.6,0.1c-0.4,0-0.9,0-1.2-0.3c-0.3-0.2-0.4-0.5-0.2-0.9c0.2-0.3,0.5-0.5,0.8-0.5c0.4,0.1,0.5,0.4,0.7,0.7
			c0,0.1,0,0.1,0.1,0.2c0,0.1,0.1,0.2,0.2,0.1c0.1,0,0.2-0.1,0.2-0.2c0,0,0-0.1,0-0.1c0-0.3-0.3-0.8-0.8-1.3c-0.6-0.6-0.8-1-0.8-1.4
			c0-0.3,0.2-0.6,0.5-0.8c0.3-0.2,0.7-0.3,1.1-0.3c0.4,0,0.8,0.1,1,0.2c0.2,0.2,0.3,0.4,0.3,0.6c0,0.3-0.2,0.6-0.6,1.1
			c0,0,0.1,0.1,0.2,0.2c0.1,0.1,0.2,0.2,0.3,0.4C133,33.5,133,33.7,133,33.9z M132.5,31.6c0-0.2-0.2-0.4-0.5-0.4
			c-0.2,0-0.3,0-0.4,0.1c-0.1,0.1-0.2,0.1-0.2,0.2c0,0.2,0.2,0.4,0.5,0.6l0.2,0.1C132.3,32.1,132.5,31.8,132.5,31.6z"/>
		<path id="XMLID_158_" class="st25" d="M135.9,35.4c-0.6,0-1.2-0.3-1.6-0.8c-0.4-0.5-0.6-1.2-0.6-2c0-0.8,0.1-1.6,0.4-2.3
			c0.3-0.7,0.7-1.3,1.2-1.7c0.5-0.4,1.1-0.6,1.7-0.6c0.6,0,1.1,0.1,1.5,0.4c0.4,0.3,0.6,0.6,0.6,1c0,0.2,0,0.4-0.1,0.5
			c0,0.1-0.1,0.2-0.2,0.3c-0.1,0.1-0.2,0.1-0.4,0.1c-0.1,0-0.3-0.1-0.4-0.1c-0.2-0.1-0.4-0.1-0.5-0.3c-0.1-0.1-0.1-0.2-0.1-0.4
			c0-0.1,0-0.2,0.1-0.3c0-0.1,0-0.2,0.1-0.3c0-0.2,0-0.2-0.2-0.3c-0.1,0-0.3-0.1-0.4-0.1c-0.4,0-0.8,0.4-1.1,1.1
			c-0.3,0.7-0.5,1.6-0.5,2.7c0,0.7,0.1,1.2,0.3,1.5c0.2,0.3,0.5,0.5,0.8,0.5c0.2,0,0.4,0,0.6-0.1c0.2-0.1,0.4-0.2,0.6-0.4
			c0.1-0.1,0.1-0.1,0.2-0.2c0,0,0.1-0.1,0.1-0.1c0.1,0,0.1,0,0.1,0.1c0.1,0.1,0.1,0.1,0.2,0.2c0.1,0,0.1,0.1,0.1,0.2
			c0,0.1-0.1,0.1-0.1,0.2c-0.1,0.1-0.1,0.1-0.2,0.2c-0.2,0.2-0.4,0.4-0.6,0.5c-0.2,0.1-0.4,0.2-0.7,0.3
			C136.5,35.3,136.2,35.4,135.9,35.4z"/>
		<path id="XMLID_153_" class="st25" d="M140.5,35.4c-0.5,0-0.8-0.2-1.1-0.5c-0.3-0.3-0.4-0.8-0.4-1.4c0-0.8,0.2-1.4,0.6-2
			c0.4-0.6,1-0.8,1.7-0.8l0.4,0c0.1-0.1,0.2-0.1,0.4-0.1c0.5,0,0.8,0.5,0.8,1.5c0.3,0,0.6-0.1,0.9-0.1l0.2,0l0.1,0.4
			c-0.2,0.1-0.5,0.2-0.9,0.3l-0.2,0c-0.1,0.7-0.4,1.4-0.8,1.9C141.7,35.1,141.2,35.4,140.5,35.4z M141.1,34.5c0.3,0,0.5-0.2,0.8-0.6
			c0.2-0.4,0.4-0.8,0.5-1.2c-0.7,0-1.1-0.3-1.1-0.8c0-0.2,0-0.4,0.1-0.6l0.1-0.1c0,0-0.1,0-0.1,0c0,0-0.1,0-0.1,0
			c-0.2,0.1-0.3,0.4-0.5,0.8c-0.2,0.4-0.2,0.9-0.2,1.4C140.5,34.1,140.7,34.5,141.1,34.5z"/>
		<path id="XMLID_150_" class="st25" d="M148.2,34.6C148.2,34.7,148.2,34.7,148.2,34.6c-0.1,0.1-0.2,0.2-0.3,0.2
			c-0.1,0.1-0.2,0.2-0.4,0.2c-0.2,0.1-0.4,0.2-0.6,0.2c-0.1,0-0.2,0-0.3,0c-0.4,0-0.7-0.2-0.8-0.7c-0.2,0.2-0.4,0.4-0.7,0.5
			c-0.3,0.1-0.5,0.2-0.7,0.2c-0.3,0-0.6-0.1-0.8-0.4c-0.2-0.3-0.4-0.7-0.4-1.3c0-0.9,0.2-1.6,0.6-2.1c0.4-0.5,0.8-0.8,1.3-0.8
			c0.5,0,0.9,0.1,1.2,0.3c0.1-0.4,0.1-0.8,0.2-1.2c0-0.3,0.1-0.7,0.1-1c0-0.2,0-0.4,0-0.7c0-0.1,0-0.2,0.1-0.2c0.1,0,0.1,0,0.2-0.1
			c0.2,0,0.4-0.1,0.5-0.1c0.1,0,0.2,0,0.3,0c0.2,0,0.4-0.1,0.4,0.1c0,0.3,0,0.6,0,1c0,0.2-0.1,0.4-0.1,0.6c0,0.3-0.1,0.5-0.1,0.7
			c-0.1,0.3-0.1,0.6-0.2,0.9c0,0,0,0.1,0,0.1c-0.3,1.5-0.5,2.6-0.5,3.1c0,0.2,0,0.2,0.1,0.2c0.1,0,0.1,0,0.2-0.1
			c0,0,0.1-0.1,0.1-0.1c0,0,0.1-0.1,0.1-0.1c0,0,0.1,0,0.1,0c0,0,0.1,0.1,0.1,0.1C148.2,34.5,148.2,34.6,148.2,34.6z M145.7,31.3
			c-0.2,0-0.4,0.2-0.6,0.7c-0.2,0.5-0.3,0.9-0.3,1.4s0,0.8,0.1,0.9c0.1,0.1,0.2,0.2,0.3,0.2c0.2,0,0.5-0.1,0.7-0.3
			c0-0.3,0.2-1.2,0.5-2.7C146.1,31.4,145.9,31.3,145.7,31.3z"/>
		<path id="XMLID_147_" class="st25" d="M148.4,33.5c0-0.9,0.3-1.5,0.8-2c0.5-0.5,1.1-0.7,1.8-0.7c0.4,0,0.7,0.1,1,0.3
			c0.3,0.2,0.4,0.5,0.4,0.8c0,0.3-0.1,0.6-0.3,0.8c-0.2,0.2-0.4,0.4-0.6,0.5c-0.5,0.2-0.9,0.4-1.3,0.5l-0.2,0c0,0.6,0.3,1,0.8,1
			c0.2,0,0.3,0,0.5-0.1c0.1,0,0.2-0.1,0.2-0.1c0.1,0,0.1-0.1,0.2-0.2c0.1,0,0.1-0.1,0.2,0c0,0,0.1,0.1,0.1,0.1c0,0,0.1,0.1,0.1,0.1
			c0,0-0.1,0.1-0.1,0.1c-0.1,0.1-0.1,0.1-0.2,0.2c-0.2,0.1-0.3,0.2-0.5,0.3c-0.4,0.2-0.8,0.3-1.3,0.3c-0.5,0-0.8-0.2-1.1-0.5
			S148.4,34.1,148.4,33.5z M150.8,32.7c0.2-0.2,0.3-0.5,0.3-0.9s-0.1-0.6-0.3-0.6c-0.3,0-0.5,0.2-0.6,0.7c-0.1,0.4-0.2,0.9-0.2,1.2
			C150.3,33.1,150.6,32.9,150.8,32.7z"/>
		<g id="XMLID_71_">
			<path id="XMLID_146_" class="st24" d="M112.3,36.6c0,0.4-0.3,0.7-0.7,0.7h-8c-0.4,0-0.7-0.3-0.7-0.7v-8c0-0.4,0.3-0.7,0.7-0.7h8
				c0.4,0,0.7,0.3,0.7,0.7V36.6z"/>
			<g id="XMLID_74_">
				<g id="XMLID_75_">
					<g id="XMLID_97_">
						<g id="XMLID_1092_">
							<g id="XMLID_1099_">
								<path id="XMLID_1103_" class="st10" d="M111.1,33.9c0-0.4-0.4-0.5-0.6-0.5c-0.4,0.1-0.4,0.5-0.4,0.5l0,0
									c0,0.4-0.1,0.7-0.3,0.8c-0.2,0.2-0.5,0.3-0.8,0.3c-0.7,0-1.1-0.4-1.1-1.1v0c0,0.6-0.2,1.1-0.5,1.4c0,0,0.1,0,0.1,0.1
									c0.4,0.3,0.9,0.5,1.5,0.5c0.6,0,1.1-0.2,1.5-0.5C110.9,35,111.1,34.6,111.1,33.9L111.1,33.9z"/>
								<path id="XMLID_1100_" class="st10" d="M109.1,36.1c-0.7,0-1.3-0.2-1.7-0.5c0,0-0.1-0.1-0.1-0.1l-0.2-0.2l0.2-0.2
									c0.3-0.2,0.4-0.6,0.4-1.2l0.7,0c0,0.6,0.2,0.8,0.7,0.8c0.3,0,0.4-0.1,0.6-0.2c0.1-0.1,0.2-0.3,0.2-0.6
									c0-0.3,0.1-0.7,0.7-0.8c0,0,0.1,0,0.1,0c0.2,0,0.5,0.1,0.6,0.2c0.1,0.1,0.2,0.3,0.2,0.5l0,0c0,0,0,0,0,0l0,0
									c0,0.8-0.2,1.3-0.7,1.7C110.4,36,109.8,36.1,109.1,36.1z M108,35.2c0.3,0.2,0.6,0.3,1.1,0.3c0.5,0,1-0.1,1.3-0.4
									c0.3-0.2,0.4-0.6,0.4-1.2l0,0l0-0.1c0,0,0-0.1,0-0.1c0,0-0.1,0-0.2,0c0,0-0.1,0-0.1,0.1l0,0l0,0c0,0.5-0.1,0.8-0.4,1.1
									c-0.2,0.2-0.6,0.4-1,0.4c-0.4,0-0.7-0.1-1-0.3C108.1,35.1,108.1,35.2,108,35.2z"/>
							</g>
							<g id="XMLID_1093_">
								<path id="XMLID_1097_" class="st10" d="M110.2,31.4c0-0.4-0.1-0.7-0.3-0.8c-0.2-0.2-0.5-0.3-0.8-0.3c-0.7,0-1.1,0.4-1.1,1.1
									c0-0.6-0.2-1.1-0.5-1.4c0,0,0,0,0.1-0.1c0.4-0.3,0.9-0.5,1.5-0.5c0.6,0,1.1,0.2,1.5,0.5c0.4,0.3,0.5,0.8,0.5,1.5
									c0,0,0,0.4-0.4,0.5C110.5,31.9,110.2,31.8,110.2,31.4z"/>
								<path id="XMLID_1094_" class="st10" d="M110.7,32.2c-0.2,0-0.5-0.1-0.6-0.2c-0.1-0.1-0.2-0.3-0.2-0.6c0-0.3-0.1-0.5-0.2-0.6
									c-0.1-0.1-0.3-0.2-0.6-0.2c-0.5,0-0.7,0.2-0.7,0.8l-0.7,0c0-0.5-0.1-0.9-0.4-1.2l-0.2-0.2l0.2-0.2c0,0,0.1-0.1,0.1-0.1
									c0.4-0.4,1-0.5,1.7-0.5c0.7,0,1.3,0.2,1.7,0.5c0.4,0.4,0.7,0.9,0.7,1.7c0,0.3-0.1,0.7-0.7,0.8
									C110.8,32.2,110.7,32.2,110.7,32.2z M109.1,29.9c0.4,0,0.8,0.1,1,0.4c0.3,0.2,0.4,0.6,0.4,1.1c0,0,0,0.1,0,0.1
									c0,0,0.1,0,0.2,0c0,0,0.1,0,0.1-0.1l0,0c0-0.6-0.1-1-0.4-1.2c-0.3-0.3-0.7-0.4-1.3-0.4c-0.4,0-0.8,0.1-1.1,0.3
									c0,0.1,0.1,0.1,0.1,0.2C108.4,30,108.7,29.9,109.1,29.9z"/>
							</g>
						</g>
					</g>
					<g id="XMLID_76_">
						<g id="XMLID_90_">
							<path id="XMLID_94_" class="st25" d="M106.8,34.7c-0.2,0.2-0.5,0.3-0.8,0.3c-0.7,0-1.1-0.4-1.1-1.1v-2.5
								c0-0.7,0.4-1.1,1.1-1.1c0.3,0,0.6,0.1,0.8,0.3c0.2,0.2,0.3,0.5,0.3,0.8v0c0-0.6,0.2-1.1,0.5-1.4c0,0-0.1,0-0.1-0.1
								c-0.4-0.3-0.9-0.5-1.5-0.5c-0.6,0-1.1,0.2-1.5,0.5c-0.4,0.3-0.5,0.8-0.5,1.5v2.5c0,0.7,0.2,1.2,0.5,1.5
								c0.4,0.3,0.9,0.5,1.5,0.5c0.6,0,1.1-0.2,1.5-0.5c0,0,0,0,0.1-0.1c-0.3-0.3-0.5-0.8-0.5-1.4C107.1,34.3,107,34.5,106.8,34.7z"
								/>
							<path id="XMLID_91_" class="st25" d="M106,36.1c-0.7,0-1.3-0.2-1.7-0.5c-0.4-0.4-0.7-1-0.7-1.7v-2.5c0-0.8,0.2-1.3,0.7-1.7
								c0.4-0.4,1-0.5,1.7-0.5c0.7,0,1.3,0.2,1.7,0.5c0,0,0.1,0.1,0.1,0.1L108,30l-0.2,0.2c-0.2,0.2-0.4,0.6-0.4,1.2l-0.7,0
								c0-0.3-0.1-0.5-0.2-0.6c-0.1-0.1-0.3-0.2-0.6-0.2c-0.5,0-0.7,0.2-0.7,0.8v2.5c0,0.6,0.2,0.8,0.7,0.8c0.3,0,0.4-0.1,0.6-0.2
								c0.1-0.1,0.2-0.3,0.2-0.6l0.7,0c0,0.5,0.1,0.9,0.4,1.2l0.2,0.2l-0.2,0.2c0,0-0.1,0.1-0.1,0.1C107.3,36,106.7,36.1,106,36.1z
								 M106,29.8c-0.5,0-1,0.1-1.3,0.4c-0.3,0.2-0.4,0.6-0.4,1.2v2.5c0,0.6,0.1,1,0.4,1.2c0.3,0.3,0.7,0.4,1.3,0.4
								c0.4,0,0.8-0.1,1.1-0.3c0-0.1-0.1-0.1-0.1-0.2c-0.2,0.2-0.6,0.3-1,0.3c-0.9,0-1.4-0.5-1.4-1.4v-2.5c0-0.9,0.5-1.4,1.4-1.4
								c0.4,0,0.7,0.1,1,0.3c0-0.1,0.1-0.1,0.1-0.2C106.8,29.9,106.4,29.8,106,29.8z"/>
						</g>
						<g id="XMLID_85_">
							<path id="XMLID_89_" class="st25" d="M107.1,31.4v2.5c0,0,0,0,0,0c0,0.6,0.2,1.1,0.5,1.4c0.3-0.3,0.5-0.8,0.5-1.4v-2.5
								c0,0,0,0,0,0c0-0.6-0.2-1.1-0.5-1.4C107.2,30.3,107.1,30.7,107.1,31.4z"/>
							<path id="XMLID_86_" class="st25" d="M107.5,35.7l-0.2-0.2c-0.4-0.4-0.6-0.9-0.6-1.6l0-2.5c0-0.7,0.2-1.3,0.6-1.6l0.2-0.2
								l0.2,0.2c0.4,0.4,0.6,0.9,0.6,1.6l0,2.5c0,0.7-0.2,1.3-0.6,1.6L107.5,35.7z M107.6,30.6c-0.1,0.2-0.1,0.5-0.1,0.8v2.5
								c0,0.3,0,0.6,0.1,0.8c0.1-0.2,0.1-0.5,0.1-0.8v-2.5C107.7,31,107.6,30.8,107.6,30.6z"/>
						</g>
						<g id="XMLID_79_">
							<path id="XMLID_84_" class="st25" d="M107.1,34c0,0,0,0.8,0.5,1.3c0.2,0.2,0.5,0.4,0.9,0.5c0.3,0.1,0.6-0.6,0.2-0.8
								c0,0-0.7-0.2-0.7-1.1L107.1,34z"/>
							<path id="XMLID_80_" class="st25" d="M108.5,36.1L108.5,36.1c0,0-0.1,0-0.1,0c-0.5-0.1-0.8-0.3-1.1-0.6
								c-0.6-0.6-0.6-1.5-0.6-1.6l0-0.3l1.6-0.1l0,0.4c0,0.6,0.4,0.7,0.4,0.7l0.1,0l0,0c0.3,0.2,0.4,0.5,0.3,0.9
								C109.1,35.9,108.8,36.1,108.5,36.1z M107.4,34.3c0,0.2,0.1,0.5,0.4,0.8c0.2,0.2,0.4,0.3,0.7,0.4c0,0,0-0.1,0-0.1c0,0,0,0,0,0
								c-0.3-0.1-0.7-0.4-0.8-1L107.4,34.3z"/>
						</g>
					</g>
				</g>
			</g>
		</g>
		<path id="XMLID_69_" class="st24" d="M125.1,30.9c0,0,0.1,0,0.1,0c0.1,0,0.2,0,0.3,0c0.2,0,0.5,0,0.7-0.1c0.2,0,0.3,0,0.5,0
			c0,0,0.1,0,0.1,0c0,0,0,0.1,0,0.1c0,0,0,0.1,0,0.1c0,0.1,0,0.1,0,0.2c0,0,0,0.1,0,0.1c0,0,0,0.1,0,0.1c0.5-0.4,1-0.6,1.3-0.6
			c0.4,0,0.6,0.1,0.9,0.4c0.2,0.3,0.3,0.7,0.3,1.3c0,1-0.2,1.7-0.5,2.2c-0.3,0.5-0.9,0.8-1.5,0.7c-0.2,0-0.4,0-0.6-0.1
			c-0.1,0-0.2-0.1-0.2-0.2c0-0.1,0-0.1,0.1-0.2c0,0,0.1,0,0.1-0.1c0,0,0.1-0.1,0.1-0.1c0.1-0.1,0.2-0.1,0.3-0.2
			c0.2-0.2,0.4-0.4,0.5-0.7c0.2-0.5,0.4-1.3,0.2-1.8c-0.1-0.2-0.2-0.4-0.3-0.4c-0.1-0.1-0.3,0-0.4,0.1c-0.3,0.3-0.4,0.7-0.4,1.1
			c-0.1,0.6-0.2,1.2-0.3,1.8c-0.1,0.4-0.2,0.8-0.2,1.2c0,0.3-0.1,0.7-0.1,1c0,0.1,0,0.2,0,0.3c0,0.1,0,0.1-0.1,0.2
			c-0.1,0.1-0.2,0.1-0.3,0.1c-0.1,0-0.3,0.1-0.4,0.1c-0.1,0-0.2,0-0.2,0c-0.1,0-0.2,0-0.3,0c-0.1,0-0.1,0-0.2,0c0,0,0,0,0,0
			c-0.1-0.1-0.1-0.1-0.1-0.2c0-0.1,0-0.2,0-0.3c0-0.2,0-0.4,0.1-0.5c0-0.1,0-0.3,0.1-0.4c0-0.2,0.1-0.4,0.1-0.6
			c0-0.2,0.1-0.5,0.1-0.7c0,0,0-0.1,0-0.1c0.3-1.2,0.4-2.2,0.4-2.9c0-0.1,0-0.3-0.1-0.4c0-0.1-0.1-0.2-0.1-0.3c0,0-0.1-0.1-0.1-0.1
			C125,31.1,125,31,125.1,30.9C125,30.9,125,30.9,125.1,30.9z"/>
	</g>
	<path id="XMLID_17_" class="st26" d="M100.7,20.9c-20.4-0.3-40.9,6.5-56.5,19.7"/>
	<path id="XMLID_9_" class="st26" d="M20.4,74.6c-7.2,19.3-6.7,41.2,1.1,60.2"/>
	<path id="XMLID_11_" class="st26" d="M45.8,167.5c16.4,13.3,37.8,19.9,58.8,18.3"/>
	<path id="XMLID_3_" class="st26" d="M143.4,172.4c15.9-10.5,28-26.6,33.6-44.9"/>
	<g id="XMLID_10_">
		<line id="XMLID_7_" class="st26" x1="44.2" y1="40.6" x2="44.3" y2="36.9"/>
		<line id="XMLID_24_" class="st26" x1="44.3" y1="40.7" x2="48.3" y2="40.6"/>
	</g>
	<g id="XMLID_27_">
		<line id="XMLID_31_" class="st26" x1="21.8" y1="136" x2="18.5" y2="134.3"/>
		<line id="XMLID_30_" class="st26" x1="21.9" y1="135.9" x2="23.6" y2="132.3"/>
	</g>
	<g id="XMLID_32_">
		<line id="XMLID_34_" class="st26" x1="105.2" y1="185.3" x2="103.4" y2="188.6"/>
		<line id="XMLID_33_" class="st26" x1="105.1" y1="185.2" x2="101.5" y2="183.5"/>
	</g>
	<g id="XMLID_35_">
		<line id="XMLID_41_" class="st26" x1="177.3" y1="126.3" x2="179" y2="129.5"/>
		<line id="XMLID_36_" class="st26" x1="177.1" y1="126.3" x2="173.7" y2="128.3"/>
	</g>
	<g id="XMLID_8_">
		<g id="XMLID_950_">
			<g id="XMLID_970_">
				<path id="XMLID_971_" class="st4" d="M279.1,44.4C279.1,44.4,279.1,44.4,279.1,44.4c-0.1-0.1-0.2-0.2-0.2-0.3c0,0,0-0.1,0-0.1
					c0,0,0.1,0,0.1,0c0.1,0.1,0.1,0.2,0.2,0.3C279.2,44.3,279.2,44.4,279.1,44.4C279.2,44.4,279.2,44.4,279.1,44.4z"/>
			</g>
			<g id="XMLID_953_">
				<g id="XMLID_968_">
					<path id="XMLID_969_" class="st1" d="M273.5,38.1"/>
				</g>
				<g id="XMLID_963_">
					<g id="XMLID_966_">
						<path id="XMLID_967_" class="st1" d="M272.5,39c-0.1,0-0.2-0.1-0.2-0.2v-1.1c0-0.1,0.1-0.2,0.2-0.2c0.1,0,0.2,0.1,0.2,0.2v1.1
							C272.7,38.9,272.6,39,272.5,39z"/>
					</g>
					<g id="XMLID_964_">
						<path id="XMLID_965_" class="st1" d="M273,38.5h-1.1c-0.1,0-0.2-0.1-0.2-0.2c0-0.1,0.1-0.2,0.2-0.2h1.1c0.1,0,0.2,0.1,0.2,0.2
							C273.2,38.4,273.1,38.5,273,38.5z"/>
					</g>
				</g>
				<g id="XMLID_958_">
					<g id="XMLID_961_">
						<path id="XMLID_962_" class="st1" d="M261.9,53.8c-0.1,0-0.2-0.1-0.2-0.2v-1.1c0-0.1,0.1-0.2,0.2-0.2c0.1,0,0.2,0.1,0.2,0.2
							v1.1C262.1,53.7,262,53.8,261.9,53.8z"/>
					</g>
					<g id="XMLID_959_">
						<path id="XMLID_960_" class="st1" d="M262.4,53.2h-1.1c-0.1,0-0.2-0.1-0.2-0.2s0.1-0.2,0.2-0.2h1.1c0.1,0,0.2,0.1,0.2,0.2
							S262.6,53.2,262.4,53.2z"/>
					</g>
				</g>
				<g id="XMLID_954_">
					<path id="XMLID_955_" class="st1" d="M275.3,54.2c-0.3,0-0.6-0.3-0.6-0.6s0.3-0.6,0.6-0.6s0.6,0.3,0.6,0.6
						S275.7,54.2,275.3,54.2z M275.3,53.4c-0.1,0-0.2,0.1-0.2,0.2c0,0.1,0.1,0.2,0.2,0.2s0.2-0.1,0.2-0.2
						C275.6,53.5,275.4,53.4,275.3,53.4z"/>
				</g>
			</g>
			<g id="XMLID_182_">
				<path id="XMLID_499_" class="st27" d="M279.9,40.8h-16.4c-0.5,0-0.9,0.4-0.9,0.9v10.1c0,0.5,0.4,0.9,0.9,0.9h5.4v1.9h-1.3
					c-0.2,0-0.3,0.1-0.3,0.3c0,0.2,0.1,0.3,0.3,0.3h8.2c0.2,0,0.3-0.1,0.3-0.3c0-0.2-0.1-0.3-0.3-0.3h-1.3v-1.9h5.4
					c0.5,0,0.9-0.4,0.9-0.9V41.7C280.8,41.2,280.4,40.8,279.9,40.8L279.9,40.8z M273.9,54.6h-4.5v-1.9h4.5V54.6z M280.3,51.8
					c0,0.2-0.2,0.3-0.3,0.3h-16.4c-0.2,0-0.3-0.2-0.3-0.3V41.7c0-0.2,0.2-0.3,0.3-0.3h16.4c0.2,0,0.3,0.2,0.3,0.3V51.8z M280.3,51.8
					"/>
				<path id="XMLID_471_" class="st27" d="M279.3,42h-15.1c-0.2,0-0.3,0.1-0.3,0.3v8.8c0,0.2,0.1,0.3,0.3,0.3h15.1
					c0.2,0,0.3-0.1,0.3-0.3v-8.8C279.6,42.2,279.5,42,279.3,42L279.3,42z M279,50.9h-14.6v-8.2H279V50.9z M279,50.9"/>
				<g id="XMLID_395_">
					<path id="XMLID_396_" class="st20" d="M268.6,49.9c0.7,0,1.3-0.2,1.9-0.6c0,0,0,0,0,0c0,0,0,0,0,0c0.7-0.6,1.2-1.5,1.2-2.5
						c0-1.7-1.4-3.1-3.1-3.1c-1.7,0-3.1,1.4-3.1,3.1C265.4,48.5,266.8,49.9,268.6,49.9L268.6,49.9z M266,47h2.4l1.4,1.9
						c-0.4,0.2-0.8,0.3-1.3,0.3C267.3,49.3,266.2,48.3,266,47L266,47z M271.1,46.7c0,0.7-0.3,1.4-0.8,1.8l-1.5-1.9v-2.4
						C270.1,44.4,271.1,45.4,271.1,46.7L271.1,46.7z M268.3,44.2v2.2H266C266.2,45.3,267.1,44.3,268.3,44.2L268.3,44.2z M268.3,44.2
						"/>
				</g>
				<g id="XMLID_391_" class="st28">
					<path id="XMLID_392_" class="st20" d="M272.7,44.5h3.8c0.2,0,0.3-0.1,0.3-0.3c0-0.2-0.1-0.3-0.3-0.3h-3.8
						c-0.2,0-0.3,0.1-0.3,0.3C272.4,44.4,272.5,44.5,272.7,44.5L272.7,44.5z M272.7,44.5"/>
				</g>
				<g id="XMLID_384_" class="st28">
					<path id="XMLID_385_" class="st20" d="M277.7,46.4h-3.5c-0.2,0-0.3,0.1-0.3,0.3c0,0.2,0.1,0.3,0.3,0.3h3.5
						c0.2,0,0.3-0.1,0.3-0.3C278,46.6,277.9,46.4,277.7,46.4L277.7,46.4z M277.7,46.4"/>
				</g>
				<g id="XMLID_261_" class="st28">
					<path id="XMLID_262_" class="st20" d="M272.7,47h0.3c0.2,0,0.3-0.1,0.3-0.3c0-0.2-0.1-0.3-0.3-0.3h-0.3c-0.2,0-0.3,0.1-0.3,0.3
						C272.4,46.9,272.5,47,272.7,47L272.7,47z M272.7,47"/>
				</g>
				<g id="XMLID_257_" class="st28">
					<path id="XMLID_258_" class="st20" d="M277.7,47.7h-3.5c-0.2,0-0.3,0.1-0.3,0.3c0,0.2,0.1,0.3,0.3,0.3h3.5
						c0.2,0,0.3-0.1,0.3-0.3C278,47.8,277.9,47.7,277.7,47.7L277.7,47.7z M277.7,47.7"/>
				</g>
				<g id="XMLID_253_" class="st28">
					<path id="XMLID_254_" class="st20" d="M272.7,48.3h0.3c0.2,0,0.3-0.1,0.3-0.3c0-0.2-0.1-0.3-0.3-0.3h-0.3
						c-0.2,0-0.3,0.1-0.3,0.3C272.4,48.2,272.5,48.3,272.7,48.3L272.7,48.3z M272.7,48.3"/>
				</g>
				<g id="XMLID_211_" class="st28">
					<path id="XMLID_215_" class="st20" d="M277.7,49h-3.5c-0.2,0-0.3,0.1-0.3,0.3c0,0.2,0.1,0.3,0.3,0.3h3.5c0.2,0,0.3-0.1,0.3-0.3
						C278,49.1,277.9,49,277.7,49L277.7,49z M277.7,49"/>
				</g>
				<g id="XMLID_190_" class="st28">
					<path id="XMLID_192_" class="st20" d="M272.7,49.6h0.3c0.2,0,0.3-0.1,0.3-0.3c0-0.2-0.1-0.3-0.3-0.3h-0.3
						c-0.2,0-0.3,0.1-0.3,0.3C272.4,49.4,272.5,49.6,272.7,49.6L272.7,49.6z M272.7,49.6"/>
				</g>
				<g id="XMLID_183_" class="st28">
					<path id="XMLID_184_" class="st20" d="M272.7,45.8h5c0.2,0,0.3-0.1,0.3-0.3c0-0.2-0.1-0.3-0.3-0.3h-5c-0.2,0-0.3,0.1-0.3,0.3
						C272.4,45.6,272.5,45.8,272.7,45.8L272.7,45.8z M272.7,45.8"/>
				</g>
			</g>
		</g>
		<g id="XMLID_25_">
			<g id="XMLID_807_">
				<g id="XMLID_808_">
					<g id="XMLID_944_">
						<g id="XMLID_947_">
							<path id="XMLID_948_" class="st1" d="M332.5,112.4c-0.2,0-0.3-0.1-0.3-0.3v-1.8c0-0.2,0.1-0.3,0.3-0.3s0.3,0.1,0.3,0.3v1.8
								C332.8,112.3,332.6,112.4,332.5,112.4z"/>
						</g>
						<g id="XMLID_945_">
							<path id="XMLID_946_" class="st1" d="M333.3,111.5h-1.8c-0.2,0-0.3-0.1-0.3-0.3c0-0.2,0.1-0.3,0.3-0.3h1.8
								c0.2,0,0.3,0.1,0.3,0.3C333.7,111.4,333.5,111.5,333.3,111.5z"/>
						</g>
					</g>
					<g id="XMLID_820_">
						<path id="XMLID_821_" class="st1" d="M314.3,100.6c-0.6,0-1-0.5-1-1s0.5-1,1-1s1,0.5,1,1S314.9,100.6,314.3,100.6z
							 M314.3,99.2c-0.2,0-0.4,0.2-0.4,0.4c0,0.2,0.2,0.4,0.4,0.4s0.4-0.2,0.4-0.4C314.7,99.3,314.6,99.2,314.3,99.2z"/>
					</g>
					<g id="XMLID_809_">
						<path id="XMLID_810_" class="st1" d="M325.1,119.6c-0.6,0-1-0.5-1-1c0-0.6,0.5-1,1-1s1,0.5,1,1
							C326.1,119.1,325.6,119.6,325.1,119.6z M325.1,118.2c-0.2,0-0.4,0.2-0.4,0.4c0,0.2,0.2,0.4,0.4,0.4s0.4-0.2,0.4-0.4
							C325.5,118.4,325.3,118.2,325.1,118.2z"/>
					</g>
				</g>
			</g>
			<g id="XMLID_98_">
				<g id="XMLID_176_">
					<g id="XMLID_179_">
						<path id="XMLID_181_" class="st29" d="M320.1,100.5c-0.1,0-0.2-0.1-0.2-0.2v-1.5c0-0.9,0.7-1.6,1.6-1.6s1.6,0.7,1.6,1.6v1.5
							c0,0.1-0.1,0.2-0.2,0.2s-0.2-0.1-0.2-0.2v-1.5c0-0.7-0.6-1.3-1.3-1.3c-0.7,0-1.3,0.6-1.3,1.3v1.5
							C320.3,100.5,320.2,100.5,320.1,100.5z"/>
					</g>
				</g>
				<path id="XMLID_173_" class="st30" d="M316.7,114.5c3.9,0.7,6.1,0.7,10,0l3.5-0.6c-1.7-1.7-2.7-3.8-2.7-6.2v-3.3
					c0-2.2-1.4-3.8-2.9-4.5c-1.8-0.8-4-0.8-5.8,0c-1.4,0.7-3,2.3-3,4.5v3.3c0,2.4-0.8,4.5-2.6,6.2L316.7,114.5z M316.7,114.5"/>
				<path id="XMLID_133_" class="st31" d="M317.6,105.5L317.6,105.5c-0.2,0-0.4-0.2-0.4-0.4c0-1.7,1.4-2.8,2.2-3.2
					c1.4-0.6,3.1-0.6,4.6,0c0.2,0.1,0.3,0.3,0.2,0.5c-0.1,0.2-0.3,0.3-0.5,0.2c-1.2-0.6-2.7-0.6-4,0c-0.6,0.3-1.7,1.2-1.8,2.5
					C317.9,105.3,317.8,105.5,317.6,105.5L317.6,105.5z M317.6,105.5"/>
				<path id="XMLID_123_" class="st29" d="M318.6,114.8c0.5,1.2,1.7,2,3,2c1.3,0,2.5-0.8,3-2C322.5,115.1,320.8,115.1,318.6,114.8
					L318.6,114.8z M318.6,114.8"/>
				<path id="XMLID_115_" class="st32" d="M312.1,110.6c-0.1,0-0.2,0-0.3-0.1c-0.8-0.8-1.2-1.9-1.2-3c0-1.1,0.4-2.2,1.2-3
					c0.1-0.1,0.4-0.1,0.5,0c0.1,0.1,0.1,0.4,0,0.5c-0.7,0.7-1,1.5-1,2.5s0.4,1.8,1,2.5c0.1,0.1,0.1,0.4,0,0.5
					C312.3,110.6,312.2,110.6,312.1,110.6L312.1,110.6z M312.1,110.6"/>
				<path id="XMLID_105_" class="st32" d="M313.7,109.8c-0.1,0-0.2,0-0.3-0.1c-1.2-1.2-1.2-3.2,0-4.4c0.1-0.1,0.4-0.1,0.5,0
					c0.1,0.1,0.1,0.4,0,0.5c-0.9,0.9-0.9,2.5,0,3.4c0.1,0.1,0.1,0.4,0,0.5C313.8,109.7,313.8,109.8,313.7,109.8L313.7,109.8z
					 M313.7,109.8"/>
				<path id="XMLID_102_" class="st32" d="M331.1,110.6c-0.1,0-0.2,0-0.3-0.1c-0.1-0.1-0.1-0.4,0-0.5c0.7-0.7,1-1.5,1-2.5
					s-0.4-1.8-1-2.5c-0.1-0.1-0.1-0.4,0-0.5c0.1-0.1,0.4-0.1,0.5,0c0.8,0.8,1.2,1.9,1.2,3c0,1.1-0.4,2.2-1.2,3
					C331.3,110.6,331.2,110.6,331.1,110.6L331.1,110.6z M331.1,110.6"/>
				<path id="XMLID_99_" class="st32" d="M329.5,109.8c-0.1,0-0.2,0-0.3-0.1c-0.1-0.1-0.1-0.4,0-0.5c0.9-0.9,0.9-2.5,0-3.4
					c-0.1-0.1-0.1-0.4,0-0.5c0.1-0.1,0.4-0.1,0.5,0c1.2,1.2,1.2,3.2,0,4.4C329.7,109.7,329.6,109.8,329.5,109.8L329.5,109.8z
					 M329.5,109.8"/>
			</g>
		</g>
		<g id="XMLID_949_">
			<g id="XMLID_177_">
				<g id="XMLID_508_">
					<g id="XMLID_509_">
						<g id="XMLID_805_">
							<path id="XMLID_806_" class="st1" d="M259,146.4"/>
						</g>
						<g id="XMLID_803_">
							<path id="XMLID_804_" class="st1" d="M251,148.9"/>
						</g>
						<g id="XMLID_786_">
							<g id="XMLID_801_">
								<path id="XMLID_802_" class="st1" d="M257.6,147.5c-0.1,0-0.2-0.1-0.2-0.2v-1.4c0-0.1,0.1-0.2,0.2-0.2
									c0.1,0,0.2,0.1,0.2,0.2v1.4C257.8,147.4,257.7,147.5,257.6,147.5z"/>
							</g>
							<g id="XMLID_797_">
								<path id="XMLID_799_" class="st1" d="M258.3,146.8h-1.4c-0.1,0-0.2-0.1-0.2-0.2s0.1-0.2,0.2-0.2h1.4c0.1,0,0.2,0.1,0.2,0.2
									S258.4,146.8,258.3,146.8z"/>
							</g>
						</g>
						<g id="XMLID_511_">
							<path id="XMLID_513_" class="st1" d="M265.3,151c-0.4,0-0.7-0.3-0.7-0.7c0-0.4,0.3-0.7,0.7-0.7c0.4,0,0.7,0.3,0.7,0.7
								C266.1,150.7,265.7,151,265.3,151z M265.3,149.9c-0.2,0-0.4,0.2-0.4,0.4c0,0.2,0.2,0.4,0.4,0.4s0.4-0.2,0.4-0.4
								C265.7,150.1,265.5,149.9,265.3,149.9z"/>
						</g>
					</g>
				</g>
				<g id="XMLID_78_">
					<path id="XMLID_82_" class="st1" d="M249,159.9c0,0.4-0.4,1.1-0.7,1.2c-0.5,0.1-1.2-0.4-1.4-0.8c-0.1-0.3,0.2-0.7,0.5-0.8
						c0.2,0,0.3-0.1,0.5-0.2C248.5,159,249,159.3,249,159.9z M247.6,159.7c-0.2-0.1-0.3,0.1-0.4,0.2c-0.1,0.2-0.1,0.4,0,0.5
						c0.2,0.3,0.5,0.5,1,0.4c0.3,0,0.6-0.7,0.6-1c0-0.2-0.2-0.3-0.3-0.4c-0.2-0.1-0.3,0-0.4,0.1C248,159.7,247.8,159.8,247.6,159.7z
						"/>
				</g>
				<g id="XMLID_60_">
					<path id="XMLID_66_" class="st20" d="M266.3,156h-0.5v-2.3c0,0,0,0,0,0c0-0.1,0-0.2-0.1-0.2l-3.8-4.3c0,0,0,0,0,0
						c0,0,0,0-0.1-0.1c0,0,0,0,0,0c0,0,0,0-0.1,0c0,0,0,0,0,0c0,0-0.1,0-0.1,0h-9.3c-0.4,0-0.8,0.3-0.8,0.8v6.2h-0.5
						c-0.6,0-1.1,0.5-1.1,1.1v5.7c0,0.6,0.5,1.1,1.1,1.1h0.5v3.9c0,0.4,0.3,0.8,0.8,0.8h8c0-0.3,0.1-0.7,0.3-1h-8.3v-3.7h12.6v0.8
						c0.2-0.1,0.4-0.1,0.6-0.1c0,0,0.1,0,0.1,0v-0.8h0.5c0.6,0,1.1-0.5,1.1-1.1v-5.7C267.4,156.5,266.9,156,266.3,156z M252.4,149.8
						h8.9v3.9c0,0.2,0.2,0.4,0.4,0.4h3.4v1.9h-12.6V149.8z M255.2,162.5h-3.2v-5.2h1.2v4.2h2.1V162.5z M257.8,162.6
						c-1.5,0-2.4-1.2-2.4-2.6c0-1.6,1-2.7,2.5-2.7c1.6,0,2.5,1.2,2.5,2.6C260.3,161.5,259.3,162.6,257.8,162.6z M265.4,162.2
						c-0.4,0.1-1,0.3-1.7,0.3c-0.9,0-1.6-0.2-2.1-0.7c-0.5-0.4-0.7-1.1-0.7-1.9c0-1.7,1.3-2.7,3-2.7c0.7,0,1.2,0.1,1.4,0.3l-0.2,0.9
						c-0.3-0.1-0.6-0.2-1.2-0.2c-1,0-1.7,0.6-1.7,1.7c0,1.1,0.7,1.7,1.6,1.7c0.3,0,0.5,0,0.6-0.1v-1.1h-0.8v-0.9h1.9V162.2z"/>
					<path id="XMLID_65_" class="st20" d="M265.4,162.2"/>
					<path id="XMLID_61_" class="st20" d="M256.6,159.9c0,1,0.5,1.7,1.3,1.7c0.8,0,1.2-0.8,1.2-1.8c0-0.9-0.4-1.7-1.3-1.7
						C257,158.1,256.6,158.9,256.6,159.9L256.6,159.9z M256.6,159.9"/>
				</g>
			</g>
			<g id="XMLID_57_">
				<path id="XMLID_59_" class="st20" d="M266.5,167c0.4,1.1-0.1,2.5-1.3,3.2c-1.1,0.6-2.6,0.3-3.4-0.7c-0.8-1-0.8-2.5,0.1-3.5
					c0.9-1,2.2-1.1,3.1-0.7c-0.1,0.1-0.2,0.2-0.3,0.4c-0.1,0.1-0.2,0.2-0.2,0.3c0,0-0.1,0.1-0.1,0c-0.9-0.2-1.8,0.2-2.2,1
					c-0.5,1.1,0.2,2.4,1.4,2.6c1,0.1,1.9-0.6,2.1-1.6c0-0.1,0-0.2,0-0.3c0,0,0-0.1,0-0.1C266,167.5,266.2,167.3,266.5,167z"/>
				<path id="XMLID_58_" class="st20" d="M263.8,167.6c0.2-0.3,0.5-0.6,0.7-0.8c0.3-0.3,0.6-0.7,0.9-1c0.2-0.2,0.4-0.2,0.6-0.2
					c0.2,0.1,0.3,0.3,0.3,0.5c0,0.1-0.1,0.2-0.1,0.3c-0.4,0.5-0.8,0.9-1.2,1.4c-0.3,0.3-0.5,0.6-0.8,0.9c-0.2,0.2-0.5,0.3-0.7,0.1
					c0,0-0.1-0.1-0.1-0.1c-0.3-0.3-0.6-0.7-0.9-1c-0.2-0.3-0.2-0.6,0.1-0.8c0.2-0.1,0.5-0.1,0.7,0.1
					C263.5,167.2,263.6,167.3,263.8,167.6C263.8,167.5,263.8,167.6,263.8,167.6z"/>
			</g>
		</g>
		<g id="XMLID_54_">
			<text id="XMLID_161_" transform="matrix(1 0 0 1 260.1188 36.104)" class="st21 st22 st33">Monitoring</text>
		</g>
		<g id="XMLID_51_">
			<text id="XMLID_160_" transform="matrix(1 0 0 1 337.0973 109.9942)" class="st21 st22 st33">Alert</text>
		</g>
		<g id="XMLID_48_">
			<text id="XMLID_163_" transform="matrix(1 0 0 1 248.3024 176.416)" class="st21 st22 st33">Logging</text>
		</g>
		<g id="XMLID_1091_">
			<g id="XMLID_37_">
				<line id="XMLID_44_" class="st26" x1="254.5" y1="47.4" x2="252.3" y2="49.7"/>
				<line id="XMLID_40_" class="st26" x1="254.4" y1="47.2" x2="251.8" y2="45"/>
			</g>
			<g id="XMLID_998_">
				<line id="XMLID_1015_" class="st26" x1="242.1" y1="155" x2="239.1" y2="156.3"/>
				<line id="XMLID_1014_" class="st26" x1="242" y1="154.9" x2="240.5" y2="151.8"/>
			</g>
			<g id="XMLID_1016_">
				<line id="XMLID_1018_" class="st26" x1="318.7" y1="125.5" x2="319.1" y2="128.6"/>
				<line id="XMLID_1017_" class="st26" x1="318.6" y1="125.4" x2="315.2" y2="125.9"/>
			</g>
			<g id="XMLID_52_">
				<line id="XMLID_56_" class="st26" x1="321.5" y1="92.7" x2="319.1" y2="90.6"/>
				<line id="XMLID_53_" class="st26" x1="321.6" y1="92.6" x2="323.7" y2="89.9"/>
			</g>
			<path id="XMLID_49_" class="st26" d="M321.4,91.5c-3.7-17.8-16-33.3-32.7-40.7"/>
			<path id="XMLID_42_" class="st26" d="M276.3,159.2c18.1-3.4,33.8-16.1,41.3-32.8"/>
			<path id="XMLID_50_" class="st26" d="M209.6,114c3.4,17.7,15.2,33.1,31.6,40.8"/>
			<path id="XMLID_47_" class="st26" d="M253.3,47.3c-17.1,3.8-32.1,15.8-39.5,31.7"/>
		</g>
	</g>
	<g id="XMLID_1078_">
		<text id="XMLID_1087_" transform="matrix(1 0 0 1 175.7851 97.4591)" class="st21 st22 st23">Kubernetes</text>
		<g id="XMLID_1066_">
			<path id="XMLID_1072_" class="st34" d="M172.7,90c-1.4,0-2.7,0-4.1,0c-0.5,0-1.1-0.1-1.5-0.4c-1.5-0.8-1.8-2.4-0.9-3.7
				c0.3-0.4,0.7-0.8,1.2-0.9c0.1-0.1,0.1-0.1,0.1-0.3c0.1-1.7,1.2-3,2.8-3.4c1.6-0.4,3.2,0.4,4,1.8c0.1,0.2,0.2,0.2,0.4,0.1
				c1.1-0.5,2.4,0.1,2.6,1.3c0,0.2,0.1,0.3,0.3,0.3c1.1,0.2,2,1.2,2.2,2.3c0.2,0.9-0.3,1.9-1.2,2.4c-0.5,0.3-1.1,0.5-1.7,0.5
				C175.5,90,174.1,90,172.7,90z M169.1,87.7c0.3,0,0.6,0,0.8,0c0,0,0,0,0,0c0.1,0.1,0.1,0.3,0.1,0.4c0,0.3,0.2,0.4,0.5,0.4
				c0.2,0,0.2,0,0.1-0.2c-0.3-1-0.5-2-0.8-3c0-0.1,0-0.1-0.1-0.1c-0.2,0-0.4,0-0.6,0c-0.1,0-0.1,0.2-0.1,0.3
				c-0.3,0.9-0.5,1.9-0.8,2.8c0,0.1-0.1,0.2,0.1,0.2c0.3,0,0.4-0.1,0.5-0.4C168.9,88,169,87.9,169.1,87.7
				C169,87.7,169.1,87.7,169.1,87.7z M172.3,86.1C172.3,86.1,172.4,86.1,172.3,86.1c0.1,0,0.1,0.1,0.1,0.1c0.1,0.7,0.2,1.3,0.3,2
				c0,0.1,0.1,0.2,0.2,0.2c0.1,0,0.2,0,0.3,0c0.1,0,0.2,0,0.2-0.2c0.2-1,0.4-1.9,0.6-2.9c0-0.1,0.1-0.2,0-0.2
				c-0.3-0.1-0.4,0-0.5,0.2c-0.1,0.4-0.1,0.7-0.2,1.1c-0.1,0.4-0.1,0.8-0.2,1.2c-0.1-0.1-0.1-0.2-0.1-0.3c-0.1-0.6-0.2-1.3-0.3-1.9
				c0-0.1,0-0.2-0.1-0.2c-0.4-0.1-0.5,0-0.5,0.4c0,0.2-0.1,0.4-0.1,0.6c-0.1,0.5-0.2,1-0.3,1.6c0-0.1,0-0.1,0-0.1
				c-0.1-0.7-0.3-1.5-0.4-2.2c-0.1-0.3-0.3-0.2-0.5-0.2c-0.2,0-0.1,0.2-0.1,0.2c0.2,0.9,0.4,1.9,0.5,2.8c0.1,0.3,0.3,0.2,0.5,0.3
				c0.2,0,0.2-0.1,0.3-0.3C172.1,87.5,172.2,86.8,172.3,86.1z M175.4,88.5c0.6,0,1-0.2,1.1-0.8c0.1-0.5-0.1-0.8-0.6-1.1
				c-0.2-0.1-0.5-0.2-0.7-0.3c-0.2-0.1-0.3-0.4-0.2-0.6c0.1-0.2,0.3-0.3,0.5-0.2c0.2,0,0.3,0.2,0.3,0.4c0.1,0.3,0.3,0.1,0.4,0.1
				c0.2,0,0.1-0.1,0.1-0.2c0-0.4-0.2-0.6-0.7-0.7c-0.6-0.1-1.1,0.1-1.3,0.6c-0.2,0.6,0.1,1,0.7,1.2c0.1,0.1,0.3,0.1,0.4,0.2
				c0.3,0.1,0.4,0.4,0.3,0.7c-0.1,0.2-0.4,0.4-0.7,0.2c-0.2-0.1-0.3-0.3-0.3-0.5c0-0.3-0.3-0.1-0.4-0.2c-0.2,0-0.1,0.1-0.1,0.2
				C174.4,88.2,174.7,88.5,175.4,88.5z"/>
			<path id="XMLID_1057_" class="st35" d="M169,87.7C169,87.7,169,87.7,169,87.7C169.1,87.7,169,87.7,169,87.7z"/>
			<path id="XMLID_1056_" class="st35" d="M169.9,87.7C169.9,87.7,169.9,87.7,169.9,87.7C169.9,87.7,169.9,87.7,169.9,87.7z"/>
			<path id="XMLID_178_" class="st36" d="M169.5,85.7c0.1,0.5,0.2,0.9,0.3,1.4c0,0.1,0,0.2-0.1,0.2c-0.6,0.1-0.6,0.1-0.5-0.6
				C169.3,86.4,169.4,86.1,169.5,85.7C169.5,85.7,169.5,85.7,169.5,85.7z"/>
		</g>
		<path id="XMLID_1070_" class="st37" d="M205.1,82.1c-7.6-7.5-20.1-7.7-28-0.5"/>
		<path id="XMLID_197_" class="st37" d="M199.2,115.3c7.7-3.3,12.6-11.7,12-20.1"/>
		<path id="XMLID_200_" class="st37" d="M170.7,93.8c-1.2,8.2,3,16.3,10.2,20.3"/>
		<g id="KrGhSR_1_">
			<g id="XMLID_1064_">
				<path id="XMLID_1331_" class="st38" d="M214.2,88.2c0,0.1,0,0.1,0,0.2c0,0.1-0.1,0.2-0.1,0.3c-0.1,0.2-0.2,0.4-0.3,0.6
					c-0.3,0.5-0.6,1.1-0.9,1.6c-0.3,0.6-0.7,1.2-1,1.7c-0.2,0.3-0.4,0.5-0.8,0.5c-0.6,0-1.1,0-1.7,0c0.1-0.2,0.3-0.5,0.4-0.7
					c0,0,0,0,0,0c0.2-0.3,0.3-0.6,0.5-0.9c0.1,0,0.3,0,0.3-0.1c0.1-0.2,0.3-0.4,0.4-0.6c0.2-0.4,0.4-0.8,0.7-1.1
					c0.2-0.3,0.4-0.7,0.6-1c0.1-0.1,0.1-0.2,0-0.3c0-0.1,0-0.1,0-0.2c0.1-0.1,0.2-0.2,0.3-0.3c0,0,0.1-0.1,0-0.1
					c-0.1-0.1-0.2-0.3-0.4-0.4c0,0-0.1-0.1-0.1-0.1c-0.3-0.3-0.5-0.5-0.8-0.8c0,0,0,0-0.1,0c-0.2-0.2-0.3-0.4-0.5-0.5
					c0-0.1,0.1-0.1,0.2-0.1c0.3,0,0.7,0,1,0c0.2,0,0.3,0,0.5,0c0.1,0,0.2,0,0.3,0c0,0,0,0,0,0c0,0,0,0,0,0c0,0,0,0.1,0.1,0.1
					c0,0,0,0,0,0c0,0,0,0.1,0.1,0.1c0,0,0,0,0,0c0,0,0,0.1,0,0.1l0,0l0,0l0,0c0,0,0,0,0,0.1c0,0,0,0.1,0,0.1l0,0l0,0l0,0
					c0,0,0,0,0,0.1c0,0,0,0.1,0,0.1l0,0l0,0l0,0c0,0,0,0,0,0.1c0,0,0,0.1,0,0.1l0,0l0,0l0,0c0,0,0,0,0,0.1c0,0,0,0.1,0,0.1l0,0l0,0
					c0,0,0,0,0,0c0,0,0,0,0,0.1c0,0,0,0.1,0,0.1l0,0l0,0c0,0,0,0,0,0c0,0,0,0,0,0.1c0,0,0,0.1,0,0.1l0,0l0,0c0,0,0,0,0,0
					c0,0,0,0,0,0.1c0,0,0,0.1,0,0.1c0,0,0,0,0,0.1c0,0,0,0.1,0,0.1c0,0,0,0,0,0.1c0,0,0,0.1,0,0.1c0,0,0,0,0,0c0,0,0,0.1,0,0.1
					c0,0,0,0,0,0l0,0c0,0,0,0,0,0.1c0,0,0,0.1,0,0.1c0,0,0,0,0,0l0,0c0,0,0,0,0,0.1c0,0,0,0.1,0,0.1c0,0,0,0,0,0l0,0c0,0,0,0,0,0.1
					c0,0,0,0.1,0,0.1c0,0,0,0,0,0l0,0c0,0,0,0,0,0.1c0,0,0,0.1,0,0.1c0,0,0,0,0,0l0,0C214.2,88.1,214.2,88.2,214.2,88.2z"/>
				<path id="XMLID_1327_" class="st39" d="M211.3,83.5c0.3,0.1,0.4,0.2,0.6,0.5c0.2,0.3,0.3,0.6,0.5,0.9c0.1,0.2,0.2,0.4,0.3,0.6
					c0,0,0,0,0,0c-0.3-0.5-0.6-1-0.8-1.5C211.7,83.8,211.5,83.7,211.3,83.5c-0.2,0-0.4,0.1-0.7,0.1c-0.8,0-1.6,0-2.5,0
					c-0.6,0-1.1,0-1.7,0c-0.2,0-0.4,0.1-0.6,0.3c-0.1,0.1-0.2,0.3-0.3,0.5c-0.1,0.2-0.3,0.4-0.4,0.7c0,0,0,0,0,0
					c-0.1,0.1-0.1,0.2-0.2,0.3c0,0,0,0,0,0c0.2-0.3,0.3-0.6,0.5-0.9c0.1-0.1,0.2-0.3,0.2-0.4c0.1-0.2,0.3-0.4,0.6-0.5
					C207.9,83.5,209.6,83.5,211.3,83.5z"/>
				<path id="XMLID_1326_" class="st40" d="M214.2,88.5c-0.8,1.4-1.6,2.9-2.4,4.3c-0.1,0.3-0.4,0.4-0.7,0.4c-0.1,0-0.1,0-0.2,0
					c-0.5,0-1.1,0-1.6,0c0,0,0,0,0-0.1c0,0,0,0,0,0c0.6,0,1.1,0,1.7,0c0.4,0,0.6-0.1,0.8-0.5c0.3-0.6,0.7-1.2,1-1.7
					c0.3-0.5,0.6-1.1,0.9-1.6c0.1-0.2,0.2-0.4,0.3-0.6C214.1,88.6,214.2,88.5,214.2,88.5C214.2,88.5,214.2,88.5,214.2,88.5z"/>
				<path id="XMLID_1325_" class="st41" d="M209.3,93.2c0.5,0,1.1,0,1.6,0c0.1,0,0.1,0,0.2,0c0,0,0,0,0,0c-1.6,0-3.2,0-4.7,0
					c0,0,0,0,0,0c0,0,0.1,0,0.1,0c0.4,0,0.7,0,1.1,0c0.4,0,0.7,0,1.1,0C208.9,93.2,209.1,93.2,209.3,93.2z"/>
				<path id="XMLID_1324_" class="st42" d="M211.3,86.3C211.3,86.3,211.4,86.4,211.3,86.3c0.3,0.3,0.6,0.6,0.9,0.9
					c0,0,0.1,0.1,0.1,0.1c0.2,0.1,0.2,0.3,0.4,0.4c0,0,0,0.1,0,0.1c-0.1,0.1-0.2,0.2-0.3,0.3c-0.1,0.1-0.1,0.1,0,0.2
					c0.1,0.1,0,0.2,0,0.3c-0.2,0.3-0.4,0.7-0.6,1c-0.2,0.4-0.5,0.7-0.7,1.1c-0.1,0.2-0.3,0.4-0.4,0.6c-0.1,0.1-0.2,0.2-0.3,0.1
					c0,0,0,0,0,0c0,0,0.1-0.1,0.1-0.1c0.1,0,0.1,0,0.2-0.1c0.2-0.3,0.4-0.7,0.6-1c0.2-0.4,0.4-0.7,0.6-1.1c0.1-0.2,0.2-0.4,0.4-0.6
					c0-0.1,0.1-0.1,0-0.2c0,0,0-0.1,0-0.1c0,0,0-0.1,0-0.1l0,0c0,0,0,0,0-0.1c-0.1-0.2-0.2-0.4-0.3-0.5c-0.2-0.3-0.3-0.6-0.5-1
					C211.3,86.5,211.2,86.4,211.3,86.3z"/>
				<path id="XMLID_1323_" class="st43" d="M209.8,92.4c-0.1,0.2-0.3,0.5-0.4,0.7c0,0,0,0,0,0c-0.1,0-0.3,0-0.4,0
					c0-0.2,0.1-0.3,0.1-0.4c0.1-0.2,0-0.3,0-0.5c-0.1-0.1-0.1-0.2-0.2-0.3c-0.1-0.1-0.2-0.1-0.2-0.2c-0.2,0-0.5-0.1-0.7-0.1
					c-0.1,0-0.2,0-0.3,0c-0.1-0.1-0.2-0.2-0.3-0.3c0.1,0,0.1,0,0.2,0c0.3,0,0.6,0,0.8,0c0.2,0,0.4,0,0.6,0.1c0.1,0,0.2,0.1,0.3,0.2
					c0,0,0,0,0,0c0.1,0,0.1,0.1,0.2,0.1c0.1,0,0.2,0.1,0.2,0.2C209.7,92.2,209.7,92.3,209.8,92.4z"/>
				<path id="XMLID_1322_" class="st44" d="M209.8,92.4c0-0.1-0.1-0.2-0.1-0.3c0-0.1-0.1-0.2-0.2-0.2c-0.1,0-0.1-0.1-0.2-0.1
					c0,0,0,0,0,0c0-0.2-0.2-0.2-0.3-0.2c-0.2,0-0.4-0.1-0.6-0.1c-0.3,0-0.6,0-0.8,0c-0.1,0-0.1,0-0.2,0c-0.1,0-0.1-0.1-0.2-0.2
					c0.8,0,1.7,0,2.5,0c0.2,0,0.4,0,0.6,0.1c0,0,0,0,0,0C210.1,91.8,210,92.1,209.8,92.4C209.8,92.4,209.8,92.4,209.8,92.4z"/>
				<path id="XMLID_1321_" class="st42" d="M212.7,85.6C212.7,85.6,212.7,85.6,212.7,85.6c0,0.1,0,0.1,0,0.1c-0.1,0.1-0.2,0-0.3,0
					c-0.2,0-0.3,0-0.5,0c-0.3,0-0.7,0-1,0c-0.1,0-0.2,0-0.2,0.1c-0.1-0.1-0.2-0.2-0.2-0.3c0,0,0-0.1,0-0.1c0.1,0,0.1-0.1,0.2-0.1
					c0.4,0,0.8,0,1.1,0c0,0,0.1,0,0.1,0c0.2,0,0.3,0,0.5,0C212.6,85.5,212.6,85.5,212.7,85.6C212.7,85.5,212.7,85.5,212.7,85.6
					C212.7,85.6,212.7,85.6,212.7,85.6z"/>
				<path id="XMLID_1320_" class="st40" d="M212.7,85.5c0,0-0.1,0-0.1,0c-0.2,0-0.3,0-0.5,0c0,0-0.1,0-0.1,0c-0.4,0-0.8,0-1.1,0
					c-0.1,0-0.1,0-0.2,0.1c0,0,0,0,0,0.1c0.1,0.1,0.1,0.2,0.2,0.3c0.2,0.2,0.3,0.3,0.5,0.5c-0.1,0.1,0,0.2,0,0.3
					c0.1,0.3,0.3,0.7,0.5,1c0.1,0.2,0.2,0.4,0.3,0.5c0,0,0,0,0,0.1c0,0,0,0-0.1-0.1c-0.3-0.5-0.6-1.1-0.9-1.6
					c-0.2-0.3-0.4-0.7-0.6-1c0.1,0,0.1,0,0.2,0C211.3,85.5,212,85.5,212.7,85.5C212.6,85.5,212.6,85.5,212.7,85.5
					C212.7,85.5,212.7,85.5,212.7,85.5z"/>
				<path id="XMLID_1319_" class="st40" d="M212.9,85.9C212.9,85.9,213,86,212.9,85.9C212.9,86,212.9,85.9,212.9,85.9z"/>
				<path id="XMLID_1318_" class="st40" d="M212.8,85.8C212.9,85.8,212.9,85.8,212.8,85.8C212.8,85.8,212.8,85.8,212.8,85.8z"/>
				<path id="XMLID_1317_" class="st40" d="M212.8,85.7C212.8,85.7,212.8,85.7,212.8,85.7C212.8,85.6,212.8,85.7,212.8,85.7
					C212.8,85.7,212.8,85.7,212.8,85.7z"/>
				<path id="XMLID_1316_" class="st40" d="M214.1,88C214.1,88,214.1,88,214.1,88C214.1,88,214.1,88,214.1,88z"/>
				<path id="XMLID_1315_" class="st40" d="M214,87.8C214,87.9,214.1,87.9,214,87.8C214,87.9,214,87.9,214,87.8z"/>
				<path id="XMLID_1314_" class="st40" d="M213.9,87.7C214,87.7,214,87.7,213.9,87.7C213.9,87.8,213.9,87.7,213.9,87.7z"/>
				<path id="XMLID_1313_" class="st40" d="M213.9,87.6C213.9,87.6,213.9,87.6,213.9,87.6C213.9,87.6,213.9,87.6,213.9,87.6z"/>
				<path id="XMLID_1312_" class="st40" d="M213.8,87.4C213.8,87.4,213.8,87.5,213.8,87.4C213.8,87.5,213.8,87.4,213.8,87.4z"/>
				<path id="XMLID_1311_" class="st40" d="M213.1,86.2C213.1,86.2,213.1,86.2,213.1,86.2C213.1,86.2,213.1,86.2,213.1,86.2z"/>
				<path id="XMLID_1310_" class="st40" d="M213.1,86.3C213.2,86.3,213.2,86.4,213.1,86.3C213.1,86.4,213.1,86.4,213.1,86.3z"/>
				<path id="XMLID_1309_" class="st40" d="M213,86C213,86.1,213,86.1,213,86C213,86.1,213,86.1,213,86z"/>
				<path id="XMLID_1308_" class="st40" d="M213.2,86.5C213.3,86.5,213.3,86.5,213.2,86.5C213.2,86.5,213.2,86.5,213.2,86.5z"/>
				<path id="XMLID_1307_" class="st40" d="M213.3,86.6C213.3,86.6,213.3,86.6,213.3,86.6C213.3,86.7,213.3,86.6,213.3,86.6z"/>
				<path id="XMLID_1306_" class="st40" d="M213.4,86.8C213.4,86.8,213.4,86.8,213.4,86.8C213.4,86.8,213.4,86.8,213.4,86.8z"/>
				<path id="XMLID_1305_" class="st40" d="M213.5,86.9C213.5,86.9,213.5,86.9,213.5,86.9C213.5,86.9,213.5,86.9,213.5,86.9z"/>
				<path id="XMLID_1304_" class="st40" d="M213.7,87.3C213.7,87.3,213.8,87.4,213.7,87.3C213.7,87.4,213.7,87.3,213.7,87.3z"/>
				<path id="XMLID_1303_" class="st40" d="M213.6,87.2C213.7,87.2,213.7,87.2,213.6,87.2C213.6,87.2,213.6,87.2,213.6,87.2z"/>
				<path id="XMLID_1302_" class="st40" d="M213.6,87C213.6,87,213.6,87.1,213.6,87C213.6,87.1,213.6,87.1,213.6,87z"/>
				<polygon id="XMLID_1301_" class="st40" points="213.1,86.3 213.1,86.3 213.1,86.3 				"/>
				<polygon id="XMLID_1300_" class="st40" points="213,86.1 213,86.1 213,86.1 				"/>
				<polygon id="XMLID_1299_" class="st40" points="213.2,86.4 213.2,86.4 213.2,86.4 				"/>
				<polygon id="XMLID_1298_" class="st40" points="213.8,87.5 213.8,87.5 213.8,87.5 				"/>
				<polygon id="XMLID_1297_" class="st40" points="213.3,86.5 213.3,86.5 213.3,86.5 				"/>
				<polygon id="XMLID_1296_" class="st40" points="213.9,87.6 213.9,87.6 213.9,87.6 				"/>
				<polygon id="XMLID_1295_" class="st40" points="213.4,86.7 213.4,86.7 213.4,86.7 				"/>
				<polygon id="XMLID_1294_" class="st40" points="213.4,86.8 213.4,86.8 213.4,86.8 				"/>
				<path id="XMLID_1293_" class="st40" d="M214.1,88.1C214.1,88.1,214.1,88.1,214.1,88.1C214.1,88.1,214.1,88.1,214.1,88.1z"/>
				<polygon id="XMLID_1292_" class="st40" points="214,87.8 214,87.8 214,87.8 				"/>
				<polygon id="XMLID_1291_" class="st40" points="214.1,87.9 214.1,87.9 214.1,87.9 				"/>
				<polygon id="XMLID_1290_" class="st40" points="213.5,87 213.5,87 213.5,87 				"/>
				<path id="XMLID_1289_" class="st45" d="M207.1,91.3c0,0.1,0.1,0.1,0.2,0.2c0.1,0.1,0.2,0.2,0.3,0.3c0.2,0.2,0.4,0.4,0.6,0.6
					c0.1,0.1,0.2,0.2,0.2,0.3c0,0.1-0.1,0.1-0.1,0.2c0,0.1-0.1,0.2-0.2,0.3c-0.2,0-0.3,0-0.5,0c-0.4,0-0.8,0-1.3,0
					c-0.1,0-0.2,0-0.3-0.1c-0.2-0.1-0.3-0.2-0.4-0.4c-0.4-0.7-0.8-1.4-1.2-2.1c-0.4-0.7-0.8-1.4-1.2-2.1c0,0,0,0,0-0.1c0,0,0,0,0,0
					c0-0.1,0-0.2,0.1-0.4c0.3-0.5,0.6-1,0.9-1.6c0,0,0,0,0,0c0.1,0.1,0.2,0.3,0.2,0.4c0.3,0.5,0.6,1,0.9,1.5c0,0,0,0,0,0.1
					c0.4,0.8,0.9,1.6,1.3,2.3C206.9,90.9,207,91.1,207.1,91.3C207.1,91.3,207.1,91.3,207.1,91.3z"/>
				<path id="XMLID_1288_" class="st46" d="M204.5,86.1C204.5,86.1,204.5,86.1,204.5,86.1c0.1-0.1,0.1-0.1,0.1-0.1c0,0,0,0,0,0
					c0.1,0,0.1-0.1,0.1-0.1c0,0,0,0,0,0c0,0,0,0,0,0c0.1,0.1,0.2,0.2,0.2,0.4c0.1,0.2,0.2,0.3,0.3,0.4c0.1,0.2,0.3,0.3,0.3,0.5
					c0,0,0.1,0.1,0.1,0.1c0.1,0,0.2,0.1,0.2,0.2c-0.1,0.2-0.3,0.5-0.4,0.7c-0.1,0-0.1-0.1-0.1-0.1c-0.1-0.1-0.1-0.2-0.1-0.3
					c-0.1-0.1-0.2-0.3-0.2-0.4c-0.1-0.2-0.2-0.3-0.3-0.5c0,0-0.1,0-0.1-0.1c-0.1-0.2-0.2-0.3-0.3-0.4c0,0,0-0.1,0.1-0.1
					C204.5,86.2,204.5,86.2,204.5,86.1z"/>
				<path id="XMLID_1287_" class="st47" d="M204.4,86.4c0.2,0.1,0.3,0.2,0.3,0.4c0,0,0,0.1,0.1,0.1c0.2,0.1,0.2,0.3,0.3,0.5
					c0.1,0.2,0.2,0.3,0.2,0.4c0,0.1,0.1,0.2,0.1,0.3c0,0.1,0,0.1,0.1,0.1c0,0.1-0.1,0.1-0.1,0.2c-0.3-0.5-0.6-1-0.9-1.5
					C204.5,86.7,204.4,86.6,204.4,86.4C204.3,86.4,204.3,86.4,204.4,86.4z"/>
				<path id="XMLID_1286_" class="st48" d="M203.3,88.5c0.4,0.7,0.8,1.4,1.2,2.1c0.4,0.7,0.8,1.4,1.2,2.1c0.1,0.2,0.2,0.3,0.4,0.4
					c0.1,0,0.2,0.1,0.3,0.1c0.4,0,0.8,0,1.3,0c0,0,0,0,0,0.1c-0.4,0-0.7,0-1.1,0c0,0-0.1,0-0.1,0c-0.3,0-0.5-0.2-0.7-0.4
					c-0.8-1.3-1.5-2.7-2.3-4C203.4,88.7,203.3,88.6,203.3,88.5z"/>
				<path id="XMLID_1285_" class="st39" d="M204.9,85.5c0-0.1,0-0.1,0.1-0.1c0,0,0,0,0,0C204.9,85.4,204.9,85.5,204.9,85.5
					C204.9,85.5,204.9,85.5,204.9,85.5z"/>
				<path id="XMLID_1284_" class="st39" d="M204.8,85.6c0-0.1,0-0.1,0.1-0.1c0,0,0,0,0,0C204.9,85.5,204.9,85.5,204.8,85.6
					C204.8,85.6,204.8,85.6,204.8,85.6C204.8,85.6,204.8,85.6,204.8,85.6z"/>
				<path id="XMLID_1283_" class="st39" d="M204.6,85.9c0,0.1,0,0.1-0.1,0.1C204.6,85.9,204.6,85.9,204.6,85.9z"/>
				<path id="XMLID_1282_" class="st39" d="M204.7,85.9C204.7,85.9,204.7,85.9,204.7,85.9c0-0.1,0-0.1,0-0.1c0,0,0,0,0,0
					C204.7,85.8,204.7,85.8,204.7,85.9z"/>
				<path id="XMLID_1281_" class="st39" d="M204.6,86c0,0,0,0.1-0.1,0.1C204.5,86.1,204.5,86,204.6,86z"/>
				<path id="XMLID_1280_" class="st39" d="M204.7,85.7c0,0,0-0.1,0.1-0.1C204.8,85.6,204.8,85.6,204.7,85.7
					C204.8,85.7,204.8,85.7,204.7,85.7C204.7,85.7,204.7,85.7,204.7,85.7z"/>
				<path id="XMLID_1279_" class="st39" d="M204.5,86.1c0,0,0,0.1-0.1,0.1C204.4,86.2,204.4,86.2,204.5,86.1z"/>
				<path id="XMLID_1278_" class="st48" d="M203.3,88.4C203.3,88.4,203.3,88.4,203.3,88.4C203.3,88.4,203.3,88.4,203.3,88.4z"/>
				<path id="XMLID_1277_" class="st40" d="M212.7,85.6C212.7,85.6,212.7,85.6,212.7,85.6C212.7,85.5,212.7,85.6,212.7,85.6z"/>
				<path id="XMLID_1276_" class="st49" d="M208.1,83.6c0.8,0,1.6,0,2.5,0c0,0.2,0,0.4,0,0.5c0,0.4-0.1,0.7-0.2,1.1
					c0,0.1-0.1,0.2-0.1,0.3c-0.3,0-0.5,0-0.8,0c-0.8,0-1.5,0-2.3,0c0,0,0,0,0-0.1c0.2-0.1,0.4-0.3,0.5-0.5
					C208,84.5,208.1,84.1,208.1,83.6z"/>
				<path id="XMLID_1275_" class="st50" d="M208.1,83.6c0,0.5-0.1,0.9-0.4,1.3c-0.1,0.2-0.3,0.3-0.5,0.5c0,0,0,0,0,0.1
					c-0.1,0-0.1,0.1-0.1,0.1c0,0-0.1,0-0.1,0c-0.3,0.1-0.6,0.2-0.9,0.2c-0.1,0-0.2,0-0.3-0.1c-0.1-0.2-0.2-0.3-0.3-0.5
					c-0.1-0.1-0.1-0.2-0.2-0.2c0.1-0.2,0.3-0.4,0.4-0.7c0.1-0.2,0.2-0.3,0.3-0.5c0.1-0.2,0.3-0.3,0.6-0.3
					C207,83.6,207.5,83.6,208.1,83.6z"/>
				<path id="XMLID_1274_" class="st51" d="M210.2,85.5c0-0.1,0.1-0.2,0.1-0.3c0.1-0.3,0.2-0.7,0.2-1.1c0-0.2,0-0.4,0-0.5
					c0.2,0,0.5,0,0.7,0c0.2,0.1,0.4,0.2,0.5,0.4c0.3,0.5,0.6,1,0.8,1.5c-0.7,0-1.3,0-2,0c-0.1,0-0.1,0-0.2,0
					C210.4,85.4,210.3,85.5,210.2,85.5z"/>
				<path id="XMLID_1273_" class="st49" d="M205.2,85c0.1,0,0.2,0.1,0.2,0.2c0.1,0.2,0.2,0.3,0.3,0.5c0,0.1,0.2,0.1,0.3,0.1
					c0.3,0,0.6-0.1,0.9-0.2c0,0,0.1-0.1,0.1,0c-0.3,0.5-0.6,1-0.8,1.5c-0.1,0-0.1-0.1-0.2-0.1c-0.1,0-0.1-0.1-0.2-0.2
					c-0.1-0.2-0.2-0.4-0.4-0.5c0,0,0,0,0,0c-0.1-0.2-0.3-0.4-0.4-0.6c0-0.1-0.1-0.1-0.1-0.1c0,0,0,0,0-0.1c0.1,0,0.1-0.1,0.1-0.1
					C205,85.3,205.1,85.1,205.2,85C205.1,85,205.2,85,205.2,85z"/>
				<path id="XMLID_1272_" class="st44" d="M208.9,93.2c0.1,0,0.3,0,0.4,0c0,0,0,0,0,0.1c-0.2,0-0.4,0-0.6,0c0,0,0,0,0-0.1
					C208.8,93.2,208.8,93.2,208.9,93.2z"/>
				<path id="XMLID_1271_" class="st43" d="M208.7,93.2C208.7,93.2,208.7,93.2,208.7,93.2c-0.4,0.1-0.7,0.1-1.1,0.1c0,0,0,0,0-0.1
					c0.2,0,0.3,0,0.5,0C208.3,93.2,208.5,93.2,208.7,93.2z"/>
				<path id="XMLID_1268_" class="st41" d="M206.2,87c0.3-0.5,0.6-1,0.8-1.5c0,0,0.1-0.1,0.1-0.1c0.8,0,1.5,0,2.3,0
					c0.3,0,0.5,0,0.8,0c0.1,0,0.1,0,0.2,0c0.2,0.3,0.4,0.7,0.6,1c0.3,0.5,0.6,1.1,0.9,1.6c0,0,0,0,0.1,0.1c0,0,0,0,0,0
					c0,0,0,0.1,0,0.1c0,0,0,0.1,0,0.1c-0.5,0.9-1.1,1.8-1.6,2.8c0,0.1,0,0.1-0.1,0.1c0,0-0.1,0-0.1,0c-0.7,0-1.5,0-2.2,0
					c-0.3,0-0.6,0-1,0c-0.1-0.2-0.2-0.4-0.3-0.6c-0.4-0.8-0.9-1.5-1.3-2.3c0,0,0,0,0-0.1c0-0.1,0.1-0.1,0.1-0.2
					c0.1-0.2,0.3-0.5,0.4-0.7C206,87.3,206.1,87.2,206.2,87C206.2,87,206.2,87,206.2,87C206.2,87,206.2,87,206.2,87z M207.3,88.4
					c0,0.8,0.6,1.4,1.4,1.4c0.9,0,1.5-0.7,1.5-1.4c0-0.9-0.7-1.5-1.4-1.5C208,86.9,207.3,87.6,207.3,88.4z"/>
				<path id="XMLID_1267_" class="st40" d="M210.4,91.3c0.1,0,0.1-0.1,0.1-0.1c0.5-0.9,1.1-1.8,1.6-2.8c0.1,0.1,0,0.1,0,0.2
					c-0.1,0.2-0.2,0.4-0.4,0.6c-0.2,0.4-0.4,0.7-0.6,1.1c-0.2,0.3-0.4,0.7-0.6,1C210.5,91.3,210.5,91.3,210.4,91.3
					C210.4,91.3,210.4,91.3,210.4,91.3z"/>
				<path id="XMLID_1266_" class="st52" d="M210.4,91.3C210.4,91.3,210.4,91.3,210.4,91.3c0,0.1-0.1,0.1-0.1,0.2
					c-0.2,0-0.4-0.1-0.6-0.1c-0.8-0.1-1.7,0-2.5,0c0,0,0,0,0-0.1c0.3,0,0.6,0,1,0c0.7,0,1.5,0,2.2,0
					C210.3,91.3,210.4,91.3,210.4,91.3z"/>
				<path id="XMLID_1265_" class="st40" d="M212.1,88.3C212,88.3,212,88.2,212.1,88.3C212.1,88.2,212.1,88.3,212.1,88.3z"/>
				<path id="XMLID_1264_" class="st48" d="M208.7,93.2c-0.2,0-0.4,0-0.6,0c0-0.1,0.1-0.2,0.2-0.3c0-0.1,0.1-0.1,0.1-0.2
					c0-0.1-0.1-0.2-0.2-0.3c-0.2-0.2-0.4-0.4-0.6-0.6c0.1,0,0.2,0,0.3,0c0.2,0,0.5,0,0.7,0.1c0.1,0,0.2,0.1,0.2,0.2
					c0.1,0.1,0.1,0.2,0.2,0.3c0,0.2,0.1,0.3,0,0.5c0,0.1-0.1,0.3-0.1,0.4C208.8,93.2,208.8,93.2,208.7,93.2z"/>
				<path id="XMLID_1263_" class="st51" d="M206.2,87.1c-0.1,0.1-0.1,0.3-0.2,0.4c0-0.1-0.1-0.2-0.2-0.2c0,0-0.1,0-0.1-0.1
					c-0.1-0.2-0.3-0.3-0.3-0.5c-0.1-0.2-0.2-0.3-0.3-0.4c-0.1-0.1-0.2-0.3-0.2-0.4c0,0,0-0.1,0-0.1c0,0,0.1-0.1,0.1-0.1
					c0,0,0-0.1,0.1-0.1c0.1,0,0.1,0,0.1,0.1c0.1,0.2,0.3,0.4,0.4,0.6c0,0,0,0,0,0c0.2,0.1,0.3,0.4,0.4,0.5c0,0.1,0.1,0.2,0.2,0.2
					C206.1,86.9,206.1,87,206.2,87.1C206.2,87,206.2,87,206.2,87.1C206.2,87,206.2,87,206.2,87.1z"/>
				<path id="XMLID_1262_" class="st53" d="M207.3,88.4c0-0.8,0.7-1.5,1.5-1.5c0.8,0,1.4,0.6,1.4,1.5c0,0.8-0.6,1.5-1.5,1.4
					C207.9,89.8,207.3,89.2,207.3,88.4z"/>
				<path id="XMLID_1261_" class="st49" d="M206.2,87.1C206.2,87,206.2,87,206.2,87.1C206.2,87,206.2,87,206.2,87.1z"/>
			</g>
		</g>
		<g id="XMLID_196_">
			<g id="XMLID_1054_">
				<path id="XMLID_1069_" class="st54" d="M188.4,105.9"/>
			</g>
			<g id="XMLID_1013_">
				<path id="XMLID_1045_" class="st55" d="M189.5,107.6c0.1,0,0.2,0,0.3,0c0.1,0,0.1,0.1,0.2,0.1c1.5,0.7,3.1,1.5,4.6,2.2
					c0.3,0.1,0.4,0.3,0.5,0.6c0.3,1.3,0.6,2.6,0.9,3.9c0.1,0.4,0.2,0.7,0.3,1.1c0,0.1,0,0.1,0,0.2c-0.1,0.2-0.1,0.3-0.2,0.5
					c-1,1.2-2,2.5-3,3.7c-0.2,0.2-0.4,0.4-0.7,0.5c-1.8,0-3.6,0-5.4,0c-0.2-0.1-0.4-0.2-0.5-0.4c-0.8-1.1-1.7-2.1-2.6-3.2
					c-0.3-0.4-0.6-0.7-0.8-1.1c0-0.1,0-0.2,0-0.2c0,0,0-0.1,0-0.1c0.4-1.6,0.7-3.3,1.1-4.9c0.1-0.3,0.2-0.5,0.5-0.7
					c1-0.5,2.1-1,3.1-1.5C188.4,108.1,188.9,107.8,189.5,107.6z M189.4,110.3c0,0.1,0,0.1-0.1,0.2c0,0,0,0,0,0c0,0.1,0,0.1-0.1,0.1
					c-0.8,0.1-1.5,0.4-2,0.9c-0.1,0.1-0.1,0.2-0.3,0.1c-0.1,0-0.2-0.1-0.3-0.1c-0.1-0.1-0.2-0.2-0.3-0.3c-0.1-0.1-0.1-0.1-0.2-0.2
					c-0.1-0.1-0.3-0.1-0.4,0.1c-0.1,0.1-0.1,0.3,0,0.4c0.1,0.1,0.1,0.1,0.2,0.2c0.2,0.2,0.5,0.2,0.6,0.5c0,0.1,0,0.1,0,0.2
					c-0.4,0.7-0.6,1.4-0.5,2.2c0,0.1,0,0.2-0.1,0.3c-0.1,0.1-0.2,0.1-0.3,0.1c-0.2,0-0.4,0-0.6,0.1c-0.2,0-0.3,0.2-0.2,0.3
					c0,0.1,0.2,0.2,0.4,0.2c0.1,0,0.2-0.1,0.3-0.1c0.2-0.1,0.4-0.2,0.7-0.1c0,0,0,0,0,0c0.1,0,0.1,0,0.1,0.1
					c0.3,0.7,0.7,1.3,1.4,1.8c0.1,0.1,0.2,0.1,0.1,0.2c0,0,0,0,0,0c0,0.1,0,0.1,0,0.2c-0.1,0.1-0.1,0.2-0.2,0.3
					c-0.1,0.1-0.2,0.2-0.2,0.3c-0.1,0.2,0,0.3,0.1,0.4c0.1,0.1,0.3,0,0.4-0.2c0-0.1,0.1-0.1,0.1-0.2c0.1-0.2,0.1-0.5,0.4-0.7
					c0,0,0,0,0,0c0-0.1,0.1-0.1,0.1,0c0.8,0.3,1.5,0.3,2.3,0c0.1,0,0.2-0.1,0.2,0c0,0,0,0,0,0c0.1,0,0.1,0.1,0.1,0.1
					c0.1,0.2,0.1,0.3,0.2,0.5c0,0.1,0.1,0.2,0.1,0.3c0.1,0.1,0.2,0.2,0.4,0.1c0.1-0.1,0.2-0.2,0.1-0.3c0-0.1-0.1-0.2-0.1-0.2
					c-0.1-0.2-0.4-0.4-0.3-0.7c0-0.1,0-0.1,0.1-0.1c0.7-0.4,1.2-1,1.4-1.8c0-0.1,0-0.2,0.2-0.1c0,0,0,0,0,0c0.1,0,0.1,0,0.2,0
					c0.2,0,0.4,0.1,0.5,0.2c0.1,0,0.2,0.1,0.3,0.1c0.1,0,0.3-0.1,0.3-0.2c0-0.1,0-0.3-0.2-0.3c-0.1,0-0.1,0-0.2-0.1
					c-0.3,0-0.6,0-0.8-0.2c-0.1-0.1-0.1-0.1-0.1-0.1c0.1-0.8-0.1-1.5-0.5-2.2c0-0.1-0.1-0.1,0-0.2c0,0,0,0,0-0.1
					c0-0.1,0-0.1,0.1-0.2c0.1-0.1,0.3-0.2,0.5-0.3c0.1,0,0.2-0.1,0.2-0.2c0.1-0.1,0.1-0.3,0-0.4c-0.1-0.1-0.2-0.1-0.4-0.1
					c-0.1,0-0.1,0.1-0.2,0.2c-0.2,0.2-0.3,0.5-0.7,0.5c-0.1,0-0.1,0-0.2,0c-0.6-0.6-1.3-0.9-2.1-1c-0.1,0-0.2,0-0.1-0.1c0,0,0,0,0,0
					c-0.1-0.1-0.1-0.1-0.1-0.2c0-0.2,0-0.3,0.1-0.5c0-0.1,0-0.2,0-0.3c0-0.2-0.1-0.3-0.3-0.3c-0.1,0-0.2,0.1-0.3,0.3
					c0,0.1,0,0.1,0,0.2C189.4,109.9,189.4,110.1,189.4,110.3z"/>
				<path id="XMLID_1042_" class="st55" d="M190.8,114.9c0.4,0.1,0.7,0.1,1.1,0.2c0.1,0,0.2,0,0.3,0.1c0.1,0,0.1,0,0,0.1
					c-0.2,0.5-0.6,1-1.1,1.3c0,0-0.1,0-0.1,0c-0.2-0.4-0.4-0.9-0.5-1.3C190.5,115.1,190.6,114.9,190.8,114.9z"/>
				<path id="XMLID_1031_" class="st55" d="M189.2,111.5c0,0.4,0,0.8-0.1,1.2c0,0,0,0.1,0,0.1c0,0.2-0.2,0.3-0.4,0.2
					c-0.4-0.3-0.8-0.5-1.1-0.8c0,0,0-0.1,0-0.1c0.4-0.4,0.9-0.6,1.5-0.7C189.2,111.4,189.2,111.4,189.2,111.5z"/>
				<path id="XMLID_1027_" class="st55" d="M187.2,112.7C187.2,112.7,187.2,112.8,187.2,112.7c0.4,0.3,0.7,0.6,1.1,0.9
					c0.1,0.1,0.1,0.2,0.1,0.3c0,0.1-0.1,0.2-0.2,0.2c-0.4,0.1-0.8,0.2-1.2,0.4c-0.1,0-0.1,0-0.1-0.1c0-0.6,0.1-1.1,0.3-1.6
					C187.1,112.8,187.1,112.8,187.2,112.7z"/>
				<path id="XMLID_1026_" class="st55" d="M189.6,117.1c-0.3,0-0.6,0-0.8-0.1c-0.1,0-0.1,0,0-0.1c0.2-0.4,0.4-0.8,0.7-1.2
					c0.1-0.2,0.3-0.2,0.4,0c0.2,0.4,0.4,0.8,0.7,1.2c0,0.1,0,0.1,0,0.1C190.2,117,189.9,117.1,189.6,117.1z"/>
				<path id="XMLID_1022_" class="st55" d="M192.4,114.2c0,0.1,0,0.2,0,0.3c-0.1,0.1-0.2,0-0.3-0.1c-0.4-0.1-0.7-0.2-1.1-0.3
					c-0.1,0-0.2-0.1-0.2-0.2c0-0.1,0-0.2,0.1-0.3c0.3-0.3,0.6-0.6,1-0.9c0.1-0.1,0.1,0,0.1,0C192.3,113.2,192.4,113.7,192.4,114.2z"
					/>
				<path id="XMLID_1021_" class="st55" d="M188.6,115.2c0,0,0,0.1,0,0.1c-0.2,0.4-0.3,0.8-0.5,1.2c0,0.1,0,0.1-0.1,0
					c-0.5-0.3-0.8-0.8-1-1.3c0,0,0-0.1,0-0.1c0.4-0.1,0.9-0.2,1.3-0.2C188.5,114.9,188.6,115,188.6,115.2z"/>
				<path id="XMLID_1020_" class="st55" d="M190,111.7c0-0.1,0-0.2,0-0.3c0,0,0-0.1,0.1-0.1c0.6,0.1,1.1,0.3,1.5,0.7
					c0,0,0,0.1,0,0.1c-0.4,0.3-0.7,0.5-1.1,0.8c-0.2,0.1-0.4,0-0.4-0.2c0-0.2,0-0.4,0-0.5C190,112.1,190,111.9,190,111.7z"/>
				<path id="XMLID_1019_" class="st55" d="M189.6,113.7c0.1,0,0.2,0,0.2,0c0.1,0.1,0.2,0.2,0.2,0.3c0,0.1,0,0.3-0.1,0.4
					c-0.1,0.1-0.2,0.2-0.4,0.2c-0.1,0-0.3-0.1-0.4-0.2c-0.1-0.1-0.1-0.3-0.1-0.4c0-0.1,0.1-0.2,0.2-0.3
					C189.4,113.7,189.5,113.8,189.6,113.7z"/>
			</g>
			<g id="XMLID_1005_">
				<g id="XMLID_1011_">
					<path id="XMLID_1012_" class="st20" d="M183.2,121.3c-0.1,0-0.1,0-0.1-0.1v-1c0-0.1,0-0.1,0.1-0.1c0.1,0,0.1,0,0.1,0.1v1
						C183.3,121.2,183.2,121.3,183.2,121.3z"/>
				</g>
				<g id="XMLID_1006_">
					<path id="XMLID_1007_" class="st20" d="M183.7,120.8h-1c-0.1,0-0.1,0-0.1-0.1s0-0.1,0.1-0.1h1c0.1,0,0.1,0,0.1,0.1
						S183.7,120.8,183.7,120.8z"/>
				</g>
			</g>
			<path id="XMLID_952_" class="st56" d="M196.4,108.8c0,0,0,0.1,0,0.1c0,0-0.1,0-0.1,0C196.3,108.8,196.3,108.8,196.4,108.8
				C196.3,108.7,196.4,108.7,196.4,108.8z"/>
			<path id="XMLID_207_" class="st1" d="M195.5,119.4c0.2,0.2,0.3,0.3,0.4,0.5c-0.1,0.1-0.3,0.2-0.4,0.5c-0.2-0.2-0.3-0.4-0.5-0.5
				C195.3,119.7,195.5,119.7,195.5,119.4z"/>
			<path id="XMLID_204_" class="st1" d="M197.4,110.9c-0.1,0-0.2-0.1-0.3-0.2c0-0.1,0.1-0.2,0.2-0.3c0.1,0,0.2,0.1,0.3,0.2
				C197.6,110.7,197.5,110.9,197.4,110.9z M197.5,110.6c0,0-0.1-0.1-0.1-0.1c-0.1,0-0.1,0.1-0.1,0.1c0,0.1,0,0.1,0.1,0.1
				C197.5,110.7,197.5,110.7,197.5,110.6z"/>
			<path id="XMLID_203_" class="st1" d="M183.7,107.4c-0.1,0-0.1,0.1-0.2,0.2c-0.1-0.1-0.2-0.2-0.3-0.3c0.1-0.1,0.2-0.2,0.3-0.2
				C183.5,107.2,183.6,107.3,183.7,107.4z"/>
			<path id="XMLID_202_" class="st1" d="M180.9,113.8c0,0.1-0.1,0.2-0.2,0.2c-0.1,0-0.2-0.1-0.2-0.2c0-0.1,0.1-0.2,0.2-0.2
				C180.8,113.6,180.9,113.7,180.9,113.8z"/>
			<path id="XMLID_201_" class="st1" d="M193.6,106.6c0,0.1,0.1,0.3,0,0.5c-0.1,0.1-0.2,0.2-0.4,0.1c-0.2-0.1-0.2-0.2-0.2-0.3
				c0.1-0.3,0.2-0.3,0.4-0.2C193.6,106.6,193.6,106.6,193.6,106.6C193.6,106.6,193.6,106.6,193.6,106.6z"/>
			<path id="XMLID_199_" class="st1" d="M176.5,111.9c0,0.1,0,0.1-0.1,0.1c-0.1,0-0.1,0-0.1-0.1c0-0.1,0-0.1,0.1-0.1
				C176.5,111.8,176.5,111.9,176.5,111.9z"/>
		</g>
		<g id="XMLID_1075_">
			<line id="XMLID_1073_" class="st37" x1="205.2" y1="82.1" x2="205.2" y2="81.4"/>
			<line id="XMLID_1076_" class="st37" x1="204.4" y1="82" x2="205.2" y2="82.1"/>
		</g>
		<g id="XMLID_1079_">
			<line id="XMLID_1082_" class="st37" x1="198.9" y1="115.5" x2="199.6" y2="115.7"/>
			<line id="XMLID_1081_" class="st37" x1="199.2" y1="114.8" x2="198.9" y2="115.5"/>
		</g>
		<g id="XMLID_1083_">
			<line id="XMLID_1086_" class="st37" x1="170.6" y1="93.5" x2="170.2" y2="94.1"/>
			<line id="XMLID_1084_" class="st37" x1="171.2" y1="94.1" x2="170.7" y2="93.5"/>
		</g>
	</g>
</g>
</svg>
