<?xml version="1.0" encoding="utf-8"?>
<!-- Generator: Adobe Illustrator 21.0.0, SVG Export Plug-In . SVG Version: 6.00 Build 0)  -->
<svg version="1.1" id="Capa_1" xmlns="http://www.w3.org/2000/svg" xmlns:xlink="http://www.w3.org/1999/xlink" x="0px" y="0px"
	 viewBox="0 0 512 512" style="enable-background:new 0 0 512 512;" xml:space="preserve">
<style type="text/css">
	.st0{fill:#1E81CE;}
	.st1{fill:#1A6FB0;}
	.st2{fill:#5AAAE7;}
	.st3{fill:#3D9AE2;}
	.st4{fill:#78B9EB;}
	.st5{fill:#B3D8F4;}
	.st6{fill:#D1E7F8;}
</style>
<path class="st0" d="M466.8,395.5l-200,114.4c-5.1,2.9-11.3,2.9-16.4,0l-200-114.4c-11.1-6.3-11.1-22.3-0.1-28.6l18.9-10.9
	l181.1-104.6c5.1-3,11.4-3,16.5,0L448,355.9l18.9,10.9C477.9,373.2,477.9,389.2,466.8,395.5z"/>
<path class="st1" d="M448,355.9L266.9,459.5c-5.1,2.9-11.3,2.9-16.4,0L69.3,355.9l181.1-104.6c5.1-3,11.4-3,16.5,0L448,355.9z"/>
<path class="st2" d="M466.8,312l-200,114.4c-5.1,2.9-11.3,2.9-16.4,0L50.5,312c-11.1-6.3-11.1-22.3-0.1-28.7l18.9-10.9l181.1-104.6
	c5.1-3,11.4-3,16.5,0L448,272.4l18.9,10.9C477.9,289.7,477.9,305.6,466.8,312z"/>
<path class="st3" d="M448,272.4L266.9,376c-5.1,2.9-11.3,2.9-16.4,0L69.3,272.4l181.1-104.6c5.1-3,11.4-3,16.5,0L448,272.4z"/>
<path class="st4" d="M466.8,228.5l-200,114.4c-5.1,2.9-11.3,2.9-16.4,0l-200-114.4c-11.1-6.3-11.1-22.3-0.1-28.7l15.6-9L250.4,84.3
	c5.1-3,11.4-3,16.5,0l166.3,96l33.7,19.5C477.9,206.2,477.9,222.1,466.8,228.5z"/>
<path class="st2" d="M433.2,180.3v6.3c0,11.2-6,21.5-15.7,27l-119.9,68.6l-30.2,17.3c-3.5,2-7.7,2-11.2,0L66,190.8L250.4,84.3
	c5.1-3,11.4-3,16.5,0L433.2,180.3z"/>
<path class="st5" d="M430.1,97.2v71l-135.6,77.5L264.2,263c-3.5,2-7.7,2-11.2,0L42.5,142.6c-7.6-4.3-7.6-15.2,0-19.6L253,1.5
	c3.5-2,7.8-2,11.3,0l27.4,15.8L430.1,97.2z"/>
<path class="st6" d="M430.1,97.2v71l-59.2-28.4c-5.8-2.8-5.8-11.1,0-13.9L430.1,97.2z"/>
</svg>
