<?xml version="1.0" encoding="utf-8"?>
<!-- Generator: Adobe Illustrator 21.0.0, SVG Export Plug-In . SVG Version: 6.00 Build 0)  -->
<svg version="1.1" id="Layer_1" xmlns="http://www.w3.org/2000/svg" xmlns:xlink="http://www.w3.org/1999/xlink" x="0px" y="0px"
	 viewBox="0 0 1917.2 1031.9" style="enable-background:new 0 0 1917.2 1031.9;" xml:space="preserve">
<style type="text/css">
	.st0{display:none;fill:url(#background_2_);}
	.st1{opacity:0.3;}
	.st2{opacity:0.2;fill:url(#SVGID_1_);enable-background:new    ;}
	.st3{opacity:0.3;fill:url(#SVGID_2_);enable-background:new    ;}
	.st4{opacity:0.2;fill:url(#SVGID_3_);enable-background:new    ;}
	.st5{opacity:0.2;fill:url(#SVGID_4_);enable-background:new    ;}
	.st6{opacity:0.2;fill:url(#SVGID_5_);enable-background:new    ;}
	.st7{opacity:0.2;fill:url(#SVGID_6_);enable-background:new    ;}
	.st8{opacity:0.3;fill:url(#SVGID_7_);enable-background:new    ;}
	.st9{opacity:0.2;fill:url(#SVGID_8_);enable-background:new    ;}
	.st10{opacity:0.2;fill:url(#SVGID_9_);enable-background:new    ;}
	.st11{opacity:0.2;fill:url(#SVGID_10_);enable-background:new    ;}
	.st12{opacity:0.2;fill:url(#SVGID_11_);enable-background:new    ;}
	.st13{opacity:0.3;fill:url(#SVGID_12_);enable-background:new    ;}
	.st14{opacity:0.2;fill:url(#SVGID_13_);enable-background:new    ;}
	.st15{opacity:0.2;fill:url(#SVGID_14_);enable-background:new    ;}
	.st16{opacity:0.2;fill:url(#SVGID_15_);enable-background:new    ;}
	.st17{display:none;}
	.st18{display:inline;fill:url(#SVGID_16_);}
	.st19{display:inline;fill:url(#SVGID_17_);}
	.st20{display:inline;opacity:0.3;}
	.st21{opacity:0.2;fill:url(#SVGID_18_);enable-background:new    ;}
	.st22{opacity:0.3;fill:url(#SVGID_19_);enable-background:new    ;}
	.st23{opacity:0.3;fill:url(#SVGID_20_);enable-background:new    ;}
	.st24{opacity:0.2;fill:url(#SVGID_21_);enable-background:new    ;}
	.st25{opacity:0.2;fill:url(#SVGID_22_);enable-background:new    ;}
	.st26{display:inline;}
	.st27{fill:#EEF0F3;}
	.st28{fill:#FFFFFF;}
	.st29{fill:#D6DCE2;}
	.st30{fill:#EAB234;}
	.st31{fill:#FFCD52;}
	.st32{fill:url(#SVGID_23_);}
	.st33{fill:url(#SVGID_24_);}
	.st34{fill:url(#SVGID_25_);}
	.st35{fill:url(#SVGID_26_);}
	.st36{fill:url(#SVGID_27_);}
	.st37{fill:#82B1FF;}
	.st38{fill:url(#SVGID_28_);}
	.st39{fill:url(#SVGID_29_);}
	.st40{fill:url(#SVGID_30_);}
	.st41{fill:url(#SVGID_31_);}
	.st42{fill:url(#SVGID_32_);}
	.st43{fill:url(#SVGID_33_);}
	.st44{fill:url(#SVGID_34_);}
	.st45{fill:url(#SVGID_35_);}
	.st46{fill:url(#SVGID_36_);}
	.st47{fill:url(#SVGID_37_);}
	.st48{fill:url(#SVGID_38_);}
	.st49{fill:url(#SVGID_39_);}
	.st50{fill:#63C1D2;}
	.st51{fill:#76CED8;}
	.st52{fill:#F2F2F2;}
	.st53{fill:#A1B8E2;}
	.st54{fill:#5088D8;}
	.st55{fill:url(#SVGID_40_);}
	.st56{fill:#674E68;}
	.st57{fill:#C9D9FB;}
	.st58{fill:#CFD5E3;}
	.st59{opacity:0.19;fill:#FFFFFF;enable-background:new    ;}
	.st60{fill:#3F82EF;}
	.st61{fill:url(#SVGID_41_);}
	.st62{fill:url(#SVGID_42_);}
	.st63{fill:url(#XMLID_2_);}
	.st64{opacity:0.68;fill:#ABB1BD;enable-background:new    ;}
	.st65{fill:#F8F8F8;}
	.st66{opacity:0.2;}
	.st67{opacity:0.2;fill:#82B1FF;enable-background:new    ;}
	.st68{fill:url(#XMLID_3_);}
	.st69{clip-path:url(#SVGID_44_);fill:#F2F2F2;}
	.st70{clip-path:url(#SVGID_46_);fill:url(#XMLID_4_);}
	.st71{clip-path:url(#SVGID_48_);fill:url(#XMLID_5_);}
	.st72{clip-path:url(#SVGID_50_);fill:url(#XMLID_6_);}
	.st73{fill:#DADCDE;}
	.st74{fill:#ABB1BD;}
	.st75{opacity:0.1;fill:#FFFFFF;enable-background:new    ;}
	.st76{opacity:0.5;fill:#CFD5E3;enable-background:new    ;}
	.st77{fill:url(#SVGID_51_);}
	.st78{opacity:0.4;}
	.st79{clip-path:url(#SVGID_53_);fill:#EAB234;}
	.st80{clip-path:url(#SVGID_55_);fill:#EAB234;}
	.st81{clip-path:url(#SVGID_57_);fill:#FFCD52;}
	.st82{clip-path:url(#SVGID_59_);fill:#EAB234;}
	.st83{clip-path:url(#SVGID_61_);fill:#FFCD52;}
	.st84{clip-path:url(#SVGID_63_);fill:#EAB234;}
	.st85{fill:#FFD38E;}
	.st86{fill:#D56E19;}
	.st87{fill:#FFB642;}
</style>
<linearGradient id="background_2_" gradientUnits="userSpaceOnUse" x1="1088.3138" y1="287.7854" x2="1087.1427" y2="288.2617" gradientTransform="matrix(1658.5812 0 0 1220.0602 -1803344.75 -351036.2188)">
	<stop  offset="0" style="stop-color:#478DFF"/>
	<stop  offset="1" style="stop-color:#00157E"/>
</linearGradient>
<path id="background_1_" class="st0" d="M1917.8,698.7c-19.6,41.7-53.9,77.2-90.4,104.6c-43,32.4-85.3,41.5-137.3,52l-1581.7,166
	c-18.7,4.7-110.8,16.2-111-20.8c-0.1-12.3-0.6-24.9-0.7-37.1c-0.4-49.1,1.1-99.7,1.1-147.9c0-136.6,0-273.2,0-409.8
	c0-134.7,0-269.5,0-404.2c0-60.9,0-121.9,0-182.8h1920.6L1917.8,698.7z"/>
<g class="st1">
	
		<linearGradient id="SVGID_1_" gradientUnits="userSpaceOnUse" x1="1032" y1="1679.5" x2="1032" y2="2399.3999" gradientTransform="matrix(1 0 0 -1 0 2193)">
		<stop  offset="0" style="stop-color:#FFFFFF;stop-opacity:0"/>
		<stop  offset="1" style="stop-color:#FFFFFF"/>
	</linearGradient>
	<path class="st2" d="M1140.6,513.5c38.1-76.4,76.5-161.8,118.5-262.6c71.1-170.7,176.3-329.9,308.7-457.3H737.2
		c-79.5,185-144,297.6-241,425.2C713.9,400.8,856,474.5,1140.6,513.5z"/>
	
		<linearGradient id="SVGID_2_" gradientUnits="userSpaceOnUse" x1="1569.6499" y1="1666.8035" x2="1569.6499" y2="2399.3" gradientTransform="matrix(1 0 0 -1 0 2193)">
		<stop  offset="0" style="stop-color:#FFFFFF;stop-opacity:0"/>
		<stop  offset="1" style="stop-color:#FFFFFF"/>
	</linearGradient>
	<path class="st3" d="M1998.7,244.9v-451.2h-430.9C1435.5-79,1330.2,80.2,1259.1,251c-42,100.9-80.3,186.3-118.5,262.6
		c3.4,0.5,6.8,0.9,10.3,1.4C1527.2,564.8,1831.8,443.8,1998.7,244.9z"/>
	
		<linearGradient id="SVGID_3_" gradientUnits="userSpaceOnUse" x1="1542.6499" y1="1577.2" x2="1542.6499" y2="1948.1" gradientTransform="matrix(1 0 0 -1 0 2193)">
		<stop  offset="0" style="stop-color:#FFFFFF;stop-opacity:0"/>
		<stop  offset="1" style="stop-color:#FFFFFF"/>
	</linearGradient>
	<path class="st4" d="M1998.7,615.8V244.9c-166.9,198.9-471.5,320-847.8,270.1c-3.5-0.5-6.9-0.9-10.3-1.4
		c-17.9,35.9-35.8,69.7-54,102.2H1998.7L1998.7,615.8z"/>
	
		<linearGradient id="SVGID_4_" gradientUnits="userSpaceOnUse" x1="109.45" y1="185.3189" x2="109.45" y2="-529.9567" gradientTransform="matrix(1 0 0 1 0 430.3811)">
		<stop  offset="0" style="stop-color:#FFFFFF;stop-opacity:0"/>
		<stop  offset="1" style="stop-color:#FFFFFF"/>
	</linearGradient>
	<path class="st5" d="M344.9,87.6C147.1-88.7-95.8-135.5-277.3-73.6v642.8v46.5H53.6c76.8-38.9,148.8-89.1,208.8-138.9l0,0
		c49.1-40.8,90-81.4,118.5-115.2c43.8-51.9,81.4-98.2,115.3-142.6C449.9,180.2,400.3,136.9,344.9,87.6z"/>
	
		<linearGradient id="SVGID_5_" gradientUnits="userSpaceOnUse" x1="597.05" y1="185.3189" x2="597.05" y2="-211.4811" gradientTransform="matrix(1 0 0 1 0 430.3811)">
		<stop  offset="0" style="stop-color:#FFFFFF;stop-opacity:0"/>
		<stop  offset="1" style="stop-color:#FFFFFF"/>
	</linearGradient>
	<path class="st6" d="M496.2,218.9c-33.8,44.5-71.5,90.8-115.3,142.6c-28.6,33.8-69.5,74.4-118.5,115.2l0,0
		c-59.9,49.8-132.1,100-208.8,139h532h245.1h255.8c18.2-32.5,36.1-66.4,54-102.2C856,474.5,713.9,400.8,496.2,218.9z"/>
</g>
<g class="st1">
	
		<linearGradient id="SVGID_6_" gradientUnits="userSpaceOnUse" x1="1751.0264" y1="668.8885" x2="1751.0264" y2="1280.0588" gradientTransform="matrix(-0.853 -0.522 -0.522 0.853 1923.2096 734.7886)">
		<stop  offset="0" style="stop-color:#FFFFFF;stop-opacity:0"/>
		<stop  offset="1" style="stop-color:#FFFFFF"/>
	</linearGradient>
	<path class="st7" d="M1.8,343.2c-61.5,38.4-127.1,83.2-202.2,137.7C-327.5,573-474.3,641.6-626.6,675.2l601.5,368.1
		C114.5,944.5,211,891.6,337.8,842.2C260.8,613.9,190.6,497.6,1.8,343.2z"/>
	
		<linearGradient id="SVGID_7_" gradientUnits="userSpaceOnUse" x1="2207.4722" y1="658.103" x2="2207.4722" y2="1279.9935" gradientTransform="matrix(-0.853 -0.522 -0.522 0.853 1923.2096 734.7886)">
		<stop  offset="0" style="stop-color:#FFFFFF;stop-opacity:0"/>
		<stop  offset="1" style="stop-color:#FFFFFF"/>
	</linearGradient>
	<path class="st8" d="M-738.6,157.5l-200,326.7l312,190.9c152.2-33.5,299-102.1,426.2-194.3c75.1-54.4,140.7-99.3,202.2-137.7
		c-2.2-1.9-4.5-3.7-6.8-5.6C-255.4,134.8-529.6,87.4-738.6,157.5z"/>
	
		<linearGradient id="SVGID_8_" gradientUnits="userSpaceOnUse" x1="2184.5815" y1="582.1029" x2="2184.5815" y2="897.0062" gradientTransform="matrix(-0.853 -0.522 -0.522 0.853 1923.2096 734.7886)">
		<stop  offset="0" style="stop-color:#FFFFFF;stop-opacity:0"/>
		<stop  offset="1" style="stop-color:#FFFFFF"/>
	</linearGradient>
	<path class="st9" d="M-574.3-111.1l-164.4,268.6c209-70.1,483.2-22.7,733.6,180.1c2.3,1.9,4.6,3.7,6.8,5.6
		c28.9-18,56.8-34.6,84.4-50.1L-574.3-111.1L-574.3-111.1z"/>
	
		<linearGradient id="SVGID_9_" gradientUnits="userSpaceOnUse" x1="967.8043" y1="1180.4904" x2="967.8043" y2="573.2318" gradientTransform="matrix(-0.853 -0.522 0.522 -0.853 1003.1221 2238.3044)">
		<stop  offset="0" style="stop-color:#FFFFFF;stop-opacity:0"/>
		<stop  offset="1" style="stop-color:#FFFFFF"/>
	</linearGradient>
	<path class="st10" d="M389.2,1004.3c65.1,215.3,220.3,356.8,379.2,392.4l284.8-465.5l20.6-33.7L834.2,751
		c-72.8-5.8-147.2-1.5-212.7,8l0,0c-53.6,7.8-101.2,19-136.9,30.9c-54.7,18.2-102.5,35-146.7,52.2
		C354.2,890.7,370.9,944,389.2,1004.3z"/>
	
		<linearGradient id="SVGID_10_" gradientUnits="userSpaceOnUse" x1="1381.7728" y1="1180.5319" x2="1381.7728" y2="843.638" gradientTransform="matrix(-0.853 -0.522 0.522 -0.853 1003.1221 2238.3044)">
		<stop  offset="0" style="stop-color:#FFFFFF;stop-opacity:0"/>
		<stop  offset="1" style="stop-color:#FFFFFF"/>
	</linearGradient>
	<path class="st11" d="M337.9,842.1c44.2-17.2,92-34.1,146.7-52.2c35.7-11.8,83.3-23.1,136.9-30.9l0,0c65.4-9.5,140-13.9,212.8-8.1
		L449,515.1L271.5,406.5L86.2,293.1c-27.6,15.5-55.5,32.1-84.4,50.1C190.6,497.6,260.8,613.9,337.9,842.1z"/>
</g>
<g class="st1">
	
		<linearGradient id="SVGID_11_" gradientUnits="userSpaceOnUse" x1="242.8343" y1="-440.5037" x2="242.8343" y2="99.877" gradientTransform="matrix(-0.522 0.853 0.853 0.522 1908.438 641.9089)">
		<stop  offset="0" style="stop-color:#FFFFFF;stop-opacity:0"/>
		<stop  offset="1" style="stop-color:#FFFFFF"/>
	</linearGradient>
	<path class="st12" d="M1363.4,688.6c34,54.4,73.6,112.4,121.7,178.8c81.5,112.4,142.2,242.2,171.8,376.9l325.5-531.9
		c-87.3-123.4-134.1-208.8-177.9-321C1602.8,459.6,1499.9,521.7,1363.4,688.6z"/>
	
		<linearGradient id="SVGID_12_" gradientUnits="userSpaceOnUse" x1="646.434" y1="-449.9912" x2="646.434" y2="99.877" gradientTransform="matrix(-0.522 0.853 0.853 0.522 1908.438 641.9089)">
		<stop  offset="0" style="stop-color:#FFFFFF;stop-opacity:0"/>
		<stop  offset="1" style="stop-color:#FFFFFF"/>
	</linearGradient>
	<path class="st13" d="M1199.1,1343.4l288.9,176.8l168.9-275.9c-29.7-134.6-90.3-264.4-171.8-376.9
		C1437,801,1397.3,743,1363.4,688.6c-1.6,2-3.2,4-4.9,6C1179,916.1,1137.2,1158.6,1199.1,1343.4z"/>
	
		<linearGradient id="SVGID_13_" gradientUnits="userSpaceOnUse" x1="626.2903" y1="-517.2729" x2="626.2903" y2="-238.8125" gradientTransform="matrix(-0.522 0.853 0.853 0.522 1908.438 641.9089)">
		<stop  offset="0" style="stop-color:#FFFFFF;stop-opacity:0"/>
		<stop  offset="1" style="stop-color:#FFFFFF"/>
	</linearGradient>
	<path class="st14" d="M961.6,1198.1l237.5,145.4c-62-184.8-20.1-427.3,159.3-648.8c1.7-2,3.3-4.1,4.9-6
		c-15.9-25.5-30.6-50.2-44.3-74.6L961.6,1198.1L961.6,1198.1z"/>
	
		<linearGradient id="SVGID_14_" gradientUnits="userSpaceOnUse" x1="-449.7662" y1="2279.855" x2="-449.7662" y2="1742.7823" gradientTransform="matrix(-0.522 0.853 -0.853 -0.522 3411.9539 1561.9965)">
		<stop  offset="0" style="stop-color:#FFFFFF;stop-opacity:0"/>
		<stop  offset="1" style="stop-color:#FFFFFF"/>
	</linearGradient>
	<path class="st15" d="M1948,346.1c190.4-57.6,315.5-194.8,347.1-335.3l-411.6-251.9l-29.8-18.2L1723.9-47.5
		c-5.2,64.4-1.3,130.2,7.1,188.1l0,0c6.9,47.4,16.8,89.5,27.3,121.1c16.1,48.4,31,90.6,46.2,129.7
		C1847.5,377,1894.7,362.2,1948,346.1z"/>
	
		<linearGradient id="SVGID_15_" gradientUnits="userSpaceOnUse" x1="-83.6653" y1="2279.9646" x2="-83.6653" y2="1981.973" gradientTransform="matrix(-0.522 0.853 -0.853 -0.522 3411.9539 1561.9965)">
		<stop  offset="0" style="stop-color:#FFFFFF;stop-opacity:0"/>
		<stop  offset="1" style="stop-color:#FFFFFF"/>
	</linearGradient>
	<path class="st16" d="M1804.5,391.5c-15.2-39.1-30.1-81.4-46.2-129.7c-10.5-31.5-20.4-73.7-27.3-121.1l0,0
		c-8.4-57.9-12.3-123.8-7.2-188.2l-208.5,340.7l-96.1,157L1319.1,614c13.7,24.4,28.4,49.1,44.3,74.6
		C1499.9,521.7,1602.8,459.6,1804.5,391.5z"/>
</g>
<g class="st17">
	
		<linearGradient id="SVGID_16_" gradientUnits="userSpaceOnUse" x1="1591.8724" y1="264.4513" x2="-68.6314" y2="939.7319" gradientTransform="matrix(1 0 0 -1 0 1032)">
		<stop  offset="0" style="stop-color:#478DFF"/>
		<stop  offset="1" style="stop-color:#00157E"/>
	</linearGradient>
	<path class="st18" d="M0.6,0c0,3.2,0,6.4,0,9.6c0,134.5,0,268.9,0,403.4c0,136.3,0,272.7,0,409c0,48.1-1.5,98.6-1.1,147.6
		c0.1,12.2,0.7,24.7,0.7,37c0.2,36.9,92.1,25.5,110.8,20.8l1578.6-165.6c51.8-10.4,94-19.5,137-51.9c36.3-27.4,70.7-62.8,90.2-104.4
		L1917.2,0H0.6z"/>
	
		<linearGradient id="SVGID_17_" gradientUnits="userSpaceOnUse" x1="1591.8724" y1="264.4513" x2="-68.6314" y2="939.7319" gradientTransform="matrix(1 0 0 -1 0 1032)">
		<stop  offset="0" style="stop-color:#478DFF"/>
		<stop  offset="1" style="stop-color:#00157E"/>
	</linearGradient>
	<path class="st19" d="M0.6,0c0,3.2,0,6.4,0,9.6c0,134.5,0,268.9,0,403.4c0,136.3,0,272.7,0,409c0,48.1-1.5,98.6-1.1,147.6
		c0.1,12.2,0.7,24.7,0.7,37c0.2,36.9,92.1,25.5,110.8,20.8l1578.6-165.6c51.8-10.4,94-19.5,137-51.9c36.3-27.4,70.7-62.8,90.2-104.4
		L1917.2,0H0.6z"/>
	<g class="st20">
		
			<linearGradient id="SVGID_18_" gradientUnits="userSpaceOnUse" x1="1294.9" y1="509.1" x2="1294.9" y2="1032" gradientTransform="matrix(1 0 0 -1 0 1032)">
			<stop  offset="0" style="stop-color:#FFFFFF;stop-opacity:0"/>
			<stop  offset="1" style="stop-color:#FFFFFF"/>
		</linearGradient>
		<path class="st21" d="M826,210.7c230.7,192.8,381.2,270.9,682.8,312.2c40.4-80.9,81.1-171.4,125.6-278.3
			c35.4-85,78.8-167.3,129.4-244.6H965.2C923.4,74.6,879.3,140.5,826,210.7z"/>
		
			<linearGradient id="SVGID_19_" gradientUnits="userSpaceOnUse" x1="1716.1" y1="495.6893" x2="1716.1" y2="1032" gradientTransform="matrix(1 0 0 -1 0 1032)">
			<stop  offset="0" style="stop-color:#FFFFFF;stop-opacity:0"/>
			<stop  offset="1" style="stop-color:#FFFFFF"/>
		</linearGradient>
		<path class="st22" d="M1763.7,0c-50.6,77.3-94,159.6-129.4,244.6c-44.5,106.9-85.1,197.4-125.6,278.3c3.6,0.5,7.2,1,10.9,1.5
			c146,19.4,281.7,14.4,403.9-9.9V0H1763.7z"/>
		
			<linearGradient id="SVGID_20_" gradientUnits="userSpaceOnUse" x1="1915.9" y1="1085.4" x2="1915.9" y2="1085.4" gradientTransform="matrix(1 0 0 -1 0 1032)">
			<stop  offset="0" style="stop-color:#FFFFFF;stop-opacity:0"/>
			<stop  offset="1" style="stop-color:#FFFFFF"/>
		</linearGradient>
		<path class="st23" d="M1915.9-53.4"/>
		
			<linearGradient id="SVGID_21_" gradientUnits="userSpaceOnUse" x1="416.1" y1="1032" x2="416.1" y2="400.8" gradientTransform="matrix(1 0 0 -1 0 1032)">
			<stop  offset="0" style="stop-color:#FFFFFF;stop-opacity:0"/>
			<stop  offset="1" style="stop-color:#FFFFFF"/>
		</linearGradient>
		<path class="st24" d="M573.5,0H6.3v581.9v49.3H357C438.4,590,514.7,536.8,578.2,484c52.1-43.2,95.3-86.2,125.6-122.1
			c46.4-55,86.3-104,122.1-151.1c-49.1-41.1-101.6-86.9-160.3-139.2C635.8,44.9,605,21.1,573.5,0z"/>
		
			<linearGradient id="SVGID_22_" gradientUnits="userSpaceOnUse" x1="932.95" y1="200.8189" x2="932.95" y2="-219.5811" gradientTransform="matrix(1 0 0 1 0 430.3811)">
			<stop  offset="0" style="stop-color:#FFFFFF;stop-opacity:0"/>
			<stop  offset="1" style="stop-color:#FFFFFF"/>
		</linearGradient>
		<path class="st25" d="M826,210.8c-35.9,47.1-75.8,96.2-122.1,151.1c-30.3,35.9-73.6,78.8-125.6,122.1l0,0
			c-63.5,52.8-140,105.9-221.2,147.2h563.7h259.7h271.1c19.3-34.5,38.2-70.4,57.2-108.3C1207.2,481.6,1056.6,403.5,826,210.8z"/>
	</g>
	<g id="VQPyCY.tif" class="st20">
		
			<image style="overflow:visible;enable-background:new    ;" width="889" height="916" id="Layer_1_2_" xlink:href="33926082C5F47CB3.png"  transform="matrix(1.1599 0 0 1.1599 886.1108 -205.7747)">
		</image>
	</g>
	<g id="j0fvnI.tif" class="st20">
		
			<image style="overflow:visible;enable-background:new    ;" width="1094" height="598" id="Layer_1_3_" xlink:href="33926082C5F47CB1.png"  transform="matrix(1.1595 0 0 1.1595 -1.129 340.2446)">
		</image>
	</g>
	<g class="st26">
		<g>
			<g>
				<path class="st27" d="M1672.1,518.3c0,0-6.1-20.2-22.4-29.4c-4.4-2.5-6.3-7.2-7.4-11.9c-0.9-3.9-1.3-7.9-2.9-11.6
					c-0.7-1.6-1.6-3.2-1.9-4.8c-0.3-1.7,0.4-3.4-0.5-5c-2.3-3.9-12.8-29.6,12.4-36.9c11.1-3.2,21.7,0.3,28.1,10c2,3,3.6,6.3,4.5,9.7
					c1.8,6.3-1.9,14-4.1,19.8c-2.3,6.1-4.8,11.9-3.8,18.6c1.2,7.9,5.8,14.7,8.9,21.9c2,4.6,3.7,11.3-1.2,14.3
					C1678.8,514.8,1675.4,516.5,1672.1,518.3z"/>
				<path class="st28" d="M1649.7,488.9c-10.9-6.5-5.8-17.3-10.5-24.1s0.1-5.4-2.2-9.3s-12.8-29.6,12.4-36.9
					c12.4-3.6,29.6,2.9,31.2,17.4c1,9.3-6.3,15.4-11.1,22.1c-5,6.9-5,16.7-3.7,24.8C1666.6,487.4,1660.3,493.6,1649.7,488.9z"/>
				<g>
					<path class="st29" d="M1672.5,518.9c-0.1,0.1-0.2,0.1-0.4,0.1c-0.4,0-0.6-0.3-0.6-0.7c1.2-17.2-3.3-24.9-8.4-33.8
						c-0.4-0.8-0.9-1.5-1.3-2.3c-7.7-15-8.2-27.7-7.3-35.7c1-8.7,3.8-13.8,3.9-14c0.2-0.3,0.6-0.4,0.9-0.2c0.3,0.2,0.4,0.6,0.2,0.9
						c-0.1,0.2-11,20.3,3.4,48.4c0.4,0.8,0.9,1.5,1.3,2.3c5.2,9,9.8,16.9,8.6,34.5C1672.8,518.6,1672.7,518.8,1672.5,518.9z"/>
				</g>
			</g>
			<g>
				<g>
					<path class="st30" d="M1728.4,411.1c-0.6-0.7-5.1-0.2-6-0.2c-4.3,0-8.7,0.5-12.9,1.6c-9.6,2.6-15.2,10.4-13.3,20.4
						c1.6,8.7,8.9,20.6-1.8,26.6c-4.2,2.4-8.4,2.1-9.8,7.7c-1.4,5.5,0.1,11.5,1.4,16.9c1.4,5.9,1.8,10.5,0,16.5
						c-1.3,4.1-3.9,7.7-5.2,11.7c-2.2,6.9-2,14.7-0.8,21.8c0.7,4.3,8.3,2.6,11.8,2.6l18.3-15.7l11.8-27.5l10.5-43.2l10.5-22.2
						L1728.4,411.1z"/>
					<path class="st31" d="M1699.6,536.6c0.2-6.1,4.2-11.6,9.2-15c7.8-5.3,18.3-4.4,24.7-11.7c4.1-4.7,5.6-10.8,4.5-16.8
						c-0.6-3.3-2.5-5.9-3.2-9c-1.4-5.5,3.5-10.1,7.8-12.6c3.6-2.1,8.2-1.9,11.7-4c3.4-2,5.5-6,6-9.8c0.8-5.3-0.6-10.6-1.1-15.9
						c-1.3-12.9,7.3-29.4-6.3-38.3c-15-9.7-26.9,7.2-39.8,11.7c-2.4,0.9-5,1.4-7.2,2.8c-5.9,3.6-3,10.5-1.9,16
						c1.1,5.4,2.9,12.1,0.8,17.5c-2.5,6.7-14.2,19.3-10.5,28.8c3.8,9.5,4.1,19.9-1.3,27.5c-5.4,7.6-16.2,19.4-14.4,28.8
						C1678.8,537.2,1697.9,536.6,1699.6,536.6z"/>
					<g>
						<path class="st30" d="M1685.8,538.3c0,0,3.1-5.4,5.2-9.2c0.5-0.8,1.7-2.3,3.3-4.1c5.3-6.1,14.2-16.4,13.8-26.3
							c-0.6-13.5,1.1-27.4,3.8-32.4c2.7-4.8,8-9.7,13.6-14.9c8.8-8.1,18.7-17.3,20.5-28.5c0.1-0.4-0.2-0.7-0.5-0.7
							c-0.4-0.1-0.7,0.2-0.7,0.5c-1.7,10.7-11.5,19.8-20.1,27.7c-5.7,5.2-11,10.2-13.8,15.2c-3.3,5.9-4.5,21.1-4,33
							c0.4,9.4-8.3,19.4-13.5,25.4c-1.7,2-2.9,3.4-3.5,4.3c-2.1,3.7-5.2,9.2-5.2,9.2L1685.8,538.3z"/>
					</g>
				</g>
				<g>
					<path class="st30" d="M1723.3,453.7c-0.3,0-0.6-0.2-0.6-0.6l-2.8-26.7c0-0.4,0.2-0.7,0.6-0.7c0.3,0,0.7,0.2,0.7,0.6l2.8,26.7
						C1723.9,453.4,1723.7,453.7,1723.3,453.7L1723.3,453.7z"/>
				</g>
				<g>
					<path class="st30" d="M1708,492.1c-0.2,0-0.3-0.1-0.5-0.2c-0.3-0.3-0.3-0.7,0-0.9l20.6-20.6c0.3-0.3,0.7-0.3,0.9,0
						c0.3,0.3,0.3,0.7,0,0.9l-20.6,20.6C1708.4,492,1708.2,492.1,1708,492.1z"/>
				</g>
			</g>
			
				<linearGradient id="SVGID_23_" gradientUnits="userSpaceOnUse" x1="1064.9197" y1="270.1284" x2="1064.0021" y2="270.5838" gradientTransform="matrix(21.3896 0 0 26.5036 -21063.4316 -6641.3408)">
				<stop  offset="0" style="stop-color:#FFCD52;stop-opacity:0"/>
				<stop  offset="4.334000e-02" style="stop-color:#FCC94E;stop-opacity:5.000000e-02"/>
				<stop  offset="0.2462" style="stop-color:#F2BC3F;stop-opacity:0.281"/>
				<stop  offset="0.489" style="stop-color:#ECB437;stop-opacity:0.559"/>
				<stop  offset="0.8747" style="stop-color:#EAB234"/>
			</linearGradient>
			<path class="st32" d="M1717.7,529.3c3.5,14.1-4.4,13.5-4.4,13.5l-6.5-4.2c-2.2-10.6-16.1-30.5-16.1-30.5
				S1714.7,517.3,1717.7,529.3z"/>
			
				<linearGradient id="SVGID_24_" gradientUnits="userSpaceOnUse" x1="963.1174" y1="424.5426" x2="1432.6001" y2="424.5426" gradientTransform="matrix(1 0 0 -1 0 1032)">
				<stop  offset="0" style="stop-color:#478DFF"/>
				<stop  offset="1" style="stop-color:#00157E"/>
			</linearGradient>
			<path class="st33" d="M1063.8,514.5c0,0-34.7,7.5-36.2,47.2c0,0-46.4-20.4-63.1,14.9c-10.5,22.2,42,52.7,49.6,95.2
				c0,0,134.2,26,214.7,28.5c98.6,3,203.8-53.8,203.8-53.8l-5.5-80.2"/>
			
				<linearGradient id="SVGID_25_" gradientUnits="userSpaceOnUse" x1="1187.9" y1="538.5328" x2="1591.8547" y2="538.5328" gradientTransform="matrix(1 0 0 -1 0 1032)">
				<stop  offset="0" style="stop-color:#478DFF"/>
				<stop  offset="1" style="stop-color:#00157E"/>
			</linearGradient>
			<path class="st34" d="M1187.9,564.8c0,0,81.1-76.9,120.9-64.4c0,0-14.3-94.3,56.4-45.8c44.1,30.2,64.5-4.4,64.5-4.4
				s15.6-26.9,54.4-28c113.7-3,107.7,97.7,107.7,97.7l-74.7,43.2L1187.9,564.8L1187.9,564.8z"/>
			
				<linearGradient id="SVGID_26_" gradientUnits="userSpaceOnUse" x1="1591.1698" y1="512.6613" x2="1713.1" y2="512.6613" gradientTransform="matrix(1 0 0 -1 0 1032)">
				<stop  offset="0" style="stop-color:#478DFF"/>
				<stop  offset="1" style="stop-color:#00157E"/>
			</linearGradient>
			<path class="st35" d="M1713.1,547.1c0,0-15.6-67-79.5-53.8c-64,13.2-36.6,49.1-36.6,49.1"/>
			
				<linearGradient id="SVGID_27_" gradientUnits="userSpaceOnUse" x1="1380.3" y1="429.591" x2="1758.2209" y2="429.591" gradientTransform="matrix(1 0 0 -1 0 1032)">
				<stop  offset="0" style="stop-color:#478DFF"/>
				<stop  offset="1" style="stop-color:#00157E"/>
			</linearGradient>
			<path class="st36" d="M1534.4,681.6c-54.2-4.6-154.1-30.3-154.1-67.4v-3.5c0-37,30.3-67.4,67.4-67.4l204.1-21.1
				c37,0,119.7,39.4,104.6,98.1C1741.9,676.8,1588.4,686.2,1534.4,681.6L1534.4,681.6z"/>
			<path class="st37" d="M1415.6,457.6h6.4"/>
			
				<linearGradient id="SVGID_28_" gradientUnits="userSpaceOnUse" x1="1078.9175" y1="276.0481" x2="1076.8208" y2="275.425" gradientTransform="matrix(44.8561 0 0 40.8 -47273.4414 -10730.6416)">
				<stop  offset="0.144" style="stop-color:#F2F4F7;stop-opacity:0"/>
				<stop  offset="0.2586" style="stop-color:#D8E1F0;stop-opacity:5.400000e-02"/>
				<stop  offset="0.5038" style="stop-color:#96B1DD;stop-opacity:0.168"/>
				<stop  offset="0.8574" style="stop-color:#2C64BF;stop-opacity:0.333"/>
				<stop  offset="1" style="stop-color:#0044B2;stop-opacity:0.4"/>
			</linearGradient>
			<path class="st38" d="M1049,544.2c0,0-4.6-39.6,58.6-48.1l-10.3,53.4C1097.2,549.5,1061.5,543.7,1049,544.2z"/>
			
				<linearGradient id="SVGID_29_" gradientUnits="userSpaceOnUse" x1="1541.2001" y1="447.4019" x2="1655.6" y2="447.4019" gradientTransform="matrix(1 0 0 -1 0 1032)">
				<stop  offset="0" style="stop-color:#478DFF"/>
				<stop  offset="1" style="stop-color:#00157E"/>
			</linearGradient>
			<path class="st39" d="M1541.3,616.5l-0.1-28.9c24.3,0.1,30.5-21.3,57.2-30.7s57.2-0.1,57.2-0.1"/>
			
				<linearGradient id="SVGID_30_" gradientUnits="userSpaceOnUse" x1="1075.1357" y1="267.1626" x2="1075.2285" y2="266.0026" gradientTransform="matrix(51.8673 0 0 19.8 -54628.6953 -4727.9438)">
				<stop  offset="0.1809" style="stop-color:#0044B2;stop-opacity:0.4"/>
				<stop  offset="0.7028" style="stop-color:#2963FF;stop-opacity:0"/>
			</linearGradient>
			<path class="st40" d="M1172.5,557.7c0,0-29.4-6.7-9-25.9l-44.3,0.5l-4.3,8.5c0,0-22.2-7.7-0.9,2.1c7.3,3.4,14.1,8.2,18.7,14.8
				L1172.5,557.7L1172.5,557.7z"/>
			
				<linearGradient id="SVGID_31_" gradientUnits="userSpaceOnUse" x1="1072.8518" y1="266.9283" x2="1072.8276" y2="268.683" gradientTransform="matrix(36.1 0 0 23.3 -37247.2852 -5736.0269)">
				<stop  offset="0.4251" style="stop-color:#FFFFFF;stop-opacity:0"/>
				<stop  offset="0.5427" style="stop-color:#B3C7E8;stop-opacity:0.1"/>
				<stop  offset="0.6704" style="stop-color:#6790D1;stop-opacity:0.208"/>
				<stop  offset="0.7763" style="stop-color:#2F67C0;stop-opacity:0.298"/>
				<stop  offset="0.8547" style="stop-color:#0D4EB6;stop-opacity:0.364"/>
				<stop  offset="0.897" style="stop-color:#0044B2;stop-opacity:0.4"/>
			</linearGradient>
			<path class="st41" d="M1505.5,513.8l0.4-30.5l-47.2,22.2l18.7,3.8C1477.2,509.5,1504.6,513.6,1505.5,513.8z"/>
			
				<linearGradient id="SVGID_32_" gradientUnits="userSpaceOnUse" x1="1081.0044" y1="271.0151" x2="1080.9333" y2="269.9156" gradientTransform="matrix(73.2 0 0 26.0515 -77581.5938 -6481.1157)">
				<stop  offset="1.884000e-02" style="stop-color:#5088D8;stop-opacity:0.4"/>
				<stop  offset="0.2939" style="stop-color:#5B91E1;stop-opacity:0.277"/>
				<stop  offset="0.777" style="stop-color:#78A9F8;stop-opacity:6.100000e-02"/>
				<stop  offset="0.9135" style="stop-color:#82B1FF;stop-opacity:0"/>
			</linearGradient>
			<path class="st42" d="M1591.3,546.3c0,0-27.2-0.5-43.7,13.2c-16.4,13.7-52.1,2.9-52.1,2.9s14.7,6.5,24.2,17.9
				c0,0,13.2,1.8,29.3-14S1591.3,546.3,1591.3,546.3L1591.3,546.3z"/>
			
				<linearGradient id="SVGID_33_" gradientUnits="userSpaceOnUse" x1="1072.2235" y1="252.3107" x2="1072.2642" y2="255.0513" gradientTransform="matrix(38.4612 0 0 12.214 -39830.1406 -2508.3088)">
				<stop  offset="1.884000e-02" style="stop-color:#5088D8;stop-opacity:0.4"/>
				<stop  offset="0.2939" style="stop-color:#5B91E1;stop-opacity:0.277"/>
				<stop  offset="0.777" style="stop-color:#78A9F8;stop-opacity:6.100000e-02"/>
				<stop  offset="0.9135" style="stop-color:#82B1FF;stop-opacity:0"/>
			</linearGradient>
			<path class="st43" d="M1434.3,574.3c0,0-25.1,20.5-50,15c0,0-1-8.9,0.5-14.5C1384.9,575.1,1403.3,578.6,1434.3,574.3z"/>
			
				<linearGradient id="SVGID_34_" gradientUnits="userSpaceOnUse" x1="1006.0927" y1="260.2153" x2="1008.3444" y2="260.4353" gradientTransform="matrix(7.6532 0 0 14.6 -6287.1177 -3128.8245)">
				<stop  offset="0" style="stop-color:#FFFFFF;stop-opacity:0"/>
				<stop  offset="0.1077" style="stop-color:#FAFCFE;stop-opacity:4.300000e-02"/>
				<stop  offset="0.2314" style="stop-color:#ECF1F9;stop-opacity:9.300000e-02"/>
				<stop  offset="0.3631" style="stop-color:#D5E0F2;stop-opacity:0.145"/>
				<stop  offset="0.5005" style="stop-color:#B5C9E9;stop-opacity:0.2"/>
				<stop  offset="0.6422" style="stop-color:#8BAADC;stop-opacity:0.257"/>
				<stop  offset="0.7876" style="stop-color:#5985CD;stop-opacity:0.315"/>
				<stop  offset="0.9332" style="stop-color:#1E5ABB;stop-opacity:0.373"/>
				<stop  offset="1" style="stop-color:#0044B2;stop-opacity:0.4"/>
			</linearGradient>
			<path class="st44" d="M1418,681.6c-1.7-7.7,8-19.1,8-19.1c-5.6,11.9,1.8,19.1,1.8,19.1H1418z"/>
			
				<linearGradient id="SVGID_35_" gradientUnits="userSpaceOnUse" x1="1070.2349" y1="272.045" x2="1071.8446" y2="272.6793" gradientTransform="matrix(36.3621 0 0 26.5672 -37577.2852 -6645.9463)">
				<stop  offset="0" style="stop-color:#F2F4F7;stop-opacity:0"/>
				<stop  offset="9.680000e-02" style="stop-color:#ECF0F5;stop-opacity:3.900000e-02"/>
				<stop  offset="0.2259" style="stop-color:#DBE3F0;stop-opacity:9.000000e-02"/>
				<stop  offset="0.3732" style="stop-color:#BFCFE9;stop-opacity:0.149"/>
				<stop  offset="0.5341" style="stop-color:#99B3DD;stop-opacity:0.214"/>
				<stop  offset="0.706" style="stop-color:#678FCF;stop-opacity:0.282"/>
				<stop  offset="0.8843" style="stop-color:#2B63BE;stop-opacity:0.354"/>
				<stop  offset="1" style="stop-color:#0044B2;stop-opacity:0.4"/>
			</linearGradient>
			<path class="st45" d="M1384.9,575.1c-46.7-1.6-41.1,20.5-41.1,20.5c14.5,20.9,47.4,12.4,47.4,12.4S1380.6,594.4,1384.9,575.1z"/>
			
				<linearGradient id="SVGID_36_" gradientUnits="userSpaceOnUse" x1="1482.3" y1="410.7781" x2="1584.0472" y2="410.7781" gradientTransform="matrix(1 0 0 -1 0 1032)">
				<stop  offset="0" style="stop-color:#478DFF"/>
				<stop  offset="1" style="stop-color:#00157E"/>
			</linearGradient>
			<path class="st46" d="M1482.3,606.7c0,0,1.6,33.5,65.4,35.1s24.2-41.2,24.2-41.2"/>
			
				<linearGradient id="SVGID_37_" gradientUnits="userSpaceOnUse" x1="1043.8346" y1="196.5064" x2="1044.3025" y2="198.7822" gradientTransform="matrix(11.0384 0 0 5.7 -10531.3145 -555.4656)">
				<stop  offset="0" style="stop-color:#E6E6E6;stop-opacity:0"/>
				<stop  offset="0.1758" style="stop-color:#A7BAD8;stop-opacity:0.119"/>
				<stop  offset="0.3601" style="stop-color:#6C90CA;stop-opacity:0.244"/>
				<stop  offset="0.53" style="stop-color:#3D6FC0;stop-opacity:0.359"/>
				<stop  offset="0.6797" style="stop-color:#1C58B8;stop-opacity:0.46"/>
				<stop  offset="0.8035" style="stop-color:#0749B4;stop-opacity:0.544"/>
				<stop  offset="0.8861" style="stop-color:#0044B2;stop-opacity:0.6"/>
			</linearGradient>
			<path class="st47" d="M976.2,568.7c0,0-2.5,8.3,15.4,8.3s19.2-5.9,19.2-5.9"/>
			
				<linearGradient id="SVGID_38_" gradientUnits="userSpaceOnUse" x1="1073.1399" y1="274.2716" x2="1075.3739" y2="273.0847" gradientTransform="matrix(32.6963 0 0 35 -34044.3086 -9055.3398)">
				<stop  offset="0" style="stop-color:#F2F4F7;stop-opacity:0"/>
				<stop  offset="8.840000e-02" style="stop-color:#E8EDF4;stop-opacity:3.500000e-02"/>
				<stop  offset="0.2372" style="stop-color:#CEDAED;stop-opacity:9.500000e-02"/>
				<stop  offset="0.4281" style="stop-color:#A3BBE1;stop-opacity:0.171"/>
				<stop  offset="0.6537" style="stop-color:#6890D0;stop-opacity:0.262"/>
				<stop  offset="0.9058" style="stop-color:#1E5ABA;stop-opacity:0.362"/>
				<stop  offset="1" style="stop-color:#0044B2;stop-opacity:0.4"/>
			</linearGradient>
			<path class="st48" d="M1078.3,545.9c0,0,19.6-17.7,10.5-19c-9.2-1.3-20.3,0-20.3,0s31-21.7,21.5-26.8c0,0-36,2.9-40.9,44
				C1049,544.2,1071.1,545,1078.3,545.9z"/>
			
				<linearGradient id="SVGID_39_" gradientUnits="userSpaceOnUse" x1="1076.7373" y1="265.3258" x2="1078.74" y2="262.9851" gradientTransform="matrix(44.1291 0 0 21.473 -46520.8789 -5121.1558)">
				<stop  offset="0" style="stop-color:#F2F4F7;stop-opacity:0"/>
				<stop  offset="8.840000e-02" style="stop-color:#E8EDF4;stop-opacity:3.500000e-02"/>
				<stop  offset="0.2372" style="stop-color:#CEDAED;stop-opacity:9.500000e-02"/>
				<stop  offset="0.4281" style="stop-color:#A3BBE1;stop-opacity:0.171"/>
				<stop  offset="0.6537" style="stop-color:#6890D0;stop-opacity:0.262"/>
				<stop  offset="0.9058" style="stop-color:#1E5ABA;stop-opacity:0.362"/>
				<stop  offset="1" style="stop-color:#0044B2;stop-opacity:0.4"/>
			</linearGradient>
			<path class="st49" d="M998.8,573c0,0,22.5-10.1,34.3-11.1c0,0,25.8-3.8,23.3-11.1c0,0-2-8.8-31.9-4.8"/>
			<g>
				<path class="st27" d="M992.6,572.5c0,0,4.5-20.6-5.2-36.6c-2.6-4.3-2-9.4-0.6-14c1.1-3.8,2.7-7.6,3.1-11.6
					c0.2-1.7,0.1-3.5,0.7-5.1c0.6-1.6,2.1-2.8,2-4.6c-0.1-4.5,3.3-32.1,28.8-26.2c11.3,2.6,18.8,10.8,19.7,22.4
					c0.3,3.5,0.1,7.2-0.7,10.7c-1.5,6.4-8.4,11.3-13.2,15.3c-5,4.2-10,8.1-12.4,14.4c-2.8,7.5-2.1,15.6-2.9,23.5
					c-0.5,5-2.3,11.6-8.1,11.9C1000.1,572.7,996.4,572.5,992.6,572.5z"/>
				<path class="st28" d="M987.4,535.9c-6.4-11,3.3-18,2.6-26.2s2.7-4.7,2.6-9.2c-0.1-4.5,3.3-32.1,28.8-26.2
					c12.6,2.9,24.5,16.9,18.8,30.4c-3.6,8.6-13,10.4-20.5,13.9c-7.7,3.6-12.5,12.2-15.3,19.8C1002.9,542.8,994.4,545.2,987.4,535.9z
					"/>
				<g>
					<path class="st29" d="M992.7,572.8c-0.1,0-0.2,0-0.4-0.1c-0.3-0.2-0.4-0.6-0.2-0.9c9.4-14.5,9.3-23.3,9.1-33.6
						c0-0.9,0-1.8,0-2.7c0.6-16.9,6.3-28.2,11-34.8c5.1-7.1,10-10.2,10.2-10.3c0.3-0.2,0.7-0.1,0.9,0.2c0.2,0.3,0.1,0.7-0.2,0.9
						c-0.2,0.1-19.5,12.4-20.6,43.9c0,0.9,0,1.8,0,2.6c0.2,10.5,0.3,19.5-9.3,34.3C993.1,572.7,992.9,572.8,992.7,572.8z"/>
				</g>
				<path class="st50" d="M948.2,446.9c0.6-0.7,5.1-0.2,6-0.2c4.3,0,8.7,0.5,12.9,1.6c9.6,2.6,15.2,10.4,13.3,20.4
					c-1.6,8.7-8.9,20.6,1.8,26.6c4.2,2.4,8.4,2.1,9.8,7.7c1.4,5.5-0.1,11.5-1.4,16.9c-1.4,5.9-1.8,10.5,0,16.5
					c1.3,4.1,3.9,7.7,5.2,11.7c2.2,6.9,2,14.7,0.8,21.8c-0.7,4.3-8.3,2.6-11.8,2.6l-18.3-15.7l-11.8-27.5l-10.5-43.2l-10.5-22.2
					C933.8,463.9,948.2,446.9,948.2,446.9z"/>
				<path class="st51" d="M981.6,572.8c-4.2-6.6-8.8-11.9-13.9-15.3c-7.8-5.3-18.3-4.4-24.7-11.7c-4.1-4.7-5.6-10.8-4.5-16.8
					c0.6-3.3,2.5-5.9,3.2-9c1.4-5.5-3.5-10.1-7.8-12.6c-3.6-2.1-8.2-1.9-11.7-4c-3.4-2-5.5-6-6-9.8c-0.8-5.3,0.6-10.6,1.1-15.9
					c1.3-12.9-7.3-29.4,6.3-38.3c15-9.7,26.9,7.2,39.8,11.7c2.4,0.9,5,1.4,7.2,2.8c5.9,3.6,3,10.5,1.9,16
					c-1.1,5.4-2.9,12.1-0.8,17.5c2.5,6.7,14.2,19.3,10.5,28.8c-3.8,9.5-4.1,19.9,1.3,27.5c5.4,7.6,16.2,19.4,14.4,28.8
					C997.8,573.1,983.3,572.8,981.6,572.8z"/>
				<g>
					<path class="st28" d="M990.1,573.1c0,0-2.4-4.4-4.5-8.1c-0.5-0.8-1.7-2.3-3.3-4.1c-5.3-6.1-14.2-16.4-13.8-26.3
						c0.6-13.5-1.1-27.4-3.8-32.4c-2.7-4.8-8-9.7-13.6-14.9c-8.8-8.1-18.7-17.3-20.5-28.5c-0.1-0.4,0.2-0.7,0.5-0.7
						c0.4-0.1,0.7,0.2,0.7,0.5c1.7,10.7,11.5,19.8,20.1,27.7c5.7,5.2,11,10.2,13.8,15.2c3.3,5.9,4.5,21.1,4,33
						c-0.4,9.4,8.3,19.4,13.5,25.4c1.7,2,2.9,3.4,3.5,4.3c2.1,3.7,4.7,8.5,4.7,8.5L990.1,573.1z"/>
				</g>
			</g>
			<g>
				<g>
					<g>
						<path class="st37" d="M1630.1,464.9c-1.1-15.6-16.7-17.6-16.7-27.7s4.6-10.1,4.5-18.5c-0.2-16-9.2-13.2-8.7-21.7
							c0.5-8.6,2.6-41.4-27.1-37.4c0,0-12.1-11.6-29.7,4s-6,28.2-8.1,34.8c-2,6.6-12.6,6-12.6,17.1s9.6,13.1,7.6,21.2
							c-1.6,6.2-17.9,13.7-15.4,33c14.6,12.4,33.6,19.9,54.3,19.9c19.6,0,37.5-6.7,51.8-17.9
							C1630.2,469.6,1630.3,467.3,1630.1,464.9z"/>
					</g>
					<path class="st52" d="M1575.5,459c13.3,0.3,19.6-7.7,22.1-12.1c-6.2-0.2-11-0.1-11-0.1l-20.2-0.7l-9.4,1.2
						C1558,450,1562.3,458.7,1575.5,459z"/>
					<path class="st28" d="M1623.7,450.8c-4.1-2.7-16.7-3.7-26.1-4c-2.5,4.4-8.8,12.5-22.1,12.1c-13.2-0.3-17.5-9-18.6-11.8
						l-19.5,2.5c-19.3-1.1-29.5,40.8-29.5,40.8l18.2,37.5l7.1-45.5l7.5,59.1l5.8,10.3l30.6,34c28.4,0,27.2-30.6,27.2-30.6l0.9-9
						c-13.1-3.3-29.7-9.2-29.7-9.2v-11.5h2l29.9,0.1l3.8-38.5l-1.1,38.6l-2.7-0.4l-2.1,20.9c5.2,1.3,9.8,2.2,12.7,2.2
						c10.2,0,10.3-10.2,10.3-10.2s4.5-55.6,5.7-68.1C1635,457.6,1630.5,455.4,1623.7,450.8z"/>
					<path class="st53" d="M1474.8,745.7c0,0-17-1.2-14.4,2.5s7.1,9.3,18.6,7.7c11.5-1.7,10.3-4.8,16.9-7.3
						c6.5-2.5,16.1-3.3,15.5-7.6s-6.9-10-7.8-10.7c-0.8-0.7-8.8,2.5-8.8,2.5l-5.4,7.5L1474.8,745.7z"/>
					<path class="st52" d="M1493.1,726.6l10.1-1l0.4,4.6c0,0-6.4,0.9-9.1,7s-9.9,10.7-16.3,10.3s-5.3-1-5.3-1s6.9-3.5,9.5-6.5
						s4.6-11.7,9.7-12.5"/>
					<path class="st53" d="M1376.3,661.5c0,0-14.9-8.3-14.1-3.9c0.8,4.4,2.4,11.5,13.5,14.8c11.1,3.4,11.4,0,18.4,0.6
						c7,0.5,16,3.9,17.3-0.2c1.3-4.1-2-12-2.5-13c-0.4-1-9-1.5-9-1.5l-8.1,4.5L1376.3,661.5z"/>
					<path class="st52" d="M1400.9,652l9.6,3.4l-1.6,4.3c0,0-6.1-1.9-11.2,2.5c-5,4.4-13.5,5.5-19.2,2.4c-5.6-3.1-4.4-3.2-4.4-3.2
						s7.7-0.3,11.4-1.8c3.6-1.6,9.1-8.6,14.1-7.2"/>
					<path class="st37" d="M1397.5,652.2l13.6,4.6c0,0,50.7-56.3,52.4-65.3c0,0,125.6,11.3,127.2-17.2c1.7-28.5-30.2-33.5-62.6-35.5
						c-32.5-2-67.6,2-67.6,2s-5.6,3.3-10.9,12.3C1444.2,562.1,1397.5,652.2,1397.5,652.2z"/>
					<g>
						<path class="st54" d="M1474.7,579.6c-16.2,7-8.8,22.9-8.8,22.9c13.4,45.6,22.3,128,22.3,128l16.7-3.3c0,0,2.2-64.5,6.7-86.8
							s-8.9-36.7-8.9-36.7l47.9-11.1C1550.5,592.5,1495.9,577.8,1474.7,579.6z"/>
					</g>
					<g>
						<path class="st52" d="M1590.7,447.7l-22.9-12.9c-0.2,3.9-1.1,8.1-3.8,11.2c-0.2,0.2-0.3,0.3-0.5,0.5
							C1566.4,448.9,1575.6,455.1,1590.7,447.7z"/>
						
							<linearGradient id="SVGID_40_" gradientUnits="userSpaceOnUse" x1="1566.5" y1="596.45" x2="1591.3693" y2="596.45" gradientTransform="matrix(1 0 0 -1 0 1032)">
							<stop  offset="0" style="stop-color:#5088D8;stop-opacity:0"/>
							<stop  offset="0.7478" style="stop-color:#0044B2;stop-opacity:0.5"/>
						</linearGradient>
						<path class="st55" d="M1591.4,447.3c-0.5-0.4-0.9-0.9-1.4-1.4c-6.8-7.7-2.6-22.4-2.6-22.4h-5.9h-4.3h-10.7
							c0,0,1.5,5.3,1.3,11.2l22.9,12.9C1590.9,447.5,1591.1,447.4,1591.4,447.3z"/>
					</g>
					<g>
						<path class="st52" d="M1576.9,435.9c14.9,0,26.9-15.4,26.9-34.3s-12-34.3-26.9-34.3l0,0c-14.9,0-26.9,15.4-26.9,34.3
							S1562.1,435.9,1576.9,435.9L1576.9,435.9z"/>
					</g>
					<polygon class="st56" points="1575,525.8 1575.2,521.8 1610.7,526 					"/>
					<path class="st57" d="M1577.8,524.9c0,0-27.4-5.4-33.3,8.4l0.7,3.2l17.5,1.1c0,0,4-1.3,5.2-0.7c1.2,0.7,3.3,2.1,6.4,0.9
						c3.1-1.2,5.2-2.8,5.2-2.8L1577.8,524.9z"/>
					<polygon class="st58" points="1440.7,479.2 1469.2,537.8 1554,537.8 1528.4,479.1 					"/>
					<path class="st58" d="M1566.3,538.9c0,0.7-0.6,1.3-1.3,1.3h-95.4c-0.7,0-1.3-0.6-1.3-1.4l0,0c0-0.7,0.6-1.3,1.3-1.3h95.4
						c0.7,0,1,0,1,0.7L1566.3,538.9z"/>
					<ellipse class="st59" cx="1495.5" cy="512.2" rx="9.9" ry="2.5"/>
					<path class="st60" d="M1575.6,522.6l-0.1,2.9l-0.1,13.2c0,0,16.7,4.2,29.9,7.5l2.1-20.3L1575.6,522.6z"/>
				</g>
			</g>
			
				<linearGradient id="SVGID_41_" gradientUnits="userSpaceOnUse" x1="1688.3369" y1="257.131" x2="1790.6993" y2="257.131" gradientTransform="matrix(0.4514 -0.8923 -0.8923 -0.4514 1024.8516 2262.1467)">
				<stop  offset="0" style="stop-color:#478DFF"/>
				<stop  offset="1" style="stop-color:#00157E"/>
			</linearGradient>
			<path class="st61" d="M1544.6,622.3c0,0,5.9-56.6,60.7-67c54.9-10.6-44.5,85.8-44.5,85.8"/>
			
				<linearGradient id="SVGID_42_" gradientUnits="userSpaceOnUse" x1="1079.545" y1="278.5341" x2="1081.1095" y2="279.1345" gradientTransform="matrix(16.882 -33.3731 25.0321 12.6626 -23630.1504 33106.6484)">
				<stop  offset="0" style="stop-color:#F2F4F7;stop-opacity:0"/>
				<stop  offset="9.680000e-02" style="stop-color:#ECF0F5;stop-opacity:3.900000e-02"/>
				<stop  offset="0.2259" style="stop-color:#DBE3F0;stop-opacity:9.000000e-02"/>
				<stop  offset="0.3732" style="stop-color:#BFCFE9;stop-opacity:0.149"/>
				<stop  offset="0.5341" style="stop-color:#99B3DD;stop-opacity:0.214"/>
				<stop  offset="0.706" style="stop-color:#678FCF;stop-opacity:0.282"/>
				<stop  offset="0.8843" style="stop-color:#2B63BE;stop-opacity:0.354"/>
				<stop  offset="1" style="stop-color:#0044B2;stop-opacity:0.4"/>
			</linearGradient>
			<path class="st62" d="M1599.5,557c0,0-12.5,28.1,1.1,40.4l-33.7-2.1c0,0-3.2-18.9,12.8-29.6C1589.8,558.8,1599.5,557,1599.5,557z
				"/>
			<g>
				<path id="XMLID_234_" class="st60" d="M1082.5,483.5c0,0,1,3.8,2.6,9.9c27.8-2.3,55.5-4.9,83.4-6.2c2.1-0.1,4.2-0.2,6.3-0.3
					c0.1-0.3,0.1-0.6,0.2-0.8l-2-37.7c0,0-12.5-7.7-16.8-11.2l1.4-27.3l-35.8-15.8l-6.3,39.1c0,0-18.9,5.7-31.2,12.2
					C1084.1,445.5,1087.9,473.1,1082.5,483.5z"/>
				
					<linearGradient id="XMLID_2_" gradientUnits="userSpaceOnUse" x1="1084.2" y1="594.85" x2="1174.7" y2="594.85" gradientTransform="matrix(1 0 0 -1 0 1032)">
					<stop  offset="0" style="stop-color:#5088D8;stop-opacity:0"/>
					<stop  offset="0.7478" style="stop-color:#0044B2;stop-opacity:0.5"/>
				</linearGradient>
				<path id="XMLID_233_" class="st63" d="M1172.9,448.4c0,0-10.9-5.8-16.8-10.1l1.4-28.3l-35.8-15.8l-1.5,9.4l1.9,20.1l14.7,19.5
					c0,0,1.3,0.7,1.1,1.8c0.1-0.9-13.8-8.7-22.2-13.4l-0.3,1.7c0,0-18.9,5.7-31.2,12.2c0,0,2.4,17.2,0.7,29.6l89.8,5L1172.9,448.4z"
					/>
				<path id="XMLID_232_" class="st52" d="M1176.5,358.7c1.6,4.5,2.8,17.2,1.3,18.9c-1.6,1.7-1.6,6.2-2,7.6s0.8,11.2,0.7,16.2
					c-0.2,5-6.2,23.6-7.9,25.7c-5.5,6.8-34.7,7.3-42.9-6.4c-0.8-1.3-6.9-17.9-9.3-25.8c-2.9-9.6-1.9-32.6,1.4-39.9
					C1124.3,340.7,1168.6,335.8,1176.5,358.7z"/>
				<path id="XMLID_231_" class="st37" d="M1178.4,365.7c-4.5,1.3-6.7-2.3-13.8-0.6c-9.6,2.3-32.9,0.8-35.3,4.1
					c-3.7,4.9-3.1,10.1-3.1,10.1l0.4,11.5l-0.9,1.5c-1.4,2.4-5.3,1.7-5.6-1c0-0.1,0-0.1,0-0.2c-0.1-0.5-0.2-1-0.3-1.5
					c-2-6.5-10.8-11-10.8-11s-2.5-8.1,0.8-19.4c10.3-34.5,54.7-19.6,61.5-13.8c5.6,4.8,6.9,13.4,6.9,17.6l0,0
					C1178,364.7,1178.4,365.7,1178.4,365.7z"/>
				<path id="XMLID_230_" class="st37" d="M1120,391.2c0,0,1.5-10.1-9.5-11.9s-10.3,14.6,0.9,20.8c6.5,3.6,8.7,5.2,8.7,5.2
					L1120,391.2z"/>
				<path id="XMLID_215_" class="st37" d="M1170.2,441.7c0,0,14.7,18.1,22.2,36.2c7.5,18.2,15.1,47.1,17.1,51.1c0,0,3.4,3.5,3.9,5.3
					c0,0,40.2,7.5,55.9,8.8c15.7,1.3,20.1,0,20.1,0s-2.5,11.9,0,19.9c0,0-13.9,1-29.9,0c-16.1-1-45.9-4.4-56.3-4.9
					c-10.4-0.4-12.4-6.6-15.4-12.8c-2.9-6.2-12.6-40.2-18.8-49.9c-6.2-9.7-15.4-26.5-12.3-35.8S1170.2,441.7,1170.2,441.7z"/>
				<path id="XMLID_214_" class="st64" d="M1243.6,556.9c-19.8-3.2-24.7-4.8-28.1-5.1c-3.3-0.3-2.6-4,0-10.2s-8.8,5.9-8.6,0
					c0.3-5.9,3.8-6.3,0-4.8s-6.5,11.4-7.1,7.1c-0.6-4.3-2.4-4.3-5.3-11c-3-6.7-4.4-25.8-12.4-44.7c-7.1-16.6-8.6-21.2-18.2-40.2
					c-2.8,3.2-5.8,7.4-7.2,11.6c-3.1,9.3,6.1,26.1,12.3,35.8c6.2,9.7,15.9,43.7,18.8,49.9s5,12.4,15.4,12.8
					c10.4,0.4,40.2,3.9,56.3,4.9c3.5,0.2,6.9,0.3,10.1,0.4l13.9-2.8C1283.5,560.6,1263.4,560.1,1243.6,556.9z"/>
				<path id="XMLID_213_" class="st65" d="M1207,577.6c0,0-15.2,12.8-47,20.8s-55.2-1.8-55.2-1.8c-0.6-19.4-27.8-106.5-31.7-114
					c-3.9-7.5-4.9-29.8-4.9-29.8c3.9-3.8,29.5-13.3,37.9-17.5l2,0.3l34.5,5.5l16.2-1.9c0.3,0.1,0.6,0.1,0.9,0.2
					c6.2,1.2,8.4,0.7,10.6,2.3c6.6,4.7,6.3,11.1,8.7,29.4c1.9,14.9,6.5,38.4,9.4,54.8C1191.3,542.2,1207,577.6,1207,577.6z"/>
				<g id="XMLID_212_" class="st66">
					<path class="st37" d="M1096.6,511.8l-1.4-0.5c7.6-16.2,10.3-34,8-51.5l1.5-0.2C1107.1,477.4,1104.2,495.4,1096.6,511.8z"/>
				</g>
				<g id="XMLID_211_" class="st66">
					<path class="st37" d="M1103.5,493l-1.5-0.1c0.6-5.6,2.3-11.4,4-17c0.6-1.9,1.1-3.8,1.6-5.6l1.4,0.3c-0.5,1.9-1.1,3.7-1.7,5.6
						C1105.8,481.8,1104.1,487.5,1103.5,493z"/>
				</g>
				<path id="XMLID_210_" class="st67" d="M1195.2,548.5c-3.9-0.5-7.9-0.5-11.8-0.8c-16.8-1.2-35.5-2.4-52.3-3.5
					c-16-1-18.8-13.5-18.3-19.2c1.9-25.2-4.6-35.1-4.8-52.9c-10.3,7.5-9.1,44.4-19.3,51.9c9.2,28,15.7,57.6,16.2,72.6
					c0,0,23.5,9.7,55.2,1.8s47-20.8,47-20.8S1200.6,563.2,1195.2,548.5z"/>
				<path id="XMLID_209_" class="st64" d="M1160.3,440.3c0,0-2.2,7.9-4.7,8.9s-8.3,0-8.3,0s-5.7,2.7-7.7,2.2
					c-2.1-0.5-31.6-15.8-31.6-15.8h0.1l34.5,5.5l16.2-1.9c0.3,0.1,0.6,0.1,0.9,0.2L1160.3,440.3z"/>
				<path id="XMLID_208_" class="st54" d="M1115.3,430.6c0,0,20.1,8,31.6,9.2c0,0-0.9,8.5-7.4,11.6c0,0-25.6-8.2-33.5-16.1
					L1115.3,430.6z"/>
				<path id="XMLID_204_" class="st54" d="M1146.9,439.8c0,0,5-0.8,9.7-5l3.7,6.3c0,0-0.7,5.2-4.7,8.1
					C1155.6,449.2,1148.4,446.6,1146.9,439.8z"/>
				<g id="XMLID_177_">
					<path id="XMLID_189_" class="st67" d="M1178.5,547.4c1.9,7.2,6.4,13.7,10.7,12.8c4.2-0.9,5.4-13.3,4.6-15.7
						C1192.9,542,1178.5,547.4,1178.5,547.4z"/>
					<path id="XMLID_188_" class="st64" d="M1209.6,533c3.6-0.4,7.5,1.8,10.5,2.3c2.9,0.5,5.3,0.4,5.3,1.1c0,0.7-0.3,3.9-3.7,4.3
						c-3.4,0.4-9.7-2.2-9.7-2.2L1209.6,533z"/>
					<g id="XMLID_178_">
						<g>
							
								<linearGradient id="XMLID_3_" gradientUnits="userSpaceOnUse" x1="1185.5972" y1="490.5167" x2="1232.756" y2="490.5167" gradientTransform="matrix(1 0 0 -1 0 1032)">
								<stop  offset="0" style="stop-color:#478DFF"/>
								<stop  offset="1" style="stop-color:#00157E"/>
							</linearGradient>
							<path id="XMLID_179_" class="st68" d="M1186.6,539.9c4.3-2.4,11.6-5.3,13.7-6.9c2.1-1.6,5.4-2.2,9.3-1
								c3.9,1.1,9.6,3.5,12,5.6c1.9,1.7,6.2,4.6,7.8,6.9c1.4,2.1,3.1,3.9,3.3,4.7c0.4,1.7-2,2.7-3.4,1.9c-0.7-0.4-3.1-2.2-5-4.1
								c-1.4-1.4-6.4-3.9-6.8-4.2c0,0,0.5,2.2-1.9,2.9c-2.3,0.7-3.1-0.3-3.1-0.3s0.2,1.7-1.8,2.4c-1.9,0.7-4-0.5-4-0.5
								s-0.1,2.6-2.9,3.1s-4.9,0-8.6,0.8c-3.7,0.9-9.7,0-9.7,0L1186.6,539.9z"/>
						</g>
						<g>
							<defs>
								<path id="SVGID_43_" d="M1186.6,539.9c4.3-2.4,11.6-5.3,13.7-6.9c2.1-1.6,5.4-2.2,9.3-1c3.9,1.1,9.6,3.5,12,5.6
									c1.9,1.7,6.2,4.6,7.8,6.9c1.4,2.1,3.1,3.9,3.3,4.7c0.4,1.7-2,2.7-3.4,1.9c-0.7-0.4-3.1-2.2-5-4.1c-1.4-1.4-6.4-3.9-6.8-4.2
									c0,0,0.5,2.2-1.9,2.9c-2.3,0.7-3.1-0.3-3.1-0.3s0.2,1.7-1.8,2.4c-1.9,0.7-4-0.5-4-0.5s-0.1,2.6-2.9,3.1s-4.9,0-8.6,0.8
									c-3.7,0.9-9.7,0-9.7,0L1186.6,539.9z"/>
							</defs>
							<clipPath id="SVGID_44_">
								<use xlink:href="#SVGID_43_"  style="overflow:visible;"/>
							</clipPath>
							<path id="XMLID_187_" class="st69" d="M1186.6,539.9c4.3-2.4,11.6-5.3,13.7-6.9c2.1-1.6,5.4-2.2,9.3-1
								c3.9,1.1,9.6,3.5,12,5.6c1.9,1.7,6.2,4.6,7.8,6.9c1.4,2.1,3.1,3.9,3.3,4.7c0.4,1.7-2,2.7-3.4,1.9c-0.7-0.4-3.1-2.2-5-4.1
								c-1.4-1.4-6.4-3.9-6.8-4.2c0,0,0.5,2.2-1.9,2.9c-2.3,0.7-3.1-0.3-3.1-0.3s0.2,1.7-1.8,2.4c-1.9,0.7-4-0.5-4-0.5
								s-0.1,2.6-2.9,3.1s-4.9,0-8.6,0.8c-3.7,0.9-9.7,0-9.7,0L1186.6,539.9z"/>
						</g>
						<g>
							<defs>
								<path id="SVGID_45_" d="M1186.6,539.9c4.3-2.4,11.6-5.3,13.7-6.9c2.1-1.6,5.4-2.2,9.3-1c3.9,1.1,9.6,3.5,12,5.6
									c1.9,1.7,6.2,4.6,7.8,6.9c1.4,2.1,3.1,3.9,3.3,4.7c0.4,1.7-2,2.7-3.4,1.9c-0.7-0.4-3.1-2.2-5-4.1c-1.4-1.4-6.4-3.9-6.8-4.2
									c0,0,0.5,2.2-1.9,2.9c-2.3,0.7-3.1-0.3-3.1-0.3s0.2,1.7-1.8,2.4c-1.9,0.7-4-0.5-4-0.5s-0.1,2.6-2.9,3.1s-4.9,0-8.6,0.8
									c-3.7,0.9-9.7,0-9.7,0L1186.6,539.9z"/>
							</defs>
							<clipPath id="SVGID_46_">
								<use xlink:href="#SVGID_45_"  style="overflow:visible;"/>
							</clipPath>
							
								<linearGradient id="XMLID_4_" gradientUnits="userSpaceOnUse" x1="1212.7466" y1="489.25" x2="1220.8103" y2="489.25" gradientTransform="matrix(1 0 0 -1 0 1032)">
								<stop  offset="0" style="stop-color:#478DFF"/>
								<stop  offset="1" style="stop-color:#00157E"/>
							</linearGradient>
							<path id="XMLID_186_" class="st70" d="M1220.8,546c-1.1-1.8-4.5-4.7-8.1-6.5"/>
						</g>
						<g>
							<defs>
								<path id="SVGID_47_" d="M1186.6,539.9c4.3-2.4,11.6-5.3,13.7-6.9c2.1-1.6,5.4-2.2,9.3-1c3.9,1.1,9.6,3.5,12,5.6
									c1.9,1.7,6.2,4.6,7.8,6.9c1.4,2.1,3.1,3.9,3.3,4.7c0.4,1.7-2,2.7-3.4,1.9c-0.7-0.4-3.1-2.2-5-4.1c-1.4-1.4-6.4-3.9-6.8-4.2
									c0,0,0.5,2.2-1.9,2.9c-2.3,0.7-3.1-0.3-3.1-0.3s0.2,1.7-1.8,2.4c-1.9,0.7-4-0.5-4-0.5s-0.1,2.6-2.9,3.1s-4.9,0-8.6,0.8
									c-3.7,0.9-9.7,0-9.7,0L1186.6,539.9z"/>
							</defs>
							<clipPath id="SVGID_48_">
								<use xlink:href="#SVGID_47_"  style="overflow:visible;"/>
							</clipPath>
							
								<linearGradient id="XMLID_5_" gradientUnits="userSpaceOnUse" x1="1208.3313" y1="485.25" x2="1216.3949" y2="485.25" gradientTransform="matrix(1 0 0 -1 0 1032)">
								<stop  offset="0" style="stop-color:#478DFF"/>
								<stop  offset="1" style="stop-color:#00157E"/>
							</linearGradient>
							<path id="XMLID_185_" class="st71" d="M1216.4,550c-1.1-1.8-4.5-4.7-8.1-6.5"/>
						</g>
						<g>
							<defs>
								<path id="SVGID_49_" d="M1186.6,539.9c4.3-2.4,11.6-5.3,13.7-6.9c2.1-1.6,5.4-2.2,9.3-1c3.9,1.1,9.6,3.5,12,5.6
									c1.9,1.7,6.2,4.6,7.8,6.9c1.4,2.1,3.1,3.9,3.3,4.7c0.4,1.7-2,2.7-3.4,1.9c-0.7-0.4-3.1-2.2-5-4.1c-1.4-1.4-6.4-3.9-6.8-4.2
									c0,0,0.5,2.2-1.9,2.9c-2.3,0.7-3.1-0.3-3.1-0.3s0.2,1.7-1.8,2.4c-1.9,0.7-4-0.5-4-0.5s-0.1,2.6-2.9,3.1s-4.9,0-8.6,0.8
									c-3.7,0.9-9.7,0-9.7,0L1186.6,539.9z"/>
							</defs>
							<clipPath id="SVGID_50_">
								<use xlink:href="#SVGID_49_"  style="overflow:visible;"/>
							</clipPath>
							
								<linearGradient id="XMLID_6_" gradientUnits="userSpaceOnUse" x1="1204.9144" y1="481.9" x2="1211.9795" y2="481.9" gradientTransform="matrix(1 0 0 -1 0 1032)">
								<stop  offset="0" style="stop-color:#478DFF"/>
								<stop  offset="1" style="stop-color:#00157E"/>
							</linearGradient>
							<path id="XMLID_184_" class="st72" d="M1212,552.6c-1.1-1.8-3.5-3.3-7.1-5"/>
						</g>
					</g>
				</g>
				<g id="XMLID_173_">
					<path id="XMLID_176_" class="st54" d="M1067.6,452.8c2.9-6.1,39.1,22.8,37,33.7c-2.7,14.9-3.9,31.9-6.2,51.5
						c-0.6,4.9-0.6,14.8-0.6,14.8c0.9,0.9,1.4-0.6,2.6-0.1c1.8,0.7,1.9,1.2,3.9,0.5c6.5-2,26.8-5.7,41.6-7.8
						c30.4-4.2,34.1-6.2,41.4-6.9c0,0-3,12.3,1.7,21.6c0,0-43.6,15.5-96.2,24.1c-27.5,4.5-26.6-7.5-29.2-18
						c-2.6-10.4-4-43.1-1.6-65.9C1064.4,477.7,1063.6,461.1,1067.6,452.8z"/>
					<path id="XMLID_175_" class="st64" d="M1186.7,550.4c-3.9,2.3-6.4,3.8-8.5,6.5c-3.1,4.2-14.9,8.6-34,13.4
						c-14.7,3.6-38.2,10.5-48.3,13.5c51.3-8.7,93.3-23.6,93.3-23.6C1187.6,557.1,1186.9,553.6,1186.7,550.4z"/>
					<path id="XMLID_174_" class="st64" d="M1104.4,553.2c-2.1,0.6-2.2,0.2-3.9-0.5c-1.3-0.5-1.7,0.9-2.6,0.1c0,0,0-9.9,0.6-14.8
						c0.8-6.7,1.5-13.2,2.1-19.3c-2.2,3.5-10.5,29.6-11.9,33.1c-2.1,5.4-10.3,11.6-6.2,11.1c4.1-0.5,11.2-5.5,11.2-3.8
						s0.8,5,5.3,1.5C1103.5,557,1108.5,552,1104.4,553.2z"/>
				</g>
				<path id="XMLID_172_" class="st73" d="M1369.8,681.4l9.9,16.9c0,0-9.2,6.3-21.3,9.6l-9.9-18.8L1369.8,681.4z"/>
				<path id="XMLID_171_" class="st74" d="M1373.3,690.8c0.5-0.2,1.1-0.4,1.6-0.7l-5.2-8.8l-21.3,7.7l5.2,9.8
					C1360.1,696.7,1367.3,693.3,1373.3,690.8z"/>
				<path id="XMLID_170_" class="st54" d="M1369.2,683.8c0,0-15.6,12.3-34.4,14.9c0,0-44.4-80.8-52.3-92.8c0,0-3.9,0.3-5.4-2.3
					c0,0-0.7,3.6-5.9,3c-5.2-0.7-10.7,1.3-10.7,1.3s-114.4,2.2-128.6,3.5s-28.3-24.8-28.3-24.8c8.9-1.7,31.1-6.7,51.3-11.1
					c10.8-2.3,20.9-4.5,28.2-5.9c21-4.1,86-17.2,102.5-14.9c16.6,2.3,29.7,10.7,35.8,22c1.8,3.4,7,14.8,13.3,28.8
					C1349,637.6,1369.2,683.8,1369.2,683.8z"/>
				<path id="XMLID_169_" class="st75" d="M1339.1,606.2c-10.8-9.9-27.5-30.8-35.3-32.2s-52.9-3.6-81-3.5c-24.4,0.1-45.7,3-63.6,5.7
					c10.8-2.3,20.9-4.5,28.2-5.9c21-4.1,86-17.2,102.5-14.9c16.6,2.3,29.7,10.7,35.8,22C1327.6,580.8,1332.8,592.1,1339.1,606.2z"/>
				<path id="XMLID_168_" class="st52" d="M1376.5,692.8c0,0,7.4,1.9,21.4,0c0,0-11.8,15.7-19.6,18.7c-7.9,3-14.2,7.1-14.2,7.1
					l-9.4-17.7L1376.5,692.8z"/>
				<path id="XMLID_167_" class="st37" d="M1441.9,692.4c-2-1.1-2.5-5.6-5.2-5.8c-6.7-0.5-13.7,1.4-24,3.2
					c-6.2,1.1-20.7,2.6-26.9,3.3c-7.9,10.8-14.5,11.8-27.7,17.2l9.5,22.9l14.3-6.3l-0.9-5.1l13.2-0.5
					C1408.6,714.6,1441.9,692.4,1441.9,692.4z"/>
				<g id="XMLID_125_">
					<g id="XMLID_161_">
						<path id="XMLID_164_" class="st28" d="M1257.1,560.8h89.7c1.3,0,2.7-1,3.1-2.1l21.6-70.3c0.4-1.2-0.4-2.1-1.7-2.1h-89.7
							c-1.3,0-2.7,1-3.1,2.1l-21.6,70.3C1255.1,559.9,1255.8,560.8,1257.1,560.8z"/>
					</g>
					<path id="XMLID_160_" class="st76" d="M1311.4,530h9.2c1.5,0,3.1-1.1,3.6-2.5l1.7-4.9c0.5-1.4-0.4-2.5-1.9-2.5h-9.2
						c-1.5,0-3.1,1.1-3.6,2.5l-1.7,4.9C1309.1,528.9,1309.9,530,1311.4,530z"/>
				</g>
				<g id="XMLID_112_">
					<g id="XMLID_118_">
						<path id="XMLID_122_" class="st73" d="M1326.8,722.5l1.8,19.1c0,0-11.2,2.5-23.8,1.3l-0.9-20.8L1326.8,722.5z"/>
						<path id="XMLID_121_" class="st52" d="M1328,735.4c0,0,6,4.3,19.7,7.6c0,0-17.6,10.3-26.2,10.2c-8.5,0-16.1,1.5-16.1,1.5
							l-1-19.6L1328,735.4z"/>
						<path id="XMLID_120_" class="st37" d="M1390.3,763.5c0.3-2,0.4-7.4-2-8.6c-5.5-2.8-10-2.9-24.3-7.6c-6.2-2-20.5-7.2-26.7-9.1
							c-12.7,6.9-19.3,5.3-34.3,5.1l-1,25.2l15-0.3l0.1-5.7l14.1,5.5C1348.1,767.1,1390.3,763.5,1390.3,763.5z"/>
						<path id="XMLID_119_" class="st74" d="M1312.2,740.3c5.3-1.1,10.7-2.7,15.9-4.5l-1.2-13.3l-23-0.5l0.9,19.5
							C1307.1,741.3,1309.6,740.9,1312.2,740.3z"/>
					</g>
					<path id="XMLID_117_" class="st37" d="M1204.1,609.8c0,0,24.7-7.9,39.1-11c14.3-3.1,38.2-13,43.2-12.5c5,0.6,18,0.1,22,18.2
						c4.1,18.1,21.4,125.1,21.4,125.1s-23.6,11.2-37.4,8.8L1260.5,612L1204.1,609.8z"/>
				</g>
			</g>
			
				<linearGradient id="SVGID_51_" gradientUnits="userSpaceOnUse" x1="1082.5" y1="424.0581" x2="1158.9597" y2="424.0581" gradientTransform="matrix(1 0 0 -1 0 1032)">
				<stop  offset="0" style="stop-color:#478DFF"/>
				<stop  offset="1" style="stop-color:#00157E"/>
			</linearGradient>
			<path class="st77" d="M1082.5,586.9c0,0,57.4-5,74.2,26.7c16.6,31.7-63.7,5.5-63.7,5.5"/>
			<g id="Group-7_2_" transform="translate(97.000000, 163.000000)" class="st78">
				<g id="Shape_10_">
					<path class="st57" d="M913.3,217h-1.6c0-22.2-18.1-40.3-40.2-40.3c-17.6,0-33,11.2-38.4,27.9l-1.5-0.5
						c5.6-17.3,21.6-29,39.9-29C894.5,175.1,913.3,193.9,913.3,217z"/>
				</g>
				<g id="Shape_9_">
					<path class="st57" d="M913.3,216.7h-1.6c0-22.2-18.1-40.3-40.2-40.3c-17.6,0-33,11.2-38.4,27.9l-1.5-0.5
						c5.6-17.3,21.6-29,39.9-29C894.5,174.8,913.3,193.6,913.3,216.7z"/>
				</g>
				<g id="Oval_1_">
					<ellipse class="st57" cx="976" cy="230.9" rx="3.3" ry="3.3"/>
				</g>
				<g id="Shape_8_">
					<path class="st57" d="M834.3,227.3l-1.2-1c2.2-2.6,3.5-6,3.5-9.6c0-8.2-6.7-14.9-14.8-14.9c-8.2,0-14.8,6.7-14.8,14.9v0.8
						h-38.4v-1.6h36.9c0.4-8.7,7.6-15.7,16.4-15.7c9,0,16.4,7.4,16.4,16.4C838.2,220.6,836.8,224.4,834.3,227.3z"/>
				</g>
				<g id="Shape_7_">
					<rect x="898.9" y="217.4" class="st57" width="38" height="1.6"/>
				</g>
				<g id="Shape_6_">
					<rect x="916.6" y="231" class="st57" width="48.9" height="1.6"/>
				</g>
			</g>
			<g id="Group-5_1_" transform="translate(1047.000000, 366.000000)" class="st78">
				<g id="Shape_5_">
					<path class="st57" d="M436.3-43.2h-2c0-18.1-14.7-32.9-32.8-32.9c-14.3,0-26.9,9.1-31.3,22.7l-1.9-0.6
						c4.6-14.4,18-24.1,33.2-24.1C420.7-78,436.3-62.4,436.3-43.2z"/>
				</g>
				<g id="Shape_4_">
					<path class="st57" d="M436.3-43.4h-2c0-18.1-14.7-32.9-32.8-32.9c-14.3,0-26.9,9.1-31.3,22.7l-1.9-0.6
						c4.6-14.4,18-24.1,33.2-24.1C420.7-78.3,436.3-62.6,436.3-43.4z"/>
				</g>
				<g id="Shape_3_">
					<path class="st57" d="M470.6-42.5h-17.2v-1c0-6.7-5.4-12.1-12.1-12.1c-2.5,0-4.9,0.8-6.9,2.2l-1.1-1.6c2.4-1.7,5.2-2.5,8-2.5
						c7.4,0,13.5,5.8,14,13.1h15.3L470.6-42.5L470.6-42.5z"/>
				</g>
				<g id="Shape_2_">
					<path class="st57" d="M371.2-34.5l-1.5-1.3c1.8-2.1,2.8-4.8,2.8-7.7c0-6.6-5.3-11.9-11.9-11.9s-11.9,5.3-11.9,11.9v1h-32v-2h30
						c0.5-7.2,6.5-12.9,13.8-12.9c7.6,0,13.8,6.2,13.8,13.9C374.5-40.2,373.3-37,371.2-34.5z"/>
				</g>
				<g id="Shape_1_">
					<rect x="282.9" y="-32.1" class="st57" width="59.3" height="2"/>
				</g>
			</g>
			<g class="st78">
				<path id="Fill-9_1_" class="st57" d="M844.1,752.8c0,2.9,2.4,5.3,5.3,5.3c2.9,0,5.3-2.4,5.3-5.3c0-2.9-2.4-5.3-5.3-5.3
					S844.1,749.9,844.1,752.8"/>
				<g id="Stroke-11_3_">
					<path class="st57" d="M886.9,452.1c-3.7,0-6.6-3-6.6-6.6s3-6.6,6.6-6.6s6.6,3,6.6,6.6S890.5,452.1,886.9,452.1z M886.9,441.4
						c-2.2,0-4,1.8-4,4s1.8,4,4,4s4-1.8,4-4C890.9,443.2,889.1,441.4,886.9,441.4z"/>
				</g>
				<g>
					<g id="Stroke-13_1_">
						<path class="st57" d="M1482.1,359.2c-0.7,0-1.3-0.6-1.3-1.3v-11.8c0-0.7,0.6-1.3,1.3-1.3s1.3,0.6,1.3,1.3v11.8
							C1483.4,358.6,1482.8,359.2,1482.1,359.2z"/>
					</g>
					<g id="Stroke-15_1_">
						<path class="st57" d="M1488.6,353.9h-11.8c-0.7,0-1.3-0.6-1.3-1.3s0.6-1.3,1.3-1.3h11.8c0.7,0,1.3,0.6,1.3,1.3
							S1489.3,353.9,1488.6,353.9z"/>
					</g>
				</g>
				<g id="Fill-23_1_">
					<path class="st57" d="M1119.9,443.8c0-1.9-1.5-3.4-3.4-3.4s-3.4,1.5-3.4,3.4s1.5,3.4,3.4,3.4S1119.9,445.7,1119.9,443.8"/>
				</g>
				<g id="Stroke-7_1_">
					<path class="st57" d="M1427.3,423.6c-3.7,0-6.6-3-6.6-6.6s3-6.6,6.6-6.6c3.7,0,6.6,3,6.6,6.6S1430.9,423.6,1427.3,423.6z
						 M1427.3,412.9c-2.2,0-4,1.8-4,4s1.8,4,4,4s4-1.8,4-4C1431.3,414.7,1429.5,412.9,1427.3,412.9z"/>
				</g>
				<g id="Stroke-11_2_">
					<path class="st57" d="M893.5,765.8c-3.7,0-6.6-3-6.6-6.6c0-3.7,3-6.6,6.6-6.6s6.6,3,6.6,6.6S897.1,765.8,893.5,765.8z
						 M893.5,755.1c-2.2,0-4,1.8-4,4s1.8,4,4,4s4-1.8,4-4C897.5,756.9,895.7,755.1,893.5,755.1z"/>
				</g>
				<g id="Fill-21_1_">
					<path class="st57" d="M1768,701.8c0-1.9-1.5-3.4-3.4-3.4s-3.4,1.5-3.4,3.4s1.5,3.4,3.4,3.4C1766.4,705.2,1768,703.6,1768,701.8
						"/>
				</g>
				<g>
					<g id="Stroke-1_1_">
						<path class="st57" d="M1797.3,531.9c-0.7,0-1.3-0.6-1.3-1.3v-9.2c0-0.7,0.6-1.3,1.3-1.3s1.3,0.6,1.3,1.3v9.2
							C1798.6,531.3,1798,531.9,1797.3,531.9z"/>
					</g>
					<g id="Stroke-3_1_">
						<path class="st57" d="M1802.5,528h-9.2c-0.7,0-1.3-0.6-1.3-1.3s0.6-1.3,1.3-1.3h9.2c0.7,0,1.3,0.6,1.3,1.3
							S1803.2,528,1802.5,528z"/>
					</g>
				</g>
				<g id="Stroke-27_1_">
					<path class="st57" d="M1636.1,305.7c-3.7,0-6.6-3-6.6-6.6c0-3.7,3-6.6,6.6-6.6c3.7,0,6.6,3,6.6,6.6
						C1642.7,302.8,1639.7,305.7,1636.1,305.7z M1636.1,295.1c-2.2,0-4,1.8-4,4s1.8,4,4,4s4-1.8,4-4S1638.3,295.1,1636.1,295.1z"/>
				</g>
			</g>
		</g>
		<g>
			<g>
				<g>
					<g>
						<path id="XMLID_44_" class="st31" d="M1155.5,688.9c0,0-12.2,2.7-36.6-5s-56.1-21.5-75.6-6.9s-38.1,57.1,2.5,71.6
							s0.8,30-10.6,11.3c0,0,7.3,18.7,26,13s13.3-24.4-7.1-31.7c-20.5-7.3-9.9-6.6-9.9-6.6s47.1,8.5,61,9.6l26.6-1.4"/>
					</g>
					<g>
						<defs>
							<path id="SVGID_52_" d="M1155.5,688.9c0,0-12.2,2.7-36.6-5s-56.1-21.5-75.6-6.9s-38.1,57.1,2.5,71.6s0.8,30-10.6,11.3
								c0,0,7.3,18.7,26,13s13.3-24.4-7.1-31.7c-20.5-7.3-9.9-6.6-9.9-6.6s47.1,8.5,61,9.6l26.6-1.4"/>
						</defs>
						<clipPath id="SVGID_53_">
							<use xlink:href="#SVGID_52_"  style="overflow:visible;"/>
						</clipPath>
						<path class="st79" d="M1030.9,756.1c6.4,2.6,10,5.3,16.5,7c3,0.8,5,1.1,8.5,1c0.1,0,0.2,0,0.3,0c0.1,0,0.3-0.1,0.5-0.1
							c0.5-0.1,1-0.2,1.5-0.3c-0.3,0.1,0.7-0.3,0.9-0.5c0.8-0.5,1.8-0.9,2.7-1.2c2.5-0.9,5.8,1,6.4,3.6
							c2.3,11.1-12.5,13.7-20.4,12.8c-8.6-1.1-20.3-3.5-25.7-11C1018.5,762.1,1024.8,753.6,1030.9,756.1z"/>
					</g>
					<g>
						<defs>
							<path id="SVGID_54_" d="M1155.5,688.9c0,0-12.2,2.7-36.6-5s-56.1-21.5-75.6-6.9s-38.1,57.1,2.5,71.6s0.8,30-10.6,11.3
								c0,0,7.3,18.7,26,13s13.3-24.4-7.1-31.7c-20.5-7.3-9.9-6.6-9.9-6.6s47.1,8.5,61,9.6l26.6-1.4"/>
						</defs>
						<clipPath id="SVGID_55_">
							<use xlink:href="#SVGID_54_"  style="overflow:visible;"/>
						</clipPath>
						<path class="st80" d="M1014.1,692.5c4-8,15.6-3.2,21.6-0.6c3.9,1.7,9.2,4,12.3-0.4c5.5-7.6,6.1-24.4,18.5-24.1
							c1.8,0,2.2,2.2,0.9,3.1c-4.2,3-4.2,9.9-4.9,14.5c-1,6.4-2.5,12.5-7,17.4c-5.3,5.5-13.8,6-20.6,3.9c-3.1-1-6.1-2.4-9.2-3.3
							c-3.8-1.1-7.5,0.4-10.6-3C1013.1,697.9,1012.8,695.1,1014.1,692.5z"/>
					</g>
					<g>
						<defs>
							<path id="SVGID_56_" d="M1155.5,688.9c0,0-12.2,2.7-36.6-5s-56.1-21.5-75.6-6.9s-38.1,57.1,2.5,71.6s0.8,30-10.6,11.3
								c0,0,7.3,18.7,26,13s13.3-24.4-7.1-31.7c-20.5-7.3-9.9-6.6-9.9-6.6s47.1,8.5,61,9.6l26.6-1.4"/>
						</defs>
						<clipPath id="SVGID_57_">
							<use xlink:href="#SVGID_56_"  style="overflow:visible;"/>
						</clipPath>
						<path class="st81" d="M1028.3,689c-1.8-4.3,1.1-10.2,3.4-13.7c1.6-2.4,3.3-4.9,5.3-6.9c1-1,2.2-1.9,3.3-2.8
							c0.4-0.3,2.8-2.2,1.3-0.9c2.7-2.1,6-1.6,7.9,0.2c0.1,0,0.1-0.1,0.2-0.1c4.8-3.1,12.3,2.1,10.1,7.8c-0.4,1-0.9,2.2-1.5,3.4
							c-0.3,4.3-2.8,8.9-4.7,12c-3.5,6-8.4,12.9-14.6,16.3c-2.4,1.3-5.5,1.1-7.5-1C1027.3,698.9,1026.8,693.9,1028.3,689z"/>
					</g>
					<g>
						<defs>
							<path id="SVGID_58_" d="M1155.5,688.9c0,0-12.2,2.7-36.6-5s-56.1-21.5-75.6-6.9s-38.1,57.1,2.5,71.6s0.8,30-10.6,11.3
								c0,0,7.3,18.7,26,13s13.3-24.4-7.1-31.7c-20.5-7.3-9.9-6.6-9.9-6.6s47.1,8.5,61,9.6l26.6-1.4"/>
						</defs>
						<clipPath id="SVGID_59_">
							<use xlink:href="#SVGID_58_"  style="overflow:visible;"/>
						</clipPath>
						<path class="st82" d="M1092.3,663c-0.1,0-0.1,0-0.2,0c0.4-0.6,1-1,1.7-1.3c1.6-0.9,3.7-1,5.9,0.3c6.7,4.2,21,17.5,23.6,16.8
							c1.8-0.5,2.9,1.4,2.2,2.9c-2.9,6.2-11,14.2-18.2,10.7c-7.8-3.7-9.9-14.4-15.1-20.7C1089.8,669,1090.4,665.2,1092.3,663z"/>
					</g>
					<g>
						<defs>
							<path id="SVGID_60_" d="M1155.5,688.9c0,0-12.2,2.7-36.6-5s-56.1-21.5-75.6-6.9s-38.1,57.1,2.5,71.6s0.8,30-10.6,11.3
								c0,0,7.3,18.7,26,13s13.3-24.4-7.1-31.7c-20.5-7.3-9.9-6.6-9.9-6.6s47.1,8.5,61,9.6l26.6-1.4"/>
						</defs>
						<clipPath id="SVGID_61_">
							<use xlink:href="#SVGID_60_"  style="overflow:visible;"/>
						</clipPath>
						<path class="st83" d="M1101.3,664.3c4.4,0.8,7.1,4.6,8.2,8.7c0.9,3.4,0.6,8.2-2.4,10.4c-1,0.7-2.5,0.4-3.3-0.4
							c-1.6-1.6-2-4.3-2.9-6.3c-1.1-2.4-2.9-4.3-3.9-6.7C1095.5,666.8,1097.7,663.6,1101.3,664.3z"/>
					</g>
					<g>
						<defs>
							<path id="SVGID_62_" d="M1155.5,688.9c0,0-12.2,2.7-36.6-5s-56.1-21.5-75.6-6.9s-38.1,57.1,2.5,71.6s0.8,30-10.6,11.3
								c0,0,7.3,18.7,26,13s13.3-24.4-7.1-31.7c-20.5-7.3-9.9-6.6-9.9-6.6s47.1,8.5,61,9.6l26.6-1.4"/>
						</defs>
						<clipPath id="SVGID_63_">
							<use xlink:href="#SVGID_62_"  style="overflow:visible;"/>
						</clipPath>
						<path class="st84" d="M1061.5,722.5c5.7-2.5,11-0.4,13.6,5.1c1,2.2,1.7,4.5,2.2,6.8c0.2,0.8,0.3,1.7,0.5,2.6
							c0,0.1,0.1,0.3,0.1,0.4c0.2,0.8,0.5,1.6,0.9,2.3c1.3,2.1-1.1,5.1-3.3,4.1c-1.1,0.7-2.3,1.1-3.7,1.3c-4.3,0.6-9.4-4.6-11.8-7.7
							C1056.5,733,1055,725.4,1061.5,722.5z"/>
					</g>
				</g>
				<path class="st30" d="M1186.3,669.1c0,0,17.3,5.4,20.1,23.8c2.7,18.4,6.5,40.6,22.8,39.6c16.3-1.1,32,16.5-3.8,15
					s-36.9-13.9-36.9-13.9"/>
				<g>
					<path class="st31" d="M1147.8,735.7l17.9,8.1c0,0,16.3,3.6,15.7,15.2c-0.5,10.3-27.1,4.8-26-7l-25.5-8.1"/>
					<path class="st31" d="M1186,732.5l17.9,8.1c0,0,16.3,3.6,15.7,15.2c-0.5,10.3-27.1,4.8-26-7l-25.5-8.1"/>
				</g>
				<path class="st31" d="M1166.2,660.4c15.7,1.2,26.6,7.6,33.1,34.7c6.5,27.1,14,52.5-10,53.1c-11.9,0.3-20.7,1.3-28.7-2.2
					c-12.6-5.4-17.9-23.2-21.9-34.7C1132.1,692.9,1123.4,657.2,1166.2,660.4z"/>
				<path class="st30" d="M1140.8,687.5c-5.4,12.5,3.3,9.2,10.3,37.4s-36.9,26-52.6,18.7s13-10.6,22.2-19.3s0.5-24.9,3.8-35.5
					s11.9-14.9,11.9-14.9"/>
				<g>
					<path class="st30" d="M1169.4,702.1c-1.3,1.6-2.5,2.8-3.5,3.2c-0.5,0.2-1,0.3-1.5,0.4c-0.3,0-0.5,0.1-0.8,0c-0.1,0-0.3,0-0.4,0
						l-0.5-0.1c-1.2-0.1-2.4-0.5-3.8-1c-1.4-0.6-2.8-1.4-4.6-2.5c-0.2,2.1,0.6,4.1,2,5.7c1.4,1.6,3.5,2.8,5.8,3
						c1.1,0.1,2.3,0,3.5-0.3c1.2-0.4,2.3-1.2,3.1-2.2C1170.1,706.3,1170.2,704,1169.4,702.1z"/>
					<path class="st30" d="M1197,701c-1.2,1.2-2.2,1.9-3,2c-0.4,0.1-0.6,0.1-0.9,0c-0.3,0-0.6,0-1-0.1c-0.8-0.1-1.5-0.2-2.6-0.5
						c-1-0.3-2.2-0.8-3.7-1.5c-0.4,1.7,0.1,3.3,1.1,4.7c1,1.3,2.7,2.4,4.6,2.5c0.9,0.1,1.9,0,2.9-0.3c1-0.4,1.9-1,2.5-1.9
						C1198,704.3,1197.9,702.4,1197,701z"/>
				</g>
				<path class="st30" d="M1117.2,733.4c0.7-0.8,1.3-1.7,1.5-2.8s0.1-2.3-0.5-3.3c-1.1-2.1-3.4-3.3-5.5-3.7c-2.2-0.5-4.5-0.3-6.6,0
					c-2.2,0.4-4.3,1.1-6.3,1.9l0.5-0.1c-3.9-0.3-7.7-0.4-11.6-0.6l0.6,2.4c2.5-1.7,4.8-3.7,6.8-6s3.8-4.9,4.6-7.9
					c0.4-1.5,0.6-3.1,0.4-4.7c-0.2-1.6-0.8-3.1-1.6-4.4c-1.7-2.6-4.1-4.4-6.7-5.8c2.2,1.8,4.4,3.9,5.6,6.4s1.3,5.3,0.3,7.8
					c-0.9,2.5-2.6,4.8-4.5,6.8s-4.1,3.9-6.4,5.5l-3.2,2.2l3.9,0.2c3.9,0.2,7.7,0.4,11.6,0.5h0.3l0.2-0.1c1.9-0.9,3.8-1.5,5.7-2
					c2-0.5,4-0.7,5.9-0.5s3.9,1,5,2.6c0.5,0.8,0.8,1.8,0.8,2.8C1118.1,731.5,1117.8,732.5,1117.2,733.4z"/>
				<g>
					<g>
						<path class="st85" d="M1171.6,678.8c0,0,13,33.5,17.3,35.8c4.3,2.2,17.9,9.8,17.3,21.2c-0.5,11.4-12.5,15.2-23.3,14.6
							c-10.8-0.5-29.9-1.5-31.2-11.1c-1.3-9.5,12.8-15.5,18.2-22.5C1175.4,709.7,1171.6,678.8,1171.6,678.8z"/>
						<path class="st86" d="M1166.9,732.7c0.1-0.2,0.2-0.3,0.3-0.5c0.3-0.5,1-0.6,1.5-0.2c0.5,0.5,0.3,1.1-0.2,1.5
							c-0.2,0.1-0.3,0.2-0.5,0.3C1167.4,734.3,1166.4,733.4,1166.9,732.7z"/>
						<path class="st86" d="M1169,739.7c1.2,0,1.2,1.7,0,1.7S1167.8,739.7,1169,739.7z"/>
						<path class="st86" d="M1163.1,744c0-0.1,0.1-0.3,0.1-0.4c0.2-0.7,1.1-0.7,1.3,0c0,0.1,0.1,0.3,0.1,0.4c0.2,0.5-0.3,1-0.8,1
							C1163.4,745.1,1162.9,744.6,1163.1,744z"/>
						<path class="st86" d="M1164.9,735.7c0.6,0,0.6,1.4,0,1.4C1163.7,737.1,1163.7,735.7,1164.9,735.7z"/>
						<path class="st86" d="M1158.1,739.2c0.3-0.9,1.5-0.9,1.8,0c0.1,0.2,0,0.4,0,0.6c0,0.5-0.4,0.9-0.9,0.9s-0.9-0.4-0.9-0.9
							C1158,739.5,1158,739.4,1158.1,739.2z"/>
						<path class="st86" d="M1202.5,730.9c0.6,0,0.6,1.2,0,1.2S1201.9,730.9,1202.5,730.9z"/>
						<path class="st86" d="M1202.5,735.2c1.2,0,1.2,1.6,0,1.6S1201.3,735.2,1202.5,735.2z"/>
						<path class="st86" d="M1197.2,740.9c1.8,0,1.8,1.8,0,1.8C1196,742.7,1196,740.9,1197.2,740.9z"/>
						<path class="st86" d="M1198.4,735.3c1.2,0,1.2,1.4,0,1.4C1197.2,736.7,1197.2,735.3,1198.4,735.3z"/>
					</g>
					<g>
						<path class="st30" d="M1181.9,728.7c8.1-0.2,16.8-1.8,14.1,5.9c-2.7,7.7-4.9,12-9.8,12s-10.2-4.2-12.7-7.9
							C1170.1,733.5,1171.6,729,1181.9,728.7z"/>
						<path class="st87" d="M1183.1,731.1c-0.6,0,8.2-0.8,9.5,0.4c1.2,1.2-0.6,8.2-3.9,11.1C1188.6,742.6,1195.4,730.4,1183.1,731.1
							z"/>
					</g>
				</g>
			</g>
		</g>
	</g>
</g>
</svg>
