<?xml version="1.0" encoding="utf-8"?>
<!-- Generator: Adobe Illustrator 21.1.0, SVG Export Plug-In . SVG Version: 6.00 Build 0)  -->
<svg version="1.1" id="Layer_1" xmlns="http://www.w3.org/2000/svg" xmlns:xlink="http://www.w3.org/1999/xlink" x="0px" y="0px"
	 viewBox="0 0 1644.8 760.3" style="enable-background:new 0 0 1644.8 760.3;" xml:space="preserve">
<style type="text/css">
	.st0{fill:url(#background_1_);}
	.st1{display:none;fill:url(#background_4_);}
	.st2{display:none;opacity:0.3;}
	.st3{display:inline;opacity:0.2;fill:url(#SVGID_1_);enable-background:new    ;}
	.st4{display:inline;opacity:0.3;fill:url(#SVGID_2_);enable-background:new    ;}
	.st5{display:inline;opacity:0.2;fill:url(#SVGID_3_);enable-background:new    ;}
	.st6{display:inline;opacity:0.2;fill:url(#SVGID_4_);enable-background:new    ;}
	.st7{display:inline;opacity:0.2;fill:url(#SVGID_5_);enable-background:new    ;}
	.st8{display:inline;opacity:0.2;fill:url(#SVGID_6_);enable-background:new    ;}
	.st9{display:inline;opacity:0.3;fill:url(#SVGID_7_);enable-background:new    ;}
	.st10{display:inline;opacity:0.2;fill:url(#SVGID_8_);enable-background:new    ;}
	.st11{display:inline;opacity:0.2;fill:url(#SVGID_9_);enable-background:new    ;}
	.st12{display:inline;opacity:0.2;fill:url(#SVGID_10_);enable-background:new    ;}
	.st13{display:inline;opacity:0.2;fill:url(#SVGID_11_);enable-background:new    ;}
	.st14{display:inline;opacity:0.3;fill:url(#SVGID_12_);enable-background:new    ;}
	.st15{display:inline;opacity:0.2;fill:url(#SVGID_13_);enable-background:new    ;}
	.st16{display:inline;opacity:0.2;fill:url(#SVGID_14_);enable-background:new    ;}
	.st17{display:inline;opacity:0.2;fill:url(#SVGID_15_);enable-background:new    ;}
	.st18{display:none;}
	.st19{display:inline;fill:url(#SVGID_16_);}
	.st20{display:inline;fill:url(#SVGID_17_);}
	.st21{display:inline;opacity:0.3;}
	.st22{opacity:0.2;fill:url(#SVGID_18_);enable-background:new    ;}
	.st23{opacity:0.3;fill:url(#SVGID_19_);enable-background:new    ;}
	.st24{opacity:0.3;fill:url(#SVGID_20_);enable-background:new    ;}
	.st25{opacity:0.2;fill:url(#SVGID_21_);enable-background:new    ;}
	.st26{opacity:0.2;fill:url(#SVGID_22_);enable-background:new    ;}
	.st27{display:inline;}
	.st28{fill:#EEF0F3;}
	.st29{fill:#FFFFFF;}
	.st30{fill:#D6DCE2;}
	.st31{fill:#EAB234;}
	.st32{fill:#FFCD52;}
	.st33{fill:url(#SVGID_23_);}
	.st34{fill:url(#SVGID_24_);}
	.st35{fill:url(#SVGID_25_);}
	.st36{fill:url(#SVGID_26_);}
	.st37{fill:url(#SVGID_27_);}
	.st38{fill:#82B1FF;}
	.st39{fill:url(#SVGID_28_);}
	.st40{fill:url(#SVGID_29_);}
	.st41{fill:url(#SVGID_30_);}
	.st42{fill:url(#SVGID_31_);}
	.st43{fill:url(#SVGID_32_);}
	.st44{fill:url(#SVGID_33_);}
	.st45{fill:url(#SVGID_34_);}
	.st46{fill:url(#SVGID_35_);}
	.st47{fill:url(#SVGID_36_);}
	.st48{fill:url(#SVGID_37_);}
	.st49{fill:url(#SVGID_38_);}
	.st50{fill:url(#SVGID_39_);}
	.st51{fill:#63C1D2;}
	.st52{fill:#76CED8;}
	.st53{fill:#F2F2F2;}
	.st54{fill:#A1B8E2;}
	.st55{fill:#5088D8;}
	.st56{fill:url(#SVGID_40_);}
	.st57{fill:#674E68;}
	.st58{fill:#C9D9FB;}
	.st59{fill:#CFD5E3;}
	.st60{opacity:0.19;fill:#FFFFFF;enable-background:new    ;}
	.st61{fill:#3F82EF;}
	.st62{fill:url(#SVGID_41_);}
	.st63{fill:url(#SVGID_42_);}
	.st64{fill:url(#XMLID_2_);}
	.st65{opacity:0.68;fill:#ABB1BD;enable-background:new    ;}
	.st66{fill:#F8F8F8;}
	.st67{opacity:0.2;}
	.st68{opacity:0.2;fill:#82B1FF;enable-background:new    ;}
	.st69{fill:url(#XMLID_3_);}
	.st70{clip-path:url(#SVGID_44_);fill:#F2F2F2;}
	.st71{clip-path:url(#SVGID_46_);fill:url(#XMLID_4_);}
	.st72{clip-path:url(#SVGID_48_);fill:url(#XMLID_5_);}
	.st73{clip-path:url(#SVGID_50_);fill:url(#XMLID_6_);}
	.st74{fill:#DADCDE;}
	.st75{fill:#ABB1BD;}
	.st76{opacity:0.1;fill:#FFFFFF;enable-background:new    ;}
	.st77{opacity:0.5;fill:#CFD5E3;enable-background:new    ;}
	.st78{fill:url(#SVGID_51_);}
	.st79{opacity:0.4;}
	.st80{clip-path:url(#SVGID_53_);fill:#EAB234;}
	.st81{clip-path:url(#SVGID_55_);fill:#EAB234;}
	.st82{clip-path:url(#SVGID_57_);fill:#FFCD52;}
	.st83{clip-path:url(#SVGID_59_);fill:#EAB234;}
	.st84{clip-path:url(#SVGID_61_);fill:#FFCD52;}
	.st85{clip-path:url(#SVGID_63_);fill:#EAB234;}
	.st86{fill:#FFD38E;}
	.st87{fill:#D56E19;}
	.st88{fill:#FFB642;}
	.st89{opacity:0.3;}
	.st90{opacity:0.2;fill:url(#SVGID_64_);enable-background:new    ;}
	.st91{opacity:0.3;fill:url(#SVGID_65_);enable-background:new    ;}
	.st92{opacity:0.2;fill:url(#SVGID_66_);enable-background:new    ;}
	.st93{opacity:0.2;fill:url(#SVGID_67_);enable-background:new    ;}
	.st94{opacity:0.2;fill:url(#SVGID_68_);enable-background:new    ;}
	.st95{opacity:0.2;fill:url(#SVGID_69_);enable-background:new    ;}
	.st96{opacity:0.3;fill:url(#SVGID_70_);enable-background:new    ;}
	.st97{opacity:0.2;fill:url(#SVGID_71_);enable-background:new    ;}
	.st98{opacity:0.2;fill:url(#SVGID_72_);enable-background:new    ;}
	.st99{opacity:0.2;fill:url(#SVGID_73_);enable-background:new    ;}
	.st100{opacity:0.2;fill:url(#SVGID_74_);enable-background:new    ;}
	.st101{opacity:0.3;fill:url(#SVGID_75_);enable-background:new    ;}
	.st102{opacity:0.2;fill:url(#SVGID_76_);enable-background:new    ;}
	.st103{opacity:0.2;fill:url(#SVGID_77_);enable-background:new    ;}
	.st104{opacity:0.2;fill:url(#SVGID_78_);enable-background:new    ;}
</style>
<linearGradient id="background_1_" gradientUnits="userSpaceOnUse" x1="1918.9282" y1="206.8243" x2="1918.0253" y2="207.1914" gradientTransform="matrix(-1658.5812 0 0 1220.0602 3182888.5 -252198.3594)">
	<stop  offset="0" style="stop-color:#478DFF"/>
	<stop  offset="1" style="stop-color:#00157E"/>
</linearGradient>
<path id="background_3_" class="st0" d="M1581.8,629.6c23,0.1,34.6,0.4,51-4.6c6.3-2.3,11.2-6.1,11.3-11.4
	c0.1-7.5,0.5-15.1,0.6-22.6c0.3-29.8,0.1-45.9,0.1-75.2v-13c0.3-19.5-0.2,2,0-17.5L1644,0H-2.5c0,37.1,0,24.2,0,61.2
	c0,82,0,164,0,245.9c0,83.1,0,145.5,0,228.6c0,29.3-1.3,60.1-0.9,90c0.1,7.5,0.5,15.1,0.6,22.6c0.1,5.4,5,9.1,11.3,11.4
	c16,5.8,30.1,4.2,51,4.6"/>
<linearGradient id="background_4_" gradientUnits="userSpaceOnUse" x1="1917.8168" y1="206.5239" x2="1916.6456" y2="207.0001" gradientTransform="matrix(1658.5812 0 0 1220.0602 -3179137.25 -252198.3594)">
	<stop  offset="0" style="stop-color:#478DFF"/>
	<stop  offset="1" style="stop-color:#00157E"/>
</linearGradient>
<path id="background_2_" class="st1" d="M1916.6,497.8c-0.1,0.2-0.3,0.5-0.4,0.6c-0.9,1-2.3,1.3-3.6,1.6
	c-67.6,13.8-135.6,25.5-203.9,35.2c-32.1,4.6-64.3,8.2-96.5,12.2c-40.9,4.5-82,7.5-122.9,12.7c-33.1,3.5-66.2,6.9-99.3,10.4
	c-37.4,3.9-74.9,7.9-112.3,11.8c-40.7,4.3-81.4,8.5-122.1,12.8c-42.9,4.5-85.7,9-128.6,13.5c-43.9,4.6-87.8,9.2-131.7,13.8
	s-87.8,9.2-131.6,13.8c-42.8,4.5-85.5,9-128.3,13.5c-40.5,4.3-81.1,8.5-121.6,12.8c-37.2,3.9-74.4,7.8-111.6,11.7
	c-32.8,3.4-65.6,6.9-98.4,10.3c-27.3,2.9-54.6,5.7-81.9,8.6c-28.8,3-57.6,5.9-86.4,9.3c-21.9,2.5-43.6,5.9-65.5,8.1
	c-20.3,2-40.8,2.1-59.5-7.5c-7.4-3.8-13.1-10-13.2-18.8c-0.1-12.3-0.6-24.9-0.7-37.1c-0.4-49.1,1.1-99.7,1.1-147.9
	c0-136.6,0-273.2,0-409.8c0-134.7,0-269.5,0-404.2c0-60.9,0-121.9,0-182.8h1920.6l-0.6,880c-0.2,32-0.4,64.1-0.7,96.1
	C1917.1,482.7,1918.7,494,1916.6,497.8z"/>
<g class="st2">
	
		<linearGradient id="SVGID_1_" gradientUnits="userSpaceOnUse" x1="1032" y1="1927.8" x2="1032" y2="2647.7" gradientTransform="matrix(1 0 0 -1 0 2125)">
		<stop  offset="0" style="stop-color:#FFFFFF;stop-opacity:0"/>
		<stop  offset="1" style="stop-color:#FFFFFF"/>
	</linearGradient>
	<path class="st3" d="M1140.6,197.2c38.1-76.4,76.5-161.8,118.5-262.6c71.1-170.7,176.3-329.9,308.7-457.3H737.2
		c-79.5,185-144,297.6-241,425.2C713.9,84.5,856,158.2,1140.6,197.2z"/>
	
		<linearGradient id="SVGID_2_" gradientUnits="userSpaceOnUse" x1="1569.6499" y1="1915.1035" x2="1569.6499" y2="2647.6001" gradientTransform="matrix(1 0 0 -1 0 2125)">
		<stop  offset="0" style="stop-color:#FFFFFF;stop-opacity:0"/>
		<stop  offset="1" style="stop-color:#FFFFFF"/>
	</linearGradient>
	<path class="st4" d="M1998.7-71.4v-451.2h-430.9c-132.3,127.3-237.6,286.5-308.7,457.3c-42,100.9-80.3,186.3-118.5,262.6
		c3.4,0.5,6.8,0.9,10.3,1.4C1527.2,248.5,1831.8,127.5,1998.7-71.4z"/>
	
		<linearGradient id="SVGID_3_" gradientUnits="userSpaceOnUse" x1="1542.6499" y1="1825.5" x2="1542.6499" y2="2196.3999" gradientTransform="matrix(1 0 0 -1 0 2125)">
		<stop  offset="0" style="stop-color:#FFFFFF;stop-opacity:0"/>
		<stop  offset="1" style="stop-color:#FFFFFF"/>
	</linearGradient>
	<path class="st5" d="M1998.7,299.5V-71.4c-166.9,198.9-471.5,320-847.8,270.1c-3.5-0.5-6.9-0.9-10.3-1.4
		c-17.9,35.9-35.8,69.7-54,102.2H1998.7L1998.7,299.5z"/>
	
		<linearGradient id="SVGID_4_" gradientUnits="userSpaceOnUse" x1="109.45" y1="-224.9811" x2="109.45" y2="-940.2567" gradientTransform="matrix(1 0 0 1 0 524.3811)">
		<stop  offset="0" style="stop-color:#FFFFFF;stop-opacity:0"/>
		<stop  offset="1" style="stop-color:#FFFFFF"/>
	</linearGradient>
	<path class="st6" d="M344.9-228.7C147.1-405-95.8-451.8-277.3-389.9v642.8v46.5H53.6c76.8-38.9,148.8-89.1,208.8-138.9l0,0
		c49.1-40.8,90-81.4,118.5-115.2c43.8-51.9,81.4-98.2,115.3-142.6C449.9-136.1,400.3-179.4,344.9-228.7z"/>
	
		<linearGradient id="SVGID_5_" gradientUnits="userSpaceOnUse" x1="597.05" y1="-224.9811" x2="597.05" y2="-621.7811" gradientTransform="matrix(1 0 0 1 0 524.3811)">
		<stop  offset="0" style="stop-color:#FFFFFF;stop-opacity:0"/>
		<stop  offset="1" style="stop-color:#FFFFFF"/>
	</linearGradient>
	<path class="st7" d="M496.2-97.4C462.4-52.9,424.7-6.6,380.9,45.2c-28.6,33.8-69.5,74.4-118.5,115.2l0,0
		c-59.9,49.8-132.1,100-208.8,139h532h245.1h255.8c18.2-32.5,36.1-66.4,54-102.2C856,158.2,713.9,84.5,496.2-97.4z"/>
</g>
<g class="st2">
	
		<linearGradient id="SVGID_6_" gradientUnits="userSpaceOnUse" x1="3460.8289" y1="740.2415" x2="3460.8289" y2="1351.4117" gradientTransform="matrix(-0.853 -0.522 -0.522 0.853 3418.9172 1250.1415)">
		<stop  offset="0" style="stop-color:#FFFFFF;stop-opacity:0"/>
		<stop  offset="1" style="stop-color:#FFFFFF"/>
	</linearGradient>
	<path class="st8" d="M1.8,26.9c-61.5,38.4-127.1,83.2-202.2,137.7c-127.1,92.1-273.9,160.7-426.2,194.3L-25.1,727
		C114.5,628.2,211,575.3,337.8,525.9C260.8,297.6,190.6,181.3,1.8,26.9z"/>
	
		<linearGradient id="SVGID_7_" gradientUnits="userSpaceOnUse" x1="3917.2747" y1="729.4559" x2="3917.2747" y2="1351.3464" gradientTransform="matrix(-0.853 -0.522 -0.522 0.853 3418.9172 1250.1415)">
		<stop  offset="0" style="stop-color:#FFFFFF;stop-opacity:0"/>
		<stop  offset="1" style="stop-color:#FFFFFF"/>
	</linearGradient>
	<path class="st9" d="M-738.6-158.8l-200,326.7l312,190.9c152.2-33.5,299-102.1,426.2-194.3C-125.3,110.1-59.7,65.2,1.8,26.8
		c-2.2-1.9-4.5-3.7-6.8-5.6C-255.4-181.5-529.6-228.9-738.6-158.8z"/>
	
		<linearGradient id="SVGID_8_" gradientUnits="userSpaceOnUse" x1="3894.384" y1="653.4559" x2="3894.384" y2="968.3592" gradientTransform="matrix(-0.853 -0.522 -0.522 0.853 3418.9172 1250.1415)">
		<stop  offset="0" style="stop-color:#FFFFFF;stop-opacity:0"/>
		<stop  offset="1" style="stop-color:#FFFFFF"/>
	</linearGradient>
	<path class="st10" d="M-574.3-427.4l-164.4,268.6c209-70.1,483.2-22.7,733.6,180.1c2.3,1.9,4.6,3.7,6.8,5.6
		c28.9-18,56.8-34.6,84.4-50.1L-574.3-427.4L-574.3-427.4z"/>
	
		<linearGradient id="SVGID_9_" gradientUnits="userSpaceOnUse" x1="2677.6069" y1="947.1373" x2="2677.6069" y2="339.8788" gradientTransform="matrix(-0.853 -0.522 0.522 -0.853 2583.3938 2615.4714)">
		<stop  offset="0" style="stop-color:#FFFFFF;stop-opacity:0"/>
		<stop  offset="1" style="stop-color:#FFFFFF"/>
	</linearGradient>
	<path class="st11" d="M389.2,688c65.1,215.3,220.3,356.8,379.2,392.4l284.8-465.5l20.6-33.7L834.2,434.7
		c-72.8-5.8-147.2-1.5-212.7,8l0,0c-53.6,7.8-101.2,19-136.9,30.9c-54.7,18.2-102.5,35-146.7,52.2
		C354.2,574.4,370.9,627.7,389.2,688z"/>
	
		<linearGradient id="SVGID_10_" gradientUnits="userSpaceOnUse" x1="3091.5754" y1="947.179" x2="3091.5754" y2="610.2851" gradientTransform="matrix(-0.853 -0.522 0.522 -0.853 2583.3938 2615.4714)">
		<stop  offset="0" style="stop-color:#FFFFFF;stop-opacity:0"/>
		<stop  offset="1" style="stop-color:#FFFFFF"/>
	</linearGradient>
	<path class="st12" d="M337.9,525.8c44.2-17.2,92-34.1,146.7-52.2c35.7-11.8,83.3-23.1,136.9-30.9l0,0c65.4-9.5,140-13.9,212.8-8.1
		L449,198.8L271.5,90.2L86.2-23.2C58.6-7.7,30.7,8.9,1.8,26.9C190.6,181.3,260.8,297.6,337.9,525.8z"/>
</g>
<g class="st2">
	
		<linearGradient id="SVGID_11_" gradientUnits="userSpaceOnUse" x1="1225.1875" y1="-1401.3065" x2="1225.1875" y2="-860.9259" gradientTransform="matrix(-0.522 0.853 0.853 0.522 3240.7913 -10.7991)">
		<stop  offset="0" style="stop-color:#FFFFFF;stop-opacity:0"/>
		<stop  offset="1" style="stop-color:#FFFFFF"/>
	</linearGradient>
	<path class="st13" d="M1363.4,372.3c34,54.4,73.6,112.4,121.7,178.8c81.5,112.4,142.2,242.2,171.8,376.9l325.5-531.9
		c-87.3-123.4-134.1-208.8-177.9-321C1602.8,143.3,1499.9,205.4,1363.4,372.3z"/>
	
		<linearGradient id="SVGID_12_" gradientUnits="userSpaceOnUse" x1="1628.7871" y1="-1410.7942" x2="1628.7871" y2="-860.9259" gradientTransform="matrix(-0.522 0.853 0.853 0.522 3240.7913 -10.7991)">
		<stop  offset="0" style="stop-color:#FFFFFF;stop-opacity:0"/>
		<stop  offset="1" style="stop-color:#FFFFFF"/>
	</linearGradient>
	<path class="st14" d="M1199.1,1027.1l288.9,176.8L1656.9,928c-29.7-134.6-90.3-264.4-171.8-376.9
		c-48.1-66.4-87.8-124.4-121.7-178.8c-1.6,2-3.2,4-4.9,6C1179,599.8,1137.2,842.3,1199.1,1027.1z"/>
	
		<linearGradient id="SVGID_13_" gradientUnits="userSpaceOnUse" x1="1608.6434" y1="-1478.0758" x2="1608.6434" y2="-1199.6155" gradientTransform="matrix(-0.522 0.853 0.853 0.522 3240.7913 -10.7991)">
		<stop  offset="0" style="stop-color:#FFFFFF;stop-opacity:0"/>
		<stop  offset="1" style="stop-color:#FFFFFF"/>
	</linearGradient>
	<path class="st15" d="M961.6,881.8l237.5,145.4c-62-184.8-20.1-427.3,159.3-648.8c1.7-2,3.3-4.1,4.9-6
		c-15.9-25.5-30.6-50.2-44.3-74.6L961.6,881.8L961.6,881.8z"/>
	
		<linearGradient id="SVGID_14_" gradientUnits="userSpaceOnUse" x1="532.5867" y1="3078.658" x2="532.5867" y2="2541.5852" gradientTransform="matrix(-0.522 0.853 -0.853 -0.522 4606.1211 824.7244)">
		<stop  offset="0" style="stop-color:#FFFFFF;stop-opacity:0"/>
		<stop  offset="1" style="stop-color:#FFFFFF"/>
	</linearGradient>
	<path class="st16" d="M1948,29.8c190.4-57.6,315.5-194.8,347.1-335.3l-411.6-251.9l-29.8-18.2l-129.8,211.8
		c-5.2,64.4-1.3,130.2,7.1,188.1l0,0c6.9,47.4,16.8,89.5,27.3,121.1c16.1,48.4,31,90.6,46.2,129.7
		C1847.5,60.7,1894.7,45.9,1948,29.8z"/>
	
		<linearGradient id="SVGID_15_" gradientUnits="userSpaceOnUse" x1="898.6877" y1="3078.7676" x2="898.6877" y2="2780.7759" gradientTransform="matrix(-0.522 0.853 -0.853 -0.522 4606.1211 824.7244)">
		<stop  offset="0" style="stop-color:#FFFFFF;stop-opacity:0"/>
		<stop  offset="1" style="stop-color:#FFFFFF"/>
	</linearGradient>
	<path class="st17" d="M1804.5,75.2c-15.2-39.1-30.1-81.4-46.2-129.7c-10.5-31.5-20.4-73.7-27.3-121.1l0,0
		c-8.4-57.9-12.3-123.8-7.2-188.2L1515.3-23.1l-96.1,157l-100.1,163.8c13.7,24.4,28.4,49.1,44.3,74.6
		C1499.9,205.4,1602.8,143.3,1804.5,75.2z"/>
</g>
<g class="st18">
	
		<linearGradient id="SVGID_16_" gradientUnits="userSpaceOnUse" x1="1591.8724" y1="196.4513" x2="-68.6313" y2="871.7318" gradientTransform="matrix(1 0 0 -1 0 964)">
		<stop  offset="0" style="stop-color:#478DFF"/>
		<stop  offset="1" style="stop-color:#00157E"/>
	</linearGradient>
	<path class="st19" d="M0.6,0c0,3.2,0,6.4,0,9.6c0,134.5,0,268.9,0,403.4c0,136.3,0,272.7,0,409c0,48.1-1.5,98.6-1.1,147.6
		c0.1,12.2,0.7,24.7,0.7,37c0.2,36.9,92.1,25.5,110.8,20.8l1578.6-165.6c51.8-10.4,94-19.5,137-51.9c36.3-27.4,70.7-62.8,90.2-104.4
		L1917.2,0H0.6z"/>
	
		<linearGradient id="SVGID_17_" gradientUnits="userSpaceOnUse" x1="1591.8724" y1="196.4513" x2="-68.6313" y2="871.7318" gradientTransform="matrix(1 0 0 -1 0 964)">
		<stop  offset="0" style="stop-color:#478DFF"/>
		<stop  offset="1" style="stop-color:#00157E"/>
	</linearGradient>
	<path class="st20" d="M0.6,0c0,3.2,0,6.4,0,9.6c0,134.5,0,268.9,0,403.4c0,136.3,0,272.7,0,409c0,48.1-1.5,98.6-1.1,147.6
		c0.1,12.2,0.7,24.7,0.7,37c0.2,36.9,92.1,25.5,110.8,20.8l1578.6-165.6c51.8-10.4,94-19.5,137-51.9c36.3-27.4,70.7-62.8,90.2-104.4
		L1917.2,0H0.6z"/>
	<g class="st21">
		
			<linearGradient id="SVGID_18_" gradientUnits="userSpaceOnUse" x1="1294.9" y1="441.1" x2="1294.9" y2="964" gradientTransform="matrix(1 0 0 -1 0 964)">
			<stop  offset="0" style="stop-color:#FFFFFF;stop-opacity:0"/>
			<stop  offset="1" style="stop-color:#FFFFFF"/>
		</linearGradient>
		<path class="st22" d="M826,210.7c230.7,192.8,381.2,270.9,682.8,312.2c40.4-80.9,81.1-171.4,125.6-278.3
			c35.4-85,78.8-167.3,129.4-244.6H965.2C923.4,74.6,879.3,140.5,826,210.7z"/>
		
			<linearGradient id="SVGID_19_" gradientUnits="userSpaceOnUse" x1="1716.1" y1="427.6893" x2="1716.1" y2="964" gradientTransform="matrix(1 0 0 -1 0 964)">
			<stop  offset="0" style="stop-color:#FFFFFF;stop-opacity:0"/>
			<stop  offset="1" style="stop-color:#FFFFFF"/>
		</linearGradient>
		<path class="st23" d="M1763.7,0c-50.6,77.3-94,159.6-129.4,244.6c-44.5,106.9-85.1,197.4-125.6,278.3c3.6,0.5,7.2,1,10.9,1.5
			c146,19.4,281.7,14.4,403.9-9.9V0H1763.7z"/>
		
			<linearGradient id="SVGID_20_" gradientUnits="userSpaceOnUse" x1="1915.9" y1="1017.4" x2="1915.9" y2="1017.4" gradientTransform="matrix(1 0 0 -1 0 964)">
			<stop  offset="0" style="stop-color:#FFFFFF;stop-opacity:0"/>
			<stop  offset="1" style="stop-color:#FFFFFF"/>
		</linearGradient>
		<path class="st24" d="M1915.9-53.4"/>
		
			<linearGradient id="SVGID_21_" gradientUnits="userSpaceOnUse" x1="416.1" y1="964" x2="416.1" y2="332.8" gradientTransform="matrix(1 0 0 -1 0 964)">
			<stop  offset="0" style="stop-color:#FFFFFF;stop-opacity:0"/>
			<stop  offset="1" style="stop-color:#FFFFFF"/>
		</linearGradient>
		<path class="st25" d="M573.5,0H6.3v581.9v49.3H357C438.4,590,514.7,536.8,578.2,484c52.1-43.2,95.3-86.2,125.6-122.1
			c46.4-55,86.3-104,122.1-151.1c-49.1-41.1-101.6-86.9-160.3-139.2C635.8,44.9,605,21.1,573.5,0z"/>
		
			<linearGradient id="SVGID_22_" gradientUnits="userSpaceOnUse" x1="932.95" y1="106.8189" x2="932.95" y2="-313.5811" gradientTransform="matrix(1 0 0 1 0 524.3811)">
			<stop  offset="0" style="stop-color:#FFFFFF;stop-opacity:0"/>
			<stop  offset="1" style="stop-color:#FFFFFF"/>
		</linearGradient>
		<path class="st26" d="M826,210.8c-35.9,47.1-75.8,96.2-122.1,151.1c-30.3,35.9-73.6,78.8-125.6,122.1l0,0
			c-63.5,52.8-140,105.9-221.2,147.2h563.7h259.7h271.1c19.3-34.5,38.2-70.4,57.2-108.3C1207.2,481.6,1056.6,403.5,826,210.8z"/>
	</g>
	<g id="VQPyCY.tif" class="st21">
	</g>
	<g id="j0fvnI.tif" class="st21">
	</g>
	<g class="st27">
		<g>
			<g>
				<path class="st28" d="M1672.1,518.3c0,0-6.1-20.2-22.4-29.4c-4.4-2.5-6.3-7.2-7.4-11.9c-0.9-3.9-1.3-7.9-2.9-11.6
					c-0.7-1.6-1.6-3.2-1.9-4.8c-0.3-1.7,0.4-3.4-0.5-5c-2.3-3.9-12.8-29.6,12.4-36.9c11.1-3.2,21.7,0.3,28.1,10c2,3,3.6,6.3,4.5,9.7
					c1.8,6.3-1.9,14-4.1,19.8c-2.3,6.1-4.8,11.9-3.8,18.6c1.2,7.9,5.8,14.7,8.9,21.9c2,4.6,3.7,11.3-1.2,14.3
					C1678.8,514.8,1675.4,516.5,1672.1,518.3z"/>
				<path class="st29" d="M1649.7,488.9c-10.9-6.5-5.8-17.3-10.5-24.1s0.1-5.4-2.2-9.3s-12.8-29.6,12.4-36.9
					c12.4-3.6,29.6,2.9,31.2,17.4c1,9.3-6.3,15.4-11.1,22.1c-5,6.9-5,16.7-3.7,24.8C1666.6,487.4,1660.3,493.6,1649.7,488.9z"/>
				<g>
					<path class="st30" d="M1672.5,518.9c-0.1,0.1-0.2,0.1-0.4,0.1c-0.4,0-0.6-0.3-0.6-0.7c1.2-17.2-3.3-24.9-8.4-33.8
						c-0.4-0.8-0.9-1.5-1.3-2.3c-7.7-15-8.2-27.7-7.3-35.7c1-8.7,3.8-13.8,3.9-14c0.2-0.3,0.6-0.4,0.9-0.2c0.3,0.2,0.4,0.6,0.2,0.9
						c-0.1,0.2-11,20.3,3.4,48.4c0.4,0.8,0.9,1.5,1.3,2.3c5.2,9,9.8,16.9,8.6,34.5C1672.8,518.6,1672.7,518.8,1672.5,518.9z"/>
				</g>
			</g>
			<g>
				<g>
					<path class="st31" d="M1728.4,411.1c-0.6-0.7-5.1-0.2-6-0.2c-4.3,0-8.7,0.5-12.9,1.6c-9.6,2.6-15.2,10.4-13.3,20.4
						c1.6,8.7,8.9,20.6-1.8,26.6c-4.2,2.4-8.4,2.1-9.8,7.7c-1.4,5.5,0.1,11.5,1.4,16.9c1.4,5.9,1.8,10.5,0,16.5
						c-1.3,4.1-3.9,7.7-5.2,11.7c-2.2,6.9-2,14.7-0.8,21.8c0.7,4.3,8.3,2.6,11.8,2.6l18.3-15.7l11.8-27.5l10.5-43.2l10.5-22.2
						L1728.4,411.1z"/>
					<path class="st32" d="M1699.6,536.6c0.2-6.1,4.2-11.6,9.2-15c7.8-5.3,18.3-4.4,24.7-11.7c4.1-4.7,5.6-10.8,4.5-16.8
						c-0.6-3.3-2.5-5.9-3.2-9c-1.4-5.5,3.5-10.1,7.8-12.6c3.6-2.1,8.2-1.9,11.7-4c3.4-2,5.5-6,6-9.8c0.8-5.3-0.6-10.6-1.1-15.9
						c-1.3-12.9,7.3-29.4-6.3-38.3c-15-9.7-26.9,7.2-39.8,11.7c-2.4,0.9-5,1.4-7.2,2.8c-5.9,3.6-3,10.5-1.9,16
						c1.1,5.4,2.9,12.1,0.8,17.5c-2.5,6.7-14.2,19.3-10.5,28.8c3.8,9.5,4.1,19.9-1.3,27.5c-5.4,7.6-16.2,19.4-14.4,28.8
						C1678.8,537.2,1697.9,536.6,1699.6,536.6z"/>
					<g>
						<path class="st31" d="M1685.8,538.3c0,0,3.1-5.4,5.2-9.2c0.5-0.8,1.7-2.3,3.3-4.1c5.3-6.1,14.2-16.4,13.8-26.3
							c-0.6-13.5,1.1-27.4,3.8-32.4c2.7-4.8,8-9.7,13.6-14.9c8.8-8.1,18.7-17.3,20.5-28.5c0.1-0.4-0.2-0.7-0.5-0.7
							c-0.4-0.1-0.7,0.2-0.7,0.5c-1.7,10.7-11.5,19.8-20.1,27.7c-5.7,5.2-11,10.2-13.8,15.2c-3.3,5.9-4.5,21.1-4,33
							c0.4,9.4-8.3,19.4-13.5,25.4c-1.7,2-2.9,3.4-3.5,4.3c-2.1,3.7-5.2,9.2-5.2,9.2L1685.8,538.3z"/>
					</g>
				</g>
				<g>
					<path class="st31" d="M1723.3,453.7c-0.3,0-0.6-0.2-0.6-0.6l-2.8-26.7c0-0.4,0.2-0.7,0.6-0.7c0.3,0,0.7,0.2,0.7,0.6l2.8,26.7
						C1723.9,453.4,1723.7,453.7,1723.3,453.7L1723.3,453.7z"/>
				</g>
				<g>
					<path class="st31" d="M1708,492.1c-0.2,0-0.3-0.1-0.5-0.2c-0.3-0.3-0.3-0.7,0-0.9l20.6-20.6c0.3-0.3,0.7-0.3,0.9,0
						c0.3,0.3,0.3,0.7,0,0.9l-20.6,20.6C1708.4,492,1708.2,492.1,1708,492.1z"/>
				</g>
			</g>
			
				<linearGradient id="SVGID_23_" gradientUnits="userSpaceOnUse" x1="1856.1157" y1="188.6379" x2="1855.1981" y2="189.0933" gradientTransform="matrix(21.3896 0 0 26.5036 -37986.8008 -4481.5493)">
				<stop  offset="0" style="stop-color:#FFCD52;stop-opacity:0"/>
				<stop  offset="4.334000e-02" style="stop-color:#FCC94E;stop-opacity:5.000000e-02"/>
				<stop  offset="0.2462" style="stop-color:#F2BC3F;stop-opacity:0.281"/>
				<stop  offset="0.489" style="stop-color:#ECB437;stop-opacity:0.559"/>
				<stop  offset="0.8747" style="stop-color:#EAB234"/>
			</linearGradient>
			<path class="st33" d="M1717.7,529.3c3.5,14.1-4.4,13.5-4.4,13.5l-6.5-4.2c-2.2-10.6-16.1-30.5-16.1-30.5
				S1714.7,517.3,1717.7,529.3z"/>
			
				<linearGradient id="SVGID_24_" gradientUnits="userSpaceOnUse" x1="963.1174" y1="356.5426" x2="1432.6001" y2="356.5426" gradientTransform="matrix(1 0 0 -1 0 964)">
				<stop  offset="0" style="stop-color:#478DFF"/>
				<stop  offset="1" style="stop-color:#00157E"/>
			</linearGradient>
			<path class="st34" d="M1063.8,514.5c0,0-34.7,7.5-36.2,47.2c0,0-46.4-20.4-63.1,14.9c-10.5,22.2,42,52.7,49.6,95.2
				c0,0,134.2,26,214.7,28.5c98.6,3,203.8-53.8,203.8-53.8l-5.5-80.2"/>
			
				<linearGradient id="SVGID_25_" gradientUnits="userSpaceOnUse" x1="1187.9" y1="470.5329" x2="1591.8547" y2="470.5329" gradientTransform="matrix(1 0 0 -1 0 964)">
				<stop  offset="0" style="stop-color:#478DFF"/>
				<stop  offset="1" style="stop-color:#00157E"/>
			</linearGradient>
			<path class="st35" d="M1187.9,564.8c0,0,81.1-76.9,120.9-64.4c0,0-14.3-94.3,56.4-45.8c44.1,30.2,64.5-4.4,64.5-4.4
				s15.6-26.9,54.4-28c113.7-3,107.7,97.7,107.7,97.7l-74.7,43.2L1187.9,564.8L1187.9,564.8z"/>
			
				<linearGradient id="SVGID_26_" gradientUnits="userSpaceOnUse" x1="1591.1698" y1="444.6613" x2="1713.1" y2="444.6613" gradientTransform="matrix(1 0 0 -1 0 964)">
				<stop  offset="0" style="stop-color:#478DFF"/>
				<stop  offset="1" style="stop-color:#00157E"/>
			</linearGradient>
			<path class="st36" d="M1713.1,547.1c0,0-15.6-67-79.5-53.8c-64,13.2-36.6,49.1-36.6,49.1"/>
			
				<linearGradient id="SVGID_27_" gradientUnits="userSpaceOnUse" x1="1380.3" y1="361.591" x2="1758.2209" y2="361.591" gradientTransform="matrix(1 0 0 -1 0 964)">
				<stop  offset="0" style="stop-color:#478DFF"/>
				<stop  offset="1" style="stop-color:#00157E"/>
			</linearGradient>
			<path class="st37" d="M1534.4,681.6c-54.2-4.6-154.1-30.3-154.1-67.4v-3.5c0-37,30.3-67.4,67.4-67.4l204.1-21.1
				c37,0,119.7,39.4,104.6,98.1C1741.9,676.8,1588.4,686.2,1534.4,681.6L1534.4,681.6z"/>
			<path class="st38" d="M1415.6,457.6h6.4"/>
			
				<linearGradient id="SVGID_28_" gradientUnits="userSpaceOnUse" x1="1890.4139" y1="194.7294" x2="1888.3173" y2="194.1063" gradientTransform="matrix(44.8561 0 0 40.8 -83674.0078 -7412.8398)">
				<stop  offset="0.144" style="stop-color:#F2F4F7;stop-opacity:0"/>
				<stop  offset="0.2586" style="stop-color:#D8E1F0;stop-opacity:5.400000e-02"/>
				<stop  offset="0.5038" style="stop-color:#96B1DD;stop-opacity:0.168"/>
				<stop  offset="0.8574" style="stop-color:#2C64BF;stop-opacity:0.333"/>
				<stop  offset="1" style="stop-color:#0044B2;stop-opacity:0.4"/>
			</linearGradient>
			<path class="st39" d="M1049,544.2c0,0-4.6-39.6,58.6-48.1l-10.3,53.4C1097.2,549.5,1061.5,543.7,1049,544.2z"/>
			
				<linearGradient id="SVGID_29_" gradientUnits="userSpaceOnUse" x1="1541.2001" y1="379.4019" x2="1655.6" y2="379.4019" gradientTransform="matrix(1 0 0 -1 0 964)">
				<stop  offset="0" style="stop-color:#478DFF"/>
				<stop  offset="1" style="stop-color:#00157E"/>
			</linearGradient>
			<path class="st40" d="M1541.3,616.5l-0.1-28.9c24.3,0.1,30.5-21.3,57.2-30.7s57.2-0.1,57.2-0.1"/>
			
				<linearGradient id="SVGID_30_" gradientUnits="userSpaceOnUse" x1="1889.1334" y1="185.5061" x2="1889.2262" y2="184.346" gradientTransform="matrix(51.8673 0 0 19.8 -96848.5547 -3111.1438)">
				<stop  offset="0.1809" style="stop-color:#0044B2;stop-opacity:0.4"/>
				<stop  offset="0.7028" style="stop-color:#2963FF;stop-opacity:0"/>
			</linearGradient>
			<path class="st41" d="M1172.5,557.7c0,0-29.4-6.7-9-25.9l-44.3,0.5l-4.3,8.5c0,0-22.2-7.7-0.9,2.1c7.3,3.4,14.1,8.2,18.7,14.8
				L1172.5,557.7L1172.5,557.7z"/>
			
				<linearGradient id="SVGID_31_" gradientUnits="userSpaceOnUse" x1="1879.8599" y1="185.3705" x2="1879.8357" y2="187.1252" gradientTransform="matrix(36.1 0 0 23.3 -66380.2812 -3835.7268)">
				<stop  offset="0.4251" style="stop-color:#FFFFFF;stop-opacity:0"/>
				<stop  offset="0.5427" style="stop-color:#B3C7E8;stop-opacity:0.1"/>
				<stop  offset="0.6704" style="stop-color:#6790D1;stop-opacity:0.208"/>
				<stop  offset="0.7763" style="stop-color:#2F67C0;stop-opacity:0.298"/>
				<stop  offset="0.8547" style="stop-color:#0D4EB6;stop-opacity:0.364"/>
				<stop  offset="0.897" style="stop-color:#0044B2;stop-opacity:0.4"/>
			</linearGradient>
			<path class="st42" d="M1505.5,513.8l0.4-30.5l-47.2,22.2l18.7,3.8C1477.2,509.5,1504.6,513.6,1505.5,513.8z"/>
			
				<linearGradient id="SVGID_32_" gradientUnits="userSpaceOnUse" x1="1899.6654" y1="189.5161" x2="1899.5944" y2="188.4165" gradientTransform="matrix(73.2 0 0 26.0515 -137507.5781 -4357.9443)">
				<stop  offset="1.884000e-02" style="stop-color:#5088D8;stop-opacity:0.4"/>
				<stop  offset="0.2939" style="stop-color:#5B91E1;stop-opacity:0.277"/>
				<stop  offset="0.777" style="stop-color:#78A9F8;stop-opacity:6.100000e-02"/>
				<stop  offset="0.9135" style="stop-color:#82B1FF;stop-opacity:0"/>
			</linearGradient>
			<path class="st43" d="M1591.3,546.3c0,0-27.2-0.5-43.7,13.2c-16.4,13.7-52.1,2.9-52.1,2.9s14.7,6.5,24.2,17.9
				c0,0,13.2,1.8,29.3-14S1591.3,546.3,1591.3,546.3L1591.3,546.3z"/>
			
				<linearGradient id="SVGID_33_" gradientUnits="userSpaceOnUse" x1="1880.6434" y1="170.2464" x2="1880.6841" y2="172.987" gradientTransform="matrix(38.4612 0 0 12.214 -70922.9453 -1505.9751)">
				<stop  offset="1.884000e-02" style="stop-color:#5088D8;stop-opacity:0.4"/>
				<stop  offset="0.2939" style="stop-color:#5B91E1;stop-opacity:0.277"/>
				<stop  offset="0.777" style="stop-color:#78A9F8;stop-opacity:6.100000e-02"/>
				<stop  offset="0.9135" style="stop-color:#82B1FF;stop-opacity:0"/>
			</linearGradient>
			<path class="st44" d="M1434.3,574.3c0,0-25.1,20.5-50,15c0,0-1-8.9,0.5-14.5C1384.9,575.1,1403.3,578.6,1434.3,574.3z"/>
			
				<linearGradient id="SVGID_34_" gradientUnits="userSpaceOnUse" x1="1727.6414" y1="178.3248" x2="1729.8931" y2="178.5449" gradientTransform="matrix(7.6532 0 0 14.6 -11809.2744 -1933.2245)">
				<stop  offset="0" style="stop-color:#FFFFFF;stop-opacity:0"/>
				<stop  offset="0.1077" style="stop-color:#FAFCFE;stop-opacity:4.300000e-02"/>
				<stop  offset="0.2314" style="stop-color:#ECF1F9;stop-opacity:9.300000e-02"/>
				<stop  offset="0.3631" style="stop-color:#D5E0F2;stop-opacity:0.145"/>
				<stop  offset="0.5005" style="stop-color:#B5C9E9;stop-opacity:0.2"/>
				<stop  offset="0.6422" style="stop-color:#8BAADC;stop-opacity:0.257"/>
				<stop  offset="0.7876" style="stop-color:#5985CD;stop-opacity:0.315"/>
				<stop  offset="0.9332" style="stop-color:#1E5ABB;stop-opacity:0.373"/>
				<stop  offset="1" style="stop-color:#0044B2;stop-opacity:0.4"/>
			</linearGradient>
			<path class="st45" d="M1418,681.6c-1.7-7.7,8-19.1,8-19.1c-5.6,11.9,1.8,19.1,1.8,19.1H1418z"/>
			
				<linearGradient id="SVGID_35_" gradientUnits="userSpaceOnUse" x1="1877.4089" y1="190.5557" x2="1879.0187" y2="191.1901" gradientTransform="matrix(36.3621 0 0 26.5672 -66927.8203 -4481.0034)">
				<stop  offset="0" style="stop-color:#F2F4F7;stop-opacity:0"/>
				<stop  offset="9.680000e-02" style="stop-color:#ECF0F5;stop-opacity:3.900000e-02"/>
				<stop  offset="0.2259" style="stop-color:#DBE3F0;stop-opacity:9.000000e-02"/>
				<stop  offset="0.3732" style="stop-color:#BFCFE9;stop-opacity:0.149"/>
				<stop  offset="0.5341" style="stop-color:#99B3DD;stop-opacity:0.214"/>
				<stop  offset="0.706" style="stop-color:#678FCF;stop-opacity:0.282"/>
				<stop  offset="0.8843" style="stop-color:#2B63BE;stop-opacity:0.354"/>
				<stop  offset="1" style="stop-color:#0044B2;stop-opacity:0.4"/>
			</linearGradient>
			<path class="st46" d="M1384.9,575.1c-46.7-1.6-41.1,20.5-41.1,20.5c14.5,20.9,47.4,12.4,47.4,12.4S1380.6,594.4,1384.9,575.1z"/>
			
				<linearGradient id="SVGID_36_" gradientUnits="userSpaceOnUse" x1="1482.3" y1="342.7781" x2="1584.0472" y2="342.7781" gradientTransform="matrix(1 0 0 -1 0 964)">
				<stop  offset="0" style="stop-color:#478DFF"/>
				<stop  offset="1" style="stop-color:#00157E"/>
			</linearGradient>
			<path class="st47" d="M1482.3,606.7c0,0,1.6,33.5,65.4,35.1s24.2-41.2,24.2-41.2"/>
			
				<linearGradient id="SVGID_37_" gradientUnits="userSpaceOnUse" x1="1798.6426" y1="113.2257" x2="1799.1105" y2="115.5014" gradientTransform="matrix(11.0384 0 0 5.7 -18863.1875 -80.7652)">
				<stop  offset="0" style="stop-color:#E6E6E6;stop-opacity:0"/>
				<stop  offset="0.1758" style="stop-color:#A7BAD8;stop-opacity:0.119"/>
				<stop  offset="0.3601" style="stop-color:#6C90CA;stop-opacity:0.244"/>
				<stop  offset="0.53" style="stop-color:#3D6FC0;stop-opacity:0.359"/>
				<stop  offset="0.6797" style="stop-color:#1C58B8;stop-opacity:0.46"/>
				<stop  offset="0.8035" style="stop-color:#0749B4;stop-opacity:0.544"/>
				<stop  offset="0.8861" style="stop-color:#0044B2;stop-opacity:0.6"/>
			</linearGradient>
			<path class="st48" d="M976.2,568.7c0,0-2.5,8.3,15.4,8.3s19.2-5.9,19.2-5.9"/>
			
				<linearGradient id="SVGID_38_" gradientUnits="userSpaceOnUse" x1="1877.7549" y1="192.9001" x2="1879.9889" y2="191.7132" gradientTransform="matrix(32.6963 0 0 35 -60352.2383 -6207.3398)">
				<stop  offset="0" style="stop-color:#F2F4F7;stop-opacity:0"/>
				<stop  offset="8.840000e-02" style="stop-color:#E8EDF4;stop-opacity:3.500000e-02"/>
				<stop  offset="0.2372" style="stop-color:#CEDAED;stop-opacity:9.500000e-02"/>
				<stop  offset="0.4281" style="stop-color:#A3BBE1;stop-opacity:0.171"/>
				<stop  offset="0.6537" style="stop-color:#6890D0;stop-opacity:0.262"/>
				<stop  offset="0.9058" style="stop-color:#1E5ABA;stop-opacity:0.362"/>
				<stop  offset="1" style="stop-color:#0044B2;stop-opacity:0.4"/>
			</linearGradient>
			<path class="st49" d="M1078.3,545.9c0,0,19.6-17.7,10.5-19c-9.2-1.3-20.3,0-20.3,0s31-21.7,21.5-26.8c0,0-36,2.9-40.9,44
				C1049,544.2,1071.1,545,1078.3,545.9z"/>
			
				<linearGradient id="SVGID_39_" gradientUnits="userSpaceOnUse" x1="1887.9288" y1="183.7204" x2="1889.9315" y2="181.3797" gradientTransform="matrix(44.1291 0 0 21.473 -82318.0312 -3368.8425)">
				<stop  offset="0" style="stop-color:#F2F4F7;stop-opacity:0"/>
				<stop  offset="8.840000e-02" style="stop-color:#E8EDF4;stop-opacity:3.500000e-02"/>
				<stop  offset="0.2372" style="stop-color:#CEDAED;stop-opacity:9.500000e-02"/>
				<stop  offset="0.4281" style="stop-color:#A3BBE1;stop-opacity:0.171"/>
				<stop  offset="0.6537" style="stop-color:#6890D0;stop-opacity:0.262"/>
				<stop  offset="0.9058" style="stop-color:#1E5ABA;stop-opacity:0.362"/>
				<stop  offset="1" style="stop-color:#0044B2;stop-opacity:0.4"/>
			</linearGradient>
			<path class="st50" d="M998.8,573c0,0,22.5-10.1,34.3-11.1c0,0,25.8-3.8,23.3-11.1c0,0-2-8.8-31.9-4.8"/>
			<g>
				<path class="st28" d="M992.6,572.5c0,0,4.5-20.6-5.2-36.6c-2.6-4.3-2-9.4-0.6-14c1.1-3.8,2.7-7.6,3.1-11.6
					c0.2-1.7,0.1-3.5,0.7-5.1c0.6-1.6,2.1-2.8,2-4.6c-0.1-4.5,3.3-32.1,28.8-26.2c11.3,2.6,18.8,10.8,19.7,22.4
					c0.3,3.5,0.1,7.2-0.7,10.7c-1.5,6.4-8.4,11.3-13.2,15.3c-5,4.2-10,8.1-12.4,14.4c-2.8,7.5-2.1,15.6-2.9,23.5
					c-0.5,5-2.3,11.6-8.1,11.9C1000.1,572.7,996.4,572.5,992.6,572.5z"/>
				<path class="st29" d="M987.4,535.9c-6.4-11,3.3-18,2.6-26.2s2.7-4.7,2.6-9.2c-0.1-4.5,3.3-32.1,28.8-26.2
					c12.6,2.9,24.5,16.9,18.8,30.4c-3.6,8.6-13,10.4-20.5,13.9c-7.7,3.6-12.5,12.2-15.3,19.8C1002.9,542.8,994.4,545.2,987.4,535.9z
					"/>
				<g>
					<path class="st30" d="M992.7,572.8c-0.1,0-0.2,0-0.4-0.1c-0.3-0.2-0.4-0.6-0.2-0.9c9.4-14.5,9.3-23.3,9.1-33.6
						c0-0.9,0-1.8,0-2.7c0.6-16.9,6.3-28.2,11-34.8c5.1-7.1,10-10.2,10.2-10.3c0.3-0.2,0.7-0.1,0.9,0.2c0.2,0.3,0.1,0.7-0.2,0.9
						c-0.2,0.1-19.5,12.4-20.6,43.9c0,0.9,0,1.8,0,2.6c0.2,10.5,0.3,19.5-9.3,34.3C993.1,572.7,992.9,572.8,992.7,572.8z"/>
				</g>
				<path class="st51" d="M948.2,446.9c0.6-0.7,5.1-0.2,6-0.2c4.3,0,8.7,0.5,12.9,1.6c9.6,2.6,15.2,10.4,13.3,20.4
					c-1.6,8.7-8.9,20.6,1.8,26.6c4.2,2.4,8.4,2.1,9.8,7.7c1.4,5.5-0.1,11.5-1.4,16.9c-1.4,5.9-1.8,10.5,0,16.5
					c1.3,4.1,3.9,7.7,5.2,11.7c2.2,6.9,2,14.7,0.8,21.8c-0.7,4.3-8.3,2.6-11.8,2.6l-18.3-15.7l-11.8-27.5l-10.5-43.2l-10.5-22.2
					C933.8,463.9,948.2,446.9,948.2,446.9z"/>
				<path class="st52" d="M981.6,572.8c-4.2-6.6-8.8-11.9-13.9-15.3c-7.8-5.3-18.3-4.4-24.7-11.7c-4.1-4.7-5.6-10.8-4.5-16.8
					c0.6-3.3,2.5-5.9,3.2-9c1.4-5.5-3.5-10.1-7.8-12.6c-3.6-2.1-8.2-1.9-11.7-4c-3.4-2-5.5-6-6-9.8c-0.8-5.3,0.6-10.6,1.1-15.9
					c1.3-12.9-7.3-29.4,6.3-38.3c15-9.7,26.9,7.2,39.8,11.7c2.4,0.9,5,1.4,7.2,2.8c5.9,3.6,3,10.5,1.9,16
					c-1.1,5.4-2.9,12.1-0.8,17.5c2.5,6.7,14.2,19.3,10.5,28.8c-3.8,9.5-4.1,19.9,1.3,27.5c5.4,7.6,16.2,19.4,14.4,28.8
					C997.8,573.1,983.3,572.8,981.6,572.8z"/>
				<g>
					<path class="st29" d="M990.1,573.1c0,0-2.4-4.4-4.5-8.1c-0.5-0.8-1.7-2.3-3.3-4.1c-5.3-6.1-14.2-16.4-13.8-26.3
						c0.6-13.5-1.1-27.4-3.8-32.4c-2.7-4.8-8-9.7-13.6-14.9c-8.8-8.1-18.7-17.3-20.5-28.5c-0.1-0.4,0.2-0.7,0.5-0.7
						c0.4-0.1,0.7,0.2,0.7,0.5c1.7,10.7,11.5,19.8,20.1,27.7c5.7,5.2,11,10.2,13.8,15.2c3.3,5.9,4.5,21.1,4,33
						c-0.4,9.4,8.3,19.4,13.5,25.4c1.7,2,2.9,3.4,3.5,4.3c2.1,3.7,4.7,8.5,4.7,8.5L990.1,573.1z"/>
				</g>
			</g>
			<g>
				<g>
					<g>
						<path class="st38" d="M1630.1,464.9c-1.1-15.6-16.7-17.6-16.7-27.7s4.6-10.1,4.5-18.5c-0.2-16-9.2-13.2-8.7-21.7
							c0.5-8.6,2.6-41.4-27.1-37.4c0,0-12.1-11.6-29.7,4s-6,28.2-8.1,34.8c-2,6.6-12.6,6-12.6,17.1s9.6,13.1,7.6,21.2
							c-1.6,6.2-17.9,13.7-15.4,33c14.6,12.4,33.6,19.9,54.3,19.9c19.6,0,37.5-6.7,51.8-17.9
							C1630.2,469.6,1630.3,467.3,1630.1,464.9z"/>
					</g>
					<path class="st53" d="M1575.5,459c13.3,0.3,19.6-7.7,22.1-12.1c-6.2-0.2-11-0.1-11-0.1l-20.2-0.7l-9.4,1.2
						C1558,450,1562.3,458.7,1575.5,459z"/>
					<path class="st29" d="M1623.7,450.8c-4.1-2.7-16.7-3.7-26.1-4c-2.5,4.4-8.8,12.5-22.1,12.1c-13.2-0.3-17.5-9-18.6-11.8
						l-19.5,2.5c-19.3-1.1-29.5,40.8-29.5,40.8l18.2,37.5l7.1-45.5l7.5,59.1l5.8,10.3l30.6,34c28.4,0,27.2-30.6,27.2-30.6l0.9-9
						c-13.1-3.3-29.7-9.2-29.7-9.2v-11.5h2l29.9,0.1l3.8-38.5l-1.1,38.6l-2.7-0.4l-2.1,20.9c5.2,1.3,9.8,2.2,12.7,2.2
						c10.2,0,10.3-10.2,10.3-10.2s4.5-55.6,5.7-68.1C1635,457.6,1630.5,455.4,1623.7,450.8z"/>
					<path class="st54" d="M1474.8,745.7c0,0-17-1.2-14.4,2.5s7.1,9.3,18.6,7.7c11.5-1.7,10.3-4.8,16.9-7.3
						c6.5-2.5,16.1-3.3,15.5-7.6s-6.9-10-7.8-10.7c-0.8-0.7-8.8,2.5-8.8,2.5l-5.4,7.5L1474.8,745.7z"/>
					<path class="st53" d="M1493.1,726.6l10.1-1l0.4,4.6c0,0-6.4,0.9-9.1,7s-9.9,10.7-16.3,10.3s-5.3-1-5.3-1s6.9-3.5,9.5-6.5
						s4.6-11.7,9.7-12.5"/>
					<path class="st54" d="M1376.3,661.5c0,0-14.9-8.3-14.1-3.9c0.8,4.4,2.4,11.5,13.5,14.8c11.1,3.4,11.4,0,18.4,0.6
						c7,0.5,16,3.9,17.3-0.2c1.3-4.1-2-12-2.5-13c-0.4-1-9-1.5-9-1.5l-8.1,4.5L1376.3,661.5z"/>
					<path class="st53" d="M1400.9,652l9.6,3.4l-1.6,4.3c0,0-6.1-1.9-11.2,2.5c-5,4.4-13.5,5.5-19.2,2.4c-5.6-3.1-4.4-3.2-4.4-3.2
						s7.7-0.3,11.4-1.8c3.6-1.6,9.1-8.6,14.1-7.2"/>
					<path class="st38" d="M1397.5,652.2l13.6,4.6c0,0,50.7-56.3,52.4-65.3c0,0,125.6,11.3,127.2-17.2c1.7-28.5-30.2-33.5-62.6-35.5
						c-32.5-2-67.6,2-67.6,2s-5.6,3.3-10.9,12.3C1444.2,562.1,1397.5,652.2,1397.5,652.2z"/>
					<g>
						<path class="st55" d="M1474.7,579.6c-16.2,7-8.8,22.9-8.8,22.9c13.4,45.6,22.3,128,22.3,128l16.7-3.3c0,0,2.2-64.5,6.7-86.8
							s-8.9-36.7-8.9-36.7l47.9-11.1C1550.5,592.5,1495.9,577.8,1474.7,579.6z"/>
					</g>
					<g>
						<path class="st53" d="M1590.7,447.7l-22.9-12.9c-0.2,3.9-1.1,8.1-3.8,11.2c-0.2,0.2-0.3,0.3-0.5,0.5
							C1566.4,448.9,1575.6,455.1,1590.7,447.7z"/>
						
							<linearGradient id="SVGID_40_" gradientUnits="userSpaceOnUse" x1="1566.5" y1="528.45" x2="1591.3693" y2="528.45" gradientTransform="matrix(1 0 0 -1 0 964)">
							<stop  offset="0" style="stop-color:#5088D8;stop-opacity:0"/>
							<stop  offset="0.7478" style="stop-color:#0044B2;stop-opacity:0.5"/>
						</linearGradient>
						<path class="st56" d="M1591.4,447.3c-0.5-0.4-0.9-0.9-1.4-1.4c-6.8-7.7-2.6-22.4-2.6-22.4h-5.9h-4.3h-10.7
							c0,0,1.5,5.3,1.3,11.2l22.9,12.9C1590.9,447.5,1591.1,447.4,1591.4,447.3z"/>
					</g>
					<g>
						<path class="st53" d="M1576.9,435.9c14.9,0,26.9-15.4,26.9-34.3s-12-34.3-26.9-34.3l0,0c-14.9,0-26.9,15.4-26.9,34.3
							S1562.1,435.9,1576.9,435.9L1576.9,435.9z"/>
					</g>
					<polygon class="st57" points="1575,525.8 1575.2,521.8 1610.7,526 					"/>
					<path class="st58" d="M1577.8,524.9c0,0-27.4-5.4-33.3,8.4l0.7,3.2l17.5,1.1c0,0,4-1.3,5.2-0.7c1.2,0.7,3.3,2.1,6.4,0.9
						c3.1-1.2,5.2-2.8,5.2-2.8L1577.8,524.9z"/>
					<polygon class="st59" points="1440.7,479.2 1469.2,537.8 1554,537.8 1528.4,479.1 					"/>
					<path class="st59" d="M1566.3,538.9c0,0.7-0.6,1.3-1.3,1.3h-95.4c-0.7,0-1.3-0.6-1.3-1.4l0,0c0-0.7,0.6-1.3,1.3-1.3h95.4
						c0.7,0,1,0,1,0.7L1566.3,538.9z"/>
					<ellipse class="st60" cx="1495.5" cy="512.2" rx="9.9" ry="2.5"/>
					<path class="st61" d="M1575.6,522.6l-0.1,2.9l-0.1,13.2c0,0,16.7,4.2,29.9,7.5l2.1-20.3L1575.6,522.6z"/>
				</g>
			</g>
			
				<linearGradient id="SVGID_41_" gradientUnits="userSpaceOnUse" x1="2155.2607" y1="922.637" x2="2257.6233" y2="922.637" gradientTransform="matrix(0.4514 -0.8923 -0.8923 -0.4514 1407.9131 2979.1924)">
				<stop  offset="0" style="stop-color:#478DFF"/>
				<stop  offset="1" style="stop-color:#00157E"/>
			</linearGradient>
			<path class="st62" d="M1544.6,622.3c0,0,5.9-56.6,60.7-67c54.9-10.6-44.5,85.8-44.5,85.8"/>
			
				<linearGradient id="SVGID_42_" gradientUnits="userSpaceOnUse" x1="1899.8378" y1="170.9233" x2="1901.4022" y2="171.5237" gradientTransform="matrix(16.882 -33.3731 25.0321 12.6626 -34784.6094 61844.9961)">
				<stop  offset="0" style="stop-color:#F2F4F7;stop-opacity:0"/>
				<stop  offset="9.680000e-02" style="stop-color:#ECF0F5;stop-opacity:3.900000e-02"/>
				<stop  offset="0.2259" style="stop-color:#DBE3F0;stop-opacity:9.000000e-02"/>
				<stop  offset="0.3732" style="stop-color:#BFCFE9;stop-opacity:0.149"/>
				<stop  offset="0.5341" style="stop-color:#99B3DD;stop-opacity:0.214"/>
				<stop  offset="0.706" style="stop-color:#678FCF;stop-opacity:0.282"/>
				<stop  offset="0.8843" style="stop-color:#2B63BE;stop-opacity:0.354"/>
				<stop  offset="1" style="stop-color:#0044B2;stop-opacity:0.4"/>
			</linearGradient>
			<path class="st63" d="M1599.5,557c0,0-12.5,28.1,1.1,40.4l-33.7-2.1c0,0-3.2-18.9,12.8-29.6C1589.8,558.8,1599.5,557,1599.5,557z
				"/>
			<g>
				<path id="XMLID_234_" class="st61" d="M1082.5,483.5c0,0,1,3.8,2.6,9.9c27.8-2.3,55.5-4.9,83.4-6.2c2.1-0.1,4.2-0.2,6.3-0.3
					c0.1-0.3,0.1-0.6,0.2-0.8l-2-37.7c0,0-12.5-7.7-16.8-11.2l1.4-27.3l-35.8-15.8l-6.3,39.1c0,0-18.9,5.7-31.2,12.2
					C1084.1,445.5,1087.9,473.1,1082.5,483.5z"/>
				
					<linearGradient id="XMLID_2_" gradientUnits="userSpaceOnUse" x1="1084.2" y1="526.85" x2="1174.7" y2="526.85" gradientTransform="matrix(1 0 0 -1 0 964)">
					<stop  offset="0" style="stop-color:#5088D8;stop-opacity:0"/>
					<stop  offset="0.7478" style="stop-color:#0044B2;stop-opacity:0.5"/>
				</linearGradient>
				<path id="XMLID_233_" class="st64" d="M1172.9,448.4c0,0-10.9-5.8-16.8-10.1l1.4-28.3l-35.8-15.8l-1.5,9.4l1.9,20.1l14.7,19.5
					c0,0,1.3,0.7,1.1,1.8c0.1-0.9-13.8-8.7-22.2-13.4l-0.3,1.7c0,0-18.9,5.7-31.2,12.2c0,0,2.4,17.2,0.7,29.6l89.8,5L1172.9,448.4z"
					/>
				<path id="XMLID_232_" class="st53" d="M1176.5,358.7c1.6,4.5,2.8,17.2,1.3,18.9c-1.6,1.7-1.6,6.2-2,7.6s0.8,11.2,0.7,16.2
					c-0.2,5-6.2,23.6-7.9,25.7c-5.5,6.8-34.7,7.3-42.9-6.4c-0.8-1.3-6.9-17.9-9.3-25.8c-2.9-9.6-1.9-32.6,1.4-39.9
					C1124.3,340.7,1168.6,335.8,1176.5,358.7z"/>
				<path id="XMLID_231_" class="st38" d="M1178.4,365.7c-4.5,1.3-6.7-2.3-13.8-0.6c-9.6,2.3-32.9,0.8-35.3,4.1
					c-3.7,4.9-3.1,10.1-3.1,10.1l0.4,11.5l-0.9,1.5c-1.4,2.4-5.3,1.7-5.6-1c0-0.1,0-0.1,0-0.2c-0.1-0.5-0.2-1-0.3-1.5
					c-2-6.5-10.8-11-10.8-11s-2.5-8.1,0.8-19.4c10.3-34.5,54.7-19.6,61.5-13.8c5.6,4.8,6.9,13.4,6.9,17.6l0,0
					C1178,364.7,1178.4,365.7,1178.4,365.7z"/>
				<path id="XMLID_230_" class="st38" d="M1120,391.2c0,0,1.5-10.1-9.5-11.9s-10.3,14.6,0.9,20.8c6.5,3.6,8.7,5.2,8.7,5.2
					L1120,391.2z"/>
				<path id="XMLID_215_" class="st38" d="M1170.2,441.7c0,0,14.7,18.1,22.2,36.2c7.5,18.2,15.1,47.1,17.1,51.1c0,0,3.4,3.5,3.9,5.3
					c0,0,40.2,7.5,55.9,8.8c15.7,1.3,20.1,0,20.1,0s-2.5,11.9,0,19.9c0,0-13.9,1-29.9,0c-16.1-1-45.9-4.4-56.3-4.9
					c-10.4-0.4-12.4-6.6-15.4-12.8c-2.9-6.2-12.6-40.2-18.8-49.9c-6.2-9.7-15.4-26.5-12.3-35.8S1170.2,441.7,1170.2,441.7z"/>
				<path id="XMLID_214_" class="st65" d="M1243.6,556.9c-19.8-3.2-24.7-4.8-28.1-5.1c-3.3-0.3-2.6-4,0-10.2s-8.8,5.9-8.6,0
					c0.3-5.9,3.8-6.3,0-4.8s-6.5,11.4-7.1,7.1c-0.6-4.3-2.4-4.3-5.3-11c-3-6.7-4.4-25.8-12.4-44.7c-7.1-16.6-8.6-21.2-18.2-40.2
					c-2.8,3.2-5.8,7.4-7.2,11.6c-3.1,9.3,6.1,26.1,12.3,35.8c6.2,9.7,15.9,43.7,18.8,49.9s5,12.4,15.4,12.8
					c10.4,0.4,40.2,3.9,56.3,4.9c3.5,0.2,6.9,0.3,10.1,0.4l13.9-2.8C1283.5,560.6,1263.4,560.1,1243.6,556.9z"/>
				<path id="XMLID_213_" class="st66" d="M1207,577.6c0,0-15.2,12.8-47,20.8s-55.2-1.8-55.2-1.8c-0.6-19.4-27.8-106.5-31.7-114
					c-3.9-7.5-4.9-29.8-4.9-29.8c3.9-3.8,29.5-13.3,37.9-17.5l2,0.3l34.5,5.5l16.2-1.9c0.3,0.1,0.6,0.1,0.9,0.2
					c6.2,1.2,8.4,0.7,10.6,2.3c6.6,4.7,6.3,11.1,8.7,29.4c1.9,14.9,6.5,38.4,9.4,54.8C1191.3,542.2,1207,577.6,1207,577.6z"/>
				<g id="XMLID_212_" class="st67">
					<path class="st38" d="M1096.6,511.8l-1.4-0.5c7.6-16.2,10.3-34,8-51.5l1.5-0.2C1107.1,477.4,1104.2,495.4,1096.6,511.8z"/>
				</g>
				<g id="XMLID_211_" class="st67">
					<path class="st38" d="M1103.5,493l-1.5-0.1c0.6-5.6,2.3-11.4,4-17c0.6-1.9,1.1-3.8,1.6-5.6l1.4,0.3c-0.5,1.9-1.1,3.7-1.7,5.6
						C1105.8,481.8,1104.1,487.5,1103.5,493z"/>
				</g>
				<path id="XMLID_210_" class="st68" d="M1195.2,548.5c-3.9-0.5-7.9-0.5-11.8-0.8c-16.8-1.2-35.5-2.4-52.3-3.5
					c-16-1-18.8-13.5-18.3-19.2c1.9-25.2-4.6-35.1-4.8-52.9c-10.3,7.5-9.1,44.4-19.3,51.9c9.2,28,15.7,57.6,16.2,72.6
					c0,0,23.5,9.7,55.2,1.8s47-20.8,47-20.8S1200.6,563.2,1195.2,548.5z"/>
				<path id="XMLID_209_" class="st65" d="M1160.3,440.3c0,0-2.2,7.9-4.7,8.9s-8.3,0-8.3,0s-5.7,2.7-7.7,2.2
					c-2.1-0.5-31.6-15.8-31.6-15.8h0.1l34.5,5.5l16.2-1.9c0.3,0.1,0.6,0.1,0.9,0.2L1160.3,440.3z"/>
				<path id="XMLID_208_" class="st55" d="M1115.3,430.6c0,0,20.1,8,31.6,9.2c0,0-0.9,8.5-7.4,11.6c0,0-25.6-8.2-33.5-16.1
					L1115.3,430.6z"/>
				<path id="XMLID_204_" class="st55" d="M1146.9,439.8c0,0,5-0.8,9.7-5l3.7,6.3c0,0-0.7,5.2-4.7,8.1
					C1155.6,449.2,1148.4,446.6,1146.9,439.8z"/>
				<g id="XMLID_177_">
					<path id="XMLID_189_" class="st68" d="M1178.5,547.4c1.9,7.2,6.4,13.7,10.7,12.8c4.2-0.9,5.4-13.3,4.6-15.7
						C1192.9,542,1178.5,547.4,1178.5,547.4z"/>
					<path id="XMLID_188_" class="st65" d="M1209.6,533c3.6-0.4,7.5,1.8,10.5,2.3c2.9,0.5,5.3,0.4,5.3,1.1c0,0.7-0.3,3.9-3.7,4.3
						c-3.4,0.4-9.7-2.2-9.7-2.2L1209.6,533z"/>
					<g id="XMLID_178_">
						<g>
							
								<linearGradient id="XMLID_3_" gradientUnits="userSpaceOnUse" x1="1185.5972" y1="422.5167" x2="1232.756" y2="422.5167" gradientTransform="matrix(1 0 0 -1 0 964)">
								<stop  offset="0" style="stop-color:#478DFF"/>
								<stop  offset="1" style="stop-color:#00157E"/>
							</linearGradient>
							<path id="XMLID_179_" class="st69" d="M1186.6,539.9c4.3-2.4,11.6-5.3,13.7-6.9c2.1-1.6,5.4-2.2,9.3-1
								c3.9,1.1,9.6,3.5,12,5.6c1.9,1.7,6.2,4.6,7.8,6.9c1.4,2.1,3.1,3.9,3.3,4.7c0.4,1.7-2,2.7-3.4,1.9c-0.7-0.4-3.1-2.2-5-4.1
								c-1.4-1.4-6.4-3.9-6.8-4.2c0,0,0.5,2.2-1.9,2.9c-2.3,0.7-3.1-0.3-3.1-0.3s0.2,1.7-1.8,2.4c-1.9,0.7-4-0.5-4-0.5
								s-0.1,2.6-2.9,3.1s-4.9,0-8.6,0.8c-3.7,0.9-9.7,0-9.7,0L1186.6,539.9z"/>
						</g>
						<g>
							<g>
								<g>
									<g>
										<g>
											<defs>
												<path id="SVGID_43_" d="M1186.6,539.9c4.3-2.4,11.6-5.3,13.7-6.9c2.1-1.6,5.4-2.2,9.3-1c3.9,1.1,9.6,3.5,12,5.6
													c1.9,1.7,6.2,4.6,7.8,6.9c1.4,2.1,3.1,3.9,3.3,4.7c0.4,1.7-2,2.7-3.4,1.9c-0.7-0.4-3.1-2.2-5-4.1
													c-1.4-1.4-6.4-3.9-6.8-4.2c0,0,0.5,2.2-1.9,2.9c-2.3,0.7-3.1-0.3-3.1-0.3s0.2,1.7-1.8,2.4c-1.9,0.7-4-0.5-4-0.5
													s-0.1,2.6-2.9,3.1s-4.9,0-8.6,0.8c-3.7,0.9-9.7,0-9.7,0L1186.6,539.9z"/>
											</defs>
											<clipPath id="SVGID_44_">
												<use xlink:href="#SVGID_43_"  style="overflow:visible;"/>
											</clipPath>
											<path id="XMLID_187_" class="st70" d="M1186.6,539.9c4.3-2.4,11.6-5.3,13.7-6.9c2.1-1.6,5.4-2.2,9.3-1
												c3.9,1.1,9.6,3.5,12,5.6c1.9,1.7,6.2,4.6,7.8,6.9c1.4,2.1,3.1,3.9,3.3,4.7c0.4,1.7-2,2.7-3.4,1.9c-0.7-0.4-3.1-2.2-5-4.1
												c-1.4-1.4-6.4-3.9-6.8-4.2c0,0,0.5,2.2-1.9,2.9c-2.3,0.7-3.1-0.3-3.1-0.3s0.2,1.7-1.8,2.4c-1.9,0.7-4-0.5-4-0.5
												s-0.1,2.6-2.9,3.1s-4.9,0-8.6,0.8c-3.7,0.9-9.7,0-9.7,0L1186.6,539.9z"/>
										</g>
									</g>
								</g>
							</g>
						</g>
						<g>
							<g>
								<g>
									<g>
										<g>
											<defs>
												<path id="SVGID_45_" d="M1186.6,539.9c4.3-2.4,11.6-5.3,13.7-6.9c2.1-1.6,5.4-2.2,9.3-1c3.9,1.1,9.6,3.5,12,5.6
													c1.9,1.7,6.2,4.6,7.8,6.9c1.4,2.1,3.1,3.9,3.3,4.7c0.4,1.7-2,2.7-3.4,1.9c-0.7-0.4-3.1-2.2-5-4.1
													c-1.4-1.4-6.4-3.9-6.8-4.2c0,0,0.5,2.2-1.9,2.9c-2.3,0.7-3.1-0.3-3.1-0.3s0.2,1.7-1.8,2.4c-1.9,0.7-4-0.5-4-0.5
													s-0.1,2.6-2.9,3.1s-4.9,0-8.6,0.8c-3.7,0.9-9.7,0-9.7,0L1186.6,539.9z"/>
											</defs>
											<clipPath id="SVGID_46_">
												<use xlink:href="#SVGID_45_"  style="overflow:visible;"/>
											</clipPath>
											
												<linearGradient id="XMLID_4_" gradientUnits="userSpaceOnUse" x1="1212.7466" y1="421.25" x2="1220.8103" y2="421.25" gradientTransform="matrix(1 0 0 -1 0 964)">
												<stop  offset="0" style="stop-color:#478DFF"/>
												<stop  offset="1" style="stop-color:#00157E"/>
											</linearGradient>
											<path id="XMLID_186_" class="st71" d="M1220.8,546c-1.1-1.8-4.5-4.7-8.1-6.5"/>
										</g>
									</g>
								</g>
							</g>
						</g>
						<g>
							<g>
								<g>
									<g>
										<g>
											<defs>
												<path id="SVGID_47_" d="M1186.6,539.9c4.3-2.4,11.6-5.3,13.7-6.9c2.1-1.6,5.4-2.2,9.3-1c3.9,1.1,9.6,3.5,12,5.6
													c1.9,1.7,6.2,4.6,7.8,6.9c1.4,2.1,3.1,3.9,3.3,4.7c0.4,1.7-2,2.7-3.4,1.9c-0.7-0.4-3.1-2.2-5-4.1
													c-1.4-1.4-6.4-3.9-6.8-4.2c0,0,0.5,2.2-1.9,2.9c-2.3,0.7-3.1-0.3-3.1-0.3s0.2,1.7-1.8,2.4c-1.9,0.7-4-0.5-4-0.5
													s-0.1,2.6-2.9,3.1s-4.9,0-8.6,0.8c-3.7,0.9-9.7,0-9.7,0L1186.6,539.9z"/>
											</defs>
											<clipPath id="SVGID_48_">
												<use xlink:href="#SVGID_47_"  style="overflow:visible;"/>
											</clipPath>
											
												<linearGradient id="XMLID_5_" gradientUnits="userSpaceOnUse" x1="1208.3313" y1="417.25" x2="1216.3949" y2="417.25" gradientTransform="matrix(1 0 0 -1 0 964)">
												<stop  offset="0" style="stop-color:#478DFF"/>
												<stop  offset="1" style="stop-color:#00157E"/>
											</linearGradient>
											<path id="XMLID_185_" class="st72" d="M1216.4,550c-1.1-1.8-4.5-4.7-8.1-6.5"/>
										</g>
									</g>
								</g>
							</g>
						</g>
						<g>
							<g>
								<g>
									<g>
										<g>
											<defs>
												<path id="SVGID_49_" d="M1186.6,539.9c4.3-2.4,11.6-5.3,13.7-6.9c2.1-1.6,5.4-2.2,9.3-1c3.9,1.1,9.6,3.5,12,5.6
													c1.9,1.7,6.2,4.6,7.8,6.9c1.4,2.1,3.1,3.9,3.3,4.7c0.4,1.7-2,2.7-3.4,1.9c-0.7-0.4-3.1-2.2-5-4.1
													c-1.4-1.4-6.4-3.9-6.8-4.2c0,0,0.5,2.2-1.9,2.9c-2.3,0.7-3.1-0.3-3.1-0.3s0.2,1.7-1.8,2.4c-1.9,0.7-4-0.5-4-0.5
													s-0.1,2.6-2.9,3.1s-4.9,0-8.6,0.8c-3.7,0.9-9.7,0-9.7,0L1186.6,539.9z"/>
											</defs>
											<clipPath id="SVGID_50_">
												<use xlink:href="#SVGID_49_"  style="overflow:visible;"/>
											</clipPath>
											
												<linearGradient id="XMLID_6_" gradientUnits="userSpaceOnUse" x1="1204.9144" y1="413.9" x2="1211.9795" y2="413.9" gradientTransform="matrix(1 0 0 -1 0 964)">
												<stop  offset="0" style="stop-color:#478DFF"/>
												<stop  offset="1" style="stop-color:#00157E"/>
											</linearGradient>
											<path id="XMLID_184_" class="st73" d="M1212,552.6c-1.1-1.8-3.5-3.3-7.1-5"/>
										</g>
									</g>
								</g>
							</g>
						</g>
					</g>
				</g>
				<g id="XMLID_173_">
					<path id="XMLID_176_" class="st55" d="M1067.6,452.8c2.9-6.1,39.1,22.8,37,33.7c-2.7,14.9-3.9,31.9-6.2,51.5
						c-0.6,4.9-0.6,14.8-0.6,14.8c0.9,0.9,1.4-0.6,2.6-0.1c1.8,0.7,1.9,1.2,3.9,0.5c6.5-2,26.8-5.7,41.6-7.8
						c30.4-4.2,34.1-6.2,41.4-6.9c0,0-3,12.3,1.7,21.6c0,0-43.6,15.5-96.2,24.1c-27.5,4.5-26.6-7.5-29.2-18
						c-2.6-10.4-4-43.1-1.6-65.9C1064.4,477.7,1063.6,461.1,1067.6,452.8z"/>
					<path id="XMLID_175_" class="st65" d="M1186.7,550.4c-3.9,2.3-6.4,3.8-8.5,6.5c-3.1,4.2-14.9,8.6-34,13.4
						c-14.7,3.6-38.2,10.5-48.3,13.5c51.3-8.7,93.3-23.6,93.3-23.6C1187.6,557.1,1186.9,553.6,1186.7,550.4z"/>
					<path id="XMLID_174_" class="st65" d="M1104.4,553.2c-2.1,0.6-2.2,0.2-3.9-0.5c-1.3-0.5-1.7,0.9-2.6,0.1c0,0,0-9.9,0.6-14.8
						c0.8-6.7,1.5-13.2,2.1-19.3c-2.2,3.5-10.5,29.6-11.9,33.1c-2.1,5.4-10.3,11.6-6.2,11.1c4.1-0.5,11.2-5.5,11.2-3.8
						s0.8,5,5.3,1.5C1103.5,557,1108.5,552,1104.4,553.2z"/>
				</g>
				<path id="XMLID_172_" class="st74" d="M1369.8,681.4l9.9,16.9c0,0-9.2,6.3-21.3,9.6l-9.9-18.8L1369.8,681.4z"/>
				<path id="XMLID_171_" class="st75" d="M1373.3,690.8c0.5-0.2,1.1-0.4,1.6-0.7l-5.2-8.8l-21.3,7.7l5.2,9.8
					C1360.1,696.7,1367.3,693.3,1373.3,690.8z"/>
				<path id="XMLID_170_" class="st55" d="M1369.2,683.8c0,0-15.6,12.3-34.4,14.9c0,0-44.4-80.8-52.3-92.8c0,0-3.9,0.3-5.4-2.3
					c0,0-0.7,3.6-5.9,3c-5.2-0.7-10.7,1.3-10.7,1.3s-114.4,2.2-128.6,3.5s-28.3-24.8-28.3-24.8c8.9-1.7,31.1-6.7,51.3-11.1
					c10.8-2.3,20.9-4.5,28.2-5.9c21-4.1,86-17.2,102.5-14.9c16.6,2.3,29.7,10.7,35.8,22c1.8,3.4,7,14.8,13.3,28.8
					C1349,637.6,1369.2,683.8,1369.2,683.8z"/>
				<path id="XMLID_169_" class="st76" d="M1339.1,606.2c-10.8-9.9-27.5-30.8-35.3-32.2s-52.9-3.6-81-3.5c-24.4,0.1-45.7,3-63.6,5.7
					c10.8-2.3,20.9-4.5,28.2-5.9c21-4.1,86-17.2,102.5-14.9c16.6,2.3,29.7,10.7,35.8,22C1327.6,580.8,1332.8,592.1,1339.1,606.2z"/>
				<path id="XMLID_168_" class="st53" d="M1376.5,692.8c0,0,7.4,1.9,21.4,0c0,0-11.8,15.7-19.6,18.7c-7.9,3-14.2,7.1-14.2,7.1
					l-9.4-17.7L1376.5,692.8z"/>
				<path id="XMLID_167_" class="st38" d="M1441.9,692.4c-2-1.1-2.5-5.6-5.2-5.8c-6.7-0.5-13.7,1.4-24,3.2
					c-6.2,1.1-20.7,2.6-26.9,3.3c-7.9,10.8-14.5,11.8-27.7,17.2l9.5,22.9l14.3-6.3l-0.9-5.1l13.2-0.5
					C1408.6,714.6,1441.9,692.4,1441.9,692.4z"/>
				<g id="XMLID_125_">
					<g id="XMLID_161_">
						<path id="XMLID_164_" class="st29" d="M1257.1,560.8h89.7c1.3,0,2.7-1,3.1-2.1l21.6-70.3c0.4-1.2-0.4-2.1-1.7-2.1h-89.7
							c-1.3,0-2.7,1-3.1,2.1l-21.6,70.3C1255.1,559.9,1255.8,560.8,1257.1,560.8z"/>
					</g>
					<path id="XMLID_160_" class="st77" d="M1311.4,530h9.2c1.5,0,3.1-1.1,3.6-2.5l1.7-4.9c0.5-1.4-0.4-2.5-1.9-2.5h-9.2
						c-1.5,0-3.1,1.1-3.6,2.5l-1.7,4.9C1309.1,528.9,1309.9,530,1311.4,530z"/>
				</g>
				<g id="XMLID_112_">
					<g id="XMLID_118_">
						<path id="XMLID_122_" class="st74" d="M1326.8,722.5l1.8,19.1c0,0-11.2,2.5-23.8,1.3l-0.9-20.8L1326.8,722.5z"/>
						<path id="XMLID_121_" class="st53" d="M1328,735.4c0,0,6,4.3,19.7,7.6c0,0-17.6,10.3-26.2,10.2c-8.5,0-16.1,1.5-16.1,1.5
							l-1-19.6L1328,735.4z"/>
						<path id="XMLID_120_" class="st38" d="M1390.3,763.5c0.3-2,0.4-7.4-2-8.6c-5.5-2.8-10-2.9-24.3-7.6c-6.2-2-20.5-7.2-26.7-9.1
							c-12.7,6.9-19.3,5.3-34.3,5.1l-1,25.2l15-0.3l0.1-5.7l14.1,5.5C1348.1,767.1,1390.3,763.5,1390.3,763.5z"/>
						<path id="XMLID_119_" class="st75" d="M1312.2,740.3c5.3-1.1,10.7-2.7,15.9-4.5l-1.2-13.3l-23-0.5l0.9,19.5
							C1307.1,741.3,1309.6,740.9,1312.2,740.3z"/>
					</g>
					<path id="XMLID_117_" class="st38" d="M1204.1,609.8c0,0,24.7-7.9,39.1-11c14.3-3.1,38.2-13,43.2-12.5c5,0.6,18,0.1,22,18.2
						c4.1,18.1,21.4,125.1,21.4,125.1s-23.6,11.2-37.4,8.8L1260.5,612L1204.1,609.8z"/>
				</g>
			</g>
			
				<linearGradient id="SVGID_51_" gradientUnits="userSpaceOnUse" x1="1082.5" y1="356.0581" x2="1158.9597" y2="356.0581" gradientTransform="matrix(1 0 0 -1 0 964)">
				<stop  offset="0" style="stop-color:#478DFF"/>
				<stop  offset="1" style="stop-color:#00157E"/>
			</linearGradient>
			<path class="st78" d="M1082.5,586.9c0,0,57.4-5,74.2,26.7c16.6,31.7-63.7,5.5-63.7,5.5"/>
			<g id="Group-7_2_" transform="translate(97.000000, 163.000000)" class="st79">
				<g id="Shape_10_">
					<path class="st58" d="M913.3,217h-1.6c0-22.2-18.1-40.3-40.2-40.3c-17.6,0-33,11.2-38.4,27.9l-1.5-0.5
						c5.6-17.3,21.6-29,39.9-29C894.5,175.1,913.3,193.9,913.3,217z"/>
				</g>
				<g id="Shape_9_">
					<path class="st58" d="M913.3,216.7h-1.6c0-22.2-18.1-40.3-40.2-40.3c-17.6,0-33,11.2-38.4,27.9l-1.5-0.5
						c5.6-17.3,21.6-29,39.9-29C894.5,174.8,913.3,193.6,913.3,216.7z"/>
				</g>
				<g id="Oval_1_">
					<ellipse class="st58" cx="976" cy="230.9" rx="3.3" ry="3.3"/>
				</g>
				<g id="Shape_8_">
					<path class="st58" d="M834.3,227.3l-1.2-1c2.2-2.6,3.5-6,3.5-9.6c0-8.2-6.7-14.9-14.8-14.9c-8.2,0-14.8,6.7-14.8,14.9v0.8
						h-38.4v-1.6h36.9c0.4-8.7,7.6-15.7,16.4-15.7c9,0,16.4,7.4,16.4,16.4C838.2,220.6,836.8,224.4,834.3,227.3z"/>
				</g>
				<g id="Shape_7_">
					<rect x="898.9" y="217.4" class="st58" width="38" height="1.6"/>
				</g>
				<g id="Shape_6_">
					<rect x="916.6" y="231" class="st58" width="48.9" height="1.6"/>
				</g>
			</g>
			<g id="Group-5_1_" transform="translate(1047.000000, 366.000000)" class="st79">
				<g id="Shape_5_">
					<path class="st58" d="M436.3-43.2h-2c0-18.1-14.7-32.9-32.8-32.9c-14.3,0-26.9,9.1-31.3,22.7l-1.9-0.6
						c4.6-14.4,18-24.1,33.2-24.1C420.7-78,436.3-62.4,436.3-43.2z"/>
				</g>
				<g id="Shape_4_">
					<path class="st58" d="M436.3-43.4h-2c0-18.1-14.7-32.9-32.8-32.9c-14.3,0-26.9,9.1-31.3,22.7l-1.9-0.6
						c4.6-14.4,18-24.1,33.2-24.1C420.7-78.3,436.3-62.6,436.3-43.4z"/>
				</g>
				<g id="Shape_3_">
					<path class="st58" d="M470.6-42.5h-17.2v-1c0-6.7-5.4-12.1-12.1-12.1c-2.5,0-4.9,0.8-6.9,2.2l-1.1-1.6c2.4-1.7,5.2-2.5,8-2.5
						c7.4,0,13.5,5.8,14,13.1h15.3L470.6-42.5L470.6-42.5z"/>
				</g>
				<g id="Shape_2_">
					<path class="st58" d="M371.2-34.5l-1.5-1.3c1.8-2.1,2.8-4.8,2.8-7.7c0-6.6-5.3-11.9-11.9-11.9s-11.9,5.3-11.9,11.9v1h-32v-2h30
						c0.5-7.2,6.5-12.9,13.8-12.9c7.6,0,13.8,6.2,13.8,13.9C374.5-40.2,373.3-37,371.2-34.5z"/>
				</g>
				<g id="Shape_1_">
					<rect x="282.9" y="-32.1" class="st58" width="59.3" height="2"/>
				</g>
			</g>
			<g class="st79">
				<path id="Fill-9_1_" class="st58" d="M844.1,752.8c0,2.9,2.4,5.3,5.3,5.3c2.9,0,5.3-2.4,5.3-5.3c0-2.9-2.4-5.3-5.3-5.3
					S844.1,749.9,844.1,752.8"/>
				<g id="Stroke-11_3_">
					<path class="st58" d="M886.9,452.1c-3.7,0-6.6-3-6.6-6.6s3-6.6,6.6-6.6s6.6,3,6.6,6.6S890.5,452.1,886.9,452.1z M886.9,441.4
						c-2.2,0-4,1.8-4,4s1.8,4,4,4s4-1.8,4-4C890.9,443.2,889.1,441.4,886.9,441.4z"/>
				</g>
				<g>
					<g id="Stroke-13_1_">
						<path class="st58" d="M1482.1,359.2c-0.7,0-1.3-0.6-1.3-1.3v-11.8c0-0.7,0.6-1.3,1.3-1.3s1.3,0.6,1.3,1.3v11.8
							C1483.4,358.6,1482.8,359.2,1482.1,359.2z"/>
					</g>
					<g id="Stroke-15_1_">
						<path class="st58" d="M1488.6,353.9h-11.8c-0.7,0-1.3-0.6-1.3-1.3s0.6-1.3,1.3-1.3h11.8c0.7,0,1.3,0.6,1.3,1.3
							S1489.3,353.9,1488.6,353.9z"/>
					</g>
				</g>
				<g id="Fill-23_1_">
					<path class="st58" d="M1119.9,443.8c0-1.9-1.5-3.4-3.4-3.4s-3.4,1.5-3.4,3.4s1.5,3.4,3.4,3.4S1119.9,445.7,1119.9,443.8"/>
				</g>
				<g id="Stroke-7_1_">
					<path class="st58" d="M1427.3,423.6c-3.7,0-6.6-3-6.6-6.6s3-6.6,6.6-6.6c3.7,0,6.6,3,6.6,6.6S1430.9,423.6,1427.3,423.6z
						 M1427.3,412.9c-2.2,0-4,1.8-4,4s1.8,4,4,4s4-1.8,4-4C1431.3,414.7,1429.5,412.9,1427.3,412.9z"/>
				</g>
				<g id="Stroke-11_2_">
					<path class="st58" d="M893.5,765.8c-3.7,0-6.6-3-6.6-6.6c0-3.7,3-6.6,6.6-6.6s6.6,3,6.6,6.6S897.1,765.8,893.5,765.8z
						 M893.5,755.1c-2.2,0-4,1.8-4,4s1.8,4,4,4s4-1.8,4-4C897.5,756.9,895.7,755.1,893.5,755.1z"/>
				</g>
				<g id="Fill-21_1_">
					<path class="st58" d="M1768,701.8c0-1.9-1.5-3.4-3.4-3.4s-3.4,1.5-3.4,3.4s1.5,3.4,3.4,3.4C1766.4,705.2,1768,703.6,1768,701.8
						"/>
				</g>
				<g>
					<g id="Stroke-1_1_">
						<path class="st58" d="M1797.3,531.9c-0.7,0-1.3-0.6-1.3-1.3v-9.2c0-0.7,0.6-1.3,1.3-1.3s1.3,0.6,1.3,1.3v9.2
							C1798.6,531.3,1798,531.9,1797.3,531.9z"/>
					</g>
					<g id="Stroke-3_1_">
						<path class="st58" d="M1802.5,528h-9.2c-0.7,0-1.3-0.6-1.3-1.3s0.6-1.3,1.3-1.3h9.2c0.7,0,1.3,0.6,1.3,1.3
							S1803.2,528,1802.5,528z"/>
					</g>
				</g>
				<g id="Stroke-27_1_">
					<path class="st58" d="M1636.1,305.7c-3.7,0-6.6-3-6.6-6.6c0-3.7,3-6.6,6.6-6.6c3.7,0,6.6,3,6.6,6.6
						C1642.7,302.8,1639.7,305.7,1636.1,305.7z M1636.1,295.1c-2.2,0-4,1.8-4,4s1.8,4,4,4s4-1.8,4-4S1638.3,295.1,1636.1,295.1z"/>
				</g>
			</g>
		</g>
		<g>
			<g>
				<g>
					<g>
						<path id="XMLID_44_" class="st32" d="M1155.5,688.9c0,0-12.2,2.7-36.6-5s-56.1-21.5-75.6-6.9s-38.1,57.1,2.5,71.6
							s0.8,30-10.6,11.3c0,0,7.3,18.7,26,13s13.3-24.4-7.1-31.7c-20.5-7.3-9.9-6.6-9.9-6.6s47.1,8.5,61,9.6l26.6-1.4"/>
					</g>
					<g>
						<g>
							<g>
								<g>
									<g>
										<defs>
											<path id="SVGID_52_" d="M1155.5,688.9c0,0-12.2,2.7-36.6-5s-56.1-21.5-75.6-6.9s-38.1,57.1,2.5,71.6s0.8,30-10.6,11.3
												c0,0,7.3,18.7,26,13s13.3-24.4-7.1-31.7c-20.5-7.3-9.9-6.6-9.9-6.6s47.1,8.5,61,9.6l26.6-1.4"/>
										</defs>
										<clipPath id="SVGID_53_">
											<use xlink:href="#SVGID_52_"  style="overflow:visible;"/>
										</clipPath>
										<path class="st80" d="M1030.9,756.1c6.4,2.6,10,5.3,16.5,7c3,0.8,5,1.1,8.5,1c0.1,0,0.2,0,0.3,0c0.1,0,0.3-0.1,0.5-0.1
											c0.5-0.1,1-0.2,1.5-0.3c-0.3,0.1,0.7-0.3,0.9-0.5c0.8-0.5,1.8-0.9,2.7-1.2c2.5-0.9,5.8,1,6.4,3.6
											c2.3,11.1-12.5,13.7-20.4,12.8c-8.6-1.1-20.3-3.5-25.7-11C1018.5,762.1,1024.8,753.6,1030.9,756.1z"/>
									</g>
								</g>
							</g>
						</g>
					</g>
					<g>
						<g>
							<g>
								<g>
									<g>
										<defs>
											<path id="SVGID_54_" d="M1155.5,688.9c0,0-12.2,2.7-36.6-5s-56.1-21.5-75.6-6.9s-38.1,57.1,2.5,71.6s0.8,30-10.6,11.3
												c0,0,7.3,18.7,26,13s13.3-24.4-7.1-31.7c-20.5-7.3-9.9-6.6-9.9-6.6s47.1,8.5,61,9.6l26.6-1.4"/>
										</defs>
										<clipPath id="SVGID_55_">
											<use xlink:href="#SVGID_54_"  style="overflow:visible;"/>
										</clipPath>
										<path class="st81" d="M1014.1,692.5c4-8,15.6-3.2,21.6-0.6c3.9,1.7,9.2,4,12.3-0.4c5.5-7.6,6.1-24.4,18.5-24.1
											c1.8,0,2.2,2.2,0.9,3.1c-4.2,3-4.2,9.9-4.9,14.5c-1,6.4-2.5,12.5-7,17.4c-5.3,5.5-13.8,6-20.6,3.9c-3.1-1-6.1-2.4-9.2-3.3
											c-3.8-1.1-7.5,0.4-10.6-3C1013.1,697.9,1012.8,695.1,1014.1,692.5z"/>
									</g>
								</g>
							</g>
						</g>
					</g>
					<g>
						<g>
							<g>
								<g>
									<g>
										<defs>
											<path id="SVGID_56_" d="M1155.5,688.9c0,0-12.2,2.7-36.6-5s-56.1-21.5-75.6-6.9s-38.1,57.1,2.5,71.6s0.8,30-10.6,11.3
												c0,0,7.3,18.7,26,13s13.3-24.4-7.1-31.7c-20.5-7.3-9.9-6.6-9.9-6.6s47.1,8.5,61,9.6l26.6-1.4"/>
										</defs>
										<clipPath id="SVGID_57_">
											<use xlink:href="#SVGID_56_"  style="overflow:visible;"/>
										</clipPath>
										<path class="st82" d="M1028.3,689c-1.8-4.3,1.1-10.2,3.4-13.7c1.6-2.4,3.3-4.9,5.3-6.9c1-1,2.2-1.9,3.3-2.8
											c0.4-0.3,2.8-2.2,1.3-0.9c2.7-2.1,6-1.6,7.9,0.2c0.1,0,0.1-0.1,0.2-0.1c4.8-3.1,12.3,2.1,10.1,7.8c-0.4,1-0.9,2.2-1.5,3.4
											c-0.3,4.3-2.8,8.9-4.7,12c-3.5,6-8.4,12.9-14.6,16.3c-2.4,1.3-5.5,1.1-7.5-1C1027.3,698.9,1026.8,693.9,1028.3,689z"/>
									</g>
								</g>
							</g>
						</g>
					</g>
					<g>
						<g>
							<g>
								<g>
									<g>
										<defs>
											<path id="SVGID_58_" d="M1155.5,688.9c0,0-12.2,2.7-36.6-5s-56.1-21.5-75.6-6.9s-38.1,57.1,2.5,71.6s0.8,30-10.6,11.3
												c0,0,7.3,18.7,26,13s13.3-24.4-7.1-31.7c-20.5-7.3-9.9-6.6-9.9-6.6s47.1,8.5,61,9.6l26.6-1.4"/>
										</defs>
										<clipPath id="SVGID_59_">
											<use xlink:href="#SVGID_58_"  style="overflow:visible;"/>
										</clipPath>
										<path class="st83" d="M1092.3,663c-0.1,0-0.1,0-0.2,0c0.4-0.6,1-1,1.7-1.3c1.6-0.9,3.7-1,5.9,0.3
											c6.7,4.2,21,17.5,23.6,16.8c1.8-0.5,2.9,1.4,2.2,2.9c-2.9,6.2-11,14.2-18.2,10.7c-7.8-3.7-9.9-14.4-15.1-20.7
											C1089.8,669,1090.4,665.2,1092.3,663z"/>
									</g>
								</g>
							</g>
						</g>
					</g>
					<g>
						<g>
							<g>
								<g>
									<g>
										<defs>
											<path id="SVGID_60_" d="M1155.5,688.9c0,0-12.2,2.7-36.6-5s-56.1-21.5-75.6-6.9s-38.1,57.1,2.5,71.6s0.8,30-10.6,11.3
												c0,0,7.3,18.7,26,13s13.3-24.4-7.1-31.7c-20.5-7.3-9.9-6.6-9.9-6.6s47.1,8.5,61,9.6l26.6-1.4"/>
										</defs>
										<clipPath id="SVGID_61_">
											<use xlink:href="#SVGID_60_"  style="overflow:visible;"/>
										</clipPath>
										<path class="st84" d="M1101.3,664.3c4.4,0.8,7.1,4.6,8.2,8.7c0.9,3.4,0.6,8.2-2.4,10.4c-1,0.7-2.5,0.4-3.3-0.4
											c-1.6-1.6-2-4.3-2.9-6.3c-1.1-2.4-2.9-4.3-3.9-6.7C1095.5,666.8,1097.7,663.6,1101.3,664.3z"/>
									</g>
								</g>
							</g>
						</g>
					</g>
					<g>
						<g>
							<g>
								<g>
									<g>
										<defs>
											<path id="SVGID_62_" d="M1155.5,688.9c0,0-12.2,2.7-36.6-5s-56.1-21.5-75.6-6.9s-38.1,57.1,2.5,71.6s0.8,30-10.6,11.3
												c0,0,7.3,18.7,26,13s13.3-24.4-7.1-31.7c-20.5-7.3-9.9-6.6-9.9-6.6s47.1,8.5,61,9.6l26.6-1.4"/>
										</defs>
										<clipPath id="SVGID_63_">
											<use xlink:href="#SVGID_62_"  style="overflow:visible;"/>
										</clipPath>
										<path class="st85" d="M1061.5,722.5c5.7-2.5,11-0.4,13.6,5.1c1,2.2,1.7,4.5,2.2,6.8c0.2,0.8,0.3,1.7,0.5,2.6
											c0,0.1,0.1,0.3,0.1,0.4c0.2,0.8,0.5,1.6,0.9,2.3c1.3,2.1-1.1,5.1-3.3,4.1c-1.1,0.7-2.3,1.1-3.7,1.3
											c-4.3,0.6-9.4-4.6-11.8-7.7C1056.5,733,1055,725.4,1061.5,722.5z"/>
									</g>
								</g>
							</g>
						</g>
					</g>
				</g>
				<path class="st31" d="M1186.3,669.1c0,0,17.3,5.4,20.1,23.8c2.7,18.4,6.5,40.6,22.8,39.6c16.3-1.1,32,16.5-3.8,15
					s-36.9-13.9-36.9-13.9"/>
				<g>
					<path class="st32" d="M1147.8,735.7l17.9,8.1c0,0,16.3,3.6,15.7,15.2c-0.5,10.3-27.1,4.8-26-7l-25.5-8.1"/>
					<path class="st32" d="M1186,732.5l17.9,8.1c0,0,16.3,3.6,15.7,15.2c-0.5,10.3-27.1,4.8-26-7l-25.5-8.1"/>
				</g>
				<path class="st32" d="M1166.2,660.4c15.7,1.2,26.6,7.6,33.1,34.7c6.5,27.1,14,52.5-10,53.1c-11.9,0.3-20.7,1.3-28.7-2.2
					c-12.6-5.4-17.9-23.2-21.9-34.7C1132.1,692.9,1123.4,657.2,1166.2,660.4z"/>
				<path class="st31" d="M1140.8,687.5c-5.4,12.5,3.3,9.2,10.3,37.4s-36.9,26-52.6,18.7s13-10.6,22.2-19.3s0.5-24.9,3.8-35.5
					s11.9-14.9,11.9-14.9"/>
				<g>
					<path class="st31" d="M1169.4,702.1c-1.3,1.6-2.5,2.8-3.5,3.2c-0.5,0.2-1,0.3-1.5,0.4c-0.3,0-0.5,0.1-0.8,0c-0.1,0-0.3,0-0.4,0
						l-0.5-0.1c-1.2-0.1-2.4-0.5-3.8-1c-1.4-0.6-2.8-1.4-4.6-2.5c-0.2,2.1,0.6,4.1,2,5.7c1.4,1.6,3.5,2.8,5.8,3
						c1.1,0.1,2.3,0,3.5-0.3c1.2-0.4,2.3-1.2,3.1-2.2C1170.1,706.3,1170.2,704,1169.4,702.1z"/>
					<path class="st31" d="M1197,701c-1.2,1.2-2.2,1.9-3,2c-0.4,0.1-0.6,0.1-0.9,0c-0.3,0-0.6,0-1-0.1c-0.8-0.1-1.5-0.2-2.6-0.5
						c-1-0.3-2.2-0.8-3.7-1.5c-0.4,1.7,0.1,3.3,1.1,4.7c1,1.3,2.7,2.4,4.6,2.5c0.9,0.1,1.9,0,2.9-0.3c1-0.4,1.9-1,2.5-1.9
						C1198,704.3,1197.9,702.4,1197,701z"/>
				</g>
				<path class="st31" d="M1117.2,733.4c0.7-0.8,1.3-1.7,1.5-2.8s0.1-2.3-0.5-3.3c-1.1-2.1-3.4-3.3-5.5-3.7c-2.2-0.5-4.5-0.3-6.6,0
					c-2.2,0.4-4.3,1.1-6.3,1.9l0.5-0.1c-3.9-0.3-7.7-0.4-11.6-0.6l0.6,2.4c2.5-1.7,4.8-3.7,6.8-6s3.8-4.9,4.6-7.9
					c0.4-1.5,0.6-3.1,0.4-4.7c-0.2-1.6-0.8-3.1-1.6-4.4c-1.7-2.6-4.1-4.4-6.7-5.8c2.2,1.8,4.4,3.9,5.6,6.4s1.3,5.3,0.3,7.8
					c-0.9,2.5-2.6,4.8-4.5,6.8s-4.1,3.9-6.4,5.5l-3.2,2.2l3.9,0.2c3.9,0.2,7.7,0.4,11.6,0.5h0.3l0.2-0.1c1.9-0.9,3.8-1.5,5.7-2
					c2-0.5,4-0.7,5.9-0.5s3.9,1,5,2.6c0.5,0.8,0.8,1.8,0.8,2.8C1118.1,731.5,1117.8,732.5,1117.2,733.4z"/>
				<g>
					<g>
						<path class="st86" d="M1171.6,678.8c0,0,13,33.5,17.3,35.8c4.3,2.2,17.9,9.8,17.3,21.2c-0.5,11.4-12.5,15.2-23.3,14.6
							c-10.8-0.5-29.9-1.5-31.2-11.1c-1.3-9.5,12.8-15.5,18.2-22.5C1175.4,709.7,1171.6,678.8,1171.6,678.8z"/>
						<path class="st87" d="M1166.9,732.7c0.1-0.2,0.2-0.3,0.3-0.5c0.3-0.5,1-0.6,1.5-0.2c0.5,0.5,0.3,1.1-0.2,1.5
							c-0.2,0.1-0.3,0.2-0.5,0.3C1167.4,734.3,1166.4,733.4,1166.9,732.7z"/>
						<path class="st87" d="M1169,739.7c1.2,0,1.2,1.7,0,1.7S1167.8,739.7,1169,739.7z"/>
						<path class="st87" d="M1163.1,744c0-0.1,0.1-0.3,0.1-0.4c0.2-0.7,1.1-0.7,1.3,0c0,0.1,0.1,0.3,0.1,0.4c0.2,0.5-0.3,1-0.8,1
							C1163.4,745.1,1162.9,744.6,1163.1,744z"/>
						<path class="st87" d="M1164.9,735.7c0.6,0,0.6,1.4,0,1.4C1163.7,737.1,1163.7,735.7,1164.9,735.7z"/>
						<path class="st87" d="M1158.1,739.2c0.3-0.9,1.5-0.9,1.8,0c0.1,0.2,0,0.4,0,0.6c0,0.5-0.4,0.9-0.9,0.9s-0.9-0.4-0.9-0.9
							C1158,739.5,1158,739.4,1158.1,739.2z"/>
						<path class="st87" d="M1202.5,730.9c0.6,0,0.6,1.2,0,1.2S1201.9,730.9,1202.5,730.9z"/>
						<path class="st87" d="M1202.5,735.2c1.2,0,1.2,1.6,0,1.6S1201.3,735.2,1202.5,735.2z"/>
						<path class="st87" d="M1197.2,740.9c1.8,0,1.8,1.8,0,1.8C1196,742.7,1196,740.9,1197.2,740.9z"/>
						<path class="st87" d="M1198.4,735.3c1.2,0,1.2,1.4,0,1.4C1197.2,736.7,1197.2,735.3,1198.4,735.3z"/>
					</g>
					<g>
						<path class="st31" d="M1181.9,728.7c8.1-0.2,16.8-1.8,14.1,5.9c-2.7,7.7-4.9,12-9.8,12s-10.2-4.2-12.7-7.9
							C1170.1,733.5,1171.6,729,1181.9,728.7z"/>
						<path class="st88" d="M1183.1,731.1c-0.6,0,8.2-0.8,9.5,0.4c1.2,1.2-0.6,8.2-3.9,11.1C1188.6,742.6,1195.4,730.4,1183.1,731.1
							z"/>
					</g>
				</g>
			</g>
		</g>
	</g>
</g>
<g class="st89">
	
		<linearGradient id="SVGID_64_" gradientUnits="userSpaceOnUse" x1="946.7422" y1="1605.6326" x2="946.7422" y2="2125" gradientTransform="matrix(1 0 0 -1 0 2125)">
		<stop  offset="0" style="stop-color:#FFFFFF;stop-opacity:0"/>
		<stop  offset="1" style="stop-color:#FFFFFF"/>
	</linearGradient>
	<path class="st90" d="M1026.2,519.4c27.8-55.2,55.9-116.7,86.6-189.5c52-123.2,128.8-238,225.6-329.9H731.3
		c-58.1,133.4-105.3,214.6-176.2,306.7C714.3,438,818.1,491.2,1026.2,519.4z"/>
	
		<linearGradient id="SVGID_65_" gradientUnits="userSpaceOnUse" x1="1339.7598" y1="1596.5146" x2="1339.7598" y2="2125" gradientTransform="matrix(1 0 0 -1 0 2125)">
		<stop  offset="0" style="stop-color:#FFFFFF;stop-opacity:0"/>
		<stop  offset="1" style="stop-color:#FFFFFF"/>
	</linearGradient>
	<path class="st91" d="M1653.4,325.5V0h-315c-96.7,91.8-173.7,206.7-225.6,329.9c-30.7,72.8-58.7,134.4-86.6,189.5
		c2.5,0.3,5,0.7,7.6,1C1308.7,556.4,1531.4,469.1,1653.4,325.5z"/>
	
		<linearGradient id="SVGID_66_" gradientUnits="userSpaceOnUse" x1="1320.0057" y1="1531.9" x2="1320.0057" y2="1799.4684" gradientTransform="matrix(1 0 0 -1 0 2125)">
		<stop  offset="0" style="stop-color:#FFFFFF;stop-opacity:0"/>
		<stop  offset="1" style="stop-color:#FFFFFF"/>
	</linearGradient>
	<path class="st92" d="M1653.4,593.1V325.5c-122,143.5-344.7,230.8-619.6,194.9c-2.6-0.3-5-0.7-7.6-1
		c-13.1,25.9-26.1,50.3-39.5,73.7H1653.4L1653.4,593.1z"/>
	
		<linearGradient id="SVGID_67_" gradientUnits="userSpaceOnUse" x1="272.4995" y1="68.7189" x2="272.4995" y2="-447.3183" gradientTransform="matrix(1 0 0 1 0 524.3811)">
		<stop  offset="0" style="stop-color:#FFFFFF;stop-opacity:0"/>
		<stop  offset="1" style="stop-color:#FFFFFF"/>
	</linearGradient>
	<path class="st93" d="M444.5,212.1C300,84.9,122.5,51.1-10.2,95.8v463.7v33.6h241.9c56.1-28,108.8-64.3,152.6-100.2l0,0
		c35.9-29.4,65.7-58.7,86.6-83.1c32-37.4,59.5-70.8,84.3-102.9C521.3,278.9,485,247.6,444.5,212.1z"/>
	
		<linearGradient id="SVGID_68_" gradientUnits="userSpaceOnUse" x1="628.8098" y1="68.6337" x2="628.8098" y2="-217.6023" gradientTransform="matrix(1 0 0 1 0 524.3811)">
		<stop  offset="0" style="stop-color:#FFFFFF;stop-opacity:0"/>
		<stop  offset="1" style="stop-color:#FFFFFF"/>
	</linearGradient>
	<path class="st94" d="M555.1,306.8c-24.7,32.1-52.3,65.5-84.3,102.9c-20.9,24.4-50.8,53.7-86.6,83.1l0,0
		c-43.7,35.9-96.5,72.1-152.6,100.2h388.9h179.2h186.9c13.3-23.4,26.3-47.9,39.5-73.7C818.1,491.2,714.3,438,555.1,306.8z"/>
</g>
<g class="st89">
	
		<linearGradient id="SVGID_69_" gradientUnits="userSpaceOnUse" x1="3185.45" y1="817.9435" x2="3185.45" y2="1333.7048" gradientTransform="matrix(-0.853 -0.522 -0.522 0.853 3418.9172 1250.1415)">
		<stop  offset="0" style="stop-color:#FFFFFF;stop-opacity:0"/>
		<stop  offset="1" style="stop-color:#FFFFFF"/>
	</linearGradient>
	<path class="st95" d="M197.4,237.7c-45.7,32.5-94.5,70.4-150.4,116.5c-94.5,78-203.7,136-317,164.4l447.3,311.5
		c103.8-83.6,175.6-128.4,269.9-170.2C390,466.8,337.8,368.4,197.4,237.7z"/>
	
		<linearGradient id="SVGID_70_" gradientUnits="userSpaceOnUse" x1="3551.969" y1="801.1031" x2="3551.969" y2="1301.5743" gradientTransform="matrix(-0.853 -0.522 -0.522 0.853 3418.9172 1250.1415)">
		<stop  offset="0" style="stop-color:#FFFFFF;stop-opacity:0"/>
		<stop  offset="1" style="stop-color:#FFFFFF"/>
	</linearGradient>
	<path class="st96" d="M-353.3,80.6L-502,357.1l232,161.6c113.2-28.4,222.4-86.4,317-164.4c55.9-46,104.6-84,150.4-116.5
		c-1.6-1.6-3.3-3.1-5.1-4.7C6.1,61.3-197.9,21.2-353.3,80.6z"/>
	
		<linearGradient id="SVGID_71_" gradientUnits="userSpaceOnUse" x1="3543.5537" y1="713.6517" x2="3543.5537" y2="971.4405" gradientTransform="matrix(-0.853 -0.522 -0.522 0.853 3418.9172 1250.1415)">
		<stop  offset="0" style="stop-color:#FFFFFF;stop-opacity:0"/>
		<stop  offset="1" style="stop-color:#FFFFFF"/>
	</linearGradient>
	<path class="st97" d="M-231.1-146.8L-353.4,80.6C-197.9,21.2,6,61.3,192.2,233c1.7,1.6,3.4,3.1,5.1,4.7
		c21.5-15.2,42.2-29.3,62.8-42.4L-231.1-146.8L-231.1-146.8z"/>
	
		<linearGradient id="SVGID_72_" gradientUnits="userSpaceOnUse" x1="2583.499" y1="811.3371" x2="2583.499" y2="307.3341" gradientTransform="matrix(-0.853 -0.522 0.522 -0.853 2583.3938 2615.4714)">
		<stop  offset="0" style="stop-color:#FFFFFF;stop-opacity:0"/>
		<stop  offset="1" style="stop-color:#FFFFFF"/>
	</linearGradient>
	<path class="st98" d="M485.5,797.3c48.4,182.2,163.8,302,282,332.1l211.8-394l15.3-28.5l-178.2-124c-54.1-4.9-109.5-1.3-158.2,6.8
		l0,0c-39.9,6.6-75.3,16.1-101.8,26.2c-40.7,15.4-76.2,29.6-109.1,44.2C459.4,701.1,471.9,746.2,485.5,797.3z"/>
	
		<linearGradient id="SVGID_73_" gradientUnits="userSpaceOnUse" x1="2922.1294" y1="851.5676" x2="2922.1294" y2="552.9246" gradientTransform="matrix(-0.853 -0.522 0.522 -0.853 2583.3938 2615.4714)">
		<stop  offset="0" style="stop-color:#FFFFFF;stop-opacity:0"/>
		<stop  offset="1" style="stop-color:#FFFFFF"/>
	</linearGradient>
	<path class="st99" d="M447.3,660c32.9-14.6,68.4-28.9,109.1-44.2c26.6-10,62-19.6,101.8-26.2l0,0c48.6-8,104.1-11.8,158.3-6.9
		L529.9,383.2l-132-91.9l-137.8-96c-20.5,13.1-41.3,27.2-62.8,42.4C337.8,368.4,390,466.8,447.3,660z"/>
</g>
<g class="st89">
	
		<linearGradient id="SVGID_74_" gradientUnits="userSpaceOnUse" x1="1426.3003" y1="-1324.1642" x2="1426.3003" y2="-892.4977" gradientTransform="matrix(-0.522 0.853 0.853 0.522 3240.7913 -10.7991)">
		<stop  offset="0" style="stop-color:#FFFFFF;stop-opacity:0"/>
		<stop  offset="1" style="stop-color:#FFFFFF"/>
	</linearGradient>
	<path class="st100" d="M1341,556.7c25.3,46,54.7,95.1,90.5,151.3c60.6,95.1,105.8,205,127.8,319l242.1-450.2
		c-64.9-104.4-99.7-176.7-132.3-271.7C1519,362.9,1442.5,415.4,1341,556.7z"/>
	
		<linearGradient id="SVGID_75_" gradientUnits="userSpaceOnUse" x1="1751.5808" y1="-1326.5938" x2="1751.5808" y2="-877.7489" gradientTransform="matrix(-0.522 0.853 0.853 0.522 3240.7913 -10.7991)">
		<stop  offset="0" style="stop-color:#FFFFFF;stop-opacity:0"/>
		<stop  offset="1" style="stop-color:#FFFFFF"/>
	</linearGradient>
	<path class="st101" d="M1218.8,1110.9l214.9,149.6l125.6-233.5c-22.1-113.9-67.2-223.8-127.8-319c-35.8-56.2-65.3-105.3-90.5-151.3
		c-1.2,1.7-2.4,3.4-3.6,5.1C1203.9,749.3,1172.8,954.5,1218.8,1110.9z"/>
	
		<linearGradient id="SVGID_76_" gradientUnits="userSpaceOnUse" x1="1725.6541" y1="-1385.1936" x2="1725.6541" y2="-1139.0734" gradientTransform="matrix(-0.522 0.853 0.853 0.522 3240.7913 -10.7991)">
		<stop  offset="0" style="stop-color:#FFFFFF;stop-opacity:0"/>
		<stop  offset="1" style="stop-color:#FFFFFF"/>
	</linearGradient>
	<path class="st102" d="M1042.2,987.9l176.6,123.1c-46.1-156.4-14.9-361.7,118.5-549.1c1.3-1.7,2.5-3.5,3.6-5.1
		c-11.8-21.6-22.8-42.5-32.9-63.1L1042.2,987.9L1042.2,987.9z"/>
	
		<linearGradient id="SVGID_77_" gradientUnits="userSpaceOnUse" x1="845.4493" y1="3032.5715" x2="845.4493" y2="2612.0212" gradientTransform="matrix(-0.522 0.853 -0.853 -0.522 4606.1211 824.7244)">
		<stop  offset="0" style="stop-color:#FFFFFF;stop-opacity:0"/>
		<stop  offset="1" style="stop-color:#FFFFFF"/>
	</linearGradient>
	<path class="st103" d="M1775.8,266.8C1917.4,218.1,2010.4,102,2033.9-17l-306.1-213.2l-22.2-15.4l-96.5,179.3
		c-3.9,54.5-1,110.2,5.3,159.2l0,0c5.1,40.1,12.5,75.7,20.3,102.5c12,41,23.1,76.7,34.4,109.8C1701,293,1736.1,280.5,1775.8,266.8z"
		/>
	
		<linearGradient id="SVGID_78_" gradientUnits="userSpaceOnUse" x1="1139.9623" y1="3021.4302" x2="1139.9623" y2="2776.2124" gradientTransform="matrix(-0.522 0.853 -0.853 -0.522 4606.1211 824.7244)">
		<stop  offset="0" style="stop-color:#FFFFFF;stop-opacity:0"/>
		<stop  offset="1" style="stop-color:#FFFFFF"/>
	</linearGradient>
	<path class="st104" d="M1669.1,305.2c-11.3-33.1-22.4-68.9-34.4-109.8c-7.8-26.7-15.2-62.4-20.3-102.5l0,0
		c-6.2-49-9.1-104.8-5.4-159.3l-155,288.5L1382.5,355l-74.4,138.6c10.2,20.7,21.1,41.6,32.9,63.1
		C1442.5,415.4,1519,362.9,1669.1,305.2z"/>
</g>
</svg>
