<?xml version="1.0" encoding="utf-8"?>
<!-- Generator: Adobe Illustrator 21.0.0, SVG Export Plug-In . SVG Version: 6.00 Build 0)  -->
<svg version="1.1" id="Layer_1" xmlns="http://www.w3.org/2000/svg" xmlns:xlink="http://www.w3.org/1999/xlink" x="0px" y="0px"
	 viewBox="0 0 630 355" style="enable-background:new 0 0 630 355;" xml:space="preserve">
<style type="text/css">
	.st0{fill:#F2F3F4;}
	.st1{fill:#EDEEEF;}
	.st2{fill:#EEF6F8;}
	.st3{fill:#B3BCCE;}
	.st4{fill:#838CA1;}
	.st5{fill:#FFFFFF;}
	.st6{fill:#838CA1;stroke:#838CA1;stroke-miterlimit:10;}
	.st7{font-family:'Raleway-SemiBold';}
	.st8{font-size:28.8033px;}
</style>
<g>
	<path class="st0" d="M587.1,298.3l-2.5-1.8h-50.9c-2,0-3.6-1.6-3.6-3.6c0-2,1.6-3.6,3.6-3.6h47.6c1.6,0,2.9-1.6,2.9-3.6
		c0-2-1.3-3.6-2.9-3.6h-9.4l1.6-2.4H494l-0.2,25.3l-7.5,0.5c-7.2,4.2-43,3.5-48.4,1.3c-5.5-2.2-4.4-11.5-4.9-18s-13.6-8.7-13.6-8.7
		l-106.4,2.6l-5.4,2.2l-0.1,20.2c-23,7-45.6-1.2-45.6-1.2l-1.6-17.6c0,0-107.3,4.2-180.1,7.1c1.3,0.4,2.3,1.6,2.5,3.1h20
		c2,0,3.6,1.6,3.6,3.6c0,2-1.6,3.6-3.6,3.6h-31l0,0h89.8c2,0,3.6,1.6,3.6,3.6c0,0.5-0.1,1-0.3,1.5H92.9c-2,0-3.6,1.6-3.6,3.6
		c0,2,1.6,3.6,3.6,3.6H186c0.8,0,1.6-0.3,2.2-0.7h39.3c2,0,3.6,1.6,3.6,3.6c0,2-1.6,3.6-3.6,3.6h-18.2l0,0h-12c-2,0-3.6,1.6-3.6,3.6
		c0,2,1.6,3.6,3.6,3.6h65l17.9,2.5c-4.3-1.3-8.2-2.6-8.2-2.6L587.1,298.3z"/>
</g>
<g>
	<path class="st1" d="M579.7,305.8h26c2,0,3.6-1.6,3.6-3.6c0-1.5-0.9-2.7-2.1-3.3l-6.5-0.3h-13.3l-0.4-0.2l-315,31.3
		c0,0,3.9,1.3,8.2,2.6l3.3,0.4L579.7,305.8z"/>
</g>
<g>
	<path class="st1" d="M328.9,334.5c0,2-1.6,3.6-3.6,3.6h-93.1c-2,0-3.6-1.6-3.6-3.6l0,0c0-2,1.6-3.6,3.6-3.6h93.1
		C327.3,330.9,328.9,332.5,328.9,334.5L328.9,334.5z"/>
</g>
<g>
	<path class="st2" d="M605.7,298.5h-5l6.5,0.3C606.7,298.7,606.2,298.5,605.7,298.5z"/>
</g>
<g>
	<polygon class="st2" points="600.7,298.5 590,298 587.1,298.3 587.4,298.5 	"/>
</g>
<g>
	<g>
		<polygon class="st3" points="111.3,277 259.3,273 259.3,271.3 110.8,271 		"/>
	</g>
	<g>
		<path class="st0" d="M142,134.7c0,0,12.8,7.4,4.9,17.2c0,0,4.1,1.4,4.1,7.6h-40.9c0,0-4.6,6,12.5,6.5c17.2,0.5,38.5-0.8,38.5-0.8
			s9.5-7.9,4.4-12.3c-5.2-4.4-7.6-6.5-7.6-6.5S156.7,130.3,142,134.7z"/>
	</g>
	<g>
		<rect x="447.3" y="188.3" class="st3" width="4" height="10.5"/>
	</g>
	<g>
		<path class="st3" d="M458,149.8c0,0,5.4,23.2-1.1,25.4l5.6-0.2l3.3-9.5C465.8,165.6,458.1,144.6,458,149.8z"/>
	</g>
	<g>
		<polygon class="st3" points="329.9,275.8 305.6,275.8 305.6,272.3 341.9,272.3 		"/>
	</g>
	<g>
		<path class="st3" d="M415.6,277.2h18.2l0.4-2.2l-29.1-1.3C405.1,273.8,396.4,275,415.6,277.2z"/>
	</g>
	<g>
		<path class="st3" d="M434.2,275c0,0,25.5,3.7,45.6,0.5V273l-45.9-1.5L434.2,275z"/>
	</g>
	<g>
		<polygon class="st3" points="474.7,271.9 474.7,222.2 469.8,210.6 469.8,272 		"/>
	</g>
	<g>
		<polygon class="st3" points="450.2,207.8 450.2,271.6 443.3,271.6 443.3,207.8 		"/>
	</g>
	<g>
		<polygon class="st3" points="413.6,268.3 409.5,268.3 409.5,237.6 413.6,239.8 		"/>
	</g>
	<g>
		<polygon class="st3" points="395.3,237 395.3,242.5 398,244.7 398,268.5 392.9,268.5 392.9,243.6 389.8,241.9 389.8,237 		"/>
	</g>
	<g>
		<polyline class="st3" points="364.7,249.4 368.5,249.4 368.5,267.9 364,267.9 364.7,250 		"/>
	</g>
	<g>
		<path class="st3" d="M278.7,193.8c0,0,0.7,1.1,5.3,0.2v-5.8l-5.5-1.5L278.7,193.8z"/>
	</g>
	<g>
		<polygon class="st3" points="288.5,149.9 288.5,172 293.3,170.8 296.1,164.9 		"/>
	</g>
	<g>
		<polygon class="st3" points="86,254.2 80.8,258.8 80.8,224.1 86,224.1 		"/>
	</g>
	<g>
		<polygon class="st3" points="222.9,221.8 226,227.1 226,241.6 222.8,243.3 		"/>
	</g>
	<g>
		<polygon class="st3" points="194.7,222.9 194.7,257.9 189.9,258.5 189.9,222.3 		"/>
	</g>
	<g>
		<polygon class="st3" points="309.7,240.2 355.3,244.9 355.3,241.7 310,236.3 		"/>
	</g>
	<g>
		<polygon class="st3" points="309.6,262.7 336.7,264.1 336.7,260 309.6,257.8 		"/>
	</g>
	<g>
		<polygon class="st3" points="297.7,272.4 297.7,305.4 304.6,303.9 305.1,271.1 		"/>
	</g>
	<g>
		<polygon class="st3" points="479,272.8 479,306.6 485.9,305 486.4,271.5 		"/>
	</g>
	<g>
		<path class="st3" d="M260.6,273.2c0,0,23.9,4.3,45.1-0.4v-2c0,0-29.7,3.3-44.5-0.5C261.3,270.2,259.4,268.6,260.6,273.2z"/>
	</g>
	<g>
		<polygon class="st3" points="305.1,269.9 299.1,271.2 299.8,208.7 305.6,208.7 		"/>
	</g>
	<g>
		<path class="st0" d="M532,138.5c0,0-12.8,7.4-4.9,17.2c0,0-7.7,2.5-4.1,7.6c3.8,5.5,39.2,2.1,39.2,2.1s6.3,3.9-10.8,4.5
			c-17.2,0.5-38.5-0.8-38.5-0.8s-9.5-7.9-4.4-12.3c5.2-4.4,7.6-6.5,7.6-6.5S517.3,134.1,532,138.5z"/>
	</g>
</g>
<g>
	<g>
		<path class="st1" d="M138.8,169.5c-6.3,0-12.3,0-18-0.1c-6.1,0-10.7-4-11.9-10c0-0.1-0.1-0.1-0.1-0.1l-0.1-0.2v-3l0.1-0.2
			c0.2-0.4,0.3-0.9,0.4-1.3c0.3-1.1,0.7-2.2,1.3-3.2c2.2-3.8,5.7-5.8,10.2-5.9c0,0,0,0,0,0c0,0,0,0,0-0.1c2.2-4.9,7-7.7,12.4-7.2
			c2.6-3.9,6.3-6.5,10.7-7.2c4.3-0.7,8.7,0.4,12.3,3.2c3.8,3,5.8,7.1,6,12.2c3.9,1.8,6.3,4.9,7.1,9.1c0,0.1,0,0.1,0.1,0.2
			c0,0.1,0,0.1,0.1,0.2l0.1,0.2v2.9l0,0.1c-0.1,0.2-0.1,0.5-0.2,0.7c-0.1,0.5-0.3,1.1-0.5,1.7c-1.8,5-6.1,8-11.4,8
			C150.7,169.5,144.6,169.5,138.8,169.5z M111,158.5c0.1,0.1,0.1,0.2,0.1,0.4c0.9,5.1,4.7,8.4,9.8,8.4c11,0.1,22.6,0.1,36.5,0
			c4.4,0,7.9-2.4,9.4-6.6c0.2-0.5,0.3-0.9,0.4-1.5c0.1-0.2,0.1-0.4,0.2-0.6v-2.3c0-0.1-0.1-0.3-0.1-0.5c-0.7-3.6-2.7-6.1-6.1-7.6
			c-0.7-0.3-1.1-1.1-1.1-1.7c-0.1-4.5-1.8-8.1-5.1-10.7c-3.1-2.4-6.9-3.4-10.6-2.8c-3.7,0.6-7,2.9-9.2,6.3c-0.5,0.7-1.1,1-2,0.9
			c-4.5-0.5-8.4,1.8-10.2,5.9c-0.3,0.6-0.8,1.4-2,1.4c-3.7,0.1-6.5,1.7-8.4,4.8c-0.5,0.8-0.7,1.7-1.1,2.7c-0.1,0.4-0.3,0.8-0.4,1.3
			V158.5z"/>
	</g>
</g>
<g>
	<g>
		<path class="st1" d="M539.3,172.9c-5.6,0-11.6,0-18.1,0c-5.2,0-9.4-2.9-11.2-7.8c-0.2-0.6-0.3-1.1-0.5-1.6
			c-0.1-0.2-0.1-0.5-0.2-0.7l0-0.1v-2.9l0.1-0.2c0-0.1,0-0.1,0.1-0.2c0,0,0-0.1,0-0.1c0.8-4.1,3.1-7.1,7-8.9c0.1-5,2.1-9,5.9-11.9
			c3.6-2.8,7.8-3.9,12-3.2c4.2,0.7,8,3.2,10.4,7.1c5.2-0.6,10,2.2,12.1,7c0,0,0,0,0,0.1c0,0,0,0,0,0c4.4,0.1,7.8,2.1,10,5.8
			c0.6,1,0.9,2.1,1.2,3.1c0.1,0.4,0.3,0.9,0.4,1.3l0.1,0.2v3l-0.1,0.2c0,0,0,0.1-0.1,0.1c-1.1,5.9-5.7,9.8-11.6,9.8
			C551.2,172.9,545.5,172.9,539.3,172.9z M511.5,162.3c0.1,0.2,0.1,0.4,0.2,0.6c0.1,0.5,0.3,1,0.4,1.4c1.5,4,4.8,6.4,9.1,6.4
			c13.6,0.1,25,0.1,35.7,0c4.9,0,8.6-3.2,9.5-8.2c0-0.1,0.1-0.3,0.1-0.4v-2.1c-0.1-0.4-0.3-0.8-0.4-1.2c-0.3-1-0.6-1.9-1-2.6
			c-1.8-3-4.5-4.6-8.2-4.7c-1.3,0-1.7-0.7-2-1.4c-1.8-4-5.6-6.2-9.9-5.7c-0.9,0.1-1.5-0.2-2-0.9c-2.2-3.3-5.4-5.5-9-6.2
			c-3.6-0.6-7.3,0.4-10.3,2.7c-3.2,2.5-4.9,6-5,10.4c0,0.6-0.4,1.4-1.1,1.7c-3.3,1.5-5.3,3.9-5.9,7.4c0,0.2-0.1,0.3-0.1,0.5V162.3z
			 M516.4,150.4C516.4,150.4,516.4,150.4,516.4,150.4C516.4,150.4,516.4,150.4,516.4,150.4z M516.6,150.2
			C516.6,150.2,516.6,150.2,516.6,150.2C516.6,150.2,516.6,150.2,516.6,150.2z"/>
	</g>
</g>
<g>
	<path class="st4" d="M274.9,221.9c0.5,0,0.9-0.4,0.9-0.9l0-5.4c1.8,0.4,5.1,0.8,10.7,0.8c3.6,0,8-0.1,13.6-0.6l0,4.6
		c-1.8,0.4-6.9,1.2-12.6,0.5c-0.5-0.1-0.9,0.3-1,0.8c-0.1,0.5,0.3,0.9,0.8,1c1.6,0.2,3.2,0.3,4.7,0.3c5.2,0,9.1-0.9,9.3-1
		c0.4-0.1,0.7-0.5,0.7-0.9L302,210l5.9,0.3c0,0,0,0,0,0c0.5,0,0.9-0.4,0.9-0.9c0-0.5-0.4-0.9-0.9-1l-6-0.3l0-1.9
		c0-0.2-0.1-0.5-0.3-0.7c-0.2-0.2-0.4-0.3-0.7-0.2c-18.7,1.1-25.8-0.1-25.9-0.2c-0.3,0-0.5,0-0.7,0.2c-0.2,0.2-0.3,0.4-0.3,0.7
		L274,221C274,221.5,274.4,221.9,274.9,221.9z M275.9,207.2c2.5,0.3,9.8,0.9,24.3,0.1l0,3.3c-15,1.2-22,0.2-24.3-0.3L275.9,207.2z
		 M275.8,212.1c1.8,0.4,5.1,0.8,10.7,0.8c3.6,0,8-0.1,13.6-0.6l0,1.7c-15,1.2-22,0.2-24.3-0.3L275.8,212.1z M307.8,227.8
		c0.5,0,0.9-0.4,0.9-0.9c0-0.5-0.4-0.9-0.9-1l-6-0.3l0-0.8c0-0.3-0.1-0.5-0.3-0.7c-0.2-0.2-0.4-0.3-0.7-0.2
		c-18.7,1.1-25.8-0.1-25.9-0.2c-0.3,0-0.5,0-0.7,0.2c-0.2,0.2-0.3,0.4-0.3,0.7l-0.1,14.8c0,0.5,0.4,0.9,0.9,0.9
		c0.5,0,0.9-0.4,0.9-0.9l0-1.9c1.7,0.3,5.1,0.8,10.8,0.8c3.5,0,8-0.1,13.5-0.6l0,1.1c-1.8,0.4-6.9,1.2-12.6,0.5
		c-0.5-0.1-0.9,0.3-1,0.8c-0.1,0.5,0.3,0.9,0.8,1c1.6,0.2,3.2,0.3,4.7,0.3c5.2,0,9.1-0.9,9.3-1c0.4-0.1,0.7-0.5,0.7-0.9l0.1-12.2
		L307.8,227.8C307.7,227.8,307.7,227.8,307.8,227.8z M300,236c-15,1.2-21.9,0.2-24.3-0.3l0-1.5c1.7,0.3,5.1,0.8,10.8,0.8
		c3.5,0,8-0.1,13.5-0.6L300,236z M300,232.7c-15,1.2-21.9,0.2-24.3-0.3l0-1.5c1.7,0.3,5.1,0.8,10.8,0.8c3.5,0,8-0.1,13.5-0.6
		L300,232.7z M300,229.4c-15,1.2-21.9,0.2-24.3-0.3l0-3.4c2.5,0.3,9.8,0.9,24.3,0.1L300,229.4z M457.2,240.5c-0.5-0.1-0.9,0.3-1,0.8
		c-0.1,0.5,0.3,0.9,0.8,1c1.6,0.2,3.2,0.3,4.7,0.3c5.2,0,9.1-0.9,9.3-1c0.4-0.1,0.7-0.5,0.7-0.9l0.1-12.2l5.9,0.3c0,0,0,0,0,0
		c0.5,0,0.9-0.4,0.9-0.9c0-0.5-0.4-0.9-0.9-1l-6-0.3l0-0.8c0-0.3-0.1-0.5-0.3-0.7c-0.2-0.2-0.4-0.3-0.7-0.2
		c-18.7,1.1-25.8-0.1-25.9-0.2c-0.3,0-0.5,0-0.7,0.2c-0.2,0.2-0.3,0.4-0.3,0.7l-0.1,14.8c0,0.5,0.4,0.9,0.9,0.9
		c0.5,0,0.9-0.4,0.9-0.9l0-4.8c1.8,0.4,5.1,0.8,10.7,0.8c3.6,0,8-0.1,13.6-0.6l0,4C468,240.4,462.9,241.2,457.2,240.5z M445.6,226.8
		c2.5,0.3,9.8,0.9,24.3,0.1l0,3.6c-15,1.2-21.9,0.2-24.3-0.3L445.6,226.8z M445.6,233.9l0-1.9c1.7,0.3,5.1,0.8,10.8,0.8
		c3.5,0,8-0.1,13.5-0.6l0,1.9C454.8,235.4,447.9,234.4,445.6,233.9z M443.7,206.9C443.7,206.9,443.7,206.9,443.7,206.9
		c0.1,0,0.2,0,0.3-0.1c-0.1,0.1-0.1,0.3-0.1,0.4l-0.1,14.8c0,0.5,0.4,0.9,0.9,0.9c0.5,0,0.9-0.4,0.9-0.9l0-5.4
		c1.8,0.4,5.1,0.8,10.7,0.8c3.6,0,8-0.1,13.6-0.6l0,4.6c-1.8,0.4-6.9,1.2-12.6,0.5c-0.5-0.1-0.9,0.3-1,0.8c-0.1,0.5,0.3,0.9,0.8,1
		c1.6,0.2,3.2,0.3,4.7,0.3c5.2,0,9.1-0.9,9.3-1c0.4-0.1,0.7-0.5,0.7-0.9l0.1-11.1l5.9,0.3c0,0,0,0,0,0c0,0,0,0,0,0
		c0.8,1.1,1.7,2.3,2.8,3.6c-0.2,0.2-0.3,0.4-0.3,0.7l-0.1,22.9l-2.3,1.8c-0.2,0.2-0.4,0.5-0.3,0.8c0,0.3,0.2,0.6,0.4,0.7l2,1.3
		l-0.2,23.8c0,0.5,0.4,0.9,0.9,0.9c0.1,0,0.1,0,0.2,0l73.5,0.5c0.1,0,0.2,0,0.3,0c5.6,2.3,11.6,4.6,17.9,6.6c0.1,0,0.2,0,0.3,0
		c0.4,0,0.7-0.2,0.9-0.6c0.2-0.5-0.1-1-0.6-1.1c-38.1-12.4-62.9-30.8-77-44c-5.3-4.9-9.4-9.5-12.7-13.5l0.7-0.4
		c0.3-0.2,0.5-0.5,0.5-0.8l0-3.4c9.1,8.8,44.3,40.6,87.8,54.2c0.1,0,0.2,0,0.3,0c0.4,0,0.7-0.2,0.9-0.6c0.1-0.5-0.1-1-0.6-1.1
		c-45.5-14.3-81.8-48.6-88.3-55l0-3.4c0-0.5-0.4-0.9-0.9-0.9l-6,0c-0.5,0-0.9,0.4-0.9,0.9c0,0.5,0.4,0.9,0.9,0.9l5.1,0l0,1.2
		c-0.2,0-0.4,0.1-0.5,0.2c-0.4,0.3-0.4,0.9,0,1.3c0,0,0.2,0.2,0.5,0.5l0,4.6l-0.6,0.3c-5.2-6.4-7.6-10.7-7.8-11.1l6.4-0.1
		c0.5,0,0.9-0.4,0.9-0.9l0.1-9.2l2,0c0.5,0,0.9-0.4,0.9-0.9l0.1-14.6c0-0.2,0-0.3-0.1-0.4c0-0.1,0-0.2,0-0.3l-3.3-12.8
		c-0.1-0.4-0.5-0.7-0.9-0.7c-0.4,0-0.8,0.3-0.9,0.7l-3.4,12.8c-0.1,0.3,0,0.6,0.2,0.8c0.2,0.2,0.4,0.4,0.7,0.4l3,0
		c0.5,0,0.9-0.4,0.9-0.9c0-0.5-0.4-0.9-0.9-0.9l-1.8,0l2.2-8.3l2.4,9.5c0,0.1,0,0.1,0.1,0.2c0,0,0,0,0,0.1l-0.1,13.7l-11.2-0.1
		l0.1-9.1l8.9,0.1c0.5,0,0.9-0.4,0.9-0.9c0-0.5-0.4-0.9-0.9-0.9l-9.8-0.1c-0.5,0-0.9,0.4-0.9,0.9l-0.1,23.1l-4.2,0l0.2-26.4
		c0.1,0,0.1,0,0.2,0l5.8,0c0.3,0,0.5-0.1,0.7-0.3s0.2-0.5,0.2-0.8l-3.3-12.8c-0.1-0.4-0.5-0.7-0.9-0.7c-0.4,0-0.8,0.3-0.9,0.7l0,0.1
		l-6.6-16.5c-0.1-0.3-0.5-0.6-0.8-0.6c-0.4,0-0.7,0.2-0.8,0.6l-9.5,24l-2-7.8c-0.1-0.4-0.5-0.7-0.9-0.7c-0.4,0-0.8,0.3-0.9,0.7
		l-3.4,12.8c0,0.1,0,0.2,0,0.3c-0.1,0.1-0.1,0.3-0.1,0.4l-0.1,13.9 M481.9,239l0.1-22.2c3.3,3.9,7.5,8.6,12.7,13.5
		c11.3,10.6,29.4,24.5,55.6,36.1l-68.8-0.4l0.1-23.3c0-0.3-0.2-0.6-0.4-0.8l-1.3-0.8l1.6-1.3C481.8,239.6,481.9,239.3,481.9,239z
		 M470,215.1c-15,1.2-22,0.2-24.3-0.3l0-1.6c1.8,0.4,5.1,0.8,10.7,0.8c3.6,0,8-0.1,13.6-0.6L470,215.1z M470,211.6
		c-15,1.2-22,0.2-24.3-0.3l0-3c2.5,0.3,9.8,0.9,24.3,0.1L470,211.6z M471.7,192.8l8.3,0.1l-0.1,8.3l-8.3,0.1L471.7,192.8z
		 M468.4,167.6l2.1,8.3l-4.4,0L468.4,167.6z M460.1,150.3l6.5,16.2c0,0.1,0.1,0.2,0.2,0.3l-2.1,7.8c0,0,0,0-0.1,0
		c-5.8,2.3-11.7-0.1-13.7-1.1L460.1,150.3z M464.1,176.6c0,0.1,0,0.2,0,0.2c-0.1,0.1-0.1,0.3-0.1,0.4l-0.1,10.6
		c-0.8,0.2-1.5,0.3-2.3,0.4l0.1-11.1C462.5,177,463.3,176.9,464.1,176.6z M459.9,177.3l-0.1,11.1c-0.7,0.1-1.4,0.1-2.1,0.1l0.1-11.2
		c0.5,0,1,0.1,1.5,0.1C459.5,177.3,459.7,177.3,459.9,177.3z M456,177l-0.1,11.5c-0.7,0-1.5-0.1-2.1-0.1l0.1-11.8
		C454.5,176.7,455.2,176.9,456,177z M450.2,177.6c0.3,0,0.5-0.1,0.6-0.3c0.2-0.2,0.2-0.5,0.2-0.8l-0.3-1.1c0.4,0.2,0.8,0.4,1.4,0.6
		l-0.1,12.2c-0.7-0.1-1.4-0.2-1.9-0.3L450.2,177.6z M444.3,176.9l2.5-9.4l2.1,8.3l-2.7,0c-0.5,0-0.9,0.4-0.9,0.9
		c0,0.5,0.4,0.9,0.9,0.9l2.2,0l-0.1,10.2c-0.2,0.1-0.3,0.3-0.3,0.5c-0.1,0.4,0.1,0.7,0.3,0.9l-0.1,9.2c0,0.5,0.4,0.9,0.9,0.9
		c0.5,0,0.9-0.4,0.9-0.9l0.1-8.8c1.5,0.3,3.9,0.6,6.8,0.6c2.1,0,4.5-0.1,7-0.6l-0.1,15.3c0,0.5,0.4,0.9,0.9,0.9l6,0
		c0.5,0,0.9-0.4,0.9-0.9l0-2l1.1,0c-0.1,0.3-0.1,0.6,0,0.8c0,0,1.2,2.2,3.6,5.6l-4.6-0.3l0-1.9c0-0.2-0.1-0.5-0.3-0.7
		c-0.2-0.2-0.4-0.3-0.7-0.2c-18.7,1.1-25.8-0.1-25.9-0.2c-0.2,0-0.3,0-0.5,0c0.1-0.1,0.1-0.3,0.1-0.4c0-0.1,0-0.1,0-0.2l4.5,0
		c0.5,0,0.9-0.4,0.9-0.9c0-0.5-0.4-0.9-0.9-0.9l-5.1,0l0.2-26.8c0,0,0,0,0-0.1C444.2,177,444.3,177,444.3,176.9z M98.1,245.9l-6.8,0
		c-0.5,0-0.9,0.4-0.9,0.9c0,0.5,0.4,0.9,0.9,0.9l4.2,0c-1.9,1.4-4.1,3.1-6.3,5l0.2-34l8.2,0.1l0,2.3l-6.2,0c-0.5,0-0.9,0.4-0.9,0.9
		c0,0.5,0.4,0.9,0.9,0.9l6.2,0l0,1.3l-6.2,0c-0.5,0-0.9,0.4-0.9,0.9c0,0.5,0.4,0.9,0.9,0.9l6.2,0l0,1.3l-6.2,0
		c-0.5,0-0.9,0.4-0.9,0.9c0,0.5,0.4,0.9,0.9,0.9l6.2,0l0,1.3l-6.2,0c-0.5,0-0.9,0.4-0.9,0.9c0,0.5,0.4,0.9,0.9,0.9l6.2,0l0,1.3
		l-6.2,0c-0.5,0-0.9,0.4-0.9,0.9c0,0.5,0.4,0.9,0.9,0.9l6.2,0l0,1.3l-6.2,0c-0.5,0-0.9,0.4-0.9,0.9c0,0.5,0.4,0.9,0.9,0.9l6.2,0
		l0,0.1l0,1.2l-6.2,0c-0.5,0-0.9,0.4-0.9,0.9c0,0.5,0.4,0.9,0.9,0.9l6.2,0l0,1.3l-6.2,0c-0.5,0-0.9,0.4-0.9,0.9
		c0,0.5,0.4,0.9,0.9,0.9l6.2,0c0,0.4,0.4,0.8,0.9,0.8l0.5,0C98.7,245.5,98.4,245.7,98.1,245.9z M445.5,245.8c2.6,0.5,9.9,1.4,24.3,0
		l0,4.4c-6.5,0.5-12.2,0.7-16.9,0.5c-0.5,0-0.9,0.4-0.9,0.9c0,0.5,0.4,0.9,0.9,0.9c1.1,0,2.2,0.1,3.4,0.1c4,0,8.5-0.2,13.6-0.6
		l0,3.3c-6.1,0.5-11.5,0.7-16,0.5c-0.5,0-0.9,0.4-0.9,0.9c0,0.5,0.4,0.9,0.9,0.9c0.8,0,1.6,0,2.5,0c4,0,8.5-0.2,13.6-0.6l0,3.3
		c-4.8,0.4-9.2,0.6-13.1,0.6c-6.3,0-9.7-0.6-11.2-0.9L445.5,245.8z M445.4,261.9c1.8,0.4,5.1,0.8,10.7,0.8c0.2,0,0.3,0,0.5,0
		c3.9,0,8.3-0.2,13.1-0.6l0,3.3c-15,1.2-22,0.2-24.3-0.3L445.4,261.9z M445.3,269.9c0.1-0.1,0.1-0.3,0.1-0.4c0-0.1,0-0.3-0.1-0.4
		l0-2.1c1.8,0.4,5.1,0.8,10.7,0.8c3.6,0,8-0.1,13.6-0.6l0,5.2c0,0,0,0,0,0.1c-1.6,0-3.2,0-4.9,0c-7.1,0-14.1-0.4-19.4-0.7
		L445.3,269.9z M411.9,238.9l9,4.3l-0.2,24.4c0,0.2,0.1,0.4,0.2,0.6l-9.3-0.1L411.9,238.9z M392.9,238.3l17.2,0.1l-0.2,29.7
		l-14.2-0.2l0.2-23.9c0-0.4-0.2-0.7-0.6-0.8l-2.4-1L392.9,238.3z M385.8,250.6l-0.1,17.1l-19.1-0.3c0-0.1,0-0.1,0-0.2l0.1-16.8
		L385.8,250.6z M364.9,267.4l-6-0.1l0.1-23.5l6,0l-0.1,23.4C364.8,267.3,364.8,267.3,364.9,267.4z M357.2,234.7l0,5.6L312,236
		l0.1-14.4 M339.5,258.7l-27.9-1.7l0.1-13.2c0-0.3-0.1-0.6-0.4-0.8l-1.4-0.9l1.7-1.4c0.2-0.2,0.3-0.4,0.3-0.7l0-2.1l45.2,4.4
		l-0.2,25.1l-16.7-0.3l0-7.4C340.4,259.2,340,258.8,339.5,258.7z M338.6,260.5l0,6.5l-26.9-0.4l0-7.8L338.6,260.5z M301.9,182.2
		l1.9,0l0,0.6c0,0.5,0.4,0.9,0.9,0.9c0.5,0,0.9-0.4,0.9-0.9l0-6l1.3,0l-0.1,13.3l-5,0L301.9,182.2z M301.8,200.2l0.1-8.4
		 M290.5,150.3l6.2,15.1c0,0.1,0.1,0.2,0.2,0.3l-1.5,5.6c-5.2,1.7-11.2,0.4-13.5-0.2L290.5,150.3z M290.9,174.7
		c-0.5,0-0.9,0.4-0.9,0.9l-0.1,11.5c-2.1,0.1-3.9,0-5.4-0.1l0.1-12.8c0-0.2-0.1-0.5-0.2-0.6c1.4,0.2,3.2,0.5,5,0.5
		c1.7,0,3.6-0.2,5.4-0.6l-0.6,2.2c0,0.1,0,0.2,0,0.3c-0.1,0.1-0.1,0.3-0.1,0.4l-0.1,10.5c-0.8,0.1-1.5,0.2-2.3,0.3l0.1-11.3
		C291.8,175.1,291.4,174.7,290.9,174.7z M281.2,176.6l0.5,0c0.3,0,0.6-0.1,0.7-0.4c0.2-0.2,0.2-0.5,0.1-0.8l-0.8-2.4
		c0.4,0.1,0.9,0.2,1.5,0.3c-0.3,0.1-0.5,0.4-0.5,0.8l-0.1,12.6c-0.7-0.1-1.2-0.2-1.6-0.3L281.2,176.6z M272.4,200.4l0,3.1
		c-1.3,1.7-2.6,3.3-3.9,4.9c-0.1,0.1-0.2,0.2-0.3,0.4c-3.7,4.5-7.4,8.8-11,12.8c-0.2,0.1-0.4,0.3-0.5,0.5c-3.7,4-7.4,7.7-11.1,11.2
		c-0.2,0.1-0.3,0.2-0.4,0.4c-1.7,1.6-3.5,3.2-5.2,4.7c-0.3,0.1-0.5,0.3-0.6,0.5c-1.6,1.4-3.2,2.7-4.9,4c0,0,0,0,0,0
		c-0.4,0-0.8,0.3-0.9,0.7c-1.6,1.2-3.1,2.4-4.7,3.6c0,0-0.1,0-0.1,0c-0.4,0-0.8,0.3-0.9,0.8c-1.6,1.2-3.3,2.3-4.9,3.3
		c-0.3,0-0.6,0.2-0.8,0.5c-1.6,1-3.3,2-4.9,3c0,0,0,0,0,0c-0.3,0-0.6,0.2-0.8,0.5c-1.6,0.9-3.2,1.8-4.9,2.6c0,0-0.1,0-0.1,0
		c-0.3,0-0.6,0.2-0.8,0.4c-1.7,0.8-3.4,1.6-5.1,2.3c-0.2,0-0.4,0.1-0.5,0.2c-1.7,0.7-3.3,1.4-5,2c0,0-0.1,0-0.1,0
		c-0.3,0-0.5,0.1-0.7,0.3c-1.6,0.6-3.3,1.1-4.9,1.6c0,0-0.1,0-0.1,0c-0.2,0-0.4,0.1-0.6,0.2c-1.8,0.5-3.5,0.9-5.3,1.3
		c0,0-0.1,0-0.1,0c-4.6,1-9.1,1.6-13.7,1.8c-0.9,0-1.8,0.1-2.7,0.1c-0.1-0.1-0.3-0.2-0.5-0.2c-0.2,0-0.4,0.1-0.5,0.2
		c-13-0.1-24.2-3.5-33.1-7.7c-0.2-0.2-0.4-0.3-0.7-0.3c0,0,0,0,0,0c-10.4-5-17.5-11.1-20.5-13.9l1.6,0.1c0.2,0,0.5-0.1,0.7-0.3
		c0.2-0.2,0.3-0.4,0.3-0.6l0,0c9.6,7.5,27.6,18.2,51.5,18.4c3.3,0,6.7-0.2,10.2-0.6C211.7,259.2,242.6,238.2,272.4,200.4z
		 M268.1,211.7l-0.4,58.8c-1.7-0.1-3-0.3-3.9-0.4l0.3-53.8C265.5,214.8,266.8,213.3,268.1,211.7z M256.6,224.8l-0.3,45.3l-3.9,0
		l0.3-41.2C254,227.6,255.3,226.2,256.6,224.8z M250.8,230.7l-0.2,39.4l-3.9,0l0.2-35.7C248.2,233.3,249.5,232,250.8,230.7z
		 M245.1,236.2l-0.2,34l-3.9,0l0.2-30.5C242.4,238.5,243.7,237.4,245.1,236.2z M239.3,241.2l-0.2,29l-3.9,0l0.2-25.8
		C236.7,243.4,238,242.3,239.3,241.2z M233.6,245.9l-0.2,24.4l-3.9,0l0.1-21.5C230.9,247.8,232.2,246.9,233.6,245.9z M227.8,250.1
		l-0.1,20.3l-3.9,0l0.1-17.7C225.2,251.9,226.5,251,227.8,250.1z M222.1,253.9l-0.1,16.5l-3.9,0l0.1-14.2
		C219.4,255.5,220.7,254.7,222.1,253.9z M216.3,257.2l-0.1,13.2l-3.9,0l0.1-11.1C213.7,258.7,215,258,216.3,257.2z M210.6,260.2
		l-0.1,10.3l-3.9,0l0.1-8.5C208,261.5,209.3,260.9,210.6,260.2z M204.8,262.8l0,7.8l-3.9,0l0-6.3
		C202.2,263.8,203.5,263.3,204.8,262.8z M199.1,265l0,5.6l-3.9,0l0-4.4C196.5,265.8,197.8,265.4,199.1,265z M193.4,266.7l0,3.9
		l-3.9,0l0-3C190.7,267.4,192.1,267.1,193.4,266.7z M187.6,268.1l0,2.6l-3.9,0l0-2C185,268.6,186.3,268.3,187.6,268.1z M181.9,269
		l0,1.8l-3.9,0l0-1.4C179.3,269.3,180.6,269.2,181.9,269z M176.2,269.6l0,1.3l-3.9,0l0-1.2c0.8,0,1.6,0,2.4-0.1
		C175.1,269.6,175.7,269.6,176.2,269.6z M170.5,269.7l0,1.2l-3.9,0c0,0,0,0,0,0l0-1.3C167.8,269.7,169.1,269.7,170.5,269.7z
		 M164.7,271l-3.9,0c0,0,0-0.1,0-0.1l0-1.9c1.3,0.2,2.6,0.3,3.9,0.4L164.7,271C164.7,270.9,164.7,270.9,164.7,271z M159,271l-4,0
		c0-0.1,0-0.2,0-0.2l0-2.8c1.3,0.3,2.6,0.5,3.9,0.7l0,2.1C159,270.9,159,271,159,271z M153.3,271.1l-4,0c0-0.1,0.1-0.2,0.1-0.3
		l0-4.2c1.3,0.4,2.6,0.7,3.9,1l0,3.2C153.3,270.9,153.3,271,153.3,271.1z M147.6,271.1l-4.1,0c0.1-0.1,0.1-0.3,0.1-0.4l0-6.1
		c1.3,0.5,2.6,0.9,3.9,1.4l0,4.8C147.6,270.9,147.6,271,147.6,271.1z M142,271.2l-4.2,0c0.1-0.1,0.2-0.3,0.2-0.5l0.1-8.4
		c1.3,0.6,2.6,1.1,3.9,1.7l0,6.8C141.8,270.9,141.9,271,142,271.2z M136.3,271.2l-4.3,0c0.1-0.2,0.2-0.4,0.2-0.6l0.1-11.3
		c1.2,0.7,2.5,1.4,3.9,2l-0.1,9.3C136.1,270.9,136.2,271.1,136.3,271.2z M130.6,271.3l-4.5,0c0.2-0.2,0.3-0.4,0.3-0.7l0.1-14.7
		c1.2,0.8,2.5,1.6,3.9,2.4l-0.1,12.3C130.4,270.9,130.5,271.1,130.6,271.3z M125,271.3l-4.8,0c0.3-0.1,0.5-0.4,0.5-0.8l0.1-18.7
		c1.2,0.9,2.5,1.9,3.9,2.8l-0.1,15.8C124.7,270.9,124.8,271.2,125,271.3z M223.1,244.9c-10.3,6.7-20.7,11.4-31.2,14.1l0.2-35.5
		c0,0,0.1,0,0.2,0l30.9,0.2l-0.1,20.9C223,244.7,223,244.8,223.1,244.9z M182.3,209.8c0.1,0,0.2,0.1,0.4,0.1c2.1-0.2,5-0.3,8.2-0.4
		l7.8,0c0.1,0,0.1,0,0.2,0c8.3,0.2,16.9,1.3,19.9,4.1c0,0.3,0,0.5,0.1,0.8c0.4,1,1.5,3.9,27.2,4.5c0,0,0,0,0,0l7.7,0
		c-9.6,10-19.3,18.2-29,24.7l0.1-21c0-0.5-0.4-0.9-0.9-0.9l-31.8-0.2c-0.1,0-0.1,0-0.2,0l0-6.8c0-0.5-0.4-0.9-0.9-0.9l-9-0.1
		L182.3,209.8z M299.9,223.4v-20.3c0,0-1.7-2.8-0.1,5.4s2.5,2.8,18.7,16.1c16.1,13.3,45.6,13.9,63.6,15.6s29.5-9.3,40.9-11.5
		s22.7-13.9,22.7-13.9l-1.7-8l-0.8,0.2l-2.8,1.8l-7,4.4l-8.6,5.4l-12.9,5.8c0,0-12.4,4-16.1,5.3c-3.7,1.2-16.5,2.1-21.6,2.3
		s-12.2-0.4-12.2-0.4l-11.9-2.2l-18.8-6.2l-11.6-5.8l-8.6-5.5l-5.1-3.7l0.4-0.9l0.4-17.4l0-9.3l-3.2,0l-0.2-5.2
		c-0.1,0.3-0.1,0.6,0.1,0.8c0.1,0.1,0.2,0.2,0.3,0.3l0,3.8l-1.9,0l0-0.4c0-0.5-0.4-0.9-0.9-0.9c-0.5,0-0.9,0.4-0.9,0.9l-0.1,23.1
		l-4.2,0l0.2-26.8c0,0,0,0,0-0.1c0-0.1,0.1-0.1,0.1-0.2l0.9-3.5c0.1-0.2,0.1-0.3,0.1-0.5l1.5-5.4l2.1,8.3l-1.8,0
		c-0.5,0-0.9,0.4-0.9,0.9c0,0.5,0.4,0.9,0.9,0.9l3,0c0.3,0,0.5-0.1,0.7-0.3c0.2-0.2,0.2-0.5,0.2-0.8l-3.3-12.8
		c-0.1-0.4-0.5-0.7-0.9-0.7c-0.4,0-0.8,0.3-0.9,0.7l0,0.2l-6.3-15.3c-0.1-0.3-0.5-0.6-0.8-0.6c0,0,0,0,0,0c-0.4,0-0.7,0.2-0.8,0.6
		l-9,21.6l-2.1-6.6c-0.1-0.4-0.5-0.6-0.9-0.6c-0.4,0-0.7,0.2-0.9,0.6l-4.2,12.8c0,0.1,0,0.2,0,0.3c-0.1,0.1-0.1,0.3-0.1,0.4
		l-0.1,21.4c-5.6,7.2-11.2,13.8-16.9,19.8l-8.6-0.1l-1.8,0c-2.5-0.1-4.7-0.2-6.6-0.3l-1.8-0.1c-5.4-0.3-9-0.8-11.4-1.3l-1.8-0.4
		c-2.1-0.5-2.7-1-2.8-1.2c0.2-0.3,0.2-0.8-0.1-1.1c-3.2-3.8-13.1-4.9-21.9-5.2l-1.8,0c-2.1,0-4.1,0-6,0l-9.5-0.1
		c-0.5,0-0.9,0.4-0.9,0.9l0,5.4l-1.3,0l-1.7,0l-9.6-0.1l-1.8,0l-20.5-0.1l-1.8,0l-5.9,0l-1.8,0l-13.4-0.1l-1.8,0l-22.3-0.1
		c-0.5,0-0.9,0.4-0.9,0.9l0,2.6l-9.1-0.1c-0.5,0-0.9,0.4-0.9,0.9l0,6l-10.8-0.1c-0.5,0-0.9,0.4-0.9,0.9l-0.1,10.8l0,1.8l-0.2,25.9
		c0,0.5,0.4,0.9,0.9,0.9c0.5,0,0.9-0.4,0.9-0.9l0.2-37.6l9.9,0.1l-0.2,28.7c-5.9,5.2-11.9,11.4-15,15.9c-0.1,0.2-0.2,0.4-0.2,0.7
		l-22.3-0.2c0,0,0,0,0,0c-0.5,0-0.9,0.4-0.9,0.9c0,0.5,0.4,0.9,0.9,0.9l38.9,0.3c0,0,0,0,0,0c0.5,0,0.9-0.4,0.9-0.9
		c0-0.5-0.4-0.9-0.9-0.9l-14.6-0.1c3.3-4.5,9-10.3,14.5-15.2c0.3-0.1,0.5-0.3,0.6-0.5c3.5-3.1,6.9-5.8,9.5-7.5
		c0.2,0,0.3-0.1,0.4-0.2c0.8-0.5,1.5-0.9,2-1.2l-0.1,14.1l-2.5,1.8c-0.2,0.2-0.4,0.4-0.4,0.7l0,2.9c0,0.5,0.4,0.9,0.9,0.9l1.5,0
		l0,4.5l-5.5,1c-0.2,0-0.4,0.2-0.6,0.4l-2.1,3.1c-0.1,0.1-0.2,0.3-0.2,0.5l0,6.5l-23.6,0.9c-0.5,0-0.9,0.4-0.9,0.9
		c0,0.5,0.4,0.9,0.9,0.9c0,0,0,0,0,0l23.5-0.9l0,4.3c0,0.5,0.4,0.9,0.9,0.9c0.5,0,0.9-0.4,0.9-0.9l0-5c0-0.1,0.1-0.2,0.1-0.4
		c0-0.1,0-0.2-0.1-0.3l0-6.8l1.8-2.6l5.8-1.1c0.4-0.1,0.7-0.5,0.7-0.9l0-6.2c0-0.5-0.4-0.9-0.9-0.9l-1.5,0l0-1.5l2.2-1.6l11.5,0.1
		l1.5,0.9l0,2.7l-2,0c-0.5,0-0.9,0.4-0.9,0.9l-0.1,15.9c-0.2,0.2-0.3,0.4-0.3,0.7c0,0.2,0.1,0.5,0.3,0.6l0,6.1c0,0.1,0,0.3,0.1,0.4
		l-67.6,2.5c-0.5,0-0.9,0.4-0.9,0.9c0,0.5,0.4,0.9,0.9,0.9c0,0,0,0,0,0l216.5-8.1l-0.2,18.2c0,0.4,0.2,0.7,0.6,0.9
		c6.4,2.4,13.7,3.7,21.9,3.7c13.2,0.1,24.2-3.1,24.3-3.1c0.4-0.1,0.6-0.5,0.6-0.9l0.1-15.9c0.2-1.7,1.2-3.2,2.7-4.6l43.4-1.9
		c0.5,0,0.9-0.4,0.9-0.9c0-0.5-0.4-0.9-0.9-0.9l-40.6,1.8c9.3-5.5,27.9-7.8,37.3-8.3l39.6,0.6c0.1,0,0.2,0.1,0.3,0.1
		c12,0.7,43.2,5.1,43.2,16.2c0,0.3,0.1,0.5,0.3,0.7l-0.1,13.6c0,0.4,0.2,0.7,0.6,0.9c7.3,2.4,15.8,3.7,25.3,3.7
		c15.3,0.1,27.9-3,28-3.1c0.4-0.1,0.7-0.5,0.7-0.9l0.2-26.6l3.9,0l-0.2,25.3c0,0.5,0.4,0.9,0.9,0.9c0.5,0,0.9-0.4,0.9-0.9l0.2-25.3
		l78.6,0.5c0.5,0,0.9-0.4,0.9-0.9c0-0.5-0.4-0.9-0.9-0.9l-84.3-0.5l0-2l69.6,0.4c0.5,0,0.9-0.4,0.9-0.9c0-0.5-0.4-0.9-0.9-0.9
		l-69.6-0.4l0-2.3c0-0.3-0.1-0.5-0.3-0.7c-0.2-0.2-0.5-0.2-0.8-0.2c-4.1,0.9-9.8,1.5-16.9,1.7c0,0,0,0,0,0l0.2-27.7
		c0-0.3-0.1-0.5-0.3-0.7c-0.2-0.2-0.4-0.3-0.7-0.2c-18.6,1.8-25.7-0.1-25.8-0.1c-0.3-0.1-0.6,0-0.8,0.1c-0.2,0.2-0.4,0.4-0.4,0.7
		l-0.2,24l-21.2-0.3c0.1-0.2,0.2-0.4,0.2-0.6l0.2-25c0-0.3-0.2-0.7-0.5-0.8l-10.8-5.2c0,0,0,0,0,0c0,0-0.1,0-0.1,0c0,0,0,0-0.1,0
		c-0.1,0-0.1,0-0.2,0l-18.1-0.1 M99.4,237.4C99.4,237.4,99.4,237.4,99.4,237.4C99.4,237.4,99.4,237.4,99.4,237.4l0-3.1c0,0,0,0,0,0
		c0,0,0,0,0,0l0-3.1c0,0,0,0,0,0c0,0,0,0,0,0l0-3.1c0,0,0,0,0,0c0,0,0,0,0,0l0-3.1c0,0,0,0,0,0c0,0,0,0,0,0l0-3.1c0,0,0,0,0,0
		c0,0,0,0,0,0l0-4.1c0,0,0,0,0,0c0,0,0,0,0,0l0-2.6l90.9,0.6l-0.3,43.2c0,0.1,0,0.3,0.1,0.4c-3.2,0.8-6.4,1.3-9.6,1.7
		c-29.3,3.5-51-9.9-61.3-18.2c0,0-0.1-0.1-0.1-0.1l0-4c0-0.5-0.4-0.9-0.9-0.9l-18.9-0.4L99.4,237.4z M104,259.8l-1.1,0l0.1-14.4
		l1.1,0L104,259.8z M114.3,244L114.3,244c-0.2,0-0.5,0.1-0.6,0.2c0,0,0,0,0,0c0,0,0,0,0,0c0,0,0,0,0,0c-0.1,0.1-0.1,0.2-0.2,0.3
		c0,0,0,0,0,0c0,0.1-0.1,0.2-0.1,0.3c0,0,0,0,0,0c0,0,0,0,0,0l-0.1,15l-7.5,0l0.1-14.4l5,0.1c0.5,0,0.9-0.4,0.9-0.9
		c0-0.5-0.4-0.9-0.9-0.9l-11.5-0.2l0-3c0,0,0,0,0,0c0,0,0,0,0,0l0-1.2l18,0.3l0,4.5L114.3,244C114.3,244.1,114.3,244.1,114.3,244z
		 M114.1,267.1l2,0c0.5,0,0.9-0.4,0.9-0.9l0-4.1c0-0.3-0.2-0.6-0.4-0.8l-1.5-0.9l0.1-13.3c0.9,0.9,2.2,2,3.9,3.4l-0.1,20.1
		c0,0.4,0.2,0.7,0.5,0.8l-5.3,0.1L114.1,267.1z M261.3,284.4l-147.3,5.5c0-0.1,0.1-0.2,0.1-0.3l0-5.9l147.3-5.5L261.3,284.4z
		 M261.4,276.3l-147.3,5.5l0.1-8.6l114.2-1.1c0.1,0,0.2,0.1,0.3,0.1c0.1,0,0.2,0,0.3-0.1l32.5-0.3L261.4,276.3z M262,270l-3.9,0
		l0.3-47.2c1.3-1.4,2.6-2.9,3.9-4.4L262,270z M306.8,289c0,0.3-0.1,0.5-0.1,0.8c0,0.1,0,0.2,0,0.3l-0.1,14.2
		c-2.5,0.7-12,2.9-23.1,2.9c-7.7,0-14.6-1.2-20.7-3.4l0.2-25.8c2.8,0.4,17,2.2,29.7,0.6l-0.1,20.3c0,0.5,0.4,0.9,0.9,0.9
		c0.5,0,0.9-0.4,0.9-0.9l0.1-21.4c0-0.3-0.1-0.5-0.3-0.7c-0.2-0.2-0.5-0.3-0.7-0.2c-13.1,1.9-28.4-0.2-30.5-0.5l0-3.8
		c0.2-0.1,0.4-0.2,0.5-0.4c1.1,0.1,2.6,0.3,4.6,0.4c0.1,0,0.2,0.1,0.4,0.1c0.1,0,0.2,0,0.2,0c4.8,0.4,11.5,0.8,18.4,0.9
		c8.3,0.1,14.9-0.5,19.6-1.5L306.8,289z M286.4,250.2c3.5,0,8-0.1,13.5-0.6l-0.1,21.4c-3.6,0.3-7.7,0.5-12.5,0.5
		c-4.1,0-8.2-0.2-11.8-0.4l0.1-21.7C277.3,249.7,280.7,250.1,286.4,250.2z M275.6,247.5l0-2.8c2.6,0.5,9.9,1.4,24.3,0l0,3.1
		C284.9,249,278,248,275.6,247.5z M310.8,214.5c-0.3,0.2-0.5,0.5-0.5,0.8l0,4.9c-0.1,0.1-0.1,0.2-0.1,0.3c0,0.2,0,0.3,0.1,0.5
		l-0.1,18.5l-2.3,1.9c-0.2,0.2-0.3,0.5-0.3,0.7c0,0.3,0.2,0.5,0.4,0.7l2,1.4l-0.2,27.5l-1.1,0l0-1.2c0-0.3-0.1-0.5-0.4-0.7
		c-0.2-0.2-0.5-0.2-0.8-0.2c-1.7,0.4-3.7,0.8-6,1.1l0.2-27.1c0-0.3-0.1-0.5-0.3-0.7c-0.2-0.2-0.4-0.3-0.7-0.2
		c-18.6,1.8-25.7-0.1-25.8-0.1c-0.3-0.1-0.6,0-0.8,0.1c-0.2,0.2-0.4,0.4-0.4,0.7l-0.2,27.4c-1.5-0.1-2.9-0.2-4.1-0.3l0.4-61.2
		c1.3-1.6,2.5-3.1,3.8-4.8l5.6,0c0.5,0,0.9-0.4,0.9-0.9c0-0.5-0.4-0.9-0.9-0.9l-5.1,0l0.2-26.8c0,0,0,0,0-0.1c0,0,0-0.1,0.1-0.1
		l3.3-10.1l2.8,9l-2.4,0c-0.5,0-0.9,0.4-0.9,0.9c0,0.5,0.4,0.9,0.9,0.9l1.3,0l-0.1,20.8c0,0.5,0.4,0.9,0.9,0.9
		c0.5,0,0.9-0.4,0.9-0.9l0.1-9.1c1.3,0.2,3.6,0.6,6.7,0.6c1.8,0,3.9-0.1,6.2-0.4l-0.1,15.4c0,0.5,0.4,0.9,0.9,0.9l6,0
		c0.5,0,0.9-0.4,0.9-0.9l0-2 M442.3,203l0,1.8c0,0.1,0,0.1,0,0.2 M310.6,282.8c-0.1,0.1-0.2,0.2-0.3,0.3c-0.6,0.5-1.2,1.1-1.6,1.7
		l0.1-11.2l1.8,0c0.1,0,0.1,0,0.2,0c0.1,0,0.1,0,0.2,0l25.9,0.4C327.5,275.5,316.3,278.1,310.6,282.8z M434.8,286.6
		c-4.1-6.2-16.6-9.6-27.2-11.5l27.3,0.4L434.8,286.6z M435.2,271.3c-0.2,0.2-0.3,0.4-0.3,0.7l0,1.8l-82.3-1.3
		c-0.1,0-0.2-0.1-0.4-0.1c-0.1,0-0.4,0-0.9,0l-39.7-0.6l0-3.4l27.3,0.4c0.1,0.1,0.3,0.1,0.5,0.2c0.2,0,0.3-0.1,0.5-0.1l103.6,1.6
		l0,1.3c-4.6-0.3-7.6-0.6-7.6-0.6C435.6,271.1,435.4,271.1,435.2,271.3z M487.4,305.4c-2.8,0.6-13.9,2.9-26.9,2.9
		c-9-0.1-17.1-1.2-24.1-3.4l0.3-31.9c3.5,0.3,15.6,1.3,28,1.4c9.7,0.1,17.4-0.5,22.9-1.5L487.4,305.4z M104.2,221.1l62.6,0.4
		c0.5,0,0.9-0.4,0.9-0.9c0-0.5-0.4-0.9-0.9-0.9l-62.6-0.4c-0.5,0-0.9,0.4-0.9,0.9C103.3,220.7,103.7,221.1,104.2,221.1z
		 M167.7,227.8c0-0.5-0.4-0.9-0.9-0.9l-62.6-0.4c-0.5,0-0.9,0.4-0.9,0.9c0,0.5,0.4,0.9,0.9,0.9l62.6,0.4
		C167.3,228.7,167.7,228.3,167.7,227.8z M166.8,234.1l-29.5-0.2c-0.5,0-0.9,0.4-0.9,0.9c0,0.5,0.4,0.9,0.9,0.9l29.5,0.2
		c0.5,0,0.9-0.4,0.9-0.9C167.7,234.6,167.3,234.1,166.8,234.1z M172.3,220.9l12,0.1c0.5,0,0.9-0.4,0.9-0.9c0-0.5-0.4-0.9-0.9-0.9
		l-12-0.1c-0.5,0-0.9,0.4-0.9,0.9C171.4,220.5,171.8,220.9,172.3,220.9z M172.2,228.6l6.8,0c0.5,0,0.9-0.4,0.9-0.9
		c0-0.5-0.4-0.9-0.9-0.9l-6.8,0c-0.5,0-0.9,0.4-0.9,0.9C171.3,228.1,171.7,228.5,172.2,228.6z M202.5,230.6l-6.8,0
		c-0.5,0-0.9,0.4-0.9,0.9c0,0.5,0.4,0.9,0.9,0.9l6.8,0c0.5,0,0.9-0.4,0.9-0.9C203.4,231,203,230.6,202.5,230.6z M202.5,236.4l-6.8,0
		c-0.5,0-0.9,0.4-0.9,0.9c0,0.5,0.4,0.9,0.9,0.9l6.8,0c0.5,0,0.9-0.4,0.9-0.9C203.4,236.8,203,236.4,202.5,236.4z M202.5,242.2
		l-6.8,0c-0.5,0-0.9,0.4-0.9,0.9c0,0.5,0.4,0.9,0.9,0.9l6.8,0c0.5,0,0.9-0.4,0.9-0.9C203.4,242.6,203,242.2,202.5,242.2z
		 M217.5,239.3l-3.2,0c-0.5,0-0.9,0.4-0.9,0.9c0,0.5,0.4,0.9,0.9,0.9l3.2,0c0.5,0,0.9-0.4,0.9-0.9
		C218.4,239.7,218,239.3,217.5,239.3z M212.3,240.1c0-0.5-0.4-0.9-0.9-0.9l-3.2,0c-0.5,0-0.9,0.4-0.9,0.9c0,0.5,0.4,0.9,0.9,0.9
		l3.2,0C211.9,241.1,212.3,240.6,212.3,240.1z M217.6,236l-3.2,0c-0.5,0-0.9,0.4-0.9,0.9c0,0.5,0.4,0.9,0.9,0.9l3.2,0
		c0.5,0,0.9-0.4,0.9-0.9C218.5,236.4,218.1,236,217.6,236z M208.2,237.7l3.2,0c0.5,0,0.9-0.4,0.9-0.9c0-0.5-0.4-0.9-0.9-0.9l-3.2,0
		c-0.5,0-0.9,0.4-0.9,0.9C207.3,237.3,207.7,237.7,208.2,237.7z M217.6,230.6l-10.8-0.1c-0.5,0-0.9,0.4-0.9,0.9
		c0,0.5,0.4,0.9,0.9,0.9l10.8,0.1c0.5,0,0.9-0.4,0.9-0.9C218.5,231.1,218.1,230.6,217.6,230.6z M217.5,245.1l-6.8,0
		c-0.5,0-0.9,0.4-0.9,0.9c0,0.5,0.4,0.9,0.9,0.9l6.8,0c0.5,0,0.9-0.4,0.9-0.9C218.4,245.5,218,245.1,217.5,245.1z M172.2,236l5,0
		c0.5,0,0.9-0.4,0.9-0.9c0-0.5-0.4-0.9-0.9-0.9l-5,0c-0.5,0-0.9,0.4-0.9,0.9C171.3,235.6,171.7,236,172.2,236z M172.1,247.8l5,0
		c0.5,0,0.9-0.4,0.9-0.9c0-0.5-0.4-0.9-0.9-0.9l-5,0c-0.5,0-0.9,0.4-0.9,0.9C171.2,247.4,171.6,247.8,172.1,247.8z M165.1,246l-5,0
		c-0.5,0-0.9,0.4-0.9,0.9c0,0.5,0.4,0.9,0.9,0.9l5,0c0.5,0,0.9-0.4,0.9-0.9C166,246.4,165.6,246,165.1,246z M153,245.9l-17.1-0.1
		c-0.5,0-0.9,0.4-0.9,0.9c0,0.5,0.4,0.9,0.9,0.9l17.1,0.1c0.5,0,0.9-0.4,0.9-0.9C153.9,246.3,153.5,245.9,153,245.9z M133.1,234.8
		c0-0.5-0.4-0.9-0.9-0.9l-25.9-0.2c-0.5,0-0.9,0.4-0.9,0.9c0,0.5,0.4,0.9,0.9,0.9l25.9,0.2C132.7,235.7,133.1,235.3,133.1,234.8z
		 M229.5,223.4l11.7,0.1c0.5,0,0.9-0.4,0.9-0.9c0-0.5-0.4-0.9-0.9-0.9l-11.7-0.1c-0.5,0-0.9,0.4-0.9,0.9
		C228.6,223,229,223.4,229.5,223.4z M229.4,228l6.1,0c0.5,0,0.9-0.4,0.9-0.9c0-0.5-0.4-0.9-0.9-0.9l-6.1,0c-0.5,0-0.9,0.4-0.9,0.9
		C228.5,227.6,229,228,229.4,228z M229.4,233l3.7,0c0.5,0,0.9-0.4,0.9-0.9c0-0.5-0.4-0.9-0.9-0.9l-3.7,0c-0.5,0-0.9,0.4-0.9,0.9
		C228.5,232.6,228.9,233,229.4,233z M195,214.3c0.1,0,7.9-1.9,16.2,0.7c0.1,0,0.2,0,0.3,0c0.4,0,0.7-0.2,0.9-0.6
		c0.1-0.5-0.1-1-0.6-1.1c-8.8-2.7-16.8-0.8-17.1-0.7c-0.5,0.1-0.8,0.6-0.7,1.1C194,214.1,194.5,214.4,195,214.3z M195,218.1
		c0.1,0,7.9-1.9,16.2,0.7c0.1,0,0.2,0,0.3,0c0.4,0,0.7-0.2,0.9-0.6c0.1-0.5-0.1-1-0.6-1.1c-8.8-2.7-16.8-0.8-17.1-0.7
		c-0.5,0.1-0.8,0.6-0.7,1.1C194,217.9,194.5,218.2,195,218.1z M288.1,176.9c-1.4,0-1.9-0.2-2-0.2c-0.3-0.1-0.7,0.1-0.8,0.4
		c-0.1,0.3,0.1,0.7,0.4,0.8c0.1,0,0.7,0.2,2.3,0.2c0.3,0,0.6-0.3,0.6-0.6C288.7,177.2,288.4,176.9,288.1,176.9z M288.1,179.6
		c-1.4,0-1.9-0.2-2-0.2c-0.3-0.1-0.7,0.1-0.8,0.4c-0.1,0.3,0.1,0.7,0.4,0.8c0.1,0,0.7,0.2,2.3,0.2c0.3,0,0.6-0.3,0.6-0.6
		C288.7,179.9,288.4,179.6,288.1,179.6z M288,182.4c-1.4,0-1.9-0.2-2-0.2c-0.3-0.1-0.7,0.1-0.8,0.4c-0.1,0.3,0.1,0.7,0.4,0.8
		c0.1,0,0.7,0.2,2.3,0.2c0.3,0,0.6-0.3,0.6-0.6C288.6,182.7,288.4,182.4,288,182.4z M288,185.1c-1.4,0-1.9-0.2-2-0.2
		c-0.3-0.1-0.7,0.1-0.8,0.4c-0.1,0.3,0.1,0.7,0.4,0.8c0.1,0,0.7,0.2,2.3,0.2c0.3,0,0.6-0.3,0.6-0.6
		C288.6,185.4,288.4,185.1,288,185.1z M280,261.7l4.4,0c1.4,0,2.4-1.7,2.4-4.1c0-2.4-1-4.1-2.4-4.2l-4.4,0c-1.4,0-2.4,1.7-2.4,4.1
		C277.6,259.9,278.6,261.7,280,261.7z M280.1,255.2l4.3,0c0.2,0.1,0.6,1,0.6,2.3c0,1.4-0.4,2.2-0.6,2.3l-4.3,0
		c-0.2-0.1-0.6-1-0.6-2.3C279.5,256.1,279.9,255.3,280.1,255.2z M290.8,261.7l4.4,0c1.4,0,2.4-1.7,2.4-4.1c0-2.4-1-4.1-2.4-4.2
		l-4.4,0c-1.4,0-2.4,1.7-2.4,4.1C288.5,260,289.5,261.7,290.8,261.7z M290.9,255.3l4.3,0c0.2,0.1,0.6,1,0.6,2.3
		c0,1.4-0.4,2.2-0.6,2.3l-4.3,0c-0.2-0.1-0.6-1-0.6-2.3C290.3,256.2,290.7,255.4,290.9,255.3z M316.7,228.5L334,230c0,0,0.1,0,0.1,0
		c0.5,0,0.9-0.4,0.9-0.8c0-0.5-0.3-0.9-0.8-1l-17.3-1.5c-0.5,0-0.9,0.3-1,0.8C315.9,228,316.2,228.4,316.7,228.5z M316.7,233.9
		l17.3,1.5c0,0,0,0,0.1,0c0.5,0,0.9-0.4,0.9-0.8c0-0.5-0.3-0.9-0.8-1l-17.3-1.5c-0.5,0-0.9,0.3-1,0.8
		C315.8,233.4,316.2,233.8,316.7,233.9z M326.1,247.5C326.1,247.5,326.1,247.5,326.1,247.5c0.5,0,0.9-0.4,1-0.8c0-0.5-0.3-0.9-0.8-1
		l-9.7-0.8c-0.5,0-0.9,0.3-1,0.8c0,0.5,0.3,0.9,0.8,1L326.1,247.5z M335.9,246.4l-4.6-0.5c-0.5,0-0.9,0.3-1,0.8
		c-0.1,0.5,0.3,0.9,0.8,1l4.5,0.5c0,0,0.1,0,0.1,0c0.5,0,0.9-0.3,0.9-0.8C336.7,246.9,336.4,246.4,335.9,246.4z M335.8,252.1
		l-4.6-0.5c-0.5,0-0.9,0.3-1,0.8c-0.1,0.5,0.3,0.9,0.8,1l4.6,0.5c0,0,0.1,0,0.1,0c0.5,0,0.9-0.3,0.9-0.8
		C336.7,252.6,336.3,252.1,335.8,252.1z M339.7,248.3l4.5,0.5c0,0,0.1,0,0.1,0c0.5,0,0.9-0.3,0.9-0.8c0.1-0.5-0.3-0.9-0.8-1
		l-4.6-0.5c-0.5-0.1-0.9,0.3-1,0.8C338.9,247.8,339.3,248.3,339.7,248.3z M344.4,254.5c0.5,0,0.9-0.3,0.9-0.8c0.1-0.5-0.3-0.9-0.8-1
		l-4.5-0.5c-0.5,0-0.9,0.3-1,0.8c-0.1,0.5,0.3,0.9,0.8,1L344.4,254.5C344.3,254.5,344.3,254.5,344.4,254.5z M326.6,251.1l-9.7-0.8
		c-0.5,0-0.9,0.3-1,0.8c0,0.5,0.3,0.9,0.8,1l9.7,0.8c0,0,0,0,0.1,0c0.5,0,0.9-0.4,0.9-0.8C327.4,251.6,327.1,251.1,326.6,251.1z
		 M369,246.4l4,0c0.5,0,0.9-0.4,0.9-0.9c0-0.5-0.4-0.9-0.9-0.9l-4,0c-0.5,0-0.9,0.4-0.9,0.9C368.1,246,368.5,246.4,369,246.4z
		 M369,242.7l4,0c0.5,0,0.9-0.4,0.9-0.9c0-0.5-0.4-0.9-0.9-0.9l-4,0c-0.5,0-0.9,0.4-0.9,0.9C368.1,242.3,368.5,242.7,369,242.7z
		 M369,239l4,0c0.5,0,0.9-0.4,0.9-0.9c0-0.5-0.4-0.9-0.9-0.9l-4,0c-0.5,0-0.9,0.4-0.9,0.9C368.1,238.6,368.5,239,369,239z
		 M376.4,246.4l4,0c0.5,0,0.9-0.4,0.9-0.9c0-0.5-0.4-0.9-0.9-0.9l-4,0c-0.5,0-0.9,0.4-0.9,0.9C375.5,246,375.9,246.4,376.4,246.4z
		 M376.4,242.7l4,0c0.5,0,0.9-0.4,0.9-0.9c0-0.5-0.4-0.9-0.9-0.9l-4,0c-0.5,0-0.9,0.4-0.9,0.9C375.5,242.3,375.9,242.7,376.4,242.7z
		 M376.5,239.1l4,0c0.5,0,0.9-0.4,0.9-0.9c0-0.5-0.4-0.9-0.9-0.9l-4,0c-0.5,0-0.9,0.4-0.9,0.9C375.6,238.7,376,239.1,376.5,239.1z
		 M383.8,246.5l4,0c0.5,0,0.9-0.4,0.9-0.9c0-0.5-0.4-0.9-0.9-0.9l-4,0c-0.5,0-0.9,0.4-0.9,0.9C382.9,246,383.3,246.5,383.8,246.5z
		 M407.9,247.5l-4,0c-0.5,0-0.9,0.4-0.9,0.9c0,0.5,0.4,0.9,0.9,0.9l4,0c0.5,0,0.9-0.4,0.9-0.9C408.8,247.9,408.4,247.5,407.9,247.5z
		 M407.9,251l-4,0c-0.5,0-0.9,0.4-0.9,0.9c0,0.5,0.4,0.9,0.9,0.9l4,0c0.5,0,0.9-0.4,0.9-0.9C408.8,251.5,408.4,251.1,407.9,251z
		 M383.9,242.8l4,0c0.5,0,0.9-0.4,0.9-0.9c0-0.5-0.4-0.9-0.9-0.9l-4,0c-0.5,0-0.9,0.4-0.9,0.9C383,242.4,383.4,242.8,383.9,242.8z
		 M383.9,239.1l4,0c0.5,0,0.9-0.4,0.9-0.9c0-0.5-0.4-0.9-0.9-0.9l-4,0c-0.5,0-0.9,0.4-0.9,0.9C383,238.7,383.4,239.1,383.9,239.1z
		 M398.6,241.3l9.6,0.1c0.5,0,0.9-0.4,0.9-0.9c0-0.5-0.4-0.9-0.9-0.9l-9.6-0.1c-0.5,0-0.9,0.4-0.9,0.9
		C397.7,240.9,398.1,241.3,398.6,241.3z M398.6,245.4l9.6,0.1c0.5,0,0.9-0.4,0.9-0.9c0-0.5-0.4-0.9-0.9-0.9l-9.6-0.1
		c-0.5,0-0.9,0.4-0.9,0.9C397.7,245,398.1,245.4,398.6,245.4z M589.2,304.3L475.6,314c-0.5,0-0.9,0.5-0.8,1c0,0.5,0.4,0.8,0.9,0.8
		c0,0,0,0,0.1,0l113.6-9.8c0.5,0,0.9-0.5,0.8-1C590.1,304.6,589.6,304.2,589.2,304.3z M429.3,320.6l-113.6,9.8c-0.5,0-0.9,0.5-0.8,1
		c0,0.5,0.4,0.8,0.9,0.8c0,0,0,0,0.1,0l113.6-9.8c0.5,0,0.9-0.5,0.8-1C430.3,320.9,429.8,320.6,429.3,320.6z M290.9,281.6
		c-0.1,0-7.2,1.2-13.1,0.3c-0.5-0.1-1,0.3-1,0.8c-0.1,0.5,0.3,1,0.8,1c1.7,0.3,3.4,0.4,5.1,0.4c4.5,0,8.4-0.6,8.6-0.7
		c0.5-0.1,0.8-0.6,0.7-1C291.9,281.9,291.4,281.5,290.9,281.6z M290.9,286.5c0,0-4.5,0.8-9.3,0.6c-0.5,0-0.9,0.4-0.9,0.9
		c0,0.5,0.4,0.9,0.9,0.9c0.3,0,0.7,0,1,0c4.6,0,8.5-0.6,8.7-0.7c0.5-0.1,0.8-0.6,0.7-1C291.9,286.8,291.4,286.5,290.9,286.5z
		 M290.9,291.5c0,0-3.4,0.6-7.4,0.6c-0.5,0-0.9,0.4-0.9,0.9c0,0.5,0.4,0.9,0.9,0.9c0,0,0,0,0,0c4.2-0.1,7.5-0.6,7.7-0.7
		c0.5-0.1,0.8-0.5,0.7-1C291.8,291.7,291.4,291.4,290.9,291.5z M440.1,277.2c-0.5-0.1-1,0.3-1,0.8c-0.1,0.5,0.3,1,0.8,1
		c0.2,0,16.1,2.5,30.2,0.7l-0.1,20.3c0,0.5,0.4,0.9,0.9,0.9c0.5,0,0.9-0.4,0.9-0.9l0.1-21.4c0-0.3-0.1-0.5-0.3-0.7
		c-0.2-0.2-0.5-0.3-0.7-0.2C456.8,279.8,440.3,277.2,440.1,277.2z M468.1,282.7c-0.1,0-7.2,1.2-13.1,0.3c-0.5-0.1-1,0.3-1,0.8
		c-0.1,0.5,0.3,1,0.8,1c1.7,0.3,3.4,0.4,5.1,0.4c4.5,0,8.4-0.6,8.6-0.7c0.5-0.1,0.8-0.6,0.7-1C469.1,283,468.6,282.7,468.1,282.7z
		 M468.1,287.7c0,0-4.5,0.8-9.3,0.6c0,0,0,0,0,0c-0.5,0-0.9,0.4-0.9,0.9c0,0.5,0.4,0.9,0.9,0.9c0.3,0,0.7,0,1,0
		c4.6,0,8.5-0.6,8.6-0.7c0.5-0.1,0.8-0.6,0.7-1C469,287.9,468.6,287.6,468.1,287.7z M468,292.6c0,0-3.4,0.6-7.4,0.6
		c-0.5,0-0.9,0.4-0.9,0.9c0,0.5,0.4,0.9,0.9,0.9c0,0,0,0,0,0c4.2-0.1,7.5-0.6,7.7-0.7c0.5-0.1,0.8-0.6,0.7-1
		C469,292.8,468.5,292.5,468,292.6z"/>
</g>
<g>
	<path class="st4" d="M51.7,276.7c-0.1,1.5,1.2,1.7,2.2,2.1c0.5,1.3,1.4,2.3,2.7,2.8c0.2,1.5,0.9,2.7,2.1,3.6c0.7,1.8,1.3,3.6,2,5.3
		c0.4,1,0.9,2.1-0.5,2.5c-1.2,0.3-1.4-0.8-1.7-1.7c-1.6-5.3-4.7-9.5-9.2-12.8c-3.1-2.3-3.3-2.3-6.1,0.4c-0.6,0.6-1.1,1.4-2.3,1.7
		c0.3-1.5,1.6-2,2.5-2.8c1.3-1.3,1.3-2-0.6-2.5c-7-2-13.6-1.3-19.9,2.5c-4.6,2.8-7.7,6.8-9.8,11.7c-0.4,0.8-0.6,2.2-2,1.6
		c-1.3-0.6-0.6-1.7-0.2-2.6c1.4-3.4,3.3-6.4,6-8.9c0.9-1,2.3-1.6,2.8-2.9c5.2-3,10.7-4.9,16.8-5.1c0.7,0.4,1.5,0.7,2.3,0.5
		c2.6,0.1,5,1.2,7.4,1.8c0.7,0.4,1.5,0.8,2.2,1.2C49.4,275.9,50.4,276.5,51.7,276.7z"/>
</g>
<g>
	<path class="st1" d="M44.6,164.6c-3.4,0.2-6.2,1.8-8.1,4.9c-0.5,0.9-1,2.4-2.3,1.5c-1.2-0.8-0.2-2,0.3-2.9c3.8-6.5,13.1-8,18.6-2.8
		c1.6,1.5,2.9,2.4,5.3,2.4c5.2,0.1,9,3.9,9.5,8.8c0.1,1,0.2,2-1,2.1c-1.1,0.1-1.3-0.8-1.4-1.6c-0.5-3.7-2.6-6.1-6.1-6.8
		c-3.6-0.7-6.4,0.8-8.2,4c-0.4,0.8-0.9,1.5-1.9,0.9c-1-0.5-0.6-1.4-0.2-2.1c0.6-1.1,1.1-2.2,2.1-2.8c2.4-1.4,1.2-2.4-0.1-3.5
		C49.3,165.2,47.1,164.7,44.6,164.6z"/>
</g>
<g>
	<path class="st1" d="M426.7,104.2c1.7,1.5,4.2,1.4,6.1,2.5c0.8,1.2,3.6,1.5,2.4,3.3c-1.2,1.8-2.6-0.6-3.8-1.2
		c-3.5-1.8-7.1-2.8-11-1.8c-1,0.3-1.9,0.3-2.1-0.9c-0.2-1,0.7-1.4,1.6-1.5c2.7-0.1,2.3-1.7,1.6-3.3c-2.5-5.3-6.5-8.6-12.4-9.4
		c-0.4-0.1-0.9-0.1-1.4-0.1c-0.8-0.1-1.7-0.3-1.7-1.3c0-1.2,1-1.1,1.8-1.1c3.2,0.1,6.1,1,8.8,2.7c2.4,1.4,4.2,3.5,5.9,5.6
		c0,0.9,0.3,1.7,1.2,2.1C424.2,101.5,423.5,104.3,426.7,104.2z"/>
</g>
<g>
	<path class="st1" d="M597.5,272.5c-5.7,0-11.4,0-17.2,0c-0.9,0-2.3,0.4-2.2-1.2c0-1.2,1.3-1,2.2-1c11.6,0,23.2,0,34.9,0
		c1,0,2.3-0.2,2.3,1.2c0,1.2-1.3,1-2.2,1C609.3,272.5,603.4,272.5,597.5,272.5z"/>
</g>
<g>
	<path class="st4" d="M573,293.3c0.9,0.9,1.6,2,2.8,2.4c1.4,2.2,2.6,4.6,2.8,7.3c0.1,0.9,0.6,2.2-0.8,2.5c-1.7,0.3-1.5-1.2-1.6-2.2
		c-1.2-7.5-7.9-12.2-15-10.4c-1.7,0.4-3.1,1.4-4.3,2.6c-0.6,0.6-1.2,1.7-2.2,0.8c-1-0.9-0.2-1.8,0.5-2.6c3.4-3.8,9.5-4.8,14.8-2.4
		C571.1,291.9,572.2,292.5,573,293.3z"/>
</g>
<g>
	<path class="st1" d="M601.5,280.2c5.5,0,11.1,0,16.6,0c0.9,0,2.1-0.2,2.1,1.1c0,1.4-1.2,1.1-2,1.1c-11.1,0-22.2,0-33.2,0
		c-0.9,0-2.3,0.3-2.2-1.2c0.1-1.2,1.3-1,2.2-1C590.4,280.2,595.9,280.2,601.5,280.2z"/>
</g>
<g>
	<path class="st2" d="M227.8,143.5c1.9,0.9,4.6,0.2,7.2-0.1c1.8-0.2,3.4,0.4,4.9,1.3c0.7,0.4,1.1,1,0.7,1.8c-0.4,0.7-1,0.7-1.6,0.4
		c-2.4-1.4-4.8-1.5-7.2,0c-0.1,0-0.2,0.1-0.2,0.1c-3.1-1.3-6.2-1.7-9.3,0c-0.3,0.2-0.8-0.4-1-0.8c-0.2-0.6,0.1-1.1,0.6-1.4
		C223.6,143.9,225.2,143.2,227.8,143.5z"/>
</g>
<g>
	<path class="st1" d="M381.5,196c2.2,1.1,4.9,0.6,7.6,0.1c1.7-0.3,3.4,0.5,4.9,1.3c0.7,0.4,1.1,1,0.7,1.8c-0.4,0.9-1.1,0.7-1.8,0.4
		c-2.3-1.2-4.6-1.5-7,0c-0.6,0.4-1.2,0.3-1.8-0.1c-2.2-1.4-4.5-1.2-6.7,0c-0.7,0.4-1.4,0.6-1.9-0.2c-0.6-1,0.1-1.5,0.9-1.9
		C377.9,196.5,379.5,196.1,381.5,196z"/>
</g>
<g>
	<path class="st0" d="M556.9,215.4c-0.3,1.1-1.1,1.2-1.9,0.8c-2.4-1.2-4.8-1.6-7.2,0c-0.1,0.1-0.4,0.2-0.5,0.1
		c-2.9-1.4-5.8-1.6-8.8,0c-0.4,0.2-0.9-0.1-1-0.7c-0.2-0.7,0.1-1.2,0.7-1.6c1.9-1.1,4-1.9,6.2-1.2c1.8,0.6,3.4,0.7,5.2,0
		c2.2-0.8,4.3,0.1,6.2,1.1C556.4,214.2,556.9,214.6,556.9,215.4z"/>
</g>
<g>
	<path class="st2" d="M267.2,102.5c2,0.8,4.8,0.3,7.6-0.1c1.7-0.2,3.2,0.4,4.6,1.3c0.7,0.4,1.2,1,0.7,1.8c-0.4,0.7-1.1,0.6-1.7,0.3
		c-2.4-1.3-4.8-1.7-7.2,0c-0.1,0.1-0.4,0.2-0.5,0.2c-3-1.6-6-1.5-9,0c-0.3,0.2-0.8-0.3-0.9-0.8c-0.1-0.6,0.1-1.1,0.6-1.4
		C263,102.8,264.6,102.3,267.2,102.5z"/>
</g>
<g>
	<path class="st1" d="M146.7,334.6c1.4,0,2.7,0,4.1,0c0.7,0,1.3,0.3,1.3,1.1c0,0.8-0.5,1.1-1.2,1.1c-2.6,0-5.2,0-7.8,0
		c-0.7,0-1.3-0.3-1.3-1.1c0-0.8,0.5-1.1,1.2-1.1C144.1,334.6,145.4,334.6,146.7,334.6C146.7,334.6,146.7,334.6,146.7,334.6z"/>
</g>
<g>
	<path class="st1" d="M87.9,339c-0.9,0-1.5-0.4-1.4-1.2c0.3-1.7,1.8-2.4,3.2-2.8c0.8-0.2,1.6,0.4,1.3,1.2
		C90.5,337.7,89,338.2,87.9,339z"/>
</g>
<g>
	<path class="st0" d="M66.9,311.6c-0.6,0-1.3,0-1.9,0c-0.6,0-1-0.4-1.1-1c-0.1-0.8,0.4-1.2,1.1-1.2c1,0,2,0,3,0c0.9,0,2-0.1,2,1.2
		c0,1.3-1.2,1-2.1,1.1C67.7,311.6,67.3,311.6,66.9,311.6C66.9,311.6,66.9,311.6,66.9,311.6z"/>
</g>
<g>
	<path class="st2" d="M301.3,209.3v62.2l143.3,3.6l-0.3-61.9C444.3,213.2,369,260.4,301.3,209.3z"/>
</g>
<g>
	<polyline class="st5" points="305.3,215 303.9,272.3 309,272.3 310.6,218.9 316.6,222.3 316.6,272.8 320.9,272.8 320.9,225.5 
		326,228 326,272.9 332.3,272.9 332.3,230.6 338.9,233.7 338.9,273.3 343.9,273.3 343.9,235.3 350.1,237.3 350.1,273.3 355.1,273.3 
		356.2,273.3 356.2,238.6 362.2,239.3 362.2,273.7 367.9,273.7 367.9,239.9 374.6,240.2 374.6,273.7 382.1,273.7 382.1,240.2 
		390.4,239.1 390.4,274.3 397.9,274.3 397.9,237.5 404.6,236 404.6,274.5 412.6,274.5 412.6,232.8 421.3,229.1 421.3,274.8 
		429.6,274.8 429.6,225 436.7,220.4 436.7,274.5 	"/>
	<path class="st4" d="M429.6,275.6h-8.4c-0.5,0-0.8-0.4-0.8-0.8v-44.4l-7,3v41.1c0,0.5-0.4,0.8-0.8,0.8h-8c-0.5,0-0.8-0.4-0.8-0.8
		V237l-5.1,1.2v36.1c0,0.5-0.4,0.8-0.8,0.8h-7.5c-0.5,0-0.8-0.4-0.8-0.8v-34.2l-6.7,0.9v32.7c0,0.5-0.4,0.8-0.8,0.8h-7.5
		c-0.5,0-0.8-0.4-0.8-0.8V241l-5-0.2v32.9c0,0.5-0.4,0.8-0.8,0.8h-5.8c-0.5,0-0.8-0.4-0.8-0.8v-33.6l-4.3-0.5v33.7
		c0,0.5-0.4,0.8-0.8,0.8h-6.1c-0.5,0-0.8-0.4-0.8-0.8v-35.4l-4.6-1.5v36.9c0,0.5-0.4,0.8-0.8,0.8h-5c-0.5,0-0.8-0.4-0.8-0.8v-39.1
		l-4.9-2.3v41c0,0.5-0.4,0.8-0.8,0.8H326c-0.5,0-0.8-0.4-0.8-0.8v-44.4l-3.4-1.7v45.9c0,0.5-0.4,0.8-0.8,0.8h-4.3
		c-0.5,0-0.8-0.4-0.8-0.8v-50l-4.4-2.5l-1.6,52c0,0.4-0.4,0.8-0.8,0.8h-5.2c-0.2,0-0.4-0.1-0.6-0.2c-0.2-0.2-0.2-0.4-0.2-0.6
		l1.4-57.3c0-0.4,0.4-0.8,0.8-0.8c0,0,0,0,0,0c0.5,0,0.8,0.4,0.8,0.8l-1.4,56.5h3.5l1.6-52.5c0-0.3,0.2-0.5,0.4-0.7
		c0.2-0.1,0.6-0.1,0.8,0l6,3.4c0.3,0.1,0.4,0.4,0.4,0.7v49.6h2.6v-46.4c0-0.3,0.1-0.5,0.4-0.7c0.2-0.2,0.5-0.2,0.8,0l5.1,2.5
		c0.3,0.1,0.5,0.4,0.5,0.7v44h4.7v-41.5c0-0.3,0.1-0.5,0.4-0.7c0.2-0.1,0.5-0.2,0.8,0l6.6,3.1c0.3,0.1,0.5,0.4,0.5,0.7v38.8h3.3
		v-37.2c0-0.3,0.1-0.5,0.3-0.7c0.2-0.2,0.5-0.2,0.7-0.1l6.3,2c0.3,0.1,0.6,0.4,0.6,0.8v35.2h4.4v-33.8c0-0.2,0.1-0.5,0.3-0.6
		c0.2-0.2,0.4-0.2,0.6-0.2l6,0.7c0.4,0,0.7,0.4,0.7,0.8v33.5h4.1v-32.9c0-0.2,0.1-0.4,0.3-0.6c0.2-0.2,0.4-0.2,0.6-0.2l6.7,0.3
		c0.4,0,0.8,0.4,0.8,0.8v32.6h5.8v-32.6c0-0.4,0.3-0.8,0.7-0.8l8.4-1.1c0.2,0,0.5,0,0.6,0.2c0.2,0.2,0.3,0.4,0.3,0.6v34.3h5.8v-35.9
		c0-0.4,0.3-0.7,0.6-0.8l6.8-1.5c0.2-0.1,0.5,0,0.7,0.2c0.2,0.2,0.3,0.4,0.3,0.6v37.7h6.3v-40.9c0-0.3,0.2-0.6,0.5-0.8l8.7-3.7
		c0.3-0.1,0.5-0.1,0.8,0.1c0.2,0.2,0.4,0.4,0.4,0.7v44.8h6.7V225c0-0.3,0.1-0.5,0.4-0.7l7.1-4.6c0.3-0.2,0.6-0.2,0.8,0
		c0.3,0.1,0.4,0.4,0.4,0.7v54c0,0.5-0.4,0.8-0.8,0.8s-0.8-0.4-0.8-0.8v-52.5l-5.4,3.5v49.3C430.4,275.2,430.1,275.6,429.6,275.6z"/>
</g>
<g>
	<path class="st5" d="M301.6,211.3c0,0,65.1,62.5,142.2,4l0.7-0.7l-0.2-8.1l-2.1,0.5c-77,58.5-142.2-4-142.2-4L301.6,211.3z"/>
	<path class="st6" d="M375.4,241.1c-10.6,0-21.3-1.7-31.9-5.1c-25.8-8.3-42.3-24-42.5-24.1c-0.1-0.1-0.2-0.3-0.2-0.4l-1.6-8.2
		c-0.1-0.4,0.1-0.7,0.4-0.9c0.3-0.2,0.7-0.1,1,0.1c0.2,0.2,16.5,15.6,41.9,23.8c14.9,4.8,30,6.1,44.9,4.1
		c18.6-2.6,36.8-10.6,54.3-23.9c0.1-0.1,0.2-0.1,0.3-0.1l2.1-0.5c0.2-0.1,0.5,0,0.7,0.1c0.2,0.1,0.3,0.4,0.3,0.6l0.2,8.1
		c0,0.2-0.1,0.5-0.3,0.6l-0.7,0.7c0,0,0,0-0.1,0c-17.7,13.4-36.2,21.6-55.1,24.2C384.6,240.8,380,241.1,375.4,241.1z M302.3,210.9
		c1.9,1.7,17.8,15.9,41.8,23.6c14.9,4.8,30,6.1,44.9,4.1c18.6-2.6,36.8-10.6,54.3-23.9l0.4-0.4l-0.2-6.7l-1,0.2
		c-17.6,13.4-36.1,21.5-55,24.1c-15.1,2.1-30.5,0.7-45.6-4.1c-20.9-6.7-35.7-18.2-40.7-22.5L302.3,210.9z"/>
</g>
<text transform="matrix(1 0 0 1 34.0342 56.8652)" class="st4 st7 st8">Reach Out &amp; Bridge The Gap Between Us</text>
</svg>
