<?xml version="1.0" encoding="utf-8"?>
<!-- Generator: Adobe Illustrator 21.1.0, SVG Export Plug-In . SVG Version: 6.00 Build 0)  -->
<svg version="1.1" id="Layer_1" xmlns="http://www.w3.org/2000/svg" xmlns:xlink="http://www.w3.org/1999/xlink" x="0px" y="0px"
	 viewBox="0 0 642.6 336.9" style="enable-background:new 0 0 642.6 336.9;" xml:space="preserve">
<style type="text/css">
	.st0{display:none;}
	.st1{fill:#7C83B3;}
	.st2{opacity:0.2;fill:#FFFFFF;enable-background:new    ;}
	.st3{fill:#D6DCE2;}
	.st4{fill:#EAB234;}
	.st5{fill:#FFCD52;}
	.st6{fill:url(#SVGID_1_);}
	.st7{fill:url(#SVGID_2_);}
	.st8{fill:url(#SVGID_3_);}
	.st9{fill:url(#SVGID_4_);}
	.st10{fill:url(#SVGID_5_);}
	.st11{fill:#F2F2F2;}
	.st12{fill:#66CCB0;}
	.st13{fill:#7B7F9A;}
	.st14{fill:#6F738E;}
	.st15{fill:#D6D6D6;}
	.st16{fill:#FFFFFF;}
	.st17{fill:#D8D8D8;}
	.st18{opacity:0.19;fill:#FFFFFF;enable-background:new    ;}
	.st19{fill:url(#SVGID_6_);}
	.st20{fill:url(#SVGID_7_);}
	.st21{fill:url(#SVGID_8_);}
	.st22{fill:url(#SVGID_9_);}
	.st23{fill:url(#SVGID_10_);}
	.st24{fill:url(#SVGID_11_);}
	.st25{fill:url(#SVGID_12_);}
	.st26{fill:#79D7BF;}
	.st27{fill:#63C1D2;}
	.st28{fill:#76CED8;}
	.st29{fill:#FFD191;}
	.st30{opacity:0.68;fill:#ABB1BD;enable-background:new    ;}
	.st31{fill:#FFE0AD;}
	.st32{fill:#DADCDE;}
	.st33{fill:#CDCDCD;}
	.st34{opacity:0.1;fill:#FFFFFF;enable-background:new    ;}
	.st35{fill:#8B8293;}
	.st36{opacity:0.5;fill:#CFD5E3;enable-background:new    ;}
	.st37{fill:url(#SVGID_13_);}
	.st38{fill:url(#SVGID_14_);}
</style>
<g id="m6BYYw.tif" class="st0">
</g>
<g>
	<g>
		<g>
			<path class="st1" d="M73,133.6c0,0,4.7-15.4,17.1-22.5c3.3-1.9,4.8-5.5,5.6-9.1c0.7-3,1-6.1,2.2-8.9c0.5-1.2,1.2-2.4,1.4-3.7
				c0.2-1.3-0.3-2.6,0.4-3.9c1.7-3,9.8-22.6-9.5-28.2C81.8,55,73.8,57.6,68.9,65c-1.5,2.3-2.7,4.8-3.5,7.4
				c-1.4,4.8,1.4,10.7,3.1,15.2c1.8,4.6,3.7,9.1,2.9,14.2c-0.9,6.1-4.4,11.2-6.8,16.7c-1.5,3.5-2.8,8.6,1,11
				C68,131,70.6,132.3,73,133.6z"/>
			<path class="st2" d="M90.2,111.1c8.4-5,4.5-13.2,8-18.4c3.5-5.2-0.1-4.1,1.7-7.1c1.7-3,9.8-22.6-9.5-28.2
				c-9.5-2.7-22.6,2.2-23.8,13.3c-0.8,7.1,4.8,11.8,8.5,16.9c3.8,5.3,3.8,12.8,2.8,18.9C77.3,110,82.1,114.7,90.2,111.1z"/>
			<g>
				<path class="st3" d="M72.8,134.1c0.1,0,0.2,0.1,0.3,0.1c0.3,0,0.5-0.3,0.5-0.5c-0.9-13.2,2.5-19,6.4-25.8c0.3-0.6,0.7-1.2,1-1.8
					c5.9-11.5,6.3-21.2,5.6-27.3c-0.8-6.6-2.9-10.5-3-10.7s-0.4-0.3-0.7-0.2c-0.2,0.1-0.3,0.4-0.2,0.7c0.1,0.2,8.4,15.5-2.6,37
					c-0.3,0.6-0.7,1.2-1,1.7c-4,6.9-7.5,12.9-6.6,26.4C72.6,133.8,72.7,134,72.8,134.1z"/>
			</g>
		</g>
		<g>
			<g>
				<path class="st4" d="M30,51.6c0.5-0.6,3.9-0.2,4.6-0.2c3.3,0,6.7,0.4,9.9,1.2c7.4,2,11.6,7.9,10.2,15.6C53.4,75,47.9,84,56,88.6
					c3.2,1.8,6.4,1.6,7.5,5.9c1.1,4.2-0.1,8.8-1.1,12.9c-1.1,4.5-1.4,8,0,12.6c1,3.2,3,5.9,4,9c1.6,5.3,1.5,11.3,0.6,16.7
					c-0.6,3.3-6.3,2-9,2l-14-12l-9-21l-8-33l-8-17C19,64.6,30,51.6,30,51.6z"/>
				<path class="st5" d="M52,147.6c-0.1-4.7-3.2-8.9-7-11.5c-5.9-4-14-3.4-18.9-9c-3.1-3.6-4.3-8.2-3.5-12.9
					c0.4-2.5,1.9-4.5,2.5-6.9c1.1-4.2-2.7-7.7-6-9.6c-2.8-1.6-6.2-1.4-9-3.1c-2.6-1.5-4.2-4.6-4.6-7.5C5,83.3,6,79.2,6.5,75.2
					c1-9.8-5.6-22.5,4.8-29.2c11.4-7.4,20.5,5.5,30.4,9c1.9,0.7,3.8,1.1,5.5,2.1c4.5,2.8,2.3,8.1,1.5,12.3
					c-0.8,4.1-2.2,9.3-0.6,13.4c1.9,5.1,10.9,14.8,8,22c-2.9,7.2-3.2,15.2,1,21c4.2,5.8,12.4,14.8,11,22
					C68,148.1,53.3,147.6,52,147.6z"/>
				<g>
					<path class="st4" d="M62.6,148.9c0,0-2.4-4.1-4-7c-0.4-0.6-1.3-1.7-2.5-3.1c-4.1-4.7-10.9-12.5-10.5-20.1
						c0.4-10.3-0.8-20.9-2.9-24.7c-2.1-3.7-6.1-7.4-10.4-11.4C25.6,76.4,18,69.4,16.6,60.8c0-0.3,0.1-0.5,0.4-0.6
						c0.3,0,0.5,0.1,0.6,0.4c1.3,8.2,8.8,15.1,15.4,21.2c4.3,4,8.4,7.8,10.6,11.6c2.5,4.5,3.4,16.1,3.1,25.3
						c-0.3,7.2,6.3,14.9,10.3,19.4c1.3,1.5,2.2,2.6,2.6,3.3c1.6,2.9,4,7,4,7L62.6,148.9z"/>
				</g>
			</g>
			<g>
				<path class="st4" d="M34,84.3c0.3,0,0.5-0.2,0.5-0.4l2.1-20.4c0-0.3-0.2-0.5-0.4-0.5c-0.3,0-0.5,0.2-0.5,0.4l-2.1,20.4
					C33.4,84,33.6,84.2,34,84.3C33.9,84.3,34,84.3,34,84.3z"/>
			</g>
			<g>
				<path class="st4" d="M45.6,113.6c0.1,0,0.3,0,0.4-0.1c0.2-0.2,0.2-0.5,0-0.7L30.2,97c-0.2-0.2-0.5-0.2-0.7,0s-0.2,0.5,0,0.7
					l15.7,15.7C45.4,113.5,45.5,113.6,45.6,113.6z"/>
			</g>
		</g>
		<linearGradient id="SVGID_1_" gradientUnits="userSpaceOnUse" x1="28.4" y1="148.2903" x2="121.639" y2="148.2903">
			<stop  offset="0" style="stop-color:#478DFF"/>
			<stop  offset="1" style="stop-color:#00157E"/>
		</linearGradient>
		<path class="st6" d="M28.4,169.5c0,0,11.9-51.2,60.8-41.1s28,37.5,28,37.5"/>
		<linearGradient id="SVGID_2_" gradientUnits="userSpaceOnUse" x1="7.3174" y1="197.9858" x2="296.2" y2="197.9858">
			<stop  offset="0" style="stop-color:#478DFF"/>
			<stop  offset="1" style="stop-color:#00157E"/>
		</linearGradient>
		<path class="st7" d="M178.4,258.5c41.4-3.5,117.8-23.2,117.8-51.5v-2.7c0-28.3-23.2-51.5-51.5-51.5l-156-16.1
			c-28.3,0-91.5,30.1-80,75C19.8,254.8,137.1,262,178.4,258.5L178.4,258.5z"/>
		
			<linearGradient id="SVGID_3_" gradientUnits="userSpaceOnUse" x1="-159.8533" y1="366.1074" x2="-159.8717" y2="367.4489" gradientTransform="matrix(-36.1 0 0 23.3 -5552.7319 -8423.3555)">
			<stop  offset="0.4251" style="stop-color:#FFFFFF;stop-opacity:0"/>
			<stop  offset="0.5427" style="stop-color:#B3C7E8;stop-opacity:0.1"/>
			<stop  offset="0.6704" style="stop-color:#6790D1;stop-opacity:0.208"/>
			<stop  offset="0.7763" style="stop-color:#2F67C0;stop-opacity:0.298"/>
			<stop  offset="0.8547" style="stop-color:#0D4EB6;stop-opacity:0.364"/>
			<stop  offset="0.897" style="stop-color:#0044B2;stop-opacity:0.4"/>
		</linearGradient>
		<path class="st8" d="M200.5,130.2l-0.3-23.3l36.1,17l-14.3,2.9C222.1,126.9,201.2,130.1,200.5,130.2z"/>
		
			<linearGradient id="SVGID_4_" gradientUnits="userSpaceOnUse" x1="-145.3255" y1="367.5166" x2="-145.3799" y2="366.6759" gradientTransform="matrix(-73.2 0 0 26.0515 -10469.7715 -9394.1484)">
			<stop  offset="1.884000e-02" style="stop-color:#5088D8;stop-opacity:0.4"/>
			<stop  offset="0.2939" style="stop-color:#5B91E1;stop-opacity:0.277"/>
			<stop  offset="0.777" style="stop-color:#78A9F8;stop-opacity:6.100000e-02"/>
			<stop  offset="0.9135" style="stop-color:#82B1FF;stop-opacity:0"/>
		</linearGradient>
		<path class="st9" d="M134.9,155.1c0,0,20.8-0.4,33.4,10.1c12.5,10.5,39.8,2.2,39.8,2.2s-11.2,5-18.5,13.7c0,0-10.1,1.4-22.4-10.7
			C154.9,158.3,134.9,155.1,134.9,155.1L134.9,155.1z"/>
		
			<linearGradient id="SVGID_5_" gradientUnits="userSpaceOnUse" x1="-267.1148" y1="363.9922" x2="-265.3936" y2="364.1604" gradientTransform="matrix(-7.6532 0 0 14.6 -1816.0009 -5102.4976)">
			<stop  offset="0" style="stop-color:#FFFFFF;stop-opacity:0"/>
			<stop  offset="0.1077" style="stop-color:#FAFCFE;stop-opacity:4.300000e-02"/>
			<stop  offset="0.2314" style="stop-color:#ECF1F9;stop-opacity:9.300000e-02"/>
			<stop  offset="0.3631" style="stop-color:#D5E0F2;stop-opacity:0.145"/>
			<stop  offset="0.5005" style="stop-color:#B5C9E9;stop-opacity:0.2"/>
			<stop  offset="0.6422" style="stop-color:#8BAADC;stop-opacity:0.257"/>
			<stop  offset="0.7876" style="stop-color:#5985CD;stop-opacity:0.315"/>
			<stop  offset="0.9332" style="stop-color:#1E5ABB;stop-opacity:0.373"/>
			<stop  offset="1" style="stop-color:#0044B2;stop-opacity:0.4"/>
		</linearGradient>
		<path class="st10" d="M224.3,220.4c1.3-5.9-6.1-14.6-6.1-14.6c4.3,9.1-1.4,14.6-1.4,14.6H224.3z"/>
		<g>
			<g>
				<g>
					<path class="st1" d="M105.2,92.8C106,80.9,118,79.3,118,71.6s-3.5-7.7-3.5-14.1c0.2-12.2,7-10.1,6.6-16.6
						c-0.4-6.6-2-31.7,20.7-28.6c0,0,9.2-8.9,22.7,3.1C178,27.3,169.1,37,170.7,42c1.5,5,9.6,4.6,9.6,13.1s-7.3,10-5.8,16.2
						c1.2,4.8,13.6,10.4,11.8,25.2c-11.2,9.5-25.7,15.2-41.5,15.2c-14.9,0-28.7-5.1-39.6-13.7C105.1,96.4,105,94.6,105.2,92.8z"/>
				</g>
				<path class="st11" d="M146.9,88.3c-10.1,0.2-15-5.9-16.9-9.3c4.7-0.2,8.4-0.1,8.4-0.1l15.5-0.6l7.2,0.9
					C160.3,81.4,157,88,146.9,88.3z"/>
				<path class="st12" d="M110.1,82c3.1-2.1,12.8-2.8,19.9-3c1.9,3.4,6.7,9.5,16.9,9.3c10.1-0.2,13.4-6.9,14.2-9l14.9,1.9
					c14.7-0.9,22.6,31.2,22.6,31.2L184.7,141l-5.4-34.8l-5.7,45.2l-4.5,7.9l-23.4,26c-21.7,0-20.8-23.4-20.8-23.4l-0.7-6.9
					c10-2.5,22.7-7,22.7-7v-8.8h-1.5l-22.8,0.1l-2.9-29.4l0.9,29.5l2.1-0.3l1.6,15.9c-3.9,1-7.5,1.7-9.7,1.7c-7.8,0-7.8-7.8-7.8-7.8
					s-3.5-42.5-4.3-52.1C101.4,87.2,104.9,85.5,110.1,82z"/>
				<path class="st13" d="M223.9,307.4c0,0,13-0.9,11,1.9s-5.4,7.1-14.2,5.9c-8.8-1.3-7.9-3.7-12.9-5.6s-12.3-2.5-11.9-5.8
					c0.4-3.3,5.3-7.7,5.9-8.2c0.6-0.5,6.7,1.9,6.7,1.9l4.2,5.8L223.9,307.4z"/>
				<path class="st11" d="M209.9,292.9l-7.7-0.7l-0.3,3.5c0,0,4.9,0.7,6.9,5.3c2,4.7,7.6,8.2,12.5,7.9c4.9-0.3,4.1-0.8,4.1-0.8
					s-5.3-2.7-7.3-5s-3.5-8.9-7.4-9.6"/>
				<path class="st14" d="M299.2,243.1c0,0,11.4-6.4,10.8-3s-1.8,8.8-10.3,11.4c-8.5,2.6-8.7,0-14,0.4s-12.2,3-13.2-0.2
					c-1-3.1,1.5-9.2,1.9-10c0.3-0.8,6.9-1.1,6.9-1.1l6.2,3.4L299.2,243.1z"/>
				<path class="st11" d="M280.4,235.9l-7.3,2.6l1.3,3.3c0,0,4.7-1.5,8.5,1.9s10.3,4.2,14.6,1.8c4.3-2.4,3.4-2.4,3.4-2.4
					s-5.9-0.2-8.7-1.4c-2.8-1.2-7-6.6-10.8-5.5"/>
				<path class="st13" d="M283,236l-10.4,3.5c0,0-38.8-43.1-40-49.9c0,0-96,8.6-97.3-13.2s23.1-25.6,47.9-27.1s51.7,1.5,51.7,1.5
					s4.3,2.5,8.4,9.4C247.3,167.1,283,236,283,236z"/>
				<g>
					<path class="st14" d="M224,180.5c12.4,5.3,6.7,17.5,6.7,17.5c-10.2,34.9-17,97.8-17,97.8l-12.8-2.6c0,0-1.7-49.3-5.1-66.4
						c-3.4-17,6.8-28.1,6.8-28.1l-36.6-8.5C166,190.3,207.7,179.1,224,180.5z"/>
				</g>
				<g>
					<path class="st11" d="M135.3,79.6l17.5-9.9c0.1,3,0.9,6.2,2.9,8.5c0.1,0.1,0.2,0.3,0.4,0.4C153.9,80.6,146.8,85.3,135.3,79.6z"
						/>
					<path class="st15" d="M134.8,79.4c0.4-0.3,0.7-0.7,1.1-1.1c5.2-5.8,1.9-17.1,1.9-17.1h4.5h3.3h8.2c0,0-1.2,4.1-1,8.6l-17.5,9.9
						C135.1,79.5,135,79.4,134.8,79.4z"/>
				</g>
				<g>
					<path class="st11" d="M145.8,70.6c-11.4,0-20.6-11.7-20.6-26.2s9.2-26.2,20.6-26.2l0,0c11.4,0,20.6,11.7,20.6,26.2
						C166.4,58.9,157.2,70.6,145.8,70.6L145.8,70.6z"/>
				</g>
				<path class="st16" d="M145.2,138.7c0,0,21-4.1,25.5,6.4l-0.5,2.5l-13.4,0.8c0,0-3.1-1-4-0.5s-2.6,1.6-4.9,0.7
					c-2.4-0.9-3.9-2.2-3.9-2.2L145.2,138.7z"/>
				<polygon class="st17" points="250,103.8 228.2,148.5 163.4,148.5 182.9,103.7 				"/>
				<path class="st17" d="M154,149.4c0,0.6,0.5,1,1,1h72.9c0.6,0,1-0.5,1-1.1l0,0c0-0.6-0.4-1-1-1H155c-0.6,0-0.8,0-0.8,0.5
					L154,149.4z"/>
				<ellipse class="st18" cx="208.1" cy="129" rx="7.6" ry="1.9"/>
			</g>
		</g>
	</g>
	<g>
		<linearGradient id="SVGID_6_" gradientUnits="userSpaceOnUse" x1="408.9039" y1="171.9419" x2="605.0352" y2="171.9419">
			<stop  offset="0" style="stop-color:#478DFF"/>
			<stop  offset="1" style="stop-color:#00157E"/>
		</linearGradient>
		<path class="st19" d="M473.1,120.1c0,0,62.9-3.7,62.8,37.2c0,0,59,0.3,67.2,20.1c11.6,27.8-28.7,61.2-127.7,39.5
			c0,0-31.3-18.6-49.7-23.2c-20.8-5.2-30-53.7,19.1-35.2"/>
		
			<linearGradient id="SVGID_7_" gradientUnits="userSpaceOnUse" x1="-153.8183" y1="363.4507" x2="-155.1083" y2="362.8529" gradientTransform="matrix(-32.8 0 0 18.697 -4691.1909 -6589.4878)">
			<stop  offset="0" style="stop-color:#F2F4F7;stop-opacity:0"/>
			<stop  offset="9.680000e-02" style="stop-color:#ECF0F5;stop-opacity:3.900000e-02"/>
			<stop  offset="0.2259" style="stop-color:#DBE3F0;stop-opacity:9.000000e-02"/>
			<stop  offset="0.3732" style="stop-color:#BFCFE9;stop-opacity:0.149"/>
			<stop  offset="0.5341" style="stop-color:#99B3DD;stop-opacity:0.214"/>
			<stop  offset="0.706" style="stop-color:#678FCF;stop-opacity:0.282"/>
			<stop  offset="0.8843" style="stop-color:#2B63BE;stop-opacity:0.354"/>
			<stop  offset="1" style="stop-color:#0044B2;stop-opacity:0.4"/>
		</linearGradient>
		<path class="st20" d="M394,204.6c0,0-14,11.6-31.9,3.8l-0.9-16L394,204.6"/>
		
			<linearGradient id="SVGID_8_" gradientUnits="userSpaceOnUse" x1="-146.143" y1="367.6873" x2="-147.7459" y2="367.211" gradientTransform="matrix(-44.8561 0 0 40.8 -6075.7261 -14853.499)">
			<stop  offset="0" style="stop-color:#478DFF"/>
			<stop  offset="1" style="stop-color:#00157E"/>
		</linearGradient>
		<path class="st21" d="M535.9,157.4c0,0,3.5-30.3-44.8-36.8l7.9,40.8C499.1,161.4,526.4,157,535.9,157.4z"/>
		
			<linearGradient id="SVGID_9_" gradientUnits="userSpaceOnUse" x1="-194.8044" y1="345.9731" x2="-194.4467" y2="347.7129" gradientTransform="matrix(-11.0384 0 0 5.7 -1570.0112 -1799.0732)">
			<stop  offset="0" style="stop-color:#E6E6E6;stop-opacity:0"/>
			<stop  offset="0.1758" style="stop-color:#A7BAD8;stop-opacity:0.119"/>
			<stop  offset="0.3601" style="stop-color:#6C90CA;stop-opacity:0.244"/>
			<stop  offset="0.53" style="stop-color:#3D6FC0;stop-opacity:0.359"/>
			<stop  offset="0.6797" style="stop-color:#1C58B8;stop-opacity:0.46"/>
			<stop  offset="0.8035" style="stop-color:#0749B4;stop-opacity:0.544"/>
			<stop  offset="0.8861" style="stop-color:#0044B2;stop-opacity:0.6"/>
		</linearGradient>
		<path class="st22" d="M591.6,176.1c0,0,1.9,6.4-11.8,6.4s-14.7-4.5-14.7-4.5"/>
		
			<linearGradient id="SVGID_10_" gradientUnits="userSpaceOnUse" x1="-153.3388" y1="367.4227" x2="-151.631" y2="366.5154" gradientTransform="matrix(-32.6963 0 0 35 -4473.4189 -12702.4277)">
			<stop  offset="0" style="stop-color:#478DFF"/>
			<stop  offset="1" style="stop-color:#00157E"/>
		</linearGradient>
		<path class="st23" d="M513.5,158.7c0,0-15-13.5-8-14.5s15.5,0,15.5,0s-23.7-16.6-16.4-20.5c0,0,27.5,2.2,31.3,33.6
			C535.9,157.4,519,158,513.5,158.7z"/>
		
			<linearGradient id="SVGID_11_" gradientUnits="userSpaceOnUse" x1="-147.7291" y1="365.129" x2="-146.198" y2="363.3395" gradientTransform="matrix(-44.1291 0 0 21.473 -5941.5771 -7658.6172)">
			<stop  offset="0" style="stop-color:#478DFF"/>
			<stop  offset="1" style="stop-color:#00157E"/>
		</linearGradient>
		<path class="st24" d="M574.3,179.4c0,0-17.2-7.7-26.2-8.5c0,0-19.7-2.9-17.8-8.5c0,0,1.5-6.7,24.4-3.7"/>
		<linearGradient id="SVGID_12_" gradientUnits="userSpaceOnUse" x1="332.1681" y1="238.1678" x2="524.0722" y2="238.1678">
			<stop  offset="0" style="stop-color:#478DFF"/>
			<stop  offset="1" style="stop-color:#00157E"/>
		</linearGradient>
		<path class="st25" d="M413.3,206.7c4.3,3,42.3-30.2,78.6-12.9c29.8,14.2,39.8,42.8,26.2,63.2c-3.1,4.6-7.4,8.7-12.8,12.2
			c-31.8,20.1-77.7,19.5-94.6,17.3C264.6,269,356.6,167,413.3,206.7L413.3,206.7z"/>
		<g>
			<path class="st12" d="M579,179c0,0-3.4-15.7,4-28c2-3.3,1.5-7.2,0.5-10.7c-0.9-2.9-2.1-5.8-2.4-8.8c-0.1-1.3-0.1-2.7-0.6-3.9
				c-0.5-1.3-1.6-2.1-1.5-3.6c0.1-3.4-2.5-24.5-22-20c-8.6,2-14.4,8.3-15.1,17.1c-0.2,2.7,0,5.5,0.6,8.2c1.1,4.9,6.5,8.6,10.1,11.7
				c3.8,3.2,7.6,6.2,9.4,11c2.2,5.7,1.6,11.9,2.2,17.9c0.4,3.8,1.7,8.9,6.2,9.1C573.3,179.2,576.2,179,579,179z"/>
			<path class="st26" d="M583,151c4.9-8.4-2.6-13.7-2-20s-2.1-3.6-2-7s-2.5-24.5-22-20c-9.6,2.2-18.7,12.9-14.3,23.2
				c2.8,6.6,9.9,7.9,15.6,10.6c5.9,2.7,9.6,9.3,11.7,15.2C571.2,156.3,577.7,158.1,583,151z"/>
			<g>
				<path class="st16" d="M579,179.3c0.1,0,0.2,0,0.3-0.1c0.2-0.2,0.3-0.5,0.1-0.7c-7.2-11.1-7.1-17.8-6.9-25.7c0-0.7,0-1.4,0-2
					c-0.4-12.9-4.8-21.6-8.4-26.6c-3.9-5.4-7.7-7.8-7.8-7.9c-0.2-0.1-0.5-0.1-0.7,0.2c-0.1,0.2-0.1,0.5,0.2,0.7
					c0.1,0.1,14.9,9.4,15.8,33.6c0,0.7,0,1.3,0,2c-0.1,8-0.2,14.9,7.1,26.2C578.6,179.2,578.8,179.3,579,179.3z"/>
			</g>
			<path class="st27" d="M613,83c-0.5-0.6-3.9-0.2-4.6-0.2c-3.3,0-6.7,0.4-9.9,1.2c-7.4,2-11.6,7.9-10.2,15.6
				c1.2,6.7,6.8,15.7-1.4,20.4c-3.2,1.8-6.4,1.6-7.5,5.9c-1.1,4.2,0.1,8.8,1.1,12.9c1.1,4.5,1.4,8,0,12.6c-1,3.2-3,5.9-4,9
				c-1.6,5.3-1.5,11.3-0.6,16.7c0.6,3.3,6.3,2,9,2l14-12l9-21l8-33l8-17C624,96,613,83,613,83z"/>
			<path class="st28" d="M587.5,179.3c3.2-5,6.7-9.1,10.6-11.7c5.9-4,14-3.4,18.9-9c3.1-3.6,4.3-8.2,3.5-12.9
				c-0.4-2.5-1.9-4.5-2.5-6.9c-1.1-4.2,2.7-7.7,6-9.6c2.8-1.6,6.2-1.4,9-3.1c2.6-1.5,4.2-4.6,4.6-7.5c0.6-4-0.4-8.1-0.9-12.1
				c-1-9.8,5.6-22.5-4.8-29.2c-11.4-7.4-20.5,5.5-30.4,9c-1.9,0.7-3.8,1.1-5.5,2.1c-4.5,2.8-2.3,8.1-1.5,12.3
				c0.8,4.1,2.2,9.3,0.6,13.4c-1.9,5.1-10.9,14.8-8,22s3.2,15.2-1,21s-12.4,14.8-11,22C575.1,179.5,586.2,179.3,587.5,179.3z"/>
			<g>
				<path class="st16" d="M581,179.5c0,0,1.9-3.3,3.5-6.2c0.4-0.6,1.3-1.7,2.5-3.1c4.1-4.7,10.9-12.5,10.5-20.1
					c-0.4-10.3,0.8-20.9,2.9-24.7c2.1-3.7,6.1-7.4,10.4-11.4c6.7-6.2,14.3-13.2,15.7-21.8c0-0.3-0.1-0.5-0.4-0.6
					c-0.3,0-0.5,0.1-0.6,0.4c-1.3,8.2-8.8,15.1-15.4,21.2c-4.3,4-8.4,7.8-10.6,11.6c-2.5,4.5-3.4,16.1-3.1,25.3
					c0.3,7.2-6.3,14.9-10.3,19.4c-1.3,1.5-2.2,2.6-2.6,3.3c-1.6,2.9-3.6,6.5-3.6,6.5L581,179.5z"/>
			</g>
		</g>
		<g>
			<path id="XMLID_234_" class="st11" d="M486.6,113.6c0,0-0.8,2.9-2,7.6c-21.2-1.7-42.5-3.7-63.8-4.7c-1.6-0.1-3.2-0.1-4.8-0.2
				c0-0.2-0.1-0.4-0.1-0.6l1.5-28.8c0,0,9.6-5.9,12.8-8.6l-1-20.8l27.4-12.1l4.8,29.9c0,0,14.5,4.4,23.9,9.3
				C485.3,84.5,482.4,105.7,486.6,113.6z"/>
			<path id="XMLID_233_" class="st16" d="M417.4,86.8c0,0,8.3-4.5,12.9-7.8l-1.1-21.7l27.4-12.1l1.2,7.2l-1.4,15.3l-11.2,14.9
				c0,0-1,0.5-0.8,1.4c-0.1-0.7,10.5-6.7,16.9-10.2l0.2,1.3c0,0,14.5,4.4,23.9,9.3c0,0-1.8,13.2-0.5,22.6l-68.6,3.8L417.4,86.8z"/>
			<path id="XMLID_232_" class="st11" d="M414.7,18.2c-1.2,3.4-2.2,13.1-1,14.4c1.2,1.3,1.2,4.7,1.5,5.8s-0.6,8.6-0.5,12.4
				c0.1,3.8,4.7,18,6,19.6c4.2,5.2,26.5,5.6,32.8-4.9c0.6-1,5.3-13.7,7.1-19.7c2.2-7.4,1.5-24.9-1.1-30.5
				C454.6,4.4,420.7,0.7,414.7,18.2z"/>
			<path id="XMLID_231_" class="st1" d="M413.2,23.6c3.4,1,5.1-1.7,10.6-0.4c7.3,1.8,25.2,0.6,27,3.1c2.8,3.8,2.4,7.8,2.4,7.8
				l-0.3,8.8l0.7,1.1c1.1,1.8,4.1,1.3,4.3-0.7c0-0.1,0-0.1,0-0.2c0-0.4,0.1-0.8,0.2-1.2c1.5-5,8.3-8.4,8.3-8.4s1.9-6.2-0.6-14.8
				c-7.8-26.4-41.8-15-47-10.6c-4.3,3.7-5.2,10.2-5.2,13.5l0,0C413.5,22.8,413.2,23.6,413.2,23.6z"/>
			<path id="XMLID_230_" class="st1" d="M457.9,43.1c0,0-1.1-7.7,7.3-9.1c8.4-1.4,7.9,11.2-0.7,15.9c-5,2.7-6.7,3.9-6.7,3.9
				L457.9,43.1z"/>
			<path id="XMLID_215_" class="st29" d="M419.5,81.7c0,0-11.2,13.8-16.9,27.7c-5.7,13.9-11.5,36-13,39c0,0-2.6,2.7-3,4.1
				c0,0-30.8,5.7-42.8,6.8c-12,1-15.4,0-15.4,0s1.9,9.1,0,15.2c0,0,10.6,0.7,22.9,0s35.1-3.4,43-3.7s9.5-5.1,11.7-9.8
				c2.3-4.7,9.6-30.7,14.4-38.2c4.7-7.4,11.8-20.3,9.4-27.4S419.5,81.7,419.5,81.7z"/>
			<path id="XMLID_214_" class="st30" d="M363.4,169.7c15.1-2.4,18.9-3.6,21.5-3.9c2.5-0.3,2-3,0-7.8s6.8,4.5,6.6,0
				c-0.2-4.5-2.9-4.9,0-3.7s5,8.7,5.4,5.4s1.8-3.3,4.1-8.4c2.3-5.1,3.4-19.7,9.5-34.2c5.4-12.7,6.6-16.2,13.9-30.8
				c2.1,2.5,4.4,5.6,5.5,8.9c2.4,7.1-4.6,19.9-9.4,27.4c-4.7,7.4-12.1,33.4-14.4,38.2c-2.3,4.7-3.8,9.5-11.7,9.8
				c-7.9,0.3-30.7,3-43,3.7c-2.7,0.2-5.3,0.2-7.7,0.3l-10.6-2.1C332.9,172.5,348.2,172.2,363.4,169.7z"/>
			<path id="XMLID_213_" class="st29" d="M391.4,185.5c0,0,11.6,9.8,35.9,15.9c24.3,6.1,42.2-1.3,42.2-1.3
				c0.5-14.9,21.3-81.4,24.3-87.1s3.8-22.8,3.8-22.8c-3-2.9-22.5-10.2-28.9-13.3L467,77l-26.4,4.2l-12.4-1.5
				c-0.2,0.1-0.4,0.1-0.7,0.1c-4.7,0.9-6.4,0.5-8.1,1.8c-5.1,3.6-4.8,8.5-6.6,22.5c-1.5,11.4-5,29.4-7.2,41.9
				C403.4,158.5,391.4,185.5,391.4,185.5z"/>
			<g id="XMLID_212_">
				<path class="st31" d="M475.8,135.3l1-0.4c-5.8-12.4-7.9-26-6.1-39.3l-1.1-0.1C467.8,108.9,469.9,122.7,475.8,135.3z"/>
			</g>
			<path id="XMLID_210_" class="st31" d="M400.4,163.3c3-0.3,6-0.4,9-0.6c12.8-1,27.2-1.8,40-2.7c12.2-0.8,14.3-10.3,14-14.7
				c-1.5-19.3,3.5-26.8,3.7-40.4c7.8,5.7,6.9,34,14.8,39.7c-7.1,21.4-12,44.1-12.4,55.5c0,0-17.9,7.4-42.2,1.4
				c-24.3-6.1-35.9-15.9-35.9-15.9S396.3,174.5,400.4,163.3z"/>
			<path id="XMLID_209_" class="st30" d="M427,80.6c0,0,1.7,6.1,3.6,6.8c2,0.7,6.4,0,6.4,0s4.3,2.1,5.9,1.7S467,77,467,77l0,0
				l-26.4,4.2l-12.4-1.5c-0.2,0.1-0.4,0.1-0.7,0.1L427,80.6z"/>
			<path id="XMLID_208_" class="st31" d="M461.5,73.2c0,0-15.4,6.1-24.2,7.1c0,0,0.7,6.5,5.7,8.9c0,0,19.6-6.2,25.6-12.3L461.5,73.2
				z"/>
			<path id="XMLID_204_" class="st31" d="M437.3,80.2c0,0-3.8-0.6-7.4-3.8l-2.9,4.8c0,0,0.6,3.9,3.6,6.2
				C430.6,87.4,436.1,85.4,437.3,80.2z"/>
			<g id="XMLID_177_">
				<path id="XMLID_189_" class="st29" d="M413.2,162.4c-1.5,5.5-4.9,10.5-8.1,9.8s-4.2-10.2-3.5-12
					C402.1,158.4,413.2,162.4,413.2,162.4z"/>
				<path id="XMLID_188_" class="st31" d="M389.4,151.4c-2.7-0.3-5.8,1.4-8,1.8c-2.3,0.4-4.1,0.3-4.1,0.8s0.2,3,2.8,3.3
					c2.6,0.3,7.4-1.7,7.4-1.7L389.4,151.4z"/>
				<g id="XMLID_178_">
					<path id="XMLID_187_" class="st11" d="M407,156.8c-3.3-1.8-8.8-4-10.5-5.3c-1.6-1.2-4.1-1.6-7.1-0.8c-3,0.9-7.3,2.6-9.2,4.3
						c-1.5,1.3-4.8,3.5-6,5.3c-1.1,1.6-2.4,3-2.5,3.6c-0.3,1.3,1.5,2.1,2.6,1.5c0.6-0.3,2.4-1.7,3.8-3.2c1.1-1.1,4.9-3,5.2-3.2
						c0,0-0.4,1.6,1.5,2.2c1.7,0.6,2.4-0.2,2.4-0.2s-0.1,1.3,1.4,1.9c1.4,0.6,3-0.3,3-0.3s0.1,2,2.2,2.3s3.8,0,6.6,0.6
						c2.8,0.7,7.4,0,7.4,0L407,156.8z"/>
					<path id="XMLID_186_" class="st29" d="M380.8,161.4c0.8-1.4,3.4-3.6,6.2-4.9"/>
					<path id="XMLID_185_" class="st29" d="M384.2,164.4c0.8-1.4,3.4-3.6,6.2-4.9"/>
					<path id="XMLID_184_" class="st29" d="M387.6,166.5c0.8-1.4,2.7-2.5,5.4-3.9"/>
				</g>
			</g>
			<g id="XMLID_173_">
				<path id="XMLID_176_" class="st29" d="M497.9,90.1c-2.2-4.7-29.9,17.4-28.3,25.7c2.1,11.4,3,24.4,4.8,39.4
					c0.4,3.8,0.5,11.3,0.5,11.3c-0.7,0.7-1-0.5-2,0c-1.3,0.6-1.4,0.9-3,0.4c-5-1.5-20.5-4.4-31.8-5.9c-23.2-3.2-26.1-4.8-31.7-5.3
					c0,0,2.3,9.4-1.3,16.5c0,0,33.3,11.9,73.5,18.4c21,3.4,20.3-5.8,22.4-13.7s3.1-33,1.2-50.3C500.4,109.2,501,96.5,497.9,90.1z"/>
				<path id="XMLID_175_" class="st30" d="M406.9,164.8c3,1.7,4.9,2.9,6.5,5c2.4,3.2,11.4,6.6,26,10.2c11.2,2.8,29.2,8,37,10.3
					c-39.2-6.6-71.3-18.1-71.3-18.1C406.2,169.9,406.7,167.2,406.9,164.8z"/>
				<path id="XMLID_174_" class="st30" d="M469.8,166.9c1.6,0.5,1.7,0.2,3-0.4c1-0.4,1.3,0.7,2,0c0,0,0-7.6-0.5-11.3
					c-0.6-5.2-1.1-10.1-1.6-14.7c1.7,2.7,8.1,22.6,9.1,25.3c1.6,4.2,7.9,8.9,4.7,8.5c-3.1-0.4-8.6-4.2-8.6-2.9s-0.6,3.9-4,1.1
					C470.5,169.8,466.6,166,469.8,166.9z"/>
			</g>
			<path id="XMLID_172_" class="st32" d="M266.9,264.9l-7.6,12.9c0,0,7,4.8,16.3,7.3l7.6-14.4L266.9,264.9z"/>
			<path id="XMLID_171_" class="st33" d="M264.2,272.1c-0.4-0.2-0.8-0.3-1.2-0.5l3.9-6.7l16.3,5.9l-4,7.5
				C274.3,276.6,268.8,274,264.2,272.1z"/>
			<path id="XMLID_170_" class="st17" d="M267.4,266.8c0,0,11.9,9.4,26.3,11.4c0,0,33.9-61.8,40-70.9c0,0,3,0.3,4.1-1.8
				c0,0,0.6,2.8,4.5,2.3s8.2,1,8.2,1s97.3,2.8,108.1,3.8c10.8,1,11.9-20,11.9-20c-6.8-1.3-23.8-5.1-39.2-8.5
				c-8.2-1.8-16-3.4-21.6-4.5c-16.1-3.1-65.7-13.2-78.4-11.4s-22.7,8.2-27.4,16.8c-1.4,2.6-5.4,11.3-10.2,22
				C282.8,231.4,267.4,266.8,267.4,266.8z"/>
			<path id="XMLID_169_" class="st34" d="M290.4,207.4c8.2-7.6,21-23.6,27-24.6c6-1.1,40.5-2.8,62-2.7c18.7,0.1,35,2.3,48.6,4.4
				c-8.2-1.8-16-3.4-21.6-4.5c-16.1-3.1-65.7-13.2-78.4-11.4s-22.7,8.2-27.4,16.8C299.1,188,295.2,196.7,290.4,207.4z"/>
			<path id="XMLID_168_" class="st16" d="M261.8,273.6c0,0-5.7,1.4-16.4,0c0,0,9,12,15,14.3s10.8,5.4,10.8,5.4l7.2-13.5L261.8,273.6
				z"/>
			<path id="XMLID_167_" class="st35" d="M211.8,273.3c1.5-0.8,1.9-4.3,4-4.4c5.1-0.3,10.5,1,18.4,2.5c4.8,0.9,15.8,2,20.6,2.5
				c6.1,8.2,11.1,9.1,21.2,13.2l-7.3,17.5l-10.9-4.9l0.7-3.9l-10.1-0.4C237.3,290.3,211.8,273.3,211.8,273.3z"/>
			<g id="XMLID_125_">
				<g id="XMLID_161_">
					<path id="XMLID_164_" class="st15" d="M353,172.7h-68.6c-1,0-2.1-0.7-2.3-1.6l-16.5-53.8c-0.3-0.9,0.3-1.6,1.3-1.6h68.6
						c1,0,2.1,0.7,2.3,1.6l16.5,53.8C354.6,172,354,172.7,353,172.7z"/>
				</g>
				<path id="XMLID_160_" class="st36" d="M311.5,149.2h-7c-1.1,0-2.4-0.8-2.7-1.9l-1.3-3.7c-0.4-1,0.3-1.9,1.4-1.9h7
					c1.1,0,2.4,0.8,2.7,1.9l1.3,3.7C313.3,148.3,312.7,149.2,311.5,149.2z"/>
			</g>
			<g id="XMLID_112_">
				<g id="XMLID_118_">
					<path id="XMLID_122_" class="st32" d="M299.8,296.4l-1.4,14.6c0,0,8.6,1.9,18.2,1l0.7-15.9L299.8,296.4z"/>
					<path id="XMLID_121_" class="st16" d="M298.9,306.2c0,0-4.6,3.3-15,5.8c0,0,13.5,7.8,20,7.8s12.3,1.1,12.3,1.1l0.8-15
						L298.9,306.2z"/>
					<path id="XMLID_120_" class="st35" d="M251.2,327.6c-0.2-1.5-0.3-5.7,1.5-6.6c4.2-2.2,7.6-2.3,18.6-5.8
						c4.7-1.5,15.7-5.5,20.4-6.9c9.7,5.2,14.7,4,26.2,3.9l0.8,19.3l-11.5-0.2l-0.1-4.4l-10.8,4.2
						C283.5,330.5,251.2,327.6,251.2,327.6z"/>
					<path id="XMLID_119_" class="st17" d="M310.9,310c-4.1-0.9-8.2-2-12.1-3.4l1-10.2l17.6-0.4l-0.7,14.9
						C314.8,310.7,312.9,310.4,310.9,310z"/>
				</g>
				<path id="XMLID_117_" class="st33" d="M393.6,210.2c0,0-18.9-6.1-29.9-8.4c-11-2.4-29.2-10-33-9.5c-3.8,0.4-13.7,0-16.8,13.9
					c-3.1,13.9-16.3,95.6-16.3,95.6s18,8.6,28.6,6.8l24.4-96.6L393.6,210.2z"/>
			</g>
		</g>
		<polygon class="st15" points="283.9,172.1 408.1,177.4 408.1,172.1 		"/>
		
			<linearGradient id="SVGID_13_" gradientUnits="userSpaceOnUse" x1="-145.1299" y1="367.1984" x2="-143.5988" y2="365.4089" gradientTransform="matrix(-44.1291 0 0 21.473 -5941.5771 -7658.6172)">
			<stop  offset="0" style="stop-color:#478DFF"/>
			<stop  offset="1" style="stop-color:#00157E"/>
		</linearGradient>
		<path class="st37" d="M459.6,223.8c0,0-17.2-7.7-26.2-8.5c0,0-19.7-2.9-17.8-8.5c0,0,1.5-6.7,24.4-3.7"/>
		
			<linearGradient id="SVGID_14_" gradientUnits="userSpaceOnUse" x1="-151.6555" y1="369.2126" x2="-149.9477" y2="368.3053" gradientTransform="matrix(-32.6963 0 0 35 -4473.4189 -12702.4277)">
			<stop  offset="0" style="stop-color:#478DFF"/>
			<stop  offset="1" style="stop-color:#00157E"/>
		</linearGradient>
		<path class="st38" d="M458.5,221.3c0,0-15-13.5-8-14.5s15.5,0,15.5,0s-23.7-16.6-16.4-20.5c0,0,27.5,2.2,31.3,33.6
			C480.9,220,464,220.6,458.5,221.3z"/>
	</g>
	<path class="st26" d="M146.7,136.6l0.1,2.2l0.1,10.1c0,0-12.8,3.5-22.8,6l-1.6-15.8L146.7,136.6z"/>
</g>
</svg>
