<?xml version="1.0" encoding="utf-8"?>
<!-- Generator: Adobe Illustrator 21.0.0, SVG Export Plug-In . SVG Version: 6.00 Build 0)  -->
<svg version="1.1" id="Layer_1" xmlns="http://www.w3.org/2000/svg" xmlns:xlink="http://www.w3.org/1999/xlink" x="0px" y="0px"
	 viewBox="0 0 440.1 410.7" style="enable-background:new 0 0 440.1 410.7;" xml:space="preserve">
<style type="text/css">
	.st0{display:none;}
	.st1{display:inline;fill:#FFFFFF;}
	.st2{display:inline;fill:#7BB5FF;}
	.st3{display:inline;fill:#5A6CE5;}
	.st4{fill:#7BB5FF;}
	.st5{fill:#5A6CE5;}
</style>
<g class="st0">
	<path class="st1" d="M414.8,326.5c4.9-1.9,8.8-4.4,11-9.2 M56.3,176.1c1.9,0,3.9,0,6,0c0-7.2,0-13.7,0-20.7c-7,0-13.6,0-20.3,0
		c0-12.8,0-25.2,0-37.9c2,0.7,3.6,1.1,5.2,1.7c53.6,20.9,107.2,41.8,160.9,62.5c4,1.6,5.1,3.7,5.1,7.7c-0.1,60-0.1,120-0.1,180
		c0,1.6-0.2,3.1-0.4,5.1c-2-0.6-3.4-1-4.7-1.5c-52.5-20.4-105.1-40.9-157.6-61.3c-8.7-3.4-8.6-3.4-8.7-12.4V175.3L56.3,176.1z
		 M73.3,282.6c0-6.8,0-13.3,0-20.4c-10.7,0-21,0-31.7,0c0-7.2,0-13.6,0-21.1c-5.8,0-10.9,0.1-16-0.1c-3.4-0.1-4.9,0.9-4.6,4.5
		c0.3,3.6-0.2,7.3,0.1,11 M105.4,229c0-6.6,0-12.7,0-20c-21.3,0-42.3,0-63.8,0c0-7.6,0-14.3,0-21.1c-7.1,0-13.6,0-20.5,0
		c0,5.5-0.2,10.7,0.1,15.8"/>
	<path class="st2" d="M15.3,155.5c1.6,0,3.3,0,5.5,0c0.1-2.4,0.3-4.3,0.3-6.2c0-18.8,0-37.6,0-56.5c0-6.7,1.7-9.3,7.9-11.7
		C92,56.6,155,32,218.1,7.7c3-1.1,7.1-1.4,10-0.3c28.3,10.8,56.3,22,84.5,32.9c34.7,13.5,69.4,27,104.1,40.3
		c4.4,1.7,7.1,4.6,9.1,8.6c0,76,0,152,0,228c-2.2,4.9-6.1,7.3-11,9.2c-61.9,23.9-123.7,48-185.5,72.1c-4.3,1.7-8.2,1.6-12.5-0.1
		c-62-24.2-124-48.3-185.9-72.4c-8.5-3.3-9.9-5.3-9.9-14.4c0-5.5,0-11,0-16.9c6.8,0,13.4,0,20.3,0c0.1,1.4,0.3,2.9,0.3,4.3
		c0.1,9,0.1,9.1,8.7,12.4c52.5,20.4,105.1,40.9,157.6,61.3c1.4,0.5,2.8,0.9,4.7,1.5c0.1-2,0.4-3.6,0.4-5.1c0-60,0-120,0.1-180
		c0-4-1-6.1-5.1-7.7c-53.7-20.7-107.3-41.6-160.9-62.5c-1.5-0.6-3.1-1-5.2-1.7c0,12.8,0,25.1,0,37.9c6.7,0,13.3,0,20.3,0
		c0,7,0,13.5,0,20.7c-2.1,0-4,0-6,0H15.5L15.3,155.5z M405,117.3c-2.1,0.7-3.5,1-4.9,1.5c-53.8,20.9-107.5,41.8-161.3,62.6
		c-4.1,1.6-5.4,3.6-5.4,7.9c0.2,59.8,0.1,119.6,0.1,179.4c0,1.7,0,3.5,0,5.8c2.2-0.7,3.6-1.1,5-1.7c53.8-20.9,107.5-41.8,161.3-62.6
		c4.2-1.6,5.3-3.9,5.3-8.1c-0.1-59.6-0.1-119.3-0.1-178.9C405,121.5,405,119.7,405,117.3z M143.9,134.4c2.8,1.2,4.3,1.9,5.8,2.5
		c23.2,9.1,46.5,18.2,69.8,27c2.3,0.9,5.6,0.7,7.9-0.2c50.9-19.6,101.7-39.4,152.5-59.2c6.3-2.4,12.6-4.9,20-7.8
		c-2.8-1.2-4.4-2-6-2.7c-23.1-9-46.2-17.9-69.3-27c-3.9-1.5-7.6-3.4-11.1,0.9c-1,1.3-3.2,1.6-4.9,2.2
		c-50.4,19.6-100.7,39.2-151.1,58.8C153.4,130.6,149.3,132.3,143.9,134.4z M291.4,54.8c-1.7-1-2.7-1.6-3.7-2
		c-20.4-8-40.9-16-61.4-23.7c-2.2-0.8-5.3-0.6-7.5,0.3C163.1,50.9,107.5,72.6,51.9,94.2c-1.5,0.6-3,1.4-5.5,2.6
		c21.6,8.4,42.1,16.3,62.4,24.4c4.3,1.7,8,1.7,12.3,0c43.3-17,86.7-33.8,130.1-50.7C264.4,65.4,277.5,60.2,291.4,54.8z"/>
	<path class="st3" d="M21.1,256.5c-0.3-3.6,0.2-7.3-0.1-11c-0.3-3.6,1.3-4.6,4.6-4.5c5.1,0.2,10.2,0.1,16,0.1c0,7.4,0,13.9,0,21.1
		c10.7,0,21,0,31.7,0c0,7.1,0,13.6,0,20.4H20.3"/>
	<path class="st3" d="M21.1,203.7c-0.3-5.1-0.1-10.3-0.1-15.8c6.9,0,13.4,0,20.5,0c0,6.8,0,13.6,0,21.1c21.5,0,42.5,0,63.8,0
		c0,7.3,0,13.4,0,20H21.2"/>
	<path class="st1" d="M405,117.3c0,2.4,0,4.2,0,6c0,59.6,0,119.3,0.1,178.9c0,4.3-1.1,6.5-5.3,8.1C346,331.1,292.3,352,238.5,372.9
		c-1.4,0.5-2.8,0.9-5,1.7c0-2.3,0-4,0-5.8c0-59.8,0.1-119.6-0.1-179.4c0-4.4,1.3-6.4,5.4-7.9c53.8-20.7,107.5-41.7,161.3-62.6
		C401.5,118.3,402.9,118,405,117.3z M362.4,283.7c0,7,0,13.4,0,20c6.8,0,13.3,0,19.9,0c0-6.9,0-13.4,0-20
		C375.5,283.7,369.1,283.7,362.4,283.7z M330.5,294.7c0,7,0,13.5,0,19.9c6.9,0,13.4,0,19.9,0c0-6.8,0-13.2,0-19.9
		C343.7,294.7,337.3,294.7,330.5,294.7z"/>
	<path class="st1" d="M143.9,134.4c5.4-2.2,9.6-3.8,13.7-5.4c50.4-19.6,100.7-39.2,151.1-58.8c1.7-0.7,3.9-1,4.9-2.2
		c3.6-4.3,7.2-2.5,11.1-0.9c23.1,9,46.2,18,69.3,27c1.7,0.6,3.2,1.4,6,2.7c-7.5,2.9-13.7,5.4-20,7.8
		c-50.8,19.8-101.6,39.6-152.5,59.2c-2.4,0.9-5.6,1.1-7.9,0.2c-23.3-8.8-46.5-18-69.8-27C148.2,136.4,146.7,135.7,143.9,134.4z"/>
	<path class="st1" d="M291.4,54.8c-13.9,5.4-27,10.6-40.1,15.7c-43.4,16.9-86.8,33.7-130.1,50.7c-4.3,1.7-8,1.7-12.3,0
		c-20.4-8.1-40.8-16-62.4-24.4c2.4-1.2,3.9-2,5.5-2.6c55.6-21.6,111.2-43.3,166.9-64.8c2.2-0.9,5.3-1.1,7.5-0.3
		c20.5,7.7,41,15.8,61.4,23.7C288.8,53.2,289.7,53.9,291.4,54.8z"/>
	<path class="st3" d="M362.4,283.7c6.7,0,13.1,0,19.9,0c0,6.6,0,13.1,0,20c-6.6,0-13.1,0-19.9,0
		C362.4,297.1,362.4,290.7,362.4,283.7z"/>
	<path class="st3" d="M330.5,294.7c6.8,0,13.2,0,19.9,0c0,6.7,0,13.1,0,19.9c-6.5,0-13,0-19.9,0
		C330.5,308.2,330.5,301.7,330.5,294.7z"/>
</g>
<g>
	<path class="st4" d="M105.5,198.4c-23.7,0-47.4,0.1-71.1-0.1c-6.4,0-11.6,2-14.8,7.6c-5.9,10.3,1.7,21.4,14.8,21.4
		c46.9,0.1,93.8,0.1,140.7-0.1c5.4,0,8.5,1.1,11.4,6.3c16.1,28.4,56.5,29,72.1,0.9c3.4-6,7-7.2,13-7.2c46.2,0.2,92.3,0,138.5,0.2
		c6.5,0,12.2-1.3,15.7-7.3c6.1-10.3-1.4-21.7-14.3-21.7c-47.4-0.1-94.8-0.1-142.1,0c-4.5,0-7.3-0.8-9.8-5.3
		c-7.9-14.8-20.7-22.6-37.5-22.5c-16.5,0.1-28.9,8.1-36.4,22.8c-2,4-4.3,5-8.4,5C153.4,198.3,129.4,198.4,105.5,198.4z M274.9,102.7
		c45.2,0,90.4,0,135.6,0.1c6.3,0,12.5-1.1,14.8-7.1c1.7-4.3,2-10.2,0.4-14.4c-2.4-6.2-8.7-7.6-15.3-7.6c-89.7,0.1-179.4,0-269.1,0.2
		c-5.4,0-8.5-1.3-11.3-6.4c-14.4-25.7-50.8-29.9-67.6-6.3c-8.1,11.3-16.2,13.9-28,12.6c-0.7-0.1-1.5,0-2.2,0
		c-8.3,0.5-14.5,6.7-14.5,14.5c0,7.8,6.1,14,14.6,14.4c4.6,0.2,9.3,0.4,13.9,0c5.5-0.5,8.5,1.2,11.4,6.4
		c7.9,14.1,20.5,21.5,36.7,21.4c15.9-0.1,28.4-7.3,35.8-21.5c2.8-5.3,6-6.4,11.3-6.4C185.9,102.8,230.4,102.7,274.9,102.7z
		 M186.7,318.6c-29.8,0-59.6,0-89.4,0c-22,0-44-0.1-66,0.1c-8.8,0.1-15.1,6.5-15,14.7c0.1,7.8,6.2,13.8,14.8,14.2
		c2.7,0.1,5.4,0.1,8.1,0.1c100,0,199.9,0,299.9-0.1c5,0,7.5,1.5,10.2,5.9c3.5,5.6,8.3,11,13.7,14.8c15.5,11,36,9.3,50-3.3
		c13.9-12.4,17-32.7,8.9-49.6c-7.4-15.5-33.9-26-47.1-23c-11.8,2.7-20.7,10-26,20.9c-2.2,4.5-4.9,5.6-9.6,5.6
		C288.4,318.6,237.6,318.6,186.7,318.6z"/>
	<path class="st5" d="M105.5,198.4c23.9,0,47.9-0.1,71.8,0.1c4.1,0,6.4-1,8.4-5c7.5-14.8,19.9-22.7,36.4-22.8
		c16.8-0.1,29.6,7.7,37.5,22.5c2.4,4.5,5.3,5.3,9.8,5.3c47.4-0.1,94.8-0.1,142.1,0c12.9,0,20.4,11.5,14.3,21.7
		c-3.5,5.9-9.2,7.3-15.7,7.3c-46.2-0.1-92.3,0-138.5-0.2c-6.1,0-9.7,1.1-13,7.2c-15.6,28.1-56.1,27.5-72.1-0.9
		c-2.9-5.2-6-6.3-11.4-6.3c-46.9,0.2-93.8,0.2-140.7,0.1c-13.2,0-20.8-11.1-14.8-21.4c3.2-5.6,8.4-7.6,14.8-7.6
		C58.1,198.5,81.8,198.4,105.5,198.4z"/>
	<path class="st4" d="M274.9,102.7c-44.5,0-89,0.1-133.4-0.1c-5.4,0-8.6,1.1-11.3,6.4c-7.4,14.1-19.9,21.4-35.8,21.5
		c-16.2,0.1-28.8-7.3-36.7-21.4c-2.9-5.1-5.9-6.9-11.4-6.4c-4.6,0.4-9.3,0.2-13.9,0c-8.5-0.4-14.6-6.6-14.6-14.4
		c0-7.8,6.1-14,14.5-14.5c0.7,0,1.5-0.1,2.2,0c11.8,1.3,19.9-1.3,28-12.6c16.8-23.6,53.2-19.4,67.6,6.3c2.9,5.1,5.9,6.4,11.3,6.4
		c89.7-0.1,179.4-0.1,269.1-0.2c6.6,0,13,1.3,15.3,7.6c1.6,4.2,1.3,10.1-0.4,14.4c-2.4,6-8.5,7.1-14.8,7.1
		C365.3,102.7,320.1,102.7,274.9,102.7z"/>
	<path class="st4" d="M186.7,318.6c50.8,0,101.7,0,152.5,0.1c4.7,0,7.4-1.1,9.6-5.6c5.3-10.9,14.1-18.2,26-20.9
		c13.2-3,39.7,7.5,47.1,23c8.1,16.9,5,37.2-8.9,49.6c-14.1,12.6-34.6,14.3-50,3.3c-5.4-3.8-10.2-9.2-13.7-14.8
		c-2.7-4.4-5.3-5.9-10.2-5.9c-100,0.1-199.9,0.1-299.9,0.1c-2.7,0-5.4,0.1-8.1-0.1c-8.5-0.5-14.7-6.4-14.8-14.2
		c-0.1-8.1,6.2-14.6,15-14.7c22-0.2,44-0.1,66-0.1C127.1,318.6,156.9,318.6,186.7,318.6z"/>
</g>
</svg>
