<?xml version="1.0" encoding="utf-8"?>
<!-- Generator: Adobe Illustrator 21.0.0, SVG Export Plug-In . SVG Version: 6.00 Build 0)  -->
<svg version="1.1" id="Layer_1" xmlns="http://www.w3.org/2000/svg" xmlns:xlink="http://www.w3.org/1999/xlink" x="0px" y="0px"
	 viewBox="0 0 99 72" style="enable-background:new 0 0 99 72;" xml:space="preserve">
<style type="text/css">
	.st0{fill:#373737;}
</style>
<path class="st0" d="M1,41.3c0.1-0.9,0.3-1.8,0.4-2.9c0.3,0,0.6,0,0.9,0c21.2,0,42.3,0,63.5,0c2.4,0,4.8-0.1,7.1-0.9
	c1.2-0.4,2.4-1,3.5-1.5c-3.2-5.9-3.1-11.6,1.3-16.9c3.8,2.8,6.9,5.9,7.6,10.8c4.5-1,8.8-0.7,12.7,2c-2,4.6-5.6,7.2-10.5,7.8
	c-1.3,0.2-2.6,0.2-4,0.3c-0.4,0-0.6,0.1-0.8,0.5c-1.7,4-3.8,7.7-6.5,11.2c-4.6,6-10.3,10.5-17.1,13.8c-4.8,2.3-9.9,3.8-15.2,4.6
	c-2.4,0.3-4.8,0.5-7.2,0.8c-0.2,0-0.4,0.1-0.6,0.1c-1.9,0-3.9,0-5.8,0c-0.2,0-0.4-0.1-0.7-0.1c-2.3-0.4-4.7-0.6-7-1.2
	c-4.8-1.1-9.2-3.3-12.9-6.6c-2.4-2.1-4.3-4.6-5.9-7.4c-1.4-2.6-2.2-5.4-2.7-8.3c-0.2-0.9-0.3-1.9-0.4-2.8C1,43.4,1,42.3,1,41.3z
	 M25.8,52.3c0-2.8-2.3-5-5.2-5.1c-3,0-5.3,2.2-5.3,5.1c0,2.7,2.4,4.9,5.2,5C23.3,57.3,25.8,54.9,25.8,52.3z"/>
<path class="st0" d="M43.1,10.8c0-3.2,0-6.4,0-9.7c3.3,0,6.5,0,9.7,0c0,3.2,0,6.4,0,9.7C49.6,10.8,46.4,10.8,43.1,10.8z"/>
<path class="st0" d="M28.5,23.3c-3.3,0-6.5,0-9.7,0c0-3.2,0-6.4,0-9.7c3.2,0,6.4,0,9.7,0C28.5,16.9,28.5,20.1,28.5,23.3z"/>
<path class="st0" d="M40.8,23.3c-3.3,0-6.5,0-9.7,0c0-3.2,0-6.5,0-9.7c3.3,0,6.5,0,9.7,0C40.8,16.9,40.8,20.1,40.8,23.3z"/>
<path class="st0" d="M52.9,23.3c-3.3,0-6.5,0-9.7,0c0-3.2,0-6.5,0-9.7c3.3,0,6.5,0,9.7,0C52.9,16.9,52.9,20.1,52.9,23.3z"/>
<path class="st0" d="M55.2,25.9c3.3,0,6.5,0,9.7,0c0,3.2,0,6.4,0,9.7c-3.2,0-6.5,0-9.7,0C55.2,32.4,55.2,29.2,55.2,25.9z"/>
<path class="st0" d="M43.1,25.9c3.3,0,6.5,0,9.7,0c0,3.2,0,6.4,0,9.7c-3.2,0-6.5,0-9.7,0C43.1,32.4,43.1,29.2,43.1,25.9z"/>
<path class="st0" d="M31.1,25.9c3.3,0,6.5,0,9.7,0c0,3.2,0,6.5,0,9.7c-3.2,0-6.5,0-9.7,0C31.1,32.4,31.1,29.2,31.1,25.9z"/>
<path class="st0" d="M18.8,35.6c0-3.2,0-6.4,0-9.7c3.3,0,6.5,0,9.7,0c0,3.2,0,6.4,0,9.7C25.3,35.6,22,35.6,18.8,35.6z"/>
<path class="st0" d="M16.5,35.7c-3.3,0-6.5,0-9.7,0c0-3.2,0-6.5,0-9.7c3.2,0,6.5,0,9.7,0C16.5,29.2,16.5,32.4,16.5,35.7z"/>
</svg>
