<?xml version="1.0" encoding="utf-8"?>
<!-- Generator: Adobe Illustrator 21.0.0, SVG Export Plug-In . SVG Version: 6.00 Build 0)  -->
<svg version="1.1" id="Layer_1" xmlns="http://www.w3.org/2000/svg" xmlns:xlink="http://www.w3.org/1999/xlink" x="0px" y="0px"
	 viewBox="0 0 1905.5 1097.7" style="enable-background:new 0 0 1905.5 1097.7;" xml:space="preserve">
<style type="text/css">
	.st0{fill:url(#background_2_);}
	.st1{opacity:0.3;}
	.st2{opacity:0.2;fill:url(#SVGID_1_);enable-background:new    ;}
	.st3{opacity:0.3;fill:url(#SVGID_2_);enable-background:new    ;}
	.st4{opacity:0.2;fill:url(#SVGID_3_);enable-background:new    ;}
	.st5{opacity:0.2;fill:url(#SVGID_4_);enable-background:new    ;}
	.st6{opacity:0.2;fill:url(#SVGID_5_);enable-background:new    ;}
	.st7{opacity:0.2;fill:url(#SVGID_6_);enable-background:new    ;}
	.st8{opacity:0.3;fill:url(#SVGID_7_);enable-background:new    ;}
	.st9{opacity:0.2;fill:url(#SVGID_8_);enable-background:new    ;}
	.st10{opacity:0.2;fill:url(#SVGID_9_);enable-background:new    ;}
	.st11{opacity:0.2;fill:url(#SVGID_10_);enable-background:new    ;}
	.st12{opacity:0.2;fill:url(#SVGID_11_);enable-background:new    ;}
	.st13{opacity:0.3;fill:url(#SVGID_12_);enable-background:new    ;}
	.st14{opacity:0.2;fill:url(#SVGID_13_);enable-background:new    ;}
	.st15{opacity:0.2;fill:url(#SVGID_14_);enable-background:new    ;}
	.st16{opacity:0.2;fill:url(#SVGID_15_);enable-background:new    ;}
</style>
<linearGradient id="background_2_" gradientUnits="userSpaceOnUse" x1="2186.1514" y1="591.3137" x2="2184.9749" y2="591.7922" gradientTransform="matrix(1658.5812 0 0 1220.0602 -3624147.5 -721186.5)">
	<stop  offset="0" style="stop-color:#478DFF"/>
	<stop  offset="1" style="stop-color:#00157E"/>
</linearGradient>
<path id="background_1_" class="st0" d="M1912,799.4l0.2,301.5l-1917.8-0.1v-68.2C-6,983.5-5.3,932.2-5.3,884
	c0-136.6-0.3-272.6-0.3-409.2c0-134.7-2.2-269.9-2.2-404.6c0-60.9,0-121.9,0-182.8h1920.6l-0.6,880"/>
<g class="st1">
	
		<linearGradient id="SVGID_1_" gradientUnits="userSpaceOnUse" x1="1026.4696" y1="2662.8" x2="1026.4696" y2="3382.7" gradientTransform="matrix(1 0 0 -1 0 3245)">
		<stop  offset="0" style="stop-color:#FFFFFF;stop-opacity:0"/>
		<stop  offset="1" style="stop-color:#FFFFFF"/>
	</linearGradient>
	<path class="st2" d="M1135.1,582.2c38.1-76.4,76.5-161.8,118.5-262.6c71.1-170.7,176.3-329.9,308.7-457.3H731.7
		c-79.5,185-144,297.6-241,425.2C708.4,469.5,850.5,543.2,1135.1,582.2z"/>
	
		<linearGradient id="SVGID_2_" gradientUnits="userSpaceOnUse" x1="1564.1195" y1="2650.1035" x2="1564.1195" y2="3382.6001" gradientTransform="matrix(1 0 0 -1 0 3245)">
		<stop  offset="0" style="stop-color:#FFFFFF;stop-opacity:0"/>
		<stop  offset="1" style="stop-color:#FFFFFF"/>
	</linearGradient>
	<path class="st3" d="M1993.2,313.6v-451.2h-430.9C1430-10.3,1324.7,148.9,1253.6,319.7c-42,100.9-80.3,186.3-118.5,262.6
		c3.4,0.5,6.8,0.9,10.3,1.4C1521.7,633.5,1826.3,512.5,1993.2,313.6z"/>
	
		<linearGradient id="SVGID_3_" gradientUnits="userSpaceOnUse" x1="1537.1195" y1="2560.5" x2="1537.1195" y2="2931.3999" gradientTransform="matrix(1 0 0 -1 0 3245)">
		<stop  offset="0" style="stop-color:#FFFFFF;stop-opacity:0"/>
		<stop  offset="1" style="stop-color:#FFFFFF"/>
	</linearGradient>
	<path class="st4" d="M1993.2,684.5V313.6c-166.9,198.9-471.5,320-847.8,270.1c-3.5-0.5-6.9-0.9-10.3-1.4
		c-17.9,35.9-35.8,69.7-54,102.2H1993.2L1993.2,684.5z"/>
	
		<linearGradient id="SVGID_4_" gradientUnits="userSpaceOnUse" x1="103.9196" y1="-189.9811" x2="103.9196" y2="-905.2567" gradientTransform="matrix(1 0 0 1 0 874.3811)">
		<stop  offset="0" style="stop-color:#FFFFFF;stop-opacity:0"/>
		<stop  offset="1" style="stop-color:#FFFFFF"/>
	</linearGradient>
	<path class="st5" d="M339.4,156.3C141.6-20-101.3-66.8-282.8-4.9v642.8v46.5H48.1c76.8-38.9,148.8-89.1,208.8-138.9l0,0
		c49.1-40.8,90-81.4,118.5-115.2c43.8-51.9,81.4-98.2,115.3-142.6C444.4,248.9,394.8,205.6,339.4,156.3z"/>
	
		<linearGradient id="SVGID_5_" gradientUnits="userSpaceOnUse" x1="591.5196" y1="-189.9811" x2="591.5196" y2="-586.7811" gradientTransform="matrix(1 0 0 1 0 874.3811)">
		<stop  offset="0" style="stop-color:#FFFFFF;stop-opacity:0"/>
		<stop  offset="1" style="stop-color:#FFFFFF"/>
	</linearGradient>
	<path class="st6" d="M490.7,287.6c-33.8,44.5-71.5,90.8-115.3,142.6c-28.6,33.8-69.5,74.4-118.5,115.2l0,0
		c-59.9,49.8-132.1,100-208.8,139h532h245.1H1081c18.2-32.5,36.1-66.4,54-102.2C850.5,543.2,708.4,469.5,490.7,287.6z"/>
</g>
<g class="st1">
	
		<linearGradient id="SVGID_6_" gradientUnits="userSpaceOnUse" x1="4145.6816" y1="969.7339" x2="4145.6816" y2="1580.9042" gradientTransform="matrix(-0.853 -0.522 -0.522 0.853 4117.3613 1796.8777)">
		<stop  offset="0" style="stop-color:#FFFFFF;stop-opacity:0"/>
		<stop  offset="1" style="stop-color:#FFFFFF"/>
	</linearGradient>
	<path class="st7" d="M-3.7,411.9c-61.5,38.4-127.1,83.2-202.2,137.7C-333,641.7-479.8,710.3-632.1,743.9L-30.6,1112
		c139.6-98.8,236.1-151.7,362.9-201.1C255.3,682.6,185.1,566.3-3.7,411.9z"/>
	
		<linearGradient id="SVGID_7_" gradientUnits="userSpaceOnUse" x1="4602.1274" y1="958.9484" x2="4602.1274" y2="1580.8389" gradientTransform="matrix(-0.853 -0.522 -0.522 0.853 4117.3613 1796.8777)">
		<stop  offset="0" style="stop-color:#FFFFFF;stop-opacity:0"/>
		<stop  offset="1" style="stop-color:#FFFFFF"/>
	</linearGradient>
	<path class="st8" d="M-744.1,226.2l-200,326.7l312,190.9c152.2-33.5,299-102.1,426.2-194.3c75.1-54.4,140.7-99.3,202.2-137.7
		c-2.2-1.9-4.5-3.7-6.8-5.6C-260.9,203.5-535.1,156.1-744.1,226.2z"/>
	
		<linearGradient id="SVGID_8_" gradientUnits="userSpaceOnUse" x1="4579.2368" y1="882.9483" x2="4579.2368" y2="1197.8516" gradientTransform="matrix(-0.853 -0.522 -0.522 0.853 4117.3613 1796.8777)">
		<stop  offset="0" style="stop-color:#FFFFFF;stop-opacity:0"/>
		<stop  offset="1" style="stop-color:#FFFFFF"/>
	</linearGradient>
	<path class="st9" d="M-579.8-42.4l-164.4,268.6c209-70.1,483.2-22.7,733.6,180.1c2.3,1.9,4.6,3.7,6.8,5.6
		c28.9-18,56.8-34.6,84.4-50.1L-579.8-42.4L-579.8-42.4z"/>
	
		<linearGradient id="SVGID_9_" gradientUnits="userSpaceOnUse" x1="3362.46" y1="1487.6449" x2="3362.46" y2="880.3864" gradientTransform="matrix(-0.853 -0.522 0.522 -0.853 2879.8982 3819.0178)">
		<stop  offset="0" style="stop-color:#FFFFFF;stop-opacity:0"/>
		<stop  offset="1" style="stop-color:#FFFFFF"/>
	</linearGradient>
	<path class="st10" d="M383.7,1073c65.1,215.3,220.3,356.8,379.2,392.4l284.8-465.5l20.6-33.7L828.7,819.7
		c-72.8-5.8-147.2-1.5-212.7,8l0,0c-53.6,7.8-101.2,19-136.9,30.9c-54.7,18.2-102.5,35-146.7,52.2
		C348.7,959.4,365.4,1012.7,383.7,1073z"/>
	
		<linearGradient id="SVGID_10_" gradientUnits="userSpaceOnUse" x1="3776.4285" y1="1487.6865" x2="3776.4285" y2="1150.7927" gradientTransform="matrix(-0.853 -0.522 0.522 -0.853 2879.8982 3819.0178)">
		<stop  offset="0" style="stop-color:#FFFFFF;stop-opacity:0"/>
		<stop  offset="1" style="stop-color:#FFFFFF"/>
	</linearGradient>
	<path class="st11" d="M332.4,910.8c44.2-17.2,92-34.1,146.7-52.2c35.7-11.8,83.3-23.1,136.9-30.9l0,0c65.4-9.5,140-13.9,212.8-8.1
		L443.5,583.8L266,475.2L80.7,361.8c-27.6,15.5-55.5,32.1-84.4,50.1C185.1,566.3,255.3,682.6,332.4,910.8z"/>
</g>
<g class="st1">
	
		<linearGradient id="SVGID_11_" gradientUnits="userSpaceOnUse" x1="1338.1493" y1="-1432.6897" x2="1338.1493" y2="-892.309" gradientTransform="matrix(-0.522 0.853 0.853 0.522 3320.9966 294.2264)">
		<stop  offset="0" style="stop-color:#FFFFFF;stop-opacity:0"/>
		<stop  offset="1" style="stop-color:#FFFFFF"/>
	</linearGradient>
	<path class="st12" d="M1357.9,757.3c34,54.4,73.6,112.4,121.7,178.8c81.5,112.4,142.2,242.2,171.8,376.9l325.5-531.9
		c-87.3-123.4-134.1-208.8-177.9-321C1597.3,528.3,1494.4,590.4,1357.9,757.3z"/>
	
		<linearGradient id="SVGID_12_" gradientUnits="userSpaceOnUse" x1="1741.749" y1="-1442.1772" x2="1741.749" y2="-892.309" gradientTransform="matrix(-0.522 0.853 0.853 0.522 3320.9966 294.2264)">
		<stop  offset="0" style="stop-color:#FFFFFF;stop-opacity:0"/>
		<stop  offset="1" style="stop-color:#FFFFFF"/>
	</linearGradient>
	<path class="st13" d="M1193.6,1412.1l288.9,176.8l168.9-275.9c-29.7-134.6-90.3-264.4-171.8-376.9
		c-48.1-66.4-87.8-124.4-121.7-178.8c-1.6,2-3.2,4-4.9,6C1173.5,984.8,1131.7,1227.3,1193.6,1412.1z"/>
	
		<linearGradient id="SVGID_13_" gradientUnits="userSpaceOnUse" x1="1721.6055" y1="-1509.459" x2="1721.6055" y2="-1230.9985" gradientTransform="matrix(-0.522 0.853 0.853 0.522 3320.9966 294.2264)">
		<stop  offset="0" style="stop-color:#FFFFFF;stop-opacity:0"/>
		<stop  offset="1" style="stop-color:#FFFFFF"/>
	</linearGradient>
	<path class="st14" d="M956.1,1266.8l237.5,145.4c-62-184.8-20.1-427.3,159.3-648.8c1.7-2,3.3-4.1,4.9-6
		c-15.9-25.5-30.6-50.2-44.3-74.6L956.1,1266.8L956.1,1266.8z"/>
	
		<linearGradient id="SVGID_14_" gradientUnits="userSpaceOnUse" x1="645.5486" y1="3880.041" x2="645.5486" y2="3342.9683" gradientTransform="matrix(-0.522 0.853 -0.853 -0.522 5343.1362 1531.6901)">
		<stop  offset="0" style="stop-color:#FFFFFF;stop-opacity:0"/>
		<stop  offset="1" style="stop-color:#FFFFFF"/>
	</linearGradient>
	<path class="st15" d="M1942.5,414.8C2132.9,357.2,2258,220,2289.6,79.5L1878-172.4l-29.8-18.2L1718.4,21.2
		c-5.2,64.4-1.3,130.2,7.1,188.1l0,0c6.9,47.4,16.8,89.5,27.3,121.1c16.1,48.4,31,90.6,46.2,129.7
		C1842,445.7,1889.2,430.9,1942.5,414.8z"/>
	
		<linearGradient id="SVGID_15_" gradientUnits="userSpaceOnUse" x1="1011.6495" y1="3880.1506" x2="1011.6495" y2="3582.1589" gradientTransform="matrix(-0.522 0.853 -0.853 -0.522 5343.1362 1531.6901)">
		<stop  offset="0" style="stop-color:#FFFFFF;stop-opacity:0"/>
		<stop  offset="1" style="stop-color:#FFFFFF"/>
	</linearGradient>
	<path class="st16" d="M1799,460.2c-15.2-39.1-30.1-81.4-46.2-129.7c-10.5-31.5-20.4-73.7-27.3-121.1l0,0
		c-8.4-57.9-12.3-123.8-7.2-188.2l-208.5,340.7l-96.1,157l-100.1,163.8c13.7,24.4,28.4,49.1,44.3,74.6
		C1494.4,590.4,1597.3,528.3,1799,460.2z"/>
</g>
</svg>
