<?xml version="1.0" encoding="utf-8"?>
<!-- Generator: Adobe Illustrator 21.0.0, SVG Export Plug-In . SVG Version: 6.00 Build 0)  -->
<svg version="1.1" id="Layer_1" xmlns="http://www.w3.org/2000/svg" xmlns:xlink="http://www.w3.org/1999/xlink" x="0px" y="0px"
	 viewBox="0 0 440.1 410.7" style="enable-background:new 0 0 440.1 410.7;" xml:space="preserve">
<style type="text/css">
	.st0{fill:#FFFFFF;}
	.st1{fill:#7BB5FF;}
	.st2{fill:#5A6CE5;}
</style>
<path class="st0" d="M414.8,326.5c4.9-1.9,8.8-4.4,11-9.2 M56.3,176.1c1.9,0,3.9,0,6,0c0-7.2,0-13.7,0-20.7c-7,0-13.6,0-20.3,0
	c0-12.8,0-25.2,0-37.9c2,0.7,3.6,1.1,5.2,1.7c53.6,20.9,107.2,41.8,160.9,62.5c4,1.6,5.1,3.7,5.1,7.7c-0.1,60-0.1,120-0.1,180
	c0,1.6-0.2,3.1-0.4,5.1c-2-0.6-3.4-1-4.7-1.5c-52.5-20.4-105.1-40.9-157.6-61.3c-8.7-3.4-8.6-3.4-8.7-12.4V175.3L56.3,176.1z
	 M73.3,282.6c0-6.8,0-13.3,0-20.4c-10.7,0-21,0-31.7,0c0-7.2,0-13.6,0-21.1c-5.8,0-10.9,0.1-16-0.1c-3.4-0.1-4.9,0.9-4.6,4.5
	c0.3,3.6-0.2,7.3,0.1,11 M105.4,229c0-6.6,0-12.7,0-20c-21.3,0-42.3,0-63.8,0c0-7.6,0-14.3,0-21.1c-7.1,0-13.6,0-20.5,0
	c0,5.5-0.2,10.7,0.1,15.8"/>
<path class="st1" d="M15.3,155.5c1.6,0,3.3,0,5.5,0c0.1-2.4,0.3-4.3,0.3-6.2c0-18.8,0-37.6,0-56.5c0-6.7,1.7-9.3,7.9-11.7
	C92,56.6,155,32,218.1,7.7c3-1.1,7.1-1.4,10-0.3c28.3,10.8,56.3,22,84.5,32.9c34.7,13.5,69.4,27,104.1,40.3c4.4,1.7,7.1,4.6,9.1,8.6
	c0,76,0,152,0,228c-2.2,4.9-6.1,7.3-11,9.2c-61.9,23.9-123.7,48-185.5,72.1c-4.3,1.7-8.2,1.6-12.5-0.1c-62-24.2-124-48.3-185.9-72.4
	c-8.5-3.3-9.9-5.3-9.9-14.4c0-5.5,0-11,0-16.9c6.8,0,13.4,0,20.3,0c0.1,1.4,0.3,2.9,0.3,4.3c0.1,9,0.1,9.1,8.7,12.4
	c52.5,20.4,105.1,40.9,157.6,61.3c1.4,0.5,2.8,0.9,4.7,1.5c0.1-2,0.4-3.6,0.4-5.1c0-60,0-120,0.1-180c0-4-1-6.1-5.1-7.7
	c-53.7-20.7-107.3-41.6-160.9-62.5c-1.5-0.6-3.1-1-5.2-1.7c0,12.8,0,25.1,0,37.9c6.7,0,13.3,0,20.3,0c0,7,0,13.5,0,20.7
	c-2.1,0-4,0-6,0H15.5L15.3,155.5z M405,117.3c-2.1,0.7-3.5,1-4.9,1.5c-53.8,20.9-107.5,41.8-161.3,62.6c-4.1,1.6-5.4,3.6-5.4,7.9
	c0.2,59.8,0.1,119.6,0.1,179.4c0,1.7,0,3.5,0,5.8c2.2-0.7,3.6-1.1,5-1.7c53.8-20.9,107.5-41.8,161.3-62.6c4.2-1.6,5.3-3.9,5.3-8.1
	c-0.1-59.6-0.1-119.3-0.1-178.9C405,121.5,405,119.7,405,117.3z M143.9,134.4c2.8,1.2,4.3,1.9,5.8,2.5c23.2,9.1,46.5,18.2,69.8,27
	c2.3,0.9,5.6,0.7,7.9-0.2c50.9-19.6,101.7-39.4,152.5-59.2c6.3-2.4,12.6-4.9,20-7.8c-2.8-1.2-4.4-2-6-2.7c-23.1-9-46.2-17.9-69.3-27
	c-3.9-1.5-7.6-3.4-11.1,0.9c-1,1.3-3.2,1.6-4.9,2.2c-50.4,19.6-100.7,39.2-151.1,58.8C153.4,130.6,149.3,132.3,143.9,134.4z
	 M291.4,54.8c-1.7-1-2.7-1.6-3.7-2c-20.4-8-40.9-16-61.4-23.7c-2.2-0.8-5.3-0.6-7.5,0.3C163.1,50.9,107.5,72.6,51.9,94.2
	c-1.5,0.6-3,1.4-5.5,2.6c21.6,8.4,42.1,16.3,62.4,24.4c4.3,1.7,8,1.7,12.3,0c43.3-17,86.7-33.8,130.1-50.7
	C264.4,65.4,277.5,60.2,291.4,54.8z"/>
<path class="st2" d="M21.1,256.5c-0.3-3.6,0.2-7.3-0.1-11c-0.3-3.6,1.3-4.6,4.6-4.5c5.1,0.2,10.2,0.1,16,0.1c0,7.4,0,13.9,0,21.1
	c10.7,0,21,0,31.7,0c0,7.1,0,13.6,0,20.4H20.3"/>
<path class="st2" d="M21.1,203.7c-0.3-5.1-0.1-10.3-0.1-15.8c6.9,0,13.4,0,20.5,0c0,6.8,0,13.6,0,21.1c21.5,0,42.5,0,63.8,0
	c0,7.3,0,13.4,0,20H21.2"/>
<path class="st0" d="M405,117.3c0,2.4,0,4.2,0,6c0,59.6,0,119.3,0.1,178.9c0,4.3-1.1,6.5-5.3,8.1C346,331.1,292.3,352,238.5,372.9
	c-1.4,0.5-2.8,0.9-5,1.7c0-2.3,0-4,0-5.8c0-59.8,0.1-119.6-0.1-179.4c0-4.4,1.3-6.4,5.4-7.9c53.8-20.7,107.5-41.7,161.3-62.6
	C401.5,118.3,402.9,118,405,117.3z M362.4,283.7c0,7,0,13.4,0,20c6.8,0,13.3,0,19.9,0c0-6.9,0-13.4,0-20
	C375.5,283.7,369.1,283.7,362.4,283.7z M330.5,294.7c0,7,0,13.5,0,19.9c6.9,0,13.4,0,19.9,0c0-6.8,0-13.2,0-19.9
	C343.7,294.7,337.3,294.7,330.5,294.7z"/>
<path class="st0" d="M143.9,134.4c5.4-2.2,9.6-3.8,13.7-5.4c50.4-19.6,100.7-39.2,151.1-58.8c1.7-0.7,3.9-1,4.9-2.2
	c3.6-4.3,7.2-2.5,11.1-0.9c23.1,9,46.2,18,69.3,27c1.7,0.6,3.2,1.4,6,2.7c-7.5,2.9-13.7,5.4-20,7.8
	c-50.8,19.8-101.6,39.6-152.5,59.2c-2.4,0.9-5.6,1.1-7.9,0.2c-23.3-8.8-46.5-18-69.8-27C148.2,136.4,146.7,135.7,143.9,134.4z"/>
<path class="st0" d="M291.4,54.8c-13.9,5.4-27,10.6-40.1,15.7c-43.4,16.9-86.8,33.7-130.1,50.7c-4.3,1.7-8,1.7-12.3,0
	c-20.4-8.1-40.8-16-62.4-24.4c2.4-1.2,3.9-2,5.5-2.6c55.6-21.6,111.2-43.3,166.9-64.8c2.2-0.9,5.3-1.1,7.5-0.3
	c20.5,7.7,41,15.8,61.4,23.7C288.8,53.2,289.7,53.9,291.4,54.8z"/>
<path class="st2" d="M362.4,283.7c6.7,0,13.1,0,19.9,0c0,6.6,0,13.1,0,20c-6.6,0-13.1,0-19.9,0C362.4,297.1,362.4,290.7,362.4,283.7
	z"/>
<path class="st2" d="M330.5,294.7c6.8,0,13.2,0,19.9,0c0,6.7,0,13.1,0,19.9c-6.5,0-13,0-19.9,0C330.5,308.2,330.5,301.7,330.5,294.7
	z"/>
</svg>
