<?xml version="1.0" encoding="utf-8"?>
<!-- Generator: Adobe Illustrator 21.1.0, SVG Export Plug-In . SVG Version: 6.00 Build 0)  -->
<svg version="1.1" id="Layer_1" xmlns="http://www.w3.org/2000/svg" xmlns:xlink="http://www.w3.org/1999/xlink" x="0px" y="0px"
	 viewBox="0 0 642.6 336.9" style="enable-background:new 0 0 642.6 336.9;" xml:space="preserve">
<style type="text/css">
	.st0{display:none;}
	.st1{display:inline;}
	.st2{fill:#7C83B3;}
	.st3{opacity:0.2;fill:#FFFFFF;enable-background:new    ;}
	.st4{fill:#D6DCE2;}
	.st5{fill:#EAB234;}
	.st6{fill:#FFCD52;}
	.st7{fill:#F3F5FE;}
	.st8{fill:url(#SVGID_1_);}
	.st9{fill:url(#SVGID_2_);}
	.st10{fill:url(#SVGID_3_);}
	.st11{fill:#F2F2F2;}
	.st12{fill:#66CCB0;}
	.st13{fill:#7B7F9A;}
	.st14{fill:#6F738E;}
	.st15{fill:#D6D6D6;}
	.st16{fill:#FFFFFF;}
	.st17{fill:#D8D8D8;}
	.st18{opacity:0.19;fill:#FFFFFF;enable-background:new    ;}
	.st19{fill:url(#SVGID_4_);}
	.st20{fill:url(#SVGID_5_);}
	.st21{fill:url(#SVGID_6_);}
	.st22{fill:url(#SVGID_7_);}
	.st23{fill:url(#SVGID_8_);}
	.st24{fill:#79D7BF;}
	.st25{fill:#63C1D2;}
	.st26{fill:#76CED8;}
	.st27{fill:#FFD191;}
	.st28{opacity:0.68;fill:#ABB1BD;enable-background:new    ;}
	.st29{fill:#FFE0AD;}
	.st30{fill:#DADCDE;}
	.st31{fill:#CDCDCD;}
	.st32{opacity:0.1;fill:#FFFFFF;enable-background:new    ;}
	.st33{fill:#8B8293;}
	.st34{opacity:0.5;fill:#CFD5E3;enable-background:new    ;}
	.st35{display:inline;fill:#79D7BF;}
	.st36{fill:#EBEDF3;}
	.st37{fill:#DCE0EC;}
	.st38{fill:#D8DCE9;}
	.st39{fill:#29B0A6;}
	.st40{fill:#E89970;}
	.st41{fill:#EE7177;}
	.st42{fill:#876182;}
	.st43{fill:#48B6AC;}
	.st44{fill:#FCE576;}
	.st45{fill:#59BAB1;}
	.st46{fill:#0FAEA3;}
	.st47{fill:#81587B;}
	.st48{fill:#73476E;}
	.st49{fill:#F5A038;}
	.st50{fill:#F3941E;}
	.st51{fill:#EB5E69;}
	.st52{fill:#DADADA;}
	.st53{clip-path:url(#SVGID_10_);}
	.st54{fill:#FBDF4E;}
	.st55{fill:#FDEA98;}
	.st56{fill:url(#SVGID_11_);}
	.st57{fill:url(#SVGID_12_);}
	.st58{fill:url(#SVGID_13_);}
	.st59{fill:url(#SVGID_14_);}
	.st60{fill:url(#SVGID_15_);}
	.st61{fill:url(#SVGID_16_);}
	.st62{fill:url(#SVGID_17_);}
	.st63{fill:#6E728A;}
	.st64{fill:#7ACEE7;}
	.st65{fill:#2197D2;}
	.st66{fill:#EEEDEB;}
	.st67{fill:#F1758D;}
	.st68{fill:#0691CD;}
	.st69{fill:#54C1BC;}
	.st70{fill:#70C7C4;}
</style>
<g id="m6BYYw.tif" class="st0">
</g>
<g class="st0">
	<g class="st1">
		<g>
			<path class="st2" d="M73,133.6c0,0,4.7-15.4,17.1-22.5c3.3-1.9,4.8-5.5,5.6-9.1c0.7-3,1-6.1,2.2-8.9c0.5-1.2,1.2-2.4,1.4-3.7
				c0.2-1.3-0.3-2.6,0.4-3.9c1.7-3,9.8-22.6-9.5-28.2C81.8,55,73.8,57.6,68.9,65c-1.5,2.3-2.7,4.8-3.5,7.4
				c-1.4,4.8,1.4,10.7,3.1,15.2c1.8,4.6,3.7,9.1,2.9,14.2c-0.9,6.1-4.4,11.2-6.8,16.7c-1.5,3.5-2.8,8.6,1,11
				C68,131,70.6,132.3,73,133.6z"/>
			<path class="st3" d="M90.2,111.1c8.4-5,4.5-13.2,8-18.4c3.5-5.2-0.1-4.1,1.7-7.1c1.7-3,9.8-22.6-9.5-28.2
				c-9.5-2.7-22.6,2.2-23.8,13.3c-0.8,7.1,4.8,11.8,8.5,16.9c3.8,5.3,3.8,12.8,2.8,18.9C77.3,110,82.1,114.7,90.2,111.1z"/>
			<g>
				<path class="st4" d="M72.8,134.1c0.1,0,0.2,0.1,0.3,0.1c0.3,0,0.5-0.3,0.5-0.5c-0.9-13.2,2.5-19,6.4-25.8c0.3-0.6,0.7-1.2,1-1.8
					c5.9-11.5,6.3-21.2,5.6-27.3c-0.8-6.6-2.9-10.5-3-10.7s-0.4-0.3-0.7-0.2c-0.2,0.1-0.3,0.4-0.2,0.7c0.1,0.2,8.4,15.5-2.6,37
					c-0.3,0.6-0.7,1.2-1,1.7c-4,6.9-7.5,12.9-6.6,26.4C72.6,133.8,72.7,134,72.8,134.1z"/>
			</g>
		</g>
		<g>
			<g>
				<path class="st5" d="M30,51.6c0.5-0.6,3.9-0.2,4.6-0.2c3.3,0,6.7,0.4,9.9,1.2c7.4,2,11.6,7.9,10.2,15.6C53.4,75,47.9,84,56,88.6
					c3.2,1.8,6.4,1.6,7.5,5.9c1.1,4.2-0.1,8.8-1.1,12.9c-1.1,4.5-1.4,8,0,12.6c1,3.2,3,5.9,4,9c1.6,5.3,1.5,11.3,0.6,16.7
					c-0.6,3.3-6.3,2-9,2l-14-12l-9-21l-8-33l-8-17C19,64.6,30,51.6,30,51.6z"/>
				<path class="st6" d="M52,147.6c-0.1-4.7-3.2-8.9-7-11.5c-5.9-4-14-3.4-18.9-9c-3.1-3.6-4.3-8.2-3.5-12.9
					c0.4-2.5,1.9-4.5,2.5-6.9c1.1-4.2-2.7-7.7-6-9.6c-2.8-1.6-6.2-1.4-9-3.1c-2.6-1.5-4.2-4.6-4.6-7.5C5,83.3,6,79.2,6.5,75.2
					c1-9.8-5.6-22.5,4.8-29.2c11.4-7.4,20.5,5.5,30.4,9c1.9,0.7,3.8,1.1,5.5,2.1c4.5,2.8,2.3,8.1,1.5,12.3
					c-0.8,4.1-2.2,9.3-0.6,13.4c1.9,5.1,10.9,14.8,8,22c-2.9,7.2-3.2,15.2,1,21c4.2,5.8,12.4,14.8,11,22
					C68,148.1,53.3,147.6,52,147.6z"/>
				<g>
					<path class="st5" d="M62.6,148.9c0,0-2.4-4.1-4-7c-0.4-0.6-1.3-1.7-2.5-3.1c-4.1-4.7-10.9-12.5-10.5-20.1
						c0.4-10.3-0.8-20.9-2.9-24.7c-2.1-3.7-6.1-7.4-10.4-11.4C25.6,76.4,18,69.4,16.6,60.8c0-0.3,0.1-0.5,0.4-0.6
						c0.3,0,0.5,0.1,0.6,0.4c1.3,8.2,8.8,15.1,15.4,21.2c4.3,4,8.4,7.8,10.6,11.6c2.5,4.5,3.4,16.1,3.1,25.3
						c-0.3,7.2,6.3,14.9,10.3,19.4c1.3,1.5,2.2,2.6,2.6,3.3c1.6,2.9,4,7,4,7L62.6,148.9z"/>
				</g>
			</g>
			<g>
				<path class="st5" d="M34,84.3c0.3,0,0.5-0.2,0.5-0.4l2.1-20.4c0-0.3-0.2-0.5-0.4-0.5c-0.3,0-0.5,0.2-0.5,0.4l-2.1,20.4
					C33.4,84,33.6,84.2,34,84.3C33.9,84.3,34,84.3,34,84.3z"/>
			</g>
			<g>
				<path class="st5" d="M45.6,113.6c0.1,0,0.3,0,0.4-0.1c0.2-0.2,0.2-0.5,0-0.7L30.2,97c-0.2-0.2-0.5-0.2-0.7,0s-0.2,0.5,0,0.7
					l15.7,15.7C45.4,113.5,45.5,113.6,45.6,113.6z"/>
			</g>
		</g>
		<path class="st7" d="M28.4,169.5c0,0,11.9-51.2,60.8-41.1s28,37.5,28,37.5"/>
		<path class="st7" d="M178.4,258.5c41.4-3.5,117.8-23.2,117.8-51.5v-2.7c0-28.3-23.2-51.5-51.5-51.5l-156-16.1
			c-28.3,0-91.5,30.1-80,75C19.8,254.8,137.1,262,178.4,258.5L178.4,258.5z"/>
		
			<linearGradient id="SVGID_1_" gradientUnits="userSpaceOnUse" x1="-159.8533" y1="366.1074" x2="-159.8717" y2="367.4489" gradientTransform="matrix(-36.1 0 0 23.3 -5552.7319 -8423.3555)">
			<stop  offset="0.4251" style="stop-color:#FFFFFF;stop-opacity:0"/>
			<stop  offset="0.5427" style="stop-color:#B3C7E8;stop-opacity:0.1"/>
			<stop  offset="0.6704" style="stop-color:#6790D1;stop-opacity:0.208"/>
			<stop  offset="0.7763" style="stop-color:#2F67C0;stop-opacity:0.298"/>
			<stop  offset="0.8547" style="stop-color:#0D4EB6;stop-opacity:0.364"/>
			<stop  offset="0.897" style="stop-color:#0044B2;stop-opacity:0.4"/>
		</linearGradient>
		<path class="st8" d="M200.5,130.2l-0.3-23.3l36.1,17l-14.3,2.9C222.1,126.9,201.2,130.1,200.5,130.2z"/>
		
			<linearGradient id="SVGID_2_" gradientUnits="userSpaceOnUse" x1="-145.3255" y1="367.5166" x2="-145.3799" y2="366.6759" gradientTransform="matrix(-73.2 0 0 26.0515 -10469.7715 -9394.1484)">
			<stop  offset="1.884000e-02" style="stop-color:#5088D8;stop-opacity:0.4"/>
			<stop  offset="0.2939" style="stop-color:#5B91E1;stop-opacity:0.277"/>
			<stop  offset="0.777" style="stop-color:#78A9F8;stop-opacity:6.100000e-02"/>
			<stop  offset="0.9135" style="stop-color:#82B1FF;stop-opacity:0"/>
		</linearGradient>
		<path class="st9" d="M134.9,155.1c0,0,20.8-0.4,33.4,10.1c12.5,10.5,39.8,2.2,39.8,2.2s-11.2,5-18.5,13.7c0,0-10.1,1.4-22.4-10.7
			C154.9,158.3,134.9,155.1,134.9,155.1L134.9,155.1z"/>
		
			<linearGradient id="SVGID_3_" gradientUnits="userSpaceOnUse" x1="-267.1148" y1="363.9922" x2="-265.3936" y2="364.1604" gradientTransform="matrix(-7.6532 0 0 14.6 -1816.0009 -5102.4976)">
			<stop  offset="0" style="stop-color:#FFFFFF;stop-opacity:0"/>
			<stop  offset="0.1077" style="stop-color:#FAFCFE;stop-opacity:4.300000e-02"/>
			<stop  offset="0.2314" style="stop-color:#ECF1F9;stop-opacity:9.300000e-02"/>
			<stop  offset="0.3631" style="stop-color:#D5E0F2;stop-opacity:0.145"/>
			<stop  offset="0.5005" style="stop-color:#B5C9E9;stop-opacity:0.2"/>
			<stop  offset="0.6422" style="stop-color:#8BAADC;stop-opacity:0.257"/>
			<stop  offset="0.7876" style="stop-color:#5985CD;stop-opacity:0.315"/>
			<stop  offset="0.9332" style="stop-color:#1E5ABB;stop-opacity:0.373"/>
			<stop  offset="1" style="stop-color:#0044B2;stop-opacity:0.4"/>
		</linearGradient>
		<path class="st10" d="M224.3,220.4c1.3-5.9-6.1-14.6-6.1-14.6c4.3,9.1-1.4,14.6-1.4,14.6H224.3z"/>
		<g>
			<g>
				<g>
					<path class="st2" d="M105.2,92.8C106,80.9,118,79.3,118,71.6s-3.5-7.7-3.5-14.1c0.2-12.2,7-10.1,6.6-16.6
						c-0.4-6.6-2-31.7,20.7-28.6c0,0,9.2-8.9,22.7,3.1C178,27.3,169.1,37,170.7,42c1.5,5,9.6,4.6,9.6,13.1s-7.3,10-5.8,16.2
						c1.2,4.8,13.6,10.4,11.8,25.2c-11.2,9.5-25.7,15.2-41.5,15.2c-14.9,0-28.7-5.1-39.6-13.7C105.1,96.4,105,94.6,105.2,92.8z"/>
				</g>
				<path class="st11" d="M146.9,88.3c-10.1,0.2-15-5.9-16.9-9.3c4.7-0.2,8.4-0.1,8.4-0.1l15.5-0.6l7.2,0.9
					C160.3,81.4,157,88,146.9,88.3z"/>
				<path class="st12" d="M110.1,82c3.1-2.1,12.8-2.8,19.9-3c1.9,3.4,6.7,9.5,16.9,9.3c10.1-0.2,13.4-6.9,14.2-9l14.9,1.9
					c14.7-0.9,22.6,31.2,22.6,31.2L184.7,141l-5.4-34.8l-5.7,45.2l-4.5,7.9l-23.4,26c-21.7,0-20.8-23.4-20.8-23.4l-0.7-6.9
					c10-2.5,22.7-7,22.7-7v-8.8h-1.5l-22.8,0.1l-2.9-29.4l0.9,29.5l2.1-0.3l1.6,15.9c-3.9,1-7.5,1.7-9.7,1.7c-7.8,0-7.8-7.8-7.8-7.8
					s-3.5-42.5-4.3-52.1C101.4,87.2,104.9,85.5,110.1,82z"/>
				<path class="st13" d="M223.9,307.4c0,0,13-0.9,11,1.9s-5.4,7.1-14.2,5.9c-8.8-1.3-7.9-3.7-12.9-5.6s-12.3-2.5-11.9-5.8
					c0.4-3.3,5.3-7.7,5.9-8.2c0.6-0.5,6.7,1.9,6.7,1.9l4.2,5.8L223.9,307.4z"/>
				<path class="st11" d="M209.9,292.9l-7.7-0.7l-0.3,3.5c0,0,4.9,0.7,6.9,5.3c2,4.7,7.6,8.2,12.5,7.9c4.9-0.3,4.1-0.8,4.1-0.8
					s-5.3-2.7-7.3-5s-3.5-8.9-7.4-9.6"/>
				<path class="st14" d="M299.2,243.1c0,0,11.4-6.4,10.8-3s-1.8,8.8-10.3,11.4c-8.5,2.6-8.7,0-14,0.4s-12.2,3-13.2-0.2
					c-1-3.1,1.5-9.2,1.9-10c0.3-0.8,6.9-1.1,6.9-1.1l6.2,3.4L299.2,243.1z"/>
				<path class="st11" d="M280.4,235.9l-7.3,2.6l1.3,3.3c0,0,4.7-1.5,8.5,1.9s10.3,4.2,14.6,1.8c4.3-2.4,3.4-2.4,3.4-2.4
					s-5.9-0.2-8.7-1.4c-2.8-1.2-7-6.6-10.8-5.5"/>
				<path class="st13" d="M283,236l-10.4,3.5c0,0-38.8-43.1-40-49.9c0,0-96,8.6-97.3-13.2s23.1-25.6,47.9-27.1s51.7,1.5,51.7,1.5
					s4.3,2.5,8.4,9.4C247.3,167.1,283,236,283,236z"/>
				<g>
					<path class="st14" d="M224,180.5c12.4,5.3,6.7,17.5,6.7,17.5c-10.2,34.9-17,97.8-17,97.8l-12.8-2.6c0,0-1.7-49.3-5.1-66.4
						c-3.4-17,6.8-28.1,6.8-28.1l-36.6-8.5C166,190.3,207.7,179.1,224,180.5z"/>
				</g>
				<g>
					<path class="st11" d="M135.3,79.6l17.5-9.9c0.1,3,0.9,6.2,2.9,8.5c0.1,0.1,0.2,0.3,0.4,0.4C153.9,80.6,146.8,85.3,135.3,79.6z"
						/>
					<path class="st15" d="M134.8,79.4c0.4-0.3,0.7-0.7,1.1-1.1c5.2-5.8,1.9-17.1,1.9-17.1h4.5h3.3h8.2c0,0-1.2,4.1-1,8.6l-17.5,9.9
						C135.1,79.5,135,79.4,134.8,79.4z"/>
				</g>
				<g>
					<path class="st11" d="M145.8,70.6c-11.4,0-20.6-11.7-20.6-26.2s9.2-26.2,20.6-26.2l0,0c11.4,0,20.6,11.7,20.6,26.2
						C166.4,58.9,157.2,70.6,145.8,70.6L145.8,70.6z"/>
				</g>
				<path class="st16" d="M145.2,138.7c0,0,21-4.1,25.5,6.4l-0.5,2.5l-13.4,0.8c0,0-3.1-1-4-0.5s-2.6,1.6-4.9,0.7
					c-2.4-0.9-3.9-2.2-3.9-2.2L145.2,138.7z"/>
				<polygon class="st17" points="250,103.8 228.2,148.5 163.4,148.5 182.9,103.7 				"/>
				<path class="st17" d="M154,149.4c0,0.6,0.5,1,1,1h72.9c0.6,0,1-0.5,1-1.1l0,0c0-0.6-0.4-1-1-1H155c-0.6,0-0.8,0-0.8,0.5
					L154,149.4z"/>
				<ellipse class="st18" cx="208.1" cy="129" rx="7.6" ry="1.9"/>
			</g>
		</g>
	</g>
	<g class="st1">
		<path class="st7" d="M473.1,120.1c0,0,62.9-3.7,62.8,37.2c0,0,59,0.3,67.2,20.1c11.6,27.8-28.7,61.2-127.7,39.5
			c0,0-31.3-18.6-49.7-23.2c-20.8-5.2-30-53.7,19.1-35.2"/>
		
			<linearGradient id="SVGID_4_" gradientUnits="userSpaceOnUse" x1="-153.8183" y1="363.4507" x2="-155.1083" y2="362.8529" gradientTransform="matrix(-32.8 0 0 18.697 -4691.1909 -6589.4878)">
			<stop  offset="0" style="stop-color:#F2F4F7;stop-opacity:0"/>
			<stop  offset="9.680000e-02" style="stop-color:#ECF0F5;stop-opacity:3.900000e-02"/>
			<stop  offset="0.2259" style="stop-color:#DBE3F0;stop-opacity:9.000000e-02"/>
			<stop  offset="0.3732" style="stop-color:#BFCFE9;stop-opacity:0.149"/>
			<stop  offset="0.5341" style="stop-color:#99B3DD;stop-opacity:0.214"/>
			<stop  offset="0.706" style="stop-color:#678FCF;stop-opacity:0.282"/>
			<stop  offset="0.8843" style="stop-color:#2B63BE;stop-opacity:0.354"/>
			<stop  offset="1" style="stop-color:#0044B2;stop-opacity:0.4"/>
		</linearGradient>
		<path class="st19" d="M394,204.6c0,0-14,11.6-31.9,3.8l-0.9-16L394,204.6"/>
		
			<linearGradient id="SVGID_5_" gradientUnits="userSpaceOnUse" x1="-146.143" y1="367.6873" x2="-147.7459" y2="367.211" gradientTransform="matrix(-44.8561 0 0 40.8 -6075.7261 -14853.499)">
			<stop  offset="0.144" style="stop-color:#F2F4F7;stop-opacity:0"/>
			<stop  offset="0.2586" style="stop-color:#D8E1F0;stop-opacity:5.400000e-02"/>
			<stop  offset="0.5038" style="stop-color:#96B1DD;stop-opacity:0.168"/>
			<stop  offset="0.8574" style="stop-color:#2C64BF;stop-opacity:0.333"/>
			<stop  offset="1" style="stop-color:#0044B2;stop-opacity:0.4"/>
		</linearGradient>
		<path class="st20" d="M535.9,157.4c0,0,3.5-30.3-44.8-36.8l7.9,40.8C499.1,161.4,526.4,157,535.9,157.4z"/>
		
			<linearGradient id="SVGID_6_" gradientUnits="userSpaceOnUse" x1="-194.8044" y1="345.9731" x2="-194.4467" y2="347.7129" gradientTransform="matrix(-11.0384 0 0 5.7 -1570.0112 -1799.0732)">
			<stop  offset="0" style="stop-color:#E6E6E6;stop-opacity:0"/>
			<stop  offset="0.1758" style="stop-color:#A7BAD8;stop-opacity:0.119"/>
			<stop  offset="0.3601" style="stop-color:#6C90CA;stop-opacity:0.244"/>
			<stop  offset="0.53" style="stop-color:#3D6FC0;stop-opacity:0.359"/>
			<stop  offset="0.6797" style="stop-color:#1C58B8;stop-opacity:0.46"/>
			<stop  offset="0.8035" style="stop-color:#0749B4;stop-opacity:0.544"/>
			<stop  offset="0.8861" style="stop-color:#0044B2;stop-opacity:0.6"/>
		</linearGradient>
		<path class="st21" d="M591.6,176.1c0,0,1.9,6.4-11.8,6.4s-14.7-4.5-14.7-4.5"/>
		
			<linearGradient id="SVGID_7_" gradientUnits="userSpaceOnUse" x1="-153.3388" y1="367.4227" x2="-151.631" y2="366.5154" gradientTransform="matrix(-32.6963 0 0 35 -4473.4189 -12702.4277)">
			<stop  offset="0" style="stop-color:#F2F4F7;stop-opacity:0"/>
			<stop  offset="8.840000e-02" style="stop-color:#E8EDF4;stop-opacity:3.500000e-02"/>
			<stop  offset="0.2372" style="stop-color:#CEDAED;stop-opacity:9.500000e-02"/>
			<stop  offset="0.4281" style="stop-color:#A3BBE1;stop-opacity:0.171"/>
			<stop  offset="0.6537" style="stop-color:#6890D0;stop-opacity:0.262"/>
			<stop  offset="0.9058" style="stop-color:#1E5ABA;stop-opacity:0.362"/>
			<stop  offset="1" style="stop-color:#0044B2;stop-opacity:0.4"/>
		</linearGradient>
		<path class="st22" d="M513.5,158.7c0,0-15-13.5-8-14.5s15.5,0,15.5,0s-23.7-16.6-16.4-20.5c0,0,27.5,2.2,31.3,33.6
			C535.9,157.4,519,158,513.5,158.7z"/>
		
			<linearGradient id="SVGID_8_" gradientUnits="userSpaceOnUse" x1="-147.7291" y1="365.129" x2="-146.198" y2="363.3395" gradientTransform="matrix(-44.1291 0 0 21.473 -5941.5771 -7658.6172)">
			<stop  offset="0" style="stop-color:#F2F4F7;stop-opacity:0"/>
			<stop  offset="8.840000e-02" style="stop-color:#E8EDF4;stop-opacity:3.500000e-02"/>
			<stop  offset="0.2372" style="stop-color:#CEDAED;stop-opacity:9.500000e-02"/>
			<stop  offset="0.4281" style="stop-color:#A3BBE1;stop-opacity:0.171"/>
			<stop  offset="0.6537" style="stop-color:#6890D0;stop-opacity:0.262"/>
			<stop  offset="0.9058" style="stop-color:#1E5ABA;stop-opacity:0.362"/>
			<stop  offset="1" style="stop-color:#0044B2;stop-opacity:0.4"/>
		</linearGradient>
		<path class="st23" d="M574.3,179.4c0,0-17.2-7.7-26.2-8.5c0,0-19.7-2.9-17.8-8.5c0,0,1.5-6.7,24.4-3.7"/>
		<path class="st7" d="M413.3,206.7c4.3,3,42.3-30.2,78.6-12.9c29.8,14.2,39.8,42.8,26.2,63.2c-3.1,4.6-7.4,8.7-12.8,12.2
			c-31.8,20.1-77.7,19.5-94.6,17.3C264.6,269,356.6,167,413.3,206.7L413.3,206.7z"/>
		<g>
			<path class="st12" d="M579,179c0,0-3.4-15.7,4-28c2-3.3,1.5-7.2,0.5-10.7c-0.9-2.9-2.1-5.8-2.4-8.8c-0.1-1.3-0.1-2.7-0.6-3.9
				c-0.5-1.3-1.6-2.1-1.5-3.6c0.1-3.4-2.5-24.5-22-20c-8.6,2-14.4,8.3-15.1,17.1c-0.2,2.7,0,5.5,0.6,8.2c1.1,4.9,6.5,8.6,10.1,11.7
				c3.8,3.2,7.6,6.2,9.4,11c2.2,5.7,1.6,11.9,2.2,17.9c0.4,3.8,1.7,8.9,6.2,9.1C573.3,179.2,576.2,179,579,179z"/>
			<path class="st24" d="M583,151c4.9-8.4-2.6-13.7-2-20s-2.1-3.6-2-7s-2.5-24.5-22-20c-9.6,2.2-18.7,12.9-14.3,23.2
				c2.8,6.6,9.9,7.9,15.6,10.6c5.9,2.7,9.6,9.3,11.7,15.2C571.2,156.3,577.7,158.1,583,151z"/>
			<g>
				<path class="st16" d="M579,179.3c0.1,0,0.2,0,0.3-0.1c0.2-0.2,0.3-0.5,0.1-0.7c-7.2-11.1-7.1-17.8-6.9-25.7c0-0.7,0-1.4,0-2
					c-0.4-12.9-4.8-21.6-8.4-26.6c-3.9-5.4-7.7-7.8-7.8-7.9c-0.2-0.1-0.5-0.1-0.7,0.2c-0.1,0.2-0.1,0.5,0.2,0.7
					c0.1,0.1,14.9,9.4,15.8,33.6c0,0.7,0,1.3,0,2c-0.1,8-0.2,14.9,7.1,26.2C578.6,179.2,578.8,179.3,579,179.3z"/>
			</g>
			<path class="st25" d="M613,83c-0.5-0.6-3.9-0.2-4.6-0.2c-3.3,0-6.7,0.4-9.9,1.2c-7.4,2-11.6,7.9-10.2,15.6
				c1.2,6.7,6.8,15.7-1.4,20.4c-3.2,1.8-6.4,1.6-7.5,5.9c-1.1,4.2,0.1,8.8,1.1,12.9c1.1,4.5,1.4,8,0,12.6c-1,3.2-3,5.9-4,9
				c-1.6,5.3-1.5,11.3-0.6,16.7c0.6,3.3,6.3,2,9,2l14-12l9-21l8-33l8-17C624,96,613,83,613,83z"/>
			<path class="st26" d="M587.5,179.3c3.2-5,6.7-9.1,10.6-11.7c5.9-4,14-3.4,18.9-9c3.1-3.6,4.3-8.2,3.5-12.9
				c-0.4-2.5-1.9-4.5-2.5-6.9c-1.1-4.2,2.7-7.7,6-9.6c2.8-1.6,6.2-1.4,9-3.1c2.6-1.5,4.2-4.6,4.6-7.5c0.6-4-0.4-8.1-0.9-12.1
				c-1-9.8,5.6-22.5-4.8-29.2c-11.4-7.4-20.5,5.5-30.4,9c-1.9,0.7-3.8,1.1-5.5,2.1c-4.5,2.8-2.3,8.1-1.5,12.3
				c0.8,4.1,2.2,9.3,0.6,13.4c-1.9,5.1-10.9,14.8-8,22s3.2,15.2-1,21s-12.4,14.8-11,22C575.1,179.5,586.2,179.3,587.5,179.3z"/>
			<g>
				<path class="st16" d="M581,179.5c0,0,1.9-3.3,3.5-6.2c0.4-0.6,1.3-1.7,2.5-3.1c4.1-4.7,10.9-12.5,10.5-20.1
					c-0.4-10.3,0.8-20.9,2.9-24.7c2.1-3.7,6.1-7.4,10.4-11.4c6.7-6.2,14.3-13.2,15.7-21.8c0-0.3-0.1-0.5-0.4-0.6
					c-0.3,0-0.5,0.1-0.6,0.4c-1.3,8.2-8.8,15.1-15.4,21.2c-4.3,4-8.4,7.8-10.6,11.6c-2.5,4.5-3.4,16.1-3.1,25.3
					c0.3,7.2-6.3,14.9-10.3,19.4c-1.3,1.5-2.2,2.6-2.6,3.3c-1.6,2.9-3.6,6.5-3.6,6.5L581,179.5z"/>
			</g>
		</g>
		<g>
			<path id="XMLID_234_" class="st11" d="M486.6,113.6c0,0-0.8,2.9-2,7.6c-21.2-1.7-42.5-3.7-63.8-4.7c-1.6-0.1-3.2-0.1-4.8-0.2
				c0-0.2-0.1-0.4-0.1-0.6l1.5-28.8c0,0,9.6-5.9,12.8-8.6l-1-20.8l27.4-12.1l4.8,29.9c0,0,14.5,4.4,23.9,9.3
				C485.3,84.5,482.4,105.7,486.6,113.6z"/>
			<path id="XMLID_233_" class="st16" d="M417.4,86.8c0,0,8.3-4.5,12.9-7.8l-1.1-21.7l27.4-12.1l1.2,7.2l-1.4,15.3l-11.2,14.9
				c0,0-1,0.5-0.8,1.4c-0.1-0.7,10.5-6.7,16.9-10.2l0.2,1.3c0,0,14.5,4.4,23.9,9.3c0,0-1.8,13.2-0.5,22.6l-68.6,3.8L417.4,86.8z"/>
			<path id="XMLID_232_" class="st11" d="M414.7,18.2c-1.2,3.4-2.2,13.1-1,14.4c1.2,1.3,1.2,4.7,1.5,5.8s-0.6,8.6-0.5,12.4
				c0.1,3.8,4.7,18,6,19.6c4.2,5.2,26.5,5.6,32.8-4.9c0.6-1,5.3-13.7,7.1-19.7c2.2-7.4,1.5-24.9-1.1-30.5
				C454.6,4.4,420.7,0.7,414.7,18.2z"/>
			<path id="XMLID_231_" class="st2" d="M413.2,23.6c3.4,1,5.1-1.7,10.6-0.4c7.3,1.8,25.2,0.6,27,3.1c2.8,3.8,2.4,7.8,2.4,7.8
				l-0.3,8.8l0.7,1.1c1.1,1.8,4.1,1.3,4.3-0.7c0-0.1,0-0.1,0-0.2c0-0.4,0.1-0.8,0.2-1.2c1.5-5,8.3-8.4,8.3-8.4s1.9-6.2-0.6-14.8
				c-7.8-26.4-41.8-15-47-10.6c-4.3,3.7-5.2,10.2-5.2,13.5l0,0C413.5,22.8,413.2,23.6,413.2,23.6z"/>
			<path id="XMLID_230_" class="st2" d="M457.9,43.1c0,0-1.1-7.7,7.3-9.1c8.4-1.4,7.9,11.2-0.7,15.9c-5,2.7-6.7,3.9-6.7,3.9
				L457.9,43.1z"/>
			<path id="XMLID_215_" class="st27" d="M419.5,81.7c0,0-11.2,13.8-16.9,27.7c-5.7,13.9-11.5,36-13,39c0,0-2.6,2.7-3,4.1
				c0,0-30.8,5.7-42.8,6.8c-12,1-15.4,0-15.4,0s1.9,9.1,0,15.2c0,0,10.6,0.7,22.9,0s35.1-3.4,43-3.7s9.5-5.1,11.7-9.8
				c2.3-4.7,9.6-30.7,14.4-38.2c4.7-7.4,11.8-20.3,9.4-27.4S419.5,81.7,419.5,81.7z"/>
			<path id="XMLID_214_" class="st28" d="M363.4,169.7c15.1-2.4,18.9-3.6,21.5-3.9c2.5-0.3,2-3,0-7.8s6.8,4.5,6.6,0
				c-0.2-4.5-2.9-4.9,0-3.7s5,8.7,5.4,5.4s1.8-3.3,4.1-8.4c2.3-5.1,3.4-19.7,9.5-34.2c5.4-12.7,6.6-16.2,13.9-30.8
				c2.1,2.5,4.4,5.6,5.5,8.9c2.4,7.1-4.6,19.9-9.4,27.4c-4.7,7.4-12.1,33.4-14.4,38.2c-2.3,4.7-3.8,9.5-11.7,9.8
				c-7.9,0.3-30.7,3-43,3.7c-2.7,0.2-5.3,0.2-7.7,0.3l-10.6-2.1C332.9,172.5,348.2,172.2,363.4,169.7z"/>
			<path id="XMLID_213_" class="st27" d="M391.4,185.5c0,0,11.6,9.8,35.9,15.9c24.3,6.1,42.2-1.3,42.2-1.3
				c0.5-14.9,21.3-81.4,24.3-87.1s3.8-22.8,3.8-22.8c-3-2.9-22.5-10.2-28.9-13.3L467,77l-26.4,4.2l-12.4-1.5
				c-0.2,0.1-0.4,0.1-0.7,0.1c-4.7,0.9-6.4,0.5-8.1,1.8c-5.1,3.6-4.8,8.5-6.6,22.5c-1.5,11.4-5,29.4-7.2,41.9
				C403.4,158.5,391.4,185.5,391.4,185.5z"/>
			<g id="XMLID_212_">
				<path class="st29" d="M475.8,135.3l1-0.4c-5.8-12.4-7.9-26-6.1-39.3l-1.1-0.1C467.8,108.9,469.9,122.7,475.8,135.3z"/>
			</g>
			<path id="XMLID_210_" class="st29" d="M400.4,163.3c3-0.3,6-0.4,9-0.6c12.8-1,27.2-1.8,40-2.7c12.2-0.8,14.3-10.3,14-14.7
				c-1.5-19.3,3.5-26.8,3.7-40.4c7.8,5.7,6.9,34,14.8,39.7c-7.1,21.4-12,44.1-12.4,55.5c0,0-17.9,7.4-42.2,1.4
				c-24.3-6.1-35.9-15.9-35.9-15.9S396.3,174.5,400.4,163.3z"/>
			<path id="XMLID_209_" class="st28" d="M427,80.6c0,0,1.7,6.1,3.6,6.8c2,0.7,6.4,0,6.4,0s4.3,2.1,5.9,1.7S467,77,467,77l0,0
				l-26.4,4.2l-12.4-1.5c-0.2,0.1-0.4,0.1-0.7,0.1L427,80.6z"/>
			<path id="XMLID_208_" class="st29" d="M461.5,73.2c0,0-15.4,6.1-24.2,7.1c0,0,0.7,6.5,5.7,8.9c0,0,19.6-6.2,25.6-12.3L461.5,73.2
				z"/>
			<path id="XMLID_204_" class="st29" d="M437.3,80.2c0,0-3.8-0.6-7.4-3.8l-2.9,4.8c0,0,0.6,3.9,3.6,6.2
				C430.6,87.4,436.1,85.4,437.3,80.2z"/>
			<g id="XMLID_177_">
				<path id="XMLID_189_" class="st27" d="M413.2,162.4c-1.5,5.5-4.9,10.5-8.1,9.8s-4.2-10.2-3.5-12
					C402.1,158.4,413.2,162.4,413.2,162.4z"/>
				<path id="XMLID_188_" class="st29" d="M389.4,151.4c-2.7-0.3-5.8,1.4-8,1.8c-2.3,0.4-4.1,0.3-4.1,0.8s0.2,3,2.8,3.3
					c2.6,0.3,7.4-1.7,7.4-1.7L389.4,151.4z"/>
				<g id="XMLID_178_">
					<path id="XMLID_187_" class="st11" d="M407,156.8c-3.3-1.8-8.8-4-10.5-5.3c-1.6-1.2-4.1-1.6-7.1-0.8c-3,0.9-7.3,2.6-9.2,4.3
						c-1.5,1.3-4.8,3.5-6,5.3c-1.1,1.6-2.4,3-2.5,3.6c-0.3,1.3,1.5,2.1,2.6,1.5c0.6-0.3,2.4-1.7,3.8-3.2c1.1-1.1,4.9-3,5.2-3.2
						c0,0-0.4,1.6,1.5,2.2c1.7,0.6,2.4-0.2,2.4-0.2s-0.1,1.3,1.4,1.9c1.4,0.6,3-0.3,3-0.3s0.1,2,2.2,2.3s3.8,0,6.6,0.6
						c2.8,0.7,7.4,0,7.4,0L407,156.8z"/>
					<path id="XMLID_186_" class="st27" d="M380.8,161.4c0.8-1.4,3.4-3.6,6.2-4.9"/>
					<path id="XMLID_185_" class="st27" d="M384.2,164.4c0.8-1.4,3.4-3.6,6.2-4.9"/>
					<path id="XMLID_184_" class="st27" d="M387.6,166.5c0.8-1.4,2.7-2.5,5.4-3.9"/>
				</g>
			</g>
			<g id="XMLID_173_">
				<path id="XMLID_176_" class="st27" d="M497.9,90.1c-2.2-4.7-29.9,17.4-28.3,25.7c2.1,11.4,3,24.4,4.8,39.4
					c0.4,3.8,0.5,11.3,0.5,11.3c-0.7,0.7-1-0.5-2,0c-1.3,0.6-1.4,0.9-3,0.4c-5-1.5-20.5-4.4-31.8-5.9c-23.2-3.2-26.1-4.8-31.7-5.3
					c0,0,2.3,9.4-1.3,16.5c0,0,33.3,11.9,73.5,18.4c21,3.4,20.3-5.8,22.4-13.7s3.1-33,1.2-50.3C500.4,109.2,501,96.5,497.9,90.1z"/>
				<path id="XMLID_175_" class="st28" d="M406.9,164.8c3,1.7,4.9,2.9,6.5,5c2.4,3.2,11.4,6.6,26,10.2c11.2,2.8,29.2,8,37,10.3
					c-39.2-6.6-71.3-18.1-71.3-18.1C406.2,169.9,406.7,167.2,406.9,164.8z"/>
				<path id="XMLID_174_" class="st28" d="M469.8,166.9c1.6,0.5,1.7,0.2,3-0.4c1-0.4,1.3,0.7,2,0c0,0,0-7.6-0.5-11.3
					c-0.6-5.2-1.1-10.1-1.6-14.7c1.7,2.7,8.1,22.6,9.1,25.3c1.6,4.2,7.9,8.9,4.7,8.5c-3.1-0.4-8.6-4.2-8.6-2.9s-0.6,3.9-4,1.1
					C470.5,169.8,466.6,166,469.8,166.9z"/>
			</g>
			<path id="XMLID_172_" class="st30" d="M266.9,264.9l-7.6,12.9c0,0,7,4.8,16.3,7.3l7.6-14.4L266.9,264.9z"/>
			<path id="XMLID_171_" class="st31" d="M264.2,272.1c-0.4-0.2-0.8-0.3-1.2-0.5l3.9-6.7l16.3,5.9l-4,7.5
				C274.3,276.6,268.8,274,264.2,272.1z"/>
			<path id="XMLID_170_" class="st17" d="M267.4,266.8c0,0,11.9,9.4,26.3,11.4c0,0,33.9-61.8,40-70.9c0,0,3,0.3,4.1-1.8
				c0,0,0.6,2.8,4.5,2.3s8.2,1,8.2,1s97.3,2.8,108.1,3.8c10.8,1,11.9-20,11.9-20c-6.8-1.3-23.8-5.1-39.2-8.5
				c-8.2-1.8-16-3.4-21.6-4.5c-16.1-3.1-65.7-13.2-78.4-11.4s-22.7,8.2-27.4,16.8c-1.4,2.6-5.4,11.3-10.2,22
				C282.8,231.4,267.4,266.8,267.4,266.8z"/>
			<path id="XMLID_169_" class="st32" d="M290.4,207.4c8.2-7.6,21-23.6,27-24.6c6-1.1,40.5-2.8,62-2.7c18.7,0.1,35,2.3,48.6,4.4
				c-8.2-1.8-16-3.4-21.6-4.5c-16.1-3.1-65.7-13.2-78.4-11.4s-22.7,8.2-27.4,16.8C299.1,188,295.2,196.7,290.4,207.4z"/>
			<path id="XMLID_168_" class="st16" d="M261.8,273.6c0,0-5.7,1.4-16.4,0c0,0,9,12,15,14.3s10.8,5.4,10.8,5.4l7.2-13.5L261.8,273.6
				z"/>
			<path id="XMLID_167_" class="st33" d="M211.8,273.3c1.5-0.8,1.9-4.3,4-4.4c5.1-0.3,10.5,1,18.4,2.5c4.8,0.9,15.8,2,20.6,2.5
				c6.1,8.2,11.1,9.1,21.2,13.2l-7.3,17.5l-10.9-4.9l0.7-3.9l-10.1-0.4C237.3,290.3,211.8,273.3,211.8,273.3z"/>
			<g id="XMLID_125_">
				<g id="XMLID_161_">
					<path id="XMLID_164_" class="st15" d="M353,172.7h-68.6c-1,0-2.1-0.7-2.3-1.6l-16.5-53.8c-0.3-0.9,0.3-1.6,1.3-1.6h68.6
						c1,0,2.1,0.7,2.3,1.6l16.5,53.8C354.6,172,354,172.7,353,172.7z"/>
				</g>
				<path id="XMLID_160_" class="st34" d="M311.5,149.2h-7c-1.1,0-2.4-0.8-2.7-1.9l-1.3-3.7c-0.4-1,0.3-1.9,1.4-1.9h7
					c1.1,0,2.4,0.8,2.7,1.9l1.3,3.7C313.3,148.3,312.7,149.2,311.5,149.2z"/>
			</g>
			<g id="XMLID_112_">
				<g id="XMLID_118_">
					<path id="XMLID_122_" class="st30" d="M299.8,296.4l-1.4,14.6c0,0,8.6,1.9,18.2,1l0.7-15.9L299.8,296.4z"/>
					<path id="XMLID_121_" class="st16" d="M298.9,306.2c0,0-4.6,3.3-15,5.8c0,0,13.5,7.8,20,7.8s12.3,1.1,12.3,1.1l0.8-15
						L298.9,306.2z"/>
					<path id="XMLID_120_" class="st33" d="M251.2,327.6c-0.2-1.5-0.3-5.7,1.5-6.6c4.2-2.2,7.6-2.3,18.6-5.8
						c4.7-1.5,15.7-5.5,20.4-6.9c9.7,5.2,14.7,4,26.2,3.9l0.8,19.3l-11.5-0.2l-0.1-4.4l-10.8,4.2
						C283.5,330.5,251.2,327.6,251.2,327.6z"/>
					<path id="XMLID_119_" class="st17" d="M310.9,310c-4.1-0.9-8.2-2-12.1-3.4l1-10.2l17.6-0.4l-0.7,14.9
						C314.8,310.7,312.9,310.4,310.9,310z"/>
				</g>
				<path id="XMLID_117_" class="st31" d="M393.6,210.2c0,0-18.9-6.1-29.9-8.4c-11-2.4-29.2-10-33-9.5c-3.8,0.4-13.7,0-16.8,13.9
					c-3.1,13.9-16.3,95.6-16.3,95.6s18,8.6,28.6,6.8l24.4-96.6L393.6,210.2z"/>
			</g>
		</g>
		<polygon class="st15" points="283.9,172.1 408.1,177.4 408.1,172.1 		"/>
	</g>
	<path class="st35" d="M146.7,136.6l0.1,2.2l0.1,10.1c0,0-12.8,3.5-22.8,6l-1.6-15.8L146.7,136.6z"/>
</g>
<g>
	<g>
		<g>
			<rect x="437.7" y="131.8" class="st36" width="33.9" height="23.6"/>
			<rect x="437.7" y="131.8" class="st37" width="33.9" height="5.9"/>
			<path class="st7" d="M478,156.9c-0.1-0.8-0.7-1.5-1.6-1.5h-43.6c-0.8,0-1.5,0.7-1.6,1.5H478z"/>
		</g>
		<g>
			<g>
				<path class="st36" d="M531,131.8H380.1c-2.7,0-4.8-2.2-4.8-4.8V30.3c0-2.7,2.2-4.8,4.8-4.8H531c2.7,0,4.8,2.2,4.8,4.8V127
					C535.8,129.7,533.6,131.8,531,131.8z"/>
				<path class="st38" d="M375.2,114.8V125c0,3.8,3.1,6.9,6.9,6.9h146.8c3.8,0,6.9-3.1,6.9-6.9v-10.2
					C535.8,114.8,375.2,114.8,375.2,114.8z"/>
				<path class="st16" d="M528.4,110.8H382.6c-1.2,0-2.2-1-2.2-2.2V34.2c0-1.2,1-2.2,2.2-2.2h145.8c1.2,0,2.2,1,2.2,2.2v74.4
					C530.6,109.8,529.6,110.8,528.4,110.8z"/>
				<circle class="st7" cx="455.5" cy="123.3" r="3.7"/>
			</g>
			<g>
				<g>
					<polygon class="st39" points="434.2,94.3 434.5,93.1 436.3,94.8 433.9,95.6 					"/>
					<polygon class="st40" points="424.2,102.5 426.7,102.1 425.7,104.5 					"/>
					<polygon class="st41" points="425.7,81.4 427.5,79.7 428.1,82.2 					"/>
					<polygon class="st42" points="411.3,93.2 413.3,91.7 413.6,94.3 					"/>
					<path class="st41" d="M431.7,86.1c-1.8-2.4-4.6-3.9-7.8-3.9c-1.2,0-2.3,0.2-3.4,0.6l3.4,9.1L431.7,86.1z"/>
					<path class="st42" d="M420.6,82.8c-3.7,1.4-6.3,4.9-6.3,9.1c0,4.9,3.6,9,8.4,9.6l1.3-9.6L420.6,82.8z"/>
					<path class="st43" d="M433.6,91.9c0-2.2-0.7-4.2-1.9-5.8l-7.8,5.8l3.7,9C431.2,99.4,433.6,95.9,433.6,91.9"/>
					<path class="st40" d="M423.9,91.9l-1.3,9.6c0.4,0.1,0.9,0.1,1.3,0.1c1.3,0,2.6-0.3,3.7-0.7L423.9,91.9z"/>
				</g>
				<g>
					<g>
						<path class="st44" d="M488.7,45.1c-1.1,0-2.2,0.2-3.2,0.6l0.3,0.8l0.3,0.8c0.8-0.3,1.7-0.5,2.7-0.5c2.5,0,4.8,1.2,6.2,3.1
							l0.6-0.5l0.7-0.5C494.6,46.6,491.8,45.1,488.7,45.1"/>
					</g>
					<g>
						<path class="st43" d="M492,62.4l-0.3-0.7c-0.9,0.4-1.9,0.6-2.9,0.6c-0.4,0-0.7,0-1-0.1l-0.1,0.8l-0.1,0.9
							c0.4,0.1,0.8,0.1,1.3,0.1c1.3,0,2.5-0.3,3.6-0.7L492,62.4z"/>
					</g>
					<g>
						<path class="st2" d="M481.8,54.5c0-3,1.9-5.5,4.5-6.5l-0.3-0.7l-0.3-0.8l-0.3-0.8l-0.3-0.9c-4,1.5-6.8,5.3-6.8,9.7
							c0,5.2,3.9,9.6,8.9,10.3l0.1-1l0.1-0.9l0.1-0.8l0.1-0.7C484.4,60.9,481.8,58,481.8,54.5"/>
					</g>
					<g>
						<path class="st2" d="M497.1,48.4l-0.8,0.6l-0.7,0.5L495,50l-0.6,0.4c0.9,1.2,1.4,2.6,1.4,4.1c0,2.9-1.8,5.4-4.3,6.4l0.3,0.7
							l0.3,0.7l0.3,0.8l0.4,0.9c3.8-1.6,6.4-5.3,6.4-9.6C499.1,52.2,498.3,50.1,497.1,48.4"/>
					</g>
					<g>
						<path class="st41" d="M504.2,54.2c-0.3,0-0.5,0-0.7,0.2c-0.3,0.3-0.7,0.4-1.1,0.4H497v0.4h5.4c0.4,0,0.8,0.2,1.1,0.4
							c0.1,0.1,0.3,0.2,0.5,0.2c0.5,0,0.9-0.5,0.8-1C504.8,54.5,504.6,54.2,504.2,54.2"/>
					</g>
					<g>
						<path class="st42" d="M482.1,61.5l-0.3-0.2l-3,3.5c-0.3,0.3-0.6,0.5-1.1,0.5h-3.3c-0.4,0-0.8-0.2-1.1-0.4
							c-0.2-0.2-0.4-0.2-0.7-0.2c-0.3,0.1-0.6,0.3-0.7,0.6c-0.1,0.5,0.3,1,0.8,1c0.2,0,0.4-0.1,0.5-0.2c0.3-0.3,0.7-0.4,1.1-0.4h3.5
							c0.4,0,0.8-0.2,1.1-0.5L482.1,61.5z"/>
					</g>
					<g>
						<path class="st40" d="M491.7,46.1l0.3,0.2l1.4-3.2c0.2-0.5,0.7-0.8,1.3-0.8h4.6c0.4,0,0.8,0.2,1.1,0.4
							c0.2,0.2,0.4,0.2,0.7,0.2c0.3-0.1,0.6-0.3,0.7-0.6c0.1-0.5-0.3-1-0.8-1c-0.2,0-0.4,0.1-0.5,0.2c-0.3,0.3-0.7,0.4-1.1,0.4h-4.9
							c-0.5,0-1,0.3-1.3,0.8L491.7,46.1z"/>
					</g>
					<g>
						<path class="st43" d="M490,63.6l0.3-0.2l0.6,2.9c0.1,0.6,0.7,1.1,1.4,1.1h2.6c0.4,0,0.8-0.2,1.1-0.4c0.2-0.2,0.4-0.2,0.7-0.2
							c0.3,0.1,0.6,0.3,0.7,0.6c0.1,0.5-0.3,1-0.8,1c-0.2,0-0.4-0.1-0.5-0.2c-0.3-0.3-0.7-0.4-1.1-0.4h-3c-0.6,0-1.2-0.5-1.4-1.1
							L490,63.6z"/>
					</g>
				</g>
				<g>
					<g>
						<g>
							<path class="st45" d="M481.9,105.1v-21c0-1.3-1.1-2.4-2.4-2.4l0,0c-1.3,0-2.4,1.1-2.4,2.4v21H481.9z"/>
						</g>
						<g>
							<path class="st46" d="M479.4,81.8c-1.3,0-2.4,1.1-2.4,2.4v21h2.4V81.8z"/>
						</g>
					</g>
					<g>
						<g>
							<path class="st47" d="M488.3,105.1V89.6c0-1.3-1.1-2.4-2.4-2.4l0,0c-1.3,0-2.4,1.1-2.4,2.4v15.5H488.3z"/>
						</g>
						<g>
							<path class="st48" d="M485.9,87.2c-1.3,0-2.4,1.1-2.4,2.4v15.5h2.4V87.2z"/>
						</g>
					</g>
					<g>
						<g>
							<path class="st49" d="M494.8,105.1v-10c0-1.3-1.1-2.4-2.4-2.4l0,0c-1.3,0-2.4,1.1-2.4,2.4v10H494.8z"/>
						</g>
						<g>
							<path class="st50" d="M492.2,92.7c-1.3,0-2.3,1.1-2.3,2.4v10h2.3V92.7z"/>
						</g>
					</g>
					<g>
						<g>
							<path class="st41" d="M501.2,105.1v-5.5c0-1.3-1.1-2.4-2.4-2.4l0,0c-1.3,0-2.4,1.1-2.4,2.4v5.5H501.2z"/>
						</g>
						<g>
							<path class="st51" d="M498.8,97.3L498.8,97.3L498.8,97.3c-1.4,0-2.4,1.1-2.4,2.4v5.5h2.4V97.3z"/>
						</g>
					</g>
					<g>
						<g>
							<g>
								<rect x="472.8" y="104.5" class="st52" width="2" height="0.5"/>
							</g>
							<g>
								<rect x="472.8" y="102" class="st52" width="2" height="0.5"/>
							</g>
							<g>
								<rect x="472.8" y="99.5" class="st52" width="2" height="0.5"/>
							</g>
							<g>
								<rect x="472.8" y="97" class="st52" width="2" height="0.5"/>
							</g>
							<g>
								<rect x="472.8" y="94.5" class="st52" width="2" height="0.5"/>
							</g>
							<g>
								<rect x="472.8" y="92" class="st52" width="2" height="0.5"/>
							</g>
							<g>
								<rect x="472.8" y="89.5" class="st52" width="2" height="0.5"/>
							</g>
							<g>
								<rect x="472.8" y="86.9" class="st52" width="2" height="0.5"/>
							</g>
							<g>
								<rect x="472.8" y="84.4" class="st52" width="2" height="0.5"/>
							</g>
							<g>
								<rect x="472.8" y="81.9" class="st52" width="2" height="0.5"/>
							</g>
							<g>
								<rect x="472.8" y="79.4" class="st52" width="2" height="0.5"/>
							</g>
						</g>
					</g>
					<g>
						<path class="st52" d="M503.9,105.3h-28c-0.1,0-0.2-0.1-0.2-0.2V79c0-0.1,0.1-0.2,0.2-0.2s0.2,0.1,0.2,0.2v26H504
							c0.1,0,0.2,0.1,0.2,0.2S504,105.3,503.9,105.3z"/>
					</g>
				</g>
				<g>
					<path class="st36" d="M447.6,72.2H400c-1.9,0-3.4-1.5-3.4-3.4V40.9c0-1.9,1.5-3.4,3.4-3.4h47.6c1.9,0,3.4,1.5,3.4,3.4v27.9
						C451,70.6,449.5,72.2,447.6,72.2z"/>
					<g>
						<g>
							<defs>
								<path id="SVGID_9_" d="M447.6,72.2H400c-1.9,0-3.4-1.5-3.4-3.4V40.9c0-1.9,1.5-3.4,3.4-3.4h47.6c1.9,0,3.4,1.5,3.4,3.4v27.9
									C451,70.6,449.5,72.2,447.6,72.2z"/>
							</defs>
							<clipPath id="SVGID_10_">
								<use xlink:href="#SVGID_9_"  style="overflow:visible;"/>
							</clipPath>
							<g class="st53">
								<polygon class="st2" points="407.2,65.5 405.6,62.9 393.8,64.6 393.7,64 406,62.3 407.4,64.6 427.2,52.5 429.4,53.6 
									431.3,51.8 435.6,58.1 444.1,43.2 452.5,50 452.2,50.4 444.2,44.1 435.7,59.2 431.2,52.8 429.5,54.3 427.2,53.2 								"/>
							</g>
						</g>
					</g>
				</g>
			</g>
		</g>
	</g>
	<g>
		<g>
			<path class="st44" d="M522.5,146.9c-5.6,0-12,0.1-17.9-0.7c-1-7-0.3-20.2-0.3-20.2v-3.5h25.4v3.5c0,0-0.9,13,0.5,16.2
				C530.2,142.5,524,146.7,522.5,146.9z"/>
			<path class="st54" d="M525.2,142.5c-0.2,1.1-1.6,3.6-2.7,4.4c1.5-0.2,7.7-4.4,7.7-4.6C529,143,526.3,142.3,525.2,142.5z"/>
			<path class="st55" d="M526.1,142c0.1,1.3-2.4,4.1-3.6,4.9c1.5-0.2,7.7-4.4,7.7-4.6C529.1,142,527.5,142,526.1,142z"/>
			<rect x="504.3" y="122.6" class="st55" width="25.4" height="3.5"/>
		</g>
		<g>
			<path class="st51" d="M512.2,139.2c0,0-0.2,0-0.5,0l-0.1-3c0,0,0.1-0.1,0.2-0.1h0.2c0.1,0,0.1,0,0.2-0.1s0.1-0.1,0.1-0.2
				c0-0.1,0-0.1-0.1-0.2s-0.1-0.1-0.2-0.1c-0.1,0-0.2,0-0.3,0.1c-0.1,0-0.1,0-0.1,0c0-0.1,0-0.3,0-0.5s0-0.4,0-0.6l-0.1-1.6h0.1h0.3
				c0.3,0,0.4-0.1,0.4-0.3c0-0.1-0.1-0.2-0.2-0.2c-0.1-0.1-0.2-0.1-0.3-0.1l-0.7,0.1c-0.1,0.1-0.1,0.2-0.2,0.3l0,0
				c0,0.1,0,0.3,0.1,0.5c0,0.2,0.1,0.4,0.1,0.5l0.1,5.7c0,0.1,0,0.1,0,0.2c0.1,0.1,0.2,0.1,0.5,0.1h0.3c0.1,0,0.2,0,0.3,0
				c0.1,0,0.2,0,0.3-0.1s0.2-0.1,0.2-0.2l0,0C512.8,139.2,512.6,139.1,512.2,139.2z"/>
			<path class="st51" d="M514.7,136.3h-1.5c-0.1,0-0.1,0-0.2,0.1s-0.1,0.1-0.1,0.2c0,0.1,0.1,0.2,0.4,0.2h2.1c0.1,0,0.1,0,0.2-0.1
				c0,0,0.1-0.1,0.1-0.2C515.7,136.4,515.4,136.3,514.7,136.3z"/>
			<path class="st51" d="M515.1,135.2l-1.9,0.2c-0.1,0-0.1,0-0.2,0.1c0,0-0.1,0.1-0.1,0.2c0,0.2,0.2,0.3,0.6,0.3h0.4l0,0
				c0.2,0,0.5-0.1,0.8-0.1c0.7,0,1-0.1,1-0.3C515.9,135.3,515.6,135.2,515.1,135.2z"/>
			<path class="st51" d="M519.4,132.2c0-0.1,0-0.1-0.1-0.2c0-0.1-0.1-0.1-0.2-0.1c-0.1,0-0.1,0-0.2,0.1c-0.1,0.1-0.1,0.1-0.1,0.2
				v0.1c0,0.7-0.1,1.5-0.3,2.3c-0.1,0.3-0.1,0.7-0.2,1.3c-0.1,0.5-0.2,0.9-0.2,1.1c0-0.1-0.1-0.4-0.2-1.1c-0.1-0.7-0.3-1.4-0.5-2.2
				c-0.3-1-0.5-1.5-0.7-1.5l-0.3,0.2c0,0.4,0,0.8,0,1.3l0.1,3.8v1.6c0,0.2,0,0.3,0.1,0.4c0.1,0.1,0.2,0.2,0.3,0.2
				c0.1-0.1,0.1-0.2,0.1-0.4l-0.2-4c0-0.3,0-0.7,0-1.2c0,0.2,0.1,0.6,0.3,1.1c0.3,1.1,0.5,1.9,0.5,2.5s0.1,0.9,0.4,0.9
				c0.1,0,0.2-0.1,0.3-0.2c0-0.1,0-0.1,0.1-0.2c0-0.1,0-0.1,0-0.2c0-0.1,0-0.2,0-0.2v-0.1c0-0.3,0.1-0.8,0.3-1.4
				c0.1-0.6,0.2-1.1,0.3-1.3v0.5l0.1,4.1c0,0.3,0.1,0.4,0.2,0.4c0.1,0,0.2-0.1,0.2-0.2c0.1-0.1,0.1-0.3,0.1-0.4
				c0-0.8-0.1-1.9-0.2-3.5C519.5,134.1,519.4,133,519.4,132.2z"/>
			<path class="st51" d="M522.4,138.8c-0.2,0.1-0.3,0.2-0.4,0.2c-0.3,0-0.5-0.1-0.6-0.3c-0.1-0.1-0.1-0.2-0.2-0.4
				c-0.1-0.1-0.1-0.3-0.1-0.5s-0.1-0.4-0.1-0.7c0-0.2-0.1-0.7-0.1-1.5v-0.2l0.1-0.7V134c0-0.5,0-0.9,0.2-1.1
				c0.1-0.2,0.4-0.4,0.8-0.4h0.1l0,0c0,0.1,0.1,0.1,0.3,0.1c0.1,0,0.2,0,0.3-0.1c0.1,0,0.1-0.1,0.1-0.2c0-0.1-0.1-0.3-0.2-0.3
				c-0.2-0.1-0.3-0.1-0.5-0.1c-0.4,0-0.8,0.1-1.1,0.4c-0.3,0.2-0.4,0.6-0.4,1c0,0.1,0,0.2,0,0.3c0,0.2-0.1,0.5,0,0.9v1.2
				c0,0.6,0.1,1.1,0.1,1.5c0,0.3,0.1,0.5,0.1,0.7s0.1,0.4,0.2,0.6c0.1,0.2,0.2,0.4,0.3,0.5s0.2,0.2,0.4,0.3s0.3,0.1,0.6,0.1
				c0.2,0,0.4,0,0.6-0.1c0.4-0.1,0.5-0.4,0.5-0.7c-0.1-0.1-0.2-0.1-0.3-0.1C522.7,138.6,522.5,138.7,522.4,138.8z"/>
			<path class="st51" d="M525.4,133.4L525.4,133.4L525.4,133.4c-0.2,0-0.3,0-0.5,0.1c0-0.1,0.2-0.9,0.3-1.1c0-0.2,0.1-0.5,0.1-0.7
				c0-0.3,0-0.5,0-0.7s0-0.3-0.1-0.4c0-0.1,0-0.1,0-0.2c0,0,0-0.1-0.1-0.2c0-0.1-0.1-0.2-0.2-0.3c-0.1-0.1-0.3-0.2-0.4-0.2h-0.1
				h-0.1l0,0c-0.1,0-0.1,0.1-0.1,0.1c-0.1,0.1-0.1,0.3-0.1,0.5s0.2,0.3,0.3,0.3l0,0c0.1,0,0.3-0.1,0.3-0.4c0,0.1,0.1,0.2,0.1,0.4
				c0.1,0.4,0.1,0.8,0,1.1c0,0.4-0.1,0.8-0.3,1.2c0,0,0,0.1-0.1,0.3c0,0.1-0.1,0.2-0.1,0.3v0.1v0.1c0,0.1,0.1,0.2,0.2,0.2
				c0.1,0,0.1,0,0.2,0h0.1l0.8-0.2l0,0c0.1-0.1,0.1-0.2,0.1-0.3C525.6,133.5,525.4,133.4,525.4,133.4z"/>
		</g>
	</g>
</g>
<rect x="332.9" y="158" class="st36" width="235.6" height="12.3"/>
<g>
	<linearGradient id="SVGID_11_" gradientUnits="userSpaceOnUse" x1="90.3288" y1="184.2292" x2="299.9531" y2="184.2292">
		<stop  offset="0" style="stop-color:#478DFF"/>
		<stop  offset="1" style="stop-color:#00157E"/>
	</linearGradient>
	<path class="st56" d="M231.3,128.8c0,0-67.2-4-67.1,39.8c0,0-63.1,0.3-71.8,21.5C80,219.8,123,255.5,228.9,232.3
		c0,0,33.5-19.9,53.1-24.8c22.2-5.6,32.1-57.4-20.4-37.6"/>
	
		<linearGradient id="SVGID_12_" gradientUnits="userSpaceOnUse" x1="-55.7725" y1="364.2365" x2="-57.1514" y2="363.5976" gradientTransform="matrix(32.8 0 0 18.697 2187.876 -6589.4878)">
		<stop  offset="0" style="stop-color:#F2F4F7;stop-opacity:0"/>
		<stop  offset="9.680000e-02" style="stop-color:#ECF0F5;stop-opacity:3.900000e-02"/>
		<stop  offset="0.2259" style="stop-color:#DBE3F0;stop-opacity:9.000000e-02"/>
		<stop  offset="0.3732" style="stop-color:#BFCFE9;stop-opacity:0.149"/>
		<stop  offset="0.5341" style="stop-color:#99B3DD;stop-opacity:0.214"/>
		<stop  offset="0.706" style="stop-color:#678FCF;stop-opacity:0.282"/>
		<stop  offset="0.8843" style="stop-color:#2B63BE;stop-opacity:0.354"/>
		<stop  offset="1" style="stop-color:#0044B2;stop-opacity:0.4"/>
	</linearGradient>
	<path class="st57" d="M315.9,219.2c0,0,15,12.4,34.1,4.1l1-17.1L315.9,219.2"/>
	
		<linearGradient id="SVGID_13_" gradientUnits="userSpaceOnUse" x1="-74.6416" y1="367.9489" x2="-76.3549" y2="367.4398" gradientTransform="matrix(44.8561 0 0 40.8 3572.4109 -14853.499)">
		<stop  offset="0.144" style="stop-color:#F2F4F7;stop-opacity:0"/>
		<stop  offset="0.2586" style="stop-color:#D8E1F0;stop-opacity:5.400000e-02"/>
		<stop  offset="0.5038" style="stop-color:#96B1DD;stop-opacity:0.168"/>
		<stop  offset="0.8574" style="stop-color:#2C64BF;stop-opacity:0.333"/>
		<stop  offset="1" style="stop-color:#0044B2;stop-opacity:0.4"/>
	</linearGradient>
	<path class="st58" d="M164.2,168.7c0,0-3.7-32.4,47.9-39.3l-8.4,43.6C203.5,173,174.3,168.3,164.2,168.7z"/>
	
		<linearGradient id="SVGID_14_" gradientUnits="userSpaceOnUse" x1="-55.3736" y1="367.7457" x2="-53.5482" y2="366.7759" gradientTransform="matrix(32.6963 0 0 35 1970.1038 -12702.4277)">
		<stop  offset="0" style="stop-color:#F2F4F7;stop-opacity:0"/>
		<stop  offset="8.840000e-02" style="stop-color:#E8EDF4;stop-opacity:3.500000e-02"/>
		<stop  offset="0.2372" style="stop-color:#CEDAED;stop-opacity:9.500000e-02"/>
		<stop  offset="0.4281" style="stop-color:#A3BBE1;stop-opacity:0.171"/>
		<stop  offset="0.6537" style="stop-color:#6890D0;stop-opacity:0.262"/>
		<stop  offset="0.9058" style="stop-color:#1E5ABA;stop-opacity:0.362"/>
		<stop  offset="1" style="stop-color:#0044B2;stop-opacity:0.4"/>
	</linearGradient>
	<path class="st59" d="M188.1,170.1c0,0,16-14.4,8.6-15.5s-16.6,0-16.6,0s25.3-17.7,17.5-21.9c0,0-29.4,2.4-33.5,35.9
		C164.2,168.7,182.3,169.3,188.1,170.1z"/>
	
		<linearGradient id="SVGID_15_" gradientUnits="userSpaceOnUse" x1="-75.2053" y1="365.7321" x2="-73.5688" y2="363.8194" gradientTransform="matrix(44.1291 0 0 21.473 3438.2617 -7658.6172)">
		<stop  offset="0" style="stop-color:#F2F4F7;stop-opacity:0"/>
		<stop  offset="8.840000e-02" style="stop-color:#E8EDF4;stop-opacity:3.500000e-02"/>
		<stop  offset="0.2372" style="stop-color:#CEDAED;stop-opacity:9.500000e-02"/>
		<stop  offset="0.4281" style="stop-color:#A3BBE1;stop-opacity:0.171"/>
		<stop  offset="0.6537" style="stop-color:#6890D0;stop-opacity:0.262"/>
		<stop  offset="0.9058" style="stop-color:#1E5ABA;stop-opacity:0.362"/>
		<stop  offset="1" style="stop-color:#0044B2;stop-opacity:0.4"/>
	</linearGradient>
	<path class="st60" d="M123.1,192.2c0,0,18.4-8.2,28-9.1c0,0,21.1-3.1,19-9.1c0,0-1.6-7.2-26.1-4"/>
	<linearGradient id="SVGID_16_" gradientUnits="userSpaceOnUse" x1="176.8229" y1="255.2137" x2="381.9482" y2="255.2137">
		<stop  offset="0" style="stop-color:#478DFF"/>
		<stop  offset="1" style="stop-color:#00157E"/>
	</linearGradient>
	<path class="st61" d="M295.2,221.5c-4.6,3.2-45.2-32.2-84-13.7c-31.9,15.2-42.5,45.7-28,67.6c3.3,4.9,7.9,9.3,13.7,13
		c34,21.5,83.1,20.8,101.1,18.5C454.2,288,355.8,179,295.2,221.5L295.2,221.5z"/>
	
		<linearGradient id="SVGID_17_" gradientUnits="userSpaceOnUse" x1="95.127" y1="348.1462" x2="95.5093" y2="350.0058" gradientTransform="matrix(11.0384 0 0 5.7 -933.3037 -1799.0732)">
		<stop  offset="0" style="stop-color:#E6E6E6;stop-opacity:0"/>
		<stop  offset="0.1758" style="stop-color:#A7BAD8;stop-opacity:0.119"/>
		<stop  offset="0.3601" style="stop-color:#6C90CA;stop-opacity:0.244"/>
		<stop  offset="0.53" style="stop-color:#3D6FC0;stop-opacity:0.359"/>
		<stop  offset="0.6797" style="stop-color:#1C58B8;stop-opacity:0.46"/>
		<stop  offset="0.8035" style="stop-color:#0749B4;stop-opacity:0.544"/>
		<stop  offset="0.8861" style="stop-color:#0044B2;stop-opacity:0.6"/>
	</linearGradient>
	<path class="st62" d="M104.7,188.7c0,0-2.1,6.8,12.6,6.8c14.6,0,15.7-4.8,15.7-4.8"/>
</g>
<g>
	<g>
		<path class="st38" d="M381.2,188.8c7.1,1,13.6,3.4,20.2,5.4c3.5,1.1,6.7,2.8,10,4.4c6.7,3.3,7.4,8.2,5.4,12.7
			c-3.2,7.3,0.5,13.3,3.5,19.7c2.9,6.2,4.8,12.6,7.3,18.9c4.6,11.4,8.6,22.9,14.4,33.9c0.6,4.2,3.3,8,4.9,12
			c3,7.2,6.3,14.4,9.4,21.6c-3.6,3.7-5.9,3.9-11.2,0.7c-4.6-4.2-7.6-9.2-11.3-13.8c-6.3-7.8-12.2-15.9-18.3-23.8
			c-5.9-7.8-11.7-15.6-17.3-24c-3.4,3.3-4.9,7.2-7.2,10.6c-4.7,7.2-9.3,14.6-13.5,22c-5.5,9.7-11.1,19.4-15.5,29.5
			c-0.8,1.8-0.5,3.7-0.7,5.5c-4.2,3.5-5.5,3.8-9.4,2.1c-0.9-0.4-1.7-0.9-2.6-1.4c0.9-6.2,2.1-12.4,3.5-18.5c1.6-7.5,3-15,4.5-22.5
			c2.2-2.5,1.3-5.4,1.9-8c2.1-8.4,3.9-16.9,6.1-25.4c2.1-8.2,4-16.5,9.7-23.8c0.9-1.2,2.9-3.3,0.1-4.6c-1.5-0.7-2.8-1.5-4.3-2.1
			c-3.6-1.4-7.1-2.8-11.3-2.4c-0.7,0-1.4-0.1-2-0.1C365,207.6,373.2,198.3,381.2,188.8z"/>
		<path class="st13" d="M445.1,318.1c5.3,3.2,7.6,3.1,11.2-0.7c5.6,2.4,11.6,4.1,17.1,7.6c-2.7,0.8-4.8,0.3-6.8,0.4
			c-5.7,0.2-11.4,0.4-17.1,0.5c-2,0-4.8,0.5-5.5-1.5C443.4,322.3,442.5,319.9,445.1,318.1z"/>
		<path class="st13" d="M349.4,324.8c0.9,0.5,1.7,1,2.6,1.4c3.8,1.7,5.2,1.4,9.4-2.1c2.5,0.2,3.6,2.1,5.7,2.8
			c3.9,1.3,7.8,2.6,11.2,4.8c-1,1-2.3,0.6-3.4,0.6c-7.7,0-15.4-0.2-23.1,0c-3.8,0.1-4.7-1.1-3.8-3.7
			C348.4,327.3,348.2,325.9,349.4,324.8z"/>
	</g>
	<path class="st38" d="M323.9,51c0.1-0.5,0.3-1.1,0.4-1.6c0.2-1,0-2.3,1.1-3c2.3-1.3,1.5-2.4,0.9-3.8c-0.3-0.7-0.3-1.5-0.6-2.2
		l-0.9-6.3c0-0.8,0-1.7,0-2.5c0-0.9-0.1-1.7-0.2-2.6c-0.1-0.8-0.2-1.7-0.4-2.5c-0.2-0.9-0.4-1.7-0.6-2.5c-0.1-0.4-0.2-0.8-0.3-1.2
		c-0.1-0.4-0.1-0.8-0.2-1.3c-0.1-0.4-0.2-0.8-0.3-1.2c-0.1-0.4-0.3-0.8-0.6-1.2c-0.1-0.1-0.2-0.2-0.3-0.3
		c-1.7-0.4-6.3,12.9-6.3,12.9C311.9,36,309,37,302.5,36c-3.3-0.5-5.3,0.6-5.8,3.2c-0.3,1.9-0.1,3.8,1.3,5.4c1.1,1.3,1.3,2.7,1.4,4.1
		c0.1,2.1-0.2,4.2-0.6,6.3c-1,6.4-4.2,12.1-9.3,17.2c1.7,0.8,3.4,1.6,5.1,2.4c0.7-2.1,1.4-4.2,2-6.3c1.3-4.3,6.3-6.4,11.1-5.6
		c3.2,0.5,7.3,0.7,9.8-1.2c2.5-2,4.1-4.6,5.1-7.3c0.2-0.4,0.3-0.9,0.5-1.3C323.5,52.2,323.7,51.6,323.9,51z"/>
	<path class="st2" d="M322.8,20.7c0.4-1.1-0.4-1.8-1.3-2.4c-2-1.4-4.3-2.5-6.7-3.6c-1.2-0.5-2.4-1-3.6-1.4c0,0-20.2-6.3-34,0.5
		c-4.9,2.4-8.4,6.2-10.5,10.4c-2.8,5.5-4.5,11.3-7.2,16.9c-2.3,4.7-5.4,8.8-10.4,12.2c-7.4,5-11.3,11.3-10.4,19.1
		c0.3,2.3,1.3,4.4,2.3,6.5c4.8,6.6,12,7.6,22.5,5.9c10.6-1.7,19.3-5.9,26-12.6c5.1-5.1,8.3-10.8,9.3-17.2c0.3-2.1,0.7-4.2,0.6-6.3
		c-0.1-1.4-0.4-2.8-1.4-4.1c-1.4-1.6-1.6-3.5-1.3-5.4c0.4-2.6,2.5-3.7,5.8-3.2c6.5,1,9.4,0,13.1-4.3c2.5-2.9,4.1-6.2,6.2-9.3
		L322.8,20.7z"/>
	<path class="st16" d="M241.2,78.9c4.8,6.6,12,7.6,22.5,5.9c10.6-1.7,19.3-5.9,26-12.6c1.7,0.8,3.4,1.6,5.1,2.4
		c4.8,3,9.1,6.4,13.6,9.7c0.1,0.1,0.3,0.3,0.4,0.4c0.2,0.1,0.3,0.3,0.5,0.4c0.1,0.1,0.2,0.2,0.4,0.2c0.9,0.9,1.7,1.8,2.6,2.7
		c3.8,3.7,7.8,7.1,11.3,11c7.3,8.1,14.2,16.5,21.4,24.7c5.7,6.5,12.3,12.3,20.3,17.1c0.3,0.5,0.6,1,0.8,1.6c1,4.3,1.2,8.5,0.4,12.8
		c-0.9,4.6-3.8,8-9.6,9.6c-3.9,0.7-7.7-0.1-11.3-1.1c-1.7-0.7-3.4-1.4-5-2.1c-4.7-2-8.7-4.7-13.1-7c-0.2-0.2-0.3-0.5-0.5-0.6
		c-4.8-3.2-9.4-6.5-13.6-10.2c-0.5-0.4-0.8-0.2-1.2,0.1c-3.4-2-6.1-4.5-9.2-6.7c-4.9-3.5-8.5-7.5-11.2-12.1c-1-1.7-2.6-3.2-4.2-4.6
		c-0.7-0.6-1.6-1-2.5-0.5c-1,0.6-0.6,1.4-0.1,2c0.5,0.7,1.1,1.4,1.8,2c2,1.8,3,3.9,4,6.1c0.6,1.2,1.2,2.5,2.5,3.4
		c3,2.1,5.5,4.5,9.1,6c3.4,1.4,6,3.8,9.7,5.1c-0.9,2.5-2,4.9-2.4,7.5c-1.4,4.7-2.1,9.4-1.1,14.3c0.2,2,0.6,3.9,2,5.6
		c0.4,1,0.9,2,2.1,2.7c1.3,1.3,2.8,2.6,2.8,4.5c0,0.1,0,0.3,0,0.4c-0.2,0.4-0.3,0.7-0.5,1.1c-1.5,2.2-3.7,4.1-6.2,5.6
		c-6.3,3.9-13.4,6.6-20.8,8.9c-7,2.2-14.1,4.1-21.7,4.6c-0.3,0-0.6,0.1-0.9,0.1c-0.4,0-0.7,0.1-1.1,0.1c-0.2-1-1.3-1.4-2.3-1.7
		c-2.6-0.8-5.2-1.5-8-1.6c-3.4,0-6.1-1-7.8-3.3c-1.4-2-2.1-4.2-2.5-6.4c-1-5.1-1.5-10.3-1.6-15.4c0-6.9,0-13.8,0-20.6
		c0-0.6,0-1.1,0-1.7c1.2-6.9,0.1-13.8,0.7-20.7c0.3-2.9,0-6-0.3-8.9c-0.2-2-0.2-4.1-0.9-6.1c-1.1-3.3-2.9-6.4-3.2-9.9
		c-0.4-5-0.4-10.1,0-15.1c0.1-1.9,1.3-3.7,0.2-5.6C238.9,81.3,239.9,80,241.2,78.9z"/>
	<path class="st63" d="M314.7,178.6c0-1.9-1.5-3.2-2.8-4.6c8,1.7,16.1,3.4,24.1,5c20,4.1,39.9,8.1,59.9,12.2
		c0.3,0.1,0.6,0.1,0.8,0.2v0.1c4,2.1,5.5,5.1,5.6,8.8c0.2,8.8-4,16.5-8.9,24c-1.9,2.9-4.1,5.8-7,8.2c-0.3-0.7,0.2-1.2,0.7-1.7
		c1.9-2.2,1.4-3.1-1.9-3.3c-1.7-0.1-3.4,0-5,0c-3.8,0-7.6,0.2-11.3-0.2c-7.4-0.8-14.8-1.6-22.3-1.7c-9.1-0.1-18.1-0.5-27-2
		c-4.5-0.7-9-1.7-13.5-2.5c-4.3-0.8-8.4-2.4-12.5-3.7c-2.5-0.8-4.8-2-7-3.2c-3.4-1.9-3.7-6.9-0.1-10.2c4-3.6,9.3-5.8,14.2-8.4
		c6.8-3.6,12.1-8.1,14.4-14.6c0.2-0.6-0.2-0.8-0.9-0.9c0.2-0.4,0.3-0.8,0.5-1.1c0.1,0,0.2-0.1,0.2-0.1
		C314.8,178.8,314.8,178.7,314.7,178.6z"/>
	<path class="st13" d="M314.6,180.4c0.7,0.1,1.1,0.3,0.9,0.9c-2.3,6.3-7.6,10.7-14.5,14.2c-4.9,2.6-10.2,4.7-14.3,8.2
		c-3.6,3.2-3.3,8.1,0.1,9.9c2.2,1.2,4.5,2.3,7.1,3.1c4.2,1.3,8.3,2.8,12.6,3.6c4.5,0.8,9,1.8,13.6,2.5c9,1.4,18,1.8,27.2,1.9
		c7.5,0.1,14.9,0.9,22.4,1.6c3.7,0.4,7.5,0.1,11.3,0.2c1.7,0,3.4-0.1,5.1,0c3.4,0.2,3.9,1.1,1.9,3.2c-0.5,0.5-1,1-0.7,1.7l0,0
		c-0.4,0.1-0.6,0.3-0.6,0.6c-2.7,2.8-5.9,4.9-10.8,4.5c-1.8-0.1-3.7,0.1-5.5,0.2c-6.8,0.1-13.5,0.2-20.3,0.3
		c-0.7-1.3-1.9-1.6-3.6-1.6c-8.6-0.2-17.3-0.3-25.9-0.7c-9.6-0.5-19.3-1.3-28.8-2.7c-10.8-1.6-21.6-3.5-31.5-7.5
		c-6-2.4-11.5-5.2-15.2-9.8c-2.9-3.6-4.4-7.6-5.5-11.7c-0.7-2.7-1.7-5.5-1.5-8.3c0.6,0.2,1.1,0.5,1.7,0.7c7.5,3.7,15.6,5.1,24.4,4.2
		c0.4,0,0.7-0.1,1.1-0.1c0.3,0,0.6-0.1,0.9-0.1c7.6-0.6,14.7-2.5,21.7-4.6c7.4-2.3,14.5-5.1,20.8-8.9
		C311,184.4,313.1,182.6,314.6,180.4z"/>
	<path class="st38" d="M263.9,199.8c-8.8,0.9-16.9-0.5-24.4-4.2c-0.5-0.3-1.1-0.5-1.7-0.7c-1.1-3.8-1.3-7.7-1.4-11.5
		c-0.4-10.6-0.2-21.1,0.1-31.7c0.3-8.4,0.6-16.9-0.1-25.3c-0.4-5.4-1.4-10.6-5.8-14.9c1.1-5.2,2.2-10.5,3.4-15.7
		c1.1-4.5,2.2-8.9,4.2-13.2c1.1,1.9,0,3.7-0.2,5.6c-0.3,5.1-0.4,10.1,0,15.1c0.3,3.4,2.1,6.6,3.2,9.9c0.7,2,0.7,4.1,0.9,6.1
		c0.3,3,0.6,6,0.3,8.9c-0.6,6.9,0.5,13.9-0.7,20.7c-0.1,0.6,0,1.1,0,1.7c0,6.9,0,13.8,0,20.6c0,5.2,0.6,10.3,1.6,15.4
		c0.4,2.2,1.1,4.4,2.5,6.4c1.7,2.3,4.4,3.3,7.8,3.3c2.8,0,5.5,0.7,8,1.6C262.6,198.4,263.7,198.8,263.9,199.8z"/>
	<path class="st38" d="M356.8,164.5c5.9-1.6,8.7-5,9.6-9.6c0.9-4.3,0.7-8.6-0.4-12.8c-0.1-0.5-0.5-1-0.8-1.6c1.6-1,3.1,0.2,4.5,0.4
		c7.8,1.2,15.4,3.3,23,5.2c6.7,1.7,13.5,3.4,20.4,4.9c8,1.7,16.4,0.5,24.3,2.7c4.9,1.9,10.2,3.1,15.5,4.1c1.5,0.3,3.4,0.2,4.2,1.7
		c-1.1,0.3-2.3,0.6-3.4,0.9c-5.4,0-10.9,0.1-16.3-0.3c-2.6-0.2-5.3-0.3-7.9,0.1c-0.3,0-0.7,0.1-1,0.1c-0.2-0.2-0.3-0.1-0.4,0
		c-6.9,0.4-13.6,1.9-20.4,2.5c-15.4,1.4-30.8,2.4-46.4,2C359.8,164.9,358.3,164.6,356.8,164.5z"/>
	<path class="st64" d="M428.1,160.4c0.1-0.2,0.3-0.2,0.4,0l-0.2,0.1L428.1,160.4z"/>
	<path class="st65" d="M386.5,232.1c0-0.3,0.2-0.5,0.6-0.6C387.1,231.8,386.9,232,386.5,232.1z"/>
	<path class="st66" d="M327.3,154.3c-5.7,0.5-11.1-0.4-16.3-2.1c-0.5-0.2-1-0.3-1.6-0.4c0.4-2.6,1.4-5,2.4-7.5
		c0.1-0.2,0.1-0.5,0.2-0.7c0.4-0.2,0.7-0.5,1.2-0.1c4.2,3.7,8.9,7,13.6,10.2C327,153.9,327.1,154.1,327.3,154.3z"/>
	<path class="st38" d="M311.9,143.6c-0.1,0.2-0.1,0.5-0.2,0.7c-3.6-1.2-6.2-3.6-9.7-5.1c-3.6-1.5-6.1-3.9-9.1-6
		c-1.3-0.9-1.9-2.2-2.5-3.4c-1.1-2.1-2.1-4.3-4-6.1c-0.7-0.6-1.2-1.3-1.8-2c-0.5-0.7-0.9-1.4,0.1-2s1.8-0.1,2.5,0.5
		c1.6,1.4,3.1,2.8,4.2,4.6c2.7,4.6,6.4,8.6,11.2,12.1C305.8,139.1,308.5,141.6,311.9,143.6z"/>
	<path class="st67" d="M265.9,199.6c-0.3,0-0.6,0.1-0.9,0.1C265.3,199.7,265.6,199.6,265.9,199.6z"/>
	<path class="st68" d="M315.1,178.9c0,0.1,0.1,0.2,0.1,0.3c0,0-0.1,0.1-0.2,0.1C315.1,179.1,315.1,179,315.1,178.9z"/>
</g>
<g>
	<path class="st69" d="M145.6,75.2c-3.5,3.4-7.4,6.4-12,8.3c-2.8,1.2-3.2,3.3-1.4,5.8c6.7,9.2,5.9,15.7-2.9,23.1
		c-1.2,1-2.5,2.1-4,3.4c5.2,2.3,9.7,5.2,13,9.6c9.8,13.3,5.5,31.9-9.3,39.4c-8.7,4.4-8.8,4.5-6.9,14.1c0.9,4.7,1.9,10.1,2.9,14.8
		c-1.4,0.8-2.8,1.3-4.4,1.4c-2.2-3.8-4.5-8.4-6.7-12.1c-2.2-3.6-5.2-5.2-9.5-4c-4.6,1.3-9.2,2.4-13.8,3.5c-4.3,1-8.5,0.8-12.5-1.2
		c-3.4-1.7-5.3-4.5-5.7-8.3c-0.2-2.1-0.4-4.3-1-6.3c-1.5-4.7-5.4-5.6-8.9-2.1c-1.9,1.9-3.6,3.9-5.6,5.6c-4.8,4.1-9.4,3.7-13.3-1.3
		c-2.6-3.3-3.8-7.3-5.9-10.9c-2-3.4-4.2-6.7-9-5.9c-2.6,0-4.4,1.6-6.1,3.3c-1.9,1.8-3.7,3.8-5.6,5.6c-3.9,3.7-7.8,4.4-11.2,2.2
		c-3.6-2.4-5.2-7.6-3.7-12.1c1.3-3.8,3.7-6.8,6.8-9.3c8.6-7.1,18.5-10.9,29.6-11.8c7.7,0,15.3,0.4,22.5,3.6
		c19.2,8.4,35.3,21,49.1,36.6c2,2.3,3.7,4.7,6.2,7.9c-0.5-3.3-0.9-5.5-1.2-7.7c-2.3-13.6-4.7-27.2-5.5-41
		c-1.1-17.6,1.3-34.5,9.7-50.3c3.9-5.7,7.8-11.4,13.5-15.5c2.8-2,5.7-3.7,9.3-3.4c6.1,0.5,9,5.6,6.1,11
		C147.5,72.5,146.5,73.8,145.6,75.2z M40,134.6c-6.6,0.4-12.7,1.5-18.4,4.4c-4.6,2.3-8.8,5.2-11.7,9.6c-1,1.6-2.3,3.1-2.2,5.1
		c0.1,1.7,0.9,3.3,2.5,4c2.3,1,4.4,0.2,6.3-1.3c3.3-2.7,4.8-6.7,7.9-9.5c5.2-4.7,10.2-4.3,14.2,1.5c1.9,2.8,3.2,5.9,5.7,8.3
		c3.7,3.6,7.2,3.8,11.3,0.5c1.2-1,2.5-2,3.7-3.1c3.6-3.4,7.3-3.3,11.2-0.7c2.1,1.4,4.2,2.8,6.3,4.1c3.7,2.3,7.5,4,12,3.7
		c2.7-0.2,2.9-1.5,2.2-3.5c-0.9-2.5-2.7-4.1-5.1-5.3c-8.8-4.4-17.4-8.9-26.3-13.1C53.4,136.3,46.6,135.2,40,134.6z M138.1,67.9
		c0.1-0.7-0.3-1.7-1.7-2.3c-1.5-0.6-2.4,0.3-3.2,1.2c-6.3,6.6-10.9,14.3-13.9,22.9c-5.1,14.5-5.8,29.6-5.2,44.8
		c0.1,2.3,0.8,4.7,2.1,6.7c0.6,0.9,1.1,2.2,2.4,2c1.5-0.2,1.8-1.7,2-2.9c0.5-3-0.1-6.1-1.4-8.8c-3.9-8-2.6-14.8,3.9-21
		c5.4-5.2,7.8-11.4,2.4-18.8c-1.8-2.4-1.8-5.2-0.4-8.1c1.6-3.7,4.9-5.5,7.8-7.9C135.1,73.9,138.1,72.4,138.1,67.9z"/>
	<path class="st70" d="M40,134.6c6.6,0.6,13.4,1.7,19.7,4.7c8.8,4.2,17.5,8.7,26.3,13.1c2.3,1.2,4.2,2.8,5.1,5.3
		c0.7,1.9,0.5,3.3-2.2,3.5c-4.5,0.3-8.3-1.4-12-3.7c-2.1-1.3-4.2-2.7-6.3-4.1c-3.9-2.6-7.6-2.7-11.2,0.7c-1.2,1.1-2.5,2.1-3.7,3.1
		c-4,3.4-7.5,3.2-11.3-0.5c-2.5-2.4-3.8-5.6-5.7-8.3c-4-5.7-9-6.2-14.2-1.5c-3.1,2.8-4.7,6.8-7.9,9.5c-1.9,1.5-4,2.3-6.3,1.3
		c-1.6-0.7-2.4-2.3-2.5-4c-0.1-2,1.1-3.5,2.2-5.1c2.9-4.4,7.1-7.3,11.7-9.6C27.3,136.1,33.4,135,40,134.6z"/>
	<path class="st70" d="M138.1,67.9c0,4.5-3,6-5.4,8c-2.9,2.4-6.1,4.2-7.8,7.9c-1.3,2.9-1.3,5.7,0.4,8.1c5.4,7.3,3,13.6-2.4,18.8
		c-6.5,6.3-7.8,13-3.9,21c1.3,2.7,1.9,5.7,1.4,8.8c-0.2,1.2-0.5,2.7-2,2.9c-1.3,0.2-1.8-1.1-2.4-2c-1.3-2.1-2-4.4-2.1-6.7
		c-0.6-15.2,0.1-30.3,5.2-44.8c3-8.6,7.6-16.3,13.9-22.9c0.9-0.9,1.7-1.8,3.2-1.2C137.8,66.2,138.2,67.2,138.1,67.9z"/>
</g>
</svg>
