<?xml version="1.0" encoding="utf-8"?>
<!-- Generator: Adobe Illustrator 21.0.0, SVG Export Plug-In . SVG Version: 6.00 Build 0)  -->
<svg version="1.1" id="Layer_1" xmlns="http://www.w3.org/2000/svg" xmlns:xlink="http://www.w3.org/1999/xlink" x="0px" y="0px"
	 viewBox="0 0 317.1 71.2" style="enable-background:new 0 0 317.1 71.2;" xml:space="preserve">
<style type="text/css">
	.st0{opacity:0.15;fill:#FFFFFF;}
	.st1{opacity:0.25;}
	.st2{fill:#FFFFFF;}
	.st3{opacity:0.8;}
	.st4{opacity:0.7;}
</style>
<path class="st0" d="M68.2,63.4c0,2.8-2.3,5.1-5.1,5.1H7.9c-2.8,0-5.1-2.3-5.1-5.1V8.1C2.8,5.3,5.1,3,7.9,3h55.3
	c2.8,0,5.1,2.3,5.1,5.1V63.4z"/>
<g class="st1">
	<g>
		<g>
			<path class="st2" d="M41.1,27l0,17.4c0,3.9,1.4,5.4,5.1,5.4c1.8,0,3-0.4,3.9-1.2c0.8-0.8,1.2-2.2,1.2-4c-0.1-1.9,0.9-4.9,4.5-5.5
				c0.3-0.1,0.7-0.1,1-0.1c1.6,0,3.2,0.6,4.2,1.7c0.6,0.6,1.3,1.7,1.4,3.4l0,0.1c0,0.1,0,0.2,0,0.2l0,0.1c0,5.2-1.5,9.2-4.6,11.8
				c-2.9,2.5-6.9,3.8-11.6,3.8c-4.8,0-8.7-1.3-11.6-3.8c-2-1.7-3.1-4.3-3.6-6.9c-0.6-2.8-0.6-5.7-0.8-8.5
				c-0.4-7.8,0.7-15.7,2.1-23.4"/>
		</g>
		<g>
			<path class="st2" d="M32.3,17.4l1.7-1.6c0.2-0.2,0.4-0.4,0.6-0.5c2.9-2.5,6.8-3.8,11.6-3.8c4.8,0,8.7,1.3,11.6,3.8
				c3,2.6,4.6,6.5,4.6,11.7c0.1,1.9-0.9,4.9-4.5,5.5c-0.3,0.1-0.7,0.1-1,0.1c-1.6,0-3.2-0.6-4.2-1.7c-0.7-0.7-1.5-1.9-1.4-3.9
				c0-1.9-0.4-3.3-1.2-4.1c-0.8-0.8-2.1-1.2-3.9-1.2c-3.7,0-5.1,1.5-5.1,5.3"/>
		</g>
	</g>
</g>
<g class="st3">
	<g>
		<path class="st2" d="M30,27c0-1.9-0.4-3.3-1.2-4.2c-0.8-0.8-2.1-1.2-3.9-1.2c-3.7,0-5.1,1.5-5.1,5.4v17.3c0,3.9,1.4,5.4,5.1,5.4
			c1.8,0,3-0.4,3.9-1.2c0.8-0.8,1.2-2.2,1.2-4.1l4.6,0c0,3.6,0.9,6.2,2.6,7.9l1.6,1.6l-1.7,1.6c-0.2,0.2-0.4,0.4-0.6,0.5
			c-2.9,2.5-6.9,3.8-11.6,3.8c-4.8,0-8.7-1.3-11.6-3.8c-3-2.6-4.6-6.6-4.6-11.8V27c0-5.2,1.5-9.2,4.6-11.8c2.9-2.5,6.8-3.8,11.6-3.8
			c4.8,0,8.7,1.3,11.6,3.8c0.2,0.2,0.5,0.4,0.7,0.6l1.4,1.8"/>
	</g>
	<g>
		<path class="st2" d="M30,44.4L30,27c0-4.9,1.4-8.6,4-11.2l1.5-1.4l1.8,1.5c2.6,2.6,3.9,6.3,3.9,11.2l0,17.4c0,4.9-1.4,8.6-4,11.2"
			/>
	</g>
	<g>
		<path class="st2" d="M42.2,59.6L42.2,59.6c-0.2,0-0.5,0-0.7-0.1c-3.2-0.6-5.8-1.9-7.7-4C29.7,51.1,30,45.1,30,44.8l0.1-2l11-0.9
			l0,2.5c-0.1,4,2.7,5,3,5.1l0.3,0.1l0.3,0.2c1.9,1.3,2.6,3.6,1.9,6C45.9,58.1,44.1,59.6,42.2,59.6z"/>
	</g>
</g>
<g class="st4">
	<path class="st2" d="M84,51.6c-0.3,0.9-0.9,1.3-1.9,1.3c-1.1,0-2-0.7-2.9-1.2c-0.2-0.1-0.4-0.3-0.4-0.6c0-0.4,0.3-0.9,0.4-1.3
		c0.2-0.5,0.3-0.9,0.5-1.4c0.4-0.9,0.8-1.9,1.2-2.8c0.5-1.1,1-2.2,1.5-3.2c0.6-1.2,1.2-2.5,1.8-3.7c0.7-1.4,1.4-2.8,2-4.2
		c0.1-0.2,0.2-0.4,0.3-0.5c1.4-2.8,2.8-5.7,4.1-8.6c1-2.2,1.9-4.4,2.7-6.6c0.5-1.4,1.2-2.9,0.9-4.4c-0.2-1.1-1.1-1.7-1.4-2.7
		c-0.6-1.7,3.4-1.8,4.3-2c1.5-0.2,2.9-0.3,4.4-0.4c1.1-0.1,2.3,0,3.4,0c0.9,0,2.1-0.1,2.9,0.4c1,0.6,1,2.2,1.1,3.2
		c0.3,1.7,0.4,3.4,0.5,5.1c0,1,0.1,1.9,0.1,2.9c0.1,3,0.2,6,0.2,9c0,2.1,0,4.2,0,6.3c0,4.9,0.4,8.4,1.3,10.5c0.3,0.8,0.6,1.2,1,1.2
		c0.7,0,1.3-0.2,1.9-0.5c0.4-0.2,0.8-0.5,1.1-0.7c0.3-0.2,0.7-0.4,1,0c0.2,0.3,0.3,0.7,0.6,1c0.2,0.3,0.5,0.5,0.4,0.9
		c-0.1,0.3-0.5,0.5-0.7,0.7c-0.3,0.3-0.7,0.6-1,0.8c-0.7,0.5-1.4,1-2.1,1.4c-0.4,0.2-0.8,0.4-1.3,0.6c-1.9,0.9-3.6,1.3-5.2,1.3
		c-0.8,0-1.7-0.3-2.4-0.6c-0.8-0.3-1.4-0.8-1.9-1.4c-1.5-1.8-1.8-4.2-1.9-6.5c0-0.8,0-1.5,0-2.3c0-0.6,0.1-1.1,0.2-1.6
		c0.1-0.5,0.3-1.1,0.1-1.6c-0.2-0.4-0.7-0.5-1.1-0.6c-2.7-0.2-5.3-0.1-8,0.1c-1,0.1-2.3,0-3,0.9c-0.6,0.7-0.7,1.8-1.1,2.6
		c-0.4,1-0.8,2.1-1.2,3.1c-0.2,0.6-0.5,1.2-0.7,1.8c-0.3,0.7-0.5,1.4-0.7,2.2C84.5,50,84.3,50.8,84,51.6z M100.7,34.6l0.1-7.1
		c0-6.2-0.3-10.3-0.8-12.5c-0.3,0-0.6,0-0.7,0.1C98.1,18.3,97,21,96,23.1c-1,2.2-2.1,4.5-3.2,6.9c-1.2,2.5-1.9,4-2.2,4.6H100.7z"/>
	<path class="st2" d="M118.1,26.5c0.2-0.1,0.5-0.1,0.8-0.2c0.5-0.1,1-0.2,1.5-0.3c1.3-0.2,2.7-0.3,4-0.3c0.9,0,1.8,0,2.7-0.1
		c0.3,0,0.6-0.1,0.8,0.2c0.1,0.2,0.2,0.5,0.3,0.8c0.1,0.3,0.2,0.5,0.2,0.8c0.1,0.3,0.1,0.6,0.2,0.9c0,0.2,0,0.3,0.1,0.5
		c0,0.1,0.1,0.4,0,0.4c3.1-2.6,5.7-3.8,7.8-3.8c2.1,0,3.8,0.9,5,2.6c1.3,1.7,1.9,4.3,1.9,7.7c0,5.9-1.1,10.2-3.2,13.1
		c-2.1,2.7-5.1,4.5-8.6,4.3c-1.1-0.1-2.3-0.2-3.4-0.5c-0.4-0.1-1-0.4-1-0.9c0-0.3,0.1-0.8,0.3-1c0.2-0.2,0.5-0.2,0.7-0.4
		c0.3-0.2,0.6-0.3,0.8-0.5c0.6-0.4,1.1-0.8,1.6-1.3c1.2-1.1,2.1-2.6,2.7-4.1c1.4-3.2,2.1-7.4,1-10.8c-0.3-1-0.9-2.1-2-2.5
		c-0.8-0.3-1.7,0-2.4,0.6c-1.8,1.5-2.2,4.3-2.5,6.5c-0.5,3.5-1,7-1.8,10.4c-0.5,2.3-0.9,4.5-1.2,6.8c-0.3,2-0.6,4.1-0.7,6.1
		c0,0.6,0,1.2,0,1.7c0,0.4,0,0.8-0.4,1.1c-0.4,0.3-1,0.3-1.5,0.5c-0.8,0.2-1.6,0.4-2.5,0.6c-0.5,0.1-0.9,0.1-1.4,0.2
		c-0.5,0.1-1.1,0.1-1.6,0.2c-0.3,0.1-0.8,0.1-1.1-0.1c0,0-0.1-0.1-0.1-0.1c-0.3-0.3-0.3-0.8-0.3-1.2c0-0.5,0-1,0-1.5
		c0-1,0.1-2.1,0.3-3.1c0.1-0.9,0.3-1.8,0.4-2.6c0.2-1.1,0.4-2.2,0.7-3.3c0.3-1.4,0.6-2.7,0.9-4.1c0-0.2,0.1-0.4,0.1-0.5
		c1.6-7.3,2.4-12.9,2.4-16.8c0-0.8-0.2-1.6-0.5-2.5c-0.2-0.6-0.5-1.1-0.9-1.6c-0.2-0.3-0.3-0.5-0.5-0.7c-0.2-0.2-0.3-0.5-0.3-0.7
		C117.7,26.7,117.9,26.6,118.1,26.5z"/>
	<path class="st2" d="M193.9,44.4c0,2.6-1.1,4.6-3.4,6.3c-0.8,0.6-1.6,0.9-2.5,1.3c-0.5,0.2-1,0.4-1.5,0.5c-1.1,0.3-2.3,0.5-3.5,0.6
		c-2.4,0.2-5.2-0.1-7.2-1.6c-1.7-1.2-2.4-3.2-1.3-5.1c0.9-1.7,3-3,4.9-2.7c2.1,0.3,3.1,2.4,3.8,4.2c0.2,0.4,0.3,0.8,0.4,1.2
		c0.2,0.6,0.6,1,1.2,0.8c0.6-0.2,1.2-0.7,1.4-1.3c0.1-0.2,0.1-0.5,0.1-0.8c0-1.9-1.6-4.5-4.9-7.9c-3.3-3.4-4.9-6.1-4.9-8.2
		c0-2,0.9-3.6,2.7-4.7c1.8-1.1,4-1.7,6.6-1.7c2.6,0,4.5,0.5,5.8,1.4c1.3,0.9,1.9,2.1,1.9,3.7c0,1.6-1.2,3.7-3.7,6.5
		c0.3,0.3,0.6,0.7,1.1,1.1c0.4,0.5,1,1.3,1.8,2.6C193.6,42.1,193.9,43.3,193.9,44.4z M190.7,30.6c0-1.4-1-2.1-2.9-2.1
		c-0.9,0-1.7,0.2-2.3,0.6c-0.6,0.4-0.9,0.8-0.9,1.3c0,0.9,0.9,2.1,2.7,3.8l0.9,0.8C189.8,33.4,190.7,32,190.7,30.6z"/>
	<path class="st2" d="M211.1,53.1c-3.8,0-6.9-1.5-9.4-4.6c-2.5-3.1-3.7-7.1-3.7-12c0-4.9,0.9-9.5,2.6-13.5c1.7-4.1,4.1-7.4,7.3-9.9
		c3.2-2.6,6.5-3.8,10.1-3.8c3.6,0,6.5,0.8,8.7,2.4c2.2,1.6,3.3,3.6,3.3,5.8c0,1.1-0.2,2.1-0.5,3.2c-0.3,0.7-0.5,1.4-1,2
		c-0.7,0.8-1.4,0.5-2.4,0.4c-0.8-0.2-1.7-0.4-2.5-0.7c-1.1-0.4-2.1-0.9-3-1.5c-0.9-0.6-0.5-1.3-0.3-2.1c0.1-0.6,0.2-1.2,0.3-1.8
		c0.1-0.6,0.2-1.2,0.3-1.7c0.2-1-0.2-1.4-1.1-1.7c-0.8-0.2-1.7-0.3-2.5-0.3c-2.5,0-4.7,2.1-6.6,6.4c-1.9,4.2-2.9,9.5-2.9,15.6
		c0,4.1,0.7,7.1,2,8.9c1.4,1.8,3,2.8,5,2.8c1.2,0,2.5-0.2,3.7-0.7c1.3-0.5,2.5-1.2,3.6-2.1c0.4-0.3,0.8-0.7,1.2-1.1
		c0.2-0.2,0.4-0.5,0.7-0.5c0.3,0,0.5,0.2,0.7,0.4c0.4,0.4,0.8,0.8,1.2,1.1c0.3,0.3,0.7,0.7,0.4,1.1c-0.2,0.3-0.6,0.6-0.9,0.9
		c-0.4,0.4-0.9,0.9-1.3,1.3c-1.2,1.1-2.3,2.1-3.5,2.8c-1.1,0.8-2.6,1.4-4.3,2C214.6,52.8,212.9,53.1,211.1,53.1z"/>
	<path class="st2" d="M238.2,53.1c-2.8,0-5-1-6.6-2.9c-1.6-2-2.4-4.7-2.4-8.2c0-4.5,1.2-8.4,3.6-11.6c2.4-3.2,5.7-4.9,10-4.9
		l2.2,0.1c0.7-0.4,1.5-0.5,2.3-0.5c3.2,0,4.8,3,4.8,9.1c1.7-0.1,3.3-0.3,5-0.7l1-0.2l0.4,2.4c-1.3,0.6-3.1,1.1-5.4,1.5l-1.2,0.2
		c-0.8,4.3-2.3,8-4.7,11.1C244.9,51.5,241.9,53.1,238.2,53.1z M241.5,47.9c1.7,0,3.2-1.1,4.6-3.3c1.4-2.2,2.3-4.5,2.8-6.9
		c-4.3,0-6.5-1.6-6.5-4.9c0-1.3,0.3-2.5,0.8-3.6l0.3-0.6c-0.2-0.1-0.4-0.1-0.6-0.1s-0.4,0-0.5,0.1c-1,0.6-2,2.2-2.9,4.6
		s-1.3,5.1-1.3,8.2C238.1,45.7,239.2,47.9,241.5,47.9z"/>
	<path class="st2" d="M283.3,48.6c0,0.1-0.1,0.2-0.1,0.3c-0.4,0.5-1,0.8-1.5,1.2c-0.7,0.5-1.4,1-2.1,1.4c-1.1,0.6-2.2,1.2-3.4,1.4
		c-0.6,0.1-1.2,0.2-1.8,0.2c-2.6,0-4.1-1.3-4.5-3.9c-1.2,1.2-2.6,2.2-4.1,2.9c-1.5,0.7-2.8,1-4,1c-1.9,0-3.6-0.9-5-2.6
		c-1.4-1.7-2.1-4.3-2.1-7.9c0-5.3,1.1-9.6,3.4-12.6c2.3-3.1,4.8-4.6,7.7-4.6c2.9,0,5.3,0.6,7.2,1.9c0.5-2.4,0.9-4.8,1.2-7.2
		c0.3-1.9,0.5-3.9,0.6-5.8c0.1-1.3,0.1-2.6-0.1-4c-0.1-0.7,0.1-1.3,0.8-1.4c0.4-0.1,0.8-0.2,1.1-0.3c1-0.3,2.1-0.5,3.1-0.6
		c0.6-0.1,1.2-0.2,1.7-0.2c0.9-0.1,2.1-0.4,2.3,0.8c0.3,1.9,0.1,3.7-0.1,5.7c-0.1,1.2-0.4,2.4-0.5,3.6c-0.2,1.5-0.5,2.9-0.7,4.4
		c-0.3,1.7-0.6,3.5-1,5.2c0,0.2-0.1,0.4-0.1,0.7c-1.8,9.1-2.7,15.2-2.7,18.4c0,1,0.2,1.5,0.7,1.5c0.3,0,0.7-0.3,1-0.4
		c0.3-0.2,0.6-0.3,0.9-0.5c0.3-0.2,0.5-0.4,0.8-0.5c0.3-0.1,0.4,0.1,0.6,0.3c0.2,0.3,0.3,0.6,0.5,0.9
		C283.1,48.1,283.3,48.4,283.3,48.6z M268.7,29c-1.4,0-2.6,1.4-3.7,4.2c-1,2.8-1.5,5.6-1.5,8.3s0.2,4.5,0.6,5.3
		c0.4,0.8,1,1.2,1.7,1.2c1.3,0,2.7-0.5,3.9-1.6c0.1-1.6,1-7,2.7-16.2C271.1,29.4,269.8,29,268.7,29z"/>
	<path class="st2" d="M284.8,41.9c0-5.1,1.5-9.1,4.6-12c3.1-2.9,6.5-4.4,10.4-4.4c2.4,0,4.4,0.6,5.9,1.8c1.5,1.2,2.3,2.7,2.3,4.7
		c0,2-0.5,3.6-1.5,5c-1,1.3-2.2,2.4-3.6,3.1c-2.9,1.4-5.5,2.3-7.9,2.7l-1.5,0.2c0.3,3.8,1.8,5.7,4.7,5.7c1,0,2-0.2,3.1-0.7
		c0.5-0.2,1-0.4,1.4-0.7c0.5-0.3,0.9-0.6,1.3-1c0.3-0.3,0.7-0.5,1.1-0.2c0.3,0.2,0.4,0.5,0.6,0.8c0.2,0.3,0.5,0.5,0.4,0.8
		c-0.1,0.3-0.4,0.4-0.6,0.6c-0.4,0.4-0.8,0.7-1.3,1c-1,0.7-1.9,1.3-2.7,1.8c-2.3,1.3-4.9,1.9-7.7,1.9c-2.8,0-5-1-6.6-3
		C285.6,48.2,284.8,45.4,284.8,41.9z M298.4,37.3c1.2-1.4,1.8-3.2,1.8-5.3s-0.6-3.3-1.9-3.3c-1.5,0-2.7,1.3-3.6,3.9
		c-0.8,2.6-1.2,5.1-1.2,7.3C295.6,39.5,297.2,38.6,298.4,37.3z"/>
	<path class="st2" d="M147.1,26.5c0.2-0.1,0.5-0.1,0.8-0.2c0.5-0.1,1-0.2,1.5-0.3c1.3-0.2,2.7-0.3,4-0.3c0.9,0,1.8,0,2.7-0.1
		c0.3,0,0.6-0.1,0.8,0.2c0.1,0.2,0.2,0.5,0.3,0.8c0.1,0.3,0.2,0.5,0.2,0.8c0.1,0.3,0.1,0.6,0.2,0.9c0,0.2,0,0.3,0.1,0.5
		c0,0.1,0.1,0.4,0,0.4c3.1-2.6,5.7-3.8,7.8-3.8s3.8,0.9,5,2.6c1.3,1.7,1.9,4.3,1.9,7.7c0,5.9-1.1,10.2-3.2,13.1
		c-2.1,2.7-5.1,4.5-8.6,4.3c-1.1-0.1-2.3-0.2-3.4-0.5c-0.4-0.1-1-0.4-1-0.9c0-0.3,0.1-0.8,0.3-1c0.2-0.2,0.5-0.2,0.7-0.4
		c0.3-0.2,0.6-0.3,0.8-0.5c0.6-0.4,1.1-0.8,1.6-1.3c1.2-1.1,2.1-2.6,2.7-4.1c1.4-3.2,2.1-7.4,1-10.8c-0.3-1-0.9-2.1-2-2.5
		c-0.8-0.3-1.7,0-2.4,0.6c-1.8,1.5-2.2,4.3-2.5,6.5c-0.5,3.5-1,7-1.8,10.4c-0.5,2.3-0.9,4.5-1.2,6.8c-0.3,2-0.6,4.1-0.7,6.1
		c0,0.6,0,1.2,0,1.7c0,0.4,0,0.8-0.4,1.1c-0.4,0.3-1,0.3-1.5,0.5c-0.8,0.2-1.6,0.4-2.5,0.6c-0.5,0.1-0.9,0.1-1.4,0.2
		c-0.5,0.1-1.1,0.1-1.6,0.2c-0.3,0.1-0.8,0.1-1.1-0.1c0,0-0.1-0.1-0.1-0.1c-0.3-0.3-0.3-0.8-0.3-1.2c0-0.5,0-1,0-1.5
		c0-1,0.1-2.1,0.3-3.1c0.1-0.9,0.3-1.8,0.4-2.6c0.2-1.1,0.4-2.2,0.7-3.3c0.3-1.4,0.6-2.7,0.9-4.1c0-0.2,0.1-0.4,0.1-0.5
		c1.6-7.3,2.4-12.9,2.4-16.8c0-0.8-0.2-1.6-0.5-2.5c-0.2-0.6-0.5-1.1-0.9-1.6c-0.2-0.3-0.3-0.5-0.5-0.7c-0.2-0.2-0.3-0.5-0.3-0.7
		C146.7,26.7,146.9,26.6,147.1,26.5z"/>
</g>
</svg>
