<?xml version="1.0" encoding="UTF-8" standalone="no"?>

<svg
   xmlns:dc="http://purl.org/dc/elements/1.1/"
   xmlns:cc="http://creativecommons.org/ns#"
   xmlns:rdf="http://www.w3.org/1999/02/22-rdf-syntax-ns#"
   xmlns:svg="http://www.w3.org/2000/svg"
   xmlns="http://www.w3.org/2000/svg"
   xmlns:sodipodi="http://sodipodi.sourceforge.net/DTD/sodipodi-0.dtd"
   xmlns:inkscape="http://www.inkscape.org/namespaces/inkscape"
   version="1.1"
   id="svg88"
   width="256"
   height="256"
   viewBox="0 0 256 256"
   sodipodi:docname="memcached.svg"
   inkscape:version="0.92.2 5c3e80d, 2017-08-06">
  <metadata
     id="metadata94">
    <rdf:RDF>
      <cc:Work
         rdf:about="">
        <dc:format>image/svg+xml</dc:format>
        <dc:type
           rdf:resource="http://purl.org/dc/dcmitype/StillImage" />
        <dc:title></dc:title>
      </cc:Work>
    </rdf:RDF>
  </metadata>
  <defs
     id="defs92" />
  <sodipodi:namedview
     pagecolor="#ffffff"
     bordercolor="#666666"
     borderopacity="1"
     objecttolerance="10"
     gridtolerance="10"
     guidetolerance="10"
     inkscape:pageopacity="0"
     inkscape:pageshadow="2"
     inkscape:window-width="1446"
     inkscape:window-height="891"
     id="namedview90"
     showgrid="false"
     inkscape:zoom="1.3242188"
     inkscape:cx="128"
     inkscape:cy="128"
     inkscape:window-x="43"
     inkscape:window-y="0"
     inkscape:window-maximized="0"
     inkscape:current-layer="svg88" />
  <path
     inkscape:connector-curvature="0"
     id="path114"
     d="M 0.97492049,128.23894 V 0.23893809 H 128.97492 h 128 V 128.23894 v 128 h -128 H 0.97492049 Z"
     style="fill:#fefefd" />
  <path
     inkscape:connector-curvature="0"
     id="path112"
     d="M 74.97492,219.14954 C 53.183112,217.29256 43.577014,210.61899 39.372028,194.41541 37.860794,188.592 37.587042,180.83934 37.229495,133.73894 36.942759,95.966574 37.174029,76.888684 37.999081,70.254272 40.922567,46.745938 48.795409,38.997592 72.558264,36.241588 87.815575,34.472052 187.635,35.41377 194.97492,37.396493 c 15.18883,4.10294 21.36175,10.659712 24.65243,26.1854 1.17909,5.563053 1.63389,17.513362 2.04204,53.657047 0.77695,68.80268 -0.7692,82.16997 -10.64685,92.04762 -6.05485,6.05484 -13.77145,8.61851 -29.98708,9.96254 -13.70165,1.13565 -92.432485,1.06175 -106.06054,-0.0996 z"
     style="fill:#63ada9" />
  <path
     inkscape:connector-curvature="0"
     id="path110"
     d="m 66.47492,217.80262 c -16.445264,-3.07063 -23.07368,-9.12331 -27.139515,-24.7822 -1.366991,-5.26474 -1.70516,-14.32434 -2.089226,-55.9707 -0.596271,-64.656913 0.441664,-76.662604 7.603928,-87.953912 3.580206,-5.644194 11.96646,-10.119436 22.624813,-12.073509 10.115074,-1.85447 114.13287,-1.825335 123.97289,0.03472 18.54527,3.505614 25.67649,11.326786 28.56898,31.333067 1.19917,8.294195 1.22174,111.668914 0.026,118.968524 -2.95292,18.02632 -8.56849,25.1566 -23.372,29.67627 -4.45059,1.35882 -13.6583,1.62138 -64.19584,1.83056 -45.202302,0.1871 -60.637015,-0.0614 -66,-1.06282 z m 6.999967,-55.81368 c -0.916881,-24.38949 1.844774,-71.708121 5.077576,-87.000002 l 0.581368,-2.75 h 13.620544 c 9.339105,0 13.296985,-0.323556 12.591215,-1.029331 -0.63535,-0.635351 -6.357503,-0.922416 -14.950001,-0.75 l -13.920669,0.279331 -1.670378,13 c -2.59427,20.190342 -4.231172,58.454662 -3.368831,78.750002 0.445409,10.48277 1.157689,17.75 1.739722,17.75 0.636437,0 0.742509,-6.46452 0.299454,-18.25 z m 86.955273,16 c 1.09627,-4.99979 4.49665,-31.02733 5.59447,-42.8217 1.31039,-14.07818 1.00469,-29.27505 -0.62159,-30.90064 -0.76249,-0.76216 -0.94264,1.39094 -0.62414,7.45934 0.59543,11.34431 -2.81445,46.01846 -6.418,65.263 -0.69412,3.70693 1.26783,4.65508 2.06926,1 z M 115.39665,139.5596 c -7.27412,-18.92074 -12.74677,-31.55895 -14.94056,-34.50283 -2.08614,-2.79942 -1.926201,-2.36123 4.44648,12.18217 2.77151,6.325 7.39435,17.73171 10.27298,25.34825 2.87863,7.61654 5.38801,13.38584 5.5764,12.82066 0.18839,-0.56518 -2.22149,-7.69689 -5.3553,-15.84825 z m 26.15683,-48.155713 c 4.99321,-7.258692 10.3649,-14.54027 11.93709,-16.181285 l 2.85853,-2.983664 h 12.31291 c 7.54194,0 12.31291,-0.387477 12.31291,-1 0,-0.61653 -5.09902,-1 -13.29705,-1 h -13.29705 l -3.56719,3.75 c -4.65982,4.898642 -21.82949,29.925882 -21.05895,30.696422 1.3384,1.3384 3.12638,-0.67426 11.7988,-13.281473 z"
     style="fill:#bf5151" />
  <path
     inkscape:connector-curvature="0"
     id="path108"
     d="m 66.47492,217.80262 c -16.445264,-3.07063 -23.07368,-9.12331 -27.139515,-24.7822 -1.366991,-5.26474 -1.70516,-14.32434 -2.089226,-55.9707 -0.596271,-64.656913 0.441664,-76.662604 7.603928,-87.953912 3.580206,-5.644194 11.96646,-10.119436 22.624813,-12.073509 10.115074,-1.85447 114.13287,-1.825335 123.97289,0.03472 18.54527,3.505614 25.67649,11.326786 28.56898,31.333067 1.19917,8.294195 1.22174,111.668914 0.026,118.968524 -2.95292,18.02632 -8.56849,25.1566 -23.372,29.67627 -4.45059,1.35882 -13.6583,1.62138 -64.19584,1.83056 -45.202302,0.1871 -60.637015,-0.0614 -66,-1.06282 z m 55.48394,-39.2704 c 5.21127,-6.62505 -4.00039,-14.27683 -9.98394,-8.29328 -2.55523,2.55523 -2.53357,5.05196 0.0726,8.36514 2.80955,3.57176 7.06959,3.54087 9.91136,-0.0719 z m 23.79355,1.15002 c 2.69664,-1.8888 2.99438,-6.93291 0.56752,-9.61456 -2.06213,-2.27863 -7.08898,-2.37042 -9.51627,-0.17375 -3.89633,3.52613 -0.83029,11.34501 4.44875,11.34501 1.25263,0 3.27763,-0.70052 4.5,-1.5567 z m -72.277523,-17.6933 c -0.916881,-24.38949 1.844774,-71.708121 5.077576,-87.000002 l 0.581368,-2.75 h 13.620544 c 9.339105,0 13.296985,-0.323556 12.591215,-1.029331 -0.63535,-0.635351 -6.357503,-0.922416 -14.950001,-0.75 l -13.920669,0.279331 -1.670378,13 c -2.59427,20.190342 -4.231172,58.454662 -3.368831,78.750002 0.445409,10.48277 1.157689,17.75 1.739722,17.75 0.636437,0 0.742509,-6.46452 0.299454,-18.25 z m 86.955273,16 c 1.09627,-4.99979 4.49665,-31.02733 5.59447,-42.8217 1.31039,-14.07818 1.00469,-29.27505 -0.62159,-30.90064 -0.76249,-0.76216 -0.94264,1.39094 -0.62414,7.45934 0.59543,11.34431 -2.81445,46.01846 -6.418,65.263 -0.69412,3.70693 1.26783,4.65508 2.06926,1 z M 115.39665,139.5596 c -7.27412,-18.92074 -12.74677,-31.55895 -14.94056,-34.50283 -2.08614,-2.79942 -1.926201,-2.36123 4.44648,12.18217 2.77151,6.325 7.39435,17.73171 10.27298,25.34825 2.87863,7.61654 5.38801,13.38584 5.5764,12.82066 0.18839,-0.56518 -2.22149,-7.69689 -5.3553,-15.84825 z m 26.15683,-48.155713 c 4.99321,-7.258692 10.3649,-14.54027 11.93709,-16.181285 l 2.85853,-2.983664 h 12.31291 c 7.54194,0 12.31291,-0.387477 12.31291,-1 0,-0.61653 -5.09902,-1 -13.29705,-1 h -13.29705 l -3.56719,3.75 c -4.65982,4.898642 -21.82949,29.925882 -21.05895,30.696422 1.3384,1.3384 3.12638,-0.67426 11.7988,-13.281473 z"
     style="fill:#299690" />
  <path
     inkscape:connector-curvature="0"
     id="path106"
     d="m 66.47492,217.80262 c -16.445264,-3.07063 -23.07368,-9.12331 -27.139515,-24.7822 -1.366991,-5.26474 -1.70516,-14.32434 -2.089226,-55.9707 -0.596271,-64.656913 0.441664,-76.662604 7.603928,-87.953912 3.580206,-5.644194 11.96646,-10.119436 22.624813,-12.073509 10.115074,-1.85447 114.13287,-1.825335 123.97289,0.03472 18.54527,3.505614 25.67649,11.326786 28.56898,31.333067 1.19917,8.294195 1.22174,111.668914 0.026,118.968524 -2.95292,18.02632 -8.56849,25.1566 -23.372,29.67627 -4.45059,1.35882 -13.6583,1.62138 -64.19584,1.83056 -45.202302,0.1871 -60.637015,-0.0614 -66,-1.06282 z m 55.48394,-39.2704 c 5.21127,-6.62505 -4.00039,-14.27683 -9.98394,-8.29328 -2.55523,2.55523 -2.53357,5.05196 0.0726,8.36514 2.80955,3.57176 7.06959,3.54087 9.91136,-0.0719 z m 23.79355,1.15002 c 2.69664,-1.8888 2.99438,-6.93291 0.56752,-9.61456 -2.06213,-2.27863 -7.08898,-2.37042 -9.51627,-0.17375 -3.89633,3.52613 -0.83029,11.34501 4.44875,11.34501 1.25263,0 3.27763,-0.70052 4.5,-1.5567 z m 26.96565,-7.4824 c 9.51887,-5.05725 10.78435,-6.04761 11.58843,-9.06906 1.33218,-5.00584 0.0404,-60.0938 -1.79844,-76.695915 -0.87138,-7.86724 -1.32125,-14.72974 -0.99971,-15.25 0.35672,-0.577185 -4.81676,-0.945927 -13.27146,-0.945927 h -13.85606 l -3.57903,3.75 c -1.96846,2.0625 -7.49281,9.4875 -12.27632,16.5 -4.78351,7.0125 -9.08126,12.750002 -9.55055,12.750002 -0.46929,0 -4.7882,-5.737502 -9.59757,-12.750002 -4.80936,-7.0125 -10.10221,-14.449338 -11.76187,-16.526307 l -3.01757,-3.776306 -14.061495,0.276306 -14.061495,0.276307 -1.670378,13 c -4.133281,32.167962 -4.90711,97.511182 -1.137648,96.064712 0.809381,-0.31059 6.741663,-0.56471 13.18285,-0.56471 h 11.711249 l -1.759376,-12.25 c -5.666503,-39.45414 -5.865064,-65.75 -0.496483,-65.75 0.761027,0 3.25518,4.03656 5.562126,9.00178 3.85311,8.29305 15.90442,38.34314 17.59781,43.88035 0.42227,1.3808 1.01007,1.92653 1.39836,1.29826 0.36842,-0.59612 3.95213,-1.21808 7.96379,-1.38212 l 7.29392,-0.29827 7.78147,-19.5 c 9.54344,-23.9154 11.53645,-28.43871 14.14363,-32.10015 l 2.04391,-2.870413 2.12117,1.976173 c 4.10934,3.82843 3.47188,25.55928 -1.81856,61.99439 -2.89371,19.92893 -2.86503,18.71467 -0.38916,16.47404 1.11578,-1.00976 6.83728,-4.39067 12.71446,-7.51314 z"
     style="fill:#786a66" />
  <path
     inkscape:connector-curvature="0"
     id="path104"
     d="M 69.201179,218.12213 C 53.277751,215.76417 44.686581,209.52048 41.016737,197.6389 38.246444,188.66974 36.994481,169.84236 36.983699,136.98894 l -0.0088,-26.75 17.25,2.7e-4 17.25,2.7e-4 v 34.41673 c 0,18.9292 0.225,34.56658 0.5,34.74973 0.275,0.18315 6.363357,0.19683 13.529681,0.0304 l 13.029682,-0.3026 -1.694499,-11.6974 c -3.17375,-21.90892 -5.206714,-48.24706 -4.301296,-55.72561 0.495491,-4.09264 0.993812,-5.83612 1.206671,-4.22179 0.323751,2.45532 0.770837,2.75 4.17234,2.75 h 3.809731 l 4.04536,9.75 c 3.36845,8.11853 10.76069,27.00928 13.58723,34.72197 0.48863,1.33331 0.95763,1.59185 1.44808,0.79827 0.41714,-0.67494 3.82492,-1.30045 8.01932,-1.47197 l 7.29392,-0.29827 7.73223,-19.5 c 8.70162,-21.94471 13.38568,-32.14439 15.60937,-33.98989 2.18277,-1.811538 2.00517,0.62293 -0.4057,5.56133 l -1.91787,3.92856 4.02127,0.31255 4.02127,0.31255 -0.64777,10.18745 c -0.89511,14.07759 -3.4208,37.08369 -5.4823,49.93745 -0.94825,5.9125 -1.50137,10.75 -1.22915,10.75 0.27222,0 1.33079,-0.75642 2.35237,-1.68094 1.02158,-0.92452 6.66602,-4.23569 12.5432,-7.35816 9.51887,-5.05725 10.78435,-6.04761 11.58843,-9.06906 1.3351,-5.01683 0.0386,-60.10935 -1.80671,-76.77464 -0.87593,-7.910539 -1.38137,-14.594022 -1.12321,-14.852184 0.72684,-0.726841 1.58871,4.887316 3.41663,22.25569 l 1.68172,15.979294 17.33128,0.27396 17.33128,0.27397 -0.43618,38.72603 c -0.36387,32.30528 -0.72082,39.83792 -2.15292,45.43222 -3.18529,12.44291 -9.88316,19.14869 -22.36728,22.39368 -5.93848,1.54359 -13.23136,1.77 -63.70618,1.97775 -31.35,0.12903 -59.823183,-0.18346 -63.273741,-0.69442 z m 52.757681,-39.58991 c 5.21127,-6.62505 -4.00039,-14.27683 -9.98394,-8.29328 -2.55523,2.55523 -2.53357,5.05196 0.0726,8.36514 2.80955,3.57176 7.06959,3.54087 9.91136,-0.0719 z m 23.79355,1.15002 c 2.69664,-1.8888 2.99438,-6.93291 0.56752,-9.61456 -2.06213,-2.27863 -7.08898,-2.37042 -9.51627,-0.17375 -3.89633,3.52613 -0.83029,11.34501 4.44875,11.34501 1.25263,0 3.27763,-0.70052 4.5,-1.5567 z M 93.97492,103.29796 c 0,-0.51754 0.444846,-1.21592 0.988546,-1.55194 0.56686,-0.35034 0.734507,0.0511 0.393011,0.94098 -0.664791,1.73242 -1.381557,2.04939 -1.381557,0.61096 z m 32.87244,-1.80902 c -1.24387,-1.586058 -1.2085,-1.621428 0.37756,-0.37756 0.9625,0.75485 1.75,1.54235 1.75,1.75 0,0.82304 -0.82119,0.29331 -2.12756,-1.37244 z"
     style="fill:#2f837c" />
  <path
     inkscape:connector-curvature="0"
     id="path102"
     d="M 69.201179,218.12213 C 53.277751,215.76417 44.686581,209.52048 41.016737,197.6389 38.246444,188.66974 36.994481,169.84236 36.983699,136.98894 l -0.0088,-26.75 h 17.269297 17.269298 l -0.385088,24.06576 c -0.211798,13.23616 -0.06359,29.21116 0.329352,35.5 l 0.714439,11.43424 h 14.509759 14.509763 l -0.55682,-2.25 c -2.506447,-10.12817 -6.66,-47.45772 -6.66,-59.85595 v -8.89405 h 3.891038 3.891042 l 5.02282,12.25 c 2.76255,6.7375 6.70994,16.75 8.77199,22.25 2.06204,5.5 4.06403,10.36572 4.44886,10.81272 0.38483,0.447 4.59671,0.897 9.35974,1 l 8.66005,0.18728 2.0311,-5.5 c 1.11711,-3.025 5.21405,-13.4875 9.10433,-23.25 l 7.07323,-17.75 h 4.48077 4.48077 l -0.65224,10.25 c -0.89973,14.13928 -3.42252,37.12904 -5.48678,50 l -1.72409,10.75 h 14.24409 14.24409 l 0.67184,-6.27349 c 0.3695,-3.45042 0.51782,-19.53792 0.32959,-35.75 l -0.34224,-29.47651 17.33114,0.29524 17.33114,0.29523 -0.43605,38.70477 c -0.36372,32.28541 -0.72077,39.81701 -2.15277,45.41094 -3.18529,12.44291 -9.88316,19.14869 -22.36728,22.39368 -5.93848,1.54359 -13.23136,1.77 -63.70618,1.97775 -31.35,0.12903 -59.823183,-0.18346 -63.273741,-0.69442 z m 52.757681,-39.58991 c 5.21127,-6.62505 -4.00039,-14.27683 -9.98394,-8.29328 -2.55523,2.55523 -2.53357,5.05196 0.0726,8.36514 2.80955,3.57176 7.06959,3.54087 9.91136,-0.0719 z m 23.79355,1.15002 c 2.69664,-1.8888 2.99438,-6.93291 0.56752,-9.61456 -2.06213,-2.27863 -7.08898,-2.37042 -9.51627,-0.17375 -3.89633,3.52613 -0.83029,11.34501 4.44875,11.34501 1.25263,0 3.27763,-0.70052 4.5,-1.5567 z"
     style="fill:#655956" />
  <path
     inkscape:connector-curvature="0"
     id="path100"
     d="M 68.47492,217.77884 C 54.809782,215.62279 48.239519,211.81574 43.658829,203.39951 40.991118,198.49804 37.97492,186.16108 37.97492,180.15097 v -2.91203 h 17 17 v 2.52746 2.52745 l 14.25,-0.27745 c 13.92017,-0.27104 14.2574,-0.32954 14.56955,-2.52746 0.27228,-1.91714 0.92846,-2.25 4.43555,-2.25 2.84524,0 4.82804,0.66893 6.42231,2.16667 1.3131,1.23359 3.60527,2.16666 5.32259,2.16666 1.71732,0 4.00949,-0.93307 5.32259,-2.16666 2.80233,-2.63266 12.35813,-3.16229 13.28897,-0.73655 0.94898,2.47302 5.65619,3.49713 9.20861,2.00345 1.74891,-0.73536 3.17983,-1.80875 3.17983,-2.3853 0,-0.59179 2.1856,-1.04827 5.01905,-1.04827 4.70609,0 4.98374,0.1403 4.45269,2.25 l -0.56636,2.25 14.49605,-0.3008 c 13.34959,-0.27702 14.54497,-0.45497 15.11469,-2.25 0.58096,-1.83043 1.64296,-1.9492 17.42843,-1.9492 h 16.80978 l -0.44317,4.75 c -2.28267,24.46614 -10.38445,33.27637 -33.31116,36.224 -11.42765,1.46922 -108.695045,1.1129 -118.5,-0.4341 z"
     style="fill:#5a4f4d" />
</svg>
