<?xml version="1.0" encoding="UTF-8" standalone="no"?>

<svg
   xmlns:dc="http://purl.org/dc/elements/1.1/"
   xmlns:cc="http://creativecommons.org/ns#"
   xmlns:rdf="http://www.w3.org/1999/02/22-rdf-syntax-ns#"
   xmlns:svg="http://www.w3.org/2000/svg"
   xmlns="http://www.w3.org/2000/svg"
   xmlns:sodipodi="http://sodipodi.sourceforge.net/DTD/sodipodi-0.dtd"
   xmlns:inkscape="http://www.inkscape.org/namespaces/inkscape"
   version="1.1"
   id="svg64"
   width="400"
   height="400"
   viewBox="0 0 400 400"
   sodipodi:docname="mongodb.svg"
   inkscape:version="0.92.2 5c3e80d, 2017-08-06">
  <metadata
     id="metadata70">
    <rdf:RDF>
      <cc:Work
         rdf:about="">
        <dc:format>image/svg+xml</dc:format>
        <dc:type
           rdf:resource="http://purl.org/dc/dcmitype/StillImage" />
        <dc:title></dc:title>
      </cc:Work>
    </rdf:RDF>
  </metadata>
  <defs
     id="defs68" />
  <sodipodi:namedview
     pagecolor="#ffffff"
     bordercolor="#666666"
     borderopacity="1"
     objecttolerance="10"
     gridtolerance="10"
     guidetolerance="10"
     inkscape:pageopacity="0"
     inkscape:pageshadow="2"
     inkscape:window-width="1259"
     inkscape:window-height="774"
     id="namedview66"
     showgrid="false"
     inkscape:zoom="0.8475"
     inkscape:cx="200"
     inkscape:cy="200"
     inkscape:window-x="0"
     inkscape:window-y="0"
     inkscape:window-maximized="0"
     inkscape:current-layer="svg64" />
  <path
     inkscape:connector-curvature="0"
     id="path3779"
     d="M -1.6401145,199.53982 V -0.4601771 h 200.0000045 200 v 199.9999971 200 h -200 -200.0000045 z"
     style="fill:#fefefe" />
  <path
     inkscape:connector-curvature="0"
     id="path3777"
     d="m 198.76772,392.56704 c -1.89419,-0.76594 -2.15057,-1.91916 -2.70931,-12.18661 -0.60389,-11.0973 -2.65198,-24.24419 -4.72065,-30.30237 -0.5706,-1.67103 -2.9935,-4.51065 -5.38421,-6.31026 -7.82645,-5.89137 -21.51603,-19.29523 -29.72534,-29.10493 -42.17117,-50.3924 -55.13568,-106.43813 -40.23588,-173.94028 9.6353,-43.651805 34.45715,-87.094087 64.7571,-113.335491 9.63248,-8.342245 13.63522,-13.61302 14.34248,-18.8860355 0.29582,-2.2055003 0.87433,-4.2179542 1.28558,-4.4721198 0.41125,-0.2541656 1.74026,1.8943054 2.95335,4.7743799 4.30551,10.2219764 10.41799,19.1613544 20.26059,29.6306964 20.32468,21.618895 31.1715,36.980961 42.79242,60.605803 16.43925,33.420337 23.86519,63.127167 23.94485,95.789407 0.0874,35.84891 -8.71867,68.25633 -26.64743,98.06549 -9.72106,16.16268 -25.173,34.16216 -39.09967,45.54599 -5.75072,4.70071 -9.64079,8.71401 -10.66223,11 -2.24087,5.01506 -3.54687,14.02308 -3.55369,24.51122 -0.006,9.16423 -2.38878,19.64622 -4.43841,19.5245 -0.58706,-0.0349 -2.00886,-0.44408 -3.15955,-0.90939 z"
     style="fill:#b1af8d" />
  <path
     inkscape:connector-curvature="0"
     id="path3775"
     d="m 195.08241,362.53982 c -0.28045,-0.825 -1.2726,-4.5001 -2.20477,-8.1669 -1.68825,-6.64091 -1.73376,-6.69904 -11.67696,-14.9153 -27.31812,-22.57348 -50.82183,-56.6259 -61.7541,-89.46996 -6.10766,-18.34941 -8.10302,-29.48327 -8.77537,-48.96559 -1.82057,-52.7542 14.23699,-104.975358 44.83088,-145.795465 3.37471,-4.50273 13.4315,-15.400992 22.34843,-24.218359 15.00569,-14.838159 16.31266,-16.422052 17.55694,-21.2769531 l 1.34434,-5.2453754 5.41922,10.5798065 c 4.32488,8.443369 7.36483,12.701002 15.05404,21.084137 21.21627,23.130947 31.84031,37.404861 41.97093,56.389962 11.11591,20.831577 22.27808,53.933017 25.29083,74.999997 2.1297,14.89221 1.6386,46.80428 -0.93875,61 -5.20941,28.69286 -15.79022,53.71478 -32.56035,77 -7.1265,9.8951 -24.5657,28.28524 -32.93817,34.73425 l -5.81033,4.4755 -3.68967,-3.93141 -3.68966,-3.9314 -4.63378,13.57653 c -2.54858,7.46709 -4.86325,12.90153 -5.1437,12.07653 z"
     style="fill:#9b9b75" />
  <path
     inkscape:connector-curvature="0"
     id="path3773"
     d="M 185.85989,343.41289 C 177.3688,336.65695 158.57647,317.67914 151.93355,309.1517 118.36128,266.05536 105.59282,220.78 111.8722,167.0992 118.29384,112.20225 141.39622,65.055953 179.31205,29.47099 192.47094,17.12104 194.80548,14.123571 195.91212,8.157072 l 0.72016,-3.8827509 5.1274,9.9784149 c 6.22603,12.116471 8.20476,14.772628 21.39841,28.724379 26.94612,28.494441 44.03532,59.084985 55.80258,99.889545 15.87175,55.0374 5.68327,115.15204 -27.38865,161.60005 -11.80768,16.58335 -35.53472,39.73538 -39.86718,38.90102 -4.83013,-0.93019 -9.62101,-13.05291 -11.73015,-29.68166 l -1.22351,-9.64625 -1.2606,11.68613 c -1.37635,12.75911 -4.56934,29.66682 -5.83407,30.89291 -0.43814,0.42476 -3.04662,-1.01793 -5.79662,-3.20597 z"
     style="fill:#4bad51" />
  <path
     inkscape:connector-curvature="0"
     id="path3771"
     d="m 184.85989,342.35576 c -36.36592,-30.25672 -62.45269,-71.83205 -70.91561,-113.02051 -8.33385,-40.56036 -1.0431,-93.57445 18.53773,-134.795427 6.10388,-12.849696 13.89821,-26.309801 14.74939,-25.470863 0.34567,0.340696 12.6701,36.24851 27.38763,79.79515 l 26.75914,79.17571 -0.53526,-86.5 C 200.358,63.175163 199.24308,15.450179 197.73692,8.5856468 c -0.30722,-1.4002032 0.79819,0.235012 2.45646,3.6338112 5.14241,10.539929 10.0924,17.461579 19.55125,27.338813 18.08249,18.882324 30.15232,35.539209 40.59673,56.025244 19.56769,38.380765 28.03281,76.877455 25.03293,113.841865 -3.66214,45.12486 -20.12178,82.61349 -50.40652,114.80635 -7.84473,8.339 -20.55082,19.30809 -22.36561,19.30809 -0.5693,0 -2.41127,-1.56739 -4.09327,-3.48308 -4.00933,-4.56637 -6.97985,-14.39581 -8.38618,-27.74984 -0.62167,-5.90311 -1.25037,-10.61287 -1.39711,-10.46612 -0.14674,0.14674 -0.77342,5.42656 -1.39262,11.73292 -1.19326,12.15291 -4.316,29.98633 -5.66585,32.35661 -0.63059,1.1073 -2.12021,0.32509 -6.80724,-3.57455 z"
     style="fill:#37a442" />
  <path
     inkscape:connector-curvature="0"
     id="path3769"
     d="m 186.24576,343.34218 c -6.26181,-4.53603 -23.02361,-20.99925 -30.53017,-29.98632 -14.92476,-17.86837 -28.55206,-41.69231 -35.69732,-62.40787 -11.72642,-33.99727 -12.62243,-71.58794 -2.69129,-112.90817 2.88092,-11.98657 10.16331,-34.0304 11.77456,-35.64165 0.46977,-0.46977 16.18177,45.0404 35.00566,101.39466 l 34.15333,102.24699 -1.39989,11 c -1.76008,13.83031 -4.52436,28.39656 -5.50378,29.00187 -0.41091,0.25396 -2.71091,-0.96082 -5.1111,-2.69951 z m 22.87332,-2.55236 c -8.20086,-8.62425 -11.45588,-33.08933 -8.81439,-66.25 2.18771,-27.46403 1.01932,-225.337493 -1.52637,-258.499997 l -0.53735,-7.0000001 3.83574,7.0000001 c 5.90399,10.774433 6.95386,12.161649 18.92042,25 19.47494,20.893724 30.37961,36.419821 41.46953,59.044377 7.63793,15.58216 16.64264,41.50469 19.80079,57.00203 1.12231,5.50726 2.52488,16.44981 3.11683,24.31678 4.00656,53.24719 -13.94341,104.0576 -50.48234,142.89871 -7.62953,8.11023 -20.48006,19.2381 -22.21628,19.2381 -0.52337,0 -2.12833,-1.2375 -3.56658,-2.75 z"
     style="fill:#27a03d" />
  <path
     inkscape:connector-curvature="0"
     id="path3767"
     d="m 208.99628,340.68218 c -3.78572,-3.95144 -7.26231,-14.69885 -8.73295,-26.99673 -1.00271,-8.385 -0.97618,-15.2321 0.13949,-36 2.18289,-40.63397 1.00848,-231.959097 -1.60913,-262.145627 l -0.56365,-6.5000001 3.84121,7.0000001 c 5.88914,10.732043 6.97187,12.170064 18.44694,24.5 22.78197,24.479188 36.041,44.472335 47.27418,71.284197 10.40752,24.84116 15.84337,46.34086 17.59191,69.57899 4.00656,53.24719 -13.94341,104.0576 -50.48234,142.89871 -7.62953,8.11023 -20.48006,19.2381 -22.21628,19.2381 -0.52337,0 -2.18359,-1.28594 -3.68938,-2.85764 z m -40.77637,-13.88443 c -33.35426,-34.41393 -51.97714,-72.1146 -56.93362,-115.25793 -1.44357,-12.56552 -0.73423,-34.58885 1.64265,-51 1.59097,-10.98479 2.02325,-12.85249 2.75817,-11.91667 0.89041,1.13383 62.82173,187.10105 62.43703,187.48576 -0.24573,0.24572 -4.70263,-3.9443 -9.90423,-9.31116 z"
     style="fill:#219038" />
  <path
     inkscape:connector-curvature="0"
     id="path3765"
     d="m 209.02647,340.55542 c -3.18536,-3.78558 -6.24538,-11.93306 -7.76999,-20.68801 -1.62743,-9.34542 -1.63642,-23.06867 -0.0359,-54.82759 0.98487,-19.54276 1.16371,-38.36484 0.64753,-68.14804 l -0.71315,-41.14804 2.85246,-0.58778 c 5.5757,-1.14892 71.59607,-11.61614 73.26702,-11.61614 2.96495,0 6.32539,15.73446 8.06764,37.77473 4.27878,54.12859 -15.31279,107.56032 -53.45006,145.77336 -8.07024,8.08628 -18.00259,16.45191 -19.53303,16.45191 -0.45172,0 -1.95136,-1.34298 -3.33252,-2.9844 z m -52.58543,-26.6626 c -25.98286,-31.12898 -40.84008,-64.80574 -45.15517,-102.353 -1.18758,-10.33358 -0.70068,-38.54424 0.75895,-43.97288 0.49649,-1.84653 7.32775,17.51387 26.97034,76.43631 14.46799,43.40006 26.13976,79.07488 25.93725,79.27738 -0.2025,0.2025 -4.03262,-4.02201 -8.51137,-9.38781 z"
     style="fill:#1a8c35" />
</svg>
