<?xml version="1.0" encoding="UTF-8" standalone="no"?>

<svg
   xmlns:dc="http://purl.org/dc/elements/1.1/"
   xmlns:cc="http://creativecommons.org/ns#"
   xmlns:rdf="http://www.w3.org/1999/02/22-rdf-syntax-ns#"
   xmlns:svg="http://www.w3.org/2000/svg"
   xmlns="http://www.w3.org/2000/svg"
   xmlns:sodipodi="http://sodipodi.sourceforge.net/DTD/sodipodi-0.dtd"
   xmlns:inkscape="http://www.inkscape.org/namespaces/inkscape"
   version="1.1"
   id="svg3862"
   width="256"
   height="256"
   viewBox="0 0 256 256"
   sodipodi:docname="mysql.svg"
   inkscape:version="0.92.2 5c3e80d, 2017-08-06">
  <metadata
     id="metadata3868">
    <rdf:RDF>
      <cc:Work
         rdf:about="">
        <dc:format>image/svg+xml</dc:format>
        <dc:type
           rdf:resource="http://purl.org/dc/dcmitype/StillImage" />
        <dc:title></dc:title>
      </cc:Work>
    </rdf:RDF>
  </metadata>
  <defs
     id="defs3866" />
  <sodipodi:namedview
     pagecolor="#ffffff"
     bordercolor="#666666"
     borderopacity="1"
     objecttolerance="10"
     gridtolerance="10"
     guidetolerance="10"
     inkscape:pageopacity="0"
     inkscape:pageshadow="2"
     inkscape:window-width="1268"
     inkscape:window-height="825"
     id="namedview3864"
     showgrid="false"
     inkscape:zoom="0.921875"
     inkscape:cx="128"
     inkscape:cy="128"
     inkscape:window-x="88"
     inkscape:window-y="0"
     inkscape:window-maximized="0"
     inkscape:current-layer="svg3862" />
  <path
     inkscape:connector-curvature="0"
     id="path3888"
     d="M 0.9152514,128.16949 V 0.1694915 h 127.9999986 128 v 127.9999985 128 h -128 H 0.9152514 Z"
     style="fill:#fefefe" />
  <path
     inkscape:connector-curvature="0"
     id="path3886"
     d="m 244.39185,216.93978 c -5.72591,-3.57809 -18.76107,-9.77029 -20.56738,-9.77029 -0.67203,0 -5.85186,-2.27242 -11.51074,-5.04982 -8.05169,-3.95181 -11.38797,-6.25242 -15.34367,-10.58059 -2.78015,-3.04192 -5.05481,-5.95564 -5.05481,-6.47493 0,-2.25567 13.79688,-5.43964 27.74267,-6.40231 5.99995,-0.41417 10.00089,-1.09826 9.65896,-1.65151 -0.32104,-0.51946 -3.13025,-2.22549 -6.24267,-3.79118 -3.11243,-1.56569 -9.60226,-4.87388 -14.42185,-7.35153 -4.81959,-2.47766 -11.11959,-5.04528 -14,-5.70582 -12.79181,-2.93346 -18.47593,-5.12819 -21.48549,-8.29591 -2.89503,-3.04717 -19.26974,-29.27721 -24.10767,-38.61718 C 140.6981,97.106995 117.9886,77.015726 95.908149,66.225568 82.998964,59.917175 74.002195,57.298783 61.115174,56.099525 52.866483,55.331908 48.77723,54.496629 46.964597,53.209099 43.898737,51.031391 38.351102,48.605798 30.915251,46.19184 c -11.74706,-3.813539 -16,-3.536573 -16,1.041975 0,2.176541 2.006626,4.980421 8.67946,12.127901 6.964151,7.459521 9.439318,10.977765 12.524341,17.802309 6.776682,14.991065 9.10718,18.880906 14.506961,24.213605 2.909081,2.87295 5.289238,5.97589 5.289238,6.89543 0,0.91953 -1.380614,4.62219 -3.068031,8.22811 -5.758287,12.30518 -5.730519,25.54136 0.07834,37.34082 5.099673,10.35891 9.308112,11.0262 10.449645,1.65691 0.908548,-7.45705 3.359499,-12.98319 7.575047,-17.07941 3.817707,-3.70964 4.762744,-3.95913 5.681806,-1.5 2.991727,8.00496 17.85855,28.62692 27.187702,37.71241 2.80252,2.72932 5.09549,5.29571 5.09549,5.70308 0,1.29168 -17.307776,-10.68147 -22.06781,-15.26605 -2.512297,-2.41969 -6.112297,-6.82107 -8,-9.78083 l -3.432189,-5.38139 -1.361516,6.38139 c -1.761221,8.25479 -2.998674,10.75971 -6.103122,12.35427 -8.306697,4.26662 -19.957112,-4.11707 -24.728977,-17.79508 -2.964914,-8.49859 -2.40964,-23.0159 1.292899,-33.80203 l 2.960425,-8.62422 -5.029854,-5.4047 C 37.644115,97.85756 30.814675,85.509514 27.963713,76.833098 27.158325,74.382039 23.349238,69.448062 17.415251,63.169491 6.5713563,51.695897 4.7343953,47.896687 7.6164818,42.903628 8.6432244,41.124853 11.042978,38.853722 12.949269,37.85667 c 6.937995,-3.628796 23.06754,-0.27637 37.498353,7.793799 5.351561,2.992764 7.240354,3.519144 12.630114,3.519841 14.038284,0.0018 28.307971,4.8245 47.806274,16.156955 19.7435,11.474964 38.53942,28.525149 46.06018,41.782175 6.89054,12.14612 15.66312,26.70867 20.51801,34.06005 l 4.95305,7.5 11.5,4.05531 c 12.85968,4.53479 20.35928,8.17217 32.93462,15.97366 8.46541,5.25176 15.99435,11.8754 14.82625,13.04349 -1.0086,1.00861 -7.78603,2.37465 -17.26087,3.47906 -15.49681,1.80634 -17.5,2.13813 -17.5,2.89853 0,1.49205 3.74545,3.9169 14.5,9.38746 6.20103,3.1543 14.32858,8.33674 18.62963,11.87895 10.99699,9.05679 13.38064,13.19894 4.34697,7.55383 z M 60.10311,74.277232 c -2.303323,-2.731604 -4.187859,-5.22332 -4.187859,-5.537146 0,-0.313827 1.609615,-0.570594 3.576923,-0.570594 4.881631,0 9.829743,4.724256 8.55747,8.170326 -1.390658,3.766724 -3.490838,3.221606 -7.946534,-2.062586 z"
     style="fill:#b1c9d3" />
  <path
     inkscape:connector-curvature="0"
     id="path3884"
     d="m 240.95226,214.63381 c -4.10465,-2.38865 -11.52965,-5.79103 -16.5,-7.56084 -4.97036,-1.76981 -12.35444,-5.0596 -16.40907,-7.31066 -8.41594,-4.67236 -16.813,-13.06244 -15.11771,-15.10514 2.36397,-2.84841 30.23354,-7.28272 36.11131,-5.74565 10.18612,2.66374 -18.34871,-13.67005 -31.12154,-17.81445 -3.575,-1.15998 -9.81758,-2.91947 -13.87241,-3.90996 -5.26475,-1.28605 -8.17908,-2.61806 -10.19406,-4.65926 -2.878,-2.91544 -19.06419,-28.80517 -23.66895,-37.85836 C 140.55239,95.741442 116.89652,75.31548 91.415251,63.928461 78.725583,58.257728 74.160425,57.032219 62.017693,56.036732 51.794742,55.198633 49.985122,54.747216 44.458409,51.656503 37.100462,47.541705 24.201307,43.169491 19.419538,43.169491 c -2.410464,0 -3.752935,0.596086 -4.504287,2 -1.486783,2.778081 -0.189906,4.885889 9.17917,14.918871 5.184227,5.55159 8.916054,10.66026 10.95733,15.000001 1.702555,3.61962 4.666672,9.891681 6.586927,13.937911 2.275128,4.793993 5.39144,9.241724 8.945734,12.767726 6.167067,6.11798 6.137392,5.63043 1.027115,16.87549 -2.881449,6.34057 -3.175969,7.89494 -3.126399,16.5 0.04254,7.38508 0.553747,10.76937 2.296273,15.20189 2.557894,6.50659 7.006997,11.79811 9.919836,11.79811 1.659543,0 2.098293,-0.91823 2.685878,-5.62111 1.032209,-8.26152 3.156789,-13.41058 7.273953,-17.62889 2.013043,-2.0625 4.012713,-3.75 4.443711,-3.75 0.430997,0 1.439593,1.56994 2.241323,3.48875 3.696827,8.84775 22.557204,34.23037 28.667608,38.58136 1.59585,1.13634 2.90154,2.46072 2.90154,2.94306 0,1.35118 -15.896674,-9.74418 -21.367376,-14.91373 -2.677058,-2.52969 -6.403385,-6.96194 -8.280729,-9.84944 -1.877343,-2.8875 -3.593829,-5.25 -3.814412,-5.25 -0.220584,0 -1.152701,3.37848 -2.071373,7.50773 -1.982848,8.91252 -4.421415,11.49437 -10.850968,11.48853 -7.604285,-0.007 -14.256762,-6.33846 -18.756251,-17.85144 -1.76506,-4.51631 -2.198682,-7.64402 -2.168979,-15.64482 0.03192,-8.59861 0.467102,-11.18589 3.105335,-18.46224 l 3.068209,-8.46223 -3.956903,-4.29274 C 38.221047,98.376183 34.522226,92.213097 30.199856,81.754986 27.028449,74.08167 25.267873,71.426034 18.872879,64.669492 8.4546373,53.662242 6.9152514,51.451827 6.9152514,47.499449 c 0,-12.554008 17.9395806,-14.36429 38.8392676,-3.919269 2.563403,1.281111 6.010732,3.016635 7.660732,3.856723 1.676263,0.853459 6.971212,1.76791 12,2.072432 11.769551,0.71271 21.169628,3.474724 34.388978,10.104478 27.700021,13.892084 48.465961,32.141571 59.964231,52.697687 8.60482,15.38332 19.98022,33.3756 22.54571,35.66019 1.15559,1.02907 6.60108,3.35382 12.10108,5.16611 10.31418,3.39859 21.8059,9.07703 34,16.80053 6.76535,4.28504 13.5,9.91754 13.5,11.29068 0,0.79076 -7.16498,2.17409 -23.25,4.48884 -6.4625,0.93 -11.75,2.06418 -11.75,2.52039 0,1.45967 6.29721,5.63775 13.1372,8.71627 3.65047,1.643 9.27547,4.82378 12.5,7.06841 6.98873,4.86493 17.06752,13.77436 16.3628,14.46435 -0.275,0.26925 -3.85835,-1.4648 -7.96299,-3.85346 z M 60.165251,74.216335 c -2.3375,-2.674706 -4.25,-5.129444 -4.25,-5.454972 0,-0.32553 1.514314,-0.591871 3.365141,-0.591871 6.213497,0 10.967947,6.266912 7.434859,9.8 -1.708512,1.708512 -1.845488,1.630026 -6.55,-3.753157 z"
     style="fill:#97b8c6" />
  <path
     inkscape:connector-curvature="0"
     id="path3882"
     d="m 241.1232,214.67304 c -4.01063,-2.35874 -11.43563,-5.78033 -16.5,-7.60353 -12.82582,-4.61736 -23.77874,-10.99498 -28.63015,-16.67065 -3.10707,-3.63496 -3.74652,-4.96333 -2.80184,-5.82046 2.6152,-2.37284 13.65183,-4.59404 25.47404,-5.12684 6.7375,-0.30365 12.25,-0.92236 12.25,-1.37492 0,-0.94219 -4.34318,-3.49541 -18.45919,-10.85158 -9.50165,-4.95153 -13.58048,-6.42171 -26.9505,-9.7141 -11.5242,-2.83785 -12.00644,-3.34805 -26.60664,-28.14902 C 143.46458,103.144 142.95288,102.41376 132.90806,92.270167 122.28684,81.544498 109.30305,72.360418 95.254265,65.63576 81.445964,59.026212 74.676288,57.061999 61.961465,55.975895 51.504834,55.082684 49.894242,54.664169 43.461465,51.16864 31.083398,44.442476 17.648262,41.376415 14.926028,44.656506 c -2.095962,2.52548 -0.324644,5.684736 8.238292,14.693511 8.750266,9.205861 8.899044,9.439012 16.577707,25.97893 3.836209,8.263233 6.210285,11.921084 10.56094,16.271733 3.086756,3.08676 5.612284,5.85298 5.612284,6.14715 0,0.29418 -1.635765,4.4469 -3.635034,9.22827 -5.966686,14.26967 -5.601115,27.28923 1.086673,38.70108 2.7287,4.65617 6.775262,8.08815 8.372577,7.10095 0.501692,-0.31006 1.219767,-2.93635 1.595722,-5.8362 1.115071,-8.60085 2.707797,-12.63597 6.841066,-17.33162 2.149933,-2.44245 4.231056,-4.44082 4.624717,-4.44082 0.393661,0 1.744648,2.11779 3.002193,4.70619 5.217506,10.7392 21.977314,32.92547 28.242285,37.38652 1.64172,1.16901 2.77064,2.33979 2.50869,2.60173 -0.75204,0.75204 -15.633067,-9.61572 -21.014823,-14.64125 -2.681763,-2.50426 -6.460963,-7.02819 -8.398222,-10.05319 -3.997001,-6.24125 -4.244302,-6.07378 -6.246095,4.22991 -1.472262,7.57807 -4.487679,10.15614 -11.139562,9.5239 -9.396067,-0.89305 -17.610523,-11.50972 -19.929125,-25.75714 -1.330374,-8.17491 -0.545745,-14.61963 3.178944,-26.11095 l 2.940998,-9.07349 -2.440037,-1.91934 C 41.087031,102.58625 36.002491,94.587354 30.874219,83.043609 26.470338,73.130469 24.884311,70.706136 18.526555,64.169492 8.5130518,53.87424 6.9113101,51.540559 6.9374872,47.284632 6.9802464,40.332783 11.961142,36.893588 21.822122,37.007128 c 8.781286,0.10111 18.307085,3.2714 31.593129,10.514536 1.727569,0.941817 5.332791,1.643692 8.5,1.654803 3.025,0.01061 9.743363,0.894833 14.929696,1.964932 15.853823,3.271126 40.070643,16.29104 57.328403,30.822009 9.84891,8.292738 20.09114,20.073172 23.81179,27.387912 5.75314,11.31056 21.56202,36.34077 24.57006,38.9018 1.02303,0.871 5.68505,2.83673 10.36005,4.3683 10.70698,3.5077 17.87338,6.88717 30.5,14.38294 9.70579,5.76182 19.51552,13.43842 18.5,14.47716 -0.59867,0.61237 -8.56343,2.05113 -23.5,4.24509 -6.05,0.88865 -11.18474,1.79908 -11.41054,2.02317 -1.15203,1.14336 4.33517,5.15695 11.79359,8.62637 4.61067,2.14473 10.91067,5.66091 14,7.81372 6.77647,4.72222 16.81188,13.61995 16.11695,14.28982 -0.275,0.26508 -3.78142,-1.44791 -7.79205,-3.80665 z M 62.566798,76.760438 c -0.86816,-1.324979 -2.768339,-3.687479 -4.222621,-5.25 l -2.644149,-2.840946 3.268223,-0.325337 c 5.902475,-0.587566 11.076303,5.554758 7.901319,9.380379 -1.662566,2.003269 -2.478229,1.820509 -4.302772,-0.964096 z"
     style="fill:#89abb8" />
  <path
     inkscape:connector-curvature="0"
     id="path3880"
     d="m 240.00613,214.07391 c -4.62501,-2.666 -11.37501,-5.80923 -15,-6.98497 -8.05195,-2.6116 -22.56899,-10.17732 -26.43016,-13.77438 -3.21153,-2.99186 -6.12223,-8.0169 -5.186,-8.95312 2.20251,-2.20251 19.05224,-5.17899 29.35861,-5.18616 6.1195,-0.004 8.2251,-0.33051 7.9259,-1.22809 -0.64785,-1.94356 -26.82276,-15.55134 -33.34323,-17.33444 -3.2538,-0.88979 -8.97079,-2.4381 -12.70443,-3.4407 -11.07584,-2.9742 -10.53828,-2.38624 -26.05919,-28.50256 C 143.19841,102.8084 142.84039,102.30072 132.84505,92.194006 121.95487,81.182477 108.30481,71.59119 93.915251,64.839789 c -12.832319,-6.020766 -21.592839,-8.431557 -33.5,-9.2188 -7.862528,-0.519834 -10.748115,-1.13752 -13.5,-2.8898 -10.762853,-6.853315 -29.094102,-11.563091 -31.890592,-8.193526 -2.299452,2.770669 -0.374605,6.353721 8.005949,14.902861 6.855663,6.993574 8.812815,9.805306 13.036609,18.728968 2.733453,5.775 5.729991,12.061083 6.658974,13.969072 0.928983,1.90799 4.249057,6.05686 7.377942,9.219706 6.405874,6.47541 6.344016,5.57428 1.222648,17.81122 -4.978794,11.89628 -4.198334,25.86259 2.040109,36.50769 2.703842,4.61376 6.772063,8.09012 8.336204,7.12343 0.481687,-0.2977 1.45672,-3.82399 2.16674,-7.8362 0.710019,-4.0122 2.094489,-8.86992 3.076598,-10.79492 2.106961,-4.12978 8.062605,-9.9623 8.619867,-8.44166 2.707513,7.38819 16.873661,27.63447 26.675141,38.12415 l 5.82619,6.23527 -7.32619,-4.83078 c -9.949258,-6.5604 -16.966102,-13.04855 -20.909975,-19.33448 -1.812515,-2.88888 -3.459614,-5.46447 -3.660221,-5.72354 -0.777986,-1.00472 -2.149183,2.60517 -3.293816,8.67149 -1.375336,7.28901 -4.161509,10.29955 -9.531936,10.29955 -4.822807,0 -7.742375,-1.39189 -11.917759,-5.68174 -4.907647,-5.04219 -7.345565,-10.01132 -9.164272,-18.67923 -1.83556,-8.74823 -1.2109,-14.84824 2.810382,-27.44426 l 2.970695,-9.30523 -2.590462,-2.03766 c -3.863737,-3.03922 -9.761532,-12.273403 -13.956603,-21.851878 -2.047503,-4.675 -4.193952,-9.469138 -4.769887,-10.653639 -0.575934,-1.184502 -4.313045,-5.459502 -8.304689,-9.5 C 7.5572647,53.017237 5.3872963,48.617094 8.0004638,42.881816 11.895207,34.333785 30.308054,35.40634 48.742035,45.255026 c 6.025946,3.21947 8.334039,3.917248 13,3.930134 10.561609,0.02917 23.57769,3.539207 36.59717,9.869139 28.839535,14.021473 49.845005,32.431123 61.613155,53.999101 6.59798,12.09239 20.64333,34.16194 22.69662,35.66334 0.85186,0.6229 5.42276,2.38469 10.15755,3.91511 14.83529,4.79516 35.58366,16.12683 44.34707,24.22003 4.59926,4.24751 4.67114,4.40152 2.44864,5.24652 -1.25934,0.4788 -6.14344,1.34193 -10.85356,1.91807 -12.67332,1.5502 -21.83343,3.26252 -21.83343,4.08136 0,1.6765 5.03549,5.21892 12.02118,8.45678 4.11335,1.90653 10.17882,5.27166 13.47882,7.47805 6.71794,4.49165 17.26882,13.71682 16.5,14.42678 -0.275,0.25395 -4.2841,-1.71954 -8.90912,-4.38553 z M 62.400808,76.419492 c -0.959454,-1.5125 -2.8954,-3.9875 -4.302101,-5.5 l -2.557638,-2.75 h 3.28272 c 6.431001,0 11.453847,6.237615 7.891462,9.8 -1.741896,1.741895 -2.369185,1.516537 -4.314443,-1.55 z"
     style="fill:#6493a7" />
  <path
     inkscape:connector-curvature="0"
     id="path3878"
     d="m 241.41525,214.53451 c -3.85,-2.36014 -11.5,-5.9346 -17,-7.94325 -15.31496,-5.59315 -25.46836,-11.79341 -29.61711,-18.08592 -1.02834,-1.55972 -1.87268,-3.1522 -1.8763,-3.53885 -0.018,-1.91979 20.26401,-5.79661 30.32674,-5.79683 5.80777,-1.3e-4 7.73257,-0.3234 7.44366,-1.25017 -0.60183,-1.9305 -26.47597,-15.46403 -33.77699,-17.66712 -3.575,-1.07877 -9.56433,-2.72518 -13.30963,-3.65869 -4.64326,-1.15733 -7.71301,-2.60068 -9.64927,-4.53694 C 171.32661,149.427 157.69767,127.62685 149.95754,113.66949 133.00713,83.10371 89.07727,55.169491 57.95938,55.169491 c -4.85255,0 -7.155487,-0.701891 -14.353062,-4.374538 -4.71522,-2.405996 -12.231734,-5.361737 -16.703366,-6.568313 -7.528398,-2.03138 -8.310027,-2.075973 -10.55897,-0.602409 -4.5322,2.969612 -3.293194,5.598581 8.504547,18.04526 6.773444,7.14602 8.157822,9.316771 12.9687,20.335361 4.49401,10.292851 6.355466,13.338714 11.241911,18.394918 3.220861,3.33275 5.856111,6.93141 5.856111,7.99702 0,1.06561 -1.4625,5.1629 -3.25,9.10509 -3.041516,6.70781 -3.248752,7.87325 -3.23054,18.16761 0.01796,10.15335 0.245169,11.4488 2.951938,16.83103 2.896917,5.76031 7.478822,10.66897 9.958777,10.66897 0.808925,0 1.712272,-2.65644 2.46543,-7.25 1.39701,-8.52045 3.946222,-14.26622 8.091422,-18.23757 1.645661,-1.57664 3.109305,-2.67443 3.252542,-2.43953 0.143237,0.23491 1.385431,2.66698 2.760431,5.40461 5.070636,10.09566 13.877173,22.17588 23.973189,32.88483 l 5.52681,5.86234 -6.5,-4.2624 c -10.197135,-6.6868 -16.407688,-12.38513 -20.615676,-18.91537 -2.136378,-3.31537 -4.334323,-5.8849 -4.884323,-5.71006 -0.55,0.17484 -1.576007,3.19518 -2.280017,6.71186 -0.704009,3.51668 -1.938103,7.39833 -2.742432,8.6259 -1.653208,2.52311 -7.044071,3.8979 -11.220978,2.86159 -4.34581,-1.07822 -12.716132,-10.39301 -14.69621,-16.35446 -4.063416,-12.2338 -3.801709,-21.13338 1.054895,-35.87268 l 2.698917,-8.19095 -4.665334,-4.73218 C 39.284209,99.214217 32.556301,87.170019 27.49332,74.785772 26.620052,72.649726 22.13999,67.024726 17.537625,62.285772 12.93526,57.546817 8.662441,52.686575 8.0424705,51.485233 6.1668233,47.850715 6.7580622,44.376685 9.8379501,40.935268 12.729397,37.704411 12.855035,37.670085 21.58795,37.725073 c 9.892493,0.06229 17.398073,2.221486 27.989786,8.052064 3.83183,2.109363 7.54139,3.392354 9.808447,3.392354 12.420901,0 25.756633,3.626641 40.563523,11.031212 18.160754,9.081759 28.970234,16.818994 42.465544,30.396077 9.90881,9.96885 12.77095,13.55397 16.42399,20.57271 4.96231,9.5343 21.61166,36.40976 23.40975,37.78813 0.64144,0.49171 6.11626,2.57198 12.16626,4.62283 11.36532,3.85263 22.5099,9.37368 34.23585,16.96049 6.86686,4.44293 13.06281,10.16322 12.07657,11.14947 -0.29798,0.29797 -5.66517,1.20861 -11.9271,2.02362 -14.82918,1.93009 -22.88532,3.52034 -22.88532,4.51747 0,1.32997 5.52144,4.84256 14.75894,9.38923 8.40449,4.13667 16.27393,9.52971 24.71763,16.93936 2.18712,1.91927 3.76212,3.66419 3.5,3.87759 -0.26211,0.21339 -3.62657,-1.54303 -7.47657,-3.90317 z M 63.915251,78.349491 c 0,-0.451002 -1.582441,-2.668729 -3.516535,-4.928284 -3.423962,-4.000129 -3.456869,-4.118105 -1.25,-4.481476 3.04355,-0.501135 7.478229,1.746027 8.251065,4.18102 0.677497,2.134603 -0.953009,6.048741 -2.519714,6.048741 -0.530649,0 -0.964816,-0.369001 -0.964816,-0.820001 z"
     style="fill:#01608a" />
  <path
     inkscape:connector-curvature="0"
     id="path3876"
     d="m 246.9628,217.72679 c -1.51073,-1.82032 -17.92519,-9.89009 -24.51198,-12.05072 -9.07297,-2.97616 -20.23166,-9.47426 -24.97205,-14.54213 -2.50994,-2.68332 -4.56352,-5.29267 -4.56352,-5.79854 0,-0.50588 2.7,-1.59991 6,-2.43118 3.3,-0.83127 6,-1.11165 6,-0.62307 0,0.48859 -1.0125,0.92258 -2.25,0.96442 -1.2375,0.0418 -3.71747,0.60828 -5.51104,1.25876 l -3.26104,1.18269 3.0123,3.65444 c 3.63425,4.40897 16.30333,11.90065 25.10347,14.84458 3.52347,1.17871 9.10631,3.46709 12.40631,5.08528 l 6,2.94218 -3,-2.59429 c -5.04553,-4.36319 -10.51466,-7.55869 -11.69171,-6.83124 -0.62556,0.38662 -0.84037,0.24244 -0.48807,-0.32758 0.3529,-0.57102 -2.48415,-2.45317 -6.46039,-4.28594 -3.89928,-1.7973 -8.5898,-4.585 -10.42336,-6.19488 -1.83356,-1.60989 -3.68311,-2.867 -4.11011,-2.79358 -0.427,0.0734 -0.93437,-0.46275 -1.12749,-1.1915 -0.28812,-1.08721 -0.18298,-1.08563 0.58584,0.009 0.76757,1.0927 1.0403,1.06455 1.50856,-0.15571 0.31437,-0.81925 1.95592,-1.7936 3.64789,-2.16522 1.69196,-0.37161 2.89224,-0.97655 2.66728,-1.34429 -0.22496,-0.36775 1.23361,-0.70211 3.24127,-0.74304 8.0514,-0.16412 19.12936,-1.65043 18.60652,-2.49641 -0.31551,-0.5105 0.87044,-0.61659 2.74406,-0.24547 2.98689,0.59164 3.17047,0.49645 1.9364,-1.00405 -0.74982,-0.9117 -1.73122,-1.43025 -2.1809,-1.15234 -0.44968,0.27792 -1.14322,-0.0216 -1.5412,-0.66552 -0.45192,-0.73122 -0.29014,-0.90292 0.4309,-0.45729 0.63498,0.39244 1.15363,0.34947 1.15256,-0.0955 -0.003,-1.08599 -13.58692,-9.70298 -23.49805,-14.90563 -4.4,-2.30969 -12.275,-5.61948 -17.5,-7.3551 -12.86576,-4.2737 -13.56091,-4.68893 -17.11062,-10.22068 -3.18857,-4.96895 -4.32898,-5.74469 -5.25938,-3.57761 -0.29517,0.6875 -0.37783,0.0972 -0.18368,-1.31182 0.22817,-1.65592 -0.86953,-4.48482 -3.10424,-8 -1.90148,-2.991 -5.49277,-9.15068 -7.98064,-13.68818 -2.84884,-5.19585 -5.14128,-8.25567 -6.19242,-8.26531 -1.38325,-0.0127 -1.42423,-0.17023 -0.23935,-0.92006 1.17956,-0.74647 0.95198,-1.53101 -1.3009,-4.48469 -2.91313,-3.81931 -4.24236,-4.6213 -3.21287,-1.9385 0.53419,1.39206 0.39132,1.44346 -0.94034,0.33827 -1.1963,-0.99283 -1.27667,-1.4846 -0.3375,-2.06503 0.87579,-0.54127 0.1,-2.014556 -2.67953,-5.088273 -2.15173,-2.379523 -4.4534,-4.332145 -5.11481,-4.33916 -0.66141,-0.007 -1.57182,-0.416661 -2.02314,-0.910325 -0.4689,-0.51289 -0.28485,-0.589275 0.42942,-0.178229 0.6875,0.395638 1.25,0.398452 1.25,0.0063 0,-1.226534 -8.36624,-7.922438 -9.4604,-7.571612 -0.57178,0.183334 -0.70994,0.0037 -0.30702,-0.399251 0.81946,-0.819454 -8.40075,-8.272023 -15.07967,-12.188691 -3.58295,-2.101122 -4.50312,-2.302799 -5.23469,-1.147312 -1.33367,2.106475 -1.13063,2.719353 1.33178,4.02005 3.11877,1.6474 13.38352,9.551369 18.52706,14.266038 2.48445,2.277294 3.98493,3.159165 3.58006,2.10409 -0.49423,-1.287942 -0.34129,-1.596506 0.52573,-1.060661 0.6725,0.415627 1.0404,1.276947 0.81756,1.914045 -0.22283,0.637097 1.68893,3.633359 4.24836,6.658359 2.55942,3.025002 6.02364,7.406852 7.69826,9.737442 1.67461,2.3306 3.41124,3.9056 3.85918,3.5 0.44794,-0.40559 0.51158,-0.20866 0.14141,0.43762 -0.90353,1.57752 1.37812,6.42706 2.65312,5.63907 0.57355,-0.35447 0.69974,-0.12393 0.29268,0.53472 -1.10252,1.7839 7.48525,15.03475 9.36258,14.44638 1.08472,-0.33995 1.18438,-0.22273 0.33505,0.39409 -0.9013,0.65455 -0.44581,2.2142 1.78986,6.12871 1.64935,2.8879 3.39978,5.00292 3.88986,4.70004 0.49007,-0.30288 1.21666,-0.0238 1.61464,0.62013 0.45192,0.73122 0.29014,0.90292 -0.4309,0.45729 -2.11207,-1.30533 -1.19306,1.08095 1.93216,5.01701 1.69768,2.13812 3.24063,4.04295 3.42879,4.23295 0.72017,0.7272 22.81566,6.15676 23.25736,5.71507 0.2559,-0.25591 1.14473,0.21417 1.97517,1.04461 0.83044,0.83044 2.22565,1.23523 3.10047,0.89953 0.87482,-0.3357 1.27869,-0.29848 0.8975,0.0827 -0.99151,0.99151 6.13009,4.60727 7.45801,3.78657 0.62811,-0.3882 0.82473,-0.2294 0.45557,0.36793 -0.37875,0.61282 2.88657,2.82726 7.83333,5.31233 8.95904,4.50069 12.49715,7.37704 10.9335,8.88852 -0.5095,0.4925 -3.85137,1.09657 -7.42637,1.34237 -3.575,0.2458 -9.425,0.68287 -13,0.97126 -4.57222,0.36884 -5.77992,0.25033 -4.07208,-0.39959 1.33536,-0.50817 7.30501,-1.20299 13.2659,-1.54405 10.62353,-0.60784 10.80344,-0.65825 9.09312,-2.54814 -0.95967,-1.06042 -5.57932,-3.85555 -10.2659,-6.2114 -4.68657,-2.35585 -10.23361,-5.25047 -12.32676,-6.43248 -3.32417,-1.87718 -18.83634,-6.80547 -26.99313,-8.57585 -5.71252,-1.24004 -12.24857,-9.99334 -27.28787,-36.54502 C 146.26454,106.69812 139.87889,98.362191 130.69272,89.620365 109.4918,69.444932 80.029121,55.169491 59.590545,55.169491 c -7.053405,0 -8.406665,-0.330271 -13.50703,-3.296469 -5.699639,-3.314717 -17.92329,-8.030708 -23.859612,-9.205248 -3.080877,-0.609572 -7.092216,0.70381 -8.436084,2.762119 -1.344727,2.059624 0.752791,5.328132 9.160921,14.275234 5.631917,5.992931 9.703129,11.371814 11.452714,15.131324 9.145104,19.651006 10.551956,22.070288 15.467122,26.597929 2.932327,2.70113 5.046675,5.51398 5.046675,6.7139 0,1.13582 -1.446878,5.09274 -3.215285,8.79317 -3.034027,6.34876 -3.217241,7.37634 -3.25,18.22804 -0.03055,10.11897 0.253069,12.10045 2.361698,16.5 2.850107,5.94661 7.80201,11.5 10.254441,11.5 1.257742,0 1.930973,-1.0679 2.364103,-3.75 2.142861,-13.26942 3.544072,-16.70737 8.731061,-21.42214 l 2.939772,-2.67213 3.506452,6.81653 c 4.167177,8.10099 16.024735,24.17809 23.479967,31.83538 l 5.32779,5.47219 -8.999999,-6.28996 c -11.603355,-8.1094 -13.665322,-10.06932 -18.661826,-17.73825 -2.276019,-3.49337 -4.484296,-5.99159 -4.907283,-5.5516 -0.422986,0.43999 -1.22151,3.27498 -1.774496,6.29998 -1.507198,8.24482 -2.679504,10.55982 -6.055605,11.95825 -4.610975,1.90993 -9.620998,0.5252 -14.555132,-4.02293 -9.732928,-8.9715 -13.199669,-26.34736 -8.49383,-42.57243 1.254282,-4.32459 2.857034,-9.03221 3.561671,-10.46137 1.197108,-2.42802 1.017802,-2.85445 -2.733105,-6.5 C 39.764531,99.681201 35.229107,92.224018 30.273222,80.693114 26.950189,72.961381 25.145994,70.372067 17.26137,62.018985 7.4686522,51.644441 5.8054329,48.276147 8.0947649,43.455103 10.280023,38.853222 15.247324,36.944674 23.415251,37.568627 c 8.963646,0.68474 21.350719,4.917503 28.582675,9.766933 1.672483,1.121493 6.29614,2.109563 13.11965,2.803652 14.249521,1.449464 20.330436,3.171478 33.478883,9.48066 17.862891,8.571371 30.216211,17.268276 43.318791,30.497005 10.20756,10.305833 12.31632,13.068473 18.76348,24.581663 3.99491,7.13402 10.51991,17.92036 14.5,23.96964 l 7.23652,10.9987 12,4.12097 c 12.37319,4.24913 18.17898,7.05874 32.08922,15.52896 8.73964,5.32175 15.24725,11.21768 13.5436,12.27059 -0.57254,0.35385 -4.99915,1.09732 -9.8369,1.65214 -11.2699,1.2925 -24.29592,3.98592 -24.29592,5.02371 0,1.39096 6.37653,5.74057 12.17509,8.30497 3.06479,1.3554 7.99168,3.92938 10.94863,5.71995 5.96892,3.61447 19.87628,14.88022 19.87628,16.10091 0,1.16003 -0.61248,0.95227 -1.95245,-0.66229 z M 92.708146,164.96767 c -2.444241,-2.914 -5.438728,-6.74035 -6.654414,-8.50301 -1.501473,-2.17702 -2.760049,-3.02871 -3.92441,-2.65567 -1.274596,0.40836 -1.376416,0.30694 -0.397125,-0.39556 1.384668,-0.9933 1.561993,-0.57001 -5.019735,-11.98273 l -2.444514,-4.23878 -2.426348,2.73878 c -3.849209,4.34487 -4.822889,6.68394 -6.015674,14.45141 -0.615482,4.00806 -1.573687,7.84556 -2.129343,8.52778 -1.024511,1.25786 -7.749692,1.32975 -7.446338,0.0796 0.09075,-0.374 -1.409994,-2.37645 -3.334994,-4.44988 -1.925,-2.07343 -2.977429,-3.45305 -2.33873,-3.06581 0.638698,0.38723 0.325727,-1.02532 -0.695492,-3.139 -3.267189,-6.7623 -4.484147,-16.22821 -3.071785,-23.89338 0.681834,-3.70045 1.709962,-7.29471 2.284728,-7.98727 0.574767,-0.69255 0.774841,-1.96328 0.444609,-2.82385 -0.330232,-0.86057 -0.199411,-1.31684 0.290713,-1.01392 0.490124,0.30291 1.36156,-0.79872 1.936526,-2.44807 0.574966,-1.64935 0.827968,-2.99882 0.562228,-2.99882 -0.265741,0 -0.02743,-0.85154 0.529568,-1.89231 0.836749,-1.56348 0.314513,-2.56267 -3.005293,-5.75 -2.209915,-2.12173 -4.483261,-3.734039 -5.051879,-3.582911 -0.568619,0.151131 -0.767969,-0.155433 -0.443,-0.681245 0.324969,-0.52581 -0.511309,-2.580146 -1.858396,-4.56519 -1.347087,-1.985042 -3.230784,-5.728483 -4.185992,-8.318755 -0.955208,-2.590273 -2.303415,-5.384587 -2.996014,-6.209587 -0.6926,-0.825 -1.225308,-1.725 -1.183797,-2 0.258411,-1.711894 -1.539784,-4.919157 -2.444499,-4.360012 -0.658938,0.407246 -0.792867,0.200373 -0.342277,-0.528696 0.41971,-0.679106 -0.33496,-2.586272 -1.742877,-4.404508 -3.854505,-4.977853 -15.45252,-16.589778 -16.104572,-16.123887 -0.321073,0.229407 -0.395555,0.153889 -0.165517,-0.167817 0.230039,-0.321706 -0.146977,-2.217547 -0.837814,-4.212981 -1.237232,-3.573658 -1.20607,-3.654859 2.078123,-5.415081 1.833805,-0.982861 4.348321,-1.781213 5.587815,-1.774118 2.545743,0.01457 13.730506,3.369175 16.914084,5.072975 1.620501,0.867266 2.287755,0.814672 2.951401,-0.232631 0.685976,-1.08254 0.860577,-1.036557 0.872826,0.229872 0.01858,1.921014 12.306497,8.543333 12.846491,6.92335 0.227771,-0.683315 0.793374,-0.746578 1.516068,-0.169576 0.634015,0.506203 4.752754,1.136801 9.152754,1.401333 5.589289,0.336031 10.71205,1.464855 17,3.746031 4.95,1.795787 9.975,3.32147 11.166667,3.390406 1.191666,0.06894 2.091666,0.57534 2,1.12534 -0.09167,0.55 0.650833,0.9325 1.65,0.85 0.999166,-0.0825 1.547553,0.119114 1.218636,0.448031 -0.328917,0.328917 0.428583,1.149277 1.683333,1.823023 1.880863,1.00994 2.588583,0.947967 4.031363,-0.353018 1.07905,-0.973001 1.75,-1.135189 1.75,-0.423024 0,0.635244 -0.45,1.154988 -1,1.154988 -1.91427,0 -0.9679,1.51107 2.00632,3.20349 2.50381,1.424737 2.99368,1.465645 2.99368,0.25 0,-0.79942 0.47656,-1.45349 1.05902,-1.45349 0.58246,0 0.76194,-0.480678 0.39885,-1.068174 -0.3631,-0.587495 -1.31303,-0.81765 -2.11096,-0.511454 -0.79793,0.306196 -1.20216,0.154435 -0.89828,-0.337246 0.48799,-0.789588 -7.09258,-4.866425 -17.448629,-9.383886 -5.581153,-2.434581 -10.883143,-3.889496 -11.895039,-3.26411 -0.513777,0.317531 -1.097392,0.08758 -1.296923,-0.511016 -0.214867,-0.644602 -4.632712,-1.30507 -10.83541,-1.619895 C 59.67881,51.158561 54.529656,50.388304 53.239953,49.581718 51.559506,48.53076 50.951878,48.499746 50.5689,49.445385 c -0.275622,0.68056 -0.53081,0.422076 -0.574702,-0.582124 -0.09074,-2.07602 -8.423481,-6.216904 -10.244982,-5.091155 -0.653888,0.404125 -0.871089,0.266469 -0.507584,-0.321693 0.374246,-0.605543 -1.720028,-1.671346 -5.095492,-2.593162 -7.199614,-1.966165 -11.336309,-2.358675 -13.135998,-1.246406 -0.958826,0.592587 -1.177698,0.501648 -0.690383,-0.286846 0.422801,-0.684103 0.07831,-1.154508 -0.845491,-1.154508 -0.857459,0 -1.559017,0.480325 -1.559017,1.067388 0,0.62683 -0.860602,0.794244 -2.085076,0.405611 -1.442097,-0.457704 -2.837873,0.04544 -4.526277,1.631613 -2.0919126,1.96525 -2.3656759,2.935568 -1.9133485,6.781615 0.5451039,4.634906 1.0917155,5.416233 9.9577235,14.233585 3.661558,3.641463 5.167909,4.580448 5.844333,3.64307 0.628063,-0.870361 0.725511,-0.690742 0.313526,0.577901 -0.333109,1.025755 0.197007,3.018181 1.197295,4.5 0.987294,1.46257 2.865769,5.021718 4.174389,7.909218 1.30862,2.8875 2.778946,5.25 3.267389,5.25 0.488444,0 0.642212,0.397823 0.341707,0.884051 -0.975969,1.57915 5.760001,13.221245 10.563892,18.258077 2.574582,2.69942 4.873568,4.55925 5.108858,4.13295 0.501753,-0.90907 0.344541,-0.43512 -3.557531,10.72492 -3.006276,8.59804 -4.63837,21.21096 -3.19553,24.69526 0.411035,0.99261 0.860166,2.92974 0.998067,4.30474 0.775403,7.73147 10.033712,19.44471 16.298301,20.61995 6.120403,1.1482 8.381253,-1.12721 10.791079,-10.86058 2.407127,-9.72246 2.936973,-10.80069 5.23022,-10.64337 1.584847,0.10872 1.585002,0.14396 0.0025,0.56148 -1.534609,0.40488 -1.511821,0.62218 0.25,2.384 1.066184,1.06619 2.415074,1.93852 2.997533,1.93852 0.582459,0 0.764571,0.47642 0.404692,1.05872 -0.359879,0.5823 0.586731,2.84956 2.103578,5.03837 2.816866,4.06474 13.534316,14.13464 14.265439,13.40352 0.222335,-0.22234 -1.595589,-2.78843 -4.039831,-5.70243 z m -26.792895,-3.19119 c 0,-0.21616 0.698372,-0.661 1.551938,-0.98855 0.889925,-0.34149 1.291322,-0.17385 0.940983,0.39301 -0.587258,0.95021 -2.492921,1.40545 -2.492921,0.59554 z m 133.499999,26.39301 c -0.33992,-0.55 -0.14148,-1 0.44098,-1 0.58246,0 1.05902,0.45 1.05902,1 0,0.55 -0.19844,1 -0.44098,1 -0.24254,0 -0.7191,-0.45 -1.05902,-1 z m -25.93571,-44.29313 c 0.37553,-0.98622 0.93469,-1.54122 1.24258,-1.23333 0.30789,0.30789 6.4e-4,1.11479 -0.68278,1.79313 -0.98762,0.98026 -1.10248,0.8654 -0.5598,-0.5598 z m -5.56429,-7.76589 c 0,-0.58246 0.45,-0.7809 1,-0.44098 0.55,0.33992 1,0.81648 1,1.05902 0,0.24254 -0.45,0.44098 -1,0.44098 -0.55,0 -1,-0.47656 -1,-1.05902 z m -5.54112,-8.00751 c -0.36253,-0.58659 -0.44468,-1.281 -0.18255,-1.54313 0.26212,-0.26213 0.74306,0.21781 1.06875,1.06653 0.67618,1.76211 0.0999,2.07206 -0.8862,0.4766 z m -18,-28 c -0.36253,-0.586591 -0.44468,-1.280999 -0.18255,-1.543127 0.26212,-0.262129 0.74306,0.21781 1.06875,1.066531 0.67618,1.762106 0.0999,2.072056 -0.8862,0.476596 z M 130.91525,85.169492 c 0,-0.55 0.47656,-1 1.05902,-1 0.58246,0 0.7809,0.45 0.44098,1 -0.33992,0.55 -0.81648,1 -1.05902,1 -0.24254,0 -0.44098,-0.45 -0.44098,-1 z M 63.915251,78.172373 c 0,-0.548416 -1.627363,-2.798416 -3.616362,-5 l -3.616363,-4.002881 h 3.616363 c 2.283029,0 4.353751,0.737388 5.616362,2 2.268526,2.268525 2.435434,3.317867 0.964816,6.065741 -1.090767,2.038118 -2.964816,2.630479 -2.964816,0.93714 z m 1.697214,-4.211175 c -0.658468,-0.418594 -0.747214,-0.782283 -0.197214,-0.808197 1.481332,-0.06979 -2.653387,-2.983509 -4.233761,-2.983509 -0.863927,0 -0.356001,1.247622 1.407909,3.45826 1.846299,2.313894 3.001118,3.067171 3.489845,2.276393 0.401739,-0.650026 0.191688,-1.524354 -0.466779,-1.942947 z"
     style="fill:#005d87" />
  <path
     inkscape:connector-curvature="0"
     id="path3874"
     d="m 245.20377,216.8251 c -1.76631,-1.18559 -3.22881,-2.73784 -3.25,-3.44945 -0.0212,-0.71161 -0.60102,-1.22079 -1.28852,-1.13151 -0.6875,0.0893 -1.925,0.10211 -2.75,0.0285 -1.20663,-0.10763 -1.2395,-0.29893 -0.16806,-0.97814 1.00211,-0.63526 0.38304,-1.65303 -2.5,-4.11007 -2.10757,-1.79615 -3.15694,-2.9066 -2.33194,-2.46768 2.55766,1.36074 16,12.84748 16,13.67231 0,0.96629 0.15632,1.03216 -3.71148,-1.56398 z m -13.03852,-7.24005 c -1.7875,-0.78171 -3.25,-1.6216 -3.25,-1.86641 0,-0.73789 5.96068,1.57822 6.56086,2.54932 0.66654,1.07849 0.76175,1.09813 -3.31086,-0.68291 z m -14.25,-5.41556 c -1.82797,-1.18132 -0.24909,-1.18132 2.5,0 1.31874,0.56668 1.48906,0.87815 0.5,0.9144 -0.825,0.0302 -2.175,-0.38124 -3,-0.9144 z m 0.25,-6.49087 c -1.7875,-0.77692 -3.25,-1.63634 -3.25,-1.90983 0,-0.48031 7.07119,2.20448 7.91667,3.0058 0.87398,0.82833 -1.54801,0.25953 -4.66667,-1.09597 z m -13.74292,-0.49768 c -0.35034,-0.56686 0.0511,-0.7345 0.94098,-0.39301 1.73242,0.66479 2.04939,1.38156 0.61096,1.38156 -0.51754,0 -1.21592,-0.44485 -1.55194,-0.98855 z m -7.37972,-6.48911 c -2.27005,-2.46271 -4.11368,-5.05021 -4.09695,-5.75 0.0167,-0.69979 0.52519,-0.37234 1.12993,0.72766 0.60474,1.1 2.70738,3.6875 4.67254,5.75 1.96516,2.0625 3.314,3.75 2.99743,3.75 -0.31658,0 -2.4329,-2.01495 -4.70295,-4.47766 z m 11.60048,1.40486 c -2.05031,-1.69005 -3.71416,-3.60255 -3.69743,-4.25 0.0167,-0.64746 0.48816,-0.39136 1.04762,0.56911 0.55947,0.96047 2.67525,2.87297 4.70173,4.25 2.02648,1.37703 3.23258,2.50369 2.68022,2.50369 -0.55236,0 -2.68182,-1.38276 -4.73214,-3.0728 z m -0.22784,-5.77356 c 3.09232,-1.32385 8.27556,-2.34626 6.5,-1.28215 -0.825,0.49444 -3.075,1.17784 -5,1.51867 -2.36102,0.41804 -2.84915,0.34107 -1.5,-0.23652 z m 13.76903,-2.84663 c 0.97297,-0.25354 2.32297,-0.23687 3,0.0371 0.67703,0.27393 -0.11903,0.48137 -1.76903,0.46099 -1.65,-0.0204 -2.20394,-0.2445 -1.23097,-0.49804 z m 9,-1 c 0.97297,-0.25354 2.32297,-0.23687 3,0.0371 0.67703,0.27393 -0.11903,0.48137 -1.76903,0.46099 -1.65,-0.0204 -2.20394,-0.2445 -1.23097,-0.49804 z m 7.55767,-1.17874 c 1.89598,-1.20202 -4.44101,-6.38106 -16.71901,-13.66397 -5.49091,-3.25702 -9.83228,-6.07304 -9.6475,-6.25782 0.66306,-0.66306 19.89228,11.37353 24.17467,15.13221 4.08443,3.58492 4.84809,5.68189 2.05612,5.646 -0.81723,-0.0105 -0.77464,-0.27927 0.13572,-0.85642 z m -29.0142,-0.81138 c 0.72187,-0.28887 1.58437,-0.25335 1.91667,0.0789 0.33229,0.33229 -0.25834,0.56864 -1.3125,0.52522 -1.16495,-0.048 -1.4019,-0.28494 -0.60417,-0.60416 z m 9,-1 c 0.72187,-0.28887 1.58437,-0.25335 1.91667,0.0789 0.33229,0.33229 -0.25834,0.56864 -1.3125,0.52522 -1.16495,-0.048 -1.4019,-0.28494 -0.60417,-0.60416 z m 10,0 c 0.72187,-0.28887 1.58437,-0.25335 1.91667,0.0789 0.33229,0.33229 -0.25834,0.56864 -1.3125,0.52522 -1.16495,-0.048 -1.4019,-0.28494 -0.60417,-0.60416 z m -126.09018,-3.67712 c -2.01769,-1.84813 -3.905626,-3.19813 -4.19542,-3 -0.289795,0.19813 -0.327011,0.0853 -0.0827,-0.25063 0.244307,-0.33598 -1.775788,-3.27844 -4.4891,-6.53882 -6.769368,-8.13422 -15.954575,-21.85032 -14.632419,-21.85032 0.216176,0 1.997648,2.59966 3.958826,5.77702 4.458295,7.22301 12.27156,17.12012 18.925453,23.97298 5.7577,5.92988 6.03458,6.94518 0.51536,1.88977 z m 126.86037,0.45161 c -0.95,-1.04975 -3.05918,-2.46032 -4.68705,-3.13461 -1.62787,-0.67428 -2.74067,-1.44508 -2.47288,-1.71287 0.70713,-0.70713 9.57724,4.66301 9.57724,5.79825 0,1.38354 -0.47322,1.19741 -2.41731,-0.95077 z M 94.787696,170.41949 c -1.243871,-1.58606 -1.208501,-1.62143 0.377555,-0.37756 1.665748,1.30637 2.195479,2.12756 1.372445,2.12756 -0.207656,0 -0.995156,-0.7875 -1.75,-1.75 z m -33.122445,-1.91228 c 0.6875,-0.27741 1.8125,-0.27741 2.5,0 0.6875,0.27741 0.125,0.50439 -1.25,0.50439 -1.375,0 -1.9375,-0.22698 -1.25,-0.50439 z m 151.999999,-0.90969 c -3.87722,-2.10343 -3.43809,-2.82933 0.5,-0.82653 3.76952,1.91707 4.43665,2.41393 3.16667,2.35846 -0.50417,-0.022 -2.15417,-0.71139 -3.66667,-1.53193 z M 51.706299,163.40113 c -3.574494,-3.72694 -7.79175,-11.00366 -7.790259,-13.4418 4.34e-4,-0.70941 1.287273,1.42951 2.859643,4.75316 1.57237,3.32366 4.328521,7.27965 6.124779,8.7911 1.796259,1.51145 3.06768,2.94634 2.82538,3.18864 -0.242299,0.2423 -2.051094,-1.23869 -4.019543,-3.2911 z m 17.773245,2.47523 c 0.375531,-0.98622 0.934692,-1.54122 1.242579,-1.23333 0.307887,0.30789 6.34e-4,1.11479 -0.682784,1.79313 -0.987616,0.98026 -1.10248,0.8654 -0.559795,-0.5598 z m 16.795834,-2.07647 c -1.72693,-1.72172 -3.91189,-4.4804 -4.855467,-6.1304 l -1.715593,-3 2.355466,2.97961 c 1.295507,1.63878 3.663931,4.23032 5.263165,5.75897 1.599235,1.52865 2.724235,2.9465 2.5,3.15079 -0.224234,0.20428 -1.820641,-1.03725 -3.547571,-2.75897 z m -30.254372,-2.53161 c -1.708165,-1.59567 -3.105755,-3.20528 -3.105755,-3.57692 0,-0.37165 1.353818,0.6781 3.008484,2.33277 1.654666,1.65466 4.017166,3.203 5.25,3.44074 2.181298,0.42064 2.183911,0.43591 0.09727,0.56844 -1.179334,0.0749 -3.541834,-1.16936 -5.249999,-2.76503 z m 14.973192,0.31788 c 0.04798,-1.16495 0.284941,-1.4019 0.604167,-0.60417 0.288871,0.72187 0.253344,1.58437 -0.07895,1.91667 -0.332292,0.33229 -0.568641,-0.25834 -0.52522,-1.3125 z m 129.921052,-0.41667 c -0.825,-0.53316 -1.05,-0.96937 -0.5,-0.96937 0.55,0 1.675,0.43621 2.5,0.96937 0.825,0.53316 1.05,0.96937 0.5,0.96937 -0.55,0 -1.675,-0.43621 -2.5,-0.96937 z m 3.5,-3 c -1.63041,-0.70061 -1.68751,-0.87242 -0.30902,-0.92971 0.93004,-0.0387 1.9691,0.37971 2.30902,0.92971 0.71066,1.14988 0.67591,1.14988 -2,0 z m -132.300639,-1.5 c 0,-1.1 0.360288,-3.125 0.80064,-4.5 0.633973,-1.97958 0.80064,-2.08367 0.80064,-0.5 0,1.1 -0.360288,3.125 -0.80064,4.5 -0.633973,1.97958 -0.80064,2.08367 -0.80064,0.5 z m 117.613139,0.81689 c 0.72187,-0.28887 1.58437,-0.25335 1.91667,0.0789 0.33229,0.33229 -0.25834,0.56864 -1.3125,0.52522 -1.16495,-0.048 -1.4019,-0.28494 -0.60417,-0.60416 z m -4,-1 c 0.72187,-0.28887 1.58437,-0.25335 1.91667,0.0789 0.33229,0.33229 -0.25834,0.56864 -1.3125,0.52522 -1.16495,-0.048 -1.4019,-0.28494 -0.60417,-0.60416 z m -134.731479,-2.1655 c -1.633506,-3.05224 -1.295255,-3.90227 0.520979,-1.30923 0.881099,1.25795 1.367559,2.52162 1.08102,2.80815 -0.286538,0.28654 -1.007438,-0.38797 -1.601999,-1.49892 z m 12.997927,0.26528 c 0.04798,-1.16495 0.284941,-1.4019 0.604167,-0.60417 0.288871,0.72187 0.253344,1.58437 -0.07895,1.91667 -0.332292,0.33229 -0.568641,-0.25834 -0.52522,-1.3125 z m 109.499632,-3.73827 c -3.695,-3.91516 -8.30375,-10.6784 -7.2767,-10.6784 0.22823,0 2.06875,2.49078 4.09004,5.53507 2.02129,3.04429 5.12251,6.41761 6.89158,7.49626 1.76908,1.07866 2.57686,1.96288 1.79508,1.96493 -0.78178,0.002 -3.25678,-1.94098 -5.5,-4.31786 z m 19.92142,3.3216 c -1.31874,-0.56668 -1.48906,-0.87815 -0.5,-0.9144 0.825,-0.0302 2.175,0.38124 3,0.9144 1.82797,1.18132 0.24909,1.18132 -2.5,0 z M 77.895195,152.64532 c -0.69572,-0.83829 -1.012279,-1.77683 -0.703465,-2.08564 0.308814,-0.30882 1.063772,0.37706 1.677684,1.52416 1.309846,2.44747 0.823595,2.72772 -0.974219,0.56148 z m 110.020055,-0.47583 c -0.90129,-0.58246 -1.02463,-0.97549 -0.30902,-0.98469 0.65504,-0.008 1.4691,0.43469 1.80902,0.98469 0.7673,1.24153 0.42112,1.24153 -1.5,0 z m -6.67567,-3.25 c -3.96232,-4.40413 -22.8155,-34.59216 -22.06953,-35.33813 0.19039,-0.1904 2.79706,3.80154 5.79259,8.87098 8.54786,14.46584 16.62183,26.42896 18.6219,27.59188 1.00689,0.58545 1.34665,1.07814 0.75502,1.09486 -0.59162,0.0167 -1.98661,-0.98209 -3.09998,-2.21959 z M 48.53879,148.63083 c -0.342947,-0.8937 -0.58486,-2.37561 -0.537586,-3.29313 0.04727,-0.91751 0.482394,-0.34083 0.966933,1.28152 0.942661,3.15626 0.609281,4.71823 -0.429347,2.01161 z m -5.544592,-2.04467 c 0.04798,-1.16495 0.284941,-1.4019 0.604167,-0.60417 0.288871,0.72187 0.253344,1.58437 -0.07895,1.91667 -0.332292,0.33229 -0.568641,-0.25834 -0.52522,-1.3125 z m 23.921053,-2.37619 c 0,-0.48513 1.888544,-2.78958 4.196764,-5.12098 2.911722,-2.94097 4.331626,-3.80727 4.637205,-2.82921 0.242243,0.77534 1.065256,2.64721 1.828917,4.15971 0.763661,1.5125 1.163474,2.75 0.888474,2.75 -0.275,0 -1.242935,-1.43668 -2.150967,-3.19262 l -1.650968,-3.19262 -3.874712,4.1539 c -2.131092,2.28464 -3.874713,3.75696 -3.874713,3.27182 z M 42.1102,141.66949 c 0.02038,-1.65 0.244498,-2.20394 0.498042,-1.23097 0.253543,0.97297 0.236869,2.32297 -0.03705,3 -0.273927,0.67703 -0.481372,-0.11903 -0.460992,-1.76903 z m 5.154465,-6.5 c 0,-4.675 0.172256,-6.5875 0.382791,-4.25 0.210535,2.3375 0.210535,6.1625 0,8.5 -0.210535,2.3375 -0.382791,0.425 -0.382791,-4.25 z m 116.150585,1 c -0.85325,-1.65 -1.32636,-3 -1.05136,-3 0.275,0 1.19811,1.35 2.05136,3 0.85325,1.65 1.32636,3 1.05136,3 -0.275,0 -1.19811,-1.35 -2.05136,-3 z M 42.014931,130.58616 c 0.05482,-1.60417 0.482033,-4.04167 0.949352,-5.41667 0.573006,-1.68596 0.661635,-0.87192 0.272189,2.5 -0.649685,5.62515 -1.373141,7.35254 -1.221541,2.91667 z m 115.135239,-4.66667 c -2.1694,-3.4375 -4.96473,-8.275 -6.21185,-10.75 -5.46564,-10.84693 -19.22443,-26.167205 -32.27307,-35.935709 -3.1625,-2.367519 -5.75,-4.528924 -5.75,-4.803123 0,-0.642921 6.01109,3.833015 12.97185,9.659018 11.95961,10.009917 20.08891,20.056814 28.3843,35.079814 1.97404,3.575 4.54566,7.9625 5.71471,9.75 1.16905,1.7875 1.89669,3.25 1.61698,3.25 -0.2797,0 -2.28352,-2.8125 -4.45292,-6.25 z m -109.103779,-1.25 c -0.0381,-1.86926 4.725252,-11.94204 4.823673,-10.20034 0.02485,0.43981 -0.698039,2.2369 -1.606425,3.99353 -0.908387,1.75662 -1.994708,4.32177 -2.414047,5.70034 -0.607438,1.99692 -0.770723,2.09988 -0.803201,0.50647 z m -4.100514,-3 c 0,-0.55 0.436218,-1.675 0.969374,-2.5 0.533156,-0.825 0.969374,-1.05 0.969374,-0.5 0,0.55 -0.436218,1.675 -0.969374,2.5 -0.533156,0.825 -0.969374,1.05 -0.969374,0.5 z m 2.048321,-6.08333 c 0.04798,-1.16495 0.284941,-1.4019 0.604167,-0.60417 0.288871,0.72187 0.253344,1.58437 -0.07895,1.91667 -0.332292,0.33229 -0.568641,-0.25834 -0.52522,-1.3125 z m 0.921053,-3.35765 c 0,-0.51754 0.444846,-1.21592 0.988546,-1.55194 0.56686,-0.35034 0.734507,0.0511 0.393011,0.94098 -0.664791,1.73242 -1.381557,2.04939 -1.381557,0.61096 z m 6.604265,-2.05902 c 0.490589,-3.13571 0.104795,-3.91633 -3.706621,-7.5 -4.262246,-4.007559 -9.905874,-11.966977 -9.88826,-13.945779 0.0052,-0.57982 1.302857,1.195781 2.883769,3.945781 1.580912,2.75 4.951689,6.886205 7.490616,9.191568 4.637394,4.21078 5.661796,7.12046 3.62926,10.30843 -0.667116,1.04635 -0.790739,0.44148 -0.408764,-2 z m 101.606504,-3.28053 c -1.63908,-2.90429 -7.35314,-9.991784 -12.69792,-15.749994 l -9.71778,-10.469474 10.39614,10.662906 c 5.71787,5.864598 11.64206,12.952092 13.16487,15.750002 1.52281,2.7979 2.55862,5.08709 2.30179,5.08709 -0.25682,0 -1.80802,-2.37624 -3.4471,-5.28053 z M 43.155015,102.81378 c -2.208226,-2.39565 -4.528537,-5.433144 -5.156246,-6.750001 -1.119458,-2.348488 -1.107261,-2.346466 0.637597,0.105713 0.978387,1.375 3.523697,4.412498 5.656245,6.749998 2.132548,2.3375 3.65236,4.25 3.37736,4.25 -0.275,0 -2.30673,-1.96007 -4.514956,-4.35571 z M 34.077692,89.626665 c -1.675489,-3.677296 -1.355835,-4.461793 0.455855,-1.118765 0.846022,1.561124 1.351103,3.025526 1.122403,3.254226 -0.2287,0.2287 -0.938916,-0.732257 -1.578258,-2.135461 z m 3.223597,-6.207173 C 33.112223,73.029315 30.076108,68.353469 21.801074,59.547996 16.913872,54.347518 12.915251,49.592368 12.915251,48.980997 c 0,-0.61137 1.296795,0.643434 2.881766,2.788457 1.584972,2.145021 5.00039,5.925038 7.589819,8.400038 2.589429,2.475 6.048996,6.426662 7.687927,8.781472 2.875882,4.132053 9.241399,18.218528 8.232745,18.218528 -0.27187,0 -1.174669,-1.6875 -2.006219,-3.75 z m -7.249803,-3.15495 c -2.948308,-6.853528 -2.587967,-7.843655 0.433136,-1.190148 1.349787,2.972696 2.285171,5.57389 2.078629,5.780431 -0.206541,0.206541 -1.336835,-1.859086 -2.511765,-4.590283 z m 100.450364,0.04506 c -0.2923,-0.472937 -4.48135,-3.4754 -9.30902,-6.672139 -9.68648,-6.414099 -12.98449,-9.071682 -6.77758,-5.461463 8.60513,5.005131 19.12925,12.993492 17.11803,12.993492 -0.275,0 -0.73914,-0.386949 -1.03143,-0.859886 z M 63.915251,78.172373 c 0,-0.548416 -1.627363,-2.798416 -3.616362,-5 -1.989,-2.201585 -3.2265,-3.985846 -2.75,-3.965025 0.476499,0.02082 2.441362,2.050777 4.366362,4.511014 3.317266,4.239615 3.550001,4.361742 4.457689,2.339165 0.783502,-1.745856 0.455065,-2.56633 -1.805764,-4.511013 -1.519899,-1.307362 -2.288359,-2.377022 -1.707689,-2.377022 1.373734,0 5.055764,3.689297 5.055764,5.065741 0,1.709818 -1.983433,4.934259 -3.035184,4.934259 -0.530649,0 -0.964816,-0.448705 -0.964816,-0.997119 z m 44.860779,-6.062232 -2.36078,-2.05935 2.75,1.67436 c 1.5125,0.920899 2.75,1.847606 2.75,2.059351 0,0.780843 -0.83549,0.33522 -3.13922,-1.674361 z m -8.36078,-4.518461 c -2.199999,-1.314108 -3.549999,-2.394384 -2.999999,-2.400614 0.55,-0.0062 2.799999,1.097323 4.999999,2.45234 2.2,1.355017 3.55,2.435293 3,2.400614 -0.55,-0.03468 -2.8,-1.138232 -5,-2.45234 z M 20.787696,65.419492 c -1.243871,-1.586057 -1.208501,-1.621427 0.377555,-0.377555 1.665748,1.306369 2.195479,2.127555 1.372445,2.127555 -0.207656,0 -0.995156,-0.7875 -1.75,-1.75 z M 13.537835,58.197089 C 8.1858657,52.475401 6.5764953,48.988323 7.4507312,45.007953 8.0608631,42.23004 12.13365,38.165967 14.30011,38.173229 c 0.613327,0.0021 -0.304415,0.869326 -2.039429,1.927267 -3.6076117,2.199776 -4.9561311,6.332529 -3.4009868,10.422869 0.5648725,1.485727 3.1200358,4.938903 5.6781408,7.673724 2.558105,2.734821 4.4261,4.972402 4.1511,4.972402 -0.275,0 -2.592995,-2.237581 -5.1511,-4.972402 z m 87.818545,3.417236 c -1.830305,-1.466378 -1.798397,-1.487191 0.55887,-0.364545 3.06103,1.457811 3.62834,1.919711 2.3578,1.919711 -0.53655,0 -1.84905,-0.699824 -2.91667,-1.555166 z M 84.915251,60.169491 c -0.901292,-0.582459 -1.024633,-0.975485 -0.309017,-0.984687 0.655041,-0.0084 1.469098,0.434688 1.809017,0.984687 0.767305,1.241526 0.421123,1.241526 -1.5,0 z m 11,-1 c -0.825,-0.533155 -1.05,-0.969374 -0.5,-0.969374 0.55,0 1.675,0.436218 2.5,0.969374 0.825,0.533156 1.05,0.969375 0.5,0.969375 -0.55,0 -1.675,-0.436218 -2.5,-0.969375 z m -15.1875,-0.683114 c 0.721875,-0.288871 1.584375,-0.253344 1.916667,0.07895 0.332291,0.332292 -0.258334,0.568641 -1.3125,0.52522 -1.164943,-0.04798 -1.4019,-0.284941 -0.604167,-0.604167 z M 76.42233,57.180945 c -0.350339,-0.56686 0.05106,-0.734507 0.940983,-0.393011 1.732417,0.664791 2.049387,1.381557 0.610955,1.381557 -0.517541,0 -1.215913,-0.444846 -1.551938,-0.988546 z m 15.492921,-0.01145 c -0.901292,-0.582459 -1.024633,-0.975485 -0.309017,-0.984687 0.655041,-0.0084 1.469098,0.434688 1.809017,0.984687 0.767305,1.241526 0.421123,1.241526 -1.5,0 z m -20.5,-1 c -1.630408,-0.700609 -1.687513,-0.872418 -0.309017,-0.929715 0.930041,-0.03866 1.969098,0.379716 2.309017,0.929715 0.710664,1.149879 0.675913,1.149879 -2,0 z m 15.5,-1 c -0.825,-0.533155 -1.05,-0.969374 -0.5,-0.969374 0.55,0 1.675,0.436218 2.5,0.969374 0.825,0.533156 1.05,0.969375 0.5,0.969375 -0.55,0 -1.675,-0.436218 -2.5,-0.969375 z m -37.55887,-1.574157 c -1.067622,-0.865786 -1.343376,-1.26744 -0.612787,-0.892564 0.730588,0.374876 2.530588,1.044567 4,1.488205 2.14385,0.647258 2.264911,0.823591 0.612787,0.892564 -1.132379,0.04727 -2.932379,-0.622419 -4,-1.488205 z m 9.80887,0.857903 c 1.5125,-0.229125 3.9875,-0.229125 5.5,0 1.5125,0.229124 0.275,0.41659 -2.75,0.41659 -3.025,0 -4.2625,-0.187466 -2.75,-0.41659 z m 21.75,-1.283746 c -0.825,-0.533155 -1.05,-0.969374 -0.5,-0.969374 0.55,0 1.675,0.436218 2.5,0.969374 0.825,0.533156 1.05,0.969375 0.5,0.969375 -0.55,0 -1.675,-0.436218 -2.5,-0.969375 z m -36.55887,-2.555166 c -1.864025,-1.493392 -1.851756,-1.511856 0.30887,-0.464816 1.2375,0.599692 2.25,1.299518 2.25,1.555166 0,0.76522 -0.518608,0.544238 -2.55887,-1.09035 z M 67.184283,50.4765 c 0.972967,-0.253543 2.322967,-0.236868 3,0.03705 0.677032,0.273928 -0.119032,0.481373 -1.769032,0.460992 -1.65,-0.02038 -2.203936,-0.244498 -1.230968,-0.498042 z M 50.665251,47.597516 c -3.738441,-2.028138 -3.510883,-2.872853 0.25,-0.928025 1.65,0.853248 3,1.764804 3,2.02568 0,0.643498 -0.107447,0.607208 -3.25,-1.097655 z m -33.75,-5.428025 c 0.825,-0.533155 2.175,-0.944637 3,-0.914402 0.989055,0.03625 0.81874,0.34772 -0.5,0.914402 -2.749085,1.181322 -4.327966,1.181322 -2.5,0 z m 5.8125,0.316886 c 0.721875,-0.288871 1.584375,-0.253344 1.916667,0.07895 0.332291,0.332292 -0.258334,0.568641 -1.3125,0.52522 -1.164943,-0.04798 -1.4019,-0.284941 -0.604167,-0.604167 z M 39.42233,42.180945 c -0.350339,-0.56686 0.05106,-0.734507 0.940983,-0.393011 1.732417,0.664791 2.049387,1.381557 0.610955,1.381557 -0.517541,0 -1.215913,-0.444846 -1.551938,-0.988546 z m -3.694579,-1.694568 c 0.721875,-0.288871 1.584375,-0.253344 1.916667,0.07895 0.332291,0.332292 -0.258334,0.568641 -1.3125,0.52522 -1.164943,-0.04798 -1.4019,-0.284941 -0.604167,-0.604167 z m -17.0625,-3.022619 c 1.2375,-0.238353 3.2625,-0.238353 4.5,0 1.2375,0.238353 0.225,0.433369 -2.25,0.433369 -2.475,0 -3.4875,-0.195016 -2.25,-0.433369 z"
     style="fill:#025075" />
</svg>
