<?xml version="1.0" encoding="utf-8"?>
<!-- Generator: Adobe Illustrator 21.0.0, SVG Export Plug-In . SVG Version: 6.00 Build 0)  -->
<svg version="1.1" xmlns="http://www.w3.org/2000/svg" xmlns:xlink="http://www.w3.org/1999/xlink" x="0px" y="0px"
	 viewBox="0 0 68 68" style="enable-background:new 0 0 68 68;" xml:space="preserve">
<style type="text/css">
	.st0{display:none;}
	.st1{display:inline;}
	.st2{fill:#3BB878;}
	.st3{fill:none;stroke:#FFFFFF;stroke-width:3;stroke-linecap:round;}
	.st4{fill:none;stroke:#FFFFFF;stroke-width:3.6055;stroke-linecap:round;}
	.st5{fill:none;stroke:#FFFFFF;stroke-width:2.5072;}
	.st6{fill:#FFFFFF;}
</style>
<g id="Layer_1" class="st0">
	<title>B6ED1B5B-9625-456B-8C6D-9385C2E222E8</title>
	<desc>Created with sketchtool.</desc>
	<g id="Page-1" class="st1">
		<g id="_x32__x5F_0_x5F_D_x5F_Drap_x5F_Hover_x5F_States" transform="translate(-937.000000, -1211.000000)">
			<g id="Group-13" transform="translate(448.000000, 1211.000000)">
				<g id="On_top_icon-Hover" transform="translate(493.000000, 0.000000)">
					<g id="on_top_icon">
						<g id="Menu-icon">
							<g id="Oval">
								<g>
									<circle id="path-1_2_" cx="30" cy="30" r="30"/>
								</g>
								<g>
									<circle id="path-1_1_" class="st2" cx="30" cy="30" r="30"/>
								</g>
							</g>
						</g>
						<g id="on_top_arrow_icon" transform="translate(17.000000, 16.000000)">
							<path id="Path-2-Copy" class="st3" d="M13.4,14V3.3"/>
							<g id="Group-3">
								<path id="Path-2" class="st3" d="M0,12L13.3,0"/>
								<path id="Path-2-Copy-2" class="st3" d="M26.8,12L13.5,0"/>
							</g>
							<g id="Group-5" transform="translate(0.000000, 14.000000)">
								<path id="Path-2-Copy-3" class="st3" d="M0,12L13.3,0"/>
								<path id="Path-2-Copy-4" class="st3" d="M26.8,12L13.5,0"/>
							</g>
						</g>
					</g>
				</g>
			</g>
		</g>
	</g>
</g>
<g id="Layer_2">
	<g>
		<circle id="path-1_3_" class="st2" cx="33.8" cy="34.6" r="30.6"/>
	</g>
	<g id="Page-1_1_" class="st0">
		<g id="_x32__x5F_0_x5F_D_x5F_Drap_x5F_Hover_x5F_States_1_" transform="translate(-937.000000, -1211.000000)" class="st1">
			<g id="Group-13_1_" transform="translate(448.000000, 1211.000000)">
				<g id="On_top_icon-Hover_1_" transform="translate(493.000000, 0.000000)">
					<g id="on_top_icon_1_">
						<g id="on_top_arrow_icon_1_" transform="translate(17.000000, 16.000000)">
							<path id="Path-2-Copy_1_" class="st4" d="M12.8,34.7V6.5"/>
							<g id="Group-3_1_">
								<path id="Path-2_1_" class="st4" d="M-3.3,16.9l16-14.4"/>
								<path id="Path-2-Copy-2_1_" class="st4" d="M28.9,16.9l-16-14.4"/>
							</g>
						</g>
					</g>
				</g>
			</g>
		</g>
	</g>
	<g id="Music">
		<g id="Icons" transform="translate(-596.000000, -206.000000)">
			
				<g id="Eject" transform="translate(614.000000, 221.000000) rotate(90.000000) translate(-614.000000, -221.000000) translate(599.000000, 206.000000)">
				<path id="Triangle" class="st5" d="M20.4-1.2c0-2.9,3.4-6.2,8.5-9.2c2-1.2,4-2.2,5.6-2.8c0.8-0.3,1.5-0.5,2.1-0.6
					c1.1-0.1,2.1,0.2,2.1,1.5v23.2c0,1.3-1,1.7-2.1,1.5c-0.6-0.1-1.3-0.3-2.1-0.7c-1.6-0.7-3.6-1.8-5.6-3.2
					C23.8,5.2,20.4,1.7,20.4-1.2z"/>
				<path id="Rectangle" class="st6" d="M44.9,11.8L44.9,11.8c-0.7,0-1.3-0.6-1.3-1.3V-12c0-0.7,0.6-1.3,1.3-1.3l0,0
					c0.7,0,1.3,0.6,1.3,1.3v22.6C46.2,11.2,45.6,11.8,44.9,11.8z"/>
			</g>
		</g>
	</g>
</g>
</svg>
