<?xml version="1.0" encoding="UTF-8" standalone="no"?>

<svg
   xmlns:dc="http://purl.org/dc/elements/1.1/"
   xmlns:cc="http://creativecommons.org/ns#"
   xmlns:rdf="http://www.w3.org/1999/02/22-rdf-syntax-ns#"
   xmlns:svg="http://www.w3.org/2000/svg"
   xmlns="http://www.w3.org/2000/svg"
   xmlns:sodipodi="http://sodipodi.sourceforge.net/DTD/sodipodi-0.dtd"
   xmlns:inkscape="http://www.inkscape.org/namespaces/inkscape"
   version="1.1"
   id="svg3926"
   width="341.33334"
   height="341.33334"
   viewBox="0 0 341.33334 341.33334"
   sodipodi:docname="redis.svg"
   inkscape:version="0.92.2 5c3e80d, 2017-08-06">
  <metadata
     id="metadata3932">
    <rdf:RDF>
      <cc:Work
         rdf:about="">
        <dc:format>image/svg+xml</dc:format>
        <dc:type
           rdf:resource="http://purl.org/dc/dcmitype/StillImage" />
        <dc:title></dc:title>
      </cc:Work>
    </rdf:RDF>
  </metadata>
  <defs
     id="defs3930" />
  <sodipodi:namedview
     pagecolor="#ffffff"
     bordercolor="#666666"
     borderopacity="1"
     objecttolerance="10"
     gridtolerance="10"
     guidetolerance="10"
     inkscape:pageopacity="0"
     inkscape:pageshadow="2"
     inkscape:window-width="1176"
     inkscape:window-height="809"
     id="namedview3928"
     showgrid="false"
     inkscape:zoom="0.69140623"
     inkscape:cx="170.66667"
     inkscape:cy="170.66667"
     inkscape:window-x="64"
     inkscape:window-y="0"
     inkscape:window-maximized="0"
     inkscape:current-layer="svg3926" />
  <path
     inkscape:connector-curvature="0"
     id="path3952"
     d="M 1.4463251,170.32769 V -0.3389828 H 172.113 342.77967 V 170.32769 340.99436 H 172.113 1.4463251 Z"
     style="fill:#fefefe;stroke-width:1.33333337" />
  <path
     inkscape:connector-curvature="0"
     id="path3950"
     d="M 151.44633,310.30103 C 146.313,308.03715 114.98153,294.83865 81.820841,280.97105 16.932928,253.83532 11.688202,251.46997 7.1129919,247.27813 4.2615716,244.66565 4.1129918,243.555 4.1129918,224.85273 v -19.67679 l 3.6666668,-2.54049 c 2.0166667,-1.39727 4.8083514,-2.95448 6.2037434,-3.46047 2.157937,-0.78249 1.609991,-1.5079 -3.666667,-4.85426 l -6.2037432,-3.9343 v -19.9326 c 0,-19.58486 0.057196,-19.97757 3.2787647,-22.51166 1.8033206,-1.4185 5.1042915,-3.33523 7.3354905,-4.25943 l 4.056725,-1.68035 -7.002157,-4.18225 -7.0021565,-4.18225 -0.369852,-19.80781 C 4.147952,99.806187 4.5112426,93.454391 5.6539429,92.077521 8.3203688,88.864675 15.091152,85.912337 60.227969,68.281021 137.18391,38.220546 155.25592,31.457608 166.32705,28.576464 c 9.90563,-2.577833 11.63822,-2.67525 19.33334,-1.087042 11.17996,2.30745 147.59527,55.623771 151.45261,59.193477 2.82876,2.617821 3,3.814273 3,20.961091 0,18.12235 -0.012,18.1965 -3.66666,21.59497 -2.01667,1.87561 -5.40906,4.51741 -7.53866,5.87066 l -3.87198,2.46048 4.53865,1.82936 c 2.49627,1.00614 5.88865,3.08119 7.53865,4.6112 2.8318,2.6259 2.99763,3.79674 2.9576,20.88278 -0.0465,19.84729 -0.14573,20.14556 -8.60044,25.85116 -2.92024,1.9707 -4.40952,3.58309 -3.30952,3.58309 1.1,0 4.23928,1.52163 6.97619,3.3814 l 4.97617,3.3814 v 18.43879 c 0,16.69882 -0.2636,18.7739 -2.79345,21.99009 -3.49137,4.43855 -15.55345,10.22459 -72.53988,34.79648 -24.93334,10.75096 -53.73334,23.51079 -64,28.35515 -17.36907,8.19565 -19.40816,8.84055 -29.33334,9.27705 -9.57869,0.42128 -11.61865,0.0493 -20,-3.64702 z m 37.89594,-181.39476 c 6.07145,-8.84844 10.78136,-16.34574 10.46644,-16.66065 -0.31491,-0.31492 -17.21852,1.99036 -37.56358,5.12284 l -36.991,5.69541 25.76276,10.81653 c 14.16954,5.94908 26.10559,10.88344 26.52458,10.96524 0.41898,0.0819 5.72934,-7.09092 11.8008,-15.93937 z M 126.45274,107.1272 c 9.57463,-2.58943 15.39819,-6.23692 16.93506,-10.606992 1.78061,-5.063153 0.004,-7.485721 -8.67565,-11.826288 -19.46472,-9.734655 -60.084222,-7.160411 -69.833253,4.425655 -4.119892,4.896213 -4.151714,5.26758 -0.814845,9.50972 3.293853,4.187455 13.821298,8.772575 23.751265,10.344625 9.759707,1.54509 29.602813,0.59667 38.637423,-1.84672 z m 57.04037,-27.799515 2.69498,-7 12.19547,-1.333333 c 6.70749,-0.733334 12.51965,-1.662391 12.91591,-2.064571 0.39625,-0.402181 -3.4586,-2.180387 -8.56635,-3.951568 -5.10773,-1.771181 -9.27361,-3.842124 -9.25751,-4.602096 0.0161,-0.759971 1.18678,-3.931766 2.60148,-7.048432 1.41471,-3.116667 2.10663,-5.666667 1.53759,-5.666667 -0.56904,0 -5.40461,1.486335 -10.74573,3.302965 l -9.71112,3.302967 -10.18908,-3.963496 c -5.604,-2.179923 -10.6961,-3.966257 -11.31578,-3.969632 -0.61968,-0.0033 0.45623,2.69492 2.39091,5.996212 l 3.51761,6.002349 -3.05757,1.328127 c -1.68168,0.730471 -6.90963,2.748588 -11.61769,4.484704 l -8.5601,3.156576 9.22676,0.890246 c 24.47919,2.361874 22.08426,1.458725 27.18267,10.250769 2.51479,4.336684 4.90765,7.88488 5.31745,7.88488 0.40982,0 1.95786,-3.15 3.4401,-7 z"
     style="fill:#e09b99;stroke-width:1.33333337" />
  <path
     inkscape:connector-curvature="0"
     id="path3948"
     d="M 156.77967,311.87769 C 142.51967,306.47449 25.200955,256.91096 17.222281,252.919 3.5022089,246.05446 4.1129918,247.32964 4.1129918,225.54961 c 0,-20.78313 0.1208667,-21.14747 8.4434552,-25.45124 3.870356,-2.00144 3.999972,-2.27944 1.695059,-3.63559 -1.372664,-0.80762 -4.215374,-2.87176 -6.3171334,-4.58694 L 4.1129918,188.7573 v -19.00816 c 0,-21.14701 0.082948,-21.36377 9.7154642,-25.38849 2.723161,-1.13781 4.951203,-2.34528 4.951203,-2.68328 0,-0.33799 -1.95,-1.60012 -4.333334,-2.80473 -10.1421217,-5.12616 -10.3333332,-5.61783 -10.3333332,-26.57072 0,-16.715854 0.285466,-19.152611 2.4759635,-21.134984 C 7.9507352,89.934543 15.900735,86.176352 24.255623,82.815401 59.54483,68.619486 152.16225,33.057954 160.58679,30.46947 c 10.0433,-3.085864 22.54332,-3.619367 30.85954,-1.317092 4.83554,1.338677 127.65498,48.910882 139.76349,54.135213 8.18666,3.532221 8.90318,5.493766 8.90318,24.373429 0,19.08462 -0.56332,20.54023 -10.1154,26.13812 l -5.99245,3.51182 6.61456,3.06457 c 3.63801,1.68551 7.26228,4.27483 8.05393,5.75404 0.80726,1.50839 1.43936,9.91692 1.43936,19.14712 0,18.28861 -0.62577,20.08145 -8.76508,25.11181 l -4.76705,2.94622 5.75151,3.2669 c 3.16332,1.79682 6.19886,3.97023 6.74565,4.82983 1.70512,2.68065 1.16055,34.5712 -0.65135,38.14295 -2.41797,4.76648 -14.60345,10.80894 -70.98034,35.19731 -27.86667,12.05497 -58.76667,25.67514 -68.66667,30.26704 -21.11119,9.79194 -30.2704,11.28336 -42,6.83894 z m 33.57178,-183.94021 c 9.05484,-13.12322 10.73023,-16.27646 8.64799,-16.27646 -1.42041,0 -18.01931,2.4 -36.88644,5.33334 -18.86713,2.93333 -34.93551,5.33333 -35.7075,5.33333 -0.77198,0 -1.05898,0.34463 -0.63777,0.76584 1.4252,1.4252 51.0028,21.82441 52.18255,21.47104 0.64384,-0.19284 6.22437,-7.67503 12.40117,-16.62709 z m -60.30204,-21.50267 c 14.26386,-5.06069 18.10494,-12.469504 10.00036,-19.289055 -5.93977,-4.997991 -16.0936,-7.680347 -31.93677,-8.436802 -15.973792,-0.76269 -26.580413,0.829583 -36.85257,5.532331 -16.408835,7.512213 -10.771743,19.001986 11.848171,24.149456 12.073782,2.74756 36.559429,1.72729 46.940809,-1.95593 z m 54.00996,-27.164607 3.38696,-6.942518 13,-1.162701 c 7.15,-0.639487 13,-1.561282 13,-2.048434 0,-0.48715 -4.25577,-2.361482 -9.45729,-4.165181 -5.20151,-1.803699 -9.72603,-3.714284 -10.05448,-4.245744 -0.32847,-0.531461 0.25131,-2.633914 1.28837,-4.672116 1.03707,-2.038204 2.29218,-5.02482 2.78914,-6.636926 0.90261,-2.928025 0.89198,-2.92721 -10.12816,0.775731 l -11.03174,3.706832 -11.01696,-4.442397 c -6.05932,-2.443319 -11.29085,-4.442398 -11.62561,-4.442398 -0.33476,0 0.84933,2.55 2.63131,5.666667 1.78198,3.116667 3.2472,6.273957 3.25602,7.016203 0.009,0.742245 -5.14878,3.139872 -11.4614,5.328059 -11.04737,3.829436 -11.30968,4.013617 -7,4.915034 2.46262,0.515082 9.73587,1.322016 16.1628,1.793188 l 11.68532,0.856676 4.98135,8.429883 c 2.73973,4.636435 5.2572,8.156007 5.59437,7.821271 0.33718,-0.334736 2.13718,-3.732744 4,-7.551129 z"
     style="fill:#e6817c;stroke-width:1.33333337" />
  <path
     inkscape:connector-curvature="0"
     id="path3946"
     d="M 156.77967,311.76295 C 145.86004,307.70464 32.346595,259.87555 20.609091,254.38724 3.8331449,246.54302 4.1129918,247.03772 4.1129918,225.22677 c 0,-17.39543 0.1690567,-18.59261 3.0000001,-21.24451 1.65,-1.54565 4.8000001,-3.49832 7.0000001,-4.33925 l 4,-1.52899 -4,-2.05529 C 4.3094108,191.02142 4.1129918,190.50013 4.1129918,169.5194 v -19.01012 l 3.941031,-2.80627 c 2.1675672,-1.54344 5.8584112,-3.47467 8.2018762,-4.2916 l 4.260844,-1.48533 -5.201875,-2.61968 C 4.1954045,133.7066 4.1129918,133.50708 4.1129918,112.18606 V 93.175936 L 7.8511084,90.514163 C 9.9070726,89.050187 36.457074,78.140075 66.851109,66.269468 159.02204,30.271462 163.42617,28.711526 174.94851,27.98161 c 12.64144,-0.80081 9.87256,-1.693276 81.83116,26.37582 31.53333,12.300296 62.30307,24.276763 68.37717,26.61437 6.89362,2.652992 11.66423,5.334808 12.69468,7.136373 1.19474,2.088775 1.45891,8.043475 0.95616,21.552847 l -0.69468,18.66667 -7.04148,4.63071 -7.04148,4.63072 6.53582,2.88442 c 3.59469,1.58644 6.99932,3.6344 7.56581,4.55103 0.56651,0.91661 0.92808,10.1348 0.80351,20.48485 -0.24704,20.52455 -0.0909,20.0935 -9.53247,26.32168 l -3.28971,2.1701 4.82575,2.0224 c 8.12509,3.40512 8.58963,4.94926 7.84092,26.06368 -0.59349,16.73724 -0.95936,19.03618 -3.33333,20.94544 -4.45339,3.58158 -26.94339,13.95419 -78.00001,35.97431 -26.76666,11.54416 -53.1712,23.24748 -58.67673,26.00737 -18.90919,9.47907 -29.89309,11.24439 -41.98993,6.74855 z m 33.55402,-183.44221 c 6.05263,-8.79618 11.02906,-16.32581 11.05871,-16.73252 0.0296,-0.40671 -16.59607,1.82562 -36.94607,4.96073 -20.35,3.13511 -37.55,5.71787 -38.22222,5.73947 -0.67222,0.0216 -0.77237,0.48912 -0.22256,1.03893 1.79114,1.79114 49.38908,21.43553 51.38606,21.20781 1.06771,-0.12174 6.89344,-7.41824 12.94608,-16.21442 z M 129.37613,107.0254 c 6.86602,-2.1654 16.0702,-9.303033 16.0702,-12.462081 0,-3.328427 -7.36236,-9.643446 -14.38867,-12.341794 -9.5101,-3.652208 -32.499956,-5.001021 -45.470209,-2.667734 -16.993258,3.057005 -26.512664,10.508378 -23.072022,18.059765 1.781599,3.910184 12.226475,9.346484 21.832623,11.363344 9.0198,1.89376 36.629778,0.69715 45.028078,-1.9515 z m 53.95174,-26.0617 c 1.32458,-3.683525 3.3931,-7.215156 4.59673,-7.848067 1.20361,-0.632911 7.79057,-1.586943 14.63768,-2.120073 6.84709,-0.53313 11.94709,-1.420786 11.33333,-1.97257 -0.61377,-0.551785 -5.45398,-2.631844 -10.75604,-4.622354 l -9.6401,-3.619111 2.11838,-4.893587 c 4.3437,-10.034205 4.51718,-9.862379 -6.25716,-6.197789 -5.34312,1.81731 -10.67336,3.304202 -11.84497,3.304202 -1.17161,0 -6.80475,-1.8 -12.51805,-4 -5.71332,-2.2 -10.70664,-4 -11.09628,-4 -0.38966,0 0.87878,2.708403 2.81873,6.018674 1.93995,3.31027 3.20467,6.540506 2.81049,7.178301 -0.39418,0.637796 -5.57022,2.849195 -11.50233,4.914222 -12.75448,4.439965 -11.93975,5.123856 7.78483,6.534668 l 13.70009,0.979906 4.96657,8.494909 c 2.7316,4.672198 5.29804,8.5064 5.70318,8.520448 0.40513,0.01405 1.82034,-2.988254 3.14492,-6.671779 z"
     style="fill:#dc645f;stroke-width:1.33333337" />
  <path
     inkscape:connector-curvature="0"
     id="path3944"
     d="m 156.73292,311.81321 c -3.69239,-1.33005 -7.95737,-3.08402 -9.47776,-3.8977 -1.52039,-0.8137 -30.06671,-12.85183 -63.436281,-26.75144 C 50.449311,267.26447 20.043808,254.31958 16.251095,252.39768 4.0974732,246.23897 4.1129918,246.27374 4.1129918,225.20101 c 0,-20.32989 -0.066332,-20.15153 9.2515032,-24.87683 l 4.584837,-2.32509 -3.91817,-1.99783 c -9.6183531,-4.90429 -9.9181702,-5.66989 -9.9181702,-25.32698 0,-9.82038 0.5549207,-18.89211 1.233157,-20.1594 0.6782363,-1.26731 4.3132951,-3.74684 8.0779082,-5.5101 l 6.844751,-3.2059 L 15.1909,139.2428 C 4.3152761,133.7683 4.1129918,133.29893 4.1129918,113.53765 c 0,-9.71219 0.3740008,-18.633162 0.831113,-19.824376 1.29195,-3.366769 6.8895932,-5.775959 74.8394542,-32.21044 C 170.89775,26.056758 174.74971,24.926785 190.113,29.137698 c 6.84629,1.876492 132.38968,50.774635 141.70139,55.191549 l 7.03471,3.336849 -0.36804,20.330794 -0.36806,20.3308 -7.03704,4.62782 -7.03705,4.62782 7.40491,3.74435 7.40489,3.74433 -0.36785,20.29451 -0.36786,20.2945 -6.12849,4.09587 -6.12849,4.09588 6.12849,3.23745 6.12849,3.23747 0.36814,19.51887 0.36813,19.51885 -4.36813,3.70229 c -5.31464,4.50451 -13.8652,8.50271 -69.94416,32.70558 -24.06653,10.38675 -51.85731,22.65139 -61.75731,27.25475 -26.27387,12.21697 -32.97204,13.4949 -46.04675,8.78518 z m 33.41555,-182.79613 c 6.48326,-9.52083 11.52753,-17.56018 11.20948,-17.86521 -0.62556,-0.59996 -76.03084,10.8506 -76.85021,11.66997 -0.27284,0.27284 3.27673,2.07225 7.88793,3.99869 11.20298,4.68031 45.685,19.27723 45.84118,19.40547 0.0681,0.0559 5.42834,-7.68808 11.91162,-17.20892 z m -67.1011,-20.18856 c 9.03281,-1.91657 19.20954,-7.0327 21.13114,-10.623224 4.85904,-9.079217 -8.54131,-17.772872 -30.34118,-19.684245 -27.853558,-2.442149 -52.391004,4.960926 -52.391004,15.806635 0,6.495414 7.946778,11.358434 24.666667,15.094754 5.54836,1.23987 30.156687,0.84416 36.934377,-0.59392 z m 60.68206,-28.115997 c 3.00244,-7.901774 3.70064,-8.229081 20.7169,-9.711899 5.68334,-0.495252 10.33334,-1.30956 10.33334,-1.809572 0,-0.500014 -4.74722,-2.595844 -10.54935,-4.657403 l -10.54935,-3.748288 2.74016,-6.593576 c 1.5071,-3.626466 2.45999,-6.873754 2.11755,-7.216192 -0.34244,-0.34244 -5.26393,0.937892 -10.93667,2.845182 l -10.31406,3.4678 -10.98792,-4.147112 c -6.04336,-2.280912 -11.41783,-4.147112 -11.94327,-4.147112 -0.52544,0 0.57121,3.012519 2.437,6.694484 2.51637,4.965831 2.95255,6.857816 1.68913,7.327007 -0.93677,0.347888 -6.50322,2.406198 -12.36989,4.574022 -5.86667,2.167824 -10.36667,4.035736 -10,4.150916 0.36667,0.115173 7.86667,0.894352 16.66667,1.731494 l 16,1.522078 5.33333,8.314139 c 2.93333,4.572774 5.70299,8.322774 6.15477,8.333333 0.45179,0.01053 2.00954,-3.107628 3.46166,-6.929301 z"
     style="fill:#b64f4f;stroke-width:1.33333337" />
  <path
     inkscape:connector-curvature="0"
     id="path3942"
     d="m 160.113,312.40673 c -3.3,-0.95753 -21.6,-8.35384 -40.66667,-16.43622 C 100.37966,287.88811 68.882257,274.59767 49.452098,266.43619 30.02194,258.27471 12.021939,249.89657 9.4520978,247.81812 l -4.6724393,-3.779 -0.3719373,-18.33924 C 3.9965683,205.42701 4.1099869,205.07718 12.478114,200.80809 l 5.210182,-2.65804 -5.91756,-3.7528 C 8.5160783,192.3332 5.4616349,189.6241 4.9830841,188.37701 3.6465646,184.8941 3.9512381,153.12129 5.3461488,150.51488 c 0.6782363,-1.26731 4.2745842,-3.72871 7.9918842,-5.4698 l 6.758727,-3.16562 -6.611777,-3.77614 C 9.8485063,136.02644 6.2521584,133.16673 5.4930993,131.74842 4.0150804,128.98672 3.5580818,97.325191 4.9441048,93.713274 6.2360548,90.346505 11.833698,87.937315 79.783559,61.502834 170.90007,26.055851 174.7544,24.925237 190.113,29.139206 c 6.80355,1.866701 132.34026,50.762657 141.66667,55.178501 l 7,3.314337 v 19.347826 c 0,21.74177 -0.0807,21.94722 -10.74652,27.38855 l -5.52381,2.81804 8.13516,3.84734 8.13517,3.84732 v 19.38996 c 0,21.40554 -0.21243,22.00668 -9.46784,26.79284 l -4.27632,2.21137 6.53875,3.52947 6.53874,3.52948 0.37108,19.18336 c 0.32536,16.81974 0.0789,19.51498 -2,21.87484 -3.20036,3.63281 -25.86721,14.32893 -77.70993,36.67009 -23.83638,10.27207 -49.87919,21.73826 -57.87294,25.48043 -23.1182,10.82248 -29.3618,12.17929 -40.78821,8.86377 z m 30.03547,-183.38965 c 6.48326,-9.52083 11.52753,-17.56018 11.20948,-17.86521 -0.62556,-0.59996 -76.03084,10.8506 -76.85021,11.66997 -0.27284,0.27284 3.27673,2.07225 7.88793,3.99869 11.20298,4.68031 45.685,19.27723 45.84118,19.40547 0.0681,0.0559 5.42834,-7.68808 11.91162,-17.20892 z m -67.1011,-20.18856 c 9.03281,-1.91657 19.20954,-7.0327 21.13114,-10.623224 4.85904,-9.079217 -8.54131,-17.772872 -30.34118,-19.684245 -27.853558,-2.442149 -52.391004,4.960926 -52.391004,15.806635 0,6.495414 7.946778,11.358434 24.666667,15.094754 5.54836,1.23987 30.156687,0.84416 36.934377,-0.59392 z m 60.68206,-28.115997 c 3.00244,-7.901774 3.70064,-8.229081 20.7169,-9.711899 5.68334,-0.495252 10.33334,-1.30956 10.33334,-1.809572 0,-0.500014 -4.74722,-2.595844 -10.54935,-4.657403 l -10.54935,-3.748288 2.74016,-6.593576 c 1.5071,-3.626466 2.45999,-6.873754 2.11755,-7.216192 -0.34244,-0.34244 -5.26393,0.937892 -10.93667,2.845182 l -10.31406,3.4678 -10.98792,-4.147112 c -6.04336,-2.280912 -11.41783,-4.147112 -11.94327,-4.147112 -0.52544,0 0.57121,3.012519 2.437,6.694484 2.51637,4.965831 2.95255,6.857816 1.68913,7.327007 -0.93677,0.347888 -6.50322,2.406198 -12.36989,4.574022 -5.86667,2.167824 -10.36667,4.035736 -10,4.150916 0.36667,0.115173 7.86667,0.894352 16.66667,1.731494 l 16,1.522078 5.33333,8.314139 c 2.93333,4.572774 5.70299,8.322774 6.15477,8.333333 0.45179,0.01053 2.00954,-3.107628 3.46166,-6.929301 z"
     style="fill:#d62d26;stroke-width:1.33333337" />
  <path
     inkscape:connector-curvature="0"
     id="path3940"
     d="m 160.113,312.40673 c -3.3,-0.95753 -21.6,-8.35384 -40.66667,-16.43622 C 100.37966,287.88811 68.882257,274.59767 49.452098,266.43619 30.02194,258.27471 12.021939,249.89672 9.4520978,247.81845 L 4.7796585,244.0398 4.4057768,227.08833 4.031895,210.13686 l 5.0405485,4.02312 c 5.5940635,4.46492 7.5721255,5.3463 75.7072165,33.73306 26.40001,10.99888 54.00001,22.58731 61.33334,25.75204 22.10916,9.54132 27.07513,9.30045 52.66667,-2.55455 8.43333,-3.90664 37.83333,-16.84795 65.33333,-28.75845 54.60567,-23.65023 67.1218,-29.53804 71.66667,-33.71324 l 3,-2.75599 v 16.66667 c 0,15.61253 -0.19179,16.84684 -3.03227,19.51533 -4.0552,3.80967 -24.8815,13.55279 -76.97325,36.01022 -23.83638,10.27617 -49.87919,21.74572 -57.87294,25.48789 -23.1182,10.82248 -29.3618,12.17929 -40.78821,8.86377 z m 0,-54.64701 c -3.3,-0.94673 -9.6,-3.36627 -14,-5.37676 -4.4,-2.01048 -33.16217,-14.14338 -63.915925,-26.96198 C 21.706929,200.20784 12.134249,195.80349 7.2851795,190.95442 4.2941428,187.96338 4.1129918,186.86121 4.1129918,171.65377 v -16.12845 l 4.3333334,3.28548 c 5.3940438,4.0897 6.9661788,4.78454 81.0000018,35.79976 80.144163,33.57504 72.427663,30.77217 82.738723,30.05322 7.35032,-0.5125 12.22262,-2.20989 30.66667,-10.6835 12.06037,-5.5408 41.7056,-18.58607 65.87828,-28.98947 44.6683,-19.22429 59.80667,-26.27576 66.383,-30.92125 l 3.66667,-2.59012 v 16.0908 c 0,13.99773 -0.32761,16.4184 -2.51861,18.6094 -4.9624,4.9624 -20.28412,12.35614 -70.66934,34.10265 -28.13205,12.14193 -58.12333,25.34157 -66.64728,29.33255 -21.40059,10.01987 -27.69433,11.33997 -38.83144,8.14488 z m 0.66667,-57.36922 C 157.113,199.44978 150.513,197.04078 146.113,195.03716 141.713,193.03353 112.95083,180.90625 82.197075,168.08765 21.706929,142.8745 12.134249,138.47016 7.2851795,133.62109 4.2965008,130.63241 4.1129918,129.52213 4.1129918,114.42848 V 98.408051 l 5.0000001,3.428449 c 2.7500001,1.88564 8.3000001,4.91649 12.3333331,6.73521 6.294711,2.83844 96.920135,40.85721 130.559465,54.77171 16.92664,7.00151 22.67302,6.2453 50.84593,-6.69124 12.06037,-5.53793 41.72795,-18.6007 65.92795,-29.0284 44.94608,-19.36711 59.8468,-26.3055 66.33333,-30.887561 l 3.66667,-2.590117 V 110.2369 c 0,13.85813 -0.34108,16.43187 -2.45819,18.54898 -4.84196,4.84196 -22.95265,13.58538 -70.87514,34.2169 -26.76667,11.52355 -55.56667,24.22456 -64.00001,28.22447 -14.38541,6.82299 -27.24776,11.24656 -31.9468,10.98704 -1.12925,-0.0624 -5.0532,-0.88307 -8.71986,-1.82379 z m 60.91886,-97.61711 c -11.96128,-4.800343 -21.56128,-8.887179 -21.33333,-9.081866 1.2152,-1.037844 48.79333,-19.363839 50.2726,-19.363839 1.41489,0 18.7643,6.589784 42.80854,16.259863 2.98532,1.200633 0.92645,2.291249 -19.72039,10.446232 -12.67955,5.00809 -24.67955,9.41204 -26.66667,9.78656 -2.50211,0.47157 -10.29951,-2.00254 -25.36075,-8.04695 z"
     style="fill:#a32021;stroke-width:1.33333337" />
  <path
     inkscape:connector-curvature="0"
     id="path3938"
     d="M 250.77967,91.680475 V 74.366597 l 7,2.793474 c 6.86509,2.739638 27.79773,10.919058 34.29141,13.399361 2.90039,1.107817 0.71288,2.277584 -18.41241,9.846048 -11.93711,4.72388 -21.96824,8.58888 -22.29142,8.58888 -0.32317,0 -0.58758,-7.79125 -0.58758,-17.313885 z"
     style="fill:#781413;stroke-width:1.33333337" />
</svg>
