<svg width="75" height="75" viewBox="0 0 75 75" xmlns="http://www.w3.org/2000/svg"><title>icon-email-reports</title><g fill="#906EFC" fill-rule="evenodd"><circle opacity=".1" cx="37.766" cy="37.766" r="37.007"/><path d="M48.066 52.586a2.5 2.5 0 1 1-2.723-4.193c6.49-4.214 8.334-12.891 4.12-19.38a14.06 14.06 0 0 0-2.042-2.477 2.5 2.5 0 0 1 3.468-3.602 19.06 19.06 0 0 1 2.767 3.355c5.719 8.805 3.216 20.58-5.59 26.297zM25.022 22.485a2.5 2.5 0 0 1 3.334 3.726c-5.102 4.563-6.166 12.221-2.417 18.026a14.02 14.02 0 0 0 3.758 3.902 2.5 2.5 0 1 1-2.858 4.103 19.028 19.028 0 0 1-5.097-5.287c-5.092-7.885-3.649-18.273 3.28-24.47z" fill-rule="nonzero" opacity=".4"/><circle transform="rotate(-87 37.766 36.627)" cx="37.766" cy="36.627" r="8.54"/></g></svg>