<?xml version="1.0" encoding="utf-8"?>
<!-- Generator: Adobe Illustrator 21.1.0, SVG Export Plug-In . SVG Version: 6.00 Build 0)  -->
<svg version="1.1" id="Layer_1" xmlns="http://www.w3.org/2000/svg" xmlns:xlink="http://www.w3.org/1999/xlink" x="0px" y="0px"
	 viewBox="0 0 118 118" style="enable-background:new 0 0 118 118;" xml:space="preserve">
<style type="text/css">
	.st0{fill:#70CADB;}
	.st1{fill:#E01765;}
	.st2{fill:#E8A723;}
	.st3{fill:#3EB890;}
	.st4{fill:#CC1F27;}
	.st5{fill:#361238;}
	.st6{fill:#65863A;}
	.st7{fill:#1A937D;}
</style>
<title>Group</title>
<g>
	<path class="st0" d="M10.3,62.9c-4.4,0-8.1-2.6-9.5-6.7c-0.1-0.2-0.1-0.3-0.1-0.5C-0.9,50.5,2,45,7.2,43.3l83.4-27.9
		c1-0.3,2-0.4,3-0.4c4.5,0,8.3,2.6,9.7,6.8l0.1,0.4c1.6,5.5-2.3,10.3-7,11.9L13.6,62.3C12.5,62.7,11.4,62.8,10.3,62.9"/>
	<path class="st1" d="M24.2,103.9c-4.4,0-8.2-2.6-9.5-6.6c-0.1-0.2-0.1-0.3-0.1-0.5C13,91.5,15.9,86,21.1,84.2L104.5,56
		c1.1-0.4,2.2-0.5,3.3-0.6c4.4,0,8.3,2.7,9.7,6.8l0.1,0.4c0.8,2.8,0.3,6-1.3,8.5c-1.2,1.9-5,3.5-5,3.5l-83.7,28.6
		C26.5,103.7,25.3,103.9,24.2,103.9"/>
	<path class="st2" d="M93.6,104c-4.4,0-8.4-2.8-9.8-7L55.9,14.4l-0.1-0.5c-1.5-5.3,1.4-10.8,6.6-12.5c1-0.3,2.1-0.5,3.2-0.5
		c1.6,0,3.2,0.3,4.6,1.1c2.4,1.2,4.3,3.3,5.2,5.9l27.8,82.7l0.1,0.3c1.6,5.5-1.3,11-6.5,12.7C95.7,103.8,94.7,104,93.6,104"/>
	<path class="st3" d="M52.2,118c-4.4,0-8.4-2.8-9.8-7L14.6,28.3c0-0.2-0.1-0.3-0.1-0.5c-1.5-5.3,1.4-10.8,6.6-12.5
		c1-0.3,2.1-0.5,3.2-0.5c4.4,0,8.4,2.8,9.8,7l27.8,82.7c0.1,0.1,0.1,0.3,0.1,0.4c1.5,5.3-1.4,10.8-6.6,12.5
		C54.4,117.8,53.3,118,52.2,118"/>
	<path class="st4" d="M79.9,85.4l19.4-6.6L92.9,60l-19.4,6.6L79.9,85.4"/>
	<path class="st5" d="M38.5,99.6L58,92.9l-6.4-19l-19.4,6.6L38.5,99.6"/>
	<path class="st6" d="M66,44.4l19.4-6.6l-6.3-18.6l-19.4,6.5L66,44.4"/>
	<path class="st7" d="M24.7,58.5l19.4-6.6L37.8,33l-19.4,6.5L24.7,58.5"/>
</g>
</svg>
