<?xml version="1.0" encoding="utf-8"?>
<!-- Generator: Adobe Illustrator 21.1.0, SVG Export Plug-In . SVG Version: 6.00 Build 0)  -->
<svg version="1.1" id="Layer_1" xmlns="http://www.w3.org/2000/svg" xmlns:xlink="http://www.w3.org/1999/xlink" x="0px" y="0px"
	 viewBox="0 0 48 19" style="enable-background:new 0 0 48 19;" xml:space="preserve">
<style type="text/css">
	.st0{fill:#FFFFFF;}
</style>
<g id="Page-1">
	<g id="ic_arrow_left" transform="translate(2.000000, 1.000000)">
		<g id="Desing">
			<g id="_x31_-4-Homepage-">
				<g id="Testomonila">
					<g id="Arrow">
						<g id="Left">
							
								<g id="Group-13" transform="translate(11.000000, 7.888857) rotate(0.000000) translate(-11.000000, -7.888857) translate(0.000000, 0.888857)">
								<g id="Group" transform="translate(0.000000, 0.000000)">
									<g id="Group-15" transform="translate(0.000000, -0.000000)">
										<g id="Group-26">
											<g id="Shape">
												<path class="st0" d="M44.4,8.6H0.9c-0.6,0-1-0.5-1-1s0.5-1,1-1h43.5c0.6,0,1,0.5,1,1S45,8.6,44.4,8.6z"/>
											</g>
											<g id="Shape_1_">
												<path class="st0" d="M8.3,16c-0.3,0-0.5-0.1-0.7-0.3l-8.2-8.1l8.2-8.1c0.4-0.4,1.1-0.4,1.5,0C9.5-0.1,9.5,0.6,9,1
													L2.4,7.6L9,14.2c0.4,0.4,0.4,1.1,0,1.5C8.9,15.9,8.6,16,8.3,16z"/>
											</g>
										</g>
									</g>
								</g>
							</g>
						</g>
					</g>
				</g>
			</g>
		</g>
	</g>
</g>
</svg>
