<?xml version="1.0" encoding="utf-8"?>
<!-- Generator: Adobe Illustrator 21.0.0, SVG Export Plug-In . SVG Version: 6.00 Build 0)  -->
<svg version="1.1" id="Layer_1" xmlns="http://www.w3.org/2000/svg" xmlns:xlink="http://www.w3.org/1999/xlink" x="0px" y="0px"
	 viewBox="0 0 59.3 38" style="enable-background:new 0 0 59.3 38;" xml:space="preserve">
<style type="text/css">
	.st0{fill:#3A5997;}
	.st1{fill:#FFFFFF;}
	.st2{fill:#AEAEAF;}
	.st3{fill:#F0F0F0;}
	.st4{fill:#6199DA;}
	.st5{fill:#88ACE5;}
	.st6{fill:#EFF5FB;}
	.st7{fill:url(#SVGID_1_);}
	.st8{fill:#84A9D8;}
	.st9{fill:#DEEDFF;}
	.st10{fill:#99B9E2;}
	.st11{fill:url(#SVGID_2_);}
	.st12{fill:#E3EEFB;}
	.st13{fill:#D1E3F8;}
	.st14{fill:#FFFDFE;}
</style>
<g>
	<g>
		<g>
			<g>
				<g>
					<g>
						<path class="st0" d="M29.2,11.2c0,0-0.2,3.7-1.1,5.1c0,0,5,3.1,11.8-0.1c0,0-1.3-2-0.9-4.6L29.2,11.2z"/>
						<rect x="32.1" y="15.7" class="st1" width="3.6" height="4.2"/>
						<polygon class="st2" points="32.1,17.9 35.8,15.8 32.1,15 						"/>
						<g>
							<path class="st3" d="M29.4,10.5c0,3.2,2,5.7,4.4,5.8V5.8C31.4,5.9,29.4,7.4,29.4,10.5z"/>
							<path class="st1" d="M34,5.8c-0.1,0-0.1,0-0.2,0v10.5c0,0,0.1,0,0.1,0c2.5,0,4.5-2.6,4.5-5.8C38.5,7.3,36.5,5.8,34,5.8z"/>
						</g>
						<path class="st0" d="M35.8,7.6c0,0,0.5,2.2,2.9,2.7c0,0,1.1-6-4.3-6c-5.4,0-5.6,3.5-5.6,6C28.7,10.3,32.7,10.7,35.8,7.6z"/>
						
							<ellipse transform="matrix(0.1455 -0.9894 0.9894 0.1455 22.1545 47.5365)" class="st1" cx="38.6" cy="10.9" rx="1.2" ry="0.6"/>
						
							<ellipse transform="matrix(0.9953 -9.693974e-02 9.693974e-02 0.9953 -0.9149 2.8749)" class="st4" cx="29.1" cy="10.9" rx="0.5" ry="1.2"/>
					</g>
				</g>
				<g>
					<g>
						<g>
							<g>
								<g>
									<path class="st4" d="M29,9.6c0,0,0.8-3.9,4.5-3.9c3.8,0,4.8,3.4,4.8,3.4l-0.6,0.1c0,0-0.9-2.6-4.1-2.6c-3.1,0-4.3,3-4.3,3
										H29z"/>
									<path class="st4" d="M34.5,14.4c0,0,2.7-0.2,3.7-1.5c0,0,0.3-0.2,0.5,0.2c0.2,0.4-2.7,1.7-4.2,1.7c0,0-0.1,0.3-0.8,0.3
										c-0.8,0-0.9-0.2-0.9-0.2s-0.4-0.4,0.1-0.7c0.4-0.3,0.8-0.2,0.8-0.2S34.4,14,34.5,14.4z"/>
									<path class="st4" d="M37.9,9.3c0,0,0.4,3.1,0.3,3.3c0,0,1.2,0.2,1.2-0.8v-1.7c0,0,0-0.6-0.8-0.8H38"/>
								</g>
							</g>
						</g>
					</g>
				</g>
			</g>
		</g>
		<path class="st3" d="M32.1,27.9l4.6-0.3l-1-9.7c0,0-0.1,0.9-1.8,0.9c-1.7,0-1.7-0.8-1.7-0.8l-0.9,0.8L32.1,27.9z"/>
		<polygon class="st5" points="30.6,20.6 30,19.7 32.1,18 27.5,19.8 24.1,29 27.4,32.5 28.5,30.3 27,28.8 28.6,24.5 29.6,30.4 
			33.4,30.3 29.7,21.4 		"/>
		<g>
			<polygon class="st5" points="41.3,20.1 36,17.9 35.7,18 37.7,19.7 37.2,20.6 38.1,21.2 34,30.5 37.5,30.5 39.7,25 40.8,28.8 
				39.2,30.8 39.8,32 41.1,32.3 43.6,29 			"/>
			<path class="st0" d="M37.3,20.6l0.4-0.9L35.7,18l-1.2,9.4l-0.9-0.2c0,0-1.1-4.1-1.5-9.2l0-0.1l0,0l-2.3,1.9l0.8,0.8l-0.8,0.7
				l3.7,9l0.2,0.3l0.2,0.1l4.2-9.5L37.3,20.6z"/>
		</g>
	</g>
	<rect y="33.1" class="st6" width="58.4" height="4.3"/>
	<linearGradient id="SVGID_1_" gradientUnits="userSpaceOnUse" x1="0" y1="31.1798" x2="58.3642" y2="31.1798">
		<stop  offset="0" style="stop-color:#FFFFFF"/>
		<stop  offset="1" style="stop-color:#EFF5FB"/>
	</linearGradient>
	<polygon class="st7" points="51.9,29.2 6.5,29.2 0,33.1 58.4,33.1 	"/>
	<g>
		<ellipse class="st8" cx="21.7" cy="31.9" rx="2.6" ry="0.6"/>
		<path class="st9" d="M30.2,28.9c0,0.4-0.3,0.6-0.7,0.6l-14.5-0.9c-0.3,0-0.5-0.3-0.5-0.6v-9c0-0.3,0.2-0.6,0.5-0.6l14.5-0.9
			c0.4,0,0.7,0.3,0.7,0.6V28.9z"/>
		<path class="st8" d="M22.9,31.5c0,0.3-0.3,0.6-0.6,0.6h-2c-0.3,0-0.6-0.3-0.6-0.6v-6.2c0-0.3,0.3-0.6,0.6-0.6h2
			c0.3,0,0.6,0.3,0.6,0.6V31.5z"/>
		<ellipse class="st10" cx="21.3" cy="24.9" rx="2.3" ry="3.5"/>
	</g>
	<g>
		<g>
			<linearGradient id="SVGID_2_" gradientUnits="userSpaceOnUse" x1="18.7323" y1="6.1608" x2="28.1456" y2="6.1608">
				<stop  offset="0" style="stop-color:#FFFFFF"/>
				<stop  offset="1" style="stop-color:#EFF5FB"/>
			</linearGradient>
			<path class="st11" d="M23.4,1.7c-2.6,0-4.7,1.6-4.7,3.5c0,1.9,2.1,3.5,4.7,3.5c0.3,0,0.6,0,0.9-0.1c0.4,0.9-0.3,2-0.3,2
				c1.7-0.5,1.9-1.9,1.9-2.5c1.4-0.6,2.3-1.7,2.3-3C28.1,3.2,26,1.7,23.4,1.7L23.4,1.7z"/>
		</g>
		<g>
			<g>
				<circle class="st12" cx="21.4" cy="5.5" r="0.5"/>
			</g>
			<g>
				<circle class="st12" cx="23.4" cy="5.5" r="0.5"/>
			</g>
			<g>
				<circle class="st12" cx="25.5" cy="5.5" r="0.5"/>
			</g>
		</g>
		<g>
			<path class="st13" d="M18.6,5.1c-2.3,0-4.1,1.4-4.1,3.1c0,1.1,0.8,2.1,2,2.6c0,0.5,0.1,1.7,1.6,2.1c0,0-0.6-1-0.3-1.8
				c0.2,0,0.5,0.1,0.7,0.1c2.3,0,4.1-1.4,4.1-3.1C22.7,6.4,20.8,5.1,18.6,5.1z"/>
		</g>
		<g>
			<circle class="st14" cx="16.6" cy="8.9" r="0.5"/>
		</g>
		<g>
			<circle class="st14" cx="18.6" cy="8.9" r="0.5"/>
		</g>
		<g>
			<circle class="st14" cx="20.6" cy="8.9" r="0.5"/>
		</g>
	</g>
	<g>
		<rect x="2.3" y="22.3" class="st5" width="1.5" height="1.3"/>
		<rect x="2.4" y="25.6" class="st5" width="1.4" height="1.3"/>
		<rect x="2.4" y="28.5" class="st5" width="1.5" height="1.5"/>
		<rect x="2.3" y="23.8" class="st5" width="1.8" height="0.7"/>
		<rect x="2.5" y="27" class="st5" width="1.8" height="0.7"/>
		<rect x="2.4" y="30.1" class="st5" width="1.8" height="0.7"/>
		<rect x="6.7" y="22" class="st8" width="4" height="2.3"/>
		<rect x="7" y="25.3" class="st8" width="3.7" height="2.3"/>
		<rect x="6.8" y="28.6" class="st8" width="4" height="2.2"/>
		<g>
			<path class="st9" d="M10.9,21.8H2.6c-0.4,0-0.6,0.3-0.6,0.6v1.7c0,0.4,0.3,0.6,0.6,0.6h8.3c0.4,0,0.6-0.3,0.6-0.6v-1.7
				C11.6,22.1,11.3,21.8,10.9,21.8z M2.7,24.3c-0.1,0-0.1-0.1-0.1-0.1c0-0.1,0.1-0.1,0.1-0.1s0.1,0.1,0.1,0.1
				C2.9,24.3,2.8,24.3,2.7,24.3z M3.2,24.3c-0.1,0-0.1-0.1-0.1-0.1c0-0.1,0.1-0.1,0.1-0.1c0.1,0,0.1,0.1,0.1,0.1
				C3.4,24.3,3.3,24.3,3.2,24.3z M3,23.3c-0.2,0-0.4-0.2-0.4-0.4c0-0.2,0.2-0.4,0.4-0.4c0.2,0,0.4,0.2,0.4,0.4
				C3.4,23.1,3.2,23.3,3,23.3z M3.7,24.3c-0.1,0-0.1-0.1-0.1-0.1c0-0.1,0.1-0.1,0.1-0.1c0.1,0,0.1,0.1,0.1,0.1
				C3.9,24.3,3.8,24.3,3.7,24.3z M10.4,24.2H7.2v-0.4h3.2V24.2z M10.4,23.4H7.2v-0.4h3.2V23.4z M10.4,22.7H7.2v-0.4h3.2V22.7z"/>
			<path class="st9" d="M10.9,25H2.6c-0.4,0-0.6,0.3-0.6,0.6v1.7c0,0.4,0.3,0.6,0.6,0.6h8.3c0.4,0,0.6-0.3,0.6-0.6v-1.7
				C11.6,25.3,11.3,25,10.9,25z M2.7,27.5c-0.1,0-0.1-0.1-0.1-0.1c0-0.1,0.1-0.1,0.1-0.1s0.1,0.1,0.1,0.1
				C2.9,27.5,2.8,27.5,2.7,27.5z M3.2,27.5c-0.1,0-0.1-0.1-0.1-0.1c0-0.1,0.1-0.1,0.1-0.1c0.1,0,0.1,0.1,0.1,0.1
				C3.4,27.5,3.3,27.5,3.2,27.5z M3,26.5c-0.2,0-0.4-0.2-0.4-0.4s0.2-0.4,0.4-0.4c0.2,0,0.4,0.2,0.4,0.4S3.2,26.5,3,26.5z M3.7,27.5
				c-0.1,0-0.1-0.1-0.1-0.1c0-0.1,0.1-0.1,0.1-0.1c0.1,0,0.1,0.1,0.1,0.1C3.9,27.5,3.8,27.5,3.7,27.5z M10.4,27.4H7.2V27h3.2V27.4z
				 M10.4,26.6H7.2v-0.4h3.2V26.6z M10.4,25.9H7.2v-0.4h3.2V25.9z"/>
			<path class="st9" d="M10.9,28.2H2.6c-0.4,0-0.6,0.3-0.6,0.6v1.7c0,0.4,0.3,0.6,0.6,0.6h8.3c0.4,0,0.6-0.3,0.6-0.6v-1.7
				C11.6,28.5,11.3,28.2,10.9,28.2z M2.7,30.7c-0.1,0-0.1-0.1-0.1-0.1c0-0.1,0.1-0.1,0.1-0.1s0.1,0.1,0.1,0.1
				C2.9,30.7,2.8,30.7,2.7,30.7z M3.2,30.7c-0.1,0-0.1-0.1-0.1-0.1c0-0.1,0.1-0.1,0.1-0.1c0.1,0,0.1,0.1,0.1,0.1
				C3.4,30.7,3.3,30.7,3.2,30.7z M3,29.7c-0.2,0-0.4-0.2-0.4-0.4c0-0.2,0.2-0.4,0.4-0.4c0.2,0,0.4,0.2,0.4,0.4
				C3.4,29.5,3.2,29.7,3,29.7z M3.7,30.7c-0.1,0-0.1-0.1-0.1-0.1c0-0.1,0.1-0.1,0.1-0.1c0.1,0,0.1,0.1,0.1,0.1
				C3.9,30.7,3.8,30.7,3.7,30.7z M10.4,30.6H7.2v-0.4h3.2V30.6z M10.4,29.8H7.2v-0.4h3.2V29.8z M10.4,29.1H7.2v-0.4h3.2V29.1z"/>
		</g>
	</g>
	<g>
		<polygon class="st10" points="49.3,27.2 45.1,27.2 45.5,32.3 45.6,32.3 45.6,32.4 48.8,32.4 48.8,32.3 48.8,32.3 		"/>
		<path class="st10" d="M49.1,26.7c0,0.2-0.1,0.3-0.3,0.3h-3.1c-0.2,0-0.3-0.1-0.3-0.3v-0.1c0-0.2,0.1-0.3,0.3-0.3h3.1
			C48.9,26.3,49.1,26.4,49.1,26.7L49.1,26.7z"/>
		<path class="st9" d="M49.5,26.9c0,0.2-0.1,0.3-0.3,0.3h-4.1c-0.2,0-0.3-0.1-0.3-0.3v0c0-0.2,0.1-0.3,0.3-0.3h4.1
			C49.4,26.5,49.5,26.7,49.5,26.9L49.5,26.9z"/>
		<polygon class="st9" points="45.2,28.4 49.2,28.4 48.9,31.2 45.4,31.2 		"/>
		<g>
			<path class="st1" d="M46.5,29.3c0.1-0.2,0.2-0.4,0.4-0.5c0,0,0,0,0,0c-0.1-0.1-0.2-0.3-0.5,0c-0.3,0.3-0.3,0.7-0.2,0.9
				c0,0,0,0,0,0c0,0,0,0,0,0C46.3,29.7,46.4,29.6,46.5,29.3z"/>
			<path class="st1" d="M46.9,28.9c-0.1,0.1-0.3,0.2-0.3,0.4c-0.1,0.2-0.2,0.4-0.4,0.4c0.2,0.1,0.6,0,0.8-0.3
				C47.3,29,47,28.9,46.9,28.9z"/>
			<path class="st1" d="M47.1,30.3c0.1-0.2,0.2-0.4,0.4-0.5c0,0,0,0,0,0c-0.1-0.1-0.2-0.3-0.5,0c-0.3,0.3-0.3,0.7-0.2,0.9
				c0,0,0,0,0,0c0,0,0,0,0,0C46.9,30.7,47,30.5,47.1,30.3z"/>
			<path class="st1" d="M47.5,29.9c-0.1,0.1-0.3,0.2-0.3,0.4c-0.1,0.2-0.2,0.4-0.4,0.4c0.2,0.1,0.6,0,0.8-0.3
				C47.9,30,47.6,29.9,47.5,29.9z"/>
			<path class="st1" d="M47.7,29.2c0.1-0.2,0.2-0.4,0.4-0.5c0,0,0,0,0,0c-0.1-0.1-0.2-0.3-0.5,0c-0.3,0.3-0.3,0.7-0.2,0.9
				c0,0,0,0,0,0c0,0,0,0,0,0C47.5,29.6,47.6,29.5,47.7,29.2z"/>
			<path class="st1" d="M48.1,28.8c-0.1,0.1-0.3,0.2-0.3,0.4c-0.1,0.2-0.2,0.4-0.4,0.4c0.2,0.1,0.6,0,0.8-0.3
				C48.5,29,48.2,28.9,48.1,28.8z"/>
		</g>
	</g>
	<path class="st0" d="M35.6,11.8c0-0.1,0.1-0.3,0.3-0.3c0.1,0,0.2,0.1,0.2,0.2l0-0.7c0-0.1-0.1-0.3-0.3-0.3c-0.1,0-0.3,0.1-0.3,0.3
		V11.8z"/>
	<path class="st0" d="M31.9,11.8c0-0.1,0.1-0.3,0.3-0.3c0.1,0,0.2,0.1,0.2,0.2l0-0.7c0-0.1-0.1-0.3-0.3-0.3c-0.1,0-0.3,0.1-0.3,0.3
		V11.8z"/>
	<g>
		<g>
			<g>
				<path class="st0" d="M38,10.5l0-0.4l-0.5,0l-0.1,0l0,0c0,0-2.5-0.2-3.2,0.4l-0.7,0c-0.7-0.6-3.2-0.4-3.2-0.4l0,0l-0.1,0
					l-0.5,0.1l0.1,0.3l0.3,0c-0.3,1.2,0.5,2,1.8,2c1.2,0,1.6-1.4,1.7-1.7l0.7,0c0,0,0.4,1.6,1.7,1.7c1.2,0,2.1-0.8,1.8-2L38,10.5z
					 M33,10.9L33,10.9c0,0.1-0.3,1.4-1.3,1.4c-1,0-1.7-0.7-1.3-1.7l0,0l0,0l0.1-0.1c0,0,2-0.2,2.5,0.3l0,0.1L33,10.9z M35.9,12.3
					c-1,0-1.3-1.3-1.3-1.3l0-0.1l0-0.1l0-0.1c0.5-0.5,2.5-0.3,2.5-0.3l0.1,0.1l0,0l0,0C37.6,11.6,36.9,12.3,35.9,12.3z"/>
			</g>
		</g>
	</g>
</g>
</svg>
