<?xml version="1.0" encoding="utf-8"?>
<!-- Generator: Adobe Illustrator 21.0.0, SVG Export Plug-In . SVG Version: 6.00 Build 0)  -->
<svg version="1.1" id="Layer_1" xmlns="http://www.w3.org/2000/svg" xmlns:xlink="http://www.w3.org/1999/xlink" x="0px" y="0px"
	 viewBox="0 0 59.3 38" style="enable-background:new 0 0 59.3 38;" xml:space="preserve">
<style type="text/css">
	.st0{display:none;}
	.st1{display:inline;}
	.st2{fill:#3A5997;}
	.st3{fill:#FFFFFF;}
	.st4{fill:#AEAEAF;}
	.st5{fill:#F0F0F0;}
	.st6{fill:#6199DA;}
	.st7{fill:#88ACE5;}
	.st8{display:inline;fill:#EFF5FB;}
	.st9{display:inline;fill:url(#SVGID_1_);}
	.st10{fill:#84A9D8;}
	.st11{fill:#DEEDFF;}
	.st12{fill:#99B9E2;}
	.st13{fill:url(#SVGID_2_);}
	.st14{fill:#E3EEFB;}
	.st15{fill:#D1E3F8;}
	.st16{fill:#FFFDFE;}
	.st17{display:inline;fill:#3A5997;}
	.st18{fill:url(#SVGID_3_);}
	.st19{fill:url(#SVGID_4_);}
	.st20{fill:#1C2642;}
	.st21{fill-rule:evenodd;clip-rule:evenodd;fill:#25718B;}
	.st22{fill-rule:evenodd;clip-rule:evenodd;fill:#F0F0F0;}
	.st23{fill-rule:evenodd;clip-rule:evenodd;fill:#88ACE5;}
	.st24{fill-rule:evenodd;clip-rule:evenodd;fill:#DEEDFF;}
	.st25{fill-rule:evenodd;clip-rule:evenodd;fill:#84A9D8;}
	.st26{fill-rule:evenodd;clip-rule:evenodd;fill:#99B9E2;}
	.st27{fill-rule:evenodd;clip-rule:evenodd;fill:#C4DAF5;}
	.st28{fill-rule:evenodd;clip-rule:evenodd;fill:#30497B;}
	.st29{fill:#C4DAF5;}
	.st30{fill:#6E97D7;}
	.st31{display:inline;fill-rule:evenodd;clip-rule:evenodd;fill:#262629;}
	.st32{display:inline;fill:#E9F3FD;}
	.st33{display:inline;fill:#C4DAF5;}
	.st34{fill:#F5F7FA;}
	.st35{fill:#FAFAFA;}
	.st36{fill:#FED196;}
	.st37{fill-rule:evenodd;clip-rule:evenodd;fill:#F7F9F8;}
	.st38{opacity:0.1;fill:#FFFFFF;}
	.st39{fill:none;stroke:#C4DAF5;stroke-linecap:round;stroke-linejoin:round;stroke-miterlimit:10;}
	.st40{fill:#88A4B2;}
	.st41{fill:#0B1316;}
	.st42{fill-rule:evenodd;clip-rule:evenodd;fill:#E9F3FD;}
	.st43{fill-rule:evenodd;clip-rule:evenodd;fill:#6199DA;}
	.st44{fill-rule:evenodd;clip-rule:evenodd;fill:#202021;}
	.st45{fill-rule:evenodd;clip-rule:evenodd;fill:#262629;}
	.st46{fill-rule:evenodd;clip-rule:evenodd;fill:#353537;}
	.st47{fill-rule:evenodd;clip-rule:evenodd;fill:#404041;}
	.st48{fill-rule:evenodd;clip-rule:evenodd;fill:#E6E7E8;}
	.st49{fill-rule:evenodd;clip-rule:evenodd;fill:#3A5997;}
	.st50{fill-rule:evenodd;clip-rule:evenodd;fill:#FFFFFF;}
	.st51{fill-rule:evenodd;clip-rule:evenodd;fill:#016797;}
	.st52{fill-rule:evenodd;clip-rule:evenodd;fill:#F04152;}
	.st53{fill-rule:evenodd;clip-rule:evenodd;fill:#A4C4EB;}
</style>
<g class="st0">
	<g class="st1">
		<g>
			<g>
				<g>
					<g>
						<path class="st2" d="M29.2,11.2c0,0-0.2,3.7-1.1,5.1c0,0,5,3.1,11.8-0.1c0,0-1.3-2-0.9-4.6L29.2,11.2z"/>
						<rect x="32.1" y="15.7" class="st3" width="3.6" height="4.2"/>
						<polygon class="st4" points="32.1,17.9 35.8,15.8 32.1,15 						"/>
						<g>
							<path class="st5" d="M29.4,10.5c0,3.2,2,5.7,4.4,5.8V5.8C31.4,5.9,29.4,7.4,29.4,10.5z"/>
							<path class="st3" d="M34,5.8c-0.1,0-0.1,0-0.2,0v10.5c0,0,0.1,0,0.1,0c2.5,0,4.5-2.6,4.5-5.8C38.5,7.3,36.5,5.8,34,5.8z"/>
						</g>
						<path class="st2" d="M35.8,7.6c0,0,0.5,2.2,2.9,2.7c0,0,1.1-6-4.3-6c-5.4,0-5.6,3.5-5.6,6C28.7,10.3,32.7,10.7,35.8,7.6z"/>
						
							<ellipse transform="matrix(0.1455 -0.9894 0.9894 0.1455 22.1545 47.5365)" class="st3" cx="38.6" cy="10.9" rx="1.2" ry="0.6"/>
						
							<ellipse transform="matrix(0.9953 -9.693974e-02 9.693974e-02 0.9953 -0.9149 2.8749)" class="st6" cx="29.1" cy="10.9" rx="0.5" ry="1.2"/>
					</g>
				</g>
				<g>
					<g>
						<g>
							<g>
								<g>
									<path class="st6" d="M29,9.6c0,0,0.8-3.9,4.5-3.9c3.8,0,4.8,3.4,4.8,3.4l-0.6,0.1c0,0-0.9-2.6-4.1-2.6c-3.1,0-4.3,3-4.3,3
										H29z"/>
									<path class="st6" d="M34.5,14.4c0,0,2.7-0.2,3.7-1.5c0,0,0.3-0.2,0.5,0.2c0.2,0.4-2.7,1.7-4.2,1.7c0,0-0.1,0.3-0.8,0.3
										c-0.8,0-0.9-0.2-0.9-0.2s-0.4-0.4,0.1-0.7c0.4-0.3,0.8-0.2,0.8-0.2S34.4,14,34.5,14.4z"/>
									<path class="st6" d="M37.9,9.3c0,0,0.4,3.1,0.3,3.3c0,0,1.2,0.2,1.2-0.8v-1.7c0,0,0-0.6-0.8-0.8H38"/>
								</g>
							</g>
						</g>
					</g>
				</g>
			</g>
		</g>
		<path class="st5" d="M32.1,27.9l4.6-0.3l-1-9.7c0,0-0.1,0.9-1.8,0.9c-1.7,0-1.7-0.8-1.7-0.8l-0.9,0.8L32.1,27.9z"/>
		<polygon class="st7" points="30.6,20.6 30,19.7 32.1,18 27.5,19.8 24.1,29 27.4,32.5 28.5,30.3 27,28.8 28.6,24.5 29.6,30.4 
			33.4,30.3 29.7,21.4 		"/>
		<g>
			<polygon class="st7" points="41.3,20.1 36,17.9 35.7,18 37.7,19.7 37.2,20.6 38.1,21.2 34,30.5 37.5,30.5 39.7,25 40.8,28.8 
				39.2,30.8 39.8,32 41.1,32.3 43.6,29 			"/>
			<path class="st2" d="M37.3,20.6l0.4-0.9L35.7,18l-1.2,9.4l-0.9-0.2c0,0-1.1-4.1-1.5-9.2l0-0.1l0,0l-2.3,1.9l0.8,0.8l-0.8,0.7
				l3.7,9l0.2,0.3l0.2,0.1l4.2-9.5L37.3,20.6z"/>
		</g>
	</g>
	<rect y="33.1" class="st8" width="58.4" height="4.3"/>
	<linearGradient id="SVGID_1_" gradientUnits="userSpaceOnUse" x1="0" y1="31.1798" x2="58.3642" y2="31.1798">
		<stop  offset="0" style="stop-color:#FFFFFF"/>
		<stop  offset="1" style="stop-color:#EFF5FB"/>
	</linearGradient>
	<polygon class="st9" points="51.9,29.2 6.5,29.2 0,33.1 58.4,33.1 	"/>
	<g class="st1">
		<ellipse class="st10" cx="21.7" cy="31.9" rx="2.6" ry="0.6"/>
		<path class="st11" d="M30.2,28.9c0,0.4-0.3,0.6-0.7,0.6l-14.5-0.9c-0.3,0-0.5-0.3-0.5-0.6v-9c0-0.3,0.2-0.6,0.5-0.6l14.5-0.9
			c0.4,0,0.7,0.3,0.7,0.6V28.9z"/>
		<path class="st10" d="M22.9,31.5c0,0.3-0.3,0.6-0.6,0.6h-2c-0.3,0-0.6-0.3-0.6-0.6v-6.2c0-0.3,0.3-0.6,0.6-0.6h2
			c0.3,0,0.6,0.3,0.6,0.6V31.5z"/>
		<ellipse class="st12" cx="21.3" cy="24.9" rx="2.3" ry="3.5"/>
	</g>
	<g class="st1">
		<g>
			<linearGradient id="SVGID_2_" gradientUnits="userSpaceOnUse" x1="18.7323" y1="6.1608" x2="28.1456" y2="6.1608">
				<stop  offset="0" style="stop-color:#FFFFFF"/>
				<stop  offset="1" style="stop-color:#EFF5FB"/>
			</linearGradient>
			<path class="st13" d="M23.4,1.7c-2.6,0-4.7,1.6-4.7,3.5c0,1.9,2.1,3.5,4.7,3.5c0.3,0,0.6,0,0.9-0.1c0.4,0.9-0.3,2-0.3,2
				c1.7-0.5,1.9-1.9,1.9-2.5c1.4-0.6,2.3-1.7,2.3-3C28.1,3.2,26,1.7,23.4,1.7L23.4,1.7z"/>
		</g>
		<g>
			<g>
				<circle class="st14" cx="21.4" cy="5.5" r="0.5"/>
			</g>
			<g>
				<circle class="st14" cx="23.4" cy="5.5" r="0.5"/>
			</g>
			<g>
				<circle class="st14" cx="25.5" cy="5.5" r="0.5"/>
			</g>
		</g>
		<g>
			<path class="st15" d="M18.6,5.1c-2.3,0-4.1,1.4-4.1,3.1c0,1.1,0.8,2.1,2,2.6c0,0.5,0.1,1.7,1.6,2.1c0,0-0.6-1-0.3-1.8
				c0.2,0,0.5,0.1,0.7,0.1c2.3,0,4.1-1.4,4.1-3.1C22.7,6.4,20.8,5.1,18.6,5.1z"/>
		</g>
		<g>
			<circle class="st16" cx="16.6" cy="8.9" r="0.5"/>
		</g>
		<g>
			<circle class="st16" cx="18.6" cy="8.9" r="0.5"/>
		</g>
		<g>
			<circle class="st16" cx="20.6" cy="8.9" r="0.5"/>
		</g>
	</g>
	<g class="st1">
		<rect x="2.3" y="22.3" class="st7" width="1.5" height="1.3"/>
		<rect x="2.4" y="25.6" class="st7" width="1.4" height="1.3"/>
		<rect x="2.4" y="28.5" class="st7" width="1.5" height="1.5"/>
		<rect x="2.3" y="23.8" class="st7" width="1.8" height="0.7"/>
		<rect x="2.5" y="27" class="st7" width="1.8" height="0.7"/>
		<rect x="2.4" y="30.1" class="st7" width="1.8" height="0.7"/>
		<rect x="6.7" y="22" class="st10" width="4" height="2.3"/>
		<rect x="7" y="25.3" class="st10" width="3.7" height="2.3"/>
		<rect x="6.8" y="28.6" class="st10" width="4" height="2.2"/>
		<g>
			<path class="st11" d="M10.9,21.8H2.6c-0.4,0-0.6,0.3-0.6,0.6v1.7c0,0.4,0.3,0.6,0.6,0.6h8.3c0.4,0,0.6-0.3,0.6-0.6v-1.7
				C11.6,22.1,11.3,21.8,10.9,21.8z M2.7,24.3c-0.1,0-0.1-0.1-0.1-0.1c0-0.1,0.1-0.1,0.1-0.1s0.1,0.1,0.1,0.1
				C2.9,24.3,2.8,24.3,2.7,24.3z M3.2,24.3c-0.1,0-0.1-0.1-0.1-0.1c0-0.1,0.1-0.1,0.1-0.1c0.1,0,0.1,0.1,0.1,0.1
				C3.4,24.3,3.3,24.3,3.2,24.3z M3,23.3c-0.2,0-0.4-0.2-0.4-0.4c0-0.2,0.2-0.4,0.4-0.4c0.2,0,0.4,0.2,0.4,0.4
				C3.4,23.1,3.2,23.3,3,23.3z M3.7,24.3c-0.1,0-0.1-0.1-0.1-0.1c0-0.1,0.1-0.1,0.1-0.1c0.1,0,0.1,0.1,0.1,0.1
				C3.9,24.3,3.8,24.3,3.7,24.3z M10.4,24.2H7.2v-0.4h3.2V24.2z M10.4,23.4H7.2v-0.4h3.2V23.4z M10.4,22.7H7.2v-0.4h3.2V22.7z"/>
			<path class="st11" d="M10.9,25H2.6c-0.4,0-0.6,0.3-0.6,0.6v1.7c0,0.4,0.3,0.6,0.6,0.6h8.3c0.4,0,0.6-0.3,0.6-0.6v-1.7
				C11.6,25.3,11.3,25,10.9,25z M2.7,27.5c-0.1,0-0.1-0.1-0.1-0.1c0-0.1,0.1-0.1,0.1-0.1s0.1,0.1,0.1,0.1
				C2.9,27.5,2.8,27.5,2.7,27.5z M3.2,27.5c-0.1,0-0.1-0.1-0.1-0.1c0-0.1,0.1-0.1,0.1-0.1c0.1,0,0.1,0.1,0.1,0.1
				C3.4,27.5,3.3,27.5,3.2,27.5z M3,26.5c-0.2,0-0.4-0.2-0.4-0.4s0.2-0.4,0.4-0.4c0.2,0,0.4,0.2,0.4,0.4S3.2,26.5,3,26.5z M3.7,27.5
				c-0.1,0-0.1-0.1-0.1-0.1c0-0.1,0.1-0.1,0.1-0.1c0.1,0,0.1,0.1,0.1,0.1C3.9,27.5,3.8,27.5,3.7,27.5z M10.4,27.4H7.2V27h3.2V27.4z
				 M10.4,26.6H7.2v-0.4h3.2V26.6z M10.4,25.9H7.2v-0.4h3.2V25.9z"/>
			<path class="st11" d="M10.9,28.2H2.6c-0.4,0-0.6,0.3-0.6,0.6v1.7c0,0.4,0.3,0.6,0.6,0.6h8.3c0.4,0,0.6-0.3,0.6-0.6v-1.7
				C11.6,28.5,11.3,28.2,10.9,28.2z M2.7,30.7c-0.1,0-0.1-0.1-0.1-0.1c0-0.1,0.1-0.1,0.1-0.1s0.1,0.1,0.1,0.1
				C2.9,30.7,2.8,30.7,2.7,30.7z M3.2,30.7c-0.1,0-0.1-0.1-0.1-0.1c0-0.1,0.1-0.1,0.1-0.1c0.1,0,0.1,0.1,0.1,0.1
				C3.4,30.7,3.3,30.7,3.2,30.7z M3,29.7c-0.2,0-0.4-0.2-0.4-0.4c0-0.2,0.2-0.4,0.4-0.4c0.2,0,0.4,0.2,0.4,0.4
				C3.4,29.5,3.2,29.7,3,29.7z M3.7,30.7c-0.1,0-0.1-0.1-0.1-0.1c0-0.1,0.1-0.1,0.1-0.1c0.1,0,0.1,0.1,0.1,0.1
				C3.9,30.7,3.8,30.7,3.7,30.7z M10.4,30.6H7.2v-0.4h3.2V30.6z M10.4,29.8H7.2v-0.4h3.2V29.8z M10.4,29.1H7.2v-0.4h3.2V29.1z"/>
		</g>
	</g>
	<g class="st1">
		<polygon class="st12" points="49.3,27.2 45.1,27.2 45.5,32.3 45.6,32.3 45.6,32.4 48.8,32.4 48.8,32.3 48.8,32.3 		"/>
		<path class="st12" d="M49.1,26.7c0,0.2-0.1,0.3-0.3,0.3h-3.1c-0.2,0-0.3-0.1-0.3-0.3v-0.1c0-0.2,0.1-0.3,0.3-0.3h3.1
			C48.9,26.3,49.1,26.4,49.1,26.7L49.1,26.7z"/>
		<path class="st11" d="M49.5,26.9c0,0.2-0.1,0.3-0.3,0.3h-4.1c-0.2,0-0.3-0.1-0.3-0.3v0c0-0.2,0.1-0.3,0.3-0.3h4.1
			C49.4,26.5,49.5,26.7,49.5,26.9L49.5,26.9z"/>
		<polygon class="st11" points="45.2,28.4 49.2,28.4 48.9,31.2 45.4,31.2 		"/>
		<g>
			<path class="st3" d="M46.5,29.3c0.1-0.2,0.2-0.4,0.4-0.5c0,0,0,0,0,0c-0.1-0.1-0.2-0.3-0.5,0c-0.3,0.3-0.3,0.7-0.2,0.9
				c0,0,0,0,0,0c0,0,0,0,0,0C46.3,29.7,46.4,29.6,46.5,29.3z"/>
			<path class="st3" d="M46.9,28.9c-0.1,0.1-0.3,0.2-0.3,0.4c-0.1,0.2-0.2,0.4-0.4,0.4c0.2,0.1,0.6,0,0.8-0.3
				C47.3,29,47,28.9,46.9,28.9z"/>
			<path class="st3" d="M47.1,30.3c0.1-0.2,0.2-0.4,0.4-0.5c0,0,0,0,0,0c-0.1-0.1-0.2-0.3-0.5,0c-0.3,0.3-0.3,0.7-0.2,0.9
				c0,0,0,0,0,0c0,0,0,0,0,0C46.9,30.7,47,30.5,47.1,30.3z"/>
			<path class="st3" d="M47.5,29.9c-0.1,0.1-0.3,0.2-0.3,0.4c-0.1,0.2-0.2,0.4-0.4,0.4c0.2,0.1,0.6,0,0.8-0.3
				C47.9,30,47.6,29.9,47.5,29.9z"/>
			<path class="st3" d="M47.7,29.2c0.1-0.2,0.2-0.4,0.4-0.5c0,0,0,0,0,0c-0.1-0.1-0.2-0.3-0.5,0c-0.3,0.3-0.3,0.7-0.2,0.9
				c0,0,0,0,0,0c0,0,0,0,0,0C47.5,29.6,47.6,29.5,47.7,29.2z"/>
			<path class="st3" d="M48.1,28.8c-0.1,0.1-0.3,0.2-0.3,0.4c-0.1,0.2-0.2,0.4-0.4,0.4c0.2,0.1,0.6,0,0.8-0.3
				C48.5,29,48.2,28.9,48.1,28.8z"/>
		</g>
	</g>
	<path class="st17" d="M35.6,11.8c0-0.1,0.1-0.3,0.3-0.3c0.1,0,0.2,0.1,0.2,0.2l0-0.7c0-0.1-0.1-0.3-0.3-0.3c-0.1,0-0.3,0.1-0.3,0.3
		V11.8z"/>
	<path class="st17" d="M31.9,11.8c0-0.1,0.1-0.3,0.3-0.3c0.1,0,0.2,0.1,0.2,0.2l0-0.7c0-0.1-0.1-0.3-0.3-0.3c-0.1,0-0.3,0.1-0.3,0.3
		V11.8z"/>
	<g class="st1">
		<g>
			<g>
				<path class="st2" d="M38,10.5l0-0.4l-0.5,0l-0.1,0l0,0c0,0-2.5-0.2-3.2,0.4l-0.7,0c-0.7-0.6-3.2-0.4-3.2-0.4l0,0l-0.1,0
					l-0.5,0.1l0.1,0.3l0.3,0c-0.3,1.2,0.5,2,1.8,2c1.2,0,1.6-1.4,1.7-1.7l0.7,0c0,0,0.4,1.6,1.7,1.7c1.2,0,2.1-0.8,1.8-2L38,10.5z
					 M33,10.9L33,10.9c0,0.1-0.3,1.4-1.3,1.4c-1,0-1.7-0.7-1.3-1.7l0,0l0,0l0.1-0.1c0,0,2-0.2,2.5,0.3l0,0.1L33,10.9z M35.9,12.3
					c-1,0-1.3-1.3-1.3-1.3l0-0.1l0-0.1l0-0.1c0.5-0.5,2.5-0.3,2.5-0.3l0.1,0.1l0,0l0,0C37.6,11.6,36.9,12.3,35.9,12.3z"/>
			</g>
		</g>
	</g>
</g>
<g>
	
		<linearGradient id="SVGID_3_" gradientUnits="userSpaceOnUse" x1="3.6729" y1="31.9594" x2="53.3414" y2="31.9594" gradientTransform="matrix(-1 0 0 -1 57.0143 63.9188)">
		<stop  offset="0" style="stop-color:#FFFFFF"/>
		<stop  offset="1" style="stop-color:#EFF5FB"/>
	</linearGradient>
	<rect x="3.7" y="30.6" class="st18" width="49.7" height="2.7"/>
	<linearGradient id="SVGID_4_" gradientUnits="userSpaceOnUse" x1="3.6729" y1="27.7685" x2="53.3414" y2="27.7685">
		<stop  offset="0" style="stop-color:#FFFFFF"/>
		<stop  offset="1" style="stop-color:#EFF5FB"/>
	</linearGradient>
	<polygon class="st19" points="47.8,24.9 9.2,24.9 3.7,30.6 53.3,30.6 	"/>
	<g>
		<path class="st5" d="M30.8,15.9c0,0.5,0.5,0.8,1.2,0.8l0,0c0.7,0,1.2-0.4,1.2-0.8v-2.2c0-0.5-0.5-0.8-1.2-0.8l0,0
			c-0.7,0-1.2,0.4-1.2,0.8V15.9z"/>
		<path class="st5" d="M31.1,2.2H32h0.9c1.9,0,3.5,1.5,3.5,3.5v4.1c0,1.9-2.1,3.9-3.6,3.9h-0.9H31c-1.1,0-3.3-2-3.3-3.9V5.7
			C27.7,3.8,29.2,2.2,31.1,2.2z"/>
		<path class="st20" d="M39.6,2c0,0-0.3,0.6-1.3,0.9c-0.8,0.3-2.1,0-2.1,0c1.5-0.2,1.6-2,1.6-2c-0.6,0.7-2,0.7-2.6,0.7
			c0,0-0.1,0-0.1,0h-7.7c-0.6,0-1,0.5-1,1.1v1.6v0.2v2.8c0,0.4,0.3,0.7,0.8,0.7c0.4,0,0.8-0.3,0.8-0.7V5.6h7.2c0,0,0,0,0,0
			C39.9,5.6,39.6,2,39.6,2z"/>
		<circle class="st2" cx="29.5" cy="7.8" r="0.5"/>
		<circle class="st2" cx="34.7" cy="7.8" r="0.5"/>
	</g>
	<path class="st21" d="M27.5,14.5c0,0.1-2.5,0.9-2.5,0.9s0.2,8.3,0.4,8.2c0.1,0,0.7,0,1.7,0l0,0c0,0,2.3,0,4.9,0c2.6,0,4.9,0,4.9,0
		l0,0c1,0,1.6,0,1.7,0c0.3,0,0.4-8.2,0.4-8.2s-2.5-0.8-2.5-0.9C36.6,14.4,27.5,14.4,27.5,14.5L27.5,14.5z"/>
	<path class="st22" d="M17,9.2C16.9,9,16.2,7.5,16.1,7c-0.1-0.5,0.2-1.1,0.5-1.1C17,5.9,17,6.1,17,6.1s0.1-0.3,0.4-0.2
		c0.3,0,0.4,0.2,0.4,0.2s0-0.1,0.3-0.2c0.3,0,0.4,0.1,0.4,0.1s0-0.1,0.3-0.1c0.3,0,0.4,0.2,0.5,0.2c0,0.1,0,0.2,0,0.2s0.3,0,0.4,0.2
		c0.1,0.3-0.1,2.2-0.1,2.2L17,9.2z"/>
	<path class="st23" d="M26.5,15.2c0,0-3.3,0.3-4.8-1.3c-1.5-1.6-2-5.4-2-5.4L16.7,9c0,0,0.6,5.7,3.2,7.7s6.2,1.9,6.2,1.9L26.5,15.2z
		"/>
	<path class="st24" d="M31.6,26.9c0,0-0.6-1-1.3-1.3c-0.7-0.3-5.5-0.1-5.5-0.1l0-10.1l1.3-0.3l5,0.2l0.9,1.3l0,10L31.6,26.9z"/>
	<path class="st24" d="M32.8,26.9c0,0,0.6-1,1.3-1.3c0.7-0.3,5.3-0.1,5.3-0.1l0-9.7l-1.2-0.3l-4.8,0.2L32.6,17l0,9.6L32.8,26.9z"/>
	<rect x="31.3" y="17.2" class="st25" width="1.5" height="9.8"/>
	<path class="st26" d="M24.8,15c0,0,6-0.1,6.4,0.2c0.5,0.4,0.8,1.1,0.8,1.1l0.1,0.1l0.1-0.1c0,0,0.3-0.7,0.8-1.1
		c0.5-0.4,6.4-0.2,6.4-0.2l0,0.8c0,0-3-0.1-4.3,0c-0.8,0-1.4,0-1.8,0.4c-0.2,0.2-0.4,0.5-0.5,1h-1.5c-0.1-0.3-0.2-0.5-0.3-0.7
		c-0.4-0.6-1.1-0.7-2-0.7c-1.4,0-4.3,0-4.3,0L24.8,15z"/>
	<g>
		<path class="st22" d="M39.3,19.1H40c0.2,0,0.4,0.2,0.4,0.4v0.1c0,0.2-0.2,0.4-0.4,0.4h-0.6c-0.2,0-0.4-0.2-0.4-0.4v-0.1
			C39,19.3,39.1,19.1,39.3,19.1L39.3,19.1z"/>
		<path class="st22" d="M40.3,19.7c-0.1,0.1-0.2,0.2-0.3,0.2h-0.6c-0.1,0-0.2-0.1-0.3-0.2c0,0,0.1,0,0.1,0h1
			C40.2,19.7,40.3,19.7,40.3,19.7L40.3,19.7z"/>
		<path class="st22" d="M39.1,19.9h1c0.2,0,0.4,0.2,0.4,0.4v0.1c0,0.2-0.2,0.4-0.4,0.4h-1c-0.2,0-0.4-0.2-0.4-0.4v-0.1
			C38.8,20,39,19.9,39.1,19.9L39.1,19.9z"/>
		<path class="st22" d="M39.1,19.9h1c0.2,0,0.4,0.2,0.4,0.3c0,0.2-0.2,0.3-0.4,0.3h-1c-0.2,0-0.3-0.2-0.4-0.3
			C38.8,20,39,19.9,39.1,19.9L39.1,19.9z"/>
		<path class="st22" d="M39.3,20.6h0.9c0.2,0,0.4,0.2,0.4,0.4v0.1c0,0.2-0.2,0.4-0.4,0.4h-0.9c-0.2,0-0.4-0.2-0.4-0.4V21
			C38.9,20.8,39.1,20.6,39.3,20.6L39.3,20.6z"/>
		<path class="st22" d="M39.3,21.4H40c0.2,0,0.4,0.2,0.4,0.4v0.1c0,0.2-0.2,0.4-0.4,0.4h-0.6c-0.2,0-0.4-0.2-0.4-0.4v-0.1
			C39,21.5,39.1,21.4,39.3,21.4L39.3,21.4z"/>
		<path class="st22" d="M39.3,20.6h0.9c0.2,0,0.3,0.1,0.4,0.3c0,0.2-0.2,0.3-0.4,0.3h-0.9c-0.2,0-0.3-0.1-0.4-0.3
			C38.9,20.8,39.1,20.6,39.3,20.6L39.3,20.6z"/>
	</g>
	<g>
		<polygon class="st26" points="15.1,29.2 13,29.2 10.4,29.2 8.3,29.2 8.3,28.8 11.3,27.8 11.3,26.7 11.1,26.7 11.1,25.6 12.4,25.6 
			12.4,26.7 12.2,26.7 12.2,27.8 15.1,28.8 		"/>
		<polygon class="st27" points="8.2,14.1 8.5,14 12,23.2 11.7,23.3 		"/>
		<polygon class="st27" points="9.6,13.8 9.9,13.7 12.3,23.3 12,23.3 		"/>
		
			<rect x="13.2" y="9.9" transform="matrix(0.1496 -0.9887 0.9887 0.1496 -3.3325 25.8063)" class="st27" width="0.3" height="9.9"/>
		<polygon class="st27" points="11.7,23.1 12,23.1 11.8,25.8 11.6,25.8 		"/>
		<polygon class="st27" points="12.1,23.2 12.3,23.3 11.7,25.9 11.5,25.8 		"/>
		
			<rect x="14.6" y="9.8" transform="matrix(0.1749 -0.9846 0.9846 0.1749 -2.3211 26.6502)" class="st27" width="0.3" height="9.9"/>
		<path class="st27" d="M8.4,14.3c-0.1,0-0.1,0-0.1-0.1c0-0.1,0-0.1,0.1-0.1c0.1,0,0.1,0,0.1,0.1C8.5,14.2,8.5,14.3,8.4,14.3
			L8.4,14.3z"/>
		<path class="st27" d="M9.8,14c-0.1,0-0.1,0-0.1-0.1c0-0.1,0-0.1,0.1-0.1c0.1,0,0.1,0,0.1,0.1C9.9,14,9.9,14,9.8,14L9.8,14z"/>
		<path class="st28" d="M19.5,16.7c0.3-0.4,0.9-0.4,1.2-0.2c0.3,0.3,0.4,0.8,0,1.2c-0.3,0.4-0.9,0.4-1.2,0.2
			C19.2,17.6,19.2,17.1,19.5,16.7L19.5,16.7z"/>
		<path class="st27" d="M15,14.1c0,0,1.7,1.2,2.3,2.3c0.5,1,0.4,1.1,0.7,1.6c0.3,0.5,0.9,0.8,0.9,0.8l1.3-1.5l1.3-1.5
			c0,0-0.4-0.5-0.9-0.7c-0.5-0.3-0.6-0.1-1.7-0.4c-1.1-0.4-2.6-1.9-2.6-1.9C15.5,13.4,15.5,13.4,15,14.1L15,14.1z"/>
	</g>
	<path class="st29" d="M33.3,11.4c-0.1,0.5-0.5,0.9-0.9,0.9c-0.4,0-0.7-0.4-0.8-0.9L33.3,11.4z"/>
	<path class="st30" d="M32.1,9.7c0,0.2,0.1,0.3,0.3,0.3l0,0c0.2,0,0.3-0.1,0.3-0.3l0-0.6c0-0.2-0.1-0.3-0.3-0.3l0,0
		c-0.2,0-0.3,0.1-0.3,0.3L32.1,9.7z"/>
</g>
<g class="st0">
	<path id="XMLID_88_" class="st31" d="M21.7,34.5c0,0.1,0.4,1.4,0.4,1.4l1.4-0.3l-0.1-0.2c0.7,0.2,2.1-0.2,2.3-0.3
		c0.7-0.3,1.3-0.7,1.3-0.7l-0.1-0.2c0,0,0-0.2-0.2-0.2c-2.3,0.4-2.9-0.2-3.4-0.2C23.2,33.7,21.7,34.5,21.7,34.5z"/>
	<polygon class="st32" points="45.1,18.2 17.3,18.2 13.3,21.6 49.1,21.6 	"/>
	<polygon class="st33" points="49.2,25.3 13.1,25.3 13.4,21.6 49.2,21.6 	"/>
	<g id="people_1_" class="st1">
		<path class="st34" d="M42.8,8.9c0,0-0.4-0.5-0.2-1c0.2-0.5,0.1-0.4,0.1-0.4l-1.1-0.3c0,0,0,0.1-0.1,0.4c-0.1,0.2-0.5,0.8-0.7,0.8
			c0.1,0.6,0.2,1.5,0.2,1.5l0,1.8l0.5-1.7C41.4,10.1,42.5,9.7,42.8,8.9z"/>
		<path class="st35" d="M41.5,7.6c0.1-0.2,0.1-0.4,0.1-0.4l1.1,0.3c0,0,0,0.1-0.1,0.4c-0.1,0.2,0,0.5,0,0.6
			c-0.4,0.1-1.2,0.3-1.9-0.1C41,8.4,41.4,7.8,41.5,7.6z"/>
		<g>
			<path class="st7" d="M36.4,15.7c0,0,1.6-1.1,2.4-2.4C39.7,11.9,39,9.8,40,10c1,0.2,0.6,2.8-0.1,4c-0.7,1.2-2.9,2.5-2.9,2.5
				L36.4,15.7z"/>
			<path class="st36" d="M36.9,16.2c0,0-0.3,0.4-0.7,0.5c-0.1,0-0.1,0,0-0.1c0.1,0,0.2-0.1,0.2-0.1c0,0-0.2,0.1-0.3,0.1
				c-0.1,0-0.1,0-0.1-0.1c0.1-0.1,0.3-0.1,0.3-0.1s-0.3,0.1-0.4,0.2c-0.1,0-0.1-0.1,0-0.1c0.1,0,0.4-0.2,0.4-0.2s-0.3,0.1-0.4,0.1
				c-0.1,0-0.1-0.1,0-0.1c0.1,0,0.3-0.1,0.3-0.1s-0.1,0-0.2,0c-0.1,0-0.2-0.1,0-0.2c0.1-0.1,0.5-0.3,0.8-0.2
				C36.8,16.1,36.9,16.2,36.9,16.2z"/>
		</g>
		<g>
			<path class="st29" d="M40,8.8l1,0.9l0.1,0.3l-0.2,1.4l0.3-1.3L42,9.7l0,0l1.6-0.1c0,0,1.6,0.8,1.8,2.9c0.2,2.1-1.2,5.9-1.2,5.9
				l-4.4-1.3c0,0,0.3-3.9-0.3-5C39.1,10.5,40,8.8,40,8.8z"/>
			<path class="st6" d="M39.8,17.1c0,0,0.2-2.9-0.1-4.4c0,0,0,0,0,0c1.2,1.6,3.5,0.5,3.5,0.5s-0.1,0.6-0.3,1.4
				c-0.6,2.1,0.3,3.5,0.3,3.5L39.8,17.1z"/>
			<path class="st29" d="M41.8,11L41.3,10c0,0,1.4-0.7,1.6-1.2c0.4,0.3,0.7,0.8,0.7,0.8L41.8,11z"/>
			<path class="st29" d="M41.1,9.9c0,0-0.6,0.5-0.6,0.6c0,0-0.5-1.2-0.5-1.8c0.3-0.3,0.7-0.3,0.7-0.3L41.1,9.9z"/>
		</g>
		<g>
			<path class="st6" d="M38.3,19.8c0,0,4.8-0.8,4.9-0.8c0.1,0,0.1-0.1,0.2-0.1c0-0.1,0.1-0.2,0.1-0.2l-4.9,0.6L38.3,19.8z"/>
			<path class="st11" d="M32.6,17.8c-0.2,0-0.2,0.1,0,0.2l5.7,1.6c0.2,0.1,0.4-0.1,0.4-0.1l4.6-0.8c0.2,0,0.2-0.1,0-0.2l-5.8-1.7
				c-0.2-0.1-0.5-0.1-0.8,0L32.6,17.8z"/>
			<g>
				<path class="st37" d="M37.8,19.1l0.2,0c0,0,0.1,0,0.1,0l0.2,0c0,0,0.1,0,0,0l-0.2,0c0,0-0.1,0-0.1,0L37.8,19.1
					C37.8,19.1,37.8,19.1,37.8,19.1z"/>
				<path class="st37" d="M38.3,19.1l0.2,0c0,0,0.1,0,0.1,0l0.3,0c0,0,0.1,0,0,0l-0.2,0c0,0-0.1,0-0.1,0L38.3,19.1
					C38.3,19,38.2,19,38.3,19.1z"/>
				<path class="st37" d="M38.9,19l0.2,0c0,0,0.1,0,0.1,0l0.3-0.1c0,0,0.1,0,0,0l-0.2,0c0,0-0.1,0-0.1,0L38.9,19
					C38.8,19,38.8,19,38.9,19z"/>
				<path class="st37" d="M39.4,18.9l0.2,0c0,0,0.1,0,0.1,0l0.3-0.1c0,0,0.1,0,0,0l-0.2,0c0,0-0.1,0-0.1,0L39.4,18.9
					C39.4,18.9,39.4,18.9,39.4,18.9z"/>
				<path class="st37" d="M40,18.8l0.2,0c0,0,0.1,0,0.1,0l0.3,0c0,0,0.1,0,0,0l-0.2,0c0,0-0.1,0-0.1,0L40,18.8
					C40,18.8,40,18.8,40,18.8z"/>
				<path class="st37" d="M40.6,18.7l0.2,0c0,0,0.1,0,0.1,0l0.3,0c0,0,0.1,0,0,0l-0.2,0c0,0-0.1,0-0.1,0L40.6,18.7
					C40.6,18.7,40.6,18.7,40.6,18.7z"/>
				<path class="st37" d="M37.5,19l0.2,0c0,0,0.1,0,0.1,0l0.2,0c0,0,0.1,0,0,0l-0.2,0c0,0-0.1,0-0.1,0L37.5,19
					C37.5,19,37.5,19,37.5,19z"/>
				<path class="st37" d="M37.7,18.9l0.4,0.1c0,0,0.1,0,0.1,0l0.3,0c0,0,0.1,0,0,0l-0.4-0.1c0,0-0.1,0-0.1,0L37.7,18.9
					C37.7,18.9,37.7,18.9,37.7,18.9z"/>
				<path class="st37" d="M38.5,18.9l0.2,0.1c0,0,0.1,0,0.1,0l0.3,0c0,0,0.1,0,0,0L39,18.8c0,0-0.1,0-0.1,0L38.5,18.9
					C38.5,18.8,38.5,18.9,38.5,18.9z"/>
				<path class="st37" d="M38.8,18.7l0.5,0.1c0,0,0.1,0,0.1,0l0.3,0c0,0,0.1,0,0,0l-0.4-0.1c0,0-0.1,0-0.1,0L38.8,18.7
					C38.8,18.7,38.8,18.7,38.8,18.7z"/>
				<path class="st37" d="M39.7,18.7l0.2,0c0,0,0.1,0,0.1,0l0.3,0c0,0,0.1,0,0,0l-0.2,0c0,0-0.1,0-0.1,0L39.7,18.7
					C39.7,18.7,39.7,18.7,39.7,18.7z"/>
				<path class="st37" d="M40.3,18.6l0.2,0c0,0,0.1,0,0.1,0l0.3,0c0,0,0.1,0,0,0l-0.2,0c0,0-0.1,0-0.1,0L40.3,18.6
					C40.3,18.6,40.3,18.6,40.3,18.6z"/>
				<path class="st37" d="M37.2,19l0.1,0c0,0,0.1,0,0.1,0l0.2,0c0,0,0.1,0,0,0l-0.1,0c0,0-0.1,0-0.1,0L37.2,19
					C37.2,19,37.2,19,37.2,19z"/>
				<path class="st37" d="M37,18.9l0.1,0c0,0,0.1,0,0.1,0l0.2,0c0,0,0.1,0,0,0l-0.1,0c0,0-0.1,0-0.1,0L37,18.9
					C37,18.9,36.9,18.9,37,18.9z"/>
				<path class="st37" d="M37.4,18.8l0.1,0c0,0,0.1,0,0.1,0l0.3-0.1c0,0,0.1,0,0,0l-0.1,0c0,0-0.1,0-0.1,0L37.4,18.8
					C37.4,18.8,37.4,18.8,37.4,18.8z"/>
				<path class="st37" d="M37.1,18.7l0.1,0c0,0,0.1,0,0.1,0l0.3-0.1c0,0,0.1,0,0,0l-0.1,0c0,0-0.1,0-0.1,0L37.1,18.7
					C37.1,18.7,37.1,18.7,37.1,18.7z"/>
				<path class="st37" d="M37.3,18.5l0.2,0c0,0,0.1,0,0.1,0l0.3,0c0,0,0.1,0,0,0l-0.2,0c0,0-0.1,0-0.1,0L37.3,18.5
					C37.3,18.5,37.2,18.5,37.3,18.5z"/>
				<path class="st37" d="M37.6,18.6l0.2,0c0,0,0.1,0,0.1,0l0.3,0c0,0,0.1,0,0,0l-0.2,0c0,0-0.1,0-0.1,0L37.6,18.6
					C37.6,18.6,37.6,18.6,37.6,18.6z"/>
				<path class="st37" d="M37.9,18.7l0.2,0c0,0,0.1,0,0.1,0l0.3,0c0,0,0.1,0,0,0l-0.2,0c0,0-0.1,0-0.1,0L37.9,18.7
					C37.9,18.7,37.9,18.7,37.9,18.7z"/>
				<path class="st37" d="M38.2,18.8l0.2,0c0,0,0.1,0,0.1,0l0.3,0c0,0,0.1,0,0,0l-0.2,0c0,0-0.1,0-0.1,0L38.2,18.8
					C38.2,18.8,38.2,18.8,38.2,18.8z"/>
				<path class="st37" d="M37.3,18.3l0.2,0c0,0,0.1,0,0.1,0l0.3,0c0,0,0.1,0,0,0l-0.2,0c0,0-0.1,0-0.1,0L37.3,18.3
					C37.3,18.3,37.3,18.3,37.3,18.3z"/>
				<path class="st37" d="M37.6,18.4l0.2,0c0,0,0.1,0,0.1,0l0.3,0c0,0,0.1,0,0,0l-0.2,0c0,0-0.1,0-0.1,0L37.6,18.4
					C37.6,18.4,37.6,18.4,37.6,18.4z"/>
				<path class="st37" d="M37.9,18.5l0.2,0c0,0,0.1,0,0.1,0l0.3,0c0,0,0.1,0,0,0l-0.2,0c0,0-0.1,0-0.1,0L37.9,18.5
					C37.9,18.4,37.9,18.5,37.9,18.5z"/>
				<path class="st37" d="M38.2,18.5l0.2,0c0,0,0.1,0,0.1,0l0.3,0c0,0,0.1,0,0,0l-0.2,0c0,0-0.1,0-0.1,0L38.2,18.5
					C38.2,18.5,38.2,18.5,38.2,18.5z"/>
				<path class="st37" d="M38.5,18.6l0.2,0c0,0,0.1,0,0.1,0l0.3,0c0,0,0.1,0,0,0l-0.2,0c0,0-0.1,0-0.1,0L38.5,18.6
					C38.5,18.6,38.5,18.6,38.5,18.6z"/>
				<path class="st37" d="M37.1,18l0.2,0c0,0,0.1,0,0.1,0l0.3,0c0,0,0.1,0,0,0l-0.2,0c0,0-0.1,0-0.1,0L37.1,18
					C37.1,18,37.1,18,37.1,18z"/>
				<path class="st37" d="M37.5,18.1l0.2,0c0,0,0.1,0,0.1,0l0.3,0c0,0,0.1,0,0,0l-0.2,0c0,0-0.1,0-0.1,0L37.5,18.1
					C37.4,18.1,37.4,18.1,37.5,18.1z"/>
				<path class="st37" d="M37.8,18.2l0.2,0c0,0,0.1,0,0.1,0l0.3,0c0,0,0.1,0,0,0l-0.2,0c0,0-0.1,0-0.1,0L37.8,18.2
					C37.8,18.1,37.7,18.2,37.8,18.2z"/>
				<path class="st37" d="M38.1,18.2l0.2,0c0,0,0.1,0,0.1,0l0.3,0c0,0,0.1,0,0,0l-0.2,0c0,0-0.1,0-0.1,0L38.1,18.2
					C38.1,18.2,38,18.2,38.1,18.2z"/>
				<path class="st37" d="M38.4,18.3l0.2,0c0,0,0.1,0,0.1,0l0.3,0c0,0,0.1,0,0,0l-0.2,0c0,0-0.1,0-0.1,0L38.4,18.3
					C38.4,18.3,38.3,18.3,38.4,18.3z"/>
				<path class="st37" d="M38.7,18.4l0.2,0c0,0,0.1,0,0.1,0l0.3,0c0,0,0.1,0,0,0l-0.2,0c0,0-0.1,0-0.1,0L38.7,18.4
					C38.7,18.4,38.7,18.4,38.7,18.4z"/>
				<path class="st37" d="M39,18.5l0.2,0c0,0,0.1,0,0.1,0l0.3,0c0,0,0.1,0,0,0l-0.2,0c0,0-0.1,0-0.1,0L39,18.5
					C39,18.5,39,18.5,39,18.5z"/>
				<path class="st37" d="M39.3,18.6l0.3,0.1c0,0,0.1,0,0.1,0l0.3,0c0,0,0.1,0,0,0l-0.3-0.1c0,0-0.1,0-0.1,0L39.3,18.6
					C39.3,18.6,39.3,18.6,39.3,18.6z"/>
				<path class="st37" d="M37.4,17.8l0.2,0c0,0,0.1,0,0.1,0l0.3,0c0,0,0.1,0,0,0l-0.2,0c0,0-0.1,0-0.1,0L37.4,17.8
					C37.4,17.8,37.4,17.8,37.4,17.8z"/>
				<path class="st37" d="M37.7,17.9l0.2,0c0,0,0.1,0,0.1,0l0.3,0c0,0,0.1,0,0,0l-0.2,0c0,0-0.1,0-0.1,0L37.7,17.9
					C37.7,17.9,37.7,17.9,37.7,17.9z"/>
				<path class="st37" d="M38,18l0.2,0c0,0,0.1,0,0.1,0l0.3,0c0,0,0.1,0,0,0l-0.2,0c0,0-0.1,0-0.1,0L38,18C38,18,38,18,38,18z"/>
				<path class="st37" d="M38.3,18.1l0.2,0c0,0,0.1,0,0.1,0l0.3,0c0,0,0.1,0,0,0l-0.2,0c0,0-0.1,0-0.1,0L38.3,18.1
					C38.3,18.1,38.3,18.1,38.3,18.1z"/>
				<path class="st37" d="M38.6,18.2l0.2,0c0,0,0.1,0,0.1,0l0.3,0c0,0,0.1,0,0,0l-0.2,0c0,0-0.1,0-0.1,0L38.6,18.2
					C38.6,18.1,38.6,18.1,38.6,18.2z"/>
				<path class="st37" d="M38.9,18.2l0.2,0c0,0,0.1,0,0.1,0l0.3,0c0,0,0.1,0,0,0l-0.2,0c0,0-0.1,0-0.1,0L38.9,18.2
					C38.9,18.2,38.9,18.2,38.9,18.2z"/>
				<path class="st37" d="M39.3,18.3l0.2,0c0,0,0.1,0,0.1,0l0.3,0c0,0,0.1,0,0,0l-0.2,0c0,0-0.1,0-0.1,0L39.3,18.3
					C39.2,18.3,39.2,18.3,39.3,18.3z"/>
				<path class="st37" d="M39.6,18.4l0.3,0.1c0,0,0.1,0,0.1,0l0.3,0c0,0,0.1,0,0,0l-0.3-0.1c0,0-0.1,0-0.1,0L39.6,18.4
					C39.6,18.4,39.5,18.4,39.6,18.4z"/>
				<path class="st37" d="M40,18.5l0.2,0c0,0,0.1,0,0.1,0l0.3,0c0,0,0.1,0,0,0l-0.2,0c0,0-0.1,0-0.1,0L40,18.5
					C40,18.5,40,18.5,40,18.5z"/>
				<path class="st37" d="M38.5,17.7l1.6,0.4c0,0,0.1,0,0.1,0l0.7-0.1c0,0,0.1,0,0,0l-1.6-0.4c0,0-0.1,0-0.1,0L38.5,17.7
					C38.5,17.7,38.5,17.7,38.5,17.7z"/>
			</g>
			<polygon class="st7" points="38.3,19.8 32.4,18.1 32.4,17.8 38.4,19.7 			"/>
			<g>
				<path class="st11" d="M32.1,17.3c0.1,0.3,0.3,0.6,0.6,0.7l5.6,1.6c0.3,0.1,0.4-0.1,0.4-0.4l-0.9-5c-0.1-0.3-0.3-0.6-0.6-0.7
					l-5.6-1.6c-0.3-0.1-0.4,0.1-0.4,0.4L32.1,17.3z"/>
				<path class="st7" d="M38.4,19.4l-0.9-5c-0.1-0.3-0.3-0.6-0.6-0.7l-5.6-1.6c-0.1,0-0.1,0-0.1,0c0-0.2,0.2-0.2,0.4-0.2l5.6,1.6
					c0.3,0.1,0.5,0.4,0.6,0.7l0.9,5c0,0.2,0,0.4-0.2,0.4C38.4,19.6,38.4,19.5,38.4,19.4z"/>
			</g>
			<path class="st38" d="M31.6,11.9l5.6,1.6c0.1,0,0.2,0.1,0.3,0.2l-4.9,4.2c-0.2-0.1-0.4-0.4-0.4-0.6l-0.9-5
				C31.2,12.1,31.3,11.9,31.6,11.9z"/>
		</g>
		<g>
			<path class="st7" d="M39.7,17.3c0,0,1.8-1.1,2.7-2.4c1.1-1.5,0.5-3.7,1.5-3.5c1,0.2,0.5,3-0.3,4.2c-0.8,1.3-3.2,2.5-3.2,2.5
				L39.7,17.3z"/>
			<path class="st34" d="M40.4,18.1c0,0-0.5,0.6-1.1,0.7c-0.2,0.1-0.2-0.1-0.1-0.1c0.1-0.1,0.3-0.2,0.3-0.2c0,0-0.3,0.1-0.5,0.2
				c-0.1,0.1-0.2-0.1-0.1-0.2c0.2-0.1,0.4-0.2,0.4-0.2s-0.5,0.2-0.6,0.2c-0.1,0-0.2-0.1,0-0.2c0.2-0.1,0.6-0.2,0.6-0.2
				s-0.4,0.2-0.6,0.2c-0.2,0-0.2-0.1,0-0.2c0.1-0.1,0.4-0.1,0.4-0.1s-0.2-0.1-0.4,0c-0.2,0-0.3-0.1,0-0.2c0.2-0.1,0.8-0.4,1.2-0.2
				C40.3,17.9,40.4,18.1,40.4,18.1z"/>
		</g>
		<path class="st34" d="M42.2,8.5c0,0-1.5-0.2-1.9-1.5c-0.3-1.4-0.3-4.3-0.3-4.3s1.8,0.5,3.2,0c1.3,1.3,2,1.6,2,1.6
			S44.7,8.6,42.2,8.5z"/>
		<path class="st2" d="M44.6,6.6c0,0,1.1-1.3,1.4-2.8c0.3-1.4-1.2-3.2-2.8-2.9c-2.3,0.3-3.8-0.4-3.8-0.4s-0.1,2.3,0.7,2.8
			c2.4,1.5,3.8,0.5,3.8,0.5s0,1.3,0.5,2C44.9,4.8,44.8,4,44.8,4S45,6.1,44.6,6.6z"/>
		<path class="st39" d="M40.8,6.7c0,0,0.5,1.1,1.5,0.4"/>
		<path class="st2" d="M43.4,2.3c-2.4,0.8-3.8-0.6-4-0.7c-0.1-0.6-0.1-1.2-0.1-1.2s1.5,0.8,3.8,0.4c1.7-0.2,3.1,1.5,2.8,2.9
			c-0.3,1.4-1.4,2.8-1.4,2.8c0,0,0.1-0.3,0.1-0.4C46.9,1.8,43.7,2.2,43.4,2.3z"/>
		<g>
			<ellipse transform="matrix(0.2784 -0.9605 0.9605 0.2784 24.9729 42.793)" class="st3" cx="41" cy="4.8" rx="0.3" ry="0.3"/>
			<ellipse transform="matrix(0.2784 -0.9605 0.9605 0.2784 24.9304 42.8873)" class="st40" cx="41" cy="4.9" rx="0.2" ry="0.2"/>
			<ellipse transform="matrix(0.2784 -0.9605 0.9605 0.2784 24.8884 42.9033)" class="st41" cx="41" cy="4.9" rx="0.1" ry="0.1"/>
		</g>
		<g>
			<ellipse transform="matrix(0.2784 -0.9605 0.9605 0.2784 25.8134 45.0111)" class="st3" cx="42.9" cy="5.3" rx="0.3" ry="0.3"/>
			<ellipse transform="matrix(0.2784 -0.9605 0.9605 0.2784 25.7191 44.9686)" class="st40" cx="42.8" cy="5.4" rx="0.2" ry="0.2"/>
			<ellipse transform="matrix(0.2784 -0.9605 0.9605 0.2784 25.677 44.9845)" class="st41" cx="42.8" cy="5.4" rx="0.1" ry="0.1"/>
		</g>
	</g>
	<g class="st1">
		<g id="XMLID_98_">
			<path id="XMLID_114_" class="st23" d="M11.1,30.1c0.1,0.1,0,0.3-0.1,0.3l-0.5,0.3c-0.1,0.1-0.3,0.1-0.4-0.1l0,0
				c-0.1-0.1-0.1-0.3,0.1-0.4l0.5-0.3C10.8,30,10.9,30,11.1,30.1l0.3-0.3l0-0.4l0.1,0l0,0.4l0,0l0,0L11.1,30.1z"/>
			<rect id="XMLID_113_" x="12.8" y="29.2" class="st27" width="0.8" height="3.1"/>
			<rect id="XMLID_112_" x="13.2" y="29.2" class="st42" width="0.4" height="3.1"/>
			<path id="XMLID_111_" class="st27" d="M7.5,20.7c0,0.5,0,1,0,1.5c-0.1,3.4-0.1,6.3,2,6.4l0,0.5c-2.7-0.1-2.6-3.2-2.5-6.9
				c0-0.5,0-1,0-1.5L7.5,20.7z"/>
			<path id="XMLID_110_" class="st23" d="M7.5,20.7c0,0.5,0,1,0,1.5c-0.1,3.4-0.1,6.3,2,6.4l0,0.5c-2.4-0.3-2.3-3.3-2.3-6.9
				c0-0.5,0-1,0-1.5L7.5,20.7z"/>
			<path id="XMLID_109_" class="st42" d="M13.2,27c2.8,0,5.1,0.9,5.1,1.9c0,0.1,0,0.2,0,0.2H8.1c0-0.1,0-0.2,0-0.2
				C8.1,27.9,10.3,27,13.2,27z"/>
			<path id="XMLID_108_" class="st23" d="M18.3,28.9C18.3,29,18.3,29,18.3,28.9L18.3,28.9c0,0.3-0.2,0.6-0.5,0.6h-2
				c-0.2,0.2-1.3,0.3-2.6,0.3s-2.4-0.1-2.6-0.3h-2c-0.3,0-0.5-0.2-0.5-0.5l0,0c0,0,0,0,0-0.1H18.3z"/>
			<path id="XMLID_107_" class="st27" d="M7.1,19.2h0.5c0.2,0,0.4,0.2,0.4,0.4v1.5c0,0.2-0.2,0.4-0.4,0.4H7.1
				c-0.2,0-0.4-0.2-0.4-0.4v-1.5C6.7,19.4,6.9,19.2,7.1,19.2z"/>
			<path id="XMLID_106_" class="st27" d="M8.9,20.2c0.4,2.2,0,4-0.8,4.2c-0.1,0-0.1,0-0.2,0l-1.3-7.8c0.1,0,0.1,0,0.2-0.1
				C7.6,16.4,8.6,18,8.9,20.2z"/>
			<path id="XMLID_105_" class="st23" d="M8.3,24.3c-0.1,0-0.1,0.1-0.2,0.1c-0.1,0-0.1,0-0.2,0l-1.3-7.8c0.1,0,0.1,0,0.2-0.1
				c0.1,0,0.2,0,0.2,0L8.3,24.3z"/>
			<g id="XMLID_99_">
				<path id="XMLID_104_" class="st43" d="M12.6,31.7h1.2v2.7l2.8,0.5c0.2,0,0.4,0.2,0.4,0.4v0c0,0.2-0.2,0.4-0.4,0.4l-3.1-0.5h-0.7
					l-3.1,0.5c-0.2,0-0.4-0.2-0.4-0.4v0c0-0.2,0.2-0.3,0.4-0.4l2.8-0.5V31.7z"/>
				<circle id="XMLID_103_" class="st23" cx="9.7" cy="35.7" r="0.5"/>
				<circle id="XMLID_102_" class="st23" cx="16.6" cy="35.7" r="0.5"/>
				<polygon id="XMLID_101_" class="st43" points="12.7,34.5 13.2,34.5 13.6,34.5 13.4,35.7 13.2,35.7 12.9,35.7 				"/>
				<circle id="XMLID_100_" class="st23" cx="13.2" cy="35.7" r="0.5"/>
			</g>
		</g>
		<path id="XMLID_97_" class="st44" d="M17.5,34c0,0.1-0.2,1.5-0.2,1.5l1.4,0.2l0-0.2c0.5,0.5,2.1,0.7,2.3,0.7
			c0.8,0,1.5-0.2,1.5-0.2l0-0.2c0,0,0.1-0.2-0.1-0.3c-1.8-0.3-2.6-1-2.6-1.5C19.8,33.9,17.5,34,17.5,34z"/>
		<path id="XMLID_96_" class="st45" d="M9.9,11.4c0,0,0.1,0.3,0.1,0.3l0.3-0.1l0,0c0.1,0.1,0.5,0,0.5-0.1c0.2-0.1,0.3-0.2,0.3-0.2
			l0,0c0,0,0,0,0,0c-0.5,0.1-0.7,0-0.8-0.1C10.2,11.3,9.9,11.4,9.9,11.4z"/>
		<path id="XMLID_95_" class="st46" d="M12,27.7l0.4-2.5c0,0,7.9,0.4,8.3,1.5c0.4,0.9-0.6,7.7-0.6,7.7l-2.8-0.1c0,0,1.2-6.2,1.1-6.2
			C18.3,28.1,12,27.7,12,27.7z"/>
		<path id="XMLID_94_" class="st47" d="M9.5,25.4c-0.2,0.4-0.1,0.7,0.1,1.4c0.2,0.7,0.8,1.1,1.7,1.2c0.9,0.1,7.5,0.5,7.5,0.5l3,6.7
			l2.3-1.3c-1-2.2-1.4-3.1-2.4-5.3c-0.6-1.4-0.7-2-2.1-2.2l-6.1-1.1L9.5,25.4z"/>
		<path id="XMLID_93_" class="st43" d="M9.4,13.7c0,0-2.5-0.4-1.3,4.9c0.6,2.7-0.4,7.8,0.9,7.3l4.9-0.7c0.5-0.1,0.2-1.9-0.1-4.3
			C13.4,17.5,12.5,13.2,9.4,13.7z"/>
		<path id="XMLID_92_" class="st27" d="M11.4,13c-0.2,1.1,0,2,0,2c-0.1-0.1-2-0.9-2-0.9c0.1,0,0.6-1.5,0.6-1.5L11.4,13z"/>
		<path id="XMLID_91_" class="st48" d="M11.7,15.2c0-0.1,0-1.1,0-1.1s-2.1-1.3-2.2-1.3c-0.2,0-0.6,0.9-0.6,0.9L11.7,15.2z"/>
		<path id="XMLID_90_" class="st22" d="M12,5.3c2,0,4.2,1.6,3.8,3.9C15.6,9.8,15,10,15,10.3c0.3,0.8,0.7,0.8,0.6,1.1
			c0,0.1-0.4,0.2-0.7,0.2c-0.4,1.2-1.6,1.7-3,1.7c-2,0-3.7-1.8-3.7-4.1S9.9,5.3,12,5.3z"/>
		<path id="XMLID_89_" class="st49" d="M16.6,7c0.4,0.6,0.1,1.6,0.1,1.5c0-0.1-0.3-0.5-0.6-0.7c0,0,0,0.1,0,0.2
			c-0.2,0.5-0.8,0.7-0.8,0.7s0-0.1,0-0.5c0-0.1-0.1-0.3-0.2-0.3c-0.1,0-0.1,0-0.2,0c0,0.1-0.1,0.2-0.3,0.3c-0.5,0.3-1.2,0.4-1.1,0.4
			c0.1,0,0.5-0.2,0.3-0.6c-0.2,0-0.5,0-0.7,0c-0.8-0.1-1.2,0.1-1.5,0.5c-0.3,0.4-0.5,2.3-0.6,2.3c-0.1-0.1-0.5-0.2-0.5-0.2
			s0.4-1.3,0.3-1.8c-0.1-0.5-0.3-0.7-1-0.5c-1,0.3-0.8,1.6-0.2,2.3c0,0-0.2,1.2-0.4,1.3S8.7,12.1,8.7,12c0.1,0,0.1-0.4,0.1-0.4
			l-0.3,0.2c0,0-0.1-0.4,0-0.5C8.5,11.2,8.1,9.8,8,8.9c-0.1-1.8,0.7-3.8,2.3-3.4C11.2,4.7,16,4.8,16.6,7z"/>
		<path id="XMLID_87_" class="st47" d="M15.5,9.8l-0.1-0.1L15.3,10c-0.8-0.3-4.6-1.8-4.7-1.7c-0.1,0.1,0,0.2,0,0.2l4.5,1.9l-0.5,1.1
			l0.1,0.1l0.6-1.5l0,0L15.5,9.8z"/>
		<ellipse id="XMLID_86_" class="st22" cx="10" cy="9.2" rx="1" ry="1.4"/>
		<path id="XMLID_85_" class="st27" d="M10.2,8.3c-0.1,0-0.4-0.1-0.7,0.2c-0.2,0.3-0.2,1.1,0,1.3c0.2,0.2,0.5,0.3,0.7,0.2
			c0.2-0.2,0.3-0.3,0.1-0.5s-0.3-0.2-0.3-0.4c0.1-0.1,0.2-0.1,0.3-0.2c0.1-0.1,0-0.3,0-0.5C10.3,8.3,10.2,8.3,10.2,8.3z"/>
		<path id="XMLID_84_" class="st49" d="M15.5,9.7c0.5-0.4-1.2-0.6-1.3-0.4C14.7,9.3,15.1,9.4,15.5,9.7z"/>
		<path id="XMLID_83_" class="st50" d="M21.1,18.3c0.3-0.1,2.1-1,2.3-1c0.1,0,1.5,0.3,1.6,0.4c0.1,0.1,1.2,1.2,1,1.3
			c-0.1,0-0.2,0.1-0.4,0c-0.2,0-0.5-0.3-0.5-0.3l-0.3-0.3l-0.5-0.1c0,0,0.1,0.4,0,0.7c-0.1,0.2-0.1,0.4-0.4,0.6
			c-0.3,0.2-0.9,0.2-1.2,0.1c-0.3-0.1-0.5-0.2-0.5-0.2L21.1,18.3z"/>
		<g id="XMLID_80_">
			<path id="XMLID_82_" class="st27" d="M29.8,12.9L29.1,20c0,0.1-0.1,0.2-0.3,0.2c-0.1,0-0.2-0.1-0.2-0.3l0.7-7.1
				c0-0.1,0.1-0.2,0.3-0.2C29.7,12.6,29.8,12.7,29.8,12.9z"/>
			<path id="XMLID_81_" class="st24" d="M29.8,12.9L29.1,20c0,0.1-0.1,0.2-0.3,0.2c0,0,0,0,0,0l0.7-7.6
				C29.7,12.6,29.8,12.7,29.8,12.9z"/>
		</g>
		
			<rect id="XMLID_79_" x="27.8" y="19.6" transform="matrix(1.954179e-03 -1 1 1.954179e-03 7.8789 47.7538)" class="st27" width="0.1" height="0.6"/>
		
			<rect id="XMLID_78_" x="27.1" y="19.6" transform="matrix(1.934532e-03 -1 1 1.934532e-03 7.1966 47.0673)" class="st27" width="0.1" height="0.6"/>
		
			<rect id="XMLID_70_" x="26.4" y="19.6" transform="matrix(2.012419e-03 -1 1 2.012419e-03 6.5116 46.3789)" class="st27" width="0.1" height="0.6"/>
		
			<rect id="XMLID_69_" x="25.8" y="19.6" transform="matrix(1.954480e-03 -1 1 1.954480e-03 5.8304 45.6932)" class="st27" width="0.1" height="0.6"/>
		
			<rect id="XMLID_68_" x="25.1" y="19.6" transform="matrix(1.896281e-03 -1 1 1.896281e-03 5.149 45.0075)" class="st27" width="0.1" height="0.6"/>
		
			<rect id="XMLID_67_" x="24.4" y="19.6" transform="matrix(1.915557e-03 -1 1 1.915557e-03 4.4656 44.3202)" class="st27" width="0.1" height="0.6"/>
		<path id="XMLID_66_" class="st24" d="M21.7,19.9l7.2,0c0.1,0,0.2,0.1,0.2,0.2c0,0.1-0.1,0.2-0.2,0.2l-7.2,0
			c-0.1,0-0.2-0.1-0.2-0.2C21.4,20,21.5,19.9,21.7,19.9z"/>
		
			<rect id="XMLID_65_" x="23.5" y="19.9" transform="matrix(1.959411e-03 -1 1 1.959411e-03 3.3239 43.7135)" class="st27" width="0.2" height="0.6"/>
		
			<rect id="XMLID_64_" x="22.6" y="19.9" transform="matrix(1.978312e-03 -1 1 1.978312e-03 2.4752 42.8599)" class="st27" width="0.2" height="0.6"/>
		<path id="XMLID_63_" class="st27" d="M28.1,20.1l-3.8,0c0,0-0.1,0-0.1,0.1l0,0.1c0,0,0,0.1,0.1,0.1l3.8,0c0,0,0.1,0,0.1-0.1
			L28.1,20.1C28.2,20.1,28.1,20.1,28.1,20.1z"/>
		<path id="XMLID_62_" class="st22" d="M21.7,18.7c0.3-0.1,2.1-1,2.3-1c0.1,0,1.5,0.3,1.6,0.4c0.1,0.1,1.2,1.2,1,1.3
			c-0.1,0-0.2,0.1-0.4,0c-0.2,0-0.5-0.3-0.5-0.3l-0.3-0.3l-0.3-0.1c0.1,0.1,0.2,0.1,0.2,0.2c0.1,0.1,0.9,0.9,0.9,0.9
			c0,0-0.2,0-0.4,0c-0.2,0-0.7-0.5-0.7-0.5c0,0-0.3-0.2-0.4-0.2c0,0-0.3,0.2-0.3,0.2c-0.8,0.6-1.7,0.5-1.7,0.5L21.7,18.7z"/>
		<path id="XMLID_61_" class="st27" d="M10.3,13.7c0,0,3.6,3.1,5.9,4.2c2,1,6.2,0.5,6.2,0.5l0.5,1.9c0,0-5.3,0.5-8.1-0.9
			c-2.5-1.2-6-4.1-6-4.1C7.7,14.3,9.3,12.9,10.3,13.7z"/>
	</g>
</g>
<g>
	
		<rect x="41.7" y="23.7" transform="matrix(0.1736 -0.9848 0.9848 0.1736 14.2129 65.1918)" class="st51" width="8.6" height="0.8"/>
	<rect x="43.2" y="19.9" transform="matrix(0.9848 -0.1736 0.1736 0.9848 -3.5257 7.9419)" class="st52" width="0.8" height="8.6"/>
	<rect x="44.4" y="18.9" class="st53" width="0.8" height="8.6"/>
	<polygon class="st27" points="43.1,28.8 46.5,28.8 47.2,23.8 42.4,23.8 	"/>
</g>
</svg>
