<?xml version="1.0" encoding="utf-8"?>
<!-- Generator: Adobe Illustrator 21.0.0, SVG Export Plug-In . SVG Version: 6.00 Build 0)  -->
<svg version="1.1" id="Layer_1" xmlns="http://www.w3.org/2000/svg" xmlns:xlink="http://www.w3.org/1999/xlink" x="0px" y="0px"
	 viewBox="0 0 60 60" style="enable-background:new 0 0 60 60;" xml:space="preserve">
<style type="text/css">
	.st0{display:none;}
	.st1{display:inline;fill:#7BB5FF;}
	.st2{display:inline;fill:#5A6CE5;}
	.st3{fill:#7BB5FF;}
	.st4{fill:#5A6CE5;}
</style>
<g class="st0">
	<path class="st1" d="M3,34.9c1.4-6.2,2.9-12.4,4.3-18.6c0.4-1.8,1.4-3,3.1-3.8c6.3-2.9,12.4-6.1,18.7-8.8c0.5,0,1.1,0,1.6,0
		c0.5,0.2,1.1,0.4,1.6,0.6c5.8,2.8,11.6,5.5,17.3,8.3c1.5,0.7,2.5,1.9,2.8,3.5c1.5,6.3,2.9,12.6,4.4,18.9c0,0.2,0,0.4,0.2,0.5
		c0,0.4,0,0.8,0,1.2c-0.2,0.1-0.2,0.3-0.2,0.5c-0.2,0.8-0.5,1.4-1,2c-4.1,5-8.1,10.1-12.2,15.1c-0.7,0.9-1.5,1.4-2.6,1.7
		c-0.1,0-0.3,0-0.4,0.2c-7.2,0-14.4,0-21.6,0c-0.1-0.2-0.2-0.2-0.4-0.2c-1.1-0.3-1.9-0.9-2.6-1.8c-3.8-4.7-7.6-9.5-11.4-14.2
		c-0.7-0.9-1.5-1.8-1.7-3C2.8,36.3,3,34.9,3,34.9z M30,54.6c3.2,0,6.4,0,9.6,0c1.2,0,2.1-0.4,2.9-1.4c4-5,8-9.9,12-14.9
		c0.8-1,1-2.1,0.7-3.3c-1.4-6.1-2.8-12.2-4.2-18.3c-0.3-1.4-1.1-2.3-2.3-2.9C43,11.2,37.3,8.5,31.6,5.7c-1.1-0.5-2.2-0.5-3.3,0
		c-5.8,2.8-11.6,5.5-17.4,8.3c-1,0.5-1.6,1.3-1.9,2.3c-1.4,6.3-2.9,12.5-4.3,18.8c-0.3,1.2,0,2.3,0.8,3.2c4,4.9,7.9,9.8,11.9,14.7
		c0.8,1,1.8,1.5,3.2,1.5C23.7,54.6,26.8,54.6,30,54.6z"/>
	<path class="st2" d="M49.9,29.5c1.1-0.6,2-0.5,2.4,0.3c0.5,0.8,0.2,1.9-0.8,2.5c-0.5,0.4-1.1,0.7-1.7,1.1c-0.4,0.3-0.8,0.6-1.3,0.8
		c-0.9,0.4-0.9,1.3-1.4,2c-0.1,0.1,0.1,0.3,0.2,0.5c0.5,0.9,1,1.8,1.5,2.8c-1,1.3-2,2.6-3,3.8c-0.4-1.2-0.8-2.4-1.4-3.6
		c-0.2-0.5-0.5-0.6-0.9-0.2c-1.8,1.7-3.6,3.3-5.5,4.9c-0.5,0.4-0.8,0.9-0.6,1.6c0.2,0.6,0.7,0.9,1.3,1.1c1.1,0.3,2.2,0.6,3.3,1
		c-0.5,0.8-1.2,1.6-1.8,2.3c-0.6,0.7-1.4,1-2.4,1c-5.1,0-10.2,0-15.3,0c-1.1,0-2-0.4-2.7-1.3c-0.6-0.7-1.1-1.5-1.7-2.2
		c1.2-0.3,2.3-0.6,3.4-1c1.1-0.4,1.5-1.6,0.6-2.4c-1.9-1.7-3.8-3.4-5.7-5.2c-0.4-0.4-0.6-0.2-0.9,0.2c-0.6,1.1-1.1,2.2-1.4,3.4
		c-1-1.2-2-2.4-3-3.7c0.4-1,1-2,1.5-2.9c0.1-0.2,0.2-0.4,0.2-0.5c-0.5-0.5-0.4-1.2-1-1.7c-0.7-0.5-1.4-1-2.2-1.4
		c-0.5-0.3-0.9-0.6-1.4-0.9c-0.8-0.6-1.1-1.5-0.8-2.2c0.3-0.7,1-1,2-0.8c0,0,0.1,0,0.1,0.1c0.5,0.4,0.9,0.8,1.4,1.2
		c0.7,0.7,1.4,1.4,2.1,2.1c0.9,0.8,1.9,0.8,2.7,0c0.6-0.5,1.1-1,1.8-1.5c1.7-1.3,3.5-2.2,5.5-2.9c1.6-0.4,3.1-0.8,4.8-0.9
		c0.1,0,0.3-0.1,0.4-0.3c0.4-0.9,0.9-1.9,0.6-2.9c-0.2-0.7-0.1-1.4-0.3-2.1c-0.1-0.5-0.1-1,0-1.5c0.2-0.7,0.7-1.2,1.4-1.2
		c0.7-0.1,1.2,0.2,1.6,0.8c0.4,0.7,0.2,1.5,0.1,2.2c-0.2,1-0.2,2.1-0.3,3.2c-0.1,0.7,0.6,1.1,0.7,1.8c0,0,0.2,0.1,0.2,0.1
		c1.6,0.1,3,0.7,4.5,0.9c0,0,0.1,0.1,0.1,0.1c3,1.1,5.7,2.7,8,5c0.1,0.1,0.3,0.2,0.3,0.2c0.6-0.3,1.3-0.2,1.8-0.6
		C47.9,31.6,48.9,30.5,49.9,29.5z M27.8,32.6C27.8,32.6,27.8,32.6,27.8,32.6c0-0.3,0-0.6,0-0.9c0-0.4-0.1-0.5-0.4-0.4
		c-3.2,0.5-6.1,1.8-8.5,4c-0.4,0.3-0.5,0.6,0,0.9c2.1,1.4,4.1,2.9,6.2,4.4c0.5,0.3,0.9,0.4,1.5,0.2c0.5-0.3,0.8-0.7,0.9-1.3
		C27.5,37.2,27.6,34.9,27.8,32.6z M32.6,31.4C32,31.3,31.9,31.6,32,32c0.1,2.5,0.3,5.1,0.4,7.6c0.1,1.1,1.2,1.6,2.2,1
		c2.2-1.5,4.3-3,6.4-4.5c0.4-0.3,0.3-0.5,0-0.7c-0.5-0.4-1-0.9-1.5-1.2C37.4,32.7,35.1,31.8,32.6,31.4z"/>
	<path class="st1" d="M41.9,48c-1.1-0.3-2.2-0.7-3.3-1c-0.6-0.2-1.1-0.4-1.3-1.1c-0.2-0.7,0.1-1.2,0.6-1.6c1.8-1.6,3.7-3.3,5.5-4.9
		c0.4-0.4,0.7-0.3,0.9,0.2c0.6,1.1,1.1,2.3,1.4,3.6C44.5,44.8,43.2,46.5,41.9,48z"/>
	<path class="st1" d="M14,43c0.4-1.2,0.8-2.3,1.4-3.4c0.2-0.4,0.4-0.6,0.9-0.2c1.9,1.7,3.9,3.4,5.7,5.2c0.9,0.8,0.6,2-0.6,2.4
		c-1.1,0.4-2.3,0.7-3.4,1C16.6,46.4,15.3,44.7,14,43z"/>
	<path class="st1" d="M27.8,32.6c-0.1,2.3-0.3,4.6-0.4,7c0,0.6-0.3,1-0.9,1.3c-0.5,0.2-1,0.1-1.5-0.2c-2.1-1.5-4.1-3-6.2-4.4
		c-0.5-0.4-0.4-0.6,0-0.9c2.4-2.2,5.3-3.5,8.5-4c0.4-0.1,0.5,0.1,0.4,0.4C27.8,32,27.8,32.3,27.8,32.6
		C27.8,32.6,27.8,32.6,27.8,32.6z"/>
	<path class="st1" d="M32.6,31.4c2.5,0.4,4.8,1.3,6.9,2.9c0.5,0.4,1,0.8,1.5,1.2c0.3,0.2,0.3,0.4,0,0.7c-2.1,1.5-4.3,3-6.4,4.5
		c-0.9,0.6-2.1,0.1-2.2-1c-0.2-2.5-0.3-5.1-0.4-7.6C31.9,31.6,32,31.3,32.6,31.4z"/>
</g>
<g>
	<path class="st3" d="M18.5,4.7c-0.1,1.2-0.7,1.9-1.9,1.9c-1.3,0-2-0.7-2-2c0-1.2,0.7-1.8,1.9-1.9C17.8,2.7,18.4,3.5,18.5,4.7z"/>
	<path class="st3" d="M16.3,55.9c-1.2-0.2-1.9-0.9-1.8-2.2c0.1-1.2,0.9-1.8,2.1-1.7c1.2,0,1.9,0.8,1.8,1.9
		C18.4,55.3,17.7,55.9,16.3,55.9z"/>
	<path class="st3" d="M46.2,52c1.1,0.1,1.9,0.6,2,1.8c0.1,1.3-0.6,2.1-1.9,2.1c-1.3,0.1-2-0.7-2-2C44.3,52.7,45,52.1,46.2,52z"/>
	<path class="st3" d="M48.2,4.6c-0.2,1.4-0.9,2-2.2,2c-1.2-0.1-1.8-0.9-1.7-2c0.1-1.3,0.9-2,2.2-1.8C47.7,2.8,48.2,3.6,48.2,4.6z"/>
	<path class="st3" d="M31.4,52c1.2,0.1,2,0.7,1.9,2.1c0,1.2-0.7,1.9-1.9,1.9c-1.3,0-2-0.8-2-2C29.4,52.7,30.2,52.1,31.4,52z"/>
	<path class="st3" d="M31.5,2.7c1.2,0.1,1.8,0.8,1.8,2c0,1.3-0.8,2-2.1,1.9c-1.2,0-1.8-0.7-1.8-1.9C29.4,3.3,30.2,2.7,31.5,2.7z"/>
	<path class="st3" d="M56.1,31.3c-1.5-0.2-2.1-0.9-2-2.2c0.1-1.2,0.8-1.8,2-1.7c1.2,0.1,1.9,0.7,1.9,1.9
		C58,30.6,57.2,31.2,56.1,31.3z"/>
	<path class="st3" d="M8.6,29.4c-0.1,1.3-0.8,1.9-2.1,1.9c-1.2-0.1-1.8-0.8-1.8-2c0-1.3,0.8-2,2.1-1.9C8,27.4,8.6,28.1,8.6,29.4z"/>
</g>
<g>
	<path class="st4" d="M15.3,31.6c-0.7-1-0.4-2.1-0.4-3.2c0-1.1,0.5-1.6,1.6-1.5c2.9,0.3,2.2-2.5,3.2-3.8c0.9-1.2-0.8-1.5-1.3-2.3
		c0.1-2.2,1.3-3.3,3.4-3.4c0.7,0.5,1.1,2.2,2.2,1.3c1.4-1,4.2-0.2,3.9-3.3c-0.1-1,0.5-1.4,1.4-1.4c0.9,0,1.8,0,2.8,0
		c0.9,1.4,0.1,3.7,2.9,4.2c1.5,0.3,2.6,0.8,3.7-0.6c0.4-0.5,1-0.4,1.5-0.2c0.6,1.2,2.5,1.5,2.1,3.3c-0.4,0.4-0.8,0.9-1.2,1.3
		c-0.3,0.1-0.5,0.3-0.3,0.6c0.1,0.6,0.3,1.1,0.8,1.4c0.2,1.8,0.6,3.3,3,2.8c0.3-0.1,0.6,0.4,1,0.6c0,0.8,0,1.5,0,2.3
		c0.1,1.2-0.3,1.9-1.7,1.8c-2.6-0.2-1.8,2.4-2.9,3.5c-0.9,0.9,0.1,1.5,0.7,2.1c1.5,1.5,0,2.1-0.8,3c-0.8,0.9-1.6,1.6-2.6,0.3
		c-1.6-2.1-2.8,0.3-4.2,0.3c-1.3,0-1.3,1-1.3,2c0,2.2-1.6,1.6-2.9,1.7c-1.2,0.1-2.5,0.1-2.2-1.7c0.2-1.2-0.6-1.7-1.5-1.8
		c-0.9-0.2-1.5-0.6-2.3-1c-0.2-0.1-0.5-0.3-0.5-0.3c-2.1,2.9-3.5,0.8-5-0.6c-0.7-1.6,1.6-1.9,1.5-3.3C18.7,33.9,18.8,30.9,15.3,31.6
		z M36.9,27.4c-0.4-2-1.5-3.4-3.4-4.2c-0.7-0.6-1.5-0.8-2.4-0.8c-5.3-0.3-8.4,3-7.8,8.3c1.3,4.2,3.8,6,7.7,5.6
		c3.3-0.3,5.7-2.9,6.1-6.5C37.2,29,37.4,28.2,36.9,27.4z"/>
	<path class="st4" d="M11.7,6.4c-0.6-2.2-0.4-4.1,1.9-5.2c2.3-1.1,4.1-0.3,5.3,1.9c0.3,0.5,0.7,0.5,1.1,0.6c4.3,0.6,5.2,1.5,5.8,5.6
		c-0.2,1-0.2,1.9,0,2.9c0,0.9-0.1,1.8-0.2,2.7c0,0.5,0.1,1.1-0.6,1.3c-0.7,0.1-1.2-0.1-1.4-0.8c0-0.8,0-1.6,0-2.3
		c-0.1-2.3,1.1-4.9-1.3-6.8c-0.6-0.4-1.2-0.7-1.9-0.6c-1.5-0.5-1.6,0.9-2.1,1.7c-0.2,0-0.2,0.1-0.3,0.3C15.1,9.1,13.9,8.9,11.7,6.4z
		 M17.3,4.7c-0.1-1.2-0.7-2-2-2c-1.2,0-1.9,0.7-1.9,1.9c0,1.3,0.7,2,2,2C16.5,6.6,17.2,6,17.3,4.7z"/>
	<path class="st4" d="M5.5,48.2c-1.9-0.2-3.3-1.1-3.7-2.9c-0.5-1.9,0.2-3.5,2-4.5c0.8-0.4,0.7-1.1,0.7-1.8c0.3-3.3,2.1-5,5.4-5.1
		c1.6,0,3.2-0.1,4.9-0.1c0.7,0.4,2.2-0.6,2.1,1c0,1.6-1.4,0.8-2.1,0.9c-1.2,0.1-2.5,0.1-3.7,0.1c-0.8,0-1.5-0.2-2.3,0
		c-2.2,0.5-3.1,3.2-1.5,4.8c1.3,0.9,2,2.1,2.3,3.6C9.1,46.5,7.9,48,5.5,48.2z M7.4,44.3c0-1.2-0.5-1.9-1.7-2
		c-1.3-0.1-2.1,0.5-2.2,1.8c-0.1,1.2,0.5,1.9,1.7,2C6.5,46.3,7.3,45.6,7.4,44.3z"/>
	<path class="st4" d="M14.3,50.3c0.8,0,1.6,0,2.3,0.1c0.5,0.4,1.3,0.8,1.6,1.3c0.7,1.4,1.8,1.8,3.2,1.3c1.6-0.5,2.3-1.7,2.3-3.3
		c0-2.1-0.1-4.2-0.1-6.3c1.3-1.3,1.9-1,2,0.8c0.1,1.6,0.1,3.2,0.1,4.8c-0.4,4.4-1.4,5.6-5.7,6.1c-0.6,0.1-0.9,0.2-1.3,0.7
		c-2.5,3.1-4.8,3-7.2-0.2c0-0.8-0.1-1.6-0.1-2.3C11.9,51.7,12.9,50.7,14.3,50.3z M15.2,56c1.3,0,2.1-0.7,2.1-2
		c0-1.2-0.7-1.9-1.8-1.9c-1.1,0-1.9,0.5-2.1,1.7C13.3,55.1,13.9,55.8,15.2,56z"/>
	<path class="st4" d="M34.8,51.3c0-2.2-0.1-4.5,0-6.7c0-0.7-0.4-1.7,0.8-1.8c1.4-0.1,1,1,1.1,1.8c0,0.2,0.1,0.5,0.1,0.7
		c0,0.8,0,1.6,0,2.3c-0.4,3.9,0,4.7,2.8,5.5c0.9,0.2,1.7,0.2,2.2-0.9c0.6-1.3,1.9-1.8,3.3-2c1.5,0.1,2.7,0.9,3.5,2.2
		c0.1,0.6,0.3,1.2,0.4,1.8c-0.2,1.9-1.1,3.3-3.1,3.7c-1.9,0.4-3.3-0.3-4.2-2c-0.8-1.4-2-0.6-3-0.8c-0.5-0.2-0.9-0.4-1.4-0.5
		C36.2,53.6,35.2,52.6,34.8,51.3z M45,52c-1.2,0.1-1.9,0.7-1.9,1.9c0,1.3,0.7,2,2,2c1.3-0.1,2-0.9,1.9-2.1
		C46.9,52.6,46.1,52.1,45,52z"/>
	<path class="st4" d="M49.8,24.9c-0.8,0-1.6,0-2.3,0c-1.3-0.6-3.2,0.9-4.1-1.1c0.3-0.3,0.6-0.6,0.8-1c2.2,0,4.5,0.1,6.7,0
		c1.5,0,2.5-0.9,2.9-2.3c0.4-1.2,0.4-2.4-1.1-3.1c-0.6-0.3-1-1.1-1.5-1.7c0-0.8-0.1-1.6-0.1-2.3c0.5-1.4,1.5-2.4,2.9-2.9
		c0.8,0,1.6,0.1,2.3,0.1c3.3,2.4,3.4,4.7,0.3,7.2c-0.5,0.4-0.7,0.7-0.7,1.3C55.3,23.5,54.2,24.5,49.8,24.9z M54.8,12.5
		c-1.3,0.2-1.9,0.9-1.8,2.2c0.1,1.2,0.9,1.8,2,1.7c1.2-0.1,1.8-0.7,1.8-1.9C56.8,13.2,56.1,12.5,54.8,12.5z"/>
	<path class="st4" d="M40.9,5.7c-3.2-0.1-4.2,0.8-4.3,3.9c0,1.7,0,3.4,0,5.1c0,0.6,0,1.3-0.9,1.3c-1.1,0.1-1-0.6-1-1.4
		c0-1.2-0.1-2.3-0.1-3.5c0.1-1.2,0-2.5,0.3-3.7c0.4-2.1,2.3-3.6,4.6-3.8c0.8-0.1,1.6,0.3,2.2-0.8c0.9-1.8,2.5-2.4,4.5-2
		c1.9,0.5,2.7,1.9,2.9,3.7c-0.2,1.8-1,3.2-2.9,3.7C44,8.9,42.5,7.8,41.4,6C41.4,5.7,41.2,5.6,40.9,5.7z M47.1,4.7
		c-0.1-1-0.6-1.8-1.8-1.9c-1.3-0.1-2.1,0.6-2.2,1.8c-0.1,1.2,0.5,1.9,1.7,2C46.1,6.7,46.9,6.1,47.1,4.7z"/>
	<path class="st4" d="M46.1,35.8c-0.5,0-0.9-0.1-1.4-0.1c-0.8,0-1.2-0.3-1.1-1.1c0.1-0.8,0.6-0.8,1.2-0.8c2.5,0,4.9,0,7.4,0.1
		c1.3,0.5,2.3,1.4,3.2,2.5c0.2,0.5,0.4,0.9,0.6,1.4c-0.1,1.5-0.1,2.7,1.6,3.6c1.4,0.7,1.7,2.3,1.3,3.9c-0.5,1.9-1.9,2.7-3.7,2.9
		c-0.6-0.2-1.3-0.3-1.9-0.5c-1.3-0.9-2-2.2-2-3.8c0.2-1.3,0.8-2.4,2-2.9c1.1-0.5,1.1-1.3,0.9-2.2c-0.7-2.8-1.5-3.2-5.5-2.8
		C47.6,35.9,46.8,35.8,46.1,35.8z M56.9,44.3c0-1.3-0.6-2-1.8-2c-1.3-0.1-2.1,0.6-2.1,1.9c0,1.2,0.6,1.9,1.8,2
		C56,46.2,56.7,45.5,56.9,44.3z"/>
	<path class="st4" d="M16.2,22.8c0.7,0.3,0.9,0.8,0.6,1.5c-0.3,0.7-0.9,0.5-1.4,0.5c-1.9,0-3.7,0.1-5.6,0c-3.3-0.1-5.1-1.8-5.3-5.2
		c-0.1-0.7,0.1-1.3-0.7-1.7C1.7,16.8,1.1,15,2,12.9c0.7-1.9,2.5-2.5,5.3-1.9c3,2.6,2.8,4.9-0.4,7.3c-0.3,0-0.4,0.1-0.4,0.4
		c0,0.3,0,0.6,0,0.9c-0.1,0.9,0.1,1.7,0.9,2.3c1.9,2,4.3,0.9,6.5,1C14.7,22.8,15.4,22.8,16.2,22.8z M5.5,16.4c1.2-0.1,2-0.7,1.9-2.1
		c0-1.2-0.7-1.8-1.9-1.8c-1.3,0-2,0.7-1.9,2C3.6,15.8,4.3,16.3,5.5,16.4z"/>
	<path class="st4" d="M29.2,47.1c0.9-0.8,2-1.1,1.9,0.5c-0.2,2.2,0.9,3.2,2.4,4.1c1.3,3.4,0,6-3.1,6.1c-1.7,0-3-0.7-3.7-2.3
		c-0.7-1.6-0.6-3.3,0.8-4.2C29.3,50.2,29.5,48.8,29.2,47.1z M30.2,52c-1.2,0.1-1.9,0.7-1.9,1.9c0,1.3,0.7,2,2,2
		c1.2,0,1.9-0.7,1.9-1.9C32.2,52.8,31.4,52.1,30.2,52z"/>
	<path class="st4" d="M28.3,8.2c-2.7-1.7-2.6-5.1-0.4-6.7c1.7-1.2,4.2-0.8,5.4,0.9c1.2,1.7,1,4.1-0.9,5.3c-1.1,0.7-1.4,1.4-1.3,2.6
		c0,0.7,0.6,1.9-1,1.8c-1.5-0.1-0.6-1.3-0.9-1.9c-0.1-0.1,0-0.3-0.1-0.5C29.4,9,29.4,8.3,28.3,8.2z M30.3,2.7c-1.3,0-2,0.7-2.1,2
		c0,1.2,0.6,1.9,1.8,1.9c1.3,0,2-0.6,2.1-1.9C32.1,3.5,31.5,2.8,30.3,2.7z"/>
	<path class="st4" d="M52.6,32.6c-1-1.4-1.9-2.7-4.1-2.4c-1.6,0.2-1.3-0.9-0.6-1.8c0.9,0,1.9,0,2.8,0c0.3,0.1,0.4-0.1,0.4-0.4
		c0.7-1,1.3-2,2.5-2.3c1.6-0.4,3.1-0.2,4.2,1.2c1,1.2,1.2,2.7,0.5,4.1c-0.7,1.6-2,2.3-3.7,2.2C54,33,53.3,32.8,52.6,32.6z M55,31.3
		c1.1-0.1,1.9-0.7,1.9-2c0-1.2-0.7-1.8-1.9-1.9c-1.2-0.1-1.9,0.5-2,1.7C52.9,30.4,53.5,31.2,55,31.3z"/>
	<path class="st4" d="M5.8,25.6c0.5,0,1.3,0.1,1.7,0.6c1.3,1.4,2.5,2.8,4.8,2.3c0.6-0.1,0.6,0.6,0.6,1c0,0.6-0.3,0.9-0.8,0.8
		c-1.9-0.4-3,0.5-4.2,1.9c-1.2,1.4-2.9,1.3-4.5,0.4c-1.7-1-2.1-2.7-1.6-4.5C2.4,26.4,3.8,25.5,5.8,25.6z M7.4,29.4
		c0-1.2-0.6-2-1.8-2c-1.3-0.1-2.1,0.6-2.1,1.9c0,1.2,0.6,1.9,1.8,2C6.6,31.3,7.3,30.7,7.4,29.4z"/>
</g>
</svg>
