<?xml version="1.0" encoding="utf-8"?>
<!-- Generator: Adobe Illustrator 21.0.0, SVG Export Plug-In . SVG Version: 6.00 Build 0)  -->
<svg version="1.1" id="Layer_1" xmlns="http://www.w3.org/2000/svg" xmlns:xlink="http://www.w3.org/1999/xlink" x="0px" y="0px"
	 viewBox="0 0 60 60" style="enable-background:new 0 0 60 60;" xml:space="preserve">
<style type="text/css">
	.st0{fill:#7BB5FF;}
	.st1{fill:#5A6CE5;}
</style>
<g>
	<path class="st0" d="M3,34.9c1.4-6.2,2.9-12.4,4.3-18.6c0.4-1.8,1.4-3,3.1-3.8c6.3-2.9,12.4-6.1,18.7-8.8c0.5,0,1.1,0,1.6,0
		c0.5,0.2,1.1,0.4,1.6,0.6c5.8,2.8,11.6,5.5,17.3,8.3c1.5,0.7,2.5,1.9,2.8,3.5c1.5,6.3,2.9,12.6,4.4,18.9c0,0.2,0,0.4,0.2,0.5
		c0,0.4,0,0.8,0,1.2c-0.2,0.1-0.2,0.3-0.2,0.5c-0.2,0.8-0.5,1.4-1,2c-4.1,5-8.1,10.1-12.2,15.1c-0.7,0.9-1.5,1.4-2.6,1.7
		c-0.1,0-0.3,0-0.4,0.2c-7.2,0-14.4,0-21.6,0c-0.1-0.2-0.2-0.2-0.4-0.2c-1.1-0.3-1.9-0.9-2.6-1.8c-3.8-4.7-7.6-9.5-11.4-14.2
		c-0.7-0.9-1.5-1.8-1.7-3C2.8,36.3,3,34.9,3,34.9z M30,54.6c3.2,0,6.4,0,9.6,0c1.2,0,2.1-0.4,2.9-1.4c4-5,8-9.9,12-14.9
		c0.8-1,1-2.1,0.7-3.3c-1.4-6.1-2.8-12.2-4.2-18.3c-0.3-1.4-1.1-2.3-2.3-2.9C43,11.2,37.3,8.5,31.6,5.7c-1.1-0.5-2.2-0.5-3.3,0
		c-5.8,2.8-11.6,5.5-17.4,8.3c-1,0.5-1.6,1.3-1.9,2.3c-1.4,6.3-2.9,12.5-4.3,18.8c-0.3,1.2,0,2.3,0.8,3.2c4,4.9,7.9,9.8,11.9,14.7
		c0.8,1,1.8,1.5,3.2,1.5C23.7,54.6,26.8,54.6,30,54.6z"/>
	<path class="st1" d="M49.9,29.5c1.1-0.6,2-0.5,2.4,0.3c0.5,0.8,0.2,1.9-0.8,2.5c-0.5,0.4-1.1,0.7-1.7,1.1c-0.4,0.3-0.8,0.6-1.3,0.8
		c-0.9,0.4-0.9,1.3-1.4,2c-0.1,0.1,0.1,0.3,0.2,0.5c0.5,0.9,1,1.8,1.5,2.8c-1,1.3-2,2.6-3,3.8c-0.4-1.2-0.8-2.4-1.4-3.6
		c-0.2-0.5-0.5-0.6-0.9-0.2c-1.8,1.7-3.6,3.3-5.5,4.9c-0.5,0.4-0.8,0.9-0.6,1.6c0.2,0.6,0.7,0.9,1.3,1.1c1.1,0.3,2.2,0.6,3.3,1
		c-0.5,0.8-1.2,1.6-1.8,2.3c-0.6,0.7-1.4,1-2.4,1c-5.1,0-10.2,0-15.3,0c-1.1,0-2-0.4-2.7-1.3c-0.6-0.7-1.1-1.5-1.7-2.2
		c1.2-0.3,2.3-0.6,3.4-1c1.1-0.4,1.5-1.6,0.6-2.4c-1.9-1.7-3.8-3.4-5.7-5.2c-0.4-0.4-0.6-0.2-0.9,0.2c-0.6,1.1-1.1,2.2-1.4,3.4
		c-1-1.2-2-2.4-3-3.7c0.4-1,1-2,1.5-2.9c0.1-0.2,0.2-0.4,0.2-0.5c-0.5-0.5-0.4-1.2-1-1.7c-0.7-0.5-1.4-1-2.2-1.4
		c-0.5-0.3-0.9-0.6-1.4-0.9c-0.8-0.6-1.1-1.5-0.8-2.2c0.3-0.7,1-1,2-0.8c0,0,0.1,0,0.1,0.1c0.5,0.4,0.9,0.8,1.4,1.2
		c0.7,0.7,1.4,1.4,2.1,2.1c0.9,0.8,1.9,0.8,2.7,0c0.6-0.5,1.1-1,1.8-1.5c1.7-1.3,3.5-2.2,5.5-2.9c1.6-0.4,3.1-0.8,4.8-0.9
		c0.1,0,0.3-0.1,0.4-0.3c0.4-0.9,0.9-1.9,0.6-2.9c-0.2-0.7-0.1-1.4-0.3-2.1c-0.1-0.5-0.1-1,0-1.5c0.2-0.7,0.7-1.2,1.4-1.2
		c0.7-0.1,1.2,0.2,1.6,0.8c0.4,0.7,0.2,1.5,0.1,2.2c-0.2,1-0.2,2.1-0.3,3.2c-0.1,0.7,0.6,1.1,0.7,1.8c0,0,0.2,0.1,0.2,0.1
		c1.6,0.1,3,0.7,4.5,0.9c0,0,0.1,0.1,0.1,0.1c3,1.1,5.7,2.7,8,5c0.1,0.1,0.3,0.2,0.3,0.2c0.6-0.3,1.3-0.2,1.8-0.6
		C47.9,31.6,48.9,30.5,49.9,29.5z M27.8,32.6C27.8,32.6,27.8,32.6,27.8,32.6c0-0.3,0-0.6,0-0.9c0-0.4-0.1-0.5-0.4-0.4
		c-3.2,0.5-6.1,1.8-8.5,4c-0.4,0.3-0.5,0.6,0,0.9c2.1,1.4,4.1,2.9,6.2,4.4c0.5,0.3,0.9,0.4,1.5,0.2c0.5-0.3,0.8-0.7,0.9-1.3
		C27.5,37.2,27.6,34.9,27.8,32.6z M32.6,31.4C32,31.3,31.9,31.6,32,32c0.1,2.5,0.3,5.1,0.4,7.6c0.1,1.1,1.2,1.6,2.2,1
		c2.2-1.5,4.3-3,6.4-4.5c0.4-0.3,0.3-0.5,0-0.7c-0.5-0.4-1-0.9-1.5-1.2C37.4,32.7,35.1,31.8,32.6,31.4z"/>
	<path class="st0" d="M41.9,48c-1.1-0.3-2.2-0.7-3.3-1c-0.6-0.2-1.1-0.4-1.3-1.1c-0.2-0.7,0.1-1.2,0.6-1.6c1.8-1.6,3.7-3.3,5.5-4.9
		c0.4-0.4,0.7-0.3,0.9,0.2c0.6,1.1,1.1,2.3,1.4,3.6C44.5,44.8,43.2,46.5,41.9,48z"/>
	<path class="st0" d="M14,43c0.4-1.2,0.8-2.3,1.4-3.4c0.2-0.4,0.4-0.6,0.9-0.2c1.9,1.7,3.9,3.4,5.7,5.2c0.9,0.8,0.6,2-0.6,2.4
		c-1.1,0.4-2.3,0.7-3.4,1C16.6,46.4,15.3,44.7,14,43z"/>
	<path class="st0" d="M27.8,32.6c-0.1,2.3-0.3,4.6-0.4,7c0,0.6-0.3,1-0.9,1.3c-0.5,0.2-1,0.1-1.5-0.2c-2.1-1.5-4.1-3-6.2-4.4
		c-0.5-0.4-0.4-0.6,0-0.9c2.4-2.2,5.3-3.5,8.5-4c0.4-0.1,0.5,0.1,0.4,0.4C27.8,32,27.8,32.3,27.8,32.6
		C27.8,32.6,27.8,32.6,27.8,32.6z"/>
	<path class="st0" d="M32.6,31.4c2.5,0.4,4.8,1.3,6.9,2.9c0.5,0.4,1,0.8,1.5,1.2c0.3,0.2,0.3,0.4,0,0.7c-2.1,1.5-4.3,3-6.4,4.5
		c-0.9,0.6-2.1,0.1-2.2-1c-0.2-2.5-0.3-5.1-0.4-7.6C31.9,31.6,32,31.3,32.6,31.4z"/>
</g>
</svg>
