<?xml version="1.0" encoding="utf-8"?>
<!-- Generator: Adobe Illustrator 21.0.0, SVG Export Plug-In . SVG Version: 6.00 Build 0)  -->
<svg version="1.1" id="Layer_1" xmlns="http://www.w3.org/2000/svg" xmlns:xlink="http://www.w3.org/1999/xlink" x="0px" y="0px"
	 viewBox="0 0 327.8 305.5" style="enable-background:new 0 0 327.8 305.5;" xml:space="preserve">
<style type="text/css">
	.st0{fill:url(#SVGID_1_);}
	.st1{fill:url(#SVGID_2_);}
	.st2{fill:url(#SVGID_3_);}
	.st3{fill:url(#SVGID_4_);}
	.st4{fill:url(#SVGID_5_);}
	.st5{fill:url(#SVGID_6_);}
</style>
<g>
	<linearGradient id="SVGID_1_" gradientUnits="userSpaceOnUse" x1="114.6837" y1="179.6118" x2="248.4084" y2="45.8871">
		<stop  offset="0" style="stop-color:#5C84C3"/>
		<stop  offset="1" style="stop-color:#282F74"/>
	</linearGradient>
	<path class="st0" d="M252,147.2c-17.6,0-34.6,0-52.7,0c4.1,8.1,7.8,15.7,11.8,23.2c0.5,0.9,2.3,1.1,3.5,1.6
		c15.4,5.9,22.8,22.5,16.9,37.6c-6,15-23.2,22.2-38.1,15.8c-14.9-6.4-21.6-23.5-14.7-38.4c1.3-2.7,0.9-4.5-0.4-7.1
		c-4.7-9.5-9.1-19.2-13.1-29c-1.1-2.7-2-4.1-5.1-3.9c-4.5,0.3-9,0.1-13.4,0.1c-2.6,9.2-5.3,18-7.6,27c-0.3,1,0.9,2.7,1.8,3.6
		c5,4.9,10.2,9.6,15.3,14.4c3.7,3.5,3.8,5.9,0.3,9.7c-8.9,9.7-17.9,19.3-26.9,28.9c-4.2,4.4-6.1,4.5-10.4,0.4
		c-9.4-8.7-18.8-17.5-28.1-26.3c-4.8-4.5-4.9-6.4-0.5-11.2c4.8-5.1,9.6-10.1,14.3-15.4c1.3-1.5,2.4-3.6,2.7-5.6
		c1.2-8.2,2-16.5,3-25.2c-13.8,0-27.5,0-41.6,0c2.8,5.2,6.1,10,8.3,15.3c2.1,5.1,4.1,10.6,4.6,16.1c0.7,8.7-5.9,13.8-14.5,12.6
		c-7.4-1-12.8-5.3-17.8-10.3c-8.6-8.6-15.2-18.6-19.6-29.9c-1.3-3.5-3.1-4.4-6.6-4.2c-5.6,0.3-11.3,0.1-17.2,0.1c0-3.4,0-6.4,0-10.1
		c6.4,0,12.8,0,18.6,0c1.8-8.1,2.8-15.7,5.2-22.9c7.2-22,21.9-35.7,45.6-37.2c11.9-0.8,24.1-1.1,35.8,0.6
		c25.8,3.8,39.1,22.2,37.2,49.2c-0.2,3.1-0.5,6.3-0.8,9.8c5.1,0,9.8,0,14.1,0c1.3-7.6,2-15.1,4-22.2c6.3-22.2,21.3-34.1,44.2-36.4
		c14.4-1.4,28.6-1.7,42.7,2c25.4,6.6,39,24,39.3,50.3c0,2,0,4,0,6.4c5.1,0,10.1,0,15.4,0c0,3.5,0,6.6,0,10.4c-4.5,0-9.3,0.2-14-0.1
		c-2.9-0.1-4.2,0.9-5.5,3.6c-4.7,9.3-9.6,18.6-15.1,27.5c-4.2,6.8-10.2,11.9-18.6,13.2c-11.6,1.8-18.2-5.5-14.8-16.7
		c1.4-4.8,3.5-9.3,5.6-13.9C247,156.4,249.4,152.2,252,147.2z M248.3,180.7c7.1,0.7,11.3-0.9,15.5-7.6c5.6-9,11.3-18.2,15.2-28
		c9.7-24.3-2.9-48.3-28.1-55c-14.8-4-29.7-3.5-44.6-1.2c-14.5,2.2-24.2,10.5-29.3,24.1c-9.5,25.1-0.9,46.5,13.6,66.7
		c0.4,0.5,0.9,1.2,1.4,1.3c2.2,0.6,5.4,2.1,6.4,1.2c1.8-1.6,2.7-4.6,3-7.2c0.2-1.5-1.4-3.3-2.2-4.9c-3.1-6.4-6.4-12.8-9.3-19.3
		c-0.9-2-1.1-4.5-0.8-6.7c1.3-8.4,3-16.7,4.3-25.1c0.6-3.7,1.7-6.8,6-6.3c4.8,0.6,4.7,4.4,4.1,8.1c-0.9,5.2-1.8,10.4-2.7,15.7
		c18.2,0,35.9,0,54.2,0c-1.5-5.1-2.9-9.7-4.2-14.3c-1-3.4-0.5-6.5,3.5-7.5c3.7-0.9,5.4,1.4,6.4,4.7c1.8,6.2,3.9,12.4,5.3,18.7
		c0.5,2.3-0.1,5.2-1.2,7.4c-4.4,8.8-9.2,17.3-13.7,26C250,174.2,249.4,177.4,248.3,180.7z M70.8,181.8c0.5-0.5,1-0.9,1.6-1.4
		c-1-3.5-1.3-7.4-3.1-10.6c-4.5-8.3-9.4-16.4-14.6-24.4c-2.2-3.3-2.7-6.1-1-9.7c2.6-5.6,4.9-11.3,7.3-16.9c1.5-3.4,4-5.2,7.5-3.5
		c3.3,1.6,3.3,4.6,1.9,7.7c-1.9,4.4-3.8,8.8-5.9,13.5c15,0,29.4,0,44,0c-1-6.2-2.4-12.1-2.7-18c-0.1-1.9,2.1-5,3.9-5.7
		c3.1-1.2,5.4,1,5.9,4.3c2.5,15.4,7.1,30.5,3.2,46.4c-0.8,3.2-0.6,6.6-1.2,9.9c-0.7,3.8,1.2,6.2,4.3,6.5c1.5,0.2,4.3-2.1,5-3.9
		c7.7-18.7,11.8-38.1,10.8-58.4c-0.8-16.3-9.4-26.2-25.3-29.6c-13.5-2.9-27.2-3-40.7-0.3c-22.7,4.4-40.1,29.8-34.8,52.5
		c3.6,15.5,12.5,28.6,25.4,38.4C64.8,180.3,68,180.8,70.8,181.8z M124.2,221.6c7.7-8.3,15.1-16.2,22.7-24.3c-4.5-4.2-8.5-8-12.8-12
		c-7.4,8.6-14.8,6.3-22.3,0.7c-4.1,4.4-7.9,8.4-12,12.8C108,206.5,115.9,213.9,124.2,221.6z M211.8,182.1
		c-7.2,11.5-12.6,13.6-23.4,9.2c-4.5,9.2-0.8,19.9,8.5,24.3c9.2,4.4,20.5,0.3,24.8-9C226,197.3,221.9,186.9,211.8,182.1z"/>
	<linearGradient id="SVGID_2_" gradientUnits="userSpaceOnUse" x1="227.6371" y1="292.5652" x2="361.3618" y2="158.8405">
		<stop  offset="0" style="stop-color:#5C84C3"/>
		<stop  offset="1" style="stop-color:#282F74"/>
	</linearGradient>
	<path class="st1" d="M296.3,259c-0.9,1.6-1.5,3.3-2.5,4.4c-9.4,10.2-18.8,20.2-28.2,30.4c-3,3.2-5.9,3.2-9.1,0.2
		c-10-9.3-20-18.6-30-27.9c-3.2-2.9-3.4-5.8-0.4-9c9.5-10.1,18.9-20.2,28.3-30.3c2.8-3,5.7-3,8.7-0.2c10.2,9.6,20.5,19.1,30.6,28.7
		C294.7,256.1,295.3,257.6,296.3,259z M283.4,259.5c-8.2-7.7-16.2-15.1-24.4-22.7c-7.7,8.3-15.1,16.2-22.7,24.4
		c8.2,7.7,16.2,15.1,24.4,22.7C268.5,275.5,275.8,267.7,283.4,259.5z"/>
	<linearGradient id="SVGID_3_" gradientUnits="userSpaceOnUse" x1="132.3402" y1="197.2684" x2="266.0649" y2="63.5436">
		<stop  offset="0" style="stop-color:#5C84C3"/>
		<stop  offset="1" style="stop-color:#282F74"/>
	</linearGradient>
	<path class="st2" d="M69.9,228.8c17.1-0.1,30.9,13.5,31,30.6c0.1,17.4-13.7,31.2-31,31.1c-17-0.1-30.8-13.9-30.9-30.8
		C39,242.7,52.8,228.8,69.9,228.8z M69.7,280.2c11.7,0,21.1-9.2,21-20.8c-0.1-11.2-9.5-20.4-20.9-20.4c-11.2,0-20.3,9.1-20.4,20.3
		C49.3,270.8,58.3,280.1,69.7,280.2z"/>
	<linearGradient id="SVGID_4_" gradientUnits="userSpaceOnUse" x1="188.5725" y1="253.5007" x2="322.2973" y2="119.7759">
		<stop  offset="0" style="stop-color:#5C84C3"/>
		<stop  offset="1" style="stop-color:#282F74"/>
	</linearGradient>
	<path class="st3" d="M151.2,293.2c-3.2,0.2-6.3,0.6-9.5,0.7c-5.4,0.1-8-3.3-5.6-8c7.4-15.2,15-30.4,22.7-45.5
		c2.4-4.8,6.7-4.9,9.7-0.4c9.4,13.9,18.6,28,27.8,42c3.1,4.8,0.9,8.5-5.3,8.9C177.8,291.8,164.5,292.5,151.2,293.2
		C151.2,293.2,151.2,293.2,151.2,293.2z M183.5,281c-6.6-10-12.7-19.1-19.1-28.8c-5.3,10.7-10.2,20.4-15.4,31
		C160.7,282.4,171.6,281.8,183.5,281z"/>
	<linearGradient id="SVGID_5_" gradientUnits="userSpaceOnUse" x1="32.418" y1="97.3461" x2="166.1427" y2="-36.3786">
		<stop  offset="0" style="stop-color:#5C84C3"/>
		<stop  offset="1" style="stop-color:#282F74"/>
	</linearGradient>
	<path class="st4" d="M90.2,65.1c-14,0-25.4-11.3-25.4-25.4C64.7,25.3,76,14,90.3,14c14.1,0,25.5,11.4,25.5,25.4
		C115.8,53.7,104.5,65.1,90.2,65.1z M105.7,39.3C105.5,31,98.4,24,90.2,24.2c-8.6,0.1-15.5,7.3-15.3,15.8c0.2,8.2,7.5,15.2,15.7,15
		C98.8,54.7,105.8,47.5,105.7,39.3z"/>
	<linearGradient id="SVGID_6_" gradientUnits="userSpaceOnUse" x1="98.9892" y1="163.9173" x2="232.7139" y2="30.1926">
		<stop  offset="0" style="stop-color:#5C84C3"/>
		<stop  offset="1" style="stop-color:#282F74"/>
	</linearGradient>
	<path class="st5" d="M248.9,40c-0.1,13.9-11.7,25.2-25.7,25.1c-14.3-0.1-25.5-11.6-25.4-26c0.1-13.9,11.6-25.2,25.7-25.1
		C237.9,14.1,249,25.5,248.9,40z M238.8,39.7c0.1-8.3-6.7-15.3-15.1-15.6c-8.2-0.2-15.5,6.6-15.7,14.9c-0.3,8.5,6.8,15.8,15.3,15.9
		C231.6,55,238.6,48,238.8,39.7z"/>
</g>
</svg>
